<?xml version="1.0" encoding="utf-8"?>
<!-- Generator: Adobe Illustrator 21.0.2, SVG Export Plug-In . SVG Version: 6.00 Build 0)  -->
<svg version="1.1" id="Layer_1" xmlns="http://www.w3.org/2000/svg" xmlns:xlink="http://www.w3.org/1999/xlink" x="0px" y="0px"
	 viewBox="0 0 63.9 51.6" style="enable-background:new 0 0 63.9 51.6;" xml:space="preserve">
<style type="text/css">
	.st0{fill:none;}
</style>
<g>
	<path class="st0" d="M26.1,14.9c-5.7,0.1-10.4,4.7-10.7,10.4c-0.2,6.2,4.7,11.2,10.8,11.2c4.5,0,8.7-2.7,10.2-7
		C39,21.8,33.4,14.8,26.1,14.9z"/>
	<path d="M36.4,41.7l-0.8,0.4c-1.3,0.8-2.8,1.4-4.3,1.8l-0.9,0.2v3.9h-8.3v-3.9L21.2,44c-1.5-0.4-2.9-1-4.3-1.8l-0.8-0.4l-2.8,2.8
		l-5.9-5.9l2.8-2.8L9.7,35c-0.8-1.3-1.4-2.8-1.8-4.3l-0.2-0.9H3.8v-8.3h3.9l0.2-0.9c0.4-1.5,1-2.9,1.8-4.3l0.4-0.8l-2.8-2.8l5.9-5.9
		l2.8,2.8l0.8-0.4c1.3-0.8,2.8-1.4,4.3-1.8l0.9-0.2V3.2h8.3v3.9l0.9,0.2c1.5,0.4,2.9,1,4.3,1.8l0.8,0.4l2.8-2.8l5.9,5.9l-2.8,2.8
		l0.4,0.8c0.8,1.3,1.4,2.8,1.8,4.3l0.2,0.9h3.9v3.8c0.8-0.1,1.6-0.2,2.4-0.2c0,0,0,0,0.1,0v-5c0-0.5-0.4-1-1-1h-3.5
		c-0.4-1.1-0.8-2.2-1.3-3.2l2.5-2.5c0.4-0.4,0.4-1,0-1.4L39.9,4c-0.4-0.4-1-0.4-1.4,0L36,6.6c-1-0.5-2.1-1-3.2-1.3V1.7
		c0-0.5-0.4-1-1-1H20.7c-0.5,0-1,0.4-1,1v3.5c-1.1,0.4-2.2,0.8-3.2,1.3L14,4.1c-0.4-0.4-1-0.4-1.4,0L4.6,12c-0.4,0.4-0.4,1,0,1.4
		l2.5,2.5c-0.5,1-1,2.1-1.3,3.2H2.3c-0.5,0-1,0.4-1,1v11.2c0,0.5,0.4,1,1,1h3.5c0.4,1.1,0.8,2.2,1.3,3.2l-2.5,2.5
		c-0.4,0.4-0.4,1,0,1.4l7.9,7.9c0.4,0.4,1,0.4,1.4,0l2.5-2.5c1,0.5,2.1,1,3.2,1.3v3.5c0,0.5,0.4,1,1,1h11.2c0.5,0,1-0.4,1-1V46
		c1.1-0.4,2.2-0.8,3.2-1.3l2.5,2.5c0.4,0.4,1,0.4,1.4,0l0.5-0.5c-0.6-0.8-1.1-1.6-1.5-2.4L36.4,41.7z"/>
	<path d="M26.2,12.4c-7.5,0-13.5,6.3-13.2,13.8c0.3,6.7,5.8,12.3,12.6,12.6c7.6,0.3,13.8-5.7,13.8-13.2
		C39.5,18.4,33.5,12.4,26.2,12.4z M36.4,29.4c-1.5,4.3-5.6,7-10.2,7c-6.1,0-11-5.1-10.8-11.2c0.2-5.7,5-10.3,10.7-10.4
		C33.4,14.8,39,21.8,36.4,29.4z"/>
</g>
<path d="M51.1,26.1c-6.8,0-12.4,5.6-12.4,12.4s5.6,12.4,12.4,12.4s12.4-5.6,12.4-12.4S57.9,26.1,51.1,26.1z M61.5,38.5
	c0,5.8-4.7,10.4-10.4,10.4c-5.8,0-10.4-4.7-10.4-10.4c0-5.8,4.7-10.4,10.4-10.4C56.9,28.1,61.5,32.8,61.5,38.5z"/>
<g>
	<polygon points="47.9,33.3 45.8,35.4 49,38.5 45.8,41.7 47.9,43.8 51.1,40.6 54.3,43.8 56.4,41.7 53.2,38.5 56.4,35.4 54.3,33.3 
		51.1,36.4 	"/>
</g>
</svg>
