<?xml version="1.0" encoding="utf-8"?>
<!-- Generator: Adobe Illustrator 21.0.2, SVG Export Plug-In . SVG Version: 6.00 Build 0)  -->
<svg version="1.1" id="Layer_1" xmlns="http://www.w3.org/2000/svg" xmlns:xlink="http://www.w3.org/1999/xlink" x="0px" y="0px"
	 viewBox="0 0 73.1 69.6" style="enable-background:new 0 0 73.1 69.6;" xml:space="preserve">
<g>
	<path d="M23.2,32.4l-8.7-8.9c-0.3-0.4-1-0.4-1.3,0l-8.7,8.9c-0.4,0.4-0.4,1,0,1.3l8.7,8.9c0.2,0.2,0.4,0.3,0.7,0.3
		c0.2,0,0.5-0.1,0.7-0.3l8.7-8.9C23.6,33.4,23.6,32.8,23.2,32.4z M13.9,40.6L6.5,33l7.3-7.6l7.3,7.6L13.9,40.6z"/>
	<path d="M19.5,32.7L19.5,32.7c-0.1-0.1-0.1-0.1-0.1-0.1l-1.2-1.2c-0.2-0.2-0.5-0.2-0.6,0l-0.1,0.1c-0.2,0.2-0.2,0.5,0,0.6l0.9,0.9
		l-1.7,1.7c-0.2,0.2-0.2,0.5,0,0.6l0.1,0.1c0.2,0.2,0.5,0.2,0.6,0l2.1-2.1C19.7,33.2,19.7,32.9,19.5,32.7z"/>
	<path d="M10.9,30.6c-0.2-0.2-0.5-0.2-0.6,0l-2,2c0,0,0,0,0,0l-0.1,0.1c-0.2,0.2-0.2,0.5,0,0.6l1.3,1.3c0.2,0.2,0.5,0.2,0.6,0
		l0.1-0.1c0.2-0.2,0.2-0.5,0-0.6L9.3,33l1.7-1.7C11.2,31.2,11.2,30.9,10.9,30.6L10.9,30.6z"/>
</g>
<g>
	<path d="M37.6,32.6h-8.1v2.5h8.1l-2.8,2.8l1.7,1.7l4.9-4.9c0.5-0.5,0.5-1.3,0-1.7L36.5,28l-1.7,1.7L37.6,32.6z"/>
</g>
<g>
	<path d="M32.1,19L25,23.1l1.2,2.1l7.1-4.1l-1,3.9l2.4,0.6l1.8-6.8c0.2-0.7-0.2-1.3-0.9-1.5l-6.8-1.8L28.2,18L32.1,19z"/>
</g>
<g>
	<path d="M32.1,48.9L25,44.8l1.2-2.1l7.1,4.1l-1-3.9l2.4-0.6l1.8,6.8c0.2,0.7-0.2,1.3-0.9,1.5l-6.8,1.8l-0.6-2.4L32.1,48.9z"/>
</g>
<g>
	<path d="M58.4,11c0-0.2-0.1-0.4-0.2-0.6l-6.7-6.8l-2.1-2.1c0,0,0,0,0,0c-0.2-0.2-0.4-0.3-0.6-0.3c0,0,0,0,0,0
		c-0.2,0-0.4,0.1-0.6,0.2c0,0,0,0-0.1,0l-8.7,8.9c-0.1,0.1-0.2,0.3-0.2,0.4c0,0.2,0,0.4,0,0.6c0,0.1,0.1,0.2,0.2,0.3l8.7,8.9
		c0.1,0.1,0.1,0.1,0.2,0.1c0,0,0.1,0,0.1,0.1c0,0,0.1,0,0.1,0c0.1,0,0.2,0.1,0.3,0.1c0,0,0,0,0,0c0.2,0,0.5-0.1,0.7-0.3l8.7-8.9l0,0
		c0.2-0.2,0.2-0.4,0.2-0.6C58.4,11.1,58.4,11,58.4,11z M41.5,11l7.3-7.6l7.3,7.6l-7.3,7.6L41.5,11z"/>
	<path d="M51.7,13.4c0.2,0.2,0.5,0.2,0.6,0l2.1-2.1c0.2-0.2,0.2-0.5,0-0.6l-0.1-0.1c0,0,0,0,0,0l-1.2-1.2c-0.2-0.2-0.5-0.2-0.6,0
		l-0.1,0.1c-0.2,0.2-0.2,0.5,0,0.6l0.9,0.9l-1.7,1.7C51.5,12.9,51.5,13.2,51.7,13.4L51.7,13.4z"/>
	<path d="M45.9,8.7c-0.2-0.2-0.5-0.2-0.6,0l-2,2c0,0,0,0,0,0l-0.1,0.1c-0.2,0.2-0.2,0.5,0,0.6l1.3,1.3c0.2,0.2,0.5,0.2,0.6,0
		l0.1-0.1c0.2-0.2,0.2-0.5,0-0.6l-0.9-0.9l1.7-1.7C46.1,9.2,46.1,8.9,45.9,8.7L45.9,8.7z"/>
</g>
<g>
	<path d="M66.3,33.6l-8.7-8.9c-0.2-0.2-0.4-0.3-0.7-0.3c-0.2,0-0.4,0.1-0.6,0.3c0,0,0,0,0,0l-8.7,8.9c-0.2,0.2-0.3,0.4-0.3,0.6
		c0,0,0,0,0,0c0,0.2,0.1,0.5,0.3,0.7l8.7,8.9c0.1,0.1,0.1,0.1,0.2,0.1c0,0,0.1,0.1,0.1,0.1c0,0,0.1,0,0.1,0c0.1,0,0.2,0.1,0.3,0.1
		c0,0,0,0,0,0c0.2,0,0.5-0.1,0.7-0.3l8.7-8.9v0C66.6,34.5,66.6,33.9,66.3,33.6z M64.2,34.2l-7.3,7.6l-7.3-7.6l7.3-7.6L64.2,34.2z"/>
	<path d="M59.8,36.6c0.2,0.2,0.5,0.2,0.6,0l2.1-2.1c0.2-0.2,0.2-0.5,0-0.6l-0.1-0.1c0,0,0,0,0,0l-1.2-1.2c-0.2-0.2-0.5-0.2-0.6,0
		l-0.1,0.1c-0.2,0.2-0.2,0.5,0,0.6l0.9,0.9l-1.7,1.7C59.6,36,59.6,36.3,59.8,36.6L59.8,36.6z"/>
	<path d="M51.2,34.5l1.3,1.3c0.2,0.2,0.5,0.2,0.6,0l0.1-0.1c0.2-0.2,0.2-0.5,0-0.6l-0.9-0.9l1.7-1.7c0.2-0.2,0.2-0.5,0-0.6L54,31.8
		c-0.2-0.2-0.5-0.2-0.6,0l-2,2c0,0,0,0,0,0l-0.1,0.1C51.1,34,51.1,34.3,51.2,34.5z"/>
</g>
<g>
	<path d="M57,57.9L48.3,49c-0.2-0.2-0.4-0.3-0.7-0.3c0,0,0,0,0,0c-0.2,0-0.5,0.1-0.7,0.3l-8.7,8.9c-0.4,0.4-0.4,1,0,1.3l8.7,8.9
		c0.2,0.2,0.4,0.3,0.7,0.3c0,0,0,0,0,0c0.2,0,0.5-0.1,0.7-0.3l8.7-8.9C57.4,58.8,57.4,58.2,57,57.9z M55,58.5l-7.3,7.6l-7.3-7.6
		l7.3-7.6L55,58.5z"/>
	<path d="M50.6,60.9c0.2,0.2,0.5,0.2,0.6,0l2.1-2.1c0.2-0.2,0.2-0.5,0-0.6l-0.1-0.1c0,0,0,0,0,0L52,56.8c-0.2-0.2-0.5-0.2-0.6,0
		l-0.1,0.1c-0.2,0.2-0.2,0.5,0,0.6l0.9,0.9l-1.7,1.7C50.3,60.3,50.3,60.6,50.6,60.9L50.6,60.9z"/>
	<path d="M44.7,56.1c-0.2-0.2-0.5-0.2-0.6,0l-2,2c0,0,0,0,0,0L42,58.2c-0.2,0.2-0.2,0.5,0,0.6l1.3,1.3c0.2,0.2,0.5,0.2,0.6,0L44,60
		c0.2-0.2,0.2-0.5,0-0.6l-0.9-0.9l1.7-1.7C45,56.6,45,56.3,44.7,56.1L44.7,56.1z"/>
</g>
<path d="M12,33C12,33,12,33,12,33v-1c0,0,0-0.1,0-0.1c0,0,0,0,0,0c0,0,0-0.1,0.1-0.1c0,0,0,0,0,0c0,0,0.1-0.1,0.1-0.1
	c0,0,0.1,0,0.1,0c0,0,0.1,0,0.1,0c0,0,0,0,0.1,0c0,0,0.1,0,0.1,0c0,0,0.1,0,0.1,0c0,0,0.1,0,0.1,0c0.1,0,0.2,0,0.3,0
	c0.1,0,0.1,0,0.2,0c0.1,0,0.2,0,0.3,0c0.1,0,0.2,0,0.3,0c0.1,0,0.2,0,0.3,0c0,0,0,0,0.1,0c0.1,0,0.1,0,0.2,0c0,0,0.1,0,0.1,0
	c0.1,0,0.2,0,0.3,0.1c0,0,0.1,0,0.1,0.1c0,0,0.1,0,0.1,0c0,0,0,0,0,0c0,0,0,0,0.1,0c0,0,0.1,0,0.1,0.1c0,0,0,0,0,0c0,0,0,0,0,0
	c0,0,0.1,0.1,0.1,0.1c0,0,0,0,0,0.1c0,0,0,0,0,0.1v2.2c0,0,0,0,0,0c0,0,0,0.1,0,0.1c0,0.1-0.1,0.2-0.2,0.2c0,0-0.1,0.1-0.1,0.1
	c-0.2,0.1-0.4,0.1-0.6,0.2c-0.5,0.1-1.1,0.1-1.6,0c-0.2,0-0.4-0.1-0.6-0.2c-0.1,0-0.2-0.1-0.2-0.1c0,0,0,0,0,0
	c-0.1,0-0.1-0.1-0.1-0.2c0-0.1,0-0.1,0-0.2V33z"/>
<path d="M47,11C47,11,47,11,47,11v-1c0,0,0-0.1,0-0.1c0,0,0,0,0,0c0,0,0-0.1,0.1-0.1c0,0,0,0,0,0c0,0,0.1-0.1,0.1-0.1
	c0,0,0.1,0,0.1,0c0,0,0.1,0,0.1,0c0,0,0,0,0.1,0c0,0,0.1,0,0.1,0c0,0,0.1,0,0.1,0c0,0,0.1,0,0.1,0c0.1,0,0.2,0,0.3,0
	c0.1,0,0.1,0,0.2,0c0.1,0,0.2,0,0.3,0c0.1,0,0.2,0,0.3,0c0.1,0,0.2,0,0.3,0c0,0,0,0,0.1,0c0.1,0,0.1,0,0.2,0c0,0,0.1,0,0.1,0
	c0.1,0,0.2,0,0.3,0.1c0,0,0.1,0,0.1,0.1c0,0,0.1,0,0.1,0c0,0,0,0,0,0c0,0,0,0,0.1,0c0,0,0.1,0,0.1,0.1c0,0,0,0,0,0c0,0,0,0,0,0
	c0,0,0.1,0.1,0.1,0.1c0,0,0,0,0,0.1c0,0,0,0,0,0.1v2.2c0,0,0,0,0,0c0,0,0,0.1,0,0.1c0,0.1-0.1,0.2-0.2,0.2c0,0-0.1,0.1-0.1,0.1
	c-0.2,0.1-0.4,0.1-0.6,0.2c-0.5,0.1-1.1,0.1-1.6,0c-0.2,0-0.4-0.1-0.6-0.2c-0.1,0-0.2-0.1-0.2-0.1c0,0,0,0,0,0
	c-0.1,0-0.1-0.1-0.1-0.2c0-0.1,0-0.1,0-0.2V11z"/>
<path d="M55,34C55,34,55,34,55,34v-1c0,0,0-0.1,0-0.1c0,0,0,0,0,0c0,0,0-0.1,0.1-0.1c0,0,0,0,0,0c0,0,0.1-0.1,0.1-0.1
	c0,0,0.1,0,0.1,0c0,0,0.1,0,0.1,0c0,0,0,0,0.1,0c0,0,0.1,0,0.1,0c0,0,0.1,0,0.1,0c0,0,0.1,0,0.1,0c0.1,0,0.2,0,0.3,0
	c0.1,0,0.1,0,0.2,0c0.1,0,0.2,0,0.3,0c0.1,0,0.2,0,0.3,0c0.1,0,0.2,0,0.3,0c0,0,0,0,0.1,0c0.1,0,0.1,0,0.2,0c0,0,0.1,0,0.1,0
	c0.1,0,0.2,0,0.3,0.1c0,0,0.1,0,0.1,0.1c0,0,0.1,0,0.1,0c0,0,0,0,0,0c0,0,0,0,0.1,0c0,0,0.1,0,0.1,0.1c0,0,0,0,0,0c0,0,0,0,0,0
	c0,0,0.1,0.1,0.1,0.1c0,0,0,0,0,0.1c0,0,0,0,0,0.1v2.2c0,0,0,0,0,0c0,0,0,0.1,0,0.1c0,0.1-0.1,0.2-0.2,0.2c0,0-0.1,0.1-0.1,0.1
	c-0.2,0.1-0.4,0.1-0.6,0.2c-0.5,0.1-1.1,0.1-1.6,0c-0.2,0-0.4-0.1-0.6-0.2c-0.1,0-0.2-0.1-0.2-0.1c0,0,0,0,0,0
	c-0.1,0-0.1-0.1-0.1-0.2c0-0.1,0-0.1,0-0.2V34z"/>
<path d="M46,58C46,58,46,58,46,58v-1c0,0,0-0.1,0-0.1c0,0,0,0,0,0c0,0,0-0.1,0.1-0.1c0,0,0,0,0,0c0,0,0.1-0.1,0.1-0.1
	c0,0,0.1,0,0.1,0c0,0,0.1,0,0.1,0c0,0,0,0,0.1,0c0,0,0.1,0,0.1,0c0,0,0.1,0,0.1,0c0,0,0.1,0,0.1,0c0.1,0,0.2,0,0.3,0
	c0.1,0,0.1,0,0.2,0c0.1,0,0.2,0,0.3,0c0.1,0,0.2,0,0.3,0c0.1,0,0.2,0,0.3,0c0,0,0,0,0.1,0c0.1,0,0.1,0,0.2,0c0,0,0.1,0,0.1,0
	c0.1,0,0.2,0,0.3,0.1c0,0,0.1,0,0.1,0.1c0,0,0.1,0,0.1,0c0,0,0,0,0,0c0,0,0,0,0.1,0c0,0,0.1,0,0.1,0.1c0,0,0,0,0,0c0,0,0,0,0,0
	c0,0,0.1,0.1,0.1,0.1c0,0,0,0,0,0.1c0,0,0,0,0,0.1v2.2c0,0,0,0,0,0c0,0,0,0.1,0,0.1c0,0.1-0.1,0.2-0.2,0.2c0,0-0.1,0.1-0.1,0.1
	c-0.2,0.1-0.4,0.1-0.6,0.2c-0.5,0.1-1.1,0.1-1.6,0c-0.2,0-0.4-0.1-0.6-0.2c-0.1,0-0.2-0.1-0.2-0.1c0,0,0,0,0,0
	c-0.1,0-0.1-0.1-0.1-0.2c0-0.1,0-0.1,0-0.2V58z"/>
</svg>
