<svg class="svg-icon" version="1.1" id="Layer_1" xmlns="http://www.w3.org/2000/svg" xmlns:xlink="http://www.w3.org/1999/xlink" x="0px" y="0px"
	 viewBox="0 0 73.4 64" style="enable-background:new 0 0 73.4 64;" xml:space="preserve">
<path d="M72.5,26.8c0,5.8-4.7,10.5-10.5,10.5h-2.8c0-0.8-0.1-1.6-0.3-2.4h3.1c4.5,0,8.1-3.6,8.1-8.1s-3.6-8.1-8.1-8.1h-2.5l-0.4-1.6
	c-0.6-2.6-2.9-4.4-5.6-4.4c-0.6,0-1.2,0.1-1.9,0.3l-1.9,0.7L49,11.9c-1.5-4.4-5.8-7.4-10.5-7.4c-3,0-5.8,1.2-7.9,3.2
	c-1.3,1.2-2.2,2.7-2.7,4.4c-0.8-0.2-1.6-0.4-2.4-0.5c1.7-5.5,6.9-9.5,13-9.5c5.6,0,10.6,3.5,12.6,8.7c0.6-0.2,1.4-0.4,2.3-0.4
	c3.7,0,6.9,2.4,7.8,6h0.5C67.7,16.4,72.5,21.1,72.5,26.8z"/>
<path d="M58,37.5C58,43.3,53.2,48,47.4,48h-2.2c0.1-0.5,0.1-1.1,0.1-1.6c0-0.3,0-0.6,0-0.9h2.1c4.4,0,8.1-3.6,8.1-8
	c0-4.4-3.6-8-8.1-8h-2.5l-0.4-1.6c-0.6-2.6-2.9-4.3-5.5-4.3c-0.6,0-1.2,0.1-1.9,0.3l-2,0.7l-0.7-2c-1.5-4.4-5.7-7.4-10.4-7.4
	c-2.9,0-5.7,1.1-7.8,3.2c-2.1,2.1-3.2,4.8-3.2,7.8c0,0.4,0,0.8,0.1,1.1l0.2,2l-2,0.3c-3.9,0.7-6.7,4-6.7,7.9c0,4.4,3.6,8,8.1,8h2.2
	c0,0.3,0,0.6,0,0.9c0,0.5,0,1.1,0.1,1.6h-2.3C6.8,48,2.1,43.3,2.1,37.5c0-5,3.5-9.3,8.4-10.3c0-0.3,0-0.7,0-1
	c0-7.4,6.1-13.5,13.6-13.5c5.6,0,10.7,3.5,12.7,8.7c0.6-0.2,1.4-0.4,2.3-0.4c3.7,0,6.9,2.4,7.9,6h0.5C53.2,27,58,31.7,58,37.5z"/>
<path d="M30.1,32.3c-7.7,0-14,6.3-14,14c0,7.7,6.3,14,14,14c7.7,0,14-6.3,14-14C44.1,38.6,37.8,32.3,30.1,32.3z M41.9,46.4
	c0,6.5-5.3,11.8-11.8,11.8c-6.5,0-11.8-5.3-11.8-11.8c0-6.5,5.3-11.8,11.8-11.8C36.6,34.6,41.9,39.9,41.9,46.4z"/>
<g>
	<path d="M32,45.2h-7.8v2.4H32l-2.7,2.7l1.7,1.7l4.7-4.7c0.5-0.5,0.5-1.2,0-1.7l-4.7-4.7l-1.7,1.7L32,45.2z"/>
</g>
</svg>
