<?xml version="1.0" encoding="utf-8"?>
<!-- Generator: Adobe Illustrator 21.0.2, SVG Export Plug-In . SVG Version: 6.00 Build 0)  -->
<svg version="1.1" id="Layer_1" xmlns="http://www.w3.org/2000/svg" xmlns:xlink="http://www.w3.org/1999/xlink" x="0px" y="0px"
	 viewBox="0 0 78.3 64" style="enable-background:new 0 0 78.3 64;" xml:space="preserve">
<style type="text/css">
	.st0{fill:#FFFFFF;}
</style>
<path d="M70.2,14.3c0-2.8-2.3-5.1-5.1-5.1h-23c-0.6,0-1.1-0.5-1.1-1.1V6.7c0-1.6-1.3-3-3-3H13.1c-1.6,0-3,1.3-3,3v7.1h2.6V7.4
	c0-0.6,0.5-1.1,1.1-1.1h23.4c0.6,0,1.1,0.5,1.1,1.1v2.8c0,0.8,0.7,1.5,1.5,1.5H65c1.4,0,2.6,1.2,2.6,2.6V32c0.9,0.4,1.8,0.9,2.6,1.4
	V14.3z"/>
<path d="M10.3,53.6c-1.7,0-3-1.3-3-3.1V38.6c0-0.2,0.1-0.4,0.3-0.5c0.1,0,0.2-0.1,0.3-0.1s0.2,0,0.3,0.1l2.8,1.7
	c0.3,0.2,0.7,0.2,1,0l5.4-3.6c0.2-0.1,0.5-0.1,0.7,0.1l3.5,3.5c0.3,0.3,0.8,0.4,1.2,0.1l7.3-5.2c0.1-0.1,0.2-0.1,0.3-0.1h7.3V32
	h-7.2c-0.1,0-0.2,0-0.3-0.1l-2.9-2c-0.3-0.2-0.6-0.2-0.9-0.1L23,31.5c-0.2,0.1-0.5,0.1-0.6-0.1l-3.6-3.6c-0.3-0.3-0.8-0.4-1.2-0.1
	l-5.7,3.9c-0.2,0.1-0.4,0.1-0.6,0l-3.6-2.2c-0.2-0.1-0.3-0.3-0.3-0.5v-8.7c0-1.7,1.3-3.1,3-3.1h46.2c1.4,0,2.5,1.1,2.5,2.5v11.3
	c0.8-0.1,1.6-0.2,2.5-0.2c0,0,0,0,0.1,0V18.6c0-2.2-1.8-4-4-4H10.3c-3.1,0-5.6,2.5-5.6,5.6v10c0,0.3,0.2,0.6,0.4,0.8l5.8,3.5
	c0.3,0.2,0.7,0.2,1,0l5.4-3.6c0.2-0.1,0.5-0.1,0.7,0.1l3.4,3.4c0.3,0.3,0.7,0.4,1.1,0.2l3.9-2l1.1,0.8l-4.8,3.5
	c-0.2,0.2-0.5,0.1-0.7-0.1l-3.5-3.5c-0.3-0.3-0.8-0.4-1.2-0.1L11.7,37c-0.2,0.1-0.4,0.1-0.6,0l-5-3c-0.3-0.2-0.6-0.2-0.9,0
	s-0.5,0.5-0.5,0.8v15.9c0,3.2,2.5,5.6,5.6,5.6h38.8c-0.6-0.8-1.2-1.7-1.7-2.6H10.3V53.6z"/>
<path d="M67,32.9c-0.9-0.4-1.8-0.7-2.8-0.9c-1-0.2-2-0.3-3-0.3c-2.7,0-5.2,0.7-7.3,2c-1.3,0.8-2.5,1.8-3.5,2.9
	c-0.6,0.7-1.1,1.4-1.6,2.2c-0.5,0.9-1,1.8-1.3,2.8c-0.5,1.4-0.8,3-0.8,4.6c0,2.8,0.8,5.4,2.2,7.6c0.7,1.1,1.4,2,2.4,2.9
	c2.6,2.5,6.1,4,10,4c8,0,14.5-6.5,14.5-14.5C75.7,40.3,72.1,35.2,67,32.9z M61.2,58.3c-2.2,0-4.2-0.6-6-1.6
	c-1.3-0.8-2.5-1.7-3.4-2.9C50.1,51.7,49,49,49,46.1c0-1.6,0.3-3.1,0.9-4.5c0.4-1,0.9-1.9,1.6-2.8c0.6-0.8,1.3-1.6,2.1-2.2
	c2.1-1.7,4.7-2.7,7.6-2.7c1.8,0,3.6,0.4,5.1,1.1c4.2,1.9,7.1,6.2,7.1,11.1C73.4,52.8,67.9,58.3,61.2,58.3z"/>
<g>
	<polygon points="64.2,46.7 63.7,46.2 64.2,45.7 67,42.9 67.4,42.5 67,42.1 64.9,40 63.3,41.6 61.2,43.7 59.1,41.6 57.5,40 
		55.9,41.6 55,42.5 58.7,46.2 55,49.9 57.5,52.3 61.2,48.6 64.2,51.6 64.9,52.3 67,50.3 67.4,49.9 67,49.5 	"/>
</g>
</svg>
