<svg class="svg-icon" xmlns="http://www.w3.org/2000/svg" xmlns:xlink="http://www.w3.org/1999/xlink" viewBox="0 0 47 54" version="1.1" x="0px" y="0px"><title>001 -  Protected Website</title><desc>Created with Sketch.</desc><g stroke="none" stroke-width="1" fill="none" fill-rule="evenodd"><g fill="#000000" fill-rule="nonzero"><path d="M11,32 C11.0007162,32.5519878 11.4480122,32.9992838 12,33 L26,33 C26.5519878,32.9992838 26.9992838,32.5519878 27,32 L27,23 L11,23 L11,32 Z M23,25 L24,25 C24.5522847,25 25,25.4477153 25,26 C25,26.5522847 24.5522847,27 24,27 L23,27 C22.4477153,27 22,26.5522847 22,26 C22,25.4477153 22.4477153,25 23,25 Z M23,29 L24,29 C24.5522847,29 25,29.4477153 25,30 C25,30.5522847 24.5522847,31 24,31 L23,31 C22.4477153,31 22,30.5522847 22,30 C22,29.4477153 22.4477153,29 23,29 Z M18,25 L20,25 C20.5522847,25 21,25.4477153 21,26 C21,26.5522847 20.5522847,27 20,27 L18,27 C17.4477153,27 17,26.5522847 17,26 C17,25.4477153 17.4477153,25 18,25 Z M18,29 L20,29 C20.5522847,29 21,29.4477153 21,30 C21,30.5522847 20.5522847,31 20,31 L18,31 C17.4477153,31 17,30.5522847 17,30 C17,29.4477153 17.4477153,29 18,29 Z M14,25 L15,25 C15.5522847,25 16,25.4477153 16,26 C16,26.5522847 15.5522847,27 15,27 L14,27 C13.4477153,27 13,26.5522847 13,26 C13,25.4477153 13.4477153,25 14,25 Z M14,29 L15,29 C15.5522847,29 16,29.4477153 16,30 C16,30.5522847 15.5522847,31 15,31 L14,31 C13.4477153,31 13,30.5522847 13,30 C13,29.4477153 13.4477153,29 14,29 Z"></path><path d="M26,19 L12,19 C11.4480122,19.0007162 11.0007162,19.4480122 11,20 L11,21 L27,21 L27,20 C26.9992838,19.4480122 26.5519878,19.0007162 26,19 Z"></path><path d="M19.66309,50.39844 C19.2844193,50.7339046 18.7148528,50.7336942 18.33643,50.39795 L8.02637,41.24805 C4.2182349,37.9204712 2.02331302,33.1171471 2,28.06006 L2,11.58006 C1.99980964,11.1114381 2.32524073,10.7056086 2.78271,10.60398 C6.72171,9.72752 13.98145,7.6992 18.34961,3.96043 C18.7240477,3.64012074 19.2759523,3.64012074 19.65039,3.96043 C24.01855,7.6992 31.27832,9.72752 35.21729,10.60398 C35.6747666,10.7056103 36.0001997,11.1114506 36,11.58008 L36,26.8576 C36.6173652,26.2538309 37.2866074,25.7054974 38,25.21893 L38,9.12207 C34.40771,8.46924 22.5332,5.92529 19,0.32227 C15.4668,5.92527 3.59229,8.46927 -7.10542736e-15,9.12207 L-7.10542736e-15,28.06007 C0.0279564068,33.6888519 2.46411482,39.0364199 6.69287,42.75147 L19,53.66406 L25.03876,48.31106 C24.7888676,47.5837383 24.6260097,46.829376 24.55359,46.06374 L19.66309,50.39844 Z"></path><path d="M34,35.93066 C34.010792,38.2011819 34.7660288,40.4054903 36.1499,42.20557 C36.4302493,42.5780828 36.4159994,43.094895 36.1155493,43.4513936 C35.8150991,43.8078922 35.3081701,43.909484 34.89355,43.69629 C32.6641415,42.6016712 30.9838993,40.6372653 30.24805,38.26514 C27.9461845,39.795859 26.5446574,42.3610008 26.5,45.125 C26.5,50.01855 31.09814,54 36.75,54 C41.106,54 44.99658,51.605 46.43066,48.04053 C46.8071537,47.1146367 47.0005035,46.1245127 47,45.125 C47.00029,43.7981499 46.6625162,42.493103 46.01855,41.333 C45.2711061,40.1535674 44.3284776,39.1098741 43.231,38.24658 C40.4041914,35.8627524 38.7582945,32.3641094 38.72416,28.6665 C38.72416,28.49658 38.72709,28.32959 38.73588,28.16211 C38.7505467,27.7934433 38.7824467,27.4249533 38.83158,27.05664 C37.6926147,27.8635361 36.7001021,28.8593564 35.897,30.001 C35.85648,30.05922 35.82175,30.12 35.7825,30.17879 L35.78207,30.17946 C34.651303,31.8468017 34.0327239,33.808385 34.00247,35.82277"></path><path d="M33.92816,29.36694 C33.96954,28.93286 34,28.50354 34,28.06006 L34,12.377 C29.29688,11.27251 23.22656,9.313 19,6.01128 C14.77344,9.313 8.70313,11.27246 4,12.377 L4,28.06006 C4.02348028,32.5439167 5.97247959,36.8015194 9.35107,39.74951 L19.00049,48.31351 L24.70795,43.254 C25.4117541,40.0170033 27.5369241,37.2695796 30.49316,35.77487 C30.7894068,35.6188758 31.1440558,35.6214485 31.4380083,35.7817243 C31.7319607,35.9420001 31.9262276,36.2387203 31.95557,36.57224 C31.9804302,36.8542659 32.0256312,37.1341276 32.09082,37.40964 C32.0301761,36.918982 31.9998452,36.4250514 32,35.93066 C32,35.87158 32.00049,35.80859 32.00439,35.74951 C32.0420658,33.4848638 32.708081,31.2751981 33.92816,29.36694 Z M29,32 C28.9981923,33.6561049 27.6561049,34.9981923 26,35 L12,35 C10.3438951,34.9981923 9.00180771,33.6561049 9,32 L9,20 C9.00180771,18.3438951 10.3438951,17.0018077 12,17 L26,17 C27.6561049,17.0018077 28.9981923,18.3438951 29,20 L29,32 Z"></path></g></g></svg>