<?xml version="1.0" encoding="utf-8"?>
<!-- Generator: Adobe Illustrator 21.0.2, SVG Export Plug-In . SVG Version: 6.00 Build 0)  -->
<svg version="1.1" id="Layer_1" xmlns="http://www.w3.org/2000/svg" xmlns:xlink="http://www.w3.org/1999/xlink" x="0px" y="0px"
	 viewBox="0 0 78.3 64" style="enable-background:new 0 0 78.3 64;" xml:space="preserve">
<g>
	<g>
		<g>
			<path d="M62.8,18.5H12.7c-2,0-3.6-1.6-3.6-3.6V4.2c0-2,1.6-3.6,3.6-3.6h50.1c2,0,3.6,1.6,3.6,3.6v10.7
				C66.4,16.9,64.8,18.5,62.8,18.5z M12.7,3.4c-0.5,0-0.8,0.4-0.8,0.8v10.7c0,0.5,0.4,0.8,0.8,0.8h50.1c0.5,0,0.8-0.4,0.8-0.8V4.2
				c0-0.5-0.4-0.8-0.8-0.8C62.8,3.4,12.7,3.4,12.7,3.4z"/>
		</g>
	</g>
	<g>
		<g>
			<path d="M48.7,10.9h-30c-1.2,0-2-0.6-2-1.5s0.8-1.5,2-1.5h30c1.2,0,2,0.6,2,1.5S49.8,10.9,48.7,10.9z"/>
		</g>
		<g>
			<circle cx="57.4" cy="9.4" r="2.2"/>
		</g>
	</g>
</g>
<g>
	<g>
		<path d="M48.7,31h-30c-1.2,0-2-0.6-2-1.5s0.8-1.5,2-1.5h30c1.2,0,2,0.6,2,1.5S49.8,31,48.7,31z"/>
	</g>
	<g>
		<circle cx="57.4" cy="29.6" r="2.2"/>
	</g>
</g>
<path d="M51.2,35.8H12.7c-0.4,0-0.8-0.3-0.8-0.8V24.3c0-0.4,0.3-0.8,0.8-0.8h50.1c0.4,0,0.8,0.3,0.8,0.8v8.6c1,0.2,1.9,0.5,2.8,0.8
	v-9.4c0-2-1.6-3.6-3.6-3.6H12.7c-2,0-3.6,1.6-3.6,3.6v10.8c0,2,1.6,3.6,3.6,3.6h35.5C49.1,37.6,50.1,36.6,51.2,35.8z"/>
<path d="M12.7,55.9c-0.4,0-0.8-0.3-0.8-0.8V44.4c0-0.4,0.3-0.8,0.8-0.8l0,0l32.9,0c0.3-1,0.7-1.8,1.2-2.7H12.7c-2,0-3.6,1.6-3.6,3.6
	v10.7c0,2,1.6,3.6,3.6,3.6H49c-0.8-0.9-1.5-1.9-2.1-2.9C46.9,55.9,12.7,55.9,12.7,55.9z"/>
<g>
	<path d="M44.9,48.2H18.7c-1.2,0-2,0.6-2,1.5s0.8,1.5,2,1.5h26.5C45,50.3,44.9,49.3,44.9,48.2C44.9,48.3,44.9,48.2,44.9,48.2z"/>
</g>
<path d="M66.4,35c-0.9-0.4-1.8-0.7-2.8-0.9c-1-0.2-2-0.3-3-0.3c-2.7,0-5.2,0.7-7.3,2c-1.3,0.8-2.5,1.8-3.5,2.9
	c-0.6,0.7-1.1,1.4-1.6,2.2c-0.5,0.9-1,1.8-1.3,2.8c-0.5,1.4-0.8,3-0.8,4.6c0,2.8,0.8,5.4,2.2,7.6c0.7,1.1,1.4,2,2.4,2.9
	c2.6,2.5,6.1,4,10,4c8,0,14.5-6.5,14.5-14.5C75.1,42.4,71.5,37.3,66.4,35z M60.6,60.4c-2.2,0-4.2-0.6-6-1.6
	c-1.3-0.8-2.5-1.7-3.4-2.9c-1.7-2.1-2.8-4.8-2.8-7.7c0-1.6,0.3-3.1,0.9-4.5c0.4-1,0.9-1.9,1.6-2.8c0.6-0.8,1.3-1.6,2.1-2.2
	c2.1-1.7,4.7-2.7,7.6-2.7c1.8,0,3.6,0.4,5.1,1.1c4.2,1.9,7.1,6.2,7.1,11.1C72.8,54.9,67.3,60.4,60.6,60.4z"/>
<g>
	<polygon points="63.6,48.8 63.1,48.3 63.6,47.8 66.4,45 66.8,44.6 66.4,44.2 64.3,42.1 62.7,43.7 60.6,45.8 58.5,43.7 56.9,42.1 
		55.3,43.7 54.4,44.6 58.1,48.3 54.4,52 56.9,54.4 60.6,50.7 63.6,53.7 64.3,54.4 66.4,52.4 66.8,52 66.4,51.6 	"/>
</g>
</svg>
