<?xml version="1.0" encoding="utf-8"?>
<!-- Generator: Adobe Illustrator 21.0.2, SVG Export Plug-In . SVG Version: 6.00 Build 0)  -->
<svg version="1.1" id="Layer_1" xmlns="http://www.w3.org/2000/svg" xmlns:xlink="http://www.w3.org/1999/xlink" x="0px" y="0px"
	 viewBox="0 0 73.4 64" style="enable-background:new 0 0 73.4 64;" xml:space="preserve">
<g>
	<path d="M58.7,25.6H58c-1.2-4.5-5.3-7.7-10-7.7c-1.2,0-2.2,0.2-3,0.5c-2.5-6.7-9-11.2-16.2-11.2c-9.5,0-17.3,7.7-17.3,17.2
		c0,0.5,0,0.9,0.1,1.4c-6.5,1.3-11,6.8-11,13.2c0,7.4,6,13.4,13.5,13.4H18v-3h-3.9C8.3,49.4,3.6,44.7,3.6,39c0-5.1,3.7-9.4,8.7-10.2
		l2.4-0.4L14.5,26c-0.1-0.5-0.1-1-0.1-1.5c0-3.8,1.5-7.4,4.2-10c2.7-2.7,6.3-4.2,10.1-4.2c6.1,0,11.5,3.8,13.5,9.5l0.9,2.4l2.4-0.8
		c0.8-0.3,1.7-0.4,2.4-0.4c3.4,0,6.4,2.3,7.2,5.7l0.5,2h3.1c5.8,0,10.5,4.7,10.5,10.4s-4.7,10.4-10.5,10.4h-6.3v3h6.3
		c7.4,0,13.5-6,13.5-13.4C72.1,31.6,66.1,25.6,58.7,25.6z"/>
</g>
<g>
	<g>
		<g>
			<g>
				<path d="M48.8,61H21.4c-1.1,0-2-0.9-2-2v-5.9c0-1.1,0.9-2,2-2h27.4c1.1,0,2,0.9,2,2V59C50.8,60.1,49.9,61,48.8,61z M21.4,52.7
					c-0.3,0-0.5,0.2-0.5,0.5v5.9c0,0.3,0.2,0.5,0.5,0.5h27.4c0.3,0,0.5-0.2,0.5-0.5v-5.9c0-0.3-0.2-0.5-0.5-0.5H21.4z"/>
			</g>
		</g>
	</g>
	<g>
		<g>
			<g>
				<path d="M41,56.8H24.6c-0.6,0-1.1-0.3-1.1-0.8s0.4-0.8,1.1-0.8H41c0.6,0,1.1,0.3,1.1,0.8S41.7,56.8,41,56.8z"/>
			</g>
		</g>
		<g>
			<g>
				<circle cx="45.8" cy="56" r="1.2"/>
			</g>
		</g>
	</g>
</g>
<g>
	<g>
		<g>
			<g>
				<path d="M48.8,50H21.4c-1.1,0-2-0.9-2-2V42c0-1.1,0.9-2,2-2h27.4c1.1,0,2,0.9,2,2V48C50.8,49,49.9,50,48.8,50z M21.4,41.7
					c-0.3,0-0.5,0.2-0.5,0.5v5.9c0,0.3,0.2,0.5,0.5,0.5h27.4c0.3,0,0.5-0.2,0.5-0.5v-5.9c0-0.3-0.2-0.5-0.5-0.5H21.4z"/>
			</g>
		</g>
	</g>
	<g>
		<g>
			<g>
				<path d="M41,45.8H24.6c-0.6,0-1.1-0.3-1.1-0.8s0.4-0.8,1.1-0.8H41c0.6,0,1.1,0.3,1.1,0.8S41.7,45.8,41,45.8z"/>
			</g>
		</g>
		<g>
			<g>
				<circle cx="45.8" cy="45" r="1.2"/>
			</g>
		</g>
	</g>
</g>
<g>
	<g>
		<g>
			<g>
				<path d="M48.8,39H21.4c-1.1,0-2-0.9-2-2v-5.9c0-1.1,0.9-2,2-2h27.4c1.1,0,2,0.9,2,2V37C50.8,38.1,49.9,39,48.8,39z M21.4,30.7
					c-0.3,0-0.5,0.2-0.5,0.5v5.9c0,0.3,0.2,0.5,0.5,0.5h27.4c0.3,0,0.5-0.2,0.5-0.5v-5.9c0-0.3-0.2-0.5-0.5-0.5H21.4z"/>
			</g>
		</g>
	</g>
	<g>
		<g>
			<g>
				<path d="M41,34.8H24.6c-0.6,0-1.1-0.3-1.1-0.8s0.4-0.8,1.1-0.8H41c0.6,0,1.1,0.3,1.1,0.8S41.7,34.8,41,34.8z"/>
			</g>
		</g>
		<g>
			<g>
				<circle cx="45.8" cy="34" r="1.2"/>
			</g>
		</g>
	</g>
</g>
</svg>
