<svg class="svg-icon" xmlns="http://www.w3.org/2000/svg" width="500" height="500" viewBox="0 0 500 500">
  <g fill="none" fill-rule="evenodd">
    <path fill="currentColor" fill-rule="nonzero" d="M267.268864,413.134315 L63.1100838,459.684278 C54.9451246,461.611678 45.9528583,454.424898 46.000186,446.009982 L46.000186,54.9898299 C45.9537863,46.5749144 54.9451246,39.3882274 63.1100838,41.3157668 L267.268864,87.8658226 C273.345001,89.3013629 278.034342,95.2774195 277.9988,101.539886 L277.9988,166.709927 C278.102735,174.087817 271.433703,180.873847 264.078883,180.873847 C256.724063,180.873847 250.055031,174.087817 250.158966,166.709927 L250.158966,112.740965 L73.8400193,72.591552 L73.8400193,428.40826 L250.158966,388.258754 L250.158966,334.290165 C250.056887,326.912041 256.724063,320.126104 264.078883,320.126104 C271.433703,320.126104 278.102782,326.912041 277.9988,334.290165 L277.9988,399.460019 C277.935696,406.030404 272.852839,411.831691 267.268864,413.134315 Z"/>
    <path fill="currentColor" fill-rule="nonzero" d="M454.999958,250.024272 C454.869905,253.349025 453.50296,257.19179 451.226112,259.615373 L376.91037,338.669184 C371.87455,343.199684 362.218148,345.069916 356.58966,339.831685 C351.045705,334.672504 351.210593,324.666623 356.733646,319.486982 L408.986902,263.974753 L115.934202,263.974753 C108.238807,263.974753 102,257.728865 102,250.024272 C102,242.319678 108.238807,236.074023 115.934202,236.074023 L408.986902,236.074023 L356.733646,180.561794 C351.978832,175.793213 351.100049,165.435326 356.58966,160.21709 C362.077877,154.999319 372.08124,156.666346 376.91037,161.380057 L451.226112,240.43317 C453.769104,243.138544 455.008319,246.312637 454.999958,250.024272 Z" transform="rotate(-180 278.5 250)"/>
  </g>
</svg>
