<?xml version="1.0" encoding="utf-8"?>
<!-- Generator: Adobe Illustrator 21.0.2, SVG Export Plug-In . SVG Version: 6.00 Build 0)  -->
<svg version="1.1" id="Layer_1" xmlns="http://www.w3.org/2000/svg" xmlns:xlink="http://www.w3.org/1999/xlink" x="0px" y="0px"
	 viewBox="0 0 63.9 54.3" style="enable-background:new 0 0 63.9 54.3;" xml:space="preserve">
<rect x="23.7" y="2.6" transform="matrix(0.7071 -0.7071 0.7071 0.7071 4.7232 18.5375)" width="2" height="2"/>
<rect x="20.9" y="5.4" transform="matrix(0.7071 -0.7071 0.7071 0.7071 1.8951 17.3663)" width="2" height="2"/>
<rect x="9.6" y="16.7" transform="matrix(0.7071 -0.7071 0.7071 0.7071 -9.4195 12.6792)" width="2" height="2"/>
<rect x="12.4" y="13.9" transform="matrix(0.7071 -0.7071 0.7071 0.7071 -6.5905 13.8509)" width="2" height="2"/>
<rect x="3.9" y="22.4" transform="matrix(0.7071 -0.7071 0.7071 0.7071 -15.0757 10.3367)" width="2" height="2"/>
<rect x="15.3" y="11.1" transform="matrix(0.7071 -0.7071 0.7071 0.7071 -3.762 15.0233)" width="2" height="2"/>
<rect x="18.1" y="8.2" transform="matrix(0.7071 -0.7071 0.7071 0.7071 -0.934 16.1945)" width="2" height="2"/>
<rect x="6.8" y="19.5" transform="matrix(0.7071 -0.7071 0.7071 0.7071 -12.2476 11.5079)" width="2" height="2"/>
<rect x="44.1" y="35.2" transform="matrix(0.7071 -0.7071 0.7071 0.7071 -12.4103 42.4873)" width="2" height="2"/>
<rect x="49.7" y="29.6" transform="matrix(0.7071 -0.7071 0.7071 0.7071 -6.7532 44.8303)" width="2" height="2"/>
<rect x="41.3" y="38.1" transform="matrix(0.7071 -0.7071 0.7071 0.7071 -15.2384 41.316)" width="2" height="2"/>
<rect x="35.6" y="43.7" transform="matrix(0.7071 -0.7071 0.7071 0.7071 -20.8959 38.972)" width="2" height="2"/>
<rect x="38.4" y="40.9" transform="matrix(0.7071 -0.7071 0.7071 0.7071 -18.0668 40.1437)" width="2" height="2"/>
<rect x="29.9" y="49.4" transform="matrix(0.7071 -0.7071 0.7071 0.7071 -26.552 36.6294)" width="2" height="2"/>
<rect x="32.8" y="46.5" transform="matrix(0.7071 -0.7071 0.7071 0.7071 -23.7239 37.8007)" width="2" height="2"/>
<rect x="46.9" y="32.4" transform="matrix(0.7071 -0.7071 0.7071 0.7071 -9.5813 43.6591)" width="2" height="2"/>
<path d="M56.2,10.7h-0.2C55.3,8.5,53.3,7,51,7c-0.5,0-1,0.1-1.3,0.2c-1.3-3.2-4.4-5.3-7.9-5.3c-4.7,0-8.5,3.8-8.5,8.5
	c0,0.2,0,0.4,0,0.5c-3,0.7-5.2,3.3-5.2,6.5c0,3.7,3,6.6,6.7,6.6h21.4c3.7,0,6.7-3,6.7-6.6S59.8,10.7,56.2,10.7z M35.1,11
	c0-0.2,0-0.5,0-0.7c0-1.8,0.7-3.4,2-4.7c1.3-1.3,2.9-2,4.7-2c2.8,0,5.4,1.8,6.3,4.5l0.5,1.3L49.9,9c0.4-0.1,0.8-0.2,1.1-0.2
	c1.6,0,2.9,1.1,3.3,2.6l0.3,1.1h1.6c2.7,0,4.8,2.2,4.8,4.8c0,2.7-2.2,4.8-4.8,4.8H34.7c-2.7,0-4.8-2.2-4.8-4.8c0-2.3,1.7-4.3,4-4.7
	l1.3-0.2L35.1,11z"/>
<path d="M29.7,36.8c0.3,0.3,0.3,0.9,0,1.2L16.4,51.6c-0.3,0.3-0.9,0.3-1.2,0L1.8,38c-0.3-0.3-0.3-0.9,0-1.2l13.3-13.6
	c0.3-0.3,0.9-0.3,1.2,0L29.7,36.8z M15.6,25L3.9,37.1c-0.1,0.1-0.1,0.2,0,0.3l11.8,12.2c0.1,0.1,0.2,0.1,0.3,0l11.8-12.2
	c0.1-0.1,0.1-0.2,0-0.3L15.9,25C15.8,24.9,15.7,24.9,15.6,25z"/>
<g>
	<path d="M8.9,36.8l1.4-1.4c0.3-0.3,0.3-0.7,0-1l-0.1-0.1c-0.3-0.3-0.7-0.3-1,0l-1.8,1.8c0,0,0,0-0.1,0.1l-0.1,0.1
		c-0.3,0.3-0.3,0.7,0,1l3.1,3.1c0.3,0.3,0.7,0.3,1,0l0.1-0.1c0.3-0.3,0.3-0.7,0-1L8.9,36.8z"/>
</g>
<g>
	<path d="M22.7,36.8l-2.6-2.6c-0.3-0.3-0.3-0.7,0-1l0.1-0.1c0.3-0.3,0.7-0.3,1,0l3,3c0,0,0,0,0.1,0.1l0.1,0.1c0.3,0.3,0.3,0.7,0,1
		l-2,2c-0.3,0.3-0.7,0.3-1,0l-0.1-0.1c-0.3-0.3-0.3-0.7,0-1L22.7,36.8z"/>
</g>
<path d="M15.9,34.2c-1.2,0-3.2,0.3-3.2,1.2v1.7v1.7c0,1,2,1.2,3.2,1.2c1.2,0,3.2-0.3,3.2-1.2v-1.7v-1.7C19,34.5,17,34.2,15.9,34.2z
	 M15.9,35c1.4,0,2.2,0.3,2.4,0.5c-0.2,0.2-1,0.5-2.4,0.5c-1.4,0-2.2-0.3-2.4-0.5C13.7,35.3,14.5,35,15.9,35z M15.9,39.3
	c-1.5,0-2.3-0.3-2.4-0.5V38c0.7,0.3,1.7,0.4,2.4,0.4c0.7,0,1.7-0.1,2.4-0.4v0.8C18.2,39,17.4,39.3,15.9,39.3z M15.9,37.6
	c-1.5,0-2.3-0.3-2.4-0.5v-0.8c0.7,0.3,1.7,0.4,2.4,0.4c0.7,0,1.7-0.1,2.4-0.4v0.8C18.2,37.3,17.4,37.6,15.9,37.6z"/>
<g>
	<path d="M27.1,25.3L24,28.5l1,1l3.2-3.2v2.2h1.3v-3.8c0-0.4-0.3-0.7-0.7-0.7h-3.8v1.3L27.1,25.3z"/>
</g>
</svg>
