<?xml version="1.0" encoding="utf-8"?>
<!-- Generator: Adobe Illustrator 21.0.2, SVG Export Plug-In . SVG Version: 6.00 Build 0)  -->
<svg version="1.1" id="Layer_1" xmlns="http://www.w3.org/2000/svg" xmlns:xlink="http://www.w3.org/1999/xlink" x="0px" y="0px"
	 viewBox="0 0 70.5 70.3" style="enable-background:new 0 0 70.5 70.3;" xml:space="preserve">
<g>
	<g>
		<g>
			<path d="M20.9,8.5H2.7C2,8.5,1.4,7.9,1.4,7.2V3.3C1.4,2.6,2,2,2.7,2h18.2c0.7,0,1.3,0.6,1.3,1.3v3.9C22.2,7.9,21.6,8.5,20.9,8.5z
				 M2.7,3C2.5,3,2.4,3.1,2.4,3.3v3.9c0,0.2,0.1,0.3,0.3,0.3h18.2c0.2,0,0.3-0.1,0.3-0.3V3.3C21.2,3.1,21,3,20.9,3H2.7z"/>
		</g>
	</g>
	<g>
		<g>
			<path d="M15.7,5.7H4.9c-0.4,0-0.7-0.2-0.7-0.5s0.3-0.5,0.7-0.5h10.9c0.4,0,0.7,0.2,0.7,0.5C16.4,5.5,16.2,5.7,15.7,5.7z"/>
		</g>
		<g>
			<circle cx="18.9" cy="5.2" r="0.8"/>
		</g>
	</g>
</g>
<g>
	<g>
		<g>
			<path d="M20.9,15.8H2.7c-0.7,0-1.3-0.6-1.3-1.3v-3.9c0-0.7,0.6-1.3,1.3-1.3h18.2c0.7,0,1.3,0.6,1.3,1.3v3.9
				C22.2,15.2,21.6,15.8,20.9,15.8z M2.7,10.3c-0.2,0-0.3,0.1-0.3,0.3v3.9c0,0.2,0.1,0.3,0.3,0.3h18.2c0.2,0,0.3-0.1,0.3-0.3v-3.9
				c0-0.2-0.1-0.3-0.3-0.3H2.7z"/>
		</g>
	</g>
	<g>
		<g>
			<path d="M15.7,13H4.9c-0.4,0-0.7-0.2-0.7-0.5S4.5,12,4.9,12h10.9c0.4,0,0.7,0.2,0.7,0.5C16.4,12.8,16.2,13,15.7,13z"/>
		</g>
		<g>
			<circle cx="18.9" cy="12.5" r="0.8"/>
		</g>
	</g>
</g>
<g>
	<g>
		<g>
			<path d="M65.9,8.5H47.7c-0.7,0-1.3-0.6-1.3-1.3V3.3C46.4,2.6,47,2,47.7,2h18.2c0.7,0,1.3,0.6,1.3,1.3v3.9
				C67.2,7.9,66.6,8.5,65.9,8.5z M47.7,3c-0.2,0-0.3,0.1-0.3,0.3v3.9c0,0.2,0.1,0.3,0.3,0.3h18.2c0.2,0,0.3-0.1,0.3-0.3V3.3
				c0-0.2-0.1-0.3-0.3-0.3H47.7z"/>
		</g>
	</g>
	<g>
		<g>
			<path d="M60.8,5.7H49.9c-0.4,0-0.7-0.2-0.7-0.5s0.3-0.5,0.7-0.5h10.9c0.4,0,0.7,0.2,0.7,0.5S61.2,5.7,60.8,5.7z"/>
		</g>
		<g>
			<circle cx="63.9" cy="5.2" r="0.8"/>
		</g>
	</g>
</g>
<g>
	<g>
		<g>
			<path d="M65.9,15.8H47.7c-0.7,0-1.3-0.6-1.3-1.3v-3.9c0-0.7,0.6-1.3,1.3-1.3h18.2c0.7,0,1.3,0.6,1.3,1.3v3.9
				C67.2,15.2,66.6,15.8,65.9,15.8z M47.7,10.3c-0.2,0-0.3,0.1-0.3,0.3v3.9c0,0.2,0.1,0.3,0.3,0.3h18.2c0.2,0,0.3-0.1,0.3-0.3v-3.9
				c0-0.2-0.1-0.3-0.3-0.3H47.7z"/>
		</g>
	</g>
	<g>
		<g>
			<path d="M60.8,13H49.9c-0.4,0-0.7-0.2-0.7-0.5s0.3-0.5,0.7-0.5h10.9c0.4,0,0.7,0.2,0.7,0.5S61.2,13,60.8,13z"/>
		</g>
		<g>
			<circle cx="63.9" cy="12.5" r="0.8"/>
		</g>
	</g>
</g>
<path d="M4.9,50.7h10.9c0.4,0,0.7-0.2,0.7-0.5s-0.3-0.5-0.7-0.5H4.9c-0.4,0-0.7,0.2-0.7,0.5S4.4,50.7,4.9,50.7z"/>
<circle cx="18.9" cy="50.2" r="0.8"/>
<path d="M20.9,54.3H2.7c-0.7,0-1.3,0.6-1.3,1.3v3.9c0,0.7,0.6,1.3,1.3,1.3h18.2c0.7,0,1.3-0.6,1.3-1.3v-3.9
	C22.2,54.9,21.6,54.3,20.9,54.3z M21.2,59.5c0,0.2-0.1,0.3-0.3,0.3H2.7c-0.2,0-0.3-0.1-0.3-0.3v-3.9c0-0.2,0.1-0.3,0.3-0.3h18.2
	c0.2,0,0.3,0.1,0.3,0.3V59.5z"/>
<path d="M15.7,57H4.9c-0.4,0-0.7,0.2-0.7,0.5S4.5,58,4.9,58h10.9c0.4,0,0.7-0.2,0.7-0.5C16.4,57.2,16.2,57,15.7,57z"/>
<circle cx="18.9" cy="57.5" r="0.8"/>
<path d="M20.9,61.6H2.7c-0.7,0-1.3,0.6-1.3,1.3v3.9c0,0.7,0.6,1.3,1.3,1.3h18.2c0.7,0,1.3-0.6,1.3-1.3v-3.9
	C22.2,62.2,21.6,61.6,20.9,61.6z M21.2,66.8c0,0.2-0.1,0.3-0.3,0.3H2.7c-0.2,0-0.3-0.1-0.3-0.3v-3.9c0-0.2,0.1-0.3,0.3-0.3h18.2
	c0.2,0,0.3,0.1,0.3,0.3V66.8z"/>
<path d="M15.7,64.3H4.9c-0.4,0-0.7,0.2-0.7,0.5s0.3,0.5,0.7,0.5h10.9c0.4,0,0.7-0.2,0.7-0.5C16.4,64.5,16.2,64.3,15.7,64.3z"/>
<circle cx="18.9" cy="64.8" r="0.8"/>
<path d="M49.9,50.7h10.9c0.4,0,0.7-0.2,0.7-0.5s-0.3-0.5-0.7-0.5H49.9c-0.4,0-0.7,0.2-0.7,0.5S49.5,50.7,49.9,50.7z"/>
<circle cx="63.9" cy="50.2" r="0.8"/>
<path d="M65.9,54.3H47.7c-0.7,0-1.3,0.6-1.3,1.3v3.9c0,0.7,0.6,1.3,1.3,1.3h18.2c0.7,0,1.3-0.6,1.3-1.3v-3.9
	C67.2,54.9,66.6,54.3,65.9,54.3z M66.2,59.5c0,0.2-0.1,0.3-0.3,0.3H47.7c-0.2,0-0.3-0.1-0.3-0.3v-3.9c0-0.2,0.1-0.3,0.3-0.3h18.2
	c0.2,0,0.3,0.1,0.3,0.3C66.2,55.6,66.2,59.5,66.2,59.5z"/>
<path d="M60.8,57H49.9c-0.4,0-0.7,0.2-0.7,0.5s0.3,0.5,0.7,0.5h10.9c0.4,0,0.7-0.2,0.7-0.5S61.2,57,60.8,57z"/>
<circle cx="63.9" cy="57.5" r="0.8"/>
<path d="M65.9,61.6H47.7c-0.7,0-1.3,0.6-1.3,1.3v3.9c0,0.7,0.6,1.3,1.3,1.3h18.2c0.7,0,1.3-0.6,1.3-1.3v-3.9
	C67.2,62.2,66.6,61.6,65.9,61.6z M66.2,66.8c0,0.2-0.1,0.3-0.3,0.3H47.7c-0.2,0-0.3-0.1-0.3-0.3v-3.9c0-0.2,0.1-0.3,0.3-0.3h18.2
	c0.2,0,0.3,0.1,0.3,0.3C66.2,62.9,66.2,66.8,66.2,66.8z"/>
<path d="M60.8,64.3H49.9c-0.4,0-0.7,0.2-0.7,0.5s0.3,0.5,0.7,0.5h10.9c0.4,0,0.7-0.2,0.7-0.5S61.2,64.3,60.8,64.3z"/>
<circle cx="63.9" cy="64.8" r="0.8"/>
<path d="M65.9,23.1c0.7,0,1.3-0.6,1.3-1.3v-3.9c0-0.7-0.6-1.3-1.3-1.3H47.7c-0.7,0-1.3,0.6-1.3,1.3v3.8l-6.6,6.5
	c-1.5-1.2-3.3-1.8-5.4-1.8c-2.1,0-4.1,0.8-5.6,2l-6.7-6.6V18c0-0.7-0.6-1.3-1.3-1.3H2.7c-0.7,0-1.3,0.6-1.3,1.3v3.9
	c0,0.7,0.6,1.3,1.3,1.3h18l6.8,6.7c-1.1,1.5-1.8,3.3-1.8,5.3s0.7,3.8,1.8,5.3L20.8,47h-18c-0.7,0-1.3,0.6-1.3,1.3v3.9
	c0,0.7,0.6,1.3,1.3,1.3H21c0.7,0,1.3-0.6,1.3-1.3v-3.8l6.7-6.6c1.5,1.3,3.5,2.1,5.7,2.1c2,0,3.9-0.7,5.4-1.9l6.5,6.4v3.8
	c0,0.7,0.6,1.3,1.3,1.3h18.2c0.7,0,1.3-0.6,1.3-1.3v-3.9c0-0.7-0.6-1.3-1.3-1.3h-18l-6.5-6.4c1.2-1.5,1.9-3.4,1.9-5.5s-0.8-4-2-5.6
	l6.4-6.4L65.9,23.1L65.9,23.1z M21.2,22.1L21.2,22.1H2.7c-0.2,0-0.3-0.1-0.3-0.3v-3.9c0-0.2,0.1-0.3,0.3-0.3h18.2
	c0.2,0,0.3,0.1,0.3,0.3V22.1z M21.2,52.2c0,0.2-0.1,0.3-0.3,0.3H2.7c-0.2,0-0.3-0.1-0.3-0.3v-3.9c0-0.2,0.1-0.3,0.3-0.3h18.5V52.2z
	 M47.4,48h18.5c0.2,0,0.3,0.1,0.3,0.3v3.9c0,0.2-0.1,0.3-0.3,0.3H47.7c-0.2,0-0.3-0.1-0.3-0.3V48z M39.9,39.2
	c-0.4,0.5-0.9,1-1.4,1.4c-1.1,0.8-2.5,1.3-4,1.3c-1.6,0-3.1-0.6-4.2-1.5c-0.5-0.4-1-0.9-1.4-1.5c-0.8-1.1-1.2-2.4-1.2-3.9
	s0.5-2.8,1.3-3.9c0.4-0.5,0.8-1,1.4-1.4c1.1-0.9,2.6-1.4,4.2-1.4c1.5,0,2.8,0.5,3.9,1.3c0.5,0.4,1,0.9,1.4,1.4
	c0.9,1.1,1.4,2.6,1.4,4.1C41.3,36.6,40.8,38.1,39.9,39.2z M47.4,22.1v-4.2c0-0.2,0.1-0.3,0.3-0.3h18.2c0.2,0,0.3,0.1,0.3,0.3v3.9
	c0,0.2-0.1,0.3-0.3,0.3H47.4L47.4,22.1z"/>
<path d="M60.8,19.3H49.9c-0.4,0-0.7,0.2-0.7,0.5s0.3,0.5,0.7,0.5h10.9c0.4,0,0.7-0.2,0.7-0.5S61.2,19.3,60.8,19.3z"/>
<circle cx="63.9" cy="19.8" r="0.8"/>
<path d="M15.7,19.3H4.9c-0.4,0-0.7,0.2-0.7,0.5s0.3,0.5,0.7,0.5h10.9c0.4,0,0.7-0.2,0.7-0.5C16.4,19.5,16.2,19.3,15.7,19.3z"/>
<circle cx="18.9" cy="19.8" r="0.8"/>
<g>
	<path d="M36.6,32.3c-0.3-0.2-0.7-0.1-0.8,0.2c-0.2,0.3-0.1,0.7,0.2,0.8c0.3,0.2,0.6,0.5,0.8,0.8c0.4,0.6,0.6,1.4,0.4,2.2
		s-0.6,1.4-1.2,1.8c-1.3,0.9-3.1,0.5-4-0.8c-0.9-1.3-0.5-3.1,0.8-4c0.1-0.1,0.2-0.2,0.3-0.4c0-0.2,0-0.3-0.1-0.5
		c-0.2-0.3-0.6-0.4-0.8-0.2c-1.1,0.8-1.8,2-1.8,3.4c0,2.3,1.8,4.1,4.1,4.1s4.1-1.8,4.1-4.1C38.5,34.3,37.8,33,36.6,32.3z"/>
	<path d="M34.4,35.2c0.3,0,0.6-0.3,0.6-0.6v-3.7c0-0.3-0.3-0.6-0.6-0.6c-0.3,0-0.6,0.3-0.6,0.6v3.7C33.8,35,34.1,35.2,34.4,35.2z"/>
</g>
</svg>
