<svg class="svg-icon" xmlns="http://www.w3.org/2000/svg" data-name="Layer 1" viewBox="0 0 100 100" x="0px" y="0px"><title>132all</title><path d="M63,23.55,76.89,37.46a4.41,4.41,0,0,0,6.31,0L97.11,23.55a4.41,4.41,0,0,0,0-6.3L83.19,3.33a4.4,4.4,0,0,0-6.31,0L63,17.24a4.4,4.4,0,0,0,0,6.31Zm2.83-3.48L79.72,6.16a.41.41,0,0,1,.65,0L94.28,20.07a.41.41,0,0,1,0,.65L80.37,34.63a.41.41,0,0,1-.65,0L65.8,20.72a.41.41,0,0,1,0-.65Z"></path><path d="M18.47,3.49a16.9,16.9,0,1,0,16.9,16.9A16.92,16.92,0,0,0,18.47,3.49Zm0,29.81a12.9,12.9,0,1,1,12.9-12.91A12.92,12.92,0,0,1,18.47,33.3Z"></path><polygon points="50.37 28.48 60.03 20.39 50.37 12.31 47.8 15.38 51.41 18.39 38.8 18.39 38.8 22.39 51.41 22.39 47.8 25.41 50.37 28.48"></polygon><polygon points="78.04 41 78.04 53.6 75.03 49.99 71.96 52.56 80.04 62.23 88.12 52.56 85.06 49.99 82.04 53.6 82.04 41 78.04 41"></polygon><path d="M32.89,66.68H4V95.52H32.89Zm-4,24.84H8V70.68H28.89Z"></path><path d="M63.14,81.09A16.9,16.9,0,1,0,80,64.19,16.92,16.92,0,0,0,63.14,81.09ZM80,68.19a12.9,12.9,0,1,1-12.9,12.9A12.92,12.92,0,0,1,80,68.19Z"></path><polygon points="49.81 86.11 46.21 83.09 58.81 83.09 58.81 79.09 46.21 79.09 49.81 76.08 47.24 73.01 37.58 81.09 47.24 89.18 49.81 86.11"></polygon></svg>