<?xml version="1.0" encoding="utf-8"?>
<!-- Generator: Adobe Illustrator 24.0.2, SVG Export Plug-In . SVG Version: 6.00 Build 0)  -->
<svg version="1.1" id="Layer_1" xmlns="http://www.w3.org/2000/svg" xmlns:xlink="http://www.w3.org/1999/xlink" x="0px" y="0px"
	 viewBox="0 0 351.6 428.3" style="enable-background:new 0 0 351.6 428.3;" xml:space="preserve">
<style type="text/css">
	.st0{fill:#818984;}
	.st1{fill:#71766F;}
	.st2{fill:#423C36;}
	.st3{fill:#E5E0D7;}
	.st4{fill:#D2C9BF;}
	.st5{display:none;}
	.st6{display:inline;}
	.st7{fill:#F0F0F0;}
	.st8{fill:#CBC8C8;}
	.st9{fill:#E74E4E;}
	.st10{fill:#E1E0DF;}
	.st11{fill:#ADAAAA;}
	.st12{fill:#DBD9DA;}
	.st13{fill:#7FB6E4;}
	.st14{fill:#D9DAD8;}
	.st15{fill:#CDCAC3;}
	.st16{fill:#FFFFFF;}
	.st17{fill:#A48A7B;}
	.st18{fill:none;stroke:#423C36;stroke-width:0.1249;stroke-linecap:round;stroke-linejoin:round;stroke-miterlimit:10;}
	.st19{fill:#E0B7AD;}
	.st20{fill:#414999;stroke:#414999;stroke-width:4.926948e-02;stroke-miterlimit:10;}
	.st21{fill:none;stroke:#423C36;stroke-width:2.5357;stroke-linecap:round;stroke-linejoin:round;stroke-miterlimit:10;}
	.st22{fill:#414999;}
</style>
<g id="Body_7">
	<g>
		<g>
			<path class="st0" d="M237.4,261.6c0,6.4,1.3,104.4-8.6,111.8s-20.6,10.2-23.7,4c-3.1-6.3-19.4-56.2-15.7-62
				c1.3-2,13.8-1.1,23.8-6.9C232.5,297.3,237.4,246.1,237.4,261.6z"/>
			<path class="st0" d="M232,367.1c6.6,2,15.5,4.6,17.1,9.3c1,2.9,5.1,8.7-1.8,10.1c-7,1.4-27.1,3.9-39.8-6.4
				C197.6,372,232,367.1,232,367.1z"/>
		</g>
		<g>
			<path class="st1" d="M189.8,326.7c-0.6,9.1,12.2,44.3,15.3,50.5c0.5,1,0.3,0.8,1.9,2.4c10.7,10.6,37.2,9.9,43.1,5.7
				c4-2.9,1.4-9.3-2.8-12.3c-4.1-2.9-15.3-6-15.3-6c5.9-22.5,5.4-87,5.4-92.6c0,0-3.2,25.5-5,46.6s-1.8,40.9-4.1,46.9
				c-0.3,0.9,11,3.4,15.7,7.1c3.5,2.7,1.4,8.3-6,9c-6.8,0.7-20.2,1.1-28.4-7c-2-2-8.2-30.5-13.9-45.7
				C193.6,325.6,189.8,326.7,189.8,326.7z"/>
			<g>
				<path class="st2" d="M248.2,377.6c-0.8-0.2-0.6-2.6,1.1-2.6c0.9,0,3.8,2.2,3.5,3.2c-0.2,0.8-1.7,0.2-2.3,0
					C249.5,377.9,249.3,377.9,248.2,377.6z"/>
				<path class="st2" d="M247,383.3c-1-0.2-0.8-3.2,1.3-3.3c1.1,0,4.9,2.6,4.5,3.9c-0.3,1-2.2,0.3-2.9,0.1
					C248.6,383.6,248.4,383.6,247,383.3z"/>
				<path class="st2" d="M243.2,387.3c-1-0.3-0.6-3.3,1.6-3.1c1.2,0.1,4.8,3.1,4.3,4.4c-0.4,1-2.3,0.1-3-0.2
					C244.8,387.8,244.5,387.7,243.2,387.3z"/>
			</g>
		</g>
	</g>
	<g>
		<g>
			<path class="st0" d="M117.7,261.6c0,6.4-1.3,104.4,8.6,111.8s20.6,10.2,23.7,4c3.1-6.3,19.4-56.2,15.7-62
				c-1.3-2-13.8-1.1-23.8-6.9C122.6,297.3,117.7,246.1,117.7,261.6z"/>
			<path class="st0" d="M123.1,367.1c-6.6,2-15.5,4.6-17.1,9.3c-1,2.9-5.1,8.7,1.8,10.1c7,1.4,27.1,3.9,39.8-6.4
				C157.5,372,123.1,367.1,123.1,367.1z"/>
		</g>
		<g>
			<path class="st1" d="M165.3,326.7c0.6,9.1-12.2,44.3-15.3,50.5c-0.5,1-0.3,0.8-1.9,2.4c-10.7,10.6-37.2,9.9-43.1,5.7
				c-4-2.9-1.4-9.3,2.8-12.3c4.1-2.9,15.3-6,15.3-6c-5.9-22.5-5.4-87-5.4-92.6c0,0,3.2,25.5,5,46.6s1.8,40.9,4.1,46.9
				c0.3,0.9-11,3.4-15.7,7.1c-3.5,2.7-1.4,8.3,6,9c6.8,0.7,20.2,1.1,28.4-7c1.9-1.9,9.9-35.7,14.2-49.8L165.3,326.7z"/>
			<g>
				<path class="st2" d="M106.9,377.6c0.8-0.2,0.6-2.6-1.1-2.6c-0.9,0-3.8,2.2-3.5,3.2c0.2,0.8,1.7,0.2,2.3,0
					C105.7,377.9,105.8,377.9,106.9,377.6z"/>
				<path class="st2" d="M108.1,383.3c1-0.2,0.8-3.2-1.3-3.3c-1.1,0-4.9,2.6-4.5,3.9c0.3,1,2.2,0.3,2.9,0.1
					C106.5,383.6,106.8,383.6,108.1,383.3z"/>
				<path class="st2" d="M111.9,387.3c1-0.3,0.6-3.3-1.6-3.1c-1.2,0.1-4.8,3.1-4.3,4.4c0.4,1,2.3,0.1,3-0.2
					C110.3,387.8,110.6,387.7,111.9,387.3z"/>
			</g>
		</g>
	</g>
	<g>
		<path class="st0" d="M131.3,159.7c4.3-2.2,10.9-4.8,18-7.2c14.8-4.9,47.3-5.8,62.6,1c6.6,2.9,13.4,6.6,19,11.2
			c8.7,7.2,10.4,18,10.7,28.7c0.4,14.6-1.3,29.3-2.6,43.8c-2.6,28.9,5.1,58.5-19.1,78.6c-10.1,8.4-18.6,13.2-42.6,14.4
			c-11.8,0.6-26.4,1.1-44.7-13.9c-20.7-17-14.8-59.9-12.7-84.4C123.3,191.6,110.3,170.7,131.3,159.7z"/>
		<path class="st3" d="M146,153.5c7.6-4.9,46.1-8.7,65.8-0.1c2.1,0.9-1.8,12.3,8.4,74.8c3.3,20.1-0.2,79.4-46.6,78.1
			c-33.2-1-45.5-50.8-38.5-81.2C148.3,168.7,142.7,155.7,146,153.5z"/>
		<path class="st4" d="M212.7,157.9c-0.8,8.8-7.8,22-35.4,22.8c-25.2,0.7-32.6-18.9-32.5-21.2c0.1-1.4,0-5.3,1.3-5.9
			c4.1-1.7,8.9-3,12.8-3.7c15.4-2.6,24-1.8,33-1c8.1,0.7,18.7,3.8,20.2,4.7C212.9,154.1,212.7,157.1,212.7,157.9z"/>
		<path class="st1" d="M126.9,310.1c13.6,17.9,32.4,21.6,52.3,21c12.4-0.3,22.4-2.5,30-6.6c5.4-3,16.4-12.1,16.4-14.5
			c0,0-20.1,16.4-47.7,16.2C142.2,325.9,126.9,310.1,126.9,310.1z"/>
	</g>
	<g>
		<path class="st0" d="M100.8,194c4-10.2,5.9-14.1,12.2-22.6c11.4-15.6,31.8-17.4,31.8-17.4c-1,8.9-2.5,14.1-8.6,39.1
			c-3.3,13.7-10.7,29.3-13.1,32.1c-9,10-27.6,20.3-31.4,9.1C88.3,224.6,99.2,198.1,100.8,194z"/>
		<g>
			<path class="st0" d="M108.7,249.1c9.5,5.3,41.5,17.1,43,17.8c3.4,1.4,4.5,5.3,7.7,9.5c3,4,4.7,5.6,6.2,5.7
				c2.3,0.1,1.6-5.5-2.3-11.6c0,0,8.6,7.5,11.3,5c3.9-3.6-6.7-14.8-7.6-15.3c0,0,9.3,5.8,10.8,2.6c1.8-3.9-7.3-11.5-10.2-12.6
				c0,0,4.5-0.5,5.6-3.1c1.4-3.1-6.5-6-13-3.5c-5.4,2.1-11.2-0.8-18.3-5.9c-6.1-4.4-14.4-9.8-23.5-17c-21.1-16.8-16.7-17.1-22.7-4
				S85.1,235.8,108.7,249.1z"/>
			<path class="st1" d="M102.4,240.7c8,4.5,12.1,7.7,27.1,13.7c9.3,3.8,20.5,9,24.1,10.8c2.8,1.4,4.6,7,6.1,9.2
				c0.6,0.9,1.1,1.8,1.4,2.2c2.6,3.5,4.7,0.9,3.7-2c-0.4-1-0.7-2.1-1.4-4.3c3.9,6.1,4.6,11.7,2.3,11.6c-1.5,0-3.2-1.7-6.2-5.7
				c-3.2-4.2-4.3-8.1-7.7-9.5c-1.5-0.6-30.2-9.4-42.2-16.4c-5.7-3.3-9.4-5.9-13.1-8.4c-4-2.8-7.7-6.1-7.1-11.9
				c0.3-3.2,5.2-21,11.5-36.1c5.1-12.2,11.6-22.3,13.8-24.7c2.1-2.3-5.4,11.5-11.5,27.7c-4.8,12.8-8.1,28-8.7,32.6
				C93.8,233.2,96.5,237.4,102.4,240.7z"/>
			<path class="st1" d="M128.6,205.4c3.1-7.3,3.3-7.1,4.6-10.6c3.4-9.1,5-12.3,5.1-11.5c0.2,1.9-1.8,13.3-5.8,23.6
				c-2.1,5.2-4.9,11.5-6.9,14.7l-1.1,2.1c9,7.2,11.6,9.8,17.6,14.2c7,5.1,12.7,7.6,18.1,5.8c0,0-7.9,5.7-17-0.2
				c-14.1-9.2-17-12.6-24.4-19.2C118.9,224.3,124.5,215.4,128.6,205.4z"/>
			<path class="st1" d="M163.3,270.4c0,0,8.6,7.6,11.2,5.1c3.9-3.6-6.7-14.8-7.6-15.3c0,0,9.3,5.8,10.8,2.6
				c1.8-3.9-7.3-11.5-10.2-12.6c0,0,4.5-0.5,5.6-3.1c1.4-3.1-6.4-6.4-13-3.5c0,0,7.5-0.6,9.3,2c1.4,2.1-5.1,3.4-6.9,3.8
				c-1.7,0.4,13.4,6.7,11.2,10.6c-1.2,2.2-9.2-2.1-9.2-2.1s4,6.5,7.1,10.8c0.8,1.1,0.7,2.4,0.3,3.1c-0.7,1.2-1.9,1.6-3.4,1.2
				C166.2,272.6,163.3,270.4,163.3,270.4z"/>
			<path class="st2" d="M174.5,272.3c-0.7-0.7-3.1,1-2.1,2.9c0.6,1,4.8,2.7,5.7,1.7c0.7-0.8-0.9-2-1.5-2.5
				C175.6,273.4,175.5,273.2,174.5,272.3z"/>
			<path class="st2" d="M176.7,259.9c-0.8-0.6-3.1,1.2-1.8,3c0.6,0.9,5,2.4,5.8,1.3c0.6-0.8-1-1.9-1.6-2.4
				C177.9,260.9,177.8,260.7,176.7,259.9z"/>
			<path class="st2" d="M171,247.9c-1-0.1-1.4-3,0.7-3.4c1.1-0.2,5.2,1.7,5.1,3.1c-0.1,1-2.1,0.7-2.8,0.6
				C172.6,247.9,172.3,248,171,247.9z"/>
			<path class="st2" d="M166.5,279c-0.4-1-2.9-0.1-2.6,1.7c0.2,0.9,3.4,3.3,4.1,2.9c0.6-0.3,0.5-0.9-0.4-2.2
				C167,280.5,166.9,280,166.5,279z"/>
		</g>
	</g>
	<g>
		<path class="st0" d="M254.7,194c-4-10.2-5.9-14.1-12.2-22.6c-11.4-15.6-29.9-17.6-29.9-17.6c0.8,9.4,0.6,14.3,6.6,39.3
			c3.3,13.7,10.7,29.3,13.1,32.1c9,10,27.6,20.3,31.4,9.1C267.2,224.6,256.3,198.1,254.7,194z"/>
		<g>
			<path class="st0" d="M246.8,249.1c-9.5,5.3-41.5,17.1-43,17.8c-3.4,1.4-4.5,5.3-7.7,9.5c-3,4-4.7,5.6-6.2,5.7
				c-2.3,0.1-1.6-5.5,2.3-11.6c0,0-8.6,7.5-11.3,5c-3.9-3.6,6.7-14.8,7.6-15.3c0,0-9.3,5.8-10.8,2.6c-1.8-3.9,7.3-11.5,10.2-12.6
				c0,0-4.5-0.5-5.6-3.1c-1.4-3.1,6.5-6,13-3.5c5.4,2.1,11.2-0.8,18.3-5.9c6.1-4.4,14.4-9.8,23.5-17c21.1-16.8,16.7-17.1,22.7-4
				C265.7,229.8,270.4,235.8,246.8,249.1z"/>
			<path class="st1" d="M253.1,240.7c-8,4.5-12.1,7.7-27.1,13.7c-9.3,3.8-20.5,9-24.1,10.8c-2.8,1.4-4.6,7-6.1,9.2
				c-0.6,0.9-1.1,1.8-1.4,2.2c-2.6,3.5-4.7,0.9-3.7-2c0.4-1,0.7-2.1,1.4-4.3c-3.9,6.1-4.6,11.7-2.3,11.6c1.5,0,3.2-1.7,6.2-5.7
				c3.2-4.2,4.3-8.1,7.7-9.5c1.5-0.6,30.2-9.4,42.2-16.4c5.7-3.3,9.4-5.9,13.1-8.4c4-2.8,7.7-6.1,7.1-11.9
				c-0.3-3.2-5.2-21-11.5-36.1c-5.1-12.2-11.6-22.3-13.8-24.7c-2.1-2.3,5.4,11.5,11.5,27.7c4.8,12.8,8.1,28,8.7,32.6
				C261.7,233.2,259,237.4,253.1,240.7z"/>
			<path class="st1" d="M226.8,205.4c-3.1-7.3-3.3-7.1-4.6-10.6c-3.4-9.1-5-12.3-5.1-11.5c-0.2,1.9,1.8,13.3,5.8,23.6
				c2.1,5.2,4.9,11.5,6.9,14.7l1.1,2.1c-9,7.2-11.6,9.8-17.6,14.2c-7,5.1-12.7,7.6-18.1,5.8c0,0,7.9,5.7,17-0.2
				c14.1-9.2,17-12.6,24.4-19.2C236.6,224.3,231,215.4,226.8,205.4z"/>
			<path class="st1" d="M192.1,270.4c0,0-8.6,7.6-11.2,5.1c-3.9-3.6,6.7-14.8,7.6-15.3c0,0-9.3,5.8-10.8,2.6
				c-1.8-3.9,7.3-11.5,10.2-12.6c0,0-4.5-0.5-5.6-3.1c-1.4-3.1,6.4-6.4,13-3.5c0,0-7.5-0.6-9.3,2c-1.4,2.1,5.1,3.4,6.9,3.8
				s-13.4,6.7-11.2,10.6c1.2,2.2,9.2-2.1,9.2-2.1s-4,6.5-7.1,10.8c-0.8,1.1-0.7,2.4-0.3,3.1c0.7,1.2,1.9,1.6,3.4,1.2
				C189.3,272.6,192.1,270.4,192.1,270.4z"/>
			<path class="st2" d="M181,272.3c0.7-0.7,3.1,1,2.1,2.9c-0.6,1-4.8,2.7-5.7,1.7c-0.7-0.8,0.9-2,1.5-2.5
				C179.9,273.4,180,273.2,181,272.3z"/>
			<path class="st2" d="M178.8,259.9c0.8-0.6,3.1,1.2,1.8,3c-0.6,0.9-5,2.4-5.8,1.3c-0.6-0.8,1-1.9,1.6-2.4
				C177.6,260.9,177.7,260.7,178.8,259.9z"/>
			<path class="st2" d="M184.5,247.9c1-0.1,1.4-3-0.7-3.4c-1.1-0.2-5.2,1.7-5.1,3.1c0.1,1,2.1,0.7,2.8,0.6
				C182.9,247.9,183.1,248,184.5,247.9z"/>
			<path class="st2" d="M189,279c0.4-1,2.9-0.1,2.6,1.7c-0.2,0.9-3.4,3.3-4.1,2.9c-0.6-0.3-0.5-0.9,0.4-2.2
				C188.5,280.5,188.6,280,189,279z"/>
		</g>
	</g>
</g>
<g id="KubeCon_Badge" class="st5">
	<g class="st6">
		<g id="lanyard_4_">
			<rect id="backplate_5_" x="162.1" y="217" class="st7" width="29.8" height="17.4"/>
			<path id="backplate_stroke_donker_5_" class="st8" d="M163,217.9v15.6h28v-15.6H163z M190.7,233.2h-27.3v-15h11.5v0.9h4.3v-0.9
				h11.6v15H190.7z"/>
			<path id="lint_R_4_" class="st9" d="M177.9,213.2h-1.8c0,0-35.1-57.1-34.3-58.6c0.6-1.2,3.5-1.3,3.5-1.3L177.9,213.2z"/>
			<path id="lint_L_4_" class="st9" d="M176.1,213.2h1.8l39-58.3c0,0-1.7-2.2-4.1-1.4C212.6,154.4,176.1,213.2,176.1,213.2z"/>
			<path id="connector_plate_5_" class="st10" d="M176.3,215.5v3.1h1.5v-3.1H176.3z M177,216.7c-0.2,0-0.4-0.2-0.4-0.4
				s0.2-0.4,0.4-0.4s0.4,0.2,0.4,0.4C177.3,216.5,177.2,216.7,177,216.7z"/>
			<path id="connector_ring_5_" class="st11" d="M177,214.1c-0.7,0-1.2,0.5-1.2,1.2c0,0.4,0.2,0.7,0.5,0.9v-0.5
				c-0.1-0.1-0.1-0.3-0.1-0.5c0-0.5,0.4-0.9,0.9-0.9s0.9,0.4,0.9,0.9s-0.4,0.9-0.9,0.9c0,0-0.2,0-0.3,0c0,0.1-0.1,0.1-0.1,0.3
				c0.1,0.1,0.4,0.1,0.4,0.1c0.7,0,1.2-0.5,1.2-1.2C178.2,214.6,177.6,214.1,177,214.1z"/>
			<polygon id="connector_top_5_" class="st11" points="177.7,214.4 176.3,214.4 176.1,213.2 177.9,213.2 			"/>
			<rect id="tekst_01_5_" x="175.5" y="222.8" class="st12" width="5.9" height="1.1"/>
			<rect id="tekst_02_5_" x="175.5" y="225.8" class="st12" width="13" height="1.1"/>
			<rect id="tekst_03_5_" x="175.5" y="228.7" class="st12" width="13" height="1.1"/>
			<rect id="foto_back_4_" x="164.5" y="221.6" class="st13" width="9.5" height="9.5"/>
		</g>
		<g>
			<polygon class="st0" points="171.5,228.2 173.1,231 165.3,231 167.1,227.8 			"/>
			<path class="st14" d="M167.3,228.5l-0.7,2.5h5.1l-0.5-2.5C171.2,228.6,168.4,229.6,167.3,228.5z"/>
		</g>
		<g>
			<path class="st1" d="M168.4,224.2c0.5-0.1,1.2-0.1,1.7,0.1c0.4,0.1,0.8,0.1,1.3,0.8s0.4,1.9,0.3,2.3c-0.1,0.5-0.7,2.2-2.4,2.2
				c-1.8,0-2.5-1.7-2.5-2.6c0-0.9,0.1-1.5,0.3-1.8S167.7,224.3,168.4,224.2z"/>
			<path class="st0" d="M168.5,224.1c0.5-0.1,1.3-0.1,1.6,0c0.4,0.1,0.8,0.2,1.2,0.9s0.4,1.8,0.3,2.2c-0.1,0.4-0.7,2.1-2.4,2.1
				s-2.4-1.7-2.5-2.6c0-0.9,0.1-1.4,0.3-1.7C167.3,224.7,167.8,224.2,168.5,224.1z"/>
			<path class="st2" d="M168.6,226.4c0-0.2,0.1-0.6,0.6-0.6s0.6,0.4,0.6,0.6c0,0.1,0.1,1.5-0.6,1.5
				C168.6,227.8,168.6,226.8,168.6,226.4z"/>
			<g>
				<path class="st0" d="M170,224.1c0,0-0.2,0-0.3-0.1c0,0-0.1-0.2-0.2-0.1c0,0,0,0.2-0.1,0.2s-0.1-0.1-0.1-0.2
					c0.1-0.3-0.3,0-0.3,0.2c0,0.1-0.1,0.1-0.1-0.1c0-0.1-0.2,0.1-0.2,0.2c0,0.1-0.2-0.2-0.3,0C168.4,224.2,170.7,224.3,170,224.1z"
					/>
			</g>
			<g>
				<path class="st0" d="M171.2,223.4c0.3-0.3,0.8-0.5,1.3-0.4c0.3,0,0.5,0.2,0.8,0.3c0.9,0.8,0.6,1.9,0.5,2.2
					c-0.2,0.4-0.5,0.6-0.9,0.7c0.1,0.2-0.2,0.1-0.2,0.1c0,0.1-0.1,0.1-0.2,0c-0.1,0-0.1,0-0.4-0.2c-0.2-0.1-0.4-0.4-0.6-0.6
					c-0.2-0.2-0.3-0.4-0.5-0.6c-0.1-0.1-0.1-0.3-0.2-0.4C170.5,224.1,170.9,223.7,171.2,223.4z"/>
				<path class="st0" d="M172.9,223.3c0.1,0.1,0.1-0.1,0.2,0c0.1,0.1,0.2,0.1,0.3,0.2c0.3,0.2,0.4,0.1,0.4,0.2
					c0,0.1-0.2,0.1-0.2,0.1c-0.1,0,0.3,0.1,0.3,0.2c0,0.1-0.2,0-0.2,0s0.3,0.1,0.1,0.2c0,0,0.2,0.2,0,0.2
					C173.8,224.6,172.7,223.2,172.9,223.3z"/>
				<path class="st14" d="M171.2,224.6c-0.1-0.3,0.1-0.5,0.3-0.7s0.8-0.4,1.1-0.2c0.9,0.6,0.8,2-0.2,2
					C171.9,225.7,171.4,225.2,171.2,224.6z"/>
				<path class="st15" d="M171.2,224.6c-0.1-0.1,0-0.3,0-0.4c0-0.1-0.1,0.2,0.3,0.2c0.3,0,0.6-0.1,0.8,0.2s0.1,0.5,0,0.7
					c-0.2,0.3,0,0.4-0.1,0.4C171.8,225.6,171.4,225.1,171.2,224.6z"/>
				<path class="st0" d="M171.2,225.2c0.3,0.3,0.3,0.3,0.3,0.3c0.4,0.3,0.6-0.1,0.3-0.1c-0.2,0,0.2-0.1-0.2-0.2
					c-0.2-0.1,0.1-0.1,0.1-0.2c0-0.1-0.3-0.1-0.3-0.2c0.1,0,0.1,0,0-0.1s-0.3,0-0.4-0.4C171.1,224.3,170.9,224.7,171.2,225.2z"/>
				<path class="st0" d="M171.9,223.3c0.4,0,0.7,0,0.7-0.1c0.4-0.2,0.1-0.3,0-0.2c-0.2,0.1,0.3-0.3-0.3-0.1c-0.1,0,0.1-0.1-0.1-0.1
					c-0.1,0-0.4,0.2-0.7,0.3C171.4,223.2,171.6,223.3,171.9,223.3z"/>
				<path class="st14" d="M172.6,224.5c0.1,0.1,0.4,0.1,0.6,0.2c0.1-0.1,0.1-0.2,0-0.2c0,0,0.3-0.1,0-0.2c-0.1,0-0.2-0.1-0.1-0.1
					c0.1,0,0-0.1,0-0.1c-0.2-0.1,0-0.1,0.1-0.1s0-0.1-0.2-0.1c-0.1,0-0.1,0-0.2,0c-0.1,0,0.1-0.1-0.2-0.1c-0.1,0-0.1,0-0.4,0
					c-0.2,0-0.2,0.4-0.4,0.5C171.8,224.2,172.3,224.2,172.6,224.5z"/>
			</g>
			<g>
				<path class="st0" d="M167.3,223.4c-0.3-0.3-0.8-0.5-1.3-0.4c-0.3,0-0.5,0.2-0.8,0.3c-0.9,0.8-0.6,1.9-0.5,2.2
					c0.2,0.4,0.5,0.6,0.9,0.7c-0.1,0.2,0.2,0.1,0.2,0.1c0,0.1,0.1,0.1,0.2,0c0.1,0,0.1,0,0.4-0.2c0.2-0.1,0.4-0.4,0.6-0.6
					c0.2-0.2,0.3-0.4,0.5-0.6c0.1-0.1,0.1-0.3,0.2-0.4C167.9,224.1,167.6,223.7,167.3,223.4z"/>
				<path class="st0" d="M165.5,223.3c-0.1,0.1-0.1-0.1-0.2,0c-0.1,0.1-0.2,0.1-0.3,0.2c-0.3,0.2-0.4,0.1-0.4,0.2
					c0,0.1,0.2,0.1,0.2,0.1c0.1,0-0.3,0.1-0.3,0.2c0,0.1,0.2,0,0.2,0s-0.3,0.1-0.1,0.2c0,0-0.2,0.2,0,0.2
					C164.6,224.6,165.7,223.2,165.5,223.3z"/>
				<path class="st14" d="M167.2,224.6c0.1-0.3-0.1-0.5-0.3-0.7s-0.8-0.4-1.1-0.2c-0.9,0.6-0.8,2,0.2,2
					C166.6,225.7,167.1,225.2,167.2,224.6z"/>
				<path class="st15" d="M167.2,224.6c0.1-0.1,0-0.3,0-0.4c0-0.1,0.1,0.2-0.3,0.2c-0.3,0-0.6-0.1-0.8,0.2s-0.1,0.5,0,0.7
					c0.2,0.3,0,0.4,0.1,0.4C166.7,225.6,167,225.1,167.2,224.6z"/>
				<path class="st0" d="M167.3,224.4c0,0.4-0.3,0.4-0.4,0.4c-0.1,0.1-0.1,0.1,0,0.1c0,0.1-0.3,0.1-0.3,0.2c0,0.1,0.3,0.1,0.1,0.2
					c-0.4,0.1,0,0.2-0.2,0.2c-0.3,0-0.1,0.4,0.3,0.1c0,0,0.1,0,0.3-0.3C167.6,224.7,167.3,224.3,167.3,224.4z"/>
				<path class="st0" d="M166.9,223.2c-0.3-0.1-0.5-0.3-0.7-0.3c-0.1,0,0,0.2-0.1,0.1c-0.6-0.2-0.1,0.1-0.3,0.1
					c-0.2-0.1-0.5,0,0,0.2c0,0,0.4,0,0.7,0.1C166.8,223.3,167,223.2,166.9,223.2z"/>
				<path class="st14" d="M166.5,224.1c-0.2-0.1-0.1-0.5-0.4-0.5c-0.3,0-0.3,0-0.4,0c-0.3,0-0.1,0.1-0.2,0.1c-0.1,0-0.1,0-0.2,0
					c-0.2,0-0.3,0.1-0.2,0.1s0.3,0.1,0.1,0.1c-0.1,0-0.2,0.1,0,0.1c0.1,0,0,0.1-0.1,0.1c-0.2,0.1,0,0.2,0,0.2
					c-0.2,0.1-0.1,0.2,0,0.2c0.3,0,0.5-0.1,0.6-0.2C166.1,224.2,166.6,224.2,166.5,224.1z"/>
			</g>
			<g>
				<g>
					<path class="st16" d="M170.9,226.1c0-0.2-0.2-0.3-0.4-0.3s-0.3,0.2-0.3,0.4s0.2,0.4,0.4,0.3
						C170.8,226.5,170.9,226.3,170.9,226.1z"/>
				</g>
				<g>
					<path class="st2" d="M170.6,226h-0.1l0.1,0.1c0,0.1,0,0.2-0.1,0.2s-0.2,0-0.2-0.1l0,0c0,0,0,0,0,0.1c-0.1,0.2,0,0.3,0.2,0.4
						c0.2,0,0.3-0.1,0.3-0.2C170.9,226.1,170.8,226,170.6,226z"/>
				</g>
			</g>
			
				<ellipse transform="matrix(0.3892 -0.9212 0.9212 0.3892 -105.9467 295.1427)" class="st17" cx="169.6" cy="227.5" rx="0.2" ry="0.1"/>
			
				<ellipse transform="matrix(0.9212 -0.3892 0.3892 0.9212 -75.2298 83.6748)" class="st17" cx="168.9" cy="227.5" rx="0.1" ry="0.2"/>
			<ellipse transform="matrix(0.544 -0.8391 0.8391 0.544 -113.5591 245.997)" cx="169.5" cy="227.5" rx="0.2" ry="0.1"/>
			<ellipse transform="matrix(0.8391 -0.544 0.544 0.8391 -96.5978 128.4846)" cx="168.9" cy="227.5" rx="0.1" ry="0.2"/>
			<path class="st18" d="M170.3,225.4c0.3-0.2,0.6-0.2,0.8,0.1"/>
			<path class="st18" d="M168.3,225.4c-0.3-0.2-0.6-0.2-0.8,0.1"/>
			<g>
				<g>
					<path class="st16" d="M167.6,226.1c0-0.2,0.2-0.3,0.4-0.3s0.3,0.2,0.3,0.4s-0.2,0.4-0.4,0.3
						C167.6,226.5,167.5,226.3,167.6,226.1z"/>
				</g>
				<g>
					<path class="st2" d="M167.8,226h0.1l-0.1,0.1c0,0.1,0,0.2,0.1,0.2s0.2,0,0.2-0.1l0,0c0,0,0,0,0,0.1c0.1,0.2,0,0.3-0.2,0.4
						c-0.2,0-0.3-0.1-0.3-0.2C167.6,226.1,167.7,226,167.8,226z"/>
				</g>
			</g>
			<g>
				<path class="st14" d="M169.2,229c-0.5,0-0.7-0.4-0.8-0.7c0-0.2,0-0.4,0-0.4s0.2,0.3,0.8,0.3c0.5,0,0.8-0.3,0.8-0.3s0,0.2,0,0.4
					C170,228.7,169.6,229,169.2,229z"/>
				<path class="st19" d="M170,227.9c0,0.1-0.4,0.5-0.8,0.5c-0.3,0-0.7-0.3-0.7-0.4c0-0.1,0.3,0.2,0.6,0.2
					C169.8,228.1,170,227.8,170,227.9z"/>
				<path class="st2" d="M168.4,227.9C168.4,227.9,168.4,227.8,168.4,227.9c0.1,0.1,0.4,0.5,0.8,0.5c0.4,0,0.8-0.5,0.8-0.5
					c0.1,0-0.3,0.6-0.8,0.6C168.8,228.5,168.5,228,168.4,227.9z"/>
				<path class="st2" d="M168.4,227.9C168.4,227.9,168.4,227.8,168.4,227.9c0.1,0,0.4,0.2,0.8,0.2c0.4,0,0.7-0.2,0.8-0.3
					c0.1,0-0.2,0.4-0.8,0.4C168.7,228.2,168.5,227.9,168.4,227.9z"/>
			</g>
			<g>
				<path class="st20" d="M171.5,225.7L171.5,225.7v0.2h0.2v-0.1L171.5,225.7z"/>
				<path class="st20" d="M167,225.7L167,225.7c0.1,0,0,0.3,0,0.3v-0.1h-0.2v-0.1L167,225.7z"/>
				<path class="st20" d="M171.4,226.6c-0.1,0.2-0.1,0.2-0.4,0.2c-0.4,0.1-0.6,0.1-0.9,0c-0.2,0-0.3-0.1-0.3-0.3
					c-0.1-0.1-0.2-0.3-0.2-0.5l0,0l-0.1-0.1c-0.1,0-0.2-0.1-0.3-0.1h-0.1H169c0,0-0.1,0-0.1,0.1c0,0-0.1,0-0.1,0.1l0,0
					c0,0.2-0.1,0.4-0.2,0.5c-0.1,0.2-0.2,0.3-0.3,0.3c-0.3,0-0.5,0-0.9,0c-0.2,0-0.3-0.1-0.4-0.2c-0.1-0.2-0.1-0.5-0.1-0.6l0,0
					c0-0.1,0-0.3,0.2-0.3s0.7-0.1,1.2,0h0.1c0.1,0,0.2,0,0.2,0s0.5,0,0.6,0s0.6,0,0.6,0c0.1,0,0.1,0,0.2,0h0.1c0.5-0.1,1,0,1.2,0
					c0.1,0,0.2,0.2,0.2,0.3c0,0,0,0,0,0.1C171.5,226.1,171.5,226.4,171.4,226.6z M169.9,226.4c0.1,0.2,0.2,0.3,0.3,0.3
					c0.2,0,0.4,0,0.7,0c0.2,0,0.3-0.1,0.3-0.2c0.1-0.1,0.1-0.4,0.1-0.5c0-0.2,0-0.2-0.2-0.3s-0.6-0.1-1,0c-0.3,0-0.3,0-0.4,0.1
					C169.8,225.9,169.9,226.3,169.9,226.4z M168.7,225.8c0-0.1-0.1-0.1-0.4-0.1c-0.5-0.1-0.8,0-1,0s-0.2,0.1-0.2,0.3
					c0,0.1,0,0.4,0.1,0.5s0.1,0.2,0.3,0.2c0.3,0.1,0.5,0,0.7,0s0.2-0.1,0.3-0.3C168.6,226.3,168.7,225.9,168.7,225.8z"/>
			</g>
		</g>
	</g>
</g>
<g id="Head_5_small_smile">
	<g>
		<path class="st0" d="M274.9,63.4c-0.3-2.3-7.6-4.9-6.6-4.7c1.2,0.2,4.1-0.6,4.4-1.8c0.6-2.6-2.3-1.2-8.3-5c-1.7-1-4.1-2.6-5.7-3.6
			c0,0-0.1,0-0.1-0.1c-2.2-1.6-4.6-2.9-7.1-3.9c2-2.2-1.9-3.1-4.7-1.9c-3.1,1.2,6.3-5.5-6.1-1.1c-1.9,0.7,1.7-2.8-1.4-2.4
			c-2.1,0.3-6.9,3.3-11.6,5.5c-0.5,0.2-1,0.4-1.5,0.7c-0.1,0-0.1,0-0.2,0.1c0,0,0,0-0.1,0c-2.6,1.3-5,3-7.2,4.9
			c-6.6,5.9-14,13.8-9.9,23.2c1.2,2.7,2.6,5.4,4.1,8c2.7,4.6,5.8,8.9,9.4,12.7c3.8,4,7.1,8.6,11.9,11.3c6,3.3,6.7,2.6,7.8,3.5
			c2.9,2.5,4.9,2.7,4.5,1c0,0,6.7,1.9,4.1-1.6c8.7-0.3,15.5-5.2,18.6-13.4c1.3-3.5,4-11.8,3.2-21.2c2.8-0.7-0.3-4.4-0.3-4.4
			c3.3-2.7-0.1-3.9-1.5-4.5c0-0.1,0-0.1-0.1-0.2C271.8,64.6,275.1,65,274.9,63.4z"/>
		<path class="st3" d="M258.7,71.2c0,0,5.2-2.1,0.5-4c-1.2-0.5-4-1.1-1.4-2.1c2.5-0.9,1-1.9-0.7-2.6c-3.3-1.3,0.5-2.5,2-2.9
			c1.7-0.5,0.2-1.8-4.1-2.1c-1.5-0.1-2.4,0.2-3.6-0.1c-1.8-0.5,3-2.8-3.2-2.5c-1.6,0.1-2.2,0.3-6.6,0c-0.1,0-0.1,0-0.2,0
			c-0.2,0-0.4,0-0.5,0s-0.1,0-0.2,0c-6.3-0.3-12.8,2.7-16,5.6c-3.8,3.4-7.4,8.7-5.6,14c4,11.5,13.4,22.5,24.9,22.9
			c11.8,0.4,17.5-10.4,15.9-21.5l0,0C261.5,74.4,262.5,72.3,258.7,71.2z"/>
		<path class="st4" d="M218.9,74.3c-1.3-2.7-0.6-5.2,0.5-7.4c0.7-1.4-1.3,3.7,5.1,4c5.2,0.2,12-1.1,15.8,3.1
			c4.9,5.3,2.6,10.8,0.5,14.7c-3.3,6.1,0.1,8.3-1.3,7.9C230.3,93.9,223.5,83.9,218.9,74.3z"/>
		<path class="st0" d="M219.6,87.4c2.4,3.4,5.7,6.2,9.4,7.8c1.5,0.6,4.8,1.6,5.8-0.5c1-2-1.6-2.9-3.2-3.1c-3.3-0.3,3.9-1.3-3.2-3.4
			c-4.2-1.3,2.4-1.5,1.9-3.6c-0.4-1.9-5.1-2.3-5.7-3.8c1.9,0.3,2.1-0.4,0.6-1.6c-1.7-1.4-6.2,0.1-7.1-8.6c-0.2-1.7-1.6,1.4-1.7,1.7
			c-1,3-0.6,6.7,0.4,9.7C217.4,83.9,218.3,85.7,219.6,87.4z"/>
	</g>
	<g>
		<path class="st0" d="M80.5,63.4c0.3-2.3,7.6-4.9,6.6-4.7c-1.2,0.2-4.1-0.6-4.4-1.8c-0.6-2.6,2.3-1.2,8.3-5c1.7-1,4.1-2.6,5.7-3.6
			c0,0,0.1,0,0.1-0.1c2.2-1.6,4.6-2.9,7.1-3.9c-2-2.2,1.9-3.1,4.7-1.9c3.1,1.2-6.3-5.5,6.1-1.1c1.9,0.7-1.7-2.8,1.4-2.4
			c2.1,0.3,6.9,3.3,11.6,5.5c0.5,0.2,1,0.4,1.5,0.7c0.1,0,0.1,0,0.2,0.1c0,0,0,0,0.1,0c2.6,1.3,5,3,7.2,4.9
			c6.6,5.9,14,13.8,9.9,23.2c-1.2,2.7-2.6,5.4-4.1,8c-2.7,4.6-5.8,8.9-9.4,12.7c-3.8,4-7.1,8.6-11.9,11.3c-6,3.3-6.7,2.6-7.8,3.5
			c-2.9,2.5-4.9,2.7-4.5,1c0,0-6.7,1.9-4.1-1.6c-8.7-0.3-15.5-5.2-18.6-13.4c-1.3-3.5-4-11.8-3.2-21.2c-2.8-0.7,0.3-4.4,0.3-4.4
			c-3.3-2.7,0.1-3.9,1.5-4.5c0-0.1,0-0.1,0.1-0.2C83.6,64.6,80.3,65,80.5,63.4z"/>
		<path class="st3" d="M96.7,71.2c0,0-5.2-2.1-0.5-4c1.2-0.5,4-1.1,1.4-2.1c-2.5-0.9-1-1.9,0.7-2.6c3.3-1.3-0.5-2.5-2-2.9
			c-1.7-0.5-0.2-1.8,4.1-2.1c1.5-0.1,2.4,0.2,3.6-0.1c1.8-0.5-3-2.8,3.2-2.5c1.6,0.1,2.2,0.3,6.6,0c0.1,0,0.1,0,0.2,0
			c0.2,0,0.4,0,0.5,0s0.1,0,0.2,0c6.3-0.3,12.8,2.7,16,5.6c3.8,3.4,7.4,8.7,5.6,14c-4,11.5-13.4,22.5-24.9,22.9
			C99.6,97.8,93.9,87,95.5,75.9l0,0C93.9,74.4,92.9,72.3,96.7,71.2z"/>
		<path class="st4" d="M136.5,74.3c1.3-2.7,0.6-5.2-0.5-7.4c-0.7-1.4,1.3,3.7-5.1,4c-5.2,0.2-12-1.1-15.8,3.1
			c-4.9,5.3-2.6,10.8-0.5,14.7c3.3,6.1-0.1,8.3,1.3,7.9C125.1,93.9,131.9,83.9,136.5,74.3z"/>
		<path class="st0" d="M138.6,82c1-3,1.5-6.6,0.4-9.7c-0.1-0.3-1.6-3.4-1.7-1.7c-0.9,8.7-5.4,7.2-7.1,8.6c-1.5,1.2-1.3,1.9,0.6,1.6
			c-0.6,1.5-5.3,1.9-5.7,3.8c-0.5,2.1,6.2,2.3,1.9,3.6c-7.2,2.1,0.1,3.1-3.2,3.4c-1.6,0.2-4.2,1.1-3.2,3.1s4.3,1.1,5.8,0.5
			c3.7-1.6,7-4.4,9.4-7.8C137,85.7,138,83.9,138.6,82z"/>
	</g>
	<g>
		<path class="st1" d="M221.3,84.2c9.8,15,8.6,36.9,6.8,46.1c-2.2,11.1-13.5,45-49.4,44.6s-50.4-34.2-51.3-52.8
			c-0.9-18.6,2-30.4,6-36.7c1.3-2.2-15.9,38.5,16.7,67.8c21.9,19.6,42.9,10.2,52.8,4.1C240.8,134.2,217.8,78.8,221.3,84.2z"/>
		<path class="st0" d="M220.7,83.6c-10.4-14-17.2-15.8-24.8-18.1c-0.3-0.1-0.6-0.2-1-0.3c-0.2-0.1-0.4-0.1-0.6-0.2
			c0,0-3.6-0.5-5.9-3.5c-0.7-0.9-2.4-3.7-3.7-2.4c-0.7,0.7-0.5,3.3-1.3,3.5c-1.5,0.4-2.1-1.1-2.4-2.3c-0.2-1,0.4-2.9-0.3-3.6
			c-0.8-0.9-2.4,0.2-3.1,0.7c-1.4,1-2.6,2.4-3.3,4c-0.1,0.2-0.2,0.4-0.2,0.6c-0.4,1.3-1.8,1.1-1.7-2.7c0-1.7-4.6,1.6-4.1,4.4
			c0.3,1.6-4.2-3.4-6.6,1.5l0,0c-14,2.6-23.6,12.4-27.5,18.3c-4,6.1-7.4,15.8-6.9,35c0.3,15,16.8,51.2,50.5,52.1
			c35.3,1,48.6-34.7,50.1-42.8C229.3,119.7,232.4,99.3,220.7,83.6z"/>
	</g>
	<g>
		<path class="st2" d="M165.3,111.4c-0.2-3.6,1.9-12.8,13-12.8c11,0,12.6,8.7,12.9,11.7s1.5,29.5-12.8,29.5
			C165,139.8,165.7,119.6,165.3,111.4z"/>
		
			<ellipse transform="matrix(0.3892 -0.9212 0.9212 0.3892 -10.2628 251.5381)" class="st17" cx="184.5" cy="133.5" rx="3.9" ry="2.2"/>
		
			<ellipse transform="matrix(0.9212 -0.3892 0.3892 0.9212 -38.3912 77.4694)" class="st17" cx="172" cy="133.5" rx="2.2" ry="3.9"/>
		<ellipse transform="matrix(0.544 -0.8391 0.8391 0.544 -28.4438 216.0521)" cx="184.6" cy="134.2" rx="3.3" ry="2.1"/>
		<ellipse transform="matrix(0.8391 -0.544 0.544 0.8391 -45.3128 115.1722)" cx="172" cy="134.2" rx="2.1" ry="3.3"/>
	</g>
	<path class="st2" d="M165.3,111.4c-0.2-3.6,1.9-12.8,13-12.8c11,0,12.6,8.7,12.9,11.7s1.5,29.5-12.8,29.5
		C165,139.8,165.7,119.6,165.3,111.4z"/>
	
		<ellipse transform="matrix(0.3892 -0.9212 0.9212 0.3892 -10.2628 251.5381)" class="st17" cx="184.5" cy="133.5" rx="3.9" ry="2.2"/>
	<ellipse transform="matrix(0.9212 -0.3892 0.3892 0.9212 -38.3912 77.4694)" class="st17" cx="172" cy="133.5" rx="2.2" ry="3.9"/>
	<ellipse transform="matrix(0.544 -0.8391 0.8391 0.544 -28.4438 216.0521)" cx="184.6" cy="134.2" rx="3.3" ry="2.1"/>
	<ellipse transform="matrix(0.8391 -0.544 0.544 0.8391 -45.3128 115.1722)" cx="172" cy="134.2" rx="2.1" ry="3.3"/>
	<g>
		<path class="st3" d="M179.5,166.6c-12.4,0.6-16.4-9.7-17.8-16.5c-0.8-4.1-0.8-9-0.5-9.4c0.2-0.3,5,8.9,17,9.3
			c9.4,0.3,15.4-7.5,16.8-8.8c0.1-0.1,0.5-0.5,0.5-0.3c0.6,2.2,0.6,5.8,0.3,8.4C194.3,159.8,190.9,166.1,179.5,166.6z"/>
		<path class="st19" d="M194.1,141.9c-0.1,2.1-6.1,11.3-16.1,11.3c-7.7,0-15-8.6-14.9-10.6c0.1-2.1,2.5,6.4,15.1,6.1
			C190.5,148.3,194.2,139.8,194.1,141.9z"/>
		<path class="st2" d="M161.3,141.4c-0.2-0.5,0.4-0.6,0.7-0.3c2.7,3,5.6,10.1,16.2,10.2c11.9,0.1,14.9-9.5,16.4-10.5
			c0.5-0.3,0.7,0.3,0.7,0.6c-0.5,2.3-3.1,13.3-15.8,13.9C167.3,156,163.1,145.3,161.3,141.4z"/>
	</g>
	<path class="st2" d="M161.1,140.8c0-0.1,0-0.3,0.1-0.4c0.1-0.1,0.3,0,0.4,0.1c1.8,1.5,7.1,7.2,16.6,7.1c9.5-0.1,15.7-6.2,16.4-7.2
		c0.5-0.6,0.8,0,0.8,0.5c-0.1,1.9-7.6,9.7-17.1,9.8C168.5,150.7,161.4,142.6,161.1,140.8z"/>
	<g>
		<g>
			<path class="st16" d="M211.1,103.1c-1.6-4.6-5.3-5.5-8.8-4.1c-3.8,1.5-5.5,6.3-4.4,10.1c1.2,4.3,6,6,9.8,4.1
				C211.6,111.3,212.2,106.4,211.1,103.1z"/>
		</g>
		<g>
			<path class="st2" d="M205.6,102.2c-1,0-1.9,0.2-2.7,0.7c0.8,0.2,1.5,0.7,1.9,1.8c0.5,1.3,0.2,3.2-1.3,4c-1.5,0.7-3.4,0.1-3.9-1.6
				V107c-0.1,0.4-0.2,0.7-0.2,1.1c-0.5,3.4,2.4,6.2,5.7,6c3.4-0.2,5.4-3.5,5.6-6.2C210.9,104.2,208.6,102.3,205.6,102.2z"/>
		</g>
	</g>
	<g>
		<g>
			<g>
				<path class="st16" d="M144.6,103.1c1.6-4.6,5.3-5.5,8.8-4.1c3.8,1.5,5.5,6.3,4.4,10.1c-1.2,4.3-6,6-9.8,4.1
					C144.1,111.3,143.5,106.4,144.6,103.1z"/>
			</g>
		</g>
		<g>
			<path class="st2" d="M152.1,102.2c-1,0-1.9,0.2-2.7,0.7c0.8,0.2,1.5,0.7,1.9,1.8c0.5,1.3,0.2,3.2-1.3,4c-1.5,0.7-3.4,0.1-3.9-1.6
				V107c-0.1,0.4-0.2,0.7-0.2,1.1c-0.5,3.4,2.4,6.2,5.7,6c3.4-0.2,5.4-3.5,5.6-6.2C157.4,104.2,155.1,102.3,152.1,102.2z"/>
		</g>
	</g>
	<path class="st21" d="M198.7,90.1c5.4-3.9,12.3-3.4,15.7,1.3"/>
	<path class="st21" d="M158.4,90.1c-5.4-3.9-12.3-3.4-15.7,1.3"/>
	<path class="st22" d="M228.4,103.3l-0.3-2l-3.5-3.7c-0.4-1.6-1.3-3.2-3.4-3.6c-4.1-0.9-14.6-1.6-25.4-0.1c-0.8,0.1-2,0.3-2,0.3
		c-1.2,0.2-2.5,0.3-3.9,0.5c-0.7,0.1-10.6,0.5-12,0.5c-1.3,0-10.8-0.3-11.2-0.4c-1.7-0.2-3.3-0.4-4.7-0.6c-0.6-0.1-1.3-0.2-2-0.3
		c-10.8-1.5-21.4-0.8-25.4,0.1c-2,0.5-3,2-3.4,3.7l-2.8,2.6l-0.5,2.8l3-0.3c0,4,0.4,8.9,1.5,11.8c1.4,3.5,3.1,4.1,8,4.9
		c4,0.7,7.3,0.9,10.1,0.9c2.9,0,5.4-0.3,7.8-0.6c4-0.5,5.7-3.1,7.7-6.8c1.5-2.8,3.2-7.1,3.5-10.6c0-0.1,0.1-0.1,0.1-0.2
		c0.4-0.3,0.8-0.7,1.3-1.1c0.7-0.5,1.5-0.9,2.3-1.2c0.7-0.2,1.4-0.4,2.3-0.5h0.1c0.8-0.1,1.5-0.2,2.2-0.2c2.3,0,4.2,0.3,5.9,1.2
		c0.7,0.3,1.5,0.9,2.1,1.4c0.2,0.2,0.4,0.3,0.6,0.4c0,0,0,0.1,0,0.2c0.4,3.5,2.1,7.9,3.6,10.5c2,3.7,3.7,6.3,7.7,6.8
		c4.8,0.6,9.8,1,17.9-0.4c4.9-0.8,6.6-1.4,8-4.9c1.2-2.9,1.5-7.7,1.5-11.7L228.4,103.3z M221.3,102.3c0,1.8,0,7.5-1.3,10.6
		c-1,2.4-1.9,2.8-6.1,3.5c-6.8,1.2-10.2,0.9-14.8,0.3c-2.7-0.3-3.9-1.8-5.8-5.3c-1.9-3.4-3.8-10-3-11.6c0.7-1.4,1.3-1.6,7.1-2.4
		c4.2-0.5,8.1-0.8,11.4-0.8c3.9,0,7.1,0.3,9,0.8C221,98.2,221.3,99,221.3,102.3z M162.6,111.5c-1.9,3.5-3.1,4.9-5.9,5.3
		c-4.7,0.6-8,0.8-14.9-0.3c-4.2-0.7-5.1-1.1-6.1-3.5c-1.3-3.1-1.3-8.7-1.3-10.6c0-3.3,0.3-4.1,3.5-4.9c1.9-0.4,5-0.8,9-0.8
		c3.4,0,7.3,0.2,11.4,0.8c5.9,0.8,6.4,1,7.1,2.4C166.4,101.4,164.5,108,162.6,111.5z"/>
</g>
</svg>
