<?xml version="1.0" encoding="utf-8"?>
<!-- Generator: Adobe Illustrator 24.0.2, SVG Export Plug-In . SVG Version: 6.00 Build 0)  -->
<svg version="1.1" id="Layer_1" xmlns="http://www.w3.org/2000/svg" xmlns:xlink="http://www.w3.org/1999/xlink" x="0px" y="0px"
	 viewBox="0 0 351.6 428.3" style="enable-background:new 0 0 351.6 428.3;" xml:space="preserve">
<style type="text/css">
	.st0{fill:#818984;}
	.st1{fill:#71766F;}
	.st2{fill:#423C36;}
	.st3{fill:#E5E0D7;}
	.st4{fill:#D2C9BF;}
	.st5{display:none;}
	.st6{display:inline;}
	.st7{fill:#F0F0F0;}
	.st8{fill:#CBC8C8;}
	.st9{fill:#E74E4E;}
	.st10{fill:#E1E0DF;}
	.st11{fill:#ADAAAA;}
	.st12{fill:#DBD9DA;}
	.st13{fill:#7FB6E4;}
	.st14{fill:#D9DAD8;}
	.st15{fill:#CDCAC3;}
	.st16{fill:#FFFFFF;}
	.st17{fill:#A48A7B;}
	.st18{fill:none;stroke:#423C36;stroke-width:0.1249;stroke-linecap:round;stroke-linejoin:round;stroke-miterlimit:10;}
	.st19{fill:#E0B7AD;}
	.st20{fill:#414999;stroke:#414999;stroke-width:4.926948e-02;stroke-miterlimit:10;}
	.st21{fill:none;stroke:#423C36;stroke-width:2.5357;stroke-linecap:round;stroke-linejoin:round;stroke-miterlimit:10;}
	.st22{fill:#414999;}
</style>
<g id="Body_2">
	<g>
		<g>
			<path class="st0" d="M237.4,261.6c0,6.4,1.3,104.4-8.6,111.8s-20.6,10.2-23.7,4c-3.1-6.3-19.4-56.2-15.7-62
				c1.3-2,13.8-1.1,23.8-6.9C232.5,297.3,237.4,246.1,237.4,261.6z"/>
			<path class="st0" d="M232,367.1c6.6,2,15.5,4.6,17.1,9.3c1,2.9,5.1,8.7-1.8,10.1c-7,1.4-27.1,3.9-39.8-6.4
				C197.6,372,232,367.1,232,367.1z"/>
		</g>
		<g>
			<path class="st1" d="M189.8,326.7c-0.6,9.1,12.2,44.3,15.3,50.5c0.5,1,0.3,0.8,1.9,2.4c10.7,10.6,37.2,9.9,43.1,5.7
				c4-2.9,1.4-9.3-2.8-12.3c-4.1-2.9-15.3-6-15.3-6c5.9-22.5,5.4-87,5.4-92.6c0,0-3.2,25.5-5,46.6s-1.8,40.9-4.1,46.9
				c-0.3,0.9,11,3.4,15.7,7.1c3.5,2.7,1.4,8.3-6,9c-6.8,0.7-20.2,1.1-28.4-7c-2-2-8.2-30.5-13.9-45.7
				C193.6,325.6,189.8,326.7,189.8,326.7z"/>
			<g>
				<path class="st2" d="M248.2,377.6c-0.8-0.2-0.6-2.6,1.1-2.6c0.9,0,3.8,2.2,3.5,3.2c-0.2,0.8-1.7,0.2-2.3,0
					C249.5,377.9,249.3,377.9,248.2,377.6z"/>
				<path class="st2" d="M247,383.3c-1-0.2-0.8-3.2,1.3-3.3c1.1,0,4.9,2.6,4.5,3.9c-0.3,1-2.2,0.3-2.9,0.1
					C248.6,383.6,248.4,383.6,247,383.3z"/>
				<path class="st2" d="M243.2,387.3c-1-0.3-0.6-3.3,1.6-3.1c1.2,0.1,4.8,3.1,4.3,4.4c-0.4,1-2.3,0.1-3-0.2
					C244.8,387.8,244.5,387.7,243.2,387.3z"/>
			</g>
		</g>
	</g>
	<g>
		<g>
			<path class="st0" d="M117.7,261.6c0,6.4-1.3,104.4,8.6,111.8s20.6,10.2,23.7,4c3.1-6.3,19.4-56.2,15.7-62
				c-1.3-2-13.8-1.1-23.8-6.9C122.6,297.3,117.7,246.1,117.7,261.6z"/>
			<path class="st0" d="M123.1,367.1c-6.6,2-15.5,4.6-17.1,9.3c-1,2.9-5.1,8.7,1.8,10.1c7,1.4,27.1,3.9,39.8-6.4
				C157.5,372,123.1,367.1,123.1,367.1z"/>
		</g>
		<g>
			<path class="st1" d="M165.3,326.7c0.6,9.1-12.2,44.3-15.3,50.5c-0.5,1-0.3,0.8-1.9,2.4c-10.7,10.6-37.2,9.9-43.1,5.7
				c-4-2.9-1.4-9.3,2.8-12.3c4.1-2.9,15.3-6,15.3-6c-5.9-22.5-5.4-87-5.4-92.6c0,0,3.2,25.5,5,46.6s1.8,40.9,4.1,46.9
				c0.3,0.9-11,3.4-15.7,7.1c-3.5,2.7-1.4,8.3,6,9c6.8,0.7,20.2,1.1,28.4-7c1.9-1.9,9.9-35.7,14.2-49.8L165.3,326.7z"/>
			<g>
				<path class="st2" d="M106.9,377.6c0.8-0.2,0.6-2.6-1.1-2.6c-0.9,0-3.8,2.2-3.5,3.2c0.2,0.8,1.7,0.2,2.3,0
					C105.7,377.9,105.8,377.9,106.9,377.6z"/>
				<path class="st2" d="M108.1,383.3c1-0.2,0.8-3.2-1.3-3.3c-1.1,0-4.9,2.6-4.5,3.9c0.3,1,2.2,0.3,2.9,0.1
					C106.5,383.6,106.8,383.6,108.1,383.3z"/>
				<path class="st2" d="M111.9,387.3c1-0.3,0.6-3.3-1.6-3.1c-1.2,0.1-4.8,3.1-4.3,4.4c0.4,1,2.3,0.1,3-0.2
					C110.3,387.8,110.6,387.7,111.9,387.3z"/>
			</g>
		</g>
	</g>
	<g>
		<path class="st0" d="M131.4,159.4c4.1-2.5,10.8-4.6,17.8-6.9c14.8-4.9,46.5-3.6,62.6,1c6.4,1.8,15,4.7,18.9,10
			c2.9,3.9,2.3,24.4,5.5,71.8c1.3,19.7,7.8,60.3-16.4,80.4c-10.1,8.4-18.6,13.2-42.6,14.4c-11.8,0.6-26.4,1.1-44.7-13.9
			c-20.7-17-14.4-58-13.1-83.6C121.4,192.3,106.1,175,131.4,159.4z"/>
		<path class="st3" d="M146,153.5c7.6-4.9,46.1-8.7,65.8-0.1c2.1,0.9-1.8,12.3,8.4,74.8c3.3,20.1-0.2,79.4-46.6,78.1
			c-33.2-1-45.5-50.8-38.5-81.2C148.3,168.7,142.7,155.7,146,153.5z"/>
		<path class="st4" d="M212.7,157.9c-1.4,5.8-7.8,22-35.4,22.8c-25.2,0.7-32.6-18.9-32.5-21.2c0.1-1.4,0-5.2,1.3-5.9
			c3.3-1.9,8.9-3,12.8-3.7c15.4-2.6,24-1.8,33-1c8.1,0.7,18.7,3.8,20.2,4.7C212.9,154.1,212.9,157.1,212.7,157.9z"/>
		<path class="st1" d="M126.9,310.1c13.6,17.9,32.4,21.6,52.3,21c12.4-0.3,22.4-2.5,30-6.6c5.4-3,16.4-12.1,16.4-14.5
			c0,0-20.1,16.4-47.7,16.2C142.2,325.9,126.9,310.1,126.9,310.1z"/>
	</g>
	<g>
		<path class="st0" d="M147.4,219.3c-2.6-10.3-3.4-13.7-10.1-31.3c-4.6-12.1-13.5-20.5-17.1-18.2c0,0-8,13-4.9,38.8
			c1.7,14,7.6,25.4,10.8,30.5C137.4,256.5,150.4,231.2,147.4,219.3z"/>
		<g>
			<g>
				<path class="st0" d="M130,244.6c5.8,9.2,28.3,34.8,29.4,36.1c2.3,2.9,1.4,6.8,2.3,12c0.8,4.9,1.5,7.2,2.8,7.9
					c2,1.1,4-4.1,3.5-11.3c0,0,4,10.7,7.5,9.8c5.1-1.4,1.1-16.2,0.6-17c0,0,5.4,9.5,8.2,7.4c3.5-2.6-1-13.6-3-15.9
					c0,0,4.2,1.7,6.4,0c2.7-2.1-2.8-8.3-9.8-9.2c-5.8-0.7-9.5-6-13.3-13.9c-3.3-6.7-8-15.4-12.6-26.1c-10.6-24.8-6.5-23-18-14.3
					C122.5,218.7,115.6,221.7,130,244.6z"/>
				<path class="st1" d="M168,289.3c0.5,7.2-1.5,12.4-3.5,11.3c-1.3-0.8-2-3-2.8-7.9c-0.8-5.3,0.1-9.2-2.3-12
					c-1-1.3-23.6-26.3-29.6-35.4c-2.6-4-4.2-6.2-5.4-8.5c-3.4-6-7.3-16.5-9.1-28.3c-2.4-15.5,1.4-29.5,1.4-29.5s-0.9,7.1-0.8,12
					c0.1,3.8,0.3,6.3,0.6,9.1c1.2,11.7,4.6,19.4,7,24.2c4.3,8.7,8.4,15.9,21.4,31.6c6.4,7.8,14.6,20.9,16.9,24.2
					c1.8,2.6,0.8,8.3,1,11c0.1,1.1,0.1,2.1,0.2,2.6c0.7,4.3,3.8,3,4.2,0C167.3,292.7,167.6,291.6,168,289.3z"/>
				<path class="st1" d="M137.4,188c3.3,8.2,5.7,14.2,8.2,19.9c1.4,3,3.3,8.4,6.8,16.8c4.5,10.6,9,19.3,12.4,25.9
					c2.5,5,4.5,11.2,13.2,13.7c0,0-10.9,2.1-16.1-7.5c-8-14.8-13.2-28.1-16.1-37.6C136.2,188.5,135.2,182.6,137.4,188z"/>
				<path class="st1" d="M168,289.3c0,0,3.9,10.8,7.5,9.8c5.1-1.4,1.1-16.2,0.6-17c0,0,5.4,9.5,8.2,7.4c3.5-2.6-1-13.6-3-15.9
					c0,0,4.2,1.7,6.4,0c2.7-2.1-2.6-8.7-9.8-9.2c0,0,6.9,3,7.2,6.2c0.2,2.5-6.1,0.6-7.9,0.1c-1.7-0.5,8.6,12.3,4.8,14.7
					c-2.1,1.3-7.1-6.2-7.1-6.2s0.4,7.6,1.1,12.9c0.2,1.4-0.5,2.5-1.3,2.9c-1.2,0.7-2.4,0.5-3.6-0.6C169.4,292.6,168,289.3,168,289.3
					z"/>
				<path class="st2" d="M176.9,296.3c-0.3-1-3.3-0.6-3.2,1.5c0,1.1,2.9,4.7,4.2,4.2c1-0.3,0.1-2.2-0.1-2.9
					C177.3,297.8,177.3,297.6,176.9,296.3z"/>
				<path class="st2" d="M184.7,286.4c-0.4-0.9-3.3-0.4-3,1.8c0.1,1.1,3.3,4.4,4.5,3.9c0.9-0.4,0-2.2-0.3-2.8
					C185.3,287.9,185.2,287.7,184.7,286.4z"/>
				<path class="st2" d="M185.3,273.2c-0.8-0.5,0.2-3.3,2.3-2.7c1.1,0.3,3.8,4,3,5.1c-0.6,0.8-2.1-0.4-2.7-0.8
					C186.7,273.9,186.5,273.9,185.3,273.2z"/>
			</g>
			<path class="st2" d="M166.7,298.4c0.2-1-2.5-1.4-3.1,0.3c-0.3,0.9,1.4,4.5,2.2,4.5c0.7,0,0.9-0.6,0.7-2.1
				C166.4,299.9,166.5,299.5,166.7,298.4z"/>
		</g>
	</g>
	<g>
		<path class="st0" d="M233,209.1c-6.8-6.6-9.5-10.3-13-20.3c-4.3-12.2-7.2-32.9-3-34c0,0,14.8,4,31,23.8
			c8.9,10.9,20.5,18,21.8,23.8c2.9,13.1,6.9,35.5-4.8,33.4C258.6,234.7,236.1,212.1,233,209.1z"/>
		<g>
			<g>
				<path class="st0" d="M265,235.9c8.9,6.3,39.5,21.3,40.9,22c3.3,1.8,3.9,5.7,6.7,10.2c2.6,4.3,4.1,6.1,5.6,6.3
					c2.3,0.3,2.1-5.3-1.1-11.8c0,0,7.8,8.3,10.7,6.1c4.2-3.2-5.2-15.4-6-16c0,0,8.7,6.7,10.5,3.7c2.2-3.7-6.1-12.2-8.9-13.5
					c0,0,4.6-0.1,5.9-2.5c1.7-3-5.8-6.6-12.5-4.8c-5.6,1.5-11.1-1.9-17.6-7.7c-5.6-5-13.3-11.2-21.6-19.3
					c-19.3-18.8-14.9-18.7-22.2-6.3C248.1,214.8,242.8,220.3,265,235.9z"/>
				<path class="st1" d="M317.1,262.6c3.2,6.5,3.4,12.1,1.1,11.8c-1.5-0.2-3-2-5.6-6.3c-2.8-4.5-3.5-8.5-6.7-10.2
					c-1.4-0.8-31.9-15.2-40.9-21.3c-4-2.7-6-4.4-8.3-5.8c-7.7-4.6-25.2-22.1-29.4-27.7c-1.3-1.8,3.5,0.1,9.5,5.3
					c5.2,4.6,6.9,6.4,17.2,14.6c10.2,8,16.8,12.7,31.1,20.3c8.9,4.7,19.5,11,22.9,13.2c2.7,1.7,3.9,7.4,5.2,9.8
					c0.5,0.9,0.9,1.9,1.2,2.3c2.3,3.7,4.6,1.4,3.9-1.6C317.9,266,317.7,264.8,317.1,262.6z"/>
				<path class="st1" d="M235.9,166.3c1.8,0.7,20.6,21.1,21.3,21.7c4.1,3.9,7,6.6,9.4,9.4c2.4,2.3,4.8,5.1,11.4,11.6
					c8.2,8.1,14.2,12.6,21.4,19.2c2.1,1.9,9.8,9.7,17.4,7.6c0,0-9.1,4.7-17.6-2.2c-13.1-10.5-22.7-19.8-29.5-27.1
					c-2.8-3-10.5-11.3-13.9-15.3c-5.1-6.1-9.3-10.6-11.3-13.8C242.9,174.8,235.2,166,235.9,166.3z"/>
				<path class="st1" d="M317.1,262.6c0,0,7.8,8.4,10.7,6.2c4.2-3.2-5.2-15.4-6-16c0,0,8.7,6.7,10.5,3.7c2.2-3.7-6.1-12.2-8.9-13.5
					c0,0,4.6-0.1,5.9-2.5c1.7-3-5.8-7-12.5-4.8c0,0,7.5,0.1,9,2.9c1.2,2.2-5.4,2.9-7.2,3.1c-1.8,0.2,12.6,8,10,11.7
					c-1.5,2.1-8.9-3-8.9-3s3.3,6.8,5.9,11.5c0.7,1.2,0.5,2.5-0.1,3.1c-0.9,1.1-2,1.4-3.5,0.8C319.8,265.1,317.1,262.6,317.1,262.6z"
					/>
				<path class="st2" d="M328,265.6c-0.7-0.8-3.2,0.7-2.3,2.6c0.5,1,4.5,3.2,5.5,2.3c0.8-0.7-0.7-2.1-1.2-2.6
					C329,266.9,328.9,266.7,328,265.6z"/>
				<path class="st2" d="M331.5,253.5c-0.7-0.7-3.2,0.9-2.1,2.8c0.5,1,4.7,2.9,5.6,1.9c0.7-0.7-0.8-2-1.4-2.5
					C332.6,254.7,332.5,254.5,331.5,253.5z"/>
				<path class="st2" d="M327,241c-1-0.2-1.1-3.1,1.1-3.4c1.1-0.1,5,2.2,4.8,3.6c-0.2,1-2.1,0.5-2.8,0.3
					C328.6,241.2,328.4,241.3,327,241z"/>
			</g>
			<path class="st2" d="M319.4,271.5c-0.2-1-2.9-0.4-2.7,1.5c0.1,0.9,3.1,3.6,3.8,3.3c0.6-0.3,0.6-0.9-0.2-2.2
				C319.7,273,319.7,272.6,319.4,271.5z"/>
		</g>
	</g>
</g>
<g id="KubeCon_Badge" class="st5">
	<g class="st6">
		<g id="lanyard_4_">
			<rect id="backplate_5_" x="162.1" y="217" class="st7" width="29.8" height="17.4"/>
			<path id="backplate_stroke_donker_5_" class="st8" d="M163,217.9v15.6h28v-15.6H163z M190.7,233.2h-27.3v-15h11.5v0.9h4.3v-0.9
				h11.6v15H190.7z"/>
			<path id="lint_R_4_" class="st9" d="M177.9,213.2h-1.8c0,0-35.1-57.1-34.3-58.6c0.6-1.2,3.5-1.3,3.5-1.3L177.9,213.2z"/>
			<path id="lint_L_4_" class="st9" d="M176.1,213.2h1.8l39-58.3c0,0-1.7-2.2-4.1-1.4C212.6,154.4,176.1,213.2,176.1,213.2z"/>
			<path id="connector_plate_5_" class="st10" d="M176.3,215.5v3.1h1.5v-3.1H176.3z M177,216.7c-0.2,0-0.4-0.2-0.4-0.4
				s0.2-0.4,0.4-0.4s0.4,0.2,0.4,0.4C177.3,216.5,177.2,216.7,177,216.7z"/>
			<path id="connector_ring_5_" class="st11" d="M177,214.1c-0.7,0-1.2,0.5-1.2,1.2c0,0.4,0.2,0.7,0.5,0.9v-0.5
				c-0.1-0.1-0.1-0.3-0.1-0.5c0-0.5,0.4-0.9,0.9-0.9s0.9,0.4,0.9,0.9s-0.4,0.9-0.9,0.9c0,0-0.2,0-0.3,0c0,0.1-0.1,0.1-0.1,0.3
				c0.1,0.1,0.4,0.1,0.4,0.1c0.7,0,1.2-0.5,1.2-1.2C178.2,214.6,177.6,214.1,177,214.1z"/>
			<polygon id="connector_top_5_" class="st11" points="177.7,214.4 176.3,214.4 176.1,213.2 177.9,213.2 			"/>
			<rect id="tekst_01_5_" x="175.5" y="222.8" class="st12" width="5.9" height="1.1"/>
			<rect id="tekst_02_5_" x="175.5" y="225.8" class="st12" width="13" height="1.1"/>
			<rect id="tekst_03_5_" x="175.5" y="228.7" class="st12" width="13" height="1.1"/>
			<rect id="foto_back_4_" x="164.5" y="221.6" class="st13" width="9.5" height="9.5"/>
		</g>
		<g>
			<polygon class="st0" points="171.5,228.2 173.1,231 165.3,231 167.1,227.8 			"/>
			<path class="st14" d="M167.3,228.5l-0.7,2.5h5.1l-0.5-2.5C171.2,228.6,168.4,229.6,167.3,228.5z"/>
		</g>
		<g>
			<path class="st1" d="M168.4,224.2c0.5-0.1,1.2-0.1,1.7,0.1c0.4,0.1,0.8,0.1,1.3,0.8s0.4,1.9,0.3,2.3c-0.1,0.5-0.7,2.2-2.4,2.2
				c-1.8,0-2.5-1.7-2.5-2.6c0-0.9,0.1-1.5,0.3-1.8S167.7,224.3,168.4,224.2z"/>
			<path class="st0" d="M168.5,224.1c0.5-0.1,1.3-0.1,1.6,0c0.4,0.1,0.8,0.2,1.2,0.9s0.4,1.8,0.3,2.2c-0.1,0.4-0.7,2.1-2.4,2.1
				s-2.4-1.7-2.5-2.6c0-0.9,0.1-1.4,0.3-1.7C167.3,224.7,167.8,224.2,168.5,224.1z"/>
			<path class="st2" d="M168.6,226.4c0-0.2,0.1-0.6,0.6-0.6s0.6,0.4,0.6,0.6c0,0.1,0.1,1.5-0.6,1.5
				C168.6,227.8,168.6,226.8,168.6,226.4z"/>
			<g>
				<path class="st0" d="M170,224.1c0,0-0.2,0-0.3-0.1c0,0-0.1-0.2-0.2-0.1c0,0,0,0.2-0.1,0.2s-0.1-0.1-0.1-0.2
					c0.1-0.3-0.3,0-0.3,0.2c0,0.1-0.1,0.1-0.1-0.1c0-0.1-0.2,0.1-0.2,0.2c0,0.1-0.2-0.2-0.3,0C168.4,224.2,170.7,224.3,170,224.1z"
					/>
			</g>
			<g>
				<path class="st0" d="M171.2,223.4c0.3-0.3,0.8-0.5,1.3-0.4c0.3,0,0.5,0.2,0.8,0.3c0.9,0.8,0.6,1.9,0.5,2.2
					c-0.2,0.4-0.5,0.6-0.9,0.7c0.1,0.2-0.2,0.1-0.2,0.1c0,0.1-0.1,0.1-0.2,0c-0.1,0-0.1,0-0.4-0.2c-0.2-0.1-0.4-0.4-0.6-0.6
					c-0.2-0.2-0.3-0.4-0.5-0.6c-0.1-0.1-0.1-0.3-0.2-0.4C170.5,224.1,170.9,223.7,171.2,223.4z"/>
				<path class="st0" d="M172.9,223.3c0.1,0.1,0.1-0.1,0.2,0c0.1,0.1,0.2,0.1,0.3,0.2c0.3,0.2,0.4,0.1,0.4,0.2
					c0,0.1-0.2,0.1-0.2,0.1c-0.1,0,0.3,0.1,0.3,0.2c0,0.1-0.2,0-0.2,0s0.3,0.1,0.1,0.2c0,0,0.2,0.2,0,0.2
					C173.8,224.6,172.7,223.2,172.9,223.3z"/>
				<path class="st14" d="M171.2,224.6c-0.1-0.3,0.1-0.5,0.3-0.7s0.8-0.4,1.1-0.2c0.9,0.6,0.8,2-0.2,2
					C171.9,225.7,171.4,225.2,171.2,224.6z"/>
				<path class="st15" d="M171.2,224.6c-0.1-0.1,0-0.3,0-0.4c0-0.1-0.1,0.2,0.3,0.2c0.3,0,0.6-0.1,0.8,0.2s0.1,0.5,0,0.7
					c-0.2,0.3,0,0.4-0.1,0.4C171.8,225.6,171.4,225.1,171.2,224.6z"/>
				<path class="st0" d="M171.2,225.2c0.3,0.3,0.3,0.3,0.3,0.3c0.4,0.3,0.6-0.1,0.3-0.1c-0.2,0,0.2-0.1-0.2-0.2
					c-0.2-0.1,0.1-0.1,0.1-0.2c0-0.1-0.3-0.1-0.3-0.2c0.1,0,0.1,0,0-0.1s-0.3,0-0.4-0.4C171.1,224.3,170.9,224.7,171.2,225.2z"/>
				<path class="st0" d="M171.9,223.3c0.4,0,0.7,0,0.7-0.1c0.4-0.2,0.1-0.3,0-0.2c-0.2,0.1,0.3-0.3-0.3-0.1c-0.1,0,0.1-0.1-0.1-0.1
					c-0.1,0-0.4,0.2-0.7,0.3C171.4,223.2,171.6,223.3,171.9,223.3z"/>
				<path class="st14" d="M172.6,224.5c0.1,0.1,0.4,0.1,0.6,0.2c0.1-0.1,0.1-0.2,0-0.2c0,0,0.3-0.1,0-0.2c-0.1,0-0.2-0.1-0.1-0.1
					c0.1,0,0-0.1,0-0.1c-0.2-0.1,0-0.1,0.1-0.1s0-0.1-0.2-0.1c-0.1,0-0.1,0-0.2,0c-0.1,0,0.1-0.1-0.2-0.1c-0.1,0-0.1,0-0.4,0
					c-0.2,0-0.2,0.4-0.4,0.5C171.8,224.2,172.3,224.2,172.6,224.5z"/>
			</g>
			<g>
				<path class="st0" d="M167.3,223.4c-0.3-0.3-0.8-0.5-1.3-0.4c-0.3,0-0.5,0.2-0.8,0.3c-0.9,0.8-0.6,1.9-0.5,2.2
					c0.2,0.4,0.5,0.6,0.9,0.7c-0.1,0.2,0.2,0.1,0.2,0.1c0,0.1,0.1,0.1,0.2,0c0.1,0,0.1,0,0.4-0.2c0.2-0.1,0.4-0.4,0.6-0.6
					c0.2-0.2,0.3-0.4,0.5-0.6c0.1-0.1,0.1-0.3,0.2-0.4C167.9,224.1,167.6,223.7,167.3,223.4z"/>
				<path class="st0" d="M165.5,223.3c-0.1,0.1-0.1-0.1-0.2,0c-0.1,0.1-0.2,0.1-0.3,0.2c-0.3,0.2-0.4,0.1-0.4,0.2
					c0,0.1,0.2,0.1,0.2,0.1c0.1,0-0.3,0.1-0.3,0.2c0,0.1,0.2,0,0.2,0s-0.3,0.1-0.1,0.2c0,0-0.2,0.2,0,0.2
					C164.6,224.6,165.7,223.2,165.5,223.3z"/>
				<path class="st14" d="M167.2,224.6c0.1-0.3-0.1-0.5-0.3-0.7s-0.8-0.4-1.1-0.2c-0.9,0.6-0.8,2,0.2,2
					C166.6,225.7,167.1,225.2,167.2,224.6z"/>
				<path class="st15" d="M167.2,224.6c0.1-0.1,0-0.3,0-0.4c0-0.1,0.1,0.2-0.3,0.2c-0.3,0-0.6-0.1-0.8,0.2s-0.1,0.5,0,0.7
					c0.2,0.3,0,0.4,0.1,0.4C166.7,225.6,167,225.1,167.2,224.6z"/>
				<path class="st0" d="M167.3,224.4c0,0.4-0.3,0.4-0.4,0.4c-0.1,0.1-0.1,0.1,0,0.1c0,0.1-0.3,0.1-0.3,0.2c0,0.1,0.3,0.1,0.1,0.2
					c-0.4,0.1,0,0.2-0.2,0.2c-0.3,0-0.1,0.4,0.3,0.1c0,0,0.1,0,0.3-0.3C167.6,224.7,167.3,224.3,167.3,224.4z"/>
				<path class="st0" d="M166.9,223.2c-0.3-0.1-0.5-0.3-0.7-0.3c-0.1,0,0,0.2-0.1,0.1c-0.6-0.2-0.1,0.1-0.3,0.1
					c-0.2-0.1-0.5,0,0,0.2c0,0,0.4,0,0.7,0.1C166.8,223.3,167,223.2,166.9,223.2z"/>
				<path class="st14" d="M166.5,224.1c-0.2-0.1-0.1-0.5-0.4-0.5c-0.3,0-0.3,0-0.4,0c-0.3,0-0.1,0.1-0.2,0.1c-0.1,0-0.1,0-0.2,0
					c-0.2,0-0.3,0.1-0.2,0.1s0.3,0.1,0.1,0.1c-0.1,0-0.2,0.1,0,0.1c0.1,0,0,0.1-0.1,0.1c-0.2,0.1,0,0.2,0,0.2
					c-0.2,0.1-0.1,0.2,0,0.2c0.3,0,0.5-0.1,0.6-0.2C166.1,224.2,166.6,224.2,166.5,224.1z"/>
			</g>
			<g>
				<g>
					<path class="st16" d="M170.9,226.1c0-0.2-0.2-0.3-0.4-0.3s-0.3,0.2-0.3,0.4s0.2,0.4,0.4,0.3
						C170.8,226.5,170.9,226.3,170.9,226.1z"/>
				</g>
				<g>
					<path class="st2" d="M170.6,226h-0.1l0.1,0.1c0,0.1,0,0.2-0.1,0.2s-0.2,0-0.2-0.1l0,0c0,0,0,0,0,0.1c-0.1,0.2,0,0.3,0.2,0.4
						c0.2,0,0.3-0.1,0.3-0.2C170.9,226.1,170.8,226,170.6,226z"/>
				</g>
			</g>
			
				<ellipse transform="matrix(0.3892 -0.9212 0.9212 0.3892 -105.9467 295.1427)" class="st17" cx="169.6" cy="227.5" rx="0.2" ry="0.1"/>
			
				<ellipse transform="matrix(0.9212 -0.3892 0.3892 0.9212 -75.2298 83.6748)" class="st17" cx="168.9" cy="227.5" rx="0.1" ry="0.2"/>
			<ellipse transform="matrix(0.544 -0.8391 0.8391 0.544 -113.5591 245.997)" cx="169.5" cy="227.5" rx="0.2" ry="0.1"/>
			<ellipse transform="matrix(0.8391 -0.544 0.544 0.8391 -96.5978 128.4846)" cx="168.9" cy="227.5" rx="0.1" ry="0.2"/>
			<path class="st18" d="M170.3,225.4c0.3-0.2,0.6-0.2,0.8,0.1"/>
			<path class="st18" d="M168.3,225.4c-0.3-0.2-0.6-0.2-0.8,0.1"/>
			<g>
				<g>
					<path class="st16" d="M167.6,226.1c0-0.2,0.2-0.3,0.4-0.3s0.3,0.2,0.3,0.4s-0.2,0.4-0.4,0.3
						C167.6,226.5,167.5,226.3,167.6,226.1z"/>
				</g>
				<g>
					<path class="st2" d="M167.8,226h0.1l-0.1,0.1c0,0.1,0,0.2,0.1,0.2s0.2,0,0.2-0.1l0,0c0,0,0,0,0,0.1c0.1,0.2,0,0.3-0.2,0.4
						c-0.2,0-0.3-0.1-0.3-0.2C167.6,226.1,167.7,226,167.8,226z"/>
				</g>
			</g>
			<g>
				<path class="st14" d="M169.2,229c-0.5,0-0.7-0.4-0.8-0.7c0-0.2,0-0.4,0-0.4s0.2,0.3,0.8,0.3c0.5,0,0.8-0.3,0.8-0.3s0,0.2,0,0.4
					C170,228.7,169.6,229,169.2,229z"/>
				<path class="st19" d="M170,227.9c0,0.1-0.4,0.5-0.8,0.5c-0.3,0-0.7-0.3-0.7-0.4c0-0.1,0.3,0.2,0.6,0.2
					C169.8,228.1,170,227.8,170,227.9z"/>
				<path class="st2" d="M168.4,227.9C168.4,227.9,168.4,227.8,168.4,227.9c0.1,0.1,0.4,0.5,0.8,0.5c0.4,0,0.8-0.5,0.8-0.5
					c0.1,0-0.3,0.6-0.8,0.6C168.8,228.5,168.5,228,168.4,227.9z"/>
				<path class="st2" d="M168.4,227.9C168.4,227.9,168.4,227.8,168.4,227.9c0.1,0,0.4,0.2,0.8,0.2c0.4,0,0.7-0.2,0.8-0.3
					c0.1,0-0.2,0.4-0.8,0.4C168.7,228.2,168.5,227.9,168.4,227.9z"/>
			</g>
			<g>
				<path class="st20" d="M171.5,225.7L171.5,225.7v0.2h0.2v-0.1L171.5,225.7z"/>
				<path class="st20" d="M167,225.7L167,225.7c0.1,0,0,0.3,0,0.3v-0.1h-0.2v-0.1L167,225.7z"/>
				<path class="st20" d="M171.4,226.6c-0.1,0.2-0.1,0.2-0.4,0.2c-0.4,0.1-0.6,0.1-0.9,0c-0.2,0-0.3-0.1-0.3-0.3
					c-0.1-0.1-0.2-0.3-0.2-0.5l0,0l-0.1-0.1c-0.1,0-0.2-0.1-0.3-0.1h-0.1H169c0,0-0.1,0-0.1,0.1c0,0-0.1,0-0.1,0.1l0,0
					c0,0.2-0.1,0.4-0.2,0.5c-0.1,0.2-0.2,0.3-0.3,0.3c-0.3,0-0.5,0-0.9,0c-0.2,0-0.3-0.1-0.4-0.2c-0.1-0.2-0.1-0.5-0.1-0.6l0,0
					c0-0.1,0-0.3,0.2-0.3s0.7-0.1,1.2,0h0.1c0.1,0,0.2,0,0.2,0s0.5,0,0.6,0s0.6,0,0.6,0c0.1,0,0.1,0,0.2,0h0.1c0.5-0.1,1,0,1.2,0
					c0.1,0,0.2,0.2,0.2,0.3c0,0,0,0,0,0.1C171.5,226.1,171.5,226.4,171.4,226.6z M169.9,226.4c0.1,0.2,0.2,0.3,0.3,0.3
					c0.2,0,0.4,0,0.7,0c0.2,0,0.3-0.1,0.3-0.2c0.1-0.1,0.1-0.4,0.1-0.5c0-0.2,0-0.2-0.2-0.3s-0.6-0.1-1,0c-0.3,0-0.3,0-0.4,0.1
					C169.8,225.9,169.9,226.3,169.9,226.4z M168.7,225.8c0-0.1-0.1-0.1-0.4-0.1c-0.5-0.1-0.8,0-1,0s-0.2,0.1-0.2,0.3
					c0,0.1,0,0.4,0.1,0.5s0.1,0.2,0.3,0.2c0.3,0.1,0.5,0,0.7,0s0.2-0.1,0.3-0.3C168.6,226.3,168.7,225.9,168.7,225.8z"/>
			</g>
		</g>
	</g>
</g>
<g id="Head_2_tilt_right">
	<g>
		<path class="st0" d="M100.7,39.5c0.8-2.2,8.6-2.9,7.5-3c-1.2-0.1-3.8-1.6-3.8-2.8c0.1-2.6,2.5-0.6,9.3-2.8
			c1.9-0.6,4.6-1.5,6.4-2.2h0.1c2.5-1,5.2-1.7,7.9-2c-1.4-2.6,2.6-2.5,5-0.7c2.7,2-4.8-6.8,6.2,0.4c1.7,1.1-0.9-3.1,1.9-2
			c2,0.8,5.9,4.8,10,8.2c0.4,0.3,0.8,0.7,1.3,1l0.1,0.1c0,0,0,0,0.1,0.1c2.2,1.9,4.2,4.1,5.8,6.5c5,7.3,10.3,16.7,4,24.9
			c-1.8,2.4-3.8,4.6-5.9,6.8c-3.7,3.8-7.7,7.2-12.2,10c-4.7,3-9,6.6-14.3,8.1c-6.6,1.8-7.1,0.9-8.4,1.5c-3.4,1.7-5.4,1.4-4.6-0.1
			c0,0-7,0.2-3.6-2.6c-8.4-2.4-13.8-8.8-14.8-17.5c-0.4-3.7-1-12.4,2-21.4c-2.6-1.4,1.3-4.2,1.3-4.2c-2.6-3.4,1-3.8,2.6-4
			c0-0.1,0.1-0.1,0.1-0.2C103.4,41.4,100.1,41,100.7,39.5z"/>
		<path class="st3" d="M114.5,51.1c0,0-4.5-3.3,0.5-4c1.3-0.2,4.2-0.2,1.9-1.7c-2.2-1.5-0.5-2.1,1.4-2.4c3.5-0.5,0.1-2.5-1.3-3.3
			c-1.5-0.9,0.2-1.8,4.5-1.1c1.5,0.2,2.3,0.8,3.6,0.8c1.8-0.1-2.3-3.4,3.8-1.7c1.5,0.4,2.1,0.8,6.4,1.5c0.1,0,0.1,0,0.2,0
			c0.2,0,0.4,0.1,0.5,0.1s0.1,0,0.2,0.1c6.1,1.3,11.8,5.7,14.2,9.3c2.8,4.2,5.1,10.2,2,14.9c-6.7,10.2-18.4,18.6-29.7,16.2
			c-11.6-2.4-14.5-14.3-10.3-24.7l0,0C111,53.4,110.6,51.2,114.5,51.1z"/>
		<path class="st4" d="M152.4,63.6c1.9-2.3,1.8-4.9,1.3-7.3c-0.3-1.5,0.4,3.9-5.9,2.7c-5.1-1-11.3-4-16.1-0.8c-6,3.9-5.1,9.9-4,14.1
			c1.7,6.7-2.1,8-0.7,8C136.6,79.9,145.6,71.9,152.4,63.6z"/>
		<path class="st0" d="M152.6,71.6c1.7-2.6,3-6.1,2.7-9.3c0-0.3-0.7-3.7-1.3-2.1c-3,8.2-7,5.7-9,6.7c-1.7,0.8-1.7,1.6,0.2,1.7
			c-1,1.3-5.6,0.6-6.5,2.3c-1,1.9,5.4,3.7,1,3.9c-7.5,0.3-0.7,3-4,2.5c-1.6-0.2-4.3,0-3.8,2.3c0.5,2.2,3.9,2.1,5.5,1.9
			c4-0.6,7.9-2.6,11-5.3C150.2,74.8,151.5,73.3,152.6,71.6z"/>
	</g>
	<g>
		<path class="st0" d="M288.3,86.1c0.3-2.3-6.2-6.6-5.2-6.2c1.1,0.4,4.1,0.4,4.7-0.7c1.2-2.3-1.9-1.7-6.9-6.8
			c-1.4-1.4-3.3-3.5-4.6-4.9l-0.1-0.1c-1.8-2.1-3.8-3.9-6-5.5c2.4-1.7-1.1-3.4-4.1-3c-3.3,0.5,7.4-3.8-5.7-2.5
			c-2,0.2,2.3-2.3-0.7-2.7c-2.1-0.2-7.5,1.5-12.6,2.6c-0.5,0.1-1.1,0.2-1.6,0.3c-0.1,0-0.1,0-0.2,0h-0.1c-2.8,0.6-5.6,1.7-8.2,3
			c-7.8,4.1-16.9,10-15.1,20.1c0.5,2.9,1.2,5.8,2,8.7c1.5,5.1,3.5,10,6.1,14.6c2.7,4.8,4.8,10.1,8.8,13.8c5,4.7,5.9,4.1,6.7,5.3
			c2.2,3.1,4.1,3.8,4.2,2c0,0,6.1,3.5,4.4-0.6c8.5,1.8,16.3-1.3,21.3-8.5c2.1-3,6.7-10.5,8.2-19.8c2.9,0,0.8-4.4,0.8-4.4
			c3.9-1.8,0.9-3.8-0.4-4.8c0-0.1,0-0.1,0-0.2C285,86.5,288.1,87.7,288.3,86.1z"/>
		<path class="st3" d="M270.7,89.9c0,0,5.5-0.8,1.4-3.8c-1-0.8-3.6-2.1-0.9-2.3c2.7-0.3,1.4-1.6-0.1-2.7c-2.9-2.1,1.1-2.3,2.7-2.4
			c1.7-0.1,0.6-1.7-3.5-3.1c-1.4-0.5-2.4-0.3-3.5-1c-1.6-0.9,3.6-1.9-2.5-3.2c-1.6-0.3-2.2-0.2-6.4-1.6c-0.1,0-0.1,0-0.2-0.1
			c-0.2-0.1-0.3-0.1-0.5-0.2c-0.1,0-0.1,0-0.2,0c-6-1.8-13.1-0.5-16.9,1.6c-4.5,2.4-9.3,6.6-8.8,12.2c1.1,12.2,7.6,25,18.6,28.2
			c11.4,3.3,19.5-5.9,20.6-17l0,0C272.7,93.6,274.1,91.8,270.7,89.9z"/>
		<path class="st4" d="M231.4,83.2c-0.6-2.9,0.7-5.1,2.3-7.1c1-1.2-2.2,3.3,4,5.1c5,1.5,11.9,1.8,14.6,6.8c3.4,6.3-0.1,11.1-3,14.3
			c-4.6,5.1-1.9,8-3.1,7.4C237.7,105,233.5,93.7,231.4,83.2z"/>
		<path class="st0" d="M228.8,96.1c1.5,3.9,4,7.4,7.3,9.8c1.3,1,4.3,2.7,5.8,1s-0.8-3.2-2.3-3.8c-3.1-1.1,4.1-0.3-2.3-4.1
			c-3.8-2.3,2.7-0.8,2.7-3c0-1.9-4.4-3.4-4.7-5c1.8,0.7,2.1,0.1,1-1.5c-1.3-1.8-6-1.4-4.8-10.1c0.2-1.7-1.9,1-2.1,1.3
			c-1.7,2.7-2.2,6.3-1.9,9.5C227.6,92.2,228.1,94.2,228.8,96.1z"/>
	</g>
	<g>
		<path class="st1" d="M232.3,93.7c5.9,16.9-0.5,37.9-4.5,46.4c-4.8,10.2-24,40.4-58.7,31.3s-40.6-45.3-37-63.6
			c3.6-18.2,9.3-29,14.6-34.2c1.8-1.8-24.7,33.6-0.1,69.8c16.5,24.3,39.1,20.2,50.3,16.7C239.2,146.8,230.2,87.6,232.3,93.7z"/>
		<path class="st0" d="M231.9,93c-6.7-16.1-12.8-19.4-19.7-23.5c-0.3-0.2-0.6-0.3-0.9-0.5c-0.2-0.1-0.4-0.2-0.6-0.3
			c0,0-3.4-1.3-4.9-4.8c-0.4-1-1.4-4.2-3-3.3c-0.9,0.5-1.3,3.1-2.1,3.1c-1.5,0-1.8-1.6-1.7-2.8c0.1-1,1-2.7,0.6-3.6
			c-0.6-1-2.3-0.4-3.1-0.1c-1.6,0.7-3.1,1.7-4.1,3.1c-0.1,0.2-0.2,0.3-0.3,0.5c-0.7,1.2-2,0.6-1-3c0.4-1.6-4.9,0.5-5,3.3
			c-0.1,1.6-3.3-4.4-6.7-0.2l0,0c-14.2-0.8-25.9,6.3-31.1,11.1c-5.3,4.9-11,13.6-15.2,32.3c-3.3,14.7,4,53.8,36.4,62.8
			c34,9.5,55.6-21.9,58.9-29.4C231.5,130.1,239.4,111,231.9,93z"/>
	</g>
	<g>
		<path class="st2" d="M171.4,106.6c0.7-3.5,5-12,15.7-9.3s10.1,11.5,9.7,14.5c-0.5,3-5.6,29-19.5,25.5
			C164.3,134.1,169.8,114.7,171.4,106.6z"/>
		
			<ellipse transform="matrix(0.5998 -0.8001 0.8001 0.5998 -32.2261 200.8497)" class="st17" cx="184.7" cy="132.6" rx="3.9" ry="2.2"/>
		
			<ellipse transform="matrix(0.9878 -0.1555 0.1555 0.9878 -18.0538 28.4149)" class="st17" cx="172.6" cy="129.6" rx="2.2" ry="3.9"/>
		<ellipse transform="matrix(0.7303 -0.6831 0.6831 0.7303 -41.2635 162.0524)" cx="184.6" cy="133.3" rx="3.3" ry="2.1"/>
		<ellipse transform="matrix(0.9455 -0.3256 0.3256 0.9455 -33.0287 63.2391)" cx="172.4" cy="130.3" rx="2.1" ry="3.3"/>
	</g>
	<path class="st2" d="M171.4,106.6c0.7-3.5,5-12,15.7-9.3s10.1,11.5,9.7,14.5c-0.5,3-5.6,29-19.5,25.5
		C164.3,134.1,169.8,114.7,171.4,106.6z"/>
	
		<ellipse transform="matrix(0.5998 -0.8001 0.8001 0.5998 -32.2261 200.8497)" class="st17" cx="184.7" cy="132.6" rx="3.9" ry="2.2"/>
	
		<ellipse transform="matrix(0.9878 -0.1555 0.1555 0.9878 -18.0538 28.4149)" class="st17" cx="172.6" cy="129.6" rx="2.2" ry="3.9"/>
	<ellipse transform="matrix(0.7303 -0.6831 0.6831 0.7303 -41.2635 162.0524)" cx="184.6" cy="133.3" rx="3.3" ry="2.1"/>
	<ellipse transform="matrix(0.9455 -0.3256 0.3256 0.9455 -33.0287 63.2391)" cx="172.4" cy="130.3" rx="2.1" ry="3.3"/>
	<g>
		<path class="st3" d="M170.7,161.7c-11.1-2.8-12.2-12.5-12-19.4c0.2-4.1,1.6-8.4,1.9-8.5c0.4-0.1,3.3,6.7,14.8,9.9
			c9,2.5,16-1.1,17.7-2.1c0.2-0.1,0.2,0.2,0.2,0.3c0,2.3-0.5,5.3-1.4,7.7C188.1,159.6,181.8,164.5,170.7,161.7z"/>
		<path class="st19" d="M192,143.1c-0.6,2-8.6,9.5-18.4,7.1c-7.5-1.9-12.5-11.9-11.9-13.9s1.5,4.8,13.8,7.5
			C187.6,146.4,192.6,141.1,192,143.1z"/>
		<path class="st2" d="M160.5,134.3c-0.1-0.5,0.4-0.6,0.6-0.1c1.9,3.6,5.8,12.4,13.5,14.2c8.6,2,16.6-6,18.3-6.6
			c0.5-0.2,0.5,0.2,0.4,0.5c-1,2.1-10.1,12.3-19.7,10.2C164.8,150.5,161.3,138.4,160.5,134.3z"/>
	</g>
	<path class="st2" d="M160.5,134.2c0-0.1,0-0.3,0.1-0.4c0.1-0.1,0.3,0,0.4,0c2,1.4,6.9,6.1,15,8s15.5,0.2,16.9-0.2
		c0.8-0.2,0.7,0.5,0.4,0.8c-1.4,1.7-8.1,4.7-17.9,2.4C165.2,142.4,161.2,136.2,160.5,134.2z"/>
	<g>
		<g>
			<path class="st16" d="M217.8,109.6c-0.4-4.8-3.8-6.6-7.6-6.1c-4,0.6-6.8,4.8-6.7,8.7c0.2,4.4,4.4,7.3,8.5,6.4
				C216.4,117.6,218.1,113.1,217.8,109.6z"/>
		</g>
		<g>
			<path class="st2" d="M213.9,105.3c-0.9-0.3-1.9-0.2-2.8,0c0.7,0.3,1.3,1.1,1.4,2.2c0.1,1.4-0.6,3.2-2.3,3.6
				c-1.6,0.4-3.3-0.8-3.4-2.5v-0.1c-0.2,0.3-0.4,0.7-0.5,1c-1.3,3.2,0.8,6.6,4.1,7.2c3.4,0.7,6.1-2.1,6.9-4.7
				C218.6,108.5,216.8,106.1,213.9,105.3z"/>
		</g>
	</g>
	<g>
		<g>
			<g>
				<path class="st16" d="M153.4,93.6c2.6-4,6.5-4.1,9.5-1.8c3.3,2.4,3.8,7.4,1.8,10.8c-2.2,3.8-7.3,4.4-10.5,1.6
					C150.8,101.3,151.4,96.5,153.4,93.6z"/>
			</g>
		</g>
		<g>
			<path class="st2" d="M162,92.4c-0.9-0.3-1.9-0.2-2.8,0c0.7,0.3,1.3,1.1,1.4,2.2c0.1,1.4-0.6,3.2-2.3,3.6
				c-1.6,0.4-3.3-0.8-3.4-2.5v-0.1c-0.2,0.3-0.4,0.7-0.5,1c-1.3,3.2,0.8,6.6,4.1,7.2c3.4,0.7,6.1-2.1,6.9-4.7
				C166.7,95.6,164.9,93.2,162,92.4z"/>
		</g>
	</g>
	<path class="st21" d="M210.1,88c6.6-0.8,13,3.9,13.8,9.7"/>
	<path class="st21" d="M172.6,80.7c-5.2-4.2-14.5-4.1-18.2,0.4"/>
	<path class="st22" d="M234.6,113.9l0.2-2l-2.5-4.4c0-1.6-0.5-3.4-2.4-4.3c-3.7-1.9-13.8-5.1-24.6-6.2c-0.8-0.1-2-0.2-2.1-0.2
		c-1.2-0.1-2.5-0.3-3.9-0.4c-0.7-0.1-10.4-2.1-11.7-2.4c-1.2-0.3-10.4-2.9-10.8-3.1c-1.6-0.6-3.1-1.2-4.4-1.7
		c-0.6-0.2-1.2-0.5-1.9-0.8c-10.1-4.1-20.5-6-24.7-6c-2.1,0-3.4,1.2-4.2,2.7l-3.4,1.8l-1.2,2.6l3,0.5c-0.9,3.9-1.8,8.7-1.4,11.9
		c0.5,3.8,2,4.7,6.5,6.7c3.7,1.6,6.8,2.7,9.6,3.4c2.8,0.7,5.3,1,7.7,1.3c4,0.5,6.3-1.7,9.1-4.7c2.2-2.4,4.9-6.1,6-9.4
		c0-0.1,0.1-0.1,0.1-0.2c0.4-0.2,0.9-0.5,1.6-0.7c0.8-0.3,1.7-0.5,2.5-0.6c0.7-0.1,1.5-0.1,2.3,0h0.1c0.8,0.1,1.5,0.2,2.2,0.3
		c2.2,0.5,4,1.3,5.5,2.5c0.6,0.5,1.2,1.3,1.7,1.9c0.2,0.2,0.3,0.4,0.5,0.6c0,0,0,0.1,0,0.2c-0.4,3.5,0.2,8.2,0.9,11.1
		c1,4,2.1,7,5.8,8.4c4.5,1.7,9.3,3.3,17.5,3.9c4.9,0.4,6.7,0.2,8.9-2.9c1.8-2.5,3.3-7.1,4.3-11L234.6,113.9z M228,111.2
		c-0.4,1.8-1.8,7.2-3.8,10c-1.6,2.1-2.5,2.3-6.8,1.9c-6.9-0.5-10.1-1.6-14.5-3.2c-2.5-1-3.4-2.7-4.4-6.5s-1.2-10.6-0.1-12
		c1.1-1.2,1.6-1.3,7.5-0.6c4.2,0.5,8,1.2,11.3,2c3.8,0.9,6.8,2,8.5,2.9C228.6,107.2,228.7,108.1,228,111.2z M168.8,106
		c-2.7,2.9-4.2,4-7,3.7c-4.7-0.6-8-1.1-14.3-3.9c-3.9-1.7-4.7-2.3-5.1-4.9c-0.5-3.3,0.9-8.8,1.3-10.6c0.8-3.2,1.3-3.9,4.6-3.9
		c1.9,0,5.1,0.5,8.9,1.4c3.3,0.8,7,2,10.9,3.5c5.5,2.2,6,2.5,6.3,4C174.9,97.1,171.5,103.1,168.8,106z"/>
</g>
</svg>
