<?xml version="1.0" encoding="utf-8"?>
<!-- Generator: Adobe Illustrator 24.0.2, SVG Export Plug-In . SVG Version: 6.00 Build 0)  -->
<svg version="1.1" id="Layer_1" xmlns="http://www.w3.org/2000/svg" xmlns:xlink="http://www.w3.org/1999/xlink" x="0px" y="0px"
	 viewBox="0 0 351.6 428.3" style="enable-background:new 0 0 351.6 428.3;" xml:space="preserve">
<style type="text/css">
	.st0{fill:#818984;}
	.st1{fill:#71766F;}
	.st2{fill:#423C36;}
	.st3{fill:#E5E0D7;}
	.st4{fill:#D2C9BF;}
	.st5{display:none;}
	.st6{display:inline;}
	.st7{fill:#F0F0F0;}
	.st8{fill:#CBC8C8;}
	.st9{fill:#E74E4E;}
	.st10{fill:#E1E0DF;}
	.st11{fill:#ADAAAA;}
	.st12{fill:#DBD9DA;}
	.st13{fill:#7FB6E4;}
	.st14{fill:#D9DAD8;}
	.st15{fill:#CDCAC3;}
	.st16{fill:#FFFFFF;}
	.st17{fill:#A48A7B;}
	.st18{fill:none;stroke:#423C36;stroke-width:0.1249;stroke-linecap:round;stroke-linejoin:round;stroke-miterlimit:10;}
	.st19{fill:#E0B7AD;}
	.st20{fill:#414999;stroke:#414999;stroke-width:4.926948e-02;stroke-miterlimit:10;}
	.st21{fill:none;stroke:#423C36;stroke-width:2.5357;stroke-linecap:round;stroke-linejoin:round;stroke-miterlimit:10;}
	.st22{fill:#414999;}
</style>
<g id="Body_4">
	<g>
		<g>
			<path class="st0" d="M237.4,261.6c0,6.4,1.3,104.4-8.6,111.8s-20.6,10.2-23.7,4c-3.1-6.3-19.4-56.2-15.7-62
				c1.3-2,13.8-1.1,23.8-6.9C232.5,297.3,237.4,246.1,237.4,261.6z"/>
			<path class="st0" d="M232,367.1c6.6,2,15.5,4.6,17.1,9.3c1,2.9,5.1,8.7-1.8,10.1c-7,1.4-27.1,3.9-39.8-6.4
				C197.6,372,232,367.1,232,367.1z"/>
		</g>
		<g>
			<path class="st1" d="M189.8,326.7c-0.6,9.1,12.2,44.3,15.3,50.5c0.5,1,0.3,0.8,1.9,2.4c10.7,10.6,37.2,9.9,43.1,5.7
				c4-2.9,1.4-9.3-2.8-12.3c-4.1-2.9-15.3-6-15.3-6c5.9-22.5,5.4-87,5.4-92.6c0,0-3.2,25.5-5,46.6s-1.8,40.9-4.1,46.9
				c-0.3,0.9,11,3.4,15.7,7.1c3.5,2.7,1.4,8.3-6,9c-6.8,0.7-20.2,1.1-28.4-7c-2-2-8.2-30.5-13.9-45.7
				C193.6,325.6,189.8,326.7,189.8,326.7z"/>
			<g>
				<path class="st2" d="M248.2,377.6c-0.8-0.2-0.6-2.6,1.1-2.6c0.9,0,3.8,2.2,3.5,3.2c-0.2,0.8-1.7,0.2-2.3,0
					C249.5,377.9,249.3,377.9,248.2,377.6z"/>
				<path class="st2" d="M247,383.3c-1-0.2-0.8-3.2,1.3-3.3c1.1,0,4.9,2.6,4.5,3.9c-0.3,1-2.2,0.3-2.9,0.1
					C248.6,383.6,248.4,383.6,247,383.3z"/>
				<path class="st2" d="M243.2,387.3c-1-0.3-0.6-3.3,1.6-3.1c1.2,0.1,4.8,3.1,4.3,4.4c-0.4,1-2.3,0.1-3-0.2
					C244.8,387.8,244.5,387.7,243.2,387.3z"/>
			</g>
		</g>
	</g>
	<g>
		<g>
			<path class="st0" d="M117.7,261.6c0,6.4-1.3,104.4,8.6,111.8s20.6,10.2,23.7,4c3.1-6.3,19.4-56.2,15.7-62
				c-1.3-2-13.8-1.1-23.8-6.9C122.6,297.3,117.7,246.1,117.7,261.6z"/>
			<path class="st0" d="M123.1,367.1c-6.6,2-15.5,4.6-17.1,9.3c-1,2.9-5.1,8.7,1.8,10.1c7,1.4,27.1,3.9,39.8-6.4
				C157.5,372,123.1,367.1,123.1,367.1z"/>
		</g>
		<g>
			<path class="st1" d="M165.3,326.7c0.6,9.1-12.2,44.3-15.3,50.5c-0.5,1-0.3,0.8-1.9,2.4c-10.7,10.6-37.2,9.9-43.1,5.7
				c-4-2.9-1.4-9.3,2.8-12.3c4.1-2.9,15.3-6,15.3-6c-5.9-22.5-5.4-87-5.4-92.6c0,0,3.2,25.5,5,46.6s1.8,40.9,4.1,46.9
				c0.3,0.9-11,3.4-15.7,7.1c-3.5,2.7-1.4,8.3,6,9c6.8,0.7,20.2,1.1,28.4-7c1.9-1.9,9.9-35.7,14.2-49.8L165.3,326.7z"/>
			<g>
				<path class="st2" d="M106.9,377.6c0.8-0.2,0.6-2.6-1.1-2.6c-0.9,0-3.8,2.2-3.5,3.2c0.2,0.8,1.7,0.2,2.3,0
					C105.7,377.9,105.8,377.9,106.9,377.6z"/>
				<path class="st2" d="M108.1,383.3c1-0.2,0.8-3.2-1.3-3.3c-1.1,0-4.9,2.6-4.5,3.9c0.3,1,2.2,0.3,2.9,0.1
					C106.5,383.6,106.8,383.6,108.1,383.3z"/>
				<path class="st2" d="M111.9,387.3c1-0.3,0.6-3.3-1.6-3.1c-1.2,0.1-4.8,3.1-4.3,4.4c0.4,1,2.3,0.1,3-0.2
					C110.3,387.8,110.6,387.7,111.9,387.3z"/>
			</g>
		</g>
	</g>
	<g>
		<path class="st0" d="M131.3,159.7c4.3-2.2,10.9-4.8,18-7.2c14.8-4.9,47.3-5.8,62.6,1c6.6,2.9,13.4,6.6,19,11.2
			c8.7,7.2,10.4,18,10.7,28.7c0.4,14.6-1.3,29.3-2.6,43.8c-2.6,28.9,5.1,58.5-19.1,78.6c-10.1,8.4-18.6,13.2-42.6,14.4
			c-11.8,0.6-26.4,1.1-44.7-13.9c-20.7-17-14.8-59.9-12.7-84.4C123.3,191.6,110.3,170.7,131.3,159.7z"/>
		<path class="st3" d="M146,153.5c7.6-4.9,46.1-8.7,65.8-0.1c2.1,0.9-1.8,12.3,8.4,74.8c3.3,20.1-0.2,79.4-46.6,78.1
			c-33.2-1-45.5-50.8-38.5-81.2C148.3,168.7,142.7,155.7,146,153.5z"/>
		<path class="st4" d="M212.7,157.9c-0.8,8.8-7.8,22-35.4,22.8c-25.2,0.7-32.6-18.9-32.5-21.2c0.1-1.4,0-5.3,1.3-5.9
			c4.1-1.7,8.9-3,12.8-3.7c15.4-2.6,24-1.8,33-1c8.1,0.7,18.7,3.8,20.2,4.7C212.9,154.1,212.7,157.1,212.7,157.9z"/>
		<path class="st1" d="M126.9,310.1c13.6,17.9,32.4,21.6,52.3,21c12.4-0.3,22.4-2.5,30-6.6c5.4-3,16.4-12.1,16.4-14.5
			c0,0-20.1,16.4-47.7,16.2C142.2,325.9,126.9,310.1,126.9,310.1z"/>
	</g>
	<g>
		<path class="st0" d="M242.4,203c-8.2-4.8-11.8-7.7-17.5-16.5c-7.1-10.9-13.1-32.7-11.9-32.4c9.1,1.8,17.8,2,36.7,15.9
			c11.3,8.3,26.5,16.1,28.5,19.2c7.5,11.2,12.9,31.7,1.1,32.7C269,222.5,246.2,205.1,242.4,203z"/>
		<g>
			<path class="st0" d="M297.7,208.7c7.5-7.9,26.8-36,27.8-37.3c2.2-3,6.2-3.1,11.1-5.2c4.6-2,6.6-3.2,7-4.6
				c0.6-2.2-4.9-2.9-11.8-0.6c0,0,9.4-6.5,7.6-9.7c-2.6-4.6-16,2.9-16.7,3.6c0,0,7.9-7.6,5.2-9.8c-3.4-2.7-13,4.3-14.7,6.8
				c0,0,0.6-4.5-1.6-6.2c-2.7-2.1-7.4,4.8-6.5,11.7c0.7,5.8-3.5,10.7-10.2,16.3c-5.7,4.8-13,11.6-22.3,18.6
				c-21.4,16.3-20.7,12-9.5,21C274.4,222.4,279.1,228.4,297.7,208.7z"/>
			<path class="st1" d="M288.1,212.8c6.3-6.6,10.4-9.8,20-22.9c6-8.1,13.7-17.7,16.3-20.7c2.1-2.4,7.9-2.8,10.4-3.7
				c1-0.3,2-0.6,2.5-0.8c4-1.7,2-4.4-1-4c-1.1,0.1-2.2,0.1-4.5,0.4c6.9-2.2,12.4-1.6,11.8,0.6c-0.4,1.5-2.4,2.7-7,4.6
				c-4.9,2.1-8.9,2.2-11.1,5.2c-1,1.3-16.5,27-26.2,36.9c-4.6,4.7-8,7.7-11.4,10.6c-3.7,3.2-7.8,6-13.2,4
				c-5.4-2-31.5-19.1-35.9-22.2c-4.5-3.2,26.9,13.4,36.7,17.3C278.7,219.3,283.4,217.7,288.1,212.8z"/>
			<path class="st1" d="M259.9,180.1c-6.4-4.8-12.4-9.4-15.5-11.5c-8-5.5-13.5-9.7-12.7-9.6c1.9,0.3,21.1,11.1,30.1,17.5
				c4.6,3.3,10.1,7.6,13.1,9.7l1.7,1.6c9.2-6.9,12.8-9.4,18.5-14.2c6.7-5.6,10.5-10.5,10.1-16.1c0,0,3.6,9-4.4,16.4
				c-12.3,11.4-16.4,13.4-24.6,18.9C276.2,192.8,268.5,186.6,259.9,180.1z"/>
			<path class="st1" d="M331.8,161c0,0,9.5-6.5,7.7-9.7c-2.6-4.6-16,2.9-16.7,3.6c0,0,7.9-7.6,5.2-9.8c-3.4-2.7-13,4.3-14.7,6.8
				c0,0,0.6-4.5-1.6-6.2c-2.7-2.1-7.8,4.7-6.5,11.7c0,0,1.2-7.4,4.2-8.5c2.3-0.8,2.1,5.8,2,7.6s9.8-11.3,13-8.2
				c1.8,1.7-4.3,8.4-4.3,8.4s7.2-2.3,12.2-4.2c1.3-0.5,2.5-0.1,3.1,0.5c1,1,1.1,2.2,0.3,3.6C334.6,158.8,331.8,161,331.8,161z"/>
			<path class="st2" d="M336.4,150.7c-0.9,0.5,0.2,3.3,2.3,2.7c1.1-0.3,3.8-4,3.1-5.1c-0.6-0.9-2.1,0.4-2.7,0.8
				C337.8,149.9,337.5,150,336.4,150.7z"/>
			<path class="st2" d="M324.9,145.5c-0.8,0.6,0.4,3.3,2.5,2.5c1-0.4,3.5-4.3,2.7-5.3c-0.6-0.8-2.1,0.5-2.7,1
				C326.2,144.6,326,144.7,324.9,145.5z"/>
			<path class="st2" d="M311.9,148.1c-0.3,1-3.3,0.6-3.2-1.6c0-1.1,3-4.7,4.2-4.2c1,0.4,0.1,2.2-0.1,2.9
				C312.3,146.6,312.3,146.8,311.9,148.1z"/>
			<path class="st2" d="M340.9,160c-1,0.1-0.8,2.8,1,2.9c0.9,0.1,4-2.5,3.8-3.2c-0.2-0.6-0.8-0.7-2.2-0.1
				C342.4,160,342,159.9,340.9,160z"/>
		</g>
	</g>
	<g>
		<path class="st0" d="M115,203c8.2-4.8,11.8-7.7,17.5-16.5c7.1-10.9,13.6-32.6,12.1-32.4c-8.1,1.1-18,1.9-36.9,15.8
			c-11.3,8.3-26.5,16.1-28.5,19.2c-7.5,11.2-12.9,31.7-1.1,32.7C88.4,222.5,111.3,205.1,115,203z"/>
		<g>
			<path class="st0" d="M59.7,208.7c-7.5-7.9-26.8-36-27.8-37.3c-2.2-3-6.2-3.1-11.1-5.2c-4.6-2-6.6-3.2-7-4.6
				c-0.6-2.2,4.9-2.9,11.8-0.6c0,0-9.4-6.5-7.6-9.7c2.6-4.6,16,2.9,16.7,3.6c0,0-7.9-7.6-5.2-9.8c3.4-2.7,13,4.3,14.7,6.8
				c0,0-0.6-4.5,1.6-6.2c2.7-2.1,7.4,4.8,6.5,11.7c-0.7,5.8,3.5,10.7,10.2,16.3c5.7,4.8,13,11.6,22.3,18.6c21.4,16.3,20.7,12,9.5,21
				C83.1,222.4,78.4,228.4,59.7,208.7z"/>
			<path class="st1" d="M69.4,212.8c-6.3-6.6-10.4-9.8-20-22.9c-6-8.1-13.7-17.7-16.3-20.7c-2.1-2.4-7.9-2.8-10.4-3.7
				c-1-0.3-2-0.6-2.5-0.8c-4-1.7-2-4.4,1-4c1.1,0.1,2.2,0.1,4.5,0.4c-6.9-2.2-12.4-1.6-11.8,0.6c0.4,1.5,2.4,2.7,7,4.6
				c4.9,2.1,8.9,2.2,11.1,5.2c1,1.3,16.5,27,26.2,36.9c4.6,4.7,8,7.7,11.4,10.6c3.7,3.2,7.8,6,13.2,4c5.4-2,31.5-19.1,35.9-22.2
				c4.5-3.2-26.9,13.4-36.7,17.3C78.8,219.3,74.1,217.7,69.4,212.8z"/>
			<path class="st1" d="M97.6,180.1c6.4-4.8,12.4-9.4,15.5-11.5c8-5.5,13.5-9.7,12.7-9.6c-1.9,0.3-21.1,11.1-30.1,17.5
				c-4.6,3.3-10.1,7.6-13.1,9.7l-1.7,1.6c-9.2-6.9-12.8-9.4-18.5-14.2c-6.7-5.6-10.5-10.5-10.1-16.1c0,0-3.6,9,4.4,16.4
				c12.3,11.4,16.4,13.4,24.6,18.9C81.3,192.8,89,186.6,97.6,180.1z"/>
			<path class="st1" d="M25.7,161c0,0-9.5-6.5-7.7-9.7c2.6-4.6,16,2.9,16.7,3.6c0,0-7.9-7.6-5.2-9.8c3.4-2.7,13,4.3,14.7,6.8
				c0,0-0.6-4.5,1.6-6.2c2.7-2.1,7.8,4.7,6.5,11.7c0,0-1.2-7.4-4.2-8.5c-2.3-0.8-2.1,5.8-2,7.6s-9.8-11.3-13-8.2
				c-1.8,1.7,4.3,8.4,4.3,8.4s-7.2-2.3-12.2-4.2c-1.3-0.5-2.5-0.1-3.1,0.5c-1,1-1.1,2.2-0.3,3.6C22.9,158.8,25.7,161,25.7,161z"/>
			<path class="st2" d="M21.1,150.7c0.9,0.5-0.2,3.3-2.3,2.7c-1.1-0.3-3.8-4-3.1-5.1c0.6-0.9,2.1,0.4,2.7,0.8
				C19.7,149.9,19.9,150,21.1,150.7z"/>
			<path class="st2" d="M32.6,145.5c0.8,0.6-0.4,3.3-2.5,2.5c-1-0.4-3.5-4.3-2.7-5.3c0.6-0.8,2.1,0.5,2.7,1
				C31.3,144.6,31.5,144.7,32.6,145.5z"/>
			<path class="st2" d="M45.6,148.1c0.3,1,3.3,0.6,3.2-1.6c0-1.1-3-4.7-4.2-4.2c-1,0.4-0.1,2.2,0.1,2.9
				C45.2,146.6,45.2,146.8,45.6,148.1z"/>
			<path class="st2" d="M16.6,160c1,0.1,0.8,2.8-1,2.9c-0.9,0.1-4-2.5-3.8-3.2c0.2-0.6,0.8-0.7,2.2-0.1C15,160,15.5,159.9,16.6,160z
				"/>
		</g>
	</g>
</g>
<g id="KubeCon_Badge" class="st5">
	<g class="st6">
		<g id="lanyard_4_">
			<rect id="backplate_5_" x="162.1" y="217" class="st7" width="29.8" height="17.4"/>
			<path id="backplate_stroke_donker_5_" class="st8" d="M163,217.9v15.6h28v-15.6H163z M190.7,233.2h-27.3v-15h11.5v0.9h4.3v-0.9
				h11.6v15H190.7z"/>
			<path id="lint_R_4_" class="st9" d="M177.9,213.2h-1.8c0,0-35.1-57.1-34.3-58.6c0.6-1.2,3.5-1.3,3.5-1.3L177.9,213.2z"/>
			<path id="lint_L_4_" class="st9" d="M176.1,213.2h1.8l39-58.3c0,0-1.7-2.2-4.1-1.4C212.6,154.4,176.1,213.2,176.1,213.2z"/>
			<path id="connector_plate_5_" class="st10" d="M176.3,215.5v3.1h1.5v-3.1H176.3z M177,216.7c-0.2,0-0.4-0.2-0.4-0.4
				s0.2-0.4,0.4-0.4s0.4,0.2,0.4,0.4C177.3,216.5,177.2,216.7,177,216.7z"/>
			<path id="connector_ring_5_" class="st11" d="M177,214.1c-0.7,0-1.2,0.5-1.2,1.2c0,0.4,0.2,0.7,0.5,0.9v-0.5
				c-0.1-0.1-0.1-0.3-0.1-0.5c0-0.5,0.4-0.9,0.9-0.9s0.9,0.4,0.9,0.9s-0.4,0.9-0.9,0.9c0,0-0.2,0-0.3,0c0,0.1-0.1,0.1-0.1,0.3
				c0.1,0.1,0.4,0.1,0.4,0.1c0.7,0,1.2-0.5,1.2-1.2C178.2,214.6,177.6,214.1,177,214.1z"/>
			<polygon id="connector_top_5_" class="st11" points="177.7,214.4 176.3,214.4 176.1,213.2 177.9,213.2 			"/>
			<rect id="tekst_01_5_" x="175.5" y="222.8" class="st12" width="5.9" height="1.1"/>
			<rect id="tekst_02_5_" x="175.5" y="225.8" class="st12" width="13" height="1.1"/>
			<rect id="tekst_03_5_" x="175.5" y="228.7" class="st12" width="13" height="1.1"/>
			<rect id="foto_back_4_" x="164.5" y="221.6" class="st13" width="9.5" height="9.5"/>
		</g>
		<g>
			<polygon class="st0" points="171.5,228.2 173.1,231 165.3,231 167.1,227.8 			"/>
			<path class="st14" d="M167.3,228.5l-0.7,2.5h5.1l-0.5-2.5C171.2,228.6,168.4,229.6,167.3,228.5z"/>
		</g>
		<g>
			<path class="st1" d="M168.4,224.2c0.5-0.1,1.2-0.1,1.7,0.1c0.4,0.1,0.8,0.1,1.3,0.8s0.4,1.9,0.3,2.3c-0.1,0.5-0.7,2.2-2.4,2.2
				c-1.8,0-2.5-1.7-2.5-2.6c0-0.9,0.1-1.5,0.3-1.8S167.7,224.3,168.4,224.2z"/>
			<path class="st0" d="M168.5,224.1c0.5-0.1,1.3-0.1,1.6,0c0.4,0.1,0.8,0.2,1.2,0.9s0.4,1.8,0.3,2.2c-0.1,0.4-0.7,2.1-2.4,2.1
				s-2.4-1.7-2.5-2.6c0-0.9,0.1-1.4,0.3-1.7C167.3,224.7,167.8,224.2,168.5,224.1z"/>
			<path class="st2" d="M168.6,226.4c0-0.2,0.1-0.6,0.6-0.6s0.6,0.4,0.6,0.6c0,0.1,0.1,1.5-0.6,1.5
				C168.6,227.8,168.6,226.8,168.6,226.4z"/>
			<g>
				<path class="st0" d="M170,224.1c0,0-0.2,0-0.3-0.1c0,0-0.1-0.2-0.2-0.1c0,0,0,0.2-0.1,0.2s-0.1-0.1-0.1-0.2
					c0.1-0.3-0.3,0-0.3,0.2c0,0.1-0.1,0.1-0.1-0.1c0-0.1-0.2,0.1-0.2,0.2c0,0.1-0.2-0.2-0.3,0C168.4,224.2,170.7,224.3,170,224.1z"
					/>
			</g>
			<g>
				<path class="st0" d="M171.2,223.4c0.3-0.3,0.8-0.5,1.3-0.4c0.3,0,0.5,0.2,0.8,0.3c0.9,0.8,0.6,1.9,0.5,2.2
					c-0.2,0.4-0.5,0.6-0.9,0.7c0.1,0.2-0.2,0.1-0.2,0.1c0,0.1-0.1,0.1-0.2,0c-0.1,0-0.1,0-0.4-0.2c-0.2-0.1-0.4-0.4-0.6-0.6
					c-0.2-0.2-0.3-0.4-0.5-0.6c-0.1-0.1-0.1-0.3-0.2-0.4C170.5,224.1,170.9,223.7,171.2,223.4z"/>
				<path class="st0" d="M172.9,223.3c0.1,0.1,0.1-0.1,0.2,0c0.1,0.1,0.2,0.1,0.3,0.2c0.3,0.2,0.4,0.1,0.4,0.2
					c0,0.1-0.2,0.1-0.2,0.1c-0.1,0,0.3,0.1,0.3,0.2c0,0.1-0.2,0-0.2,0s0.3,0.1,0.1,0.2c0,0,0.2,0.2,0,0.2
					C173.8,224.6,172.7,223.2,172.9,223.3z"/>
				<path class="st14" d="M171.2,224.6c-0.1-0.3,0.1-0.5,0.3-0.7s0.8-0.4,1.1-0.2c0.9,0.6,0.8,2-0.2,2
					C171.9,225.7,171.4,225.2,171.2,224.6z"/>
				<path class="st15" d="M171.2,224.6c-0.1-0.1,0-0.3,0-0.4c0-0.1-0.1,0.2,0.3,0.2c0.3,0,0.6-0.1,0.8,0.2s0.1,0.5,0,0.7
					c-0.2,0.3,0,0.4-0.1,0.4C171.8,225.6,171.4,225.1,171.2,224.6z"/>
				<path class="st0" d="M171.2,225.2c0.3,0.3,0.3,0.3,0.3,0.3c0.4,0.3,0.6-0.1,0.3-0.1c-0.2,0,0.2-0.1-0.2-0.2
					c-0.2-0.1,0.1-0.1,0.1-0.2c0-0.1-0.3-0.1-0.3-0.2c0.1,0,0.1,0,0-0.1s-0.3,0-0.4-0.4C171.1,224.3,170.9,224.7,171.2,225.2z"/>
				<path class="st0" d="M171.9,223.3c0.4,0,0.7,0,0.7-0.1c0.4-0.2,0.1-0.3,0-0.2c-0.2,0.1,0.3-0.3-0.3-0.1c-0.1,0,0.1-0.1-0.1-0.1
					c-0.1,0-0.4,0.2-0.7,0.3C171.4,223.2,171.6,223.3,171.9,223.3z"/>
				<path class="st14" d="M172.6,224.5c0.1,0.1,0.4,0.1,0.6,0.2c0.1-0.1,0.1-0.2,0-0.2c0,0,0.3-0.1,0-0.2c-0.1,0-0.2-0.1-0.1-0.1
					c0.1,0,0-0.1,0-0.1c-0.2-0.1,0-0.1,0.1-0.1s0-0.1-0.2-0.1c-0.1,0-0.1,0-0.2,0c-0.1,0,0.1-0.1-0.2-0.1c-0.1,0-0.1,0-0.4,0
					c-0.2,0-0.2,0.4-0.4,0.5C171.8,224.2,172.3,224.2,172.6,224.5z"/>
			</g>
			<g>
				<path class="st0" d="M167.3,223.4c-0.3-0.3-0.8-0.5-1.3-0.4c-0.3,0-0.5,0.2-0.8,0.3c-0.9,0.8-0.6,1.9-0.5,2.2
					c0.2,0.4,0.5,0.6,0.9,0.7c-0.1,0.2,0.2,0.1,0.2,0.1c0,0.1,0.1,0.1,0.2,0c0.1,0,0.1,0,0.4-0.2c0.2-0.1,0.4-0.4,0.6-0.6
					c0.2-0.2,0.3-0.4,0.5-0.6c0.1-0.1,0.1-0.3,0.2-0.4C167.9,224.1,167.6,223.7,167.3,223.4z"/>
				<path class="st0" d="M165.5,223.3c-0.1,0.1-0.1-0.1-0.2,0c-0.1,0.1-0.2,0.1-0.3,0.2c-0.3,0.2-0.4,0.1-0.4,0.2
					c0,0.1,0.2,0.1,0.2,0.1c0.1,0-0.3,0.1-0.3,0.2c0,0.1,0.2,0,0.2,0s-0.3,0.1-0.1,0.2c0,0-0.2,0.2,0,0.2
					C164.6,224.6,165.7,223.2,165.5,223.3z"/>
				<path class="st14" d="M167.2,224.6c0.1-0.3-0.1-0.5-0.3-0.7s-0.8-0.4-1.1-0.2c-0.9,0.6-0.8,2,0.2,2
					C166.6,225.7,167.1,225.2,167.2,224.6z"/>
				<path class="st15" d="M167.2,224.6c0.1-0.1,0-0.3,0-0.4c0-0.1,0.1,0.2-0.3,0.2c-0.3,0-0.6-0.1-0.8,0.2s-0.1,0.5,0,0.7
					c0.2,0.3,0,0.4,0.1,0.4C166.7,225.6,167,225.1,167.2,224.6z"/>
				<path class="st0" d="M167.3,224.4c0,0.4-0.3,0.4-0.4,0.4c-0.1,0.1-0.1,0.1,0,0.1c0,0.1-0.3,0.1-0.3,0.2c0,0.1,0.3,0.1,0.1,0.2
					c-0.4,0.1,0,0.2-0.2,0.2c-0.3,0-0.1,0.4,0.3,0.1c0,0,0.1,0,0.3-0.3C167.6,224.7,167.3,224.3,167.3,224.4z"/>
				<path class="st0" d="M166.9,223.2c-0.3-0.1-0.5-0.3-0.7-0.3c-0.1,0,0,0.2-0.1,0.1c-0.6-0.2-0.1,0.1-0.3,0.1
					c-0.2-0.1-0.5,0,0,0.2c0,0,0.4,0,0.7,0.1C166.8,223.3,167,223.2,166.9,223.2z"/>
				<path class="st14" d="M166.5,224.1c-0.2-0.1-0.1-0.5-0.4-0.5c-0.3,0-0.3,0-0.4,0c-0.3,0-0.1,0.1-0.2,0.1c-0.1,0-0.1,0-0.2,0
					c-0.2,0-0.3,0.1-0.2,0.1s0.3,0.1,0.1,0.1c-0.1,0-0.2,0.1,0,0.1c0.1,0,0,0.1-0.1,0.1c-0.2,0.1,0,0.2,0,0.2
					c-0.2,0.1-0.1,0.2,0,0.2c0.3,0,0.5-0.1,0.6-0.2C166.1,224.2,166.6,224.2,166.5,224.1z"/>
			</g>
			<g>
				<g>
					<path class="st16" d="M170.9,226.1c0-0.2-0.2-0.3-0.4-0.3s-0.3,0.2-0.3,0.4s0.2,0.4,0.4,0.3
						C170.8,226.5,170.9,226.3,170.9,226.1z"/>
				</g>
				<g>
					<path class="st2" d="M170.6,226h-0.1l0.1,0.1c0,0.1,0,0.2-0.1,0.2s-0.2,0-0.2-0.1l0,0c0,0,0,0,0,0.1c-0.1,0.2,0,0.3,0.2,0.4
						c0.2,0,0.3-0.1,0.3-0.2C170.9,226.1,170.8,226,170.6,226z"/>
				</g>
			</g>
			
				<ellipse transform="matrix(0.3892 -0.9212 0.9212 0.3892 -105.9467 295.1427)" class="st17" cx="169.6" cy="227.5" rx="0.2" ry="0.1"/>
			
				<ellipse transform="matrix(0.9212 -0.3892 0.3892 0.9212 -75.2298 83.6748)" class="st17" cx="168.9" cy="227.5" rx="0.1" ry="0.2"/>
			<ellipse transform="matrix(0.544 -0.8391 0.8391 0.544 -113.5591 245.997)" cx="169.5" cy="227.5" rx="0.2" ry="0.1"/>
			<ellipse transform="matrix(0.8391 -0.544 0.544 0.8391 -96.5978 128.4846)" cx="168.9" cy="227.5" rx="0.1" ry="0.2"/>
			<path class="st18" d="M170.3,225.4c0.3-0.2,0.6-0.2,0.8,0.1"/>
			<path class="st18" d="M168.3,225.4c-0.3-0.2-0.6-0.2-0.8,0.1"/>
			<g>
				<g>
					<path class="st16" d="M167.6,226.1c0-0.2,0.2-0.3,0.4-0.3s0.3,0.2,0.3,0.4s-0.2,0.4-0.4,0.3
						C167.6,226.5,167.5,226.3,167.6,226.1z"/>
				</g>
				<g>
					<path class="st2" d="M167.8,226h0.1l-0.1,0.1c0,0.1,0,0.2,0.1,0.2s0.2,0,0.2-0.1l0,0c0,0,0,0,0,0.1c0.1,0.2,0,0.3-0.2,0.4
						c-0.2,0-0.3-0.1-0.3-0.2C167.6,226.1,167.7,226,167.8,226z"/>
				</g>
			</g>
			<g>
				<path class="st14" d="M169.2,229c-0.5,0-0.7-0.4-0.8-0.7c0-0.2,0-0.4,0-0.4s0.2,0.3,0.8,0.3c0.5,0,0.8-0.3,0.8-0.3s0,0.2,0,0.4
					C170,228.7,169.6,229,169.2,229z"/>
				<path class="st19" d="M170,227.9c0,0.1-0.4,0.5-0.8,0.5c-0.3,0-0.7-0.3-0.7-0.4c0-0.1,0.3,0.2,0.6,0.2
					C169.8,228.1,170,227.8,170,227.9z"/>
				<path class="st2" d="M168.4,227.9C168.4,227.9,168.4,227.8,168.4,227.9c0.1,0.1,0.4,0.5,0.8,0.5c0.4,0,0.8-0.5,0.8-0.5
					c0.1,0-0.3,0.6-0.8,0.6C168.8,228.5,168.5,228,168.4,227.9z"/>
				<path class="st2" d="M168.4,227.9C168.4,227.9,168.4,227.8,168.4,227.9c0.1,0,0.4,0.2,0.8,0.2c0.4,0,0.7-0.2,0.8-0.3
					c0.1,0-0.2,0.4-0.8,0.4C168.7,228.2,168.5,227.9,168.4,227.9z"/>
			</g>
			<g>
				<path class="st20" d="M171.5,225.7L171.5,225.7v0.2h0.2v-0.1L171.5,225.7z"/>
				<path class="st20" d="M167,225.7L167,225.7c0.1,0,0,0.3,0,0.3v-0.1h-0.2v-0.1L167,225.7z"/>
				<path class="st20" d="M171.4,226.6c-0.1,0.2-0.1,0.2-0.4,0.2c-0.4,0.1-0.6,0.1-0.9,0c-0.2,0-0.3-0.1-0.3-0.3
					c-0.1-0.1-0.2-0.3-0.2-0.5l0,0l-0.1-0.1c-0.1,0-0.2-0.1-0.3-0.1h-0.1H169c0,0-0.1,0-0.1,0.1c0,0-0.1,0-0.1,0.1l0,0
					c0,0.2-0.1,0.4-0.2,0.5c-0.1,0.2-0.2,0.3-0.3,0.3c-0.3,0-0.5,0-0.9,0c-0.2,0-0.3-0.1-0.4-0.2c-0.1-0.2-0.1-0.5-0.1-0.6l0,0
					c0-0.1,0-0.3,0.2-0.3s0.7-0.1,1.2,0h0.1c0.1,0,0.2,0,0.2,0s0.5,0,0.6,0s0.6,0,0.6,0c0.1,0,0.1,0,0.2,0h0.1c0.5-0.1,1,0,1.2,0
					c0.1,0,0.2,0.2,0.2,0.3c0,0,0,0,0,0.1C171.5,226.1,171.5,226.4,171.4,226.6z M169.9,226.4c0.1,0.2,0.2,0.3,0.3,0.3
					c0.2,0,0.4,0,0.7,0c0.2,0,0.3-0.1,0.3-0.2c0.1-0.1,0.1-0.4,0.1-0.5c0-0.2,0-0.2-0.2-0.3s-0.6-0.1-1,0c-0.3,0-0.3,0-0.4,0.1
					C169.8,225.9,169.9,226.3,169.9,226.4z M168.7,225.8c0-0.1-0.1-0.1-0.4-0.1c-0.5-0.1-0.8,0-1,0s-0.2,0.1-0.2,0.3
					c0,0.1,0,0.4,0.1,0.5s0.1,0.2,0.3,0.2c0.3,0.1,0.5,0,0.7,0s0.2-0.1,0.3-0.3C168.6,226.3,168.7,225.9,168.7,225.8z"/>
			</g>
		</g>
	</g>
</g>
<g id="Head_4_open_mouth">
	<g>
		<path class="st0" d="M82,60.2c0.3-2.3,7.7-4.7,6.7-4.6c-1.2,0.1-4.1-0.7-4.3-1.9c-0.5-2.6,2.3-1.2,8.4-4.8c1.7-1,4.1-2.5,5.8-3.5
			c0,0,0.1,0,0.1-0.1c2.3-1.6,4.7-2.8,7.2-3.7c-1.9-2.3,2-3,4.8-1.8c3,1.3-6.1-5.6,6.1-1c1.9,0.7-1.6-2.9,1.4-2.4
			c2.1,0.3,6.8,3.4,11.5,5.8c0.5,0.2,1,0.5,1.4,0.7c0,0,0.1,0,0.2,0.1c0,0,0,0,0.1,0c2.6,1.4,5,3.1,7.1,5.1
			c6.5,6,13.7,14.1,9.3,23.4c-1.3,2.7-2.7,5.3-4.2,7.9c-2.8,4.5-6,8.7-9.7,12.5c-3.9,3.9-7.3,8.5-12.1,11c-6,3.2-6.8,2.4-7.8,3.3
			c-3,2.4-4.9,2.6-4.5,0.9c0,0-6.8,1.8-4.1-1.7c-8.7-0.5-15.4-5.5-18.3-13.8c-1.2-3.5-3.7-11.9-2.7-21.3c-2.8-0.8,0.4-4.4,0.4-4.4
			c-3.3-2.8,0.2-3.9,1.6-4.5c0-0.1,0-0.1,0.1-0.2C85.1,61.4,81.8,61.8,82,60.2z"/>
		<path class="st3" d="M98,68.4c0,0-5.1-2.2-0.4-4c1.2-0.5,4-1.1,1.5-2c-2.5-1-1-1.9,0.8-2.6c3.3-1.3-0.5-2.5-2-3
			c-1.6-0.6-0.1-1.8,4.2-2c1.5-0.1,2.4,0.3,3.6,0c1.8-0.5-2.9-2.8,3.3-2.4c1.6,0.1,2.2,0.3,6.6,0.1c0.1,0,0.1,0,0.2,0
			c0.2,0,0.4,0,0.5,0s0.1,0,0.2,0c6.3-0.1,12.8,3,15.9,5.9c3.7,3.5,7.2,8.8,5.2,14.1c-4.3,11.4-13.9,22.2-25.4,22.3
			c-11.7,0-17.1-10.9-15.2-22l0,0C95.1,71.5,94.2,69.4,98,68.4z"/>
		<path class="st4" d="M137.8,72.3c1.3-2.7,0.7-5.1-0.3-7.4c-0.6-1.4,1.2,3.7-5.2,3.9c-5.2,0.1-11.9-1.4-15.9,2.7
			c-5,5.2-2.8,10.8-0.8,14.6c3.1,6.1-0.3,8.3,1.1,7.9C126,91.7,133,81.9,137.8,72.3z"/>
		<path class="st0" d="M139.7,80.1c1.1-2.9,1.6-6.6,0.6-9.6c-0.1-0.3-1.5-3.4-1.7-1.8c-1.1,8.7-5.6,7.1-7.3,8.5
			c-1.5,1.2-1.3,1.9,0.6,1.7c-0.7,1.5-5.4,1.8-5.8,3.6c-0.5,2.1,6.1,2.5,1.8,3.6c-7.2,2,0,3.1-3.3,3.3c-1.6,0.1-4.2,1-3.2,3
			c1,2.1,4.3,1.2,5.8,0.6c3.7-1.5,7.1-4.2,9.6-7.5C138,83.8,139,82,139.7,80.1z"/>
	</g>
	<g>
		<path class="st0" d="M275.3,64.5c-0.2-2.3-7.5-5-6.4-4.9c1.2,0.2,4.1-0.5,4.4-1.7c0.6-2.6-2.3-1.3-8.2-5.2c-1.6-1.1-4-2.6-5.6-3.8
			c0,0-0.1,0-0.1-0.1c-2.2-1.7-4.6-3-7-4c2-2.2-1.8-3.1-4.7-2c-3.1,1.2,6.4-5.3-6.1-1.2c-1.9,0.6,1.7-2.8-1.3-2.5
			c-2.1,0.2-6.9,3.1-11.8,5.3c-0.5,0.2-1,0.4-1.5,0.6c-0.1,0-0.1,0-0.2,0.1c0,0,0,0-0.1,0c-2.6,1.2-5.1,2.8-7.3,4.7
			c-6.8,5.7-14.3,13.5-10.4,22.9c1.1,2.8,2.4,5.4,3.9,8.1c2.6,4.6,5.6,9,9.1,12.9c3.7,4.1,6.9,8.8,11.6,11.6
			c5.9,3.5,6.6,2.7,7.7,3.7c2.8,2.6,4.8,2.8,4.5,1.1c0,0,6.7,2.1,4.2-1.5c8.7-0.1,15.6-4.8,18.9-13c1.4-3.4,4.2-11.7,3.7-21.1
			c2.8-0.7-0.2-4.4-0.2-4.4c3.4-2.6,0-3.9-1.4-4.6c0-0.1,0-0.1-0.1-0.2C272.2,65.6,275.5,66.1,275.3,64.5z"/>
		<path class="st3" d="M258.9,72c0,0,5.2-2,0.6-4c-1.2-0.5-4-1.2-1.4-2.1c2.5-0.8,1.1-1.9-0.7-2.6c-3.2-1.4,0.6-2.4,2.1-2.9
			c1.7-0.5,0.2-1.8-4.1-2.2c-1.5-0.2-2.4,0.2-3.6-0.2c-1.7-0.5,3.1-2.7-3.2-2.6c-1.6,0-2.2,0.2-6.6-0.2c-0.1,0-0.1,0-0.2,0
			c-0.2,0-0.4,0-0.5-0.1c-0.1,0-0.1,0-0.2,0c-6.2-0.4-12.9,2.4-16.1,5.2c-3.8,3.3-7.6,8.5-5.9,13.9c3.8,11.6,12.9,22.8,24.4,23.4
			c11.8,0.7,17.7-10,16.4-21.1l0,0C261.7,75.2,262.7,73.1,258.9,72z"/>
		<path class="st4" d="M219.1,74.1c-1.2-2.7-0.5-5.2,0.7-7.4c0.7-1.4-1.4,3.7,5,4.1c5.2,0.3,12-0.9,15.8,3.4
			c4.7,5.4,2.4,10.9,0.2,14.7c-3.4,6-0.1,8.3-1.4,7.9C230,94,223.5,83.9,219.1,74.1z"/>
		<path class="st0" d="M219.5,87.3c2.3,3.4,5.6,6.3,9.2,8c1.5,0.7,4.7,1.7,5.8-0.3s-1.5-3-3.1-3.2c-3.3-0.4,4-1.2-3.2-3.5
			c-4.2-1.4,2.4-1.4,2-3.5c-0.4-1.9-5.1-2.4-5.7-3.9c1.9,0.3,2.1-0.4,0.6-1.6c-1.6-1.4-6.2-0.1-6.9-8.8c-0.1-1.7-1.7,1.4-1.8,1.7
			c-1.1,3-0.7,6.7,0.2,9.7C217.4,83.7,218.3,85.6,219.5,87.3z"/>
	</g>
	<g>
		<path class="st1" d="M222.3,84.1c9.4,15.2,7.8,37.1,5.8,46.2c-2.4,11-14.5,44.7-50.4,43.5s-49.6-35.3-50.1-53.9s2.7-30.3,6.8-36.6
			c1.4-2.1-16.7,38.2,15.2,68.2c21.4,20.1,42.6,11.2,52.7,5.3C240.7,134.5,219,78.7,222.3,84.1z"/>
		<path class="st0" d="M221.8,83.5c-10.1-14.2-16.8-16.1-24.4-18.7c-0.3-0.1-0.6-0.2-1-0.3c-0.2-0.1-0.4-0.1-0.6-0.2
			c0,0-3.6-0.5-5.9-3.6c-0.7-0.9-2.3-3.8-3.6-2.5c-0.8,0.7-0.6,3.3-1.4,3.5c-1.5,0.4-2.1-1.2-2.3-2.4c-0.2-1,0.4-2.9-0.3-3.6
			c-0.8-0.9-2.4,0.1-3.1,0.6c-1.4,1-2.6,2.4-3.4,3.9c-0.1,0.2-0.2,0.4-0.2,0.6c-0.5,1.3-1.8,1.1-1.7-2.7c0.1-1.7-4.6,1.5-4.2,4.3
			c0.2,1.6-4.2-3.5-6.6,1.3l0,0C149,66,139.2,75.5,135.2,81.4c-4.1,6-7.7,15.7-7.7,34.9c0,15,15.7,51.6,49.3,53.3
			c35.3,1.8,49.4-33.6,51-41.7C229.5,119.8,233.1,99.5,221.8,83.5z"/>
	</g>
	<g>
		<path class="st2" d="M165.7,110.1c-0.1-3.6,2.2-12.8,13.3-12.5c11,0.3,12.4,9,12.6,12c0.2,3,0.9,29.5-13.4,29.2
			C164.9,138.5,165.9,118.3,165.7,110.1z"/>
		
			<ellipse transform="matrix(0.4095 -0.9123 0.9123 0.4095 -11.9726 246.5858)" class="st17" cx="184.5" cy="132.5" rx="3.9" ry="2.2"/>
		
			<ellipse transform="matrix(0.9296 -0.3686 0.3686 0.9296 -36.6662 72.68)" class="st17" cx="171.9" cy="132.3" rx="2.2" ry="3.9"/>
		<ellipse transform="matrix(0.5625 -0.8268 0.8268 0.5625 -29.4111 210.7649)" cx="184.4" cy="133.2" rx="3.3" ry="2.1"/>
		<ellipse transform="matrix(0.851 -0.5252 0.5252 0.851 -44.2336 110.1141)" cx="171.9" cy="133" rx="2.1" ry="3.3"/>
	</g>
	<path class="st2" d="M165.7,110.1c-0.1-3.6,2.2-12.8,13.3-12.5c11,0.3,12.4,9,12.6,12c0.2,3,0.9,29.5-13.4,29.2
		C164.9,138.5,165.9,118.3,165.7,110.1z"/>
	
		<ellipse transform="matrix(0.4095 -0.9123 0.9123 0.4095 -11.9726 246.5858)" class="st17" cx="184.5" cy="132.5" rx="3.9" ry="2.2"/>
	<ellipse transform="matrix(0.9296 -0.3686 0.3686 0.9296 -36.6662 72.68)" class="st17" cx="171.9" cy="132.3" rx="2.2" ry="3.9"/>
	<ellipse transform="matrix(0.5625 -0.8268 0.8268 0.5625 -29.4111 210.7649)" cx="184.4" cy="133.2" rx="3.3" ry="2.1"/>
	<ellipse transform="matrix(0.851 -0.5252 0.5252 0.851 -44.2336 110.1141)" cx="171.9" cy="133" rx="2.1" ry="3.3"/>
	<path class="st3" d="M177.1,166.5c-7.3-0.3-12.5-3.2-12.7-14.3c-0.1-4.7,3.8-8.5,4.1-8.8c0.3-0.2-0.7,2.4,9.1,3
		c7.7,0.4,9.4-0.9,10.6-2.5l0.3,0.3c2.1,1.8,3.5,5.4,3.6,8C192.8,166.2,182.2,166.7,177.1,166.5z"/>
	<g>
		<g>
			<path class="st16" d="M211.7,102.8c-1.5-4.6-5.1-5.7-8.7-4.3c-3.8,1.5-5.6,6.2-4.6,10c1.1,4.3,5.8,6.1,9.7,4.3
				C212,111,212.7,106.1,211.7,102.8z"/>
		</g>
		<g>
			<path class="st2" d="M206.9,99.5c-1,0-1.9,0.2-2.7,0.6c0.8,0.2,1.5,0.8,1.8,1.9c0.4,1.3,0.2,3.2-1.4,4c-1.5,0.7-3.4,0-3.8-1.7
				v-0.1c-0.1,0.4-0.2,0.7-0.3,1.1c-0.5,3.4,2.3,6.2,5.6,6.2c3.4-0.1,5.5-3.3,5.7-6.1C212.2,101.6,209.9,99.6,206.9,99.5z"/>
		</g>
	</g>
	<g>
		<g>
			<g>
				<path class="st16" d="M145.3,101.3c1.7-4.5,5.4-5.4,8.9-3.9c3.7,1.6,5.3,6.4,4.1,10.2c-1.3,4.2-6.1,5.9-9.9,3.9
					C144.5,109.5,144,104.6,145.3,101.3z"/>
			</g>
		</g>
		<g>
			<path class="st2" d="M153.5,98.3c-1,0-1.9,0.2-2.7,0.6c0.8,0.2,1.5,0.8,1.8,1.9c0.4,1.3,0.2,3.2-1.4,4c-1.5,0.7-3.4,0-3.8-1.7
				V103c-0.1,0.4-0.2,0.7-0.3,1.1c-0.5,3.4,2.3,6.2,5.6,6.2c3.4-0.1,5.5-3.3,5.7-6.1C158.7,100.4,156.4,98.5,153.5,98.3z"/>
		</g>
	</g>
	<path class="st21" d="M199.4,83.5c6.3-2.2,13.6,1,15.6,6.4"/>
	<path class="st21" d="M161.2,84.6c-6-2.9-15-0.8-17.6,4.3"/>
	<path class="st22" d="M229,103.4l-0.2-2l-3.4-3.8c-0.4-1.6-1.2-3.2-3.3-3.7c-4-1-14.6-1.9-25.4-0.7c-0.8,0.1-2,0.2-2,0.2
		c-1.2,0.1-2.5,0.3-3.9,0.4c-0.7,0.1-10.6,0.2-12,0.2c-1.3,0-10.8-0.6-11.2-0.6c-1.7-0.3-3.3-0.5-4.7-0.7c-0.6-0.1-1.3-0.2-2-0.3
		c-10.8-1.7-21.3-1.3-25.4-0.4c-2.1,0.4-3,1.9-3.5,3.6l-2.9,2.5l-0.6,2.8l3-0.2c-0.1,4,0.2,8.9,1.3,11.9c1.3,3.6,3,4.2,7.9,5.1
		c4,0.8,7.3,1.1,10.1,1.2c2.9,0.1,5.4-0.1,7.8-0.4c4-0.4,5.7-3,7.8-6.6c1.6-2.8,3.4-7,3.8-10.5c0-0.1,0.1-0.1,0.1-0.2
		c0.4-0.3,0.8-0.7,1.4-1c0.7-0.5,1.5-0.8,2.3-1.1c0.7-0.2,1.4-0.4,2.3-0.5h0.1c0.8-0.1,1.5-0.2,2.2-0.2c2.3,0,4.2,0.4,5.9,1.3
		c0.7,0.4,1.4,1,2.1,1.5c0.2,0.2,0.4,0.3,0.6,0.5c0,0,0,0.1,0,0.2c0.4,3.5,2,8,3.3,10.6c1.9,3.7,3.5,6.4,7.5,6.9
		c4.8,0.7,9.8,1.2,17.9,0c4.9-0.7,6.6-1.3,8.1-4.8c1.2-2.9,1.7-7.7,1.8-11.7L229,103.4z M221.9,102.2c0,1.8-0.2,7.5-1.5,10.5
		c-1.1,2.4-2,2.8-6.2,3.4c-6.8,1-10.2,0.7-14.8,0c-2.7-0.4-3.9-1.9-5.7-5.4s-3.5-10.1-2.7-11.7c0.8-1.4,1.3-1.6,7.2-2.2
		c4.2-0.5,8.1-0.6,11.4-0.5c3.9,0.1,7.1,0.5,9,1C221.7,98.1,222,99,221.9,102.2z M163.1,110.1c-2,3.4-3.3,4.9-6,5.1
		c-4.7,0.5-8,0.6-14.8-0.7c-4.2-0.8-5.1-1.2-6.1-3.6c-1.2-3.1-1.1-8.8-1-10.6c0.1-3.3,0.4-4.1,3.6-4.8c1.9-0.4,5.1-0.6,9-0.6
		c3.4,0.1,7.3,0.4,11.4,1c5.9,0.9,6.4,1.1,7.1,2.6C167,100.1,165,106.7,163.1,110.1z"/>
	
		<ellipse transform="matrix(3.758005e-02 -0.9993 0.9993 3.758005e-02 22.62 321.693)" class="st2" cx="178.3" cy="149.1" rx="8.8" ry="12.5"/>
	
		<ellipse transform="matrix(3.758005e-02 -0.9993 0.9993 3.758005e-02 22.62 321.693)" class="st19" cx="178.3" cy="149.1" rx="6" ry="8.6"/>
</g>
</svg>
