<?xml version="1.0" encoding="utf-8"?>
<!-- Generator: Adobe Illustrator 24.0.2, SVG Export Plug-In . SVG Version: 6.00 Build 0)  -->
<svg version="1.1" id="Layer_1" xmlns="http://www.w3.org/2000/svg" xmlns:xlink="http://www.w3.org/1999/xlink" x="0px" y="0px"
	 viewBox="0 0 351.6 428.3" style="enable-background:new 0 0 351.6 428.3;" xml:space="preserve">
<style type="text/css">
	.st0{fill:#818984;}
	.st1{fill:#71766F;}
	.st2{fill:#423C36;}
	.st3{fill:#E5E0D7;}
	.st4{fill:#D2C9BF;}
	.st5{display:none;}
	.st6{display:inline;}
	.st7{fill:#F0F0F0;}
	.st8{fill:#CBC8C8;}
	.st9{fill:#E74E4E;}
	.st10{fill:#E1E0DF;}
	.st11{fill:#ADAAAA;}
	.st12{fill:#DBD9DA;}
	.st13{fill:#7FB6E4;}
	.st14{fill:#D9DAD8;}
	.st15{fill:#CDCAC3;}
	.st16{fill:#FFFFFF;}
	.st17{fill:#A48A7B;}
	.st18{fill:none;stroke:#423C36;stroke-width:0.1249;stroke-linecap:round;stroke-linejoin:round;stroke-miterlimit:10;}
	.st19{fill:#E0B7AD;}
	.st20{fill:#414999;stroke:#414999;stroke-width:4.926948e-02;stroke-miterlimit:10;}
	.st21{fill:none;stroke:#423C36;stroke-width:2.5357;stroke-linecap:round;stroke-linejoin:round;stroke-miterlimit:10;}
	.st22{fill:#414999;}
</style>
<g id="Body_1">
	<g>
		<g>
			<path class="st0" d="M237.4,261.6c0,6.4,1.3,104.4-8.6,111.8s-20.6,10.2-23.7,4c-3.1-6.3-19.4-56.2-15.7-62
				c1.3-2,13.8-1.1,23.8-6.9C232.5,297.3,237.4,246.1,237.4,261.6z"/>
			<path class="st0" d="M232,367.1c6.6,2,15.5,4.6,17.1,9.3c1,2.9,5.1,8.7-1.8,10.1c-7,1.4-27.1,3.9-39.8-6.4
				C197.6,372,232,367.1,232,367.1z"/>
		</g>
		<g>
			<path class="st1" d="M189.8,326.7c-0.6,9.1,12.2,44.3,15.3,50.5c0.5,1,0.3,0.8,1.9,2.4c10.7,10.6,37.2,9.9,43.1,5.7
				c4-2.9,1.4-9.3-2.8-12.3c-4.1-2.9-15.3-6-15.3-6c5.9-22.5,5.4-87,5.4-92.6c0,0-3.2,25.5-5,46.6s-1.8,40.9-4.1,46.9
				c-0.3,0.9,11,3.4,15.7,7.1c3.5,2.7,1.4,8.3-6,9c-6.8,0.7-20.2,1.1-28.4-7c-2-2-8.2-30.5-13.9-45.7
				C193.6,325.6,189.8,326.7,189.8,326.7z"/>
			<g>
				<path class="st2" d="M248.2,377.6c-0.8-0.2-0.6-2.6,1.1-2.6c0.9,0,3.8,2.2,3.5,3.2c-0.2,0.8-1.7,0.2-2.3,0
					C249.5,377.9,249.3,377.9,248.2,377.6z"/>
				<path class="st2" d="M247,383.3c-1-0.2-0.8-3.2,1.3-3.3c1.1,0,4.9,2.6,4.5,3.9c-0.3,1-2.2,0.3-2.9,0.1
					C248.6,383.6,248.4,383.6,247,383.3z"/>
				<path class="st2" d="M243.2,387.3c-1-0.3-0.6-3.3,1.6-3.1c1.2,0.1,4.8,3.1,4.3,4.4c-0.4,1-2.3,0.1-3-0.2
					C244.8,387.8,244.5,387.7,243.2,387.3z"/>
			</g>
		</g>
	</g>
	<g>
		<g>
			<path class="st0" d="M117.7,261.6c0,6.4-1.3,104.4,8.6,111.8s20.6,10.2,23.7,4c3.1-6.3,19.4-56.2,15.7-62
				c-1.3-2-13.8-1.1-23.8-6.9C122.6,297.3,117.7,246.1,117.7,261.6z"/>
			<path class="st0" d="M123.1,367.1c-6.6,2-15.5,4.6-17.1,9.3c-1,2.9-5.1,8.7,1.8,10.1c7,1.4,27.1,3.9,39.8-6.4
				C157.5,372,123.1,367.1,123.1,367.1z"/>
		</g>
		<g>
			<path class="st1" d="M165.3,326.7c0.6,9.1-12.2,44.3-15.3,50.5c-0.5,1-0.3,0.8-1.9,2.4c-10.7,10.6-37.2,9.9-43.1,5.7
				c-4-2.9-1.4-9.3,2.8-12.3c4.1-2.9,15.3-6,15.3-6c-5.9-22.5-5.4-87-5.4-92.6c0,0,3.2,25.5,5,46.6s1.8,40.9,4.1,46.9
				c0.3,0.9-11,3.4-15.7,7.1c-3.5,2.7-1.4,8.3,6,9c6.8,0.7,20.2,1.1,28.4-7c1.9-1.9,9.9-35.7,14.2-49.8L165.3,326.7z"/>
			<g>
				<path class="st2" d="M106.9,377.6c0.8-0.2,0.6-2.6-1.1-2.6c-0.9,0-3.8,2.2-3.5,3.2c0.2,0.8,1.7,0.2,2.3,0
					C105.7,377.9,105.8,377.9,106.9,377.6z"/>
				<path class="st2" d="M108.1,383.3c1-0.2,0.8-3.2-1.3-3.3c-1.1,0-4.9,2.6-4.5,3.9c0.3,1,2.2,0.3,2.9,0.1
					C106.5,383.6,106.8,383.6,108.1,383.3z"/>
				<path class="st2" d="M111.9,387.3c1-0.3,0.6-3.3-1.6-3.1c-1.2,0.1-4.8,3.1-4.3,4.4c0.4,1,2.3,0.1,3-0.2
					C110.3,387.8,110.6,387.7,111.9,387.3z"/>
			</g>
		</g>
	</g>
	<path class="st0" d="M132.2,158.2c4.7-2.6,9.9-4.1,17-6.4c14.8-4.9,47.3-5.9,62.6,1c7.8,3.5,15,5.9,18.9,11.1
		c2.9,4,2.3,23.4,5.5,71c1.3,19.8,7.8,60.5-16.4,80.7c-10.1,8.4-18.6,13.3-42.6,14.4c-11.8,0.6-26.4,1.1-44.7-14
		c-20.7-17-14.9-60.3-12.7-84.7C123.5,191.1,106.3,172.6,132.2,158.2z"/>
	<path class="st3" d="M145.4,153.8c7.6-4.9,46.8-9,66.5-0.3c2.1,0.9-1.8,12.3,8.4,74.8c3.3,20.1-0.2,79.4-46.6,78.1
		c-33.2-1-45.5-50.8-38.5-81.2C148.3,168.7,142.1,155.9,145.4,153.8z"/>
	<path class="st4" d="M213.7,156.1c-0.8,9-7.8,22.7-35.4,23.3c-22,0.4-30.4-17.6-32.5-21.7c-0.9-1.6-2.3-3.5-1-4.2
		c10.8-6.2,23.7-8.1,36.1-7.7c10.7,0.4,24.3,1.9,33.5,7.8C215.1,154.2,213.8,155.3,213.7,156.1z"/>
	<g>
		<g>
			<g>
				<path class="st0" d="M263.2,214.4c2.4,10.6,4.8,44.6,4.9,46.2c0.4,3.7,3.8,5.8,6.9,10.1c3,4,4.1,6.1,3.7,7.6
					c-0.6,2.2-5.7,0-10.5-5.5c0,0,4.8,10.4,1.6,12.2c-4.6,2.7-12.3-10.6-12.5-11.6c0,0,2.9,10.6-0.5,11.1c-4.3,0.6-9-10.3-9.2-13.3
					c0,0-1.8,4.2-4.5,4.5c-3.4,0.4-3.9-7.9,0.3-13.4c3.5-4.6,2.4-11-0.5-19.2c-2.5-7.1-5.3-16.6-9.7-27.3
					c-10.1-24.9-11.7-20.8,2.5-22.9C250.1,190.7,257.1,188,263.2,214.4z"/>
				<path class="st0" d="M233,208.9c-5.5-9.1-7.3-12-15.2-29.2c-5.4-11.8-5.1-24-0.9-25c0,0,20,8,31,23.8c8,11.5,12.7,23.3,14,29.1
					C266.4,227.9,239.3,219.4,233,208.9z"/>
			</g>
			<path class="st1" d="M268.2,272.8c4.8,5.4,9.9,7.7,10.5,5.5c0.4-1.5-0.7-3.5-3.7-7.6c-3.1-4.3-6.5-6.4-6.9-10.1
				c-0.2-1.6-2.1-35.2-4.3-45.9c-1-4.7-1.4-7.4-2.2-9.8c-1.9-6.7-6.6-16.8-13.7-26.3c-9.3-12.6-21.1-18.7-21.1-18.7s4.8,3.3,8.3,6.9
				c2.6,2.7,4.2,4.7,6,6.8c7.4,9.1,9.7,18.3,11.7,23.2c3.7,8.6,5.9,15.9,7.9,36.2c1,10,4.5,25,5.3,29c0.6,3.1,5.4,6.4,7.1,8.5
				c0.7,0.8,1.4,1.5,1.7,2c2.6,3.5-0.5,4.8-2.9,3C271,274.7,270.1,274.1,268.2,272.8z"/>
			<path class="st1" d="M222.9,192.1c4,8.9,1.2,3.3,3.3,7.5c1.2,3.1,3.6,8.2,7.1,16.7c4.4,10.6,7.2,20.1,9.7,27
				c2.9,8.2,3.8,13.6,0.5,19c0,0,9.2-6.3,6-16.7c-4.8-16.1-11.1-28.9-15.3-37.9C230.7,200.2,220.5,186.8,222.9,192.1z"/>
			<path class="st1" d="M268.2,272.8c0,0,4.9,10.4,1.7,12.2c-4.6,2.7-12.3-10.6-12.5-11.6c0,0,2.9,10.6-0.5,11.1
				c-4.3,0.6-9-10.3-9.2-13.3c0,0-1.8,4.2-4.5,4.5c-3.4,0.4-4.3-8,0.3-13.4c0,0-2.7,7-0.7,9.5c1.6,1.9,4.8-3.9,5.6-5.5
				s2.7,14.7,7.1,13.7c2.5-0.6,0.6-9.4,0.6-9.4s5.1,5.7,8.4,9.8c0.9,1.1,2.1,1.4,2.9,1.1c1.4-0.4,2.1-1.3,2.1-2.9
				C269.5,276.1,268.2,272.8,268.2,272.8z"/>
		</g>
		<path class="st2" d="M275.6,278.2c-0.9-0.6,0.7-2.8,2.4-2c0.9,0.4,2.2,4.2,1.6,4.7c-0.5,0.4-1,0.2-2-1
			C276.9,279.1,276.5,278.9,275.6,278.2z"/>
		<path class="st2" d="M266.9,284c-0.5-0.9,1.9-2.7,3.3-1.2c0.8,0.8,1.2,5.4,0,6c-0.9,0.4-1.7-1.4-2-2.1
			C267.7,285.4,267.5,285.2,266.9,284z"/>
		<path class="st2" d="M254.3,282.6c-0.4-0.9,2.1-2.6,3.4-0.9c0.7,0.9,0.9,5.4-0.4,5.9c-1,0.4-1.5-1.5-1.8-2.2
			C255,284.1,254.9,283.9,254.3,282.6z"/>
		<path class="st2" d="M244.5,273.7c0.2-1-2.5-2.2-3.5-0.3c-0.5,1,0.2,5.5,1.5,5.8c1,0.2,1.2-1.8,1.4-2.5
			C244.1,275.3,244.2,275.1,244.5,273.7z"/>
	</g>
	<g>
		<g>
			<g>
				<path class="st0" d="M94.1,214.2c-2.4,10.6-4.8,44.6-4.9,46.2c-0.4,3.7-3.8,5.8-6.9,10.1c-3,4-4.1,6.1-3.7,7.6
					c0.6,2.2,5.7,0,10.5-5.5c0,0-4.8,10.4-1.6,12.2c4.6,2.7,12.3-10.6,12.5-11.6c0,0-2.9,10.6,0.5,11.1c4.3,0.6,9-10.3,9.2-13.3
					c0,0,1.8,4.2,4.5,4.5c3.4,0.4,3.9-7.9-0.3-13.4c-3.5-4.6-2.4-11,0.5-19.2c2.5-7.1,5.3-16.6,9.7-27.3
					c10.1-24.9,11.7-20.8-2.5-22.9S100.2,187.9,94.1,214.2z"/>
				<path class="st0" d="M124.4,208.8c5.5-9.1,7.3-12,15.2-29.2c5.4-11.8,5.2-23.9,1-24.9c0,0-16.8,5.5-31.1,23.7
					c-8.7,11-12.7,23.3-14,29.1C90.9,227.8,118,219.3,124.4,208.8z"/>
			</g>
			<path class="st1" d="M89.1,272.7c-4.8,5.4-9.9,7.7-10.5,5.5c-0.4-1.5,0.7-3.5,3.7-7.6c3.1-4.3,6.5-6.4,6.9-10.1
				c0.2-1.6,2.1-35.2,4.3-45.9c1-4.7,1.4-7.4,2.2-9.8c1.9-6.7,6.6-16.8,13.7-26.3c9.3-12.6,20.6-18.7,20.6-18.7s-4.4,3.3-7.8,6.8
				c-2.6,2.7-4.2,4.7-6,6.8c-7.4,9.1-9.7,18.3-11.7,23.2c-3.7,8.6-5.9,15.9-7.9,36.2c-1,10-4.5,25-5.3,29c-0.6,3.1-5.4,6.4-7.1,8.5
				c-0.7,0.8-1.4,1.5-1.7,2c-2.6,3.5,0.5,4.8,2.9,3C86.3,274.6,87.2,274,89.1,272.7z"/>
			<path class="st1" d="M134.5,191.9c-4,8.9-1.2,3.3-3.3,7.5c-1.2,3.1-3.6,8.2-7.1,16.7c-4.4,10.6-7.2,20.1-9.7,27
				c-2.9,8.2-3.5,14.7-0.5,19c0,0-9.2-6.3-6-16.7c4.8-16.1,11.1-28.9,15.3-37.9C126.6,200.1,136.9,186.6,134.5,191.9z"/>
			<path class="st1" d="M89.1,272.7c0,0-4.9,10.4-1.7,12.2c4.6,2.7,12.3-10.6,12.5-11.6c0,0-2.9,10.6,0.5,11.1
				c4.3,0.6,9-10.3,9.2-13.3c0,0,1.8,4.2,4.5,4.5c3.4,0.4,4.3-8-0.3-13.4c0,0,2.7,7,0.7,9.5c-1.6,1.9-4.8-3.9-5.6-5.5
				s-2.7,14.7-7.1,13.7c-2.5-0.6-0.6-9.4-0.6-9.4s-5.1,5.7-8.4,9.8c-0.9,1.1-2.1,1.4-2.9,1.1c-1.4-0.4-2.1-1.3-2.1-2.9
				C87.8,276,89.1,272.7,89.1,272.7z"/>
		</g>
		<path class="st2" d="M81.8,278.1c0.9-0.6-0.7-2.8-2.4-2c-0.9,0.4-2.2,4.2-1.6,4.7c0.5,0.4,1,0.2,2-1
			C80.5,278.9,80.8,278.8,81.8,278.1z"/>
		<path class="st2" d="M90.4,283.9c0.5-0.9-1.9-2.7-3.3-1.2c-0.8,0.8-1.2,5.4,0,6c0.9,0.4,1.7-1.4,2-2.1
			C89.6,285.2,89.8,285.1,90.4,283.9z"/>
		<path class="st2" d="M103,282.5c0.4-0.9-2.1-2.6-3.4-0.9c-0.7,0.9-0.9,5.4,0.4,5.9c1,0.4,1.5-1.5,1.8-2.2
			C102.3,283.9,102.4,283.7,103,282.5z"/>
		<path class="st2" d="M112.8,273.6c-0.2-1,2.5-2.2,3.5-0.3c0.5,1-0.2,5.5-1.5,5.8c-1,0.2-1.2-1.8-1.4-2.5
			C113.2,275.2,113.1,275,112.8,273.6z"/>
	</g>
	<path class="st1" d="M126.9,310.1c13.6,17.9,32.4,21.6,52.3,21c12.4-0.3,22.4-2.5,30-6.6c5.4-3,16.4-12.1,16.4-14.5
		c0,0-20.1,16.4-47.7,16.2C142.2,325.9,126.9,310.1,126.9,310.1z"/>
</g>
<g id="KubeCon_Badge" class="st5">
	<g class="st6">
		<g id="lanyard_4_">
			<rect id="backplate_5_" x="162.1" y="217" class="st7" width="29.8" height="17.4"/>
			<path id="backplate_stroke_donker_5_" class="st8" d="M163,217.9v15.6h28v-15.6H163z M190.7,233.2h-27.3v-15h11.5v0.9h4.3v-0.9
				h11.6v15H190.7z"/>
			<path id="lint_R_4_" class="st9" d="M177.9,213.2h-1.8c0,0-35.1-57.1-34.3-58.6c0.6-1.2,3.5-1.3,3.5-1.3L177.9,213.2z"/>
			<path id="lint_L_4_" class="st9" d="M176.1,213.2h1.8l39-58.3c0,0-1.7-2.2-4.1-1.4C212.6,154.4,176.1,213.2,176.1,213.2z"/>
			<path id="connector_plate_5_" class="st10" d="M176.3,215.5v3.1h1.5v-3.1H176.3z M177,216.7c-0.2,0-0.4-0.2-0.4-0.4
				s0.2-0.4,0.4-0.4s0.4,0.2,0.4,0.4C177.3,216.5,177.2,216.7,177,216.7z"/>
			<path id="connector_ring_5_" class="st11" d="M177,214.1c-0.7,0-1.2,0.5-1.2,1.2c0,0.4,0.2,0.7,0.5,0.9v-0.5
				c-0.1-0.1-0.1-0.3-0.1-0.5c0-0.5,0.4-0.9,0.9-0.9s0.9,0.4,0.9,0.9s-0.4,0.9-0.9,0.9c0,0-0.2,0-0.3,0c0,0.1-0.1,0.1-0.1,0.3
				c0.1,0.1,0.4,0.1,0.4,0.1c0.7,0,1.2-0.5,1.2-1.2C178.2,214.6,177.6,214.1,177,214.1z"/>
			<polygon id="connector_top_5_" class="st11" points="177.7,214.4 176.3,214.4 176.1,213.2 177.9,213.2 			"/>
			<rect id="tekst_01_5_" x="175.5" y="222.8" class="st12" width="5.9" height="1.1"/>
			<rect id="tekst_02_5_" x="175.5" y="225.8" class="st12" width="13" height="1.1"/>
			<rect id="tekst_03_5_" x="175.5" y="228.7" class="st12" width="13" height="1.1"/>
			<rect id="foto_back_4_" x="164.5" y="221.6" class="st13" width="9.5" height="9.5"/>
		</g>
		<g>
			<polygon class="st0" points="171.5,228.2 173.1,231 165.3,231 167.1,227.8 			"/>
			<path class="st14" d="M167.3,228.5l-0.7,2.5h5.1l-0.5-2.5C171.2,228.6,168.4,229.6,167.3,228.5z"/>
		</g>
		<g>
			<path class="st1" d="M168.4,224.2c0.5-0.1,1.2-0.1,1.7,0.1c0.4,0.1,0.8,0.1,1.3,0.8s0.4,1.9,0.3,2.3c-0.1,0.5-0.7,2.2-2.4,2.2
				c-1.8,0-2.5-1.7-2.5-2.6c0-0.9,0.1-1.5,0.3-1.8S167.7,224.3,168.4,224.2z"/>
			<path class="st0" d="M168.5,224.1c0.5-0.1,1.3-0.1,1.6,0c0.4,0.1,0.8,0.2,1.2,0.9s0.4,1.8,0.3,2.2c-0.1,0.4-0.7,2.1-2.4,2.1
				s-2.4-1.7-2.5-2.6c0-0.9,0.1-1.4,0.3-1.7C167.3,224.7,167.8,224.2,168.5,224.1z"/>
			<path class="st2" d="M168.6,226.4c0-0.2,0.1-0.6,0.6-0.6s0.6,0.4,0.6,0.6c0,0.1,0.1,1.5-0.6,1.5
				C168.6,227.8,168.6,226.8,168.6,226.4z"/>
			<g>
				<path class="st0" d="M170,224.1c0,0-0.2,0-0.3-0.1c0,0-0.1-0.2-0.2-0.1c0,0,0,0.2-0.1,0.2s-0.1-0.1-0.1-0.2
					c0.1-0.3-0.3,0-0.3,0.2c0,0.1-0.1,0.1-0.1-0.1c0-0.1-0.2,0.1-0.2,0.2c0,0.1-0.2-0.2-0.3,0C168.4,224.2,170.7,224.3,170,224.1z"
					/>
			</g>
			<g>
				<path class="st0" d="M171.2,223.4c0.3-0.3,0.8-0.5,1.3-0.4c0.3,0,0.5,0.2,0.8,0.3c0.9,0.8,0.6,1.9,0.5,2.2
					c-0.2,0.4-0.5,0.6-0.9,0.7c0.1,0.2-0.2,0.1-0.2,0.1c0,0.1-0.1,0.1-0.2,0c-0.1,0-0.1,0-0.4-0.2c-0.2-0.1-0.4-0.4-0.6-0.6
					c-0.2-0.2-0.3-0.4-0.5-0.6c-0.1-0.1-0.1-0.3-0.2-0.4C170.5,224.1,170.9,223.7,171.2,223.4z"/>
				<path class="st0" d="M172.9,223.3c0.1,0.1,0.1-0.1,0.2,0c0.1,0.1,0.2,0.1,0.3,0.2c0.3,0.2,0.4,0.1,0.4,0.2
					c0,0.1-0.2,0.1-0.2,0.1c-0.1,0,0.3,0.1,0.3,0.2c0,0.1-0.2,0-0.2,0s0.3,0.1,0.1,0.2c0,0,0.2,0.2,0,0.2
					C173.8,224.6,172.7,223.2,172.9,223.3z"/>
				<path class="st14" d="M171.2,224.6c-0.1-0.3,0.1-0.5,0.3-0.7s0.8-0.4,1.1-0.2c0.9,0.6,0.8,2-0.2,2
					C171.9,225.7,171.4,225.2,171.2,224.6z"/>
				<path class="st15" d="M171.2,224.6c-0.1-0.1,0-0.3,0-0.4c0-0.1-0.1,0.2,0.3,0.2c0.3,0,0.6-0.1,0.8,0.2s0.1,0.5,0,0.7
					c-0.2,0.3,0,0.4-0.1,0.4C171.8,225.6,171.4,225.1,171.2,224.6z"/>
				<path class="st0" d="M171.2,225.2c0.3,0.3,0.3,0.3,0.3,0.3c0.4,0.3,0.6-0.1,0.3-0.1c-0.2,0,0.2-0.1-0.2-0.2
					c-0.2-0.1,0.1-0.1,0.1-0.2c0-0.1-0.3-0.1-0.3-0.2c0.1,0,0.1,0,0-0.1s-0.3,0-0.4-0.4C171.1,224.3,170.9,224.7,171.2,225.2z"/>
				<path class="st0" d="M171.9,223.3c0.4,0,0.7,0,0.7-0.1c0.4-0.2,0.1-0.3,0-0.2c-0.2,0.1,0.3-0.3-0.3-0.1c-0.1,0,0.1-0.1-0.1-0.1
					c-0.1,0-0.4,0.2-0.7,0.3C171.4,223.2,171.6,223.3,171.9,223.3z"/>
				<path class="st14" d="M172.6,224.5c0.1,0.1,0.4,0.1,0.6,0.2c0.1-0.1,0.1-0.2,0-0.2c0,0,0.3-0.1,0-0.2c-0.1,0-0.2-0.1-0.1-0.1
					c0.1,0,0-0.1,0-0.1c-0.2-0.1,0-0.1,0.1-0.1s0-0.1-0.2-0.1c-0.1,0-0.1,0-0.2,0c-0.1,0,0.1-0.1-0.2-0.1c-0.1,0-0.1,0-0.4,0
					c-0.2,0-0.2,0.4-0.4,0.5C171.8,224.2,172.3,224.2,172.6,224.5z"/>
			</g>
			<g>
				<path class="st0" d="M167.3,223.4c-0.3-0.3-0.8-0.5-1.3-0.4c-0.3,0-0.5,0.2-0.8,0.3c-0.9,0.8-0.6,1.9-0.5,2.2
					c0.2,0.4,0.5,0.6,0.9,0.7c-0.1,0.2,0.2,0.1,0.2,0.1c0,0.1,0.1,0.1,0.2,0c0.1,0,0.1,0,0.4-0.2c0.2-0.1,0.4-0.4,0.6-0.6
					c0.2-0.2,0.3-0.4,0.5-0.6c0.1-0.1,0.1-0.3,0.2-0.4C167.9,224.1,167.6,223.7,167.3,223.4z"/>
				<path class="st0" d="M165.5,223.3c-0.1,0.1-0.1-0.1-0.2,0c-0.1,0.1-0.2,0.1-0.3,0.2c-0.3,0.2-0.4,0.1-0.4,0.2
					c0,0.1,0.2,0.1,0.2,0.1c0.1,0-0.3,0.1-0.3,0.2c0,0.1,0.2,0,0.2,0s-0.3,0.1-0.1,0.2c0,0-0.2,0.2,0,0.2
					C164.6,224.6,165.7,223.2,165.5,223.3z"/>
				<path class="st14" d="M167.2,224.6c0.1-0.3-0.1-0.5-0.3-0.7s-0.8-0.4-1.1-0.2c-0.9,0.6-0.8,2,0.2,2
					C166.6,225.7,167.1,225.2,167.2,224.6z"/>
				<path class="st15" d="M167.2,224.6c0.1-0.1,0-0.3,0-0.4c0-0.1,0.1,0.2-0.3,0.2c-0.3,0-0.6-0.1-0.8,0.2s-0.1,0.5,0,0.7
					c0.2,0.3,0,0.4,0.1,0.4C166.7,225.6,167,225.1,167.2,224.6z"/>
				<path class="st0" d="M167.3,224.4c0,0.4-0.3,0.4-0.4,0.4c-0.1,0.1-0.1,0.1,0,0.1c0,0.1-0.3,0.1-0.3,0.2c0,0.1,0.3,0.1,0.1,0.2
					c-0.4,0.1,0,0.2-0.2,0.2c-0.3,0-0.1,0.4,0.3,0.1c0,0,0.1,0,0.3-0.3C167.6,224.7,167.3,224.3,167.3,224.4z"/>
				<path class="st0" d="M166.9,223.2c-0.3-0.1-0.5-0.3-0.7-0.3c-0.1,0,0,0.2-0.1,0.1c-0.6-0.2-0.1,0.1-0.3,0.1
					c-0.2-0.1-0.5,0,0,0.2c0,0,0.4,0,0.7,0.1C166.8,223.3,167,223.2,166.9,223.2z"/>
				<path class="st14" d="M166.5,224.1c-0.2-0.1-0.1-0.5-0.4-0.5c-0.3,0-0.3,0-0.4,0c-0.3,0-0.1,0.1-0.2,0.1c-0.1,0-0.1,0-0.2,0
					c-0.2,0-0.3,0.1-0.2,0.1s0.3,0.1,0.1,0.1c-0.1,0-0.2,0.1,0,0.1c0.1,0,0,0.1-0.1,0.1c-0.2,0.1,0,0.2,0,0.2
					c-0.2,0.1-0.1,0.2,0,0.2c0.3,0,0.5-0.1,0.6-0.2C166.1,224.2,166.6,224.2,166.5,224.1z"/>
			</g>
			<g>
				<g>
					<path class="st16" d="M170.9,226.1c0-0.2-0.2-0.3-0.4-0.3s-0.3,0.2-0.3,0.4s0.2,0.4,0.4,0.3
						C170.8,226.5,170.9,226.3,170.9,226.1z"/>
				</g>
				<g>
					<path class="st2" d="M170.6,226h-0.1l0.1,0.1c0,0.1,0,0.2-0.1,0.2s-0.2,0-0.2-0.1l0,0c0,0,0,0,0,0.1c-0.1,0.2,0,0.3,0.2,0.4
						c0.2,0,0.3-0.1,0.3-0.2C170.9,226.1,170.8,226,170.6,226z"/>
				</g>
			</g>
			
				<ellipse transform="matrix(0.3892 -0.9212 0.9212 0.3892 -105.9467 295.1427)" class="st17" cx="169.6" cy="227.5" rx="0.2" ry="0.1"/>
			
				<ellipse transform="matrix(0.9212 -0.3892 0.3892 0.9212 -75.2298 83.6748)" class="st17" cx="168.9" cy="227.5" rx="0.1" ry="0.2"/>
			<ellipse transform="matrix(0.544 -0.8391 0.8391 0.544 -113.5591 245.997)" cx="169.5" cy="227.5" rx="0.2" ry="0.1"/>
			<ellipse transform="matrix(0.8391 -0.544 0.544 0.8391 -96.5978 128.4846)" cx="168.9" cy="227.5" rx="0.1" ry="0.2"/>
			<path class="st18" d="M170.3,225.4c0.3-0.2,0.6-0.2,0.8,0.1"/>
			<path class="st18" d="M168.3,225.4c-0.3-0.2-0.6-0.2-0.8,0.1"/>
			<g>
				<g>
					<path class="st16" d="M167.6,226.1c0-0.2,0.2-0.3,0.4-0.3s0.3,0.2,0.3,0.4s-0.2,0.4-0.4,0.3
						C167.6,226.5,167.5,226.3,167.6,226.1z"/>
				</g>
				<g>
					<path class="st2" d="M167.8,226h0.1l-0.1,0.1c0,0.1,0,0.2,0.1,0.2s0.2,0,0.2-0.1l0,0c0,0,0,0,0,0.1c0.1,0.2,0,0.3-0.2,0.4
						c-0.2,0-0.3-0.1-0.3-0.2C167.6,226.1,167.7,226,167.8,226z"/>
				</g>
			</g>
			<g>
				<path class="st14" d="M169.2,229c-0.5,0-0.7-0.4-0.8-0.7c0-0.2,0-0.4,0-0.4s0.2,0.3,0.8,0.3c0.5,0,0.8-0.3,0.8-0.3s0,0.2,0,0.4
					C170,228.7,169.6,229,169.2,229z"/>
				<path class="st19" d="M170,227.9c0,0.1-0.4,0.5-0.8,0.5c-0.3,0-0.7-0.3-0.7-0.4c0-0.1,0.3,0.2,0.6,0.2
					C169.8,228.1,170,227.8,170,227.9z"/>
				<path class="st2" d="M168.4,227.9C168.4,227.9,168.4,227.8,168.4,227.9c0.1,0.1,0.4,0.5,0.8,0.5c0.4,0,0.8-0.5,0.8-0.5
					c0.1,0-0.3,0.6-0.8,0.6C168.8,228.5,168.5,228,168.4,227.9z"/>
				<path class="st2" d="M168.4,227.9C168.4,227.9,168.4,227.8,168.4,227.9c0.1,0,0.4,0.2,0.8,0.2c0.4,0,0.7-0.2,0.8-0.3
					c0.1,0-0.2,0.4-0.8,0.4C168.7,228.2,168.5,227.9,168.4,227.9z"/>
			</g>
			<g>
				<path class="st20" d="M171.5,225.7L171.5,225.7v0.2h0.2v-0.1L171.5,225.7z"/>
				<path class="st20" d="M167,225.7L167,225.7c0.1,0,0,0.3,0,0.3v-0.1h-0.2v-0.1L167,225.7z"/>
				<path class="st20" d="M171.4,226.6c-0.1,0.2-0.1,0.2-0.4,0.2c-0.4,0.1-0.6,0.1-0.9,0c-0.2,0-0.3-0.1-0.3-0.3
					c-0.1-0.1-0.2-0.3-0.2-0.5l0,0l-0.1-0.1c-0.1,0-0.2-0.1-0.3-0.1h-0.1H169c0,0-0.1,0-0.1,0.1c0,0-0.1,0-0.1,0.1l0,0
					c0,0.2-0.1,0.4-0.2,0.5c-0.1,0.2-0.2,0.3-0.3,0.3c-0.3,0-0.5,0-0.9,0c-0.2,0-0.3-0.1-0.4-0.2c-0.1-0.2-0.1-0.5-0.1-0.6l0,0
					c0-0.1,0-0.3,0.2-0.3s0.7-0.1,1.2,0h0.1c0.1,0,0.2,0,0.2,0s0.5,0,0.6,0s0.6,0,0.6,0c0.1,0,0.1,0,0.2,0h0.1c0.5-0.1,1,0,1.2,0
					c0.1,0,0.2,0.2,0.2,0.3c0,0,0,0,0,0.1C171.5,226.1,171.5,226.4,171.4,226.6z M169.9,226.4c0.1,0.2,0.2,0.3,0.3,0.3
					c0.2,0,0.4,0,0.7,0c0.2,0,0.3-0.1,0.3-0.2c0.1-0.1,0.1-0.4,0.1-0.5c0-0.2,0-0.2-0.2-0.3s-0.6-0.1-1,0c-0.3,0-0.3,0-0.4,0.1
					C169.8,225.9,169.9,226.3,169.9,226.4z M168.7,225.8c0-0.1-0.1-0.1-0.4-0.1c-0.5-0.1-0.8,0-1,0s-0.2,0.1-0.2,0.3
					c0,0.1,0,0.4,0.1,0.5s0.1,0.2,0.3,0.2c0.3,0.1,0.5,0,0.7,0s0.2-0.1,0.3-0.3C168.6,226.3,168.7,225.9,168.7,225.8z"/>
			</g>
		</g>
	</g>
</g>
<g id="Head_1_medium_smile">
	<g>
		<path class="st0" d="M275.8,63.4c-0.3-2.3-7.6-4.9-6.6-4.7c1.2,0.2,4.1-0.6,4.4-1.8c0.6-2.6-2.3-1.2-8.3-5c-1.7-1-4.1-2.6-5.7-3.6
			c0,0-0.1,0-0.1-0.1c-2.2-1.6-4.6-2.9-7.1-3.9c2-2.2-1.9-3.1-4.7-1.9c-3.1,1.2,6.3-5.5-6.1-1.1c-1.9,0.7,1.7-2.8-1.4-2.4
			c-2.1,0.3-6.9,3.3-11.6,5.5c-0.5,0.2-1,0.4-1.5,0.7c-0.1,0-0.1,0-0.2,0.1c0,0,0,0-0.1,0c-2.6,1.3-5,3-7.2,4.9
			c-6.6,5.9-14,13.8-9.9,23.2c1.2,2.7,2.6,5.4,4.1,8c2.7,4.6,5.8,8.9,9.4,12.7c3.8,4,7.1,8.6,11.9,11.3c6,3.3,6.7,2.6,7.8,3.5
			c2.9,2.5,4.9,2.7,4.5,1c0,0,6.7,1.9,4.1-1.6c8.7-0.3,15.5-5.2,18.6-13.4c1.3-3.5,4-11.8,3.2-21.2c2.8-0.7-0.3-4.4-0.3-4.4
			c3.3-2.7-0.1-3.9-1.5-4.5c0-0.1,0-0.1-0.1-0.2C272.7,64.6,276,65,275.8,63.4z"/>
		<path class="st3" d="M259.6,71.3c0,0,5.2-2.1,0.5-4c-1.2-0.5-4-1.1-1.4-2.1c2.5-0.9,1-1.9-0.7-2.6c-3.3-1.3,0.5-2.5,2-2.9
			c1.7-0.5,0.2-1.8-4.1-2.1c-1.5-0.1-2.4,0.2-3.6-0.1c-1.8-0.5,3-2.8-3.2-2.5c-1.6,0.1-2.2,0.3-6.6,0c-0.1,0-0.1,0-0.2,0
			c-0.2,0-0.4,0-0.5,0s-0.1,0-0.2,0c-6.3-0.3-12.8,2.7-16,5.6c-3.8,3.4-7.4,8.7-5.6,14c4,11.5,13.4,22.5,24.9,22.9
			c11.8,0.4,17.5-10.4,15.9-21.5l0,0C262.5,74.4,263.4,72.3,259.6,71.3z"/>
		<path class="st4" d="M219.8,74.3c-1.3-2.7-0.6-5.2,0.5-7.4c0.7-1.4-1.3,3.7,5.1,4c5.2,0.2,12-1.1,15.8,3.1
			c4.9,5.3,2.6,10.8,0.5,14.7c-3.3,6.1,0.1,8.3-1.3,7.9C231.2,93.9,224.4,83.9,219.8,74.3z"/>
		<path class="st0" d="M220.5,87.4c2.4,3.4,5.7,6.2,9.4,7.8c1.5,0.6,4.8,1.6,5.8-0.5c1-2-1.6-2.9-3.2-3.1c-3.3-0.3,3.9-1.3-3.2-3.4
			c-4.2-1.3,2.4-1.5,1.9-3.6c-0.4-1.9-5.1-2.3-5.7-3.8c1.9,0.3,2.1-0.4,0.6-1.6c-1.7-1.4-6.2,0.1-7.1-8.6c-0.2-1.7-1.6,1.4-1.7,1.7
			c-1,3-0.6,6.7,0.4,9.7C218.3,83.9,219.3,85.7,220.5,87.4z"/>
	</g>
	<g>
		<path class="st0" d="M81.4,63.4c0.3-2.3,7.6-4.9,6.6-4.7c-1.2,0.2-4.1-0.6-4.4-1.8c-0.6-2.6,2.3-1.2,8.3-5c1.7-1,4.1-2.6,5.7-3.6
			c0,0,0.1,0,0.1-0.1c2.2-1.6,4.6-2.9,7.1-3.9c-2-2.2,1.9-3.1,4.7-1.9c3.1,1.2-6.3-5.5,6.1-1.1c1.9,0.7-1.7-2.8,1.4-2.4
			c2.1,0.3,6.9,3.3,11.6,5.5c0.5,0.2,1,0.4,1.5,0.7c0.1,0,0.1,0,0.2,0.1c0,0,0,0,0.1,0c2.6,1.3,5,3,7.2,4.9
			c6.6,5.9,14,13.8,9.9,23.2c-1.2,2.7-2.6,5.4-4.1,8c-2.7,4.6-5.8,8.9-9.4,12.7c-3.8,4-7.1,8.6-11.9,11.3c-6,3.3-6.7,2.6-7.8,3.5
			c-2.9,2.5-4.9,2.7-4.5,1c0,0-6.7,1.9-4.1-1.6c-8.7-0.3-15.5-5.2-18.6-13.4c-1.3-3.5-4-11.8-3.2-21.2c-2.8-0.7,0.3-4.4,0.3-4.4
			c-3.3-2.7,0.1-3.9,1.5-4.5c0-0.1,0-0.1,0.1-0.2C84.5,64.6,81.2,65,81.4,63.4z"/>
		<path class="st3" d="M97.6,71.3c0,0-5.2-2.1-0.5-4c1.2-0.5,4-1.1,1.4-2.1c-2.5-0.9-1-1.9,0.7-2.6c3.3-1.3-0.5-2.5-2-2.9
			c-1.7-0.5-0.2-1.8,4.1-2.1c1.5-0.1,2.4,0.2,3.6-0.1c1.8-0.5-3-2.8,3.2-2.5c1.6,0.1,2.2,0.3,6.6,0c0.1,0,0.1,0,0.2,0
			c0.2,0,0.4,0,0.5,0s0.1,0,0.2,0c6.3-0.3,12.8,2.7,16,5.6c3.8,3.4,7.4,8.7,5.6,14c-4,11.5-13.4,22.5-24.9,22.9
			C100.5,97.9,94.8,87.1,96.4,76l0,0C94.8,74.4,93.8,72.3,97.6,71.3z"/>
		<path class="st4" d="M137.4,74.3c1.3-2.7,0.6-5.2-0.5-7.4c-0.7-1.4,1.3,3.7-5.1,4c-5.2,0.2-12-1.1-15.8,3.1
			c-4.9,5.3-2.6,10.8-0.5,14.7c3.3,6.1-0.1,8.3,1.3,7.9C126.1,93.9,132.9,83.9,137.4,74.3z"/>
		<path class="st0" d="M139.6,82c1-3,1.5-6.6,0.4-9.7c-0.1-0.3-1.6-3.4-1.7-1.7c-0.9,8.7-5.4,7.2-7.1,8.6c-1.5,1.2-1.3,1.9,0.6,1.6
			c-0.6,1.5-5.3,1.9-5.7,3.8c-0.5,2.1,6.2,2.3,1.9,3.6c-7.2,2.1,0.1,3.1-3.2,3.4c-1.6,0.2-4.2,1.1-3.2,3.1s4.3,1.1,5.8,0.5
			c3.7-1.6,7-4.4,9.4-7.8C138,85.7,138.9,83.9,139.6,82z"/>
	</g>
	<g>
		<path class="st1" d="M222.2,84.2c9.8,15,8.6,36.9,6.8,46.1c-2.2,11.1-13.5,45-49.4,44.6s-50.4-34.2-51.3-52.8
			c-0.9-18.6,2-30.4,6-36.7c1.3-2.2-15.9,38.5,16.7,67.8c21.9,19.6,42.9,10.2,52.8,4.1C241.7,134.2,218.7,78.8,222.2,84.2z"/>
		<path class="st0" d="M221.7,83.6c-10.4-14-17.2-15.8-24.8-18.1c-0.3-0.1-0.6-0.2-1-0.3c-0.2-0.1-0.4-0.1-0.6-0.2
			c0,0-3.6-0.5-5.9-3.5c-0.7-0.9-2.4-3.7-3.7-2.4c-0.7,0.7-0.5,3.3-1.3,3.5c-1.5,0.4-2.1-1.1-2.4-2.3c-0.2-1,0.4-2.9-0.3-3.6
			c-0.8-0.9-2.4,0.2-3.1,0.7c-1.4,1-2.6,2.4-3.3,4c-0.1,0.2-0.2,0.4-0.2,0.6c-0.4,1.3-1.8,1.1-1.7-2.7c0-1.7-4.6,1.6-4.1,4.4
			c0.3,1.6-4.2-3.4-6.6,1.5l0,0c-14,2.6-23.6,12.4-27.5,18.3c-4,6.1-7.4,15.8-6.9,35c0.3,15,16.8,51.2,50.5,52.1
			c35.3,1,48.6-34.7,50.1-42.8C230.2,119.7,233.3,99.3,221.7,83.6z"/>
	</g>
	<g>
		<path class="st2" d="M166.2,111.4c-0.2-3.6,1.9-12.8,13-12.8s12.6,8.7,12.9,11.7s1.5,29.5-12.8,29.5
			C166,139.9,166.6,119.7,166.2,111.4z"/>
		
			<ellipse transform="matrix(0.3892 -0.9212 0.9212 0.3892 -9.6326 252.3869)" class="st17" cx="185.5" cy="133.5" rx="3.9" ry="2.2"/>
		
			<ellipse transform="matrix(0.9212 -0.3892 0.3892 0.9212 -38.3265 77.8208)" class="st17" cx="172.9" cy="133.5" rx="2.2" ry="3.9"/>
		<ellipse transform="matrix(0.544 -0.8391 0.8391 0.544 -27.9642 216.8405)" cx="185.5" cy="134.1" rx="3.3" ry="2.1"/>
		<ellipse transform="matrix(0.8391 -0.544 0.544 0.8391 -45.1801 115.6664)" cx="172.9" cy="134.2" rx="2.1" ry="3.3"/>
	</g>
	<path class="st2" d="M166.2,111.4c-0.2-3.6,1.9-12.8,13-12.8s12.6,8.7,12.9,11.7s1.5,29.5-12.8,29.5
		C166,139.9,166.6,119.7,166.2,111.4z"/>
	
		<ellipse transform="matrix(0.3892 -0.9212 0.9212 0.3892 -9.6326 252.3869)" class="st17" cx="185.5" cy="133.5" rx="3.9" ry="2.2"/>
	
		<ellipse transform="matrix(0.9212 -0.3892 0.3892 0.9212 -38.3265 77.8208)" class="st17" cx="172.9" cy="133.5" rx="2.2" ry="3.9"/>
	<ellipse transform="matrix(0.544 -0.8391 0.8391 0.544 -27.9642 216.8405)" cx="185.5" cy="134.1" rx="3.3" ry="2.1"/>
	<ellipse transform="matrix(0.8391 -0.544 0.544 0.8391 -45.1801 115.6664)" cx="172.9" cy="134.2" rx="2.1" ry="3.3"/>
	<g>
		<path class="st3" d="M178.9,165.1c-11.4,0-14.9-9.2-16.3-16c-0.8-4.1-0.5-8.5-0.2-8.7s4.8,5.7,16.8,6.1c9.4,0.3,15.2-4.9,16.7-6.3
			c0.1-0.1,0.3,0.1,0.3,0.3c0.6,2.2,0.8,5.2,0.5,7.8C195.2,158.8,190.3,165.1,178.9,165.1z"/>
		<path class="st19" d="M195,141.9c-0.1,2.1-6.1,11.3-16.1,11.3c-7.7,0-15-8.6-14.9-10.6c0.1-2.1,2.6,4.3,15.2,4
			C191.5,146.2,195.1,139.8,195,141.9z"/>
		<path class="st2" d="M162.4,140.9c-0.2-0.5,0.3-0.7,0.6-0.3c2.7,3,8.6,10.6,16.6,10.5c8.8-0.1,14.6-9.9,16.1-10.8
			c0.5-0.3,0.5,0,0.5,0.4c-0.5,2.3-6.8,14.4-16.6,14.7C170.4,155.6,164.1,144.7,162.4,140.9z"/>
	</g>
	<path class="st2" d="M162.3,140.8c-0.1-0.1-0.1-0.3,0-0.4c0.1-0.1,0.3-0.1,0.4-0.1c2.3,0.9,8.2,4.3,16.5,4.1
		c8.3-0.1,15.1-3.6,16.3-4.3c0.7-0.4,0.8,0.3,0.6,0.7c-1,2-6.7,6.5-16.8,6.6C168.8,147.7,163.5,142.6,162.3,140.8z"/>
	<g>
		<g>
			<path class="st16" d="M212,103.1c-1.6-4.6-5.3-5.5-8.8-4.1c-3.8,1.5-5.5,6.3-4.4,10.1c1.2,4.3,6,6,9.8,4.1
				C212.6,111.3,213.1,106.4,212,103.1z"/>
		</g>
		<g>
			<path class="st2" d="M206.5,102.3c-1,0-1.9,0.2-2.7,0.7c0.8,0.2,1.5,0.7,1.9,1.8c0.5,1.3,0.2,3.2-1.3,4c-1.5,0.7-3.4,0.1-3.9-1.6
				v-0.1c-0.1,0.4-0.2,0.7-0.2,1.1c-0.5,3.4,2.4,6.2,5.7,6c3.4-0.2,5.4-3.5,5.6-6.2C211.9,104.2,209.5,102.3,206.5,102.3z"/>
		</g>
	</g>
	<g>
		<g>
			<g>
				<path class="st16" d="M145.6,103.1c1.6-4.6,5.3-5.5,8.8-4.1c3.8,1.5,5.5,6.3,4.4,10.1c-1.2,4.3-6,6-9.8,4.1
					C145,111.3,144.4,106.4,145.6,103.1z"/>
			</g>
		</g>
		<g>
			<path class="st2" d="M153,102.3c-1,0-1.9,0.2-2.7,0.7c0.8,0.2,1.5,0.7,1.9,1.8c0.5,1.3,0.2,3.2-1.3,4c-1.5,0.7-3.4,0.1-3.9-1.6
				v-0.1c-0.1,0.4-0.2,0.7-0.2,1.1c-0.5,3.4,2.4,6.2,5.7,6c3.4-0.2,5.4-3.5,5.6-6.2C158.4,104.2,156,102.3,153,102.3z"/>
		</g>
	</g>
	<path class="st21" d="M199.6,90.1c5.4-3.9,12.3-3.4,15.7,1.3"/>
	<path class="st21" d="M159.4,90.1c-5.4-3.9-12.3-3.4-15.7,1.3"/>
	<path class="st22" d="M229.4,103.3l-0.3-2l-3.5-3.7c-0.4-1.6-1.3-3.2-3.4-3.6c-4.1-0.9-14.6-1.6-25.4-0.1c-0.8,0.1-2,0.3-2,0.3
		c-1.2,0.2-2.5,0.3-3.9,0.5c-0.7,0.1-10.6,0.5-12,0.5c-1.3,0-10.8-0.3-11.2-0.4c-1.7-0.2-3.3-0.4-4.7-0.6c-0.6-0.1-1.3-0.2-2-0.3
		c-10.8-1.5-21.4-0.8-25.4,0.1c-2,0.5-3,2-3.4,3.7l-2.8,2.6l-0.5,2.8l3-0.3c0,4,0.4,8.9,1.5,11.8c1.4,3.5,3.1,4.1,8,4.9
		c4,0.7,7.3,0.9,10.1,0.9c2.9,0,5.4-0.3,7.8-0.6c4-0.5,5.7-3.1,7.7-6.8c1.5-2.8,3.2-7.1,3.5-10.6c0-0.1,0.1-0.1,0.1-0.2
		c0.4-0.3,0.8-0.7,1.3-1.1c0.7-0.5,1.5-0.9,2.3-1.2c0.7-0.2,1.4-0.4,2.3-0.5h0.1c0.8-0.1,1.5-0.2,2.2-0.2c2.3,0,4.2,0.3,5.9,1.2
		c0.7,0.3,1.5,0.9,2.1,1.4c0.2,0.2,0.4,0.3,0.6,0.4c0,0,0,0.1,0,0.2c0.4,3.5,2.1,7.9,3.6,10.5c2,3.7,3.7,6.3,7.7,6.8
		c4.8,0.6,9.8,1,17.9-0.4c4.9-0.8,6.6-1.4,8-4.9c1.2-2.9,1.5-7.7,1.5-11.7L229.4,103.3z M222.2,102.3c0,1.8,0,7.5-1.3,10.6
		c-1,2.4-1.9,2.8-6.1,3.5c-6.8,1.2-10.2,0.9-14.8,0.3c-2.7-0.3-3.9-1.8-5.8-5.3c-1.9-3.4-3.8-10-3-11.6c0.7-1.4,1.3-1.6,7.1-2.4
		c4.2-0.5,8.1-0.8,11.4-0.8c3.9,0,7.1,0.3,9,0.8C221.9,98.2,222.3,99.1,222.2,102.3z M163.6,111.5c-1.9,3.5-3.1,4.9-5.9,5.3
		c-4.7,0.6-8,0.8-14.9-0.3c-4.2-0.7-5.1-1.1-6.1-3.5c-1.3-3.1-1.3-8.7-1.3-10.6c0-3.3,0.3-4.1,3.5-4.9c1.9-0.4,5-0.8,9-0.8
		c3.4,0,7.3,0.2,11.4,0.8c5.9,0.8,6.4,1,7.1,2.4C167.3,101.4,165.5,108,163.6,111.5z"/>
</g>
</svg>
