<?xml version="1.0" encoding="utf-8"?>
<!-- Generator: Adobe Illustrator 24.0.2, SVG Export Plug-In . SVG Version: 6.00 Build 0)  -->
<svg version="1.1" id="Layer_1" xmlns="http://www.w3.org/2000/svg" xmlns:xlink="http://www.w3.org/1999/xlink" x="0px" y="0px"
	 viewBox="0 0 351.6 428.3" style="enable-background:new 0 0 351.6 428.3;" xml:space="preserve">
<style type="text/css">
	.st0{fill:#818984;}
	.st1{fill:#71766F;}
	.st2{fill:#423C36;}
	.st3{fill:#E5E0D7;}
	.st4{fill:#D2C9BF;}
	.st5{display:none;}
	.st6{display:inline;}
	.st7{fill:#F0F0F0;}
	.st8{fill:#CBC8C8;}
	.st9{fill:#E74E4E;}
	.st10{fill:#E1E0DF;}
	.st11{fill:#ADAAAA;}
	.st12{fill:#DBD9DA;}
	.st13{fill:#7FB6E4;}
	.st14{fill:#D9DAD8;}
	.st15{fill:#CDCAC3;}
	.st16{fill:#FFFFFF;}
	.st17{fill:#A48A7B;}
	.st18{fill:none;stroke:#423C36;stroke-width:0.1249;stroke-linecap:round;stroke-linejoin:round;stroke-miterlimit:10;}
	.st19{fill:#E0B7AD;}
	.st20{fill:#414999;stroke:#414999;stroke-width:4.926948e-02;stroke-miterlimit:10;}
	.st21{fill:none;stroke:#423C36;stroke-width:2.5357;stroke-linecap:round;stroke-linejoin:round;stroke-miterlimit:10;}
	.st22{fill:#414999;}
</style>
<g id="Body_5">
	<g>
		<g>
			<path class="st0" d="M237.4,261.6c0,6.4,1.3,104.4-8.6,111.8s-20.6,10.2-23.7,4c-3.1-6.3-19.4-56.2-15.7-62
				c1.3-2,13.8-1.1,23.8-6.9C232.5,297.3,237.4,246.1,237.4,261.6z"/>
			<path class="st0" d="M232,367.1c6.6,2,15.5,4.6,17.1,9.3c1,2.9,5.1,8.7-1.8,10.1c-7,1.4-27.1,3.9-39.8-6.4
				C197.6,372,232,367.1,232,367.1z"/>
		</g>
		<g>
			<path class="st1" d="M189.8,326.7c-0.6,9.1,12.2,44.3,15.3,50.5c0.5,1,0.3,0.8,1.9,2.4c10.7,10.6,37.2,9.9,43.1,5.7
				c4-2.9,1.4-9.3-2.8-12.3c-4.1-2.9-15.3-6-15.3-6c5.9-22.5,5.4-87,5.4-92.6c0,0-3.2,25.5-5,46.6s-1.8,40.9-4.1,46.9
				c-0.3,0.9,11,3.4,15.7,7.1c3.5,2.7,1.4,8.3-6,9c-6.8,0.7-20.2,1.1-28.4-7c-2-2-8.2-30.5-13.9-45.7
				C193.6,325.6,189.8,326.7,189.8,326.7z"/>
			<g>
				<path class="st2" d="M248.2,377.6c-0.8-0.2-0.6-2.6,1.1-2.6c0.9,0,3.8,2.2,3.5,3.2c-0.2,0.8-1.7,0.2-2.3,0
					C249.5,377.9,249.3,377.9,248.2,377.6z"/>
				<path class="st2" d="M247,383.3c-1-0.2-0.8-3.2,1.3-3.3c1.1,0,4.9,2.6,4.5,3.9c-0.3,1-2.2,0.3-2.9,0.1
					C248.6,383.6,248.4,383.6,247,383.3z"/>
				<path class="st2" d="M243.2,387.3c-1-0.3-0.6-3.3,1.6-3.1c1.2,0.1,4.8,3.1,4.3,4.4c-0.4,1-2.3,0.1-3-0.2
					C244.8,387.8,244.5,387.7,243.2,387.3z"/>
			</g>
		</g>
	</g>
	<g>
		<g>
			<path class="st0" d="M117.7,261.6c0,6.4-1.3,104.4,8.6,111.8s20.6,10.2,23.7,4c3.1-6.3,19.4-56.2,15.7-62
				c-1.3-2-13.8-1.1-23.8-6.9C122.6,297.3,117.7,246.1,117.7,261.6z"/>
			<path class="st0" d="M123.1,367.1c-6.6,2-15.5,4.6-17.1,9.3c-1,2.9-5.1,8.7,1.8,10.1c7,1.4,27.1,3.9,39.8-6.4
				C157.5,372,123.1,367.1,123.1,367.1z"/>
		</g>
		<g>
			<path class="st1" d="M165.3,326.7c0.6,9.1-12.2,44.3-15.3,50.5c-0.5,1-0.3,0.8-1.9,2.4c-10.7,10.6-37.2,9.9-43.1,5.7
				c-4-2.9-1.4-9.3,2.8-12.3c4.1-2.9,15.3-6,15.3-6c-5.9-22.5-5.4-87-5.4-92.6c0,0,3.2,25.5,5,46.6s1.8,40.9,4.1,46.9
				c0.3,0.9-11,3.4-15.7,7.1c-3.5,2.7-1.4,8.3,6,9c6.8,0.7,20.2,1.1,28.4-7c1.9-1.9,9.9-35.7,14.2-49.8L165.3,326.7z"/>
			<g>
				<path class="st2" d="M106.9,377.6c0.8-0.2,0.6-2.6-1.1-2.6c-0.9,0-3.8,2.2-3.5,3.2c0.2,0.8,1.7,0.2,2.3,0
					C105.7,377.9,105.8,377.9,106.9,377.6z"/>
				<path class="st2" d="M108.1,383.3c1-0.2,0.8-3.2-1.3-3.3c-1.1,0-4.9,2.6-4.5,3.9c0.3,1,2.2,0.3,2.9,0.1
					C106.5,383.6,106.8,383.6,108.1,383.3z"/>
				<path class="st2" d="M111.9,387.3c1-0.3,0.6-3.3-1.6-3.1c-1.2,0.1-4.8,3.1-4.3,4.4c0.4,1,2.3,0.1,3-0.2
					C110.3,387.8,110.6,387.7,111.9,387.3z"/>
			</g>
		</g>
	</g>
	<g>
		<path class="st0" d="M131.3,159.7c4.3-2.2,10.9-4.8,18-7.2c14.8-4.9,47.3-5.8,62.6,1c6.6,2.9,13.4,6.6,19,11.2
			c8.7,7.2,10.4,18,10.7,28.7c0.4,14.6-1.3,29.3-2.6,43.8c-2.6,28.9,5.1,58.5-19.1,78.6c-10.1,8.4-18.6,13.2-42.6,14.4
			c-11.8,0.6-26.4,1.1-44.7-13.9c-20.7-17-14.8-59.9-12.7-84.4C123.3,191.6,110.3,170.7,131.3,159.7z"/>
		<path class="st3" d="M146,153.5c7.6-4.9,46.1-8.7,65.8-0.1c2.1,0.9-1.8,12.3,8.4,74.8c3.3,20.1-0.2,79.4-46.6,78.1
			c-33.2-1-45.5-50.8-38.5-81.2C148.3,168.7,142.7,155.7,146,153.5z"/>
		<path class="st4" d="M212.7,157.9c-0.8,8.8-7.8,22-35.4,22.8c-25.2,0.7-32.6-18.9-32.5-21.2c0.1-1.4,0-5.3,1.3-5.9
			c4.1-1.7,8.9-3,12.8-3.7c15.4-2.6,24-1.8,33-1c8.1,0.7,18.7,3.8,20.2,4.7C212.9,154.1,212.7,157.1,212.7,157.9z"/>
		<path class="st1" d="M126.9,310.1c13.6,17.9,32.4,21.6,52.3,21c12.4-0.3,22.4-2.5,30-6.6c5.4-3,16.4-12.1,16.4-14.5
			c0,0-20.1,16.4-47.7,16.2C142.2,325.9,126.9,310.1,126.9,310.1z"/>
	</g>
	<g>
		<path class="st0" d="M122.9,210.2c5.5-9.1,7.3-12,15.2-29.2c5.4-11.8,6.6-24.3,2.5-25.4c0,0-19.9,6.5-32.6,24.2
			c-8.2,11.4-12.7,23.3-14,29.1C89.5,229.2,116.6,220.7,122.9,210.2z"/>
		<g>
			<g>
				<path class="st0" d="M92.7,215.6c-2.4,10.6-4.8,44.6-4.9,46.2c-0.4,3.7-3.8,5.8-6.9,10.1c-3,4-4.1,6.1-3.7,7.6
					c0.6,2.2,5.7,0,10.5-5.5c0,0-4.8,10.4-1.6,12.2c4.6,2.7,12.3-10.6,12.5-11.6c0,0-2.9,10.6,0.5,11.1c4.3,0.6,9-10.3,9.2-13.3
					c0,0,1.8,4.2,4.5,4.5c3.4,0.4,3.9-7.9-0.3-13.4c-3.5-4.6-2.4-11,0.5-19.2c2.5-7.1,5.3-16.6,9.7-27.3
					c10.1-24.9,11.7-20.8-2.5-22.9S98.8,189.2,92.7,215.6z"/>
				<path class="st1" d="M87.7,274c-4.8,5.4-9.9,7.7-10.5,5.5c-0.4-1.5,0.7-3.5,3.7-7.6c3.1-4.3,6.5-6.4,6.9-10.1
					c0.2-1.6,2.1-35.2,4.3-45.9c1-4.7,1.4-7.4,2.2-9.8c1.9-6.7,6.6-16.8,13.7-26.3c9.3-12.6,19-17.3,19-17.3s-2.7,1.9-6.1,5.4
					c-2.6,2.7-4.2,4.7-6,6.8c-7.4,9.1-9.7,18.3-11.7,23.2c-3.7,8.6-5.9,15.9-7.9,36.2c-1,10-4.5,25-5.3,29c-0.6,3.1-5.4,6.4-7.1,8.5
					c-0.7,0.8-1.4,1.5-1.7,2c-2.6,3.5,0.5,4.8,2.9,3C84.9,276,85.8,275.4,87.7,274z"/>
				<path class="st1" d="M133,193.3c-4,8.9-1.2,3.3-3.3,7.5c-1.2,3.1-3.6,8.2-7.1,16.7c-4.4,10.6-7.2,20.1-9.7,27
					c-2.9,8.2-5.1,15.6-0.5,19c0,0-9.2-6.3-6-16.7c4.8-16.1,11.1-28.9,15.3-37.9C125.2,201.5,135.4,188,133,193.3z"/>
				<path class="st1" d="M87.7,274c0,0-4.9,10.4-1.7,12.2c4.6,2.7,12.3-10.6,12.5-11.6c0,0-2.9,10.6,0.5,11.1
					c4.3,0.6,9-10.3,9.2-13.3c0,0,1.8,4.2,4.5,4.5c3.4,0.4,4.3-8-0.3-13.4c0,0,2.7,7,0.7,9.5c-1.6,1.9-4.8-3.9-5.6-5.5
					c-0.8-1.6-2.7,14.7-7.1,13.7c-2.5-0.6-0.6-9.4-0.6-9.4s-5.1,5.7-8.4,9.8c-0.9,1.1-2.1,1.4-2.9,1.1c-1.4-0.4-2.1-1.3-2.1-2.9
					C86.4,277.4,87.7,274,87.7,274z"/>
				<path class="st2" d="M89,285.3c0.5-0.9-1.9-2.7-3.3-1.2c-0.8,0.8-1.2,5.4,0,6c0.9,0.4,1.7-1.4,2-2.1
					C88.2,286.6,88.4,286.5,89,285.3z"/>
				<path class="st2" d="M101.6,283.9c0.4-0.9-2.1-2.6-3.4-0.9c-0.7,0.9-0.9,5.4,0.4,5.9c1,0.4,1.5-1.5,1.8-2.2
					C100.9,285.3,101,285.1,101.6,283.9z"/>
				<path class="st2" d="M111.4,275c-0.2-1,2.5-2.2,3.5-0.3c0.5,1-0.2,5.5-1.5,5.8c-1,0.2-1.2-1.8-1.4-2.5
					C111.8,276.5,111.7,276.3,111.4,275z"/>
			</g>
			<path class="st2" d="M80.4,279.5c0.9-0.6-0.7-2.8-2.4-2c-0.9,0.4-2.2,4.2-1.6,4.7c0.5,0.4,1,0.2,2-1
				C79,280.3,79.4,280.2,80.4,279.5z"/>
		</g>
	</g>
	<g>
		<path class="st0" d="M242.4,203c-8.2-4.8-11.8-7.7-17.5-16.5c-7.1-10.9-13.1-32.7-11.9-32.4c9.1,1.8,17.8,2,36.7,15.9
			c11.3,8.3,26.5,16.1,28.5,19.2c7.5,11.2,12.9,31.7,1.1,32.7C269,222.5,246.2,205.1,242.4,203z"/>
		<path class="st0" d="M305.2,157.5c0.4,5.8-3.5,10.7-10.2,16.3c-5.7,4.8-13,11.6-22.3,18.6c-21.4,16.3-20.7,12-9.5,21
			c11.2,9,15.9,15,34.5-4.6c7.5-7.9,26.8-36,27.8-37.3c0.8-1.1,2.6-2.7,2.9-3.9l-2.8-3.4l-2.9-9.2c0,0,9.2-8.8,6.5-11
			c-3.4-2.7-14.1,5.6-16,8c-0.1,0.1,0.7-0.1,0,0C307.7,152.5,305.1,155.6,305.2,157.5z"/>
		<path class="st1" d="M327.9,169.3c-1,0.5-1.7,1.3-2.4,2.2c-1,1.3-16.5,27-26.2,36.9c-4.6,4.7-8,7.7-11.4,10.6
			c-3.7,3.2-7.8,6-13.2,4c-5.4-2-31.5-19.1-35.9-22.2c-4.5-3.2,26.9,13.4,36.7,17.3c3.3,1.3,7.9-0.3,12.6-5.2
			c6.3-6.6,10.4-9.8,20-22.9c6-8.1,13.7-17.7,16.3-20.7c0.8-0.9,2.1-1.5,3.5-2V169.3z"/>
		<path class="st1" d="M259.9,180.1c-6.4-4.8-12.4-9.4-15.5-11.5c-8-5.5-13.5-9.7-12.7-9.6c1.9,0.3,21.1,11.1,30.1,17.5
			c4.6,3.3,10.1,7.6,13.1,9.7l1.7,1.6c9.2-6.9,12.8-9.4,18.5-14.2c6.7-5.6,9.9-11,10.2-16.6c0,0,3.5,9.5-4.5,16.9
			c-12.3,11.4-16.4,13.4-24.6,18.9C276.2,192.8,268.5,186.6,259.9,180.1z"/>
		<path class="st1" d="M322.8,155c-2.8,3-3.7,2.5-3.2,1.8c0,0,8-7.8,6.2-9.5c-1.8-1.8-9.5,5.2-12.5,8.2c0,0-3.8-0.1,0.1-3.4
			c1.7-2.5,12.6-10.7,16-8C332,146.2,322.8,155,322.8,155"/>
		<g>
			<path class="st2" d="M310.8,166.2c-0.2-1-3.1-1.1-3.4,1c-0.1,1.1,2.2,5.1,3.5,4.8c1-0.2,0.5-2.1,0.3-2.8
				C311,167.8,311,167.5,310.8,166.2z"/>
			<path class="st0" d="M312.8,162.6c0,0-0.2,4.6-2.6,5.9c-3,1.6-6.8-6-4.5-12.6C305.9,155.1,313,155.5,312.8,162.6z"/>
			<path class="st1" d="M312.7,163.2c0,0,0.1,4.3-2.3,5.6c-2.9,1.6-7.3-6.9-5.1-12.3c0.1-0.2,0.2-0.5,0.3-0.7c0,0,0.2,7,2.8,9.1
				c1.3,1,3-0.1,3.5-1.3c0.2-0.7,0.3-1.1,0.5-1.8L312.7,163.2z"/>
		</g>
		<path class="st2" d="M326.1,144.3c-0.8,0.6,0.4,3.3,2.5,2.5c1-0.4,3.5-4.3,2.7-5.3c-0.6-0.8-2.1,0.5-2.7,1
			C327.5,143.4,327.2,143.5,326.1,144.3z"/>
		<g>
			<g>
				<path class="st2" d="M314.7,164.8c0.8-0.6,3,1.4,1.6,3.1c-0.7,0.9-5.1,2-5.9,0.9c-0.6-0.9,1.2-1.8,1.8-2.2
					C313.4,165.8,313.6,165.6,314.7,164.8z"/>
				<path class="st0" d="M323.5,154c-1-0.1-13,9.5-9.4,14c2.3,2.8,11.8-3.5,11.8-3.5C327.2,161.5,325,154.1,323.5,154z"/>
			</g>
			<path class="st1" d="M323.5,154c-0.9,1,0.3,3.6-0.8,2.9c-1-0.6-3.3,2.3-4.5,3.8c-1.1,1.3-3.3,3.1-2.2,5.3
				c0.8,1.6,3.3-0.1,4.7-0.9c0.9-0.5,3.3-1.6,3.4-4.8c0.1-2.4,1.9,4.2,1.9,4.2l0,0c0,0-10,6.4-12,3.3
				C310.9,162.9,322.1,154,323.5,154L323.5,154z"/>
			<g>
				<path class="st2" d="M317.4,168.7c0.9-0.5,2.2,1.8,0.8,3c-0.7,0.6-4.7,0.3-5-0.4c-0.2-0.6,0.2-1,1.7-1.4
					C316,169.6,316.4,169.3,317.4,168.7z"/>
				<path class="st0" d="M325.7,164.1c-6.9,2.4-11.1,5.9-9.3,7.3c1.2,1,3.5,0.8,8.4-0.3c3.3-0.7,2.6-1.3,3.1-1.9
					C328.2,168.9,327.6,163.5,325.7,164.1z"/>
				<path class="st1" d="M327.9,169.3c-1.2,0.6-2.5,1.2-4,1.5c-2.6,0.6-3.4,1.1-5.4,0.9c-2.1-0.2-1.5-2.9,1.5-4.5
					c0.6-0.3,1.4-0.7,2.3-1.2s2-1,3-1.6c-0.1-0.7-2.5,0.5-3.6,0.9c-4.7,2.1-7.2,5.2-5.7,6.4c1.2,1,3.3,1.1,7.9-0.1
					c1.3-0.4,1.6-0.3,2.4-0.7C327.8,170.1,327.9,169.3,327.9,169.3z"/>
			</g>
			<path class="st1" d="M323.7,153.7c1.5,0.5,2.5,1.4,3,4c0.5,2.7-0.3,5.3-0.6,6.4c0,0,2-0.1,2.5,2.4c0.4,2.1-0.3,3.3-1.5,4
				c-0.5,0.3-4.5,0.6-4.8,0.7s3.1-0.9,3.7-2.5c0.4-1.4-0.2-2.6-0.8-2.9c-0.9-0.4-3.1,0-4.5,0.9c-1.9,1.2-1.2-0.4-0.4-0.8
				c2.5-1.3,3.9-2.7,3.9-4c0.1-2.7-1.6-7.2-3.7-5c-2.1,2.1-2.9,2.5-2.9,2.5S322.3,153.3,323.7,153.7z"/>
		</g>
		<path class="st1" d="M312.5,165.5c0.5-1.5,0.6-3,0.7-6.5s0.1-3.6,0.1-3.6c0,2,0.1-3.4,0.1-3.4s-3.7,0.2-6.4,2.3
			c-1.8,1.5-2.1,4.1-2.1,4.7l1.7,2.5c0,0-0.6-2.6,0.6-4.8c1-1.9,3.5-2.1,4.1-1.2c0.7,1,1.4,8.6-1.3,9.8
			C308.5,165.9,311.6,167.8,312.5,165.5z"/>
	</g>
</g>
<g id="KubeCon_Badge" class="st5">
	<g class="st6">
		<g id="lanyard_4_">
			<rect id="backplate_5_" x="162.1" y="217" class="st7" width="29.8" height="17.4"/>
			<path id="backplate_stroke_donker_5_" class="st8" d="M163,217.9v15.6h28v-15.6H163z M190.7,233.2h-27.3v-15h11.5v0.9h4.3v-0.9
				h11.6v15H190.7z"/>
			<path id="lint_R_4_" class="st9" d="M177.9,213.2h-1.8c0,0-35.1-57.1-34.3-58.6c0.6-1.2,3.5-1.3,3.5-1.3L177.9,213.2z"/>
			<path id="lint_L_4_" class="st9" d="M176.1,213.2h1.8l39-58.3c0,0-1.7-2.2-4.1-1.4C212.6,154.4,176.1,213.2,176.1,213.2z"/>
			<path id="connector_plate_5_" class="st10" d="M176.3,215.5v3.1h1.5v-3.1H176.3z M177,216.7c-0.2,0-0.4-0.2-0.4-0.4
				s0.2-0.4,0.4-0.4s0.4,0.2,0.4,0.4C177.3,216.5,177.2,216.7,177,216.7z"/>
			<path id="connector_ring_5_" class="st11" d="M177,214.1c-0.7,0-1.2,0.5-1.2,1.2c0,0.4,0.2,0.7,0.5,0.9v-0.5
				c-0.1-0.1-0.1-0.3-0.1-0.5c0-0.5,0.4-0.9,0.9-0.9s0.9,0.4,0.9,0.9s-0.4,0.9-0.9,0.9c0,0-0.2,0-0.3,0c0,0.1-0.1,0.1-0.1,0.3
				c0.1,0.1,0.4,0.1,0.4,0.1c0.7,0,1.2-0.5,1.2-1.2C178.2,214.6,177.6,214.1,177,214.1z"/>
			<polygon id="connector_top_5_" class="st11" points="177.7,214.4 176.3,214.4 176.1,213.2 177.9,213.2 			"/>
			<rect id="tekst_01_5_" x="175.5" y="222.8" class="st12" width="5.9" height="1.1"/>
			<rect id="tekst_02_5_" x="175.5" y="225.8" class="st12" width="13" height="1.1"/>
			<rect id="tekst_03_5_" x="175.5" y="228.7" class="st12" width="13" height="1.1"/>
			<rect id="foto_back_4_" x="164.5" y="221.6" class="st13" width="9.5" height="9.5"/>
		</g>
		<g>
			<polygon class="st0" points="171.5,228.2 173.1,231 165.3,231 167.1,227.8 			"/>
			<path class="st14" d="M167.3,228.5l-0.7,2.5h5.1l-0.5-2.5C171.2,228.6,168.4,229.6,167.3,228.5z"/>
		</g>
		<g>
			<path class="st1" d="M168.4,224.2c0.5-0.1,1.2-0.1,1.7,0.1c0.4,0.1,0.8,0.1,1.3,0.8s0.4,1.9,0.3,2.3c-0.1,0.5-0.7,2.2-2.4,2.2
				c-1.8,0-2.5-1.7-2.5-2.6c0-0.9,0.1-1.5,0.3-1.8S167.7,224.3,168.4,224.2z"/>
			<path class="st0" d="M168.5,224.1c0.5-0.1,1.3-0.1,1.6,0c0.4,0.1,0.8,0.2,1.2,0.9s0.4,1.8,0.3,2.2c-0.1,0.4-0.7,2.1-2.4,2.1
				s-2.4-1.7-2.5-2.6c0-0.9,0.1-1.4,0.3-1.7C167.3,224.7,167.8,224.2,168.5,224.1z"/>
			<path class="st2" d="M168.6,226.4c0-0.2,0.1-0.6,0.6-0.6s0.6,0.4,0.6,0.6c0,0.1,0.1,1.5-0.6,1.5
				C168.6,227.8,168.6,226.8,168.6,226.4z"/>
			<g>
				<path class="st0" d="M170,224.1c0,0-0.2,0-0.3-0.1c0,0-0.1-0.2-0.2-0.1c0,0,0,0.2-0.1,0.2s-0.1-0.1-0.1-0.2
					c0.1-0.3-0.3,0-0.3,0.2c0,0.1-0.1,0.1-0.1-0.1c0-0.1-0.2,0.1-0.2,0.2c0,0.1-0.2-0.2-0.3,0C168.4,224.2,170.7,224.3,170,224.1z"
					/>
			</g>
			<g>
				<path class="st0" d="M171.2,223.4c0.3-0.3,0.8-0.5,1.3-0.4c0.3,0,0.5,0.2,0.8,0.3c0.9,0.8,0.6,1.9,0.5,2.2
					c-0.2,0.4-0.5,0.6-0.9,0.7c0.1,0.2-0.2,0.1-0.2,0.1c0,0.1-0.1,0.1-0.2,0c-0.1,0-0.1,0-0.4-0.2c-0.2-0.1-0.4-0.4-0.6-0.6
					c-0.2-0.2-0.3-0.4-0.5-0.6c-0.1-0.1-0.1-0.3-0.2-0.4C170.5,224.1,170.9,223.7,171.2,223.4z"/>
				<path class="st0" d="M172.9,223.3c0.1,0.1,0.1-0.1,0.2,0c0.1,0.1,0.2,0.1,0.3,0.2c0.3,0.2,0.4,0.1,0.4,0.2
					c0,0.1-0.2,0.1-0.2,0.1c-0.1,0,0.3,0.1,0.3,0.2c0,0.1-0.2,0-0.2,0s0.3,0.1,0.1,0.2c0,0,0.2,0.2,0,0.2
					C173.8,224.6,172.7,223.2,172.9,223.3z"/>
				<path class="st14" d="M171.2,224.6c-0.1-0.3,0.1-0.5,0.3-0.7s0.8-0.4,1.1-0.2c0.9,0.6,0.8,2-0.2,2
					C171.9,225.7,171.4,225.2,171.2,224.6z"/>
				<path class="st15" d="M171.2,224.6c-0.1-0.1,0-0.3,0-0.4c0-0.1-0.1,0.2,0.3,0.2c0.3,0,0.6-0.1,0.8,0.2s0.1,0.5,0,0.7
					c-0.2,0.3,0,0.4-0.1,0.4C171.8,225.6,171.4,225.1,171.2,224.6z"/>
				<path class="st0" d="M171.2,225.2c0.3,0.3,0.3,0.3,0.3,0.3c0.4,0.3,0.6-0.1,0.3-0.1c-0.2,0,0.2-0.1-0.2-0.2
					c-0.2-0.1,0.1-0.1,0.1-0.2c0-0.1-0.3-0.1-0.3-0.2c0.1,0,0.1,0,0-0.1s-0.3,0-0.4-0.4C171.1,224.3,170.9,224.7,171.2,225.2z"/>
				<path class="st0" d="M171.9,223.3c0.4,0,0.7,0,0.7-0.1c0.4-0.2,0.1-0.3,0-0.2c-0.2,0.1,0.3-0.3-0.3-0.1c-0.1,0,0.1-0.1-0.1-0.1
					c-0.1,0-0.4,0.2-0.7,0.3C171.4,223.2,171.6,223.3,171.9,223.3z"/>
				<path class="st14" d="M172.6,224.5c0.1,0.1,0.4,0.1,0.6,0.2c0.1-0.1,0.1-0.2,0-0.2c0,0,0.3-0.1,0-0.2c-0.1,0-0.2-0.1-0.1-0.1
					c0.1,0,0-0.1,0-0.1c-0.2-0.1,0-0.1,0.1-0.1s0-0.1-0.2-0.1c-0.1,0-0.1,0-0.2,0c-0.1,0,0.1-0.1-0.2-0.1c-0.1,0-0.1,0-0.4,0
					c-0.2,0-0.2,0.4-0.4,0.5C171.8,224.2,172.3,224.2,172.6,224.5z"/>
			</g>
			<g>
				<path class="st0" d="M167.3,223.4c-0.3-0.3-0.8-0.5-1.3-0.4c-0.3,0-0.5,0.2-0.8,0.3c-0.9,0.8-0.6,1.9-0.5,2.2
					c0.2,0.4,0.5,0.6,0.9,0.7c-0.1,0.2,0.2,0.1,0.2,0.1c0,0.1,0.1,0.1,0.2,0c0.1,0,0.1,0,0.4-0.2c0.2-0.1,0.4-0.4,0.6-0.6
					c0.2-0.2,0.3-0.4,0.5-0.6c0.1-0.1,0.1-0.3,0.2-0.4C167.9,224.1,167.6,223.7,167.3,223.4z"/>
				<path class="st0" d="M165.5,223.3c-0.1,0.1-0.1-0.1-0.2,0c-0.1,0.1-0.2,0.1-0.3,0.2c-0.3,0.2-0.4,0.1-0.4,0.2
					c0,0.1,0.2,0.1,0.2,0.1c0.1,0-0.3,0.1-0.3,0.2c0,0.1,0.2,0,0.2,0s-0.3,0.1-0.1,0.2c0,0-0.2,0.2,0,0.2
					C164.6,224.6,165.7,223.2,165.5,223.3z"/>
				<path class="st14" d="M167.2,224.6c0.1-0.3-0.1-0.5-0.3-0.7s-0.8-0.4-1.1-0.2c-0.9,0.6-0.8,2,0.2,2
					C166.6,225.7,167.1,225.2,167.2,224.6z"/>
				<path class="st15" d="M167.2,224.6c0.1-0.1,0-0.3,0-0.4c0-0.1,0.1,0.2-0.3,0.2c-0.3,0-0.6-0.1-0.8,0.2s-0.1,0.5,0,0.7
					c0.2,0.3,0,0.4,0.1,0.4C166.7,225.6,167,225.1,167.2,224.6z"/>
				<path class="st0" d="M167.3,224.4c0,0.4-0.3,0.4-0.4,0.4c-0.1,0.1-0.1,0.1,0,0.1c0,0.1-0.3,0.1-0.3,0.2c0,0.1,0.3,0.1,0.1,0.2
					c-0.4,0.1,0,0.2-0.2,0.2c-0.3,0-0.1,0.4,0.3,0.1c0,0,0.1,0,0.3-0.3C167.6,224.7,167.3,224.3,167.3,224.4z"/>
				<path class="st0" d="M166.9,223.2c-0.3-0.1-0.5-0.3-0.7-0.3c-0.1,0,0,0.2-0.1,0.1c-0.6-0.2-0.1,0.1-0.3,0.1
					c-0.2-0.1-0.5,0,0,0.2c0,0,0.4,0,0.7,0.1C166.8,223.3,167,223.2,166.9,223.2z"/>
				<path class="st14" d="M166.5,224.1c-0.2-0.1-0.1-0.5-0.4-0.5c-0.3,0-0.3,0-0.4,0c-0.3,0-0.1,0.1-0.2,0.1c-0.1,0-0.1,0-0.2,0
					c-0.2,0-0.3,0.1-0.2,0.1s0.3,0.1,0.1,0.1c-0.1,0-0.2,0.1,0,0.1c0.1,0,0,0.1-0.1,0.1c-0.2,0.1,0,0.2,0,0.2
					c-0.2,0.1-0.1,0.2,0,0.2c0.3,0,0.5-0.1,0.6-0.2C166.1,224.2,166.6,224.2,166.5,224.1z"/>
			</g>
			<g>
				<g>
					<path class="st16" d="M170.9,226.1c0-0.2-0.2-0.3-0.4-0.3s-0.3,0.2-0.3,0.4s0.2,0.4,0.4,0.3
						C170.8,226.5,170.9,226.3,170.9,226.1z"/>
				</g>
				<g>
					<path class="st2" d="M170.6,226h-0.1l0.1,0.1c0,0.1,0,0.2-0.1,0.2s-0.2,0-0.2-0.1l0,0c0,0,0,0,0,0.1c-0.1,0.2,0,0.3,0.2,0.4
						c0.2,0,0.3-0.1,0.3-0.2C170.9,226.1,170.8,226,170.6,226z"/>
				</g>
			</g>
			
				<ellipse transform="matrix(0.3892 -0.9212 0.9212 0.3892 -105.9467 295.1427)" class="st17" cx="169.6" cy="227.5" rx="0.2" ry="0.1"/>
			
				<ellipse transform="matrix(0.9212 -0.3892 0.3892 0.9212 -75.2298 83.6748)" class="st17" cx="168.9" cy="227.5" rx="0.1" ry="0.2"/>
			<ellipse transform="matrix(0.544 -0.8391 0.8391 0.544 -113.5591 245.997)" cx="169.5" cy="227.5" rx="0.2" ry="0.1"/>
			<ellipse transform="matrix(0.8391 -0.544 0.544 0.8391 -96.5978 128.4846)" cx="168.9" cy="227.5" rx="0.1" ry="0.2"/>
			<path class="st18" d="M170.3,225.4c0.3-0.2,0.6-0.2,0.8,0.1"/>
			<path class="st18" d="M168.3,225.4c-0.3-0.2-0.6-0.2-0.8,0.1"/>
			<g>
				<g>
					<path class="st16" d="M167.6,226.1c0-0.2,0.2-0.3,0.4-0.3s0.3,0.2,0.3,0.4s-0.2,0.4-0.4,0.3
						C167.6,226.5,167.5,226.3,167.6,226.1z"/>
				</g>
				<g>
					<path class="st2" d="M167.8,226h0.1l-0.1,0.1c0,0.1,0,0.2,0.1,0.2s0.2,0,0.2-0.1l0,0c0,0,0,0,0,0.1c0.1,0.2,0,0.3-0.2,0.4
						c-0.2,0-0.3-0.1-0.3-0.2C167.6,226.1,167.7,226,167.8,226z"/>
				</g>
			</g>
			<g>
				<path class="st14" d="M169.2,229c-0.5,0-0.7-0.4-0.8-0.7c0-0.2,0-0.4,0-0.4s0.2,0.3,0.8,0.3c0.5,0,0.8-0.3,0.8-0.3s0,0.2,0,0.4
					C170,228.7,169.6,229,169.2,229z"/>
				<path class="st19" d="M170,227.9c0,0.1-0.4,0.5-0.8,0.5c-0.3,0-0.7-0.3-0.7-0.4c0-0.1,0.3,0.2,0.6,0.2
					C169.8,228.1,170,227.8,170,227.9z"/>
				<path class="st2" d="M168.4,227.9C168.4,227.9,168.4,227.8,168.4,227.9c0.1,0.1,0.4,0.5,0.8,0.5c0.4,0,0.8-0.5,0.8-0.5
					c0.1,0-0.3,0.6-0.8,0.6C168.8,228.5,168.5,228,168.4,227.9z"/>
				<path class="st2" d="M168.4,227.9C168.4,227.9,168.4,227.8,168.4,227.9c0.1,0,0.4,0.2,0.8,0.2c0.4,0,0.7-0.2,0.8-0.3
					c0.1,0-0.2,0.4-0.8,0.4C168.7,228.2,168.5,227.9,168.4,227.9z"/>
			</g>
			<g>
				<path class="st20" d="M171.5,225.7L171.5,225.7v0.2h0.2v-0.1L171.5,225.7z"/>
				<path class="st20" d="M167,225.7L167,225.7c0.1,0,0,0.3,0,0.3v-0.1h-0.2v-0.1L167,225.7z"/>
				<path class="st20" d="M171.4,226.6c-0.1,0.2-0.1,0.2-0.4,0.2c-0.4,0.1-0.6,0.1-0.9,0c-0.2,0-0.3-0.1-0.3-0.3
					c-0.1-0.1-0.2-0.3-0.2-0.5l0,0l-0.1-0.1c-0.1,0-0.2-0.1-0.3-0.1h-0.1H169c0,0-0.1,0-0.1,0.1c0,0-0.1,0-0.1,0.1l0,0
					c0,0.2-0.1,0.4-0.2,0.5c-0.1,0.2-0.2,0.3-0.3,0.3c-0.3,0-0.5,0-0.9,0c-0.2,0-0.3-0.1-0.4-0.2c-0.1-0.2-0.1-0.5-0.1-0.6l0,0
					c0-0.1,0-0.3,0.2-0.3s0.7-0.1,1.2,0h0.1c0.1,0,0.2,0,0.2,0s0.5,0,0.6,0s0.6,0,0.6,0c0.1,0,0.1,0,0.2,0h0.1c0.5-0.1,1,0,1.2,0
					c0.1,0,0.2,0.2,0.2,0.3c0,0,0,0,0,0.1C171.5,226.1,171.5,226.4,171.4,226.6z M169.9,226.4c0.1,0.2,0.2,0.3,0.3,0.3
					c0.2,0,0.4,0,0.7,0c0.2,0,0.3-0.1,0.3-0.2c0.1-0.1,0.1-0.4,0.1-0.5c0-0.2,0-0.2-0.2-0.3s-0.6-0.1-1,0c-0.3,0-0.3,0-0.4,0.1
					C169.8,225.9,169.9,226.3,169.9,226.4z M168.7,225.8c0-0.1-0.1-0.1-0.4-0.1c-0.5-0.1-0.8,0-1,0s-0.2,0.1-0.2,0.3
					c0,0.1,0,0.4,0.1,0.5s0.1,0.2,0.3,0.2c0.3,0.1,0.5,0,0.7,0s0.2-0.1,0.3-0.3C168.6,226.3,168.7,225.9,168.7,225.8z"/>
			</g>
		</g>
	</g>
</g>
<g id="Head_7_tilt_right__Big_smile">
	<g>
		<g>
			<path class="st0" d="M103.9,34.3c0.9-2.1,8.7-2.4,7.7-2.6c-1.2-0.2-3.7-1.8-3.6-3c0.2-2.6,2.6-0.5,9.4-2.3
				c1.9-0.5,4.7-1.2,6.5-1.8h0.1c2.6-0.9,5.3-1.4,8-1.6c-1.2-2.7,2.7-2.3,5.1-0.4c2.6,2.1-4.4-7.1,6.1,0.8c1.6,1.2-0.8-3.2,2-1.9
				c1.9,0.9,5.6,5.2,9.5,8.7c0.4,0.3,0.8,0.7,1.2,1.1l0.1,0.1c0,0,0,0,0.1,0.1c2.1,2,3.9,4.3,5.5,6.8c4.6,7.6,9.3,17.3,2.5,25
				c-2,2.3-4,4.4-6.2,6.4c-3.9,3.6-8.1,6.7-12.7,9.3c-4.8,2.7-9.3,6.1-14.7,7.3c-6.7,1.4-7.2,0.5-8.4,1c-3.5,1.5-5.5,1.1-4.6-0.4
				c0,0-7-0.2-3.5-2.8c-8.2-2.9-13.2-9.5-13.8-18.3c-0.2-3.7-0.3-12.4,3.2-21.2c-2.5-1.5,1.6-4.1,1.6-4.1c-2.4-3.6,1.2-3.7,2.8-3.9
				c0-0.1,0.1-0.1,0.1-0.2C106.5,36.3,103.3,35.8,103.9,34.3z"/>
			<path class="st3" d="M117.1,46.6c0,0-4.3-3.5,0.7-4c1.3-0.1,4.2,0.1,2-1.6c-2.1-1.6-0.4-2.1,1.5-2.3c3.5-0.3,0.2-2.5-1.1-3.4
				c-1.4-1,0.4-1.8,4.6-0.8c1.5,0.3,2.2,1,3.5,1c1.8,0-2.1-3.5,3.8-1.4c1.5,0.5,2,0.9,6.3,1.9c0.1,0,0.1,0,0.2,0
				c0.2,0,0.3,0.1,0.5,0.1c0.1,0,0.1,0,0.2,0.1c6.1,1.6,11.5,6.4,13.6,10.1c2.6,4.4,4.5,10.5,1.2,15c-7.3,9.8-19.4,17.5-30.5,14.5
				c-11.4-3.1-13.6-15.1-8.8-25.3l0,0C113.4,48.8,113.1,46.5,117.1,46.6z"/>
			<path class="st4" d="M154.2,61.3c2-2.2,2.1-4.8,1.7-7.2c-0.2-1.5,0.2,3.9-6.1,2.3c-5-1.3-11.1-4.6-16-1.8
				c-6.2,3.6-5.7,9.6-4.8,13.8c1.3,6.8-2.5,7.9-1.1,7.9C137.5,76.7,146.9,69.2,154.2,61.3z"/>
			<path class="st0" d="M153.9,69.3c1.8-2.5,3.4-5.9,3.3-9.1c0-0.3-0.5-3.7-1.1-2.2c-3.4,8-7.3,5.3-9.3,6.1
				c-1.8,0.7-1.8,1.5,0.1,1.8c-1.1,1.2-5.6,0.2-6.6,1.9c-1.1,1.9,5.2,4,0.8,4c-7.5-0.1-0.9,3-4.1,2.3c-1.6-0.3-4.3-0.2-3.9,2
				c0.4,2.3,3.8,2.3,5.4,2.2c4-0.4,8-2.1,11.3-4.6C151.3,72.4,152.7,70.9,153.9,69.3z"/>
		</g>
		<g>
			<path class="st0" d="M288.6,91.6c0.4-2.3-5.8-6.9-4.9-6.5c1.1,0.5,4.1,0.7,4.7-0.4c1.3-2.3-1.8-1.8-6.5-7.2
				c-1.3-1.5-3.1-3.6-4.4-5.2l-0.1-0.1c-1.6-2.2-3.6-4.1-5.7-5.8c2.5-1.5-0.9-3.5-3.9-3.2c-3.3,0.3,7.6-3.4-5.5-2.8
				c-2,0.1,2.4-2.2-0.6-2.7c-2.1-0.4-7.5,1.1-12.8,1.8c-0.5,0.1-1.1,0.1-1.6,0.2c-0.1,0-0.1,0-0.2,0H247c-2.9,0.5-5.7,1.3-8.4,2.5
				c-8.1,3.6-17.4,9-16.3,19.2c0.3,3,0.8,5.9,1.5,8.8c1.2,5.1,2.9,10.2,5.2,14.9c2.4,4.9,4.2,10.3,8,14.3c4.7,5,5.6,4.4,6.4,5.6
				c2,3.2,3.9,4,4,2.3c0,0,5.9,3.8,4.4-0.3c8.4,2.3,16.3-0.4,21.7-7.3c2.3-2.9,7.3-10.1,9.4-19.3c2.9,0.2,1.1-4.3,1.1-4.3
				c4-1.6,1.1-3.7-0.1-4.8c0-0.1,0-0.1,0-0.2C285.3,91.8,288.3,93.2,288.6,91.6z"/>
			<path class="st3" d="M270.8,94.3c0,0,5.6-0.5,1.6-3.7c-1-0.8-3.5-2.3-0.7-2.4c2.7-0.1,1.5-1.5,0.1-2.7c-2.7-2.2,1.2-2.2,2.8-2.2
				c1.7,0,0.7-1.7-3.3-3.3c-1.4-0.6-2.4-0.5-3.4-1.2c-1.5-1,3.7-1.7-2.3-3.4c-1.6-0.4-2.2-0.4-6.3-2c-0.1,0-0.1-0.1-0.2-0.1
				c-0.2-0.1-0.3-0.1-0.5-0.2c-0.1,0-0.1,0-0.2-0.1c-5.9-2.1-13.1-1.2-16.9,0.6c-4.6,2.2-9.7,6.1-9.5,11.7
				c0.4,12.2,6.1,25.4,17,29.2c11.2,3.9,19.8-4.7,21.6-15.8l0,0C272.5,98.1,274.1,96.5,270.8,94.3z"/>
			<path class="st4" d="M231.9,85.4c-0.4-3,1-5.1,2.7-6.9c1.1-1.1-2.4,3.2,3.7,5.3c4.9,1.8,11.8,2.5,14.2,7.6
				c3.1,6.5-0.7,11.1-3.8,14.1c-4.9,4.8-2.4,7.9-3.5,7.2C236.9,107.5,233.4,96,231.9,85.4z"/>
			<path class="st0" d="M228.6,98.2c1.3,3.9,3.6,7.6,6.7,10.2c1.2,1,4.1,2.9,5.7,1.3c1.6-1.6-0.6-3.3-2.1-3.9
				c-3.1-1.3,4.1-0.1-2.1-4.2c-3.7-2.5,2.7-0.7,2.9-2.9c0.2-1.9-4.2-3.7-4.4-5.3c1.7,0.8,2.1,0.2,1.1-1.4c-1.2-1.8-5.9-1.8-4.2-10.3
				c0.3-1.7-2,0.9-2.2,1.1c-1.9,2.6-2.5,6.2-2.5,9.3C227.6,94.1,228,96.2,228.6,98.2z"/>
		</g>
		<g>
			<path class="st1" d="M232.2,95.9c4.9,17.2-2.7,37.8-7.1,46c-5.3,9.9-26.3,39-60.4,27.9c-34.2-11.1-38-47.6-33.3-65.6
				c4.6-18,10.9-28.4,16.6-33.3c1.9-1.7-26.6,32.1-4.1,69.7c15.1,25.2,37.9,22.4,49.2,19.6C236,149.4,230.5,89.8,232.2,95.9z"/>
			<path class="st0" d="M231.8,95.2c-5.8-16.4-11.7-20.1-18.3-24.6c-0.3-0.2-0.6-0.4-0.9-0.5c-0.2-0.1-0.3-0.2-0.5-0.4
				c0,0-3.3-1.5-4.6-5.1c-0.4-1-1.2-4.3-2.8-3.4c-0.9,0.5-1.5,3-2.3,3c-1.5-0.1-1.7-1.7-1.6-2.9c0.1-1,1.2-2.6,0.8-3.6
				c-0.5-1.1-2.3-0.5-3.1-0.3c-1.6,0.6-3.2,1.6-4.3,2.9c-0.1,0.2-0.3,0.3-0.4,0.5c-0.8,1.1-2.1,0.5-0.9-3.1c0.5-1.6-4.9,0.2-5.2,3
				c-0.2,1.6-3-4.5-6.7-0.5l0,0c-14.1-1.7-26.2,4.8-31.7,9.3c-5.6,4.6-11.7,12.9-17,31.4c-4.1,14.5,0.9,53.9,32.8,64.8
				c33.4,11.4,56.7-18.7,60.5-26C229.3,132.2,238.3,113.7,231.8,95.2z"/>
		</g>
		<g>
			<path class="st2" d="M170.6,105.3c0.9-3.4,5.6-11.7,16.2-8.4c10.5,3.3,9.5,12.1,8.8,15c-0.7,3-7.3,28.6-21,24.4
				C162,132.4,168.6,113.3,170.6,105.3z"/>
			
				<ellipse transform="matrix(0.6447 -0.7645 0.7645 0.6447 -36.1176 186.4633)" class="st17" cx="182.5" cy="132.1" rx="3.9" ry="2.2"/>
			
				<ellipse transform="matrix(0.9951 -9.873958e-02 9.873958e-02 0.9951 -11.8448 17.4627)" class="st17" cx="170.5" cy="128.4" rx="2.2" ry="3.9"/>
			<ellipse transform="matrix(0.7682 -0.6402 0.6402 0.7682 -42.7013 147.4577)" cx="182.3" cy="132.7" rx="3.3" ry="2.1"/>
			<ellipse transform="matrix(0.9626 -0.2709 0.2709 0.9626 -28.58 50.9577)" cx="170.3" cy="129" rx="2.1" ry="3.3"/>
		</g>
		<path class="st2" d="M170.6,105.3c0.9-3.4,5.6-11.7,16.2-8.4c10.5,3.3,9.5,12.1,8.8,15c-0.7,3-7.3,28.6-21,24.4
			C162,132.4,168.6,113.3,170.6,105.3z"/>
		
			<ellipse transform="matrix(0.6447 -0.7645 0.7645 0.6447 -36.1176 186.4633)" class="st17" cx="182.5" cy="132.1" rx="3.9" ry="2.2"/>
		
			<ellipse transform="matrix(0.9951 -9.873958e-02 9.873958e-02 0.9951 -11.8448 17.4627)" class="st17" cx="170.5" cy="128.4" rx="2.2" ry="3.9"/>
		<ellipse transform="matrix(0.7682 -0.6402 0.6402 0.7682 -42.7013 147.4577)" cx="182.3" cy="132.7" rx="3.3" ry="2.1"/>
		<ellipse transform="matrix(0.9626 -0.2709 0.2709 0.9626 -28.58 50.9577)" cx="170.3" cy="129" rx="2.1" ry="3.3"/>
		<g>
			<path class="st3" d="M166,163c-10.9-3.4-12.5-14.7-10.2-23.4c1.1-4,2.3-7.5,2.6-7.6c0.4-0.1,2.9,6.9,14.2,10.7
				c8.9,3,16-0.2,17.8-1.1c0.2-0.1,0.2,0.2,0.2,0.3c-0.1,2.3-1,5.2-1.9,7.6C184.3,161.5,176.9,166.3,166,163z"/>
			<path class="st19" d="M189.1,142.9c-0.7,1.9-10.4,13.2-20,10.3c-7.4-2.3-10.5-16.9-9.8-18.8c0.7-1.9,1.2,4.9,13.3,8.3
				C184.5,146,189.8,141,189.1,142.9z"/>
			<path class="st2" d="M158.2,132.3c-0.1-0.5,0.4-0.6,0.7-0.1c1.7,3.7,3.7,16.8,11.3,19c8.4,2.5,18.3-9.1,20-9.6
				c0.5-0.1,0.5,0.2,0.3,0.5c-1.1,2-12.2,15.8-21.6,13.1C160.2,152.8,158.8,136.5,158.2,132.3z"/>
		</g>
		<path class="st2" d="M158.2,132.2c0-0.1,0-0.3,0.1-0.4c0.1-0.1,0.3,0,0.4,0.1c2,1.5,6.6,6.5,14.5,8.8c8,2.3,15.5,1,16.9,0.7
			c0.8-0.2,0.6,0.5,0.3,0.9c-1.5,1.6-8.3,4.2-18,1.4C162.4,140.8,158.8,134.3,158.2,132.2z"/>
		<g>
			<g>
				<path class="st16" d="M216.8,111c-0.2-4.8-3.4-6.9-7.2-6.5c-4,0.4-7.1,4.4-7.2,8.3c-0.1,4.4,3.9,7.5,8.1,6.8
					C214.9,118.9,216.9,114.5,216.8,111z"/>
			</g>
			<g>
				<path class="st2" d="M213.2,106.5c-0.9-0.3-1.8-0.3-2.8-0.2c0.7,0.4,1.2,1.1,1.2,2.3c0,1.4-0.7,3.2-2.5,3.4
					c-1.7,0.3-3.3-0.9-3.2-2.7v-0.1c-0.2,0.3-0.4,0.6-0.6,1c-1.5,3.2,0.5,6.6,3.7,7.5c3.3,0.9,6.2-1.7,7.2-4.3
					C217.7,109.9,216,107.4,213.2,106.5z"/>
			</g>
		</g>
		<g>
			<g>
				<g>
					<path class="st16" d="M153.4,91.3c2.9-3.9,6.7-3.7,9.6-1.3c3.1,2.6,3.3,7.6,1.2,10.9c-2.4,3.7-7.5,4-10.6,1
						C150.4,98.9,151.3,94.1,153.4,91.3z"/>
				</g>
			</g>
			<g>
				<path class="st2" d="M162.1,90.6c-0.9-0.3-1.8-0.3-2.8-0.2c0.7,0.4,1.2,1.1,1.2,2.3c0,1.4-0.7,3.2-2.5,3.4
					c-1.7,0.3-3.3-0.9-3.2-2.7v-0.1c-0.2,0.3-0.4,0.6-0.6,1c-1.5,3.2,0.5,6.6,3.7,7.5c3.3,0.9,6.2-1.7,7.2-4.3
					C166.6,94.1,164.9,91.6,162.1,90.6z"/>
			</g>
		</g>
		<path class="st21" d="M210.4,89c6.7-0.4,12.8,4.7,13.3,10.4"/>
		<path class="st21" d="M173.3,79.6c-5-4.5-14.2-4.9-18.2-0.7"/>
		<path class="st22" d="M233.4,116.3l0.3-2l-2.2-4.6c0.1-1.6-0.3-3.4-2.1-4.5c-3.6-2.1-13.5-5.9-24.2-7.6c-0.7-0.1-2-0.3-2-0.3
			c-1.2-0.2-2.5-0.4-3.9-0.7c-0.7-0.1-10.2-2.7-11.6-3.1c-1.2-0.4-10.2-3.5-10.6-3.7c-1.5-0.7-3.1-1.4-4.3-2
			c-0.6-0.3-1.2-0.6-1.9-0.9c-9.9-4.6-20.2-7.1-24.3-7.4c-2.1-0.1-3.4,1-4.3,2.5l-3.5,1.6l-1.3,2.6l3,0.6c-1.2,3.8-2.3,8.6-2,11.8
			c0.3,3.8,1.8,4.8,6.2,7.1c3.6,1.9,6.7,3.1,9.4,3.9c2.8,0.9,5.2,1.3,7.6,1.8c3.9,0.7,6.3-1.3,9.3-4.2c2.3-2.2,5.2-5.8,6.5-9
			c0-0.1,0.1-0.1,0.1-0.2c0.4-0.2,0.9-0.4,1.6-0.6c0.8-0.2,1.7-0.4,2.5-0.4c0.7,0,1.5,0,2.3,0.2h0.1c0.7,0.1,1.5,0.2,2.1,0.4
			c2.2,0.6,3.9,1.6,5.3,2.9c0.6,0.5,1.1,1.3,1.6,2c0.1,0.2,0.3,0.4,0.4,0.6c0,0,0,0.1,0,0.2c-0.6,3.5-0.3,8.2,0.3,11.1
			c0.8,4.1,1.7,7.1,5.3,8.7c4.4,2,9.1,3.9,17.2,4.9c4.9,0.6,6.7,0.6,9.1-2.4c2-2.4,3.7-6.9,4.9-10.7L233.4,116.3z M226.9,113.2
			c-0.5,1.8-2.2,7.1-4.4,9.7c-1.7,2-2.7,2.1-6.9,1.5c-6.9-0.9-10-2.1-14.2-4.1c-2.5-1.1-3.2-2.9-4-6.8s-0.6-10.7,0.6-12
			c1.1-1.2,1.7-1.2,7.5-0.2c4.1,0.7,7.9,1.7,11.1,2.6c3.8,1.2,6.7,2.4,8.3,3.4C227.8,109.2,227.8,110.1,226.9,113.2z M168.1,104.6
			c-2.8,2.7-4.5,3.8-7.2,3.3c-4.6-0.8-7.9-1.6-14.1-4.7c-3.8-1.9-4.6-2.5-4.8-5.2c-0.3-3.4,1.4-8.7,1.9-10.5c1-3.1,1.5-3.8,4.8-3.6
			c1.9,0.1,5,0.8,8.8,1.9c3.2,1,6.9,2.4,10.7,4.1c5.4,2.5,5.8,2.8,6.1,4.4C174.7,96.1,170.9,101.8,168.1,104.6z"/>
	</g>
</g>
</svg>
