<?xml version="1.0" encoding="utf-8"?>
<!-- Generator: Adobe Illustrator 24.0.2, SVG Export Plug-In . SVG Version: 6.00 Build 0)  -->
<svg version="1.1" id="Layer_1" xmlns="http://www.w3.org/2000/svg" xmlns:xlink="http://www.w3.org/1999/xlink" x="0px" y="0px"
	 viewBox="0 0 351.6 428.3" style="enable-background:new 0 0 351.6 428.3;" xml:space="preserve">
<style type="text/css">
	.st0{fill:#818984;}
	.st1{fill:#71766F;}
	.st2{fill:#423C36;}
	.st3{fill:#E5E0D7;}
	.st4{fill:#D2C9BF;}
	.st5{display:none;}
	.st6{display:inline;}
	.st7{fill:#F0F0F0;}
	.st8{fill:#CBC8C8;}
	.st9{fill:#E74E4E;}
	.st10{fill:#E1E0DF;}
	.st11{fill:#ADAAAA;}
	.st12{fill:#DBD9DA;}
	.st13{fill:#7FB6E4;}
	.st14{fill:#D9DAD8;}
	.st15{fill:#CDCAC3;}
	.st16{fill:#FFFFFF;}
	.st17{fill:#A48A7B;}
	.st18{fill:none;stroke:#423C36;stroke-width:0.1249;stroke-linecap:round;stroke-linejoin:round;stroke-miterlimit:10;}
	.st19{fill:#E0B7AD;}
	.st20{fill:#414999;stroke:#414999;stroke-width:4.926948e-02;stroke-miterlimit:10;}
	.st21{fill:none;stroke:#423C36;stroke-width:2.5357;stroke-linecap:round;stroke-linejoin:round;stroke-miterlimit:10;}
	.st22{fill:#414999;}
</style>
<g id="Body_8">
	<g>
		<g>
			<path class="st0" d="M237.4,261.6c0,6.4,1.3,104.4-8.6,111.8s-20.6,10.2-23.7,4c-3.1-6.3-19.4-56.2-15.7-62
				c1.3-2,13.8-1.1,23.8-6.9C232.5,297.3,237.4,246.1,237.4,261.6z"/>
			<path class="st0" d="M232,367.1c6.6,2,15.5,4.6,17.1,9.3c1,2.9,5.1,8.7-1.8,10.1c-7,1.4-27.1,3.9-39.8-6.4
				C197.6,372,232,367.1,232,367.1z"/>
		</g>
		<g>
			<path class="st1" d="M189.8,326.7c-0.6,9.1,12.2,44.3,15.3,50.5c0.5,1,0.3,0.8,1.9,2.4c10.7,10.6,37.2,9.9,43.1,5.7
				c4-2.9,1.4-9.3-2.8-12.3c-4.1-2.9-15.3-6-15.3-6c5.9-22.5,5.4-87,5.4-92.6c0,0-3.2,25.5-5,46.6s-1.8,40.9-4.1,46.9
				c-0.3,0.9,11,3.4,15.7,7.1c3.5,2.7,1.4,8.3-6,9c-6.8,0.7-20.2,1.1-28.4-7c-2-2-8.2-30.5-13.9-45.7
				C193.6,325.6,189.8,326.7,189.8,326.7z"/>
			<g>
				<path class="st2" d="M248.2,377.6c-0.8-0.2-0.6-2.6,1.1-2.6c0.9,0,3.8,2.2,3.5,3.2c-0.2,0.8-1.7,0.2-2.3,0
					C249.5,377.9,249.3,377.9,248.2,377.6z"/>
				<path class="st2" d="M247,383.3c-1-0.2-0.8-3.2,1.3-3.3c1.1,0,4.9,2.6,4.5,3.9c-0.3,1-2.2,0.3-2.9,0.1
					C248.6,383.6,248.4,383.6,247,383.3z"/>
				<path class="st2" d="M243.2,387.3c-1-0.3-0.6-3.3,1.6-3.1c1.2,0.1,4.8,3.1,4.3,4.4c-0.4,1-2.3,0.1-3-0.2
					C244.8,387.8,244.5,387.7,243.2,387.3z"/>
			</g>
		</g>
	</g>
	<g>
		<g>
			<path class="st0" d="M117.7,261.6c0,6.4-1.3,104.4,8.6,111.8s20.6,10.2,23.7,4c3.1-6.3,19.4-56.2,15.7-62
				c-1.3-2-13.8-1.1-23.8-6.9C122.6,297.3,117.7,246.1,117.7,261.6z"/>
			<path class="st0" d="M123.1,367.1c-6.6,2-15.5,4.6-17.1,9.3c-1,2.9-5.1,8.7,1.8,10.1c7,1.4,27.1,3.9,39.8-6.4
				C157.5,372,123.1,367.1,123.1,367.1z"/>
		</g>
		<g>
			<path class="st1" d="M165.3,326.7c0.6,9.1-12.2,44.3-15.3,50.5c-0.5,1-0.3,0.8-1.9,2.4c-10.7,10.6-37.2,9.9-43.1,5.7
				c-4-2.9-1.4-9.3,2.8-12.3c4.1-2.9,15.3-6,15.3-6c-5.9-22.5-5.4-87-5.4-92.6c0,0,3.2,25.5,5,46.6s1.8,40.9,4.1,46.9
				c0.3,0.9-11,3.4-15.7,7.1c-3.5,2.7-1.4,8.3,6,9c6.8,0.7,20.2,1.1,28.4-7c1.9-1.9,9.9-35.7,14.2-49.8L165.3,326.7z"/>
			<g>
				<path class="st2" d="M106.9,377.6c0.8-0.2,0.6-2.6-1.1-2.6c-0.9,0-3.8,2.2-3.5,3.2c0.2,0.8,1.7,0.2,2.3,0
					C105.7,377.9,105.8,377.9,106.9,377.6z"/>
				<path class="st2" d="M108.1,383.3c1-0.2,0.8-3.2-1.3-3.3c-1.1,0-4.9,2.6-4.5,3.9c0.3,1,2.2,0.3,2.9,0.1
					C106.5,383.6,106.8,383.6,108.1,383.3z"/>
				<path class="st2" d="M111.9,387.3c1-0.3,0.6-3.3-1.6-3.1c-1.2,0.1-4.8,3.1-4.3,4.4c0.4,1,2.3,0.1,3-0.2
					C110.3,387.8,110.6,387.7,111.9,387.3z"/>
			</g>
		</g>
	</g>
	<g>
		<path class="st0" d="M131.3,159.7c4.2-2.4,10.9-4.8,18-7.2c14.8-4.9,47.3-5.8,62.6,1c6.6,2.9,13.4,6.6,19,11.2
			c8.7,7.2,11.7,18.1,10.7,28.7c-1.7,18.8-1.7,26.4-2.6,43.8c-1.4,26.2,5.1,58.5-19.1,78.6c-10.1,8.4-18.6,13.2-42.6,14.4
			c-11.8,0.6-26.4,1.1-44.7-13.9c-20.7-17-14.8-59.9-12.7-84.4C123.3,191.6,109.4,172,131.3,159.7z"/>
		<path class="st3" d="M146.2,153.8c7.7-4.9,46.6-8.7,66.5-0.1c2.1,0.9,4.3,15.2,8.5,74.7c1.4,20.3-0.2,79.2-47.1,77.9
			c-33.6-1-45.9-50.7-38.8-81C148.4,169,142.8,156,146.2,153.8z"/>
		<path class="st4" d="M213.6,157.9c-0.8,8.8-18.7,22.8-36,22.8c-25.6,0-33.1-18.9-33-21.2c0.1-1.4,0-5.3,1.4-5.9
			c4.2-1.7,9.1-3,13-3.7c15.6-2.6,24.3-1.8,33.5-1c8.2,0.7,19,3.8,20.5,4.7C213.8,154.1,213.7,157.1,213.6,157.9z"/>
		<path class="st1" d="M126.9,310.1c13.6,17.9,32.4,21.6,52.3,21c12.4-0.3,22.4-2.5,30-6.6c5.4-3,16.4-12.1,16.4-14.5
			c0,0-20.1,16.4-47.7,16.2C142.2,325.9,126.9,310.1,126.9,310.1z"/>
	</g>
	<g>
		<g>
			<g>
				<path class="st0" d="M93.1,213.5c-2.6,10.6-5.6,44.5-5.8,46.1c-0.5,3.7-3.9,5.7-7.1,9.9c-3,4-4.2,6-3.8,7.5
					c0.5,2.2,5.7,0.1,10.6-5.2c0,0-5,10.3-1.9,12.2c4.5,2.8,12.5-10.4,12.8-11.3c0,0-3.2,10.5,0.3,11.1c4.3,0.7,9.2-10.1,9.4-13.2
					c0,0,1.7,4.2,4.4,4.6c3.4,0.5,4.1-7.8-0.1-13.4c-3.5-4.7-2.2-11,0.8-19.2c2.6-7,5.7-16.5,10.2-27.1c10.6-24.7,12.1-20.6-2.1-23
					C106.7,190.1,99.6,187.2,93.1,213.5z"/>
				<path class="st0" d="M123.4,208.6c5.6-9,7.8-11.8,15.8-28.9c5.1-11,4.8-23.3,3.6-24.9c0,0-18.9,3.4-33.7,23.2
					c-8.4,11.2-13.2,23-14.6,28.9C89.6,227,116.9,219,123.4,208.6z"/>
			</g>
			<path class="st1" d="M86.9,271.8c-4.9,5.3-10.1,7.5-10.6,5.2c-0.4-1.5,0.8-3.5,3.8-7.5c3.2-4.2,6.7-6.3,7.1-9.9
				c0.2-1.6,2.8-35.2,5.2-45.8c1.1-4.7,1.5-7.3,2.4-9.8c2-6.6,7.1-16.5,14.2-26.1c9.8-13.2,22-18.8,22-18.8s-5.4,3.6-8.9,7.1
				c-2.7,2.7-4.3,4.6-6.1,6.7c-7.6,8.9-10,18.1-12.2,23c-3.8,8.6-6.2,15.8-8.6,36c-1.2,10-5,24.9-5.8,28.9c-0.6,3.1-5.5,6.3-7.3,8.3
				c-0.7,0.8-1.4,1.5-1.8,1.9c-2.6,3.5,0.4,4.8,2.9,3C84,273.6,85,273.1,86.9,271.8z"/>
			<path class="st1" d="M133.8,192c-4.2,8.8-1.2,3.3-3.5,7.4c-1.2,3.1-3.8,8.1-7.5,16.5c-4.6,10.6-7.6,19.9-10.2,26.8
				c-3.1,8.1-5.4,15.5-0.8,19c0,0-9-6.5-5.7-16.8c5.1-16,11.7-28.7,16.1-37.6C125.8,200,136.3,186.7,133.8,192z"/>
			<path class="st1" d="M86.9,271.8c0,0-5.1,10.3-1.9,12.2c4.5,2.8,12.5-10.4,12.8-11.3c0,0-3.2,10.5,0.3,11.1
				c4.3,0.7,9.2-10.1,9.4-13.2c0,0,1.7,4.2,4.4,4.6c3.4,0.5,4.5-7.9-0.1-13.4c0,0,2.6,7.1,0.5,9.5c-1.6,1.9-4.7-4-5.5-5.6
				s-3,14.7-7.3,13.6c-2.4-0.6-0.4-9.4-0.4-9.4s-5.2,5.6-8.6,9.7c-0.9,1.1-2.1,1.3-2.9,1.1c-1.3-0.4-2.1-1.4-2-3
				C85.5,275.1,86.9,271.8,86.9,271.8z"/>
		</g>
		<path class="st2" d="M79.5,277.1c0.9-0.6-0.7-2.8-2.3-2c-0.9,0.4-2.3,4.2-1.7,4.7c0.5,0.5,1,0.2,2-1
			C78.1,277.9,78.5,277.7,79.5,277.1z"/>
		<path class="st2" d="M88,283c0.5-0.9-1.8-2.8-3.3-1.2c-0.8,0.8-1.4,5.3-0.2,5.9c0.9,0.5,1.7-1.4,2-2.1
			C87.2,284.4,87.3,284.2,88,283z"/>
		<path class="st2" d="M100.6,281.9c0.4-0.9-2-2.6-3.4-1c-0.7,0.8-1,5.4,0.3,5.9c0.9,0.4,1.6-1.5,1.8-2.2
			C99.8,283.3,100,283.1,100.6,281.9z"/>
		<path class="st2" d="M110.6,273.2c-0.2-1,2.5-2.1,3.5-0.2c0.5,1-0.3,5.5-1.6,5.7c-1,0.2-1.2-1.8-1.3-2.6
			C111,274.8,110.9,274.6,110.6,273.2z"/>
	</g>
	<g>
		<path class="st0" d="M268.7,180.6c-8.9,3.2-25.5,6.8-27.8,18c-0.3,1.7-29.1-45.3-28-45c8.4,2.7,10.4,1.2,33.6-0.9
			c14-1.3,29.7-7.5,30.5-7.4c13.4,1.2,31.5,14.1,23.2,22.6C293.2,175.3,276.6,177.8,268.7,180.6z"/>
		<g>
			<path class="st0" d="M305.5,145.9c0.4-10.9-3.8-44.7-4-46.3c-0.3-3.7,2.6-6.4,4.9-11.2c2.1-4.5,2.8-6.8,2.2-8.1
				c-1-2.1-5.6,1.1-9.3,7.4c0,0,2.7-11.1-0.7-12.3c-5-1.8-10.1,12.7-10.1,13.8c0,0,0.9-10.9-2.6-10.8c-4.3,0.2-6.8,11.8-6.5,14.9
				c0,0-2.6-3.8-5.3-3.6c-3.4,0.2-2.3,8.5,2.9,13.1c4.4,3.8,4.5,10.3,3.2,19c-1.1,7.4-2.1,17.3-4.3,28.7c-5.2,26.4-7.5,22.7,6.8,22
				C297.2,171.6,304.6,173,305.5,145.9z"/>
			<path class="st1" d="M301,155.4c0.3-9.1,1.2-14.3-0.2-30.4c-0.9-10-1.5-22.3-1.5-26.4c-0.1-3.1,4-7.3,5.4-9.7
				c0.5-0.9,1.1-1.8,1.3-2.3c1.9-3.9-1.4-4.6-3.4-2.4c-0.7,0.8-1.6,1.6-3.1,3.2c3.7-6.3,8.3-9.4,9.3-7.4c0.7,1.4,0,3.6-2.2,8.1
				c-2.3,4.8-5.2,7.5-4.9,11.2c0.1,1.6,5.5,31.2,4.9,45c-0.3,6.5-0.9,11.1-1.5,15.5c-0.7,4.8-1.9,9.6-7.3,11.8
				c-3.2,1.2-26.3,8.4-46.3,16.3c-5.3,2.1-9.5,4.6-10.4,11.1c-0.4,2.6-0.3-6.3,4.3-10.1c9.2-7.4,44.6-19.7,49.6-21.5
				C298.3,166.5,300.8,162.2,301,155.4z"/>
			<path class="st1" d="M261.5,151c-5.4,0.9-9.6,2.1-19.7,3.4c-13.5,1.8-17.9,0.5-17.9,0.5c8.8-0.8,21.9-5.9,34.4-8
				c9.8-1.7,17.6-2.6,17.6-2.6c2.3-11.3,3.3-15.6,4.4-22.9c1.3-8.6,0.9-14.8-3.2-18.8c0,0,8.7,4.4,7.6,15.2
				c-1.7,16.7-3,20.8-5.4,30.4C279.2,148.3,269.5,149.7,261.5,151z"/>
			<path class="st1" d="M299.4,87.6c0,0,2.8-11.1-0.7-12.3c-5-1.8-10.1,12.7-10.1,13.8c0,0,0.9-10.9-2.6-10.8
				c-4.3,0.2-6.8,11.8-6.5,14.9c0,0-2.6-3.8-5.3-3.6c-3.4,0.2-2.7,8.7,2.9,13.1c0,0-4-6.4-2.5-9.2c1.2-2.2,5.4,3,6.5,4.3
				S281,82.9,285.5,83c2.5,0.1,2.4,9.1,2.4,9.1s3.9-6.5,6.4-11.2c0.6-1.2,1.8-1.7,2.7-1.7c1.4,0.1,2.3,0.9,2.6,2.5
				C300,84.1,299.4,87.6,299.4,87.6z"/>
			<path class="st2" d="M295.9,76.9c-0.3,1,2.3,2.3,3.5,0.5c0.6-0.9,0.2-5.5-1.1-5.8c-1-0.3-1.3,1.7-1.5,2.4
				C296.4,75.4,296.3,75.6,295.9,76.9z"/>
			<path class="st2" d="M283.9,80.6c-0.2,1,2.5,2.2,3.5,0.3c0.5-1-0.2-5.5-1.5-5.8c-1-0.2-1.2,1.8-1.3,2.5
				C284.3,79.1,284.1,79.3,283.9,80.6z"/>
			<path class="st2" d="M275.9,91.2c0.4,0.9-2,2.6-3.4,0.9c-0.7-0.9-0.9-5.4,0.4-5.9c1-0.4,1.6,1.5,1.8,2.2
				C275.2,89.8,275.3,90,275.9,91.2z"/>
			<path class="st2" d="M305.5,80.9c-0.7,0.8,1.3,2.6,2.7,1.5c0.8-0.6,1.4-4.5,0.7-4.9c-0.6-0.3-1.1,0-1.8,1.4
				C306.6,79.8,306.3,80,305.5,80.9z"/>
		</g>
	</g>
</g>
<g id="KubeCon_Badge" class="st5">
	<g class="st6">
		<g id="lanyard_4_">
			<rect id="backplate_5_" x="162.1" y="217" class="st7" width="29.8" height="17.4"/>
			<path id="backplate_stroke_donker_5_" class="st8" d="M163,217.9v15.6h28v-15.6H163z M190.7,233.2h-27.3v-15h11.5v0.9h4.3v-0.9
				h11.6v15H190.7z"/>
			<path id="lint_R_4_" class="st9" d="M177.9,213.2h-1.8c0,0-35.1-57.1-34.3-58.6c0.6-1.2,3.5-1.3,3.5-1.3L177.9,213.2z"/>
			<path id="lint_L_4_" class="st9" d="M176.1,213.2h1.8l39-58.3c0,0-1.7-2.2-4.1-1.4C212.6,154.4,176.1,213.2,176.1,213.2z"/>
			<path id="connector_plate_5_" class="st10" d="M176.3,215.5v3.1h1.5v-3.1H176.3z M177,216.7c-0.2,0-0.4-0.2-0.4-0.4
				s0.2-0.4,0.4-0.4s0.4,0.2,0.4,0.4C177.3,216.5,177.2,216.7,177,216.7z"/>
			<path id="connector_ring_5_" class="st11" d="M177,214.1c-0.7,0-1.2,0.5-1.2,1.2c0,0.4,0.2,0.7,0.5,0.9v-0.5
				c-0.1-0.1-0.1-0.3-0.1-0.5c0-0.5,0.4-0.9,0.9-0.9s0.9,0.4,0.9,0.9s-0.4,0.9-0.9,0.9c0,0-0.2,0-0.3,0c0,0.1-0.1,0.1-0.1,0.3
				c0.1,0.1,0.4,0.1,0.4,0.1c0.7,0,1.2-0.5,1.2-1.2C178.2,214.6,177.6,214.1,177,214.1z"/>
			<polygon id="connector_top_5_" class="st11" points="177.7,214.4 176.3,214.4 176.1,213.2 177.9,213.2 			"/>
			<rect id="tekst_01_5_" x="175.5" y="222.8" class="st12" width="5.9" height="1.1"/>
			<rect id="tekst_02_5_" x="175.5" y="225.8" class="st12" width="13" height="1.1"/>
			<rect id="tekst_03_5_" x="175.5" y="228.7" class="st12" width="13" height="1.1"/>
			<rect id="foto_back_4_" x="164.5" y="221.6" class="st13" width="9.5" height="9.5"/>
		</g>
		<g>
			<polygon class="st0" points="171.5,228.2 173.1,231 165.3,231 167.1,227.8 			"/>
			<path class="st14" d="M167.3,228.5l-0.7,2.5h5.1l-0.5-2.5C171.2,228.6,168.4,229.6,167.3,228.5z"/>
		</g>
		<g>
			<path class="st1" d="M168.4,224.2c0.5-0.1,1.2-0.1,1.7,0.1c0.4,0.1,0.8,0.1,1.3,0.8s0.4,1.9,0.3,2.3c-0.1,0.5-0.7,2.2-2.4,2.2
				c-1.8,0-2.5-1.7-2.5-2.6c0-0.9,0.1-1.5,0.3-1.8S167.7,224.3,168.4,224.2z"/>
			<path class="st0" d="M168.5,224.1c0.5-0.1,1.3-0.1,1.6,0c0.4,0.1,0.8,0.2,1.2,0.9s0.4,1.8,0.3,2.2c-0.1,0.4-0.7,2.1-2.4,2.1
				s-2.4-1.7-2.5-2.6c0-0.9,0.1-1.4,0.3-1.7C167.3,224.7,167.8,224.2,168.5,224.1z"/>
			<path class="st2" d="M168.6,226.4c0-0.2,0.1-0.6,0.6-0.6s0.6,0.4,0.6,0.6c0,0.1,0.1,1.5-0.6,1.5
				C168.6,227.8,168.6,226.8,168.6,226.4z"/>
			<g>
				<path class="st0" d="M170,224.1c0,0-0.2,0-0.3-0.1c0,0-0.1-0.2-0.2-0.1c0,0,0,0.2-0.1,0.2s-0.1-0.1-0.1-0.2
					c0.1-0.3-0.3,0-0.3,0.2c0,0.1-0.1,0.1-0.1-0.1c0-0.1-0.2,0.1-0.2,0.2c0,0.1-0.2-0.2-0.3,0C168.4,224.2,170.7,224.3,170,224.1z"
					/>
			</g>
			<g>
				<path class="st0" d="M171.2,223.4c0.3-0.3,0.8-0.5,1.3-0.4c0.3,0,0.5,0.2,0.8,0.3c0.9,0.8,0.6,1.9,0.5,2.2
					c-0.2,0.4-0.5,0.6-0.9,0.7c0.1,0.2-0.2,0.1-0.2,0.1c0,0.1-0.1,0.1-0.2,0c-0.1,0-0.1,0-0.4-0.2c-0.2-0.1-0.4-0.4-0.6-0.6
					c-0.2-0.2-0.3-0.4-0.5-0.6c-0.1-0.1-0.1-0.3-0.2-0.4C170.5,224.1,170.9,223.7,171.2,223.4z"/>
				<path class="st0" d="M172.9,223.3c0.1,0.1,0.1-0.1,0.2,0c0.1,0.1,0.2,0.1,0.3,0.2c0.3,0.2,0.4,0.1,0.4,0.2
					c0,0.1-0.2,0.1-0.2,0.1c-0.1,0,0.3,0.1,0.3,0.2c0,0.1-0.2,0-0.2,0s0.3,0.1,0.1,0.2c0,0,0.2,0.2,0,0.2
					C173.8,224.6,172.7,223.2,172.9,223.3z"/>
				<path class="st14" d="M171.2,224.6c-0.1-0.3,0.1-0.5,0.3-0.7s0.8-0.4,1.1-0.2c0.9,0.6,0.8,2-0.2,2
					C171.9,225.7,171.4,225.2,171.2,224.6z"/>
				<path class="st15" d="M171.2,224.6c-0.1-0.1,0-0.3,0-0.4c0-0.1-0.1,0.2,0.3,0.2c0.3,0,0.6-0.1,0.8,0.2s0.1,0.5,0,0.7
					c-0.2,0.3,0,0.4-0.1,0.4C171.8,225.6,171.4,225.1,171.2,224.6z"/>
				<path class="st0" d="M171.2,225.2c0.3,0.3,0.3,0.3,0.3,0.3c0.4,0.3,0.6-0.1,0.3-0.1c-0.2,0,0.2-0.1-0.2-0.2
					c-0.2-0.1,0.1-0.1,0.1-0.2c0-0.1-0.3-0.1-0.3-0.2c0.1,0,0.1,0,0-0.1s-0.3,0-0.4-0.4C171.1,224.3,170.9,224.7,171.2,225.2z"/>
				<path class="st0" d="M171.9,223.3c0.4,0,0.7,0,0.7-0.1c0.4-0.2,0.1-0.3,0-0.2c-0.2,0.1,0.3-0.3-0.3-0.1c-0.1,0,0.1-0.1-0.1-0.1
					c-0.1,0-0.4,0.2-0.7,0.3C171.4,223.2,171.6,223.3,171.9,223.3z"/>
				<path class="st14" d="M172.6,224.5c0.1,0.1,0.4,0.1,0.6,0.2c0.1-0.1,0.1-0.2,0-0.2c0,0,0.3-0.1,0-0.2c-0.1,0-0.2-0.1-0.1-0.1
					c0.1,0,0-0.1,0-0.1c-0.2-0.1,0-0.1,0.1-0.1s0-0.1-0.2-0.1c-0.1,0-0.1,0-0.2,0c-0.1,0,0.1-0.1-0.2-0.1c-0.1,0-0.1,0-0.4,0
					c-0.2,0-0.2,0.4-0.4,0.5C171.8,224.2,172.3,224.2,172.6,224.5z"/>
			</g>
			<g>
				<path class="st0" d="M167.3,223.4c-0.3-0.3-0.8-0.5-1.3-0.4c-0.3,0-0.5,0.2-0.8,0.3c-0.9,0.8-0.6,1.9-0.5,2.2
					c0.2,0.4,0.5,0.6,0.9,0.7c-0.1,0.2,0.2,0.1,0.2,0.1c0,0.1,0.1,0.1,0.2,0c0.1,0,0.1,0,0.4-0.2c0.2-0.1,0.4-0.4,0.6-0.6
					c0.2-0.2,0.3-0.4,0.5-0.6c0.1-0.1,0.1-0.3,0.2-0.4C167.9,224.1,167.6,223.7,167.3,223.4z"/>
				<path class="st0" d="M165.5,223.3c-0.1,0.1-0.1-0.1-0.2,0c-0.1,0.1-0.2,0.1-0.3,0.2c-0.3,0.2-0.4,0.1-0.4,0.2
					c0,0.1,0.2,0.1,0.2,0.1c0.1,0-0.3,0.1-0.3,0.2c0,0.1,0.2,0,0.2,0s-0.3,0.1-0.1,0.2c0,0-0.2,0.2,0,0.2
					C164.6,224.6,165.7,223.2,165.5,223.3z"/>
				<path class="st14" d="M167.2,224.6c0.1-0.3-0.1-0.5-0.3-0.7s-0.8-0.4-1.1-0.2c-0.9,0.6-0.8,2,0.2,2
					C166.6,225.7,167.1,225.2,167.2,224.6z"/>
				<path class="st15" d="M167.2,224.6c0.1-0.1,0-0.3,0-0.4c0-0.1,0.1,0.2-0.3,0.2c-0.3,0-0.6-0.1-0.8,0.2s-0.1,0.5,0,0.7
					c0.2,0.3,0,0.4,0.1,0.4C166.7,225.6,167,225.1,167.2,224.6z"/>
				<path class="st0" d="M167.3,224.4c0,0.4-0.3,0.4-0.4,0.4c-0.1,0.1-0.1,0.1,0,0.1c0,0.1-0.3,0.1-0.3,0.2c0,0.1,0.3,0.1,0.1,0.2
					c-0.4,0.1,0,0.2-0.2,0.2c-0.3,0-0.1,0.4,0.3,0.1c0,0,0.1,0,0.3-0.3C167.6,224.7,167.3,224.3,167.3,224.4z"/>
				<path class="st0" d="M166.9,223.2c-0.3-0.1-0.5-0.3-0.7-0.3c-0.1,0,0,0.2-0.1,0.1c-0.6-0.2-0.1,0.1-0.3,0.1
					c-0.2-0.1-0.5,0,0,0.2c0,0,0.4,0,0.7,0.1C166.8,223.3,167,223.2,166.9,223.2z"/>
				<path class="st14" d="M166.5,224.1c-0.2-0.1-0.1-0.5-0.4-0.5c-0.3,0-0.3,0-0.4,0c-0.3,0-0.1,0.1-0.2,0.1c-0.1,0-0.1,0-0.2,0
					c-0.2,0-0.3,0.1-0.2,0.1s0.3,0.1,0.1,0.1c-0.1,0-0.2,0.1,0,0.1c0.1,0,0,0.1-0.1,0.1c-0.2,0.1,0,0.2,0,0.2
					c-0.2,0.1-0.1,0.2,0,0.2c0.3,0,0.5-0.1,0.6-0.2C166.1,224.2,166.6,224.2,166.5,224.1z"/>
			</g>
			<g>
				<g>
					<path class="st16" d="M170.9,226.1c0-0.2-0.2-0.3-0.4-0.3s-0.3,0.2-0.3,0.4s0.2,0.4,0.4,0.3
						C170.8,226.5,170.9,226.3,170.9,226.1z"/>
				</g>
				<g>
					<path class="st2" d="M170.6,226h-0.1l0.1,0.1c0,0.1,0,0.2-0.1,0.2s-0.2,0-0.2-0.1l0,0c0,0,0,0,0,0.1c-0.1,0.2,0,0.3,0.2,0.4
						c0.2,0,0.3-0.1,0.3-0.2C170.9,226.1,170.8,226,170.6,226z"/>
				</g>
			</g>
			
				<ellipse transform="matrix(0.3892 -0.9212 0.9212 0.3892 -105.9467 295.1427)" class="st17" cx="169.6" cy="227.5" rx="0.2" ry="0.1"/>
			
				<ellipse transform="matrix(0.9212 -0.3892 0.3892 0.9212 -75.2298 83.6748)" class="st17" cx="168.9" cy="227.5" rx="0.1" ry="0.2"/>
			<ellipse transform="matrix(0.544 -0.8391 0.8391 0.544 -113.5591 245.997)" cx="169.5" cy="227.5" rx="0.2" ry="0.1"/>
			<ellipse transform="matrix(0.8391 -0.544 0.544 0.8391 -96.5978 128.4846)" cx="168.9" cy="227.5" rx="0.1" ry="0.2"/>
			<path class="st18" d="M170.3,225.4c0.3-0.2,0.6-0.2,0.8,0.1"/>
			<path class="st18" d="M168.3,225.4c-0.3-0.2-0.6-0.2-0.8,0.1"/>
			<g>
				<g>
					<path class="st16" d="M167.6,226.1c0-0.2,0.2-0.3,0.4-0.3s0.3,0.2,0.3,0.4s-0.2,0.4-0.4,0.3
						C167.6,226.5,167.5,226.3,167.6,226.1z"/>
				</g>
				<g>
					<path class="st2" d="M167.8,226h0.1l-0.1,0.1c0,0.1,0,0.2,0.1,0.2s0.2,0,0.2-0.1l0,0c0,0,0,0,0,0.1c0.1,0.2,0,0.3-0.2,0.4
						c-0.2,0-0.3-0.1-0.3-0.2C167.6,226.1,167.7,226,167.8,226z"/>
				</g>
			</g>
			<g>
				<path class="st14" d="M169.2,229c-0.5,0-0.7-0.4-0.8-0.7c0-0.2,0-0.4,0-0.4s0.2,0.3,0.8,0.3c0.5,0,0.8-0.3,0.8-0.3s0,0.2,0,0.4
					C170,228.7,169.6,229,169.2,229z"/>
				<path class="st19" d="M170,227.9c0,0.1-0.4,0.5-0.8,0.5c-0.3,0-0.7-0.3-0.7-0.4c0-0.1,0.3,0.2,0.6,0.2
					C169.8,228.1,170,227.8,170,227.9z"/>
				<path class="st2" d="M168.4,227.9C168.4,227.9,168.4,227.8,168.4,227.9c0.1,0.1,0.4,0.5,0.8,0.5c0.4,0,0.8-0.5,0.8-0.5
					c0.1,0-0.3,0.6-0.8,0.6C168.8,228.5,168.5,228,168.4,227.9z"/>
				<path class="st2" d="M168.4,227.9C168.4,227.9,168.4,227.8,168.4,227.9c0.1,0,0.4,0.2,0.8,0.2c0.4,0,0.7-0.2,0.8-0.3
					c0.1,0-0.2,0.4-0.8,0.4C168.7,228.2,168.5,227.9,168.4,227.9z"/>
			</g>
			<g>
				<path class="st20" d="M171.5,225.7L171.5,225.7v0.2h0.2v-0.1L171.5,225.7z"/>
				<path class="st20" d="M167,225.7L167,225.7c0.1,0,0,0.3,0,0.3v-0.1h-0.2v-0.1L167,225.7z"/>
				<path class="st20" d="M171.4,226.6c-0.1,0.2-0.1,0.2-0.4,0.2c-0.4,0.1-0.6,0.1-0.9,0c-0.2,0-0.3-0.1-0.3-0.3
					c-0.1-0.1-0.2-0.3-0.2-0.5l0,0l-0.1-0.1c-0.1,0-0.2-0.1-0.3-0.1h-0.1H169c0,0-0.1,0-0.1,0.1c0,0-0.1,0-0.1,0.1l0,0
					c0,0.2-0.1,0.4-0.2,0.5c-0.1,0.2-0.2,0.3-0.3,0.3c-0.3,0-0.5,0-0.9,0c-0.2,0-0.3-0.1-0.4-0.2c-0.1-0.2-0.1-0.5-0.1-0.6l0,0
					c0-0.1,0-0.3,0.2-0.3s0.7-0.1,1.2,0h0.1c0.1,0,0.2,0,0.2,0s0.5,0,0.6,0s0.6,0,0.6,0c0.1,0,0.1,0,0.2,0h0.1c0.5-0.1,1,0,1.2,0
					c0.1,0,0.2,0.2,0.2,0.3c0,0,0,0,0,0.1C171.5,226.1,171.5,226.4,171.4,226.6z M169.9,226.4c0.1,0.2,0.2,0.3,0.3,0.3
					c0.2,0,0.4,0,0.7,0c0.2,0,0.3-0.1,0.3-0.2c0.1-0.1,0.1-0.4,0.1-0.5c0-0.2,0-0.2-0.2-0.3s-0.6-0.1-1,0c-0.3,0-0.3,0-0.4,0.1
					C169.8,225.9,169.9,226.3,169.9,226.4z M168.7,225.8c0-0.1-0.1-0.1-0.4-0.1c-0.5-0.1-0.8,0-1,0s-0.2,0.1-0.2,0.3
					c0,0.1,0,0.4,0.1,0.5s0.1,0.2,0.3,0.2c0.3,0.1,0.5,0,0.7,0s0.2-0.1,0.3-0.3C168.6,226.3,168.7,225.9,168.7,225.8z"/>
			</g>
		</g>
	</g>
</g>
<g id="Head_3_tilt_left">
	<g>
		<g>
			<path class="st0" d="M259,39.5c-0.8-2.2-8.6-2.9-7.5-3c1.2-0.1,3.8-1.6,3.8-2.8c-0.1-2.6-2.5-0.6-9.3-2.8
				c-1.9-0.6-4.6-1.5-6.4-2.2h-0.1c-2.5-1-5.2-1.7-7.9-2c1.4-2.6-2.6-2.5-5-0.7c-2.7,2,4.8-6.8-6.2,0.4c-1.7,1.1,0.9-3.1-1.9-2
				c-2,0.8-5.9,4.8-10,8.2c-0.4,0.3-0.8,0.7-1.3,1l-0.1,0.1c0,0,0,0-0.1,0.1c-2.2,1.9-4.2,4.1-5.8,6.5c-5,7.3-10.3,16.7-4,24.9
				c1.8,2.4,3.8,4.6,5.9,6.8c3.7,3.8,7.7,7.2,12.2,10c4.7,3,9,6.6,14.3,8.1c6.6,1.8,7.1,0.9,8.4,1.5c3.4,1.7,5.4,1.4,4.6-0.1
				c0,0,7,0.2,3.6-2.6c8.4-2.4,13.8-8.8,14.8-17.5c0.4-3.7,1-12.4-2-21.4c2.6-1.4-1.3-4.2-1.3-4.2c2.6-3.4-1-3.8-2.6-4
				c0-0.1-0.1-0.1-0.1-0.2C256.2,41.4,259.5,41,259,39.5z"/>
			<path class="st3" d="M245.1,51.1c0,0,4.5-3.3-0.5-4c-1.3-0.2-4.2-0.2-1.9-1.7c2.2-1.5,0.5-2.1-1.4-2.4c-3.5-0.5-0.1-2.5,1.3-3.3
				c1.5-0.9-0.2-1.8-4.5-1.1c-1.5,0.2-2.3,0.8-3.6,0.8c-1.8-0.1,2.3-3.4-3.8-1.7c-1.5,0.4-2.1,0.8-6.4,1.5c-0.1,0-0.1,0-0.2,0
				c-0.2,0-0.4,0.1-0.5,0.1s-0.1,0-0.2,0.1c-6.1,1.3-11.8,5.7-14.2,9.3c-2.8,4.2-5.1,10.2-2,14.9c6.7,10.2,18.4,18.6,29.7,16.2
				c11.6-2.4,14.5-14.3,10.3-24.7l0,0C248.6,53.4,249.1,51.2,245.1,51.1z"/>
			<path class="st4" d="M207.2,63.6c-1.9-2.3-1.8-4.9-1.3-7.3c0.3-1.5-0.4,3.9,5.9,2.7c5.1-1,11.3-4,16.1-0.8c6,3.9,5.1,9.9,4,14.1
				c-1.7,6.7,2.1,8,0.7,8C223,79.9,214,71.9,207.2,63.6z"/>
			<path class="st0" d="M211.1,76.2c3.1,2.7,7,4.6,11,5.3c1.6,0.3,5,0.4,5.5-1.9c0.5-2.2-2.2-2.5-3.8-2.3c-3.3,0.5,3.5-2.2-4-2.5
				c-4.4-0.2,2-2,1-3.9c-0.9-1.7-5.5-1-6.5-2.3c1.9-0.2,1.9-0.9,0.2-1.7c-2-1-6,1.6-9-6.7c-0.6-1.6-1.2,1.8-1.3,2.1
				c-0.3,3.2,1,6.6,2.7,9.3C208.1,73.3,209.5,74.8,211.1,76.2z"/>
		</g>
		<g>
			<path class="st0" d="M71.3,86.1c-0.3-2.3,6.2-6.6,5.2-6.2c-1.1,0.4-4.1,0.4-4.7-0.7c-1.2-2.3,1.9-1.7,6.9-6.8
				c1.4-1.4,3.3-3.5,4.6-4.9l0.1-0.1c1.8-2.1,3.8-3.9,6-5.5c-2.4-1.7,1.1-3.4,4.1-3c3.3,0.5-7.4-3.8,5.7-2.5c2,0.2-2.3-2.3,0.7-2.7
				c2.1-0.2,7.5,1.5,12.6,2.6c0.5,0.1,1.1,0.2,1.6,0.3c0.1,0,0.1,0,0.2,0h0.1c2.8,0.6,5.6,1.7,8.2,3c7.8,4.1,16.9,10,15.1,20.1
				c-0.5,2.9-1.2,5.8-2,8.7c-1.5,5.1-3.5,10-6.1,14.6c-2.7,4.8-4.8,10.1-8.8,13.8c-5,4.7-5.9,4.1-6.7,5.3c-2.2,3.1-4.1,3.8-4.2,2
				c0,0-6.1,3.5-4.4-0.6c-8.5,1.8-16.3-1.3-21.3-8.5c-2.1-3-6.7-10.5-8.2-19.8c-2.9,0-0.8-4.4-0.8-4.4C71.3,89,74.3,87,75.6,86
				c0-0.1,0-0.1,0-0.2C74.6,86.5,71.5,87.7,71.3,86.1z"/>
			<path class="st3" d="M88.9,89.9c0,0-5.5-0.8-1.4-3.8c1-0.8,3.6-2.1,0.9-2.3c-2.7-0.3-1.4-1.6,0.1-2.7c2.9-2.1-1.1-2.3-2.7-2.4
				c-1.7-0.1-0.6-1.7,3.5-3.1c1.4-0.5,2.4-0.3,3.5-1c1.6-0.9-3.6-1.9,2.5-3.2c1.6-0.3,2.2-0.2,6.4-1.6c0.1,0,0.1,0,0.2-0.1
				c0.2-0.1,0.3-0.1,0.5-0.2c0.1,0,0.1,0,0.2,0c6-1.8,13.1-0.5,16.9,1.6c4.5,2.4,9.3,6.6,8.8,12.2c-1.1,12.2-7.6,25-18.6,28.2
				c-11.4,3.3-19.5-5.9-20.6-17l0,0C86.9,93.6,85.5,91.8,88.9,89.9z"/>
			<path class="st4" d="M128.3,83.2c0.6-2.9-0.7-5.1-2.3-7.1c-1-1.2,2.2,3.3-4,5.1c-5,1.5-11.9,1.8-14.6,6.8
				c-3.4,6.3,0.1,11.1,3,14.3c4.6,5.1,1.9,8,3.1,7.4C122,105,126.2,93.7,128.3,83.2z"/>
			<path class="st0" d="M132.2,90.2c0.3-3.1-0.2-6.8-1.9-9.5c-0.2-0.3-2.3-2.9-2.1-1.3c1.2,8.6-3.5,8.3-4.8,10.1
				c-1.1,1.5-0.8,2.2,1,1.5c-0.3,1.6-4.7,3.1-4.7,5c0,2.2,6.6,0.8,2.7,3c-6.4,3.8,0.8,3-2.3,4.1c-1.5,0.5-3.8,2.1-2.3,3.8
				c1.5,1.7,4.5,0,5.8-1c3.2-2.4,5.8-5.9,7.3-9.8C131.6,94.2,132.1,92.2,132.2,90.2z"/>
		</g>
		<g>
			<path class="st1" d="M127.3,93.7c-5.9,16.9,0.5,37.9,4.5,46.4c4.8,10.2,24,40.4,58.7,31.3s40.6-45.3,37-63.6s-9.3-29-14.6-34.2
				c-1.8-1.8,24.7,33.6,0.1,69.8c-16.5,24.3-39.1,20.2-50.3,16.7C120.5,146.8,129.4,87.6,127.3,93.7z"/>
			<path class="st0" d="M127.8,93c6.7-16.1,12.8-19.4,19.7-23.5c0.3-0.2,0.6-0.3,0.9-0.5c0.2-0.1,0.4-0.2,0.6-0.3
				c0,0,3.4-1.3,4.9-4.8c0.4-1,1.4-4.2,3-3.3c0.9,0.5,1.3,3.1,2.1,3.1c1.5,0,1.8-1.6,1.7-2.8c-0.1-1-1-2.7-0.6-3.6
				c0.6-1,2.3-0.4,3.1-0.1c1.6,0.7,3.1,1.7,4.1,3.1c0.1,0.2,0.2,0.3,0.3,0.5c0.7,1.2,2,0.6,1-3c-0.4-1.6,4.9,0.5,5,3.3
				c0.1,1.6,3.3-4.4,6.7-0.2l0,0c14.2-0.8,25.9,6.3,31.1,11.1c5.3,4.9,11,13.6,15.2,32.3c3.3,14.7-4,53.8-36.4,62.8
				c-34,9.5-55.6-21.9-58.9-29.4C128.2,130.1,120.2,111,127.8,93z"/>
		</g>
		<g>
			<path class="st2" d="M188.3,106.6c-0.7-3.5-5-12-15.7-9.3s-10.1,11.5-9.7,14.5c0.5,3,5.6,29,19.5,25.5
				C195.3,134.1,189.8,114.7,188.3,106.6z"/>
			
				<ellipse transform="matrix(0.8001 -0.5998 0.5998 0.8001 -44.5951 131.4003)" class="st17" cx="174.9" cy="132.6" rx="2.2" ry="3.9"/>
			
				<ellipse transform="matrix(0.1555 -0.9878 0.9878 0.1555 29.9669 294.234)" class="st17" cx="187.1" cy="129.6" rx="3.9" ry="2.2"/>
			<ellipse transform="matrix(0.6831 -0.7303 0.7303 0.6831 -41.8389 170.1105)" cx="175.1" cy="133.3" rx="2.1" ry="3.3"/>
			<ellipse transform="matrix(0.3256 -0.9455 0.9455 0.3256 3.0851 264.958)" cx="187.3" cy="130.3" rx="3.3" ry="2.1"/>
		</g>
		<path class="st2" d="M188.3,106.6c-0.7-3.5-5-12-15.7-9.3s-10.1,11.5-9.7,14.5c0.5,3,5.6,29,19.5,25.5
			C195.3,134.1,189.8,114.7,188.3,106.6z"/>
		
			<ellipse transform="matrix(0.8001 -0.5998 0.5998 0.8001 -44.5951 131.4003)" class="st17" cx="174.9" cy="132.6" rx="2.2" ry="3.9"/>
		
			<ellipse transform="matrix(0.1555 -0.9878 0.9878 0.1555 29.9669 294.234)" class="st17" cx="187.1" cy="129.6" rx="3.9" ry="2.2"/>
		<ellipse transform="matrix(0.6831 -0.7303 0.7303 0.6831 -41.8389 170.1105)" cx="175.1" cy="133.3" rx="2.1" ry="3.3"/>
		<ellipse transform="matrix(0.3256 -0.9455 0.9455 0.3256 3.0851 264.958)" cx="187.3" cy="130.3" rx="3.3" ry="2.1"/>
		<g>
			<path class="st3" d="M188.9,161.7c11.1-2.8,12.2-12.5,12-19.4c-0.2-4.1-1.6-8.4-1.9-8.5c-0.4-0.1-3.3,6.7-14.8,9.9
				c-9,2.5-16-1.1-17.7-2.1c-0.2-0.1-0.2,0.2-0.2,0.3c0,2.3,0.5,5.3,1.4,7.7C171.6,159.6,177.9,164.5,188.9,161.7z"/>
			<path class="st19" d="M167.7,143.1c0.6,2,8.6,9.5,18.4,7.1c7.5-1.9,12.5-11.9,11.9-13.9s-1.5,4.8-13.8,7.5
				C172.1,146.4,167.1,141.1,167.7,143.1z"/>
			<path class="st2" d="M199.1,134.3c0.1-0.5-0.4-0.6-0.6-0.1c-1.9,3.6-5.8,12.4-13.5,14.2c-8.6,2-16.6-6-18.3-6.6
				c-0.5-0.2-0.5,0.2-0.4,0.5c1,2.1,10.1,12.3,19.7,10.2C194.8,150.5,198.3,138.4,199.1,134.3z"/>
		</g>
		<path class="st2" d="M199.1,134.2c0-0.1,0-0.3-0.1-0.4c-0.1-0.1-0.3,0-0.4,0c-2,1.4-6.9,6.1-15,8s-15.5,0.2-16.9-0.2
			c-0.8-0.2-0.7,0.5-0.4,0.8c1.4,1.7,8.1,4.7,17.9,2.4C194.5,142.4,198.4,136.2,199.1,134.2z"/>
		<g>
			<g>
				<path class="st16" d="M141.8,109.6c0.4-4.8,3.8-6.6,7.6-6.1c4,0.6,6.8,4.8,6.7,8.7c-0.2,4.4-4.4,7.3-8.5,6.4
					C143.3,117.6,141.5,113.1,141.8,109.6z"/>
			</g>
			<g>
				<path class="st2" d="M145.7,105.3c0.9-0.3,1.9-0.2,2.8,0c-0.7,0.3-1.3,1.1-1.4,2.2c-0.1,1.4,0.6,3.2,2.3,3.6
					c1.6,0.4,3.3-0.8,3.4-2.5v-0.1c0.2,0.3,0.4,0.7,0.5,1c1.3,3.2-0.8,6.6-4.1,7.2c-3.4,0.7-6.1-2.1-6.9-4.7
					C141,108.5,142.8,106.1,145.7,105.3z"/>
			</g>
		</g>
		<g>
			<g>
				<g>
					<path class="st16" d="M206.3,93.6c-2.6-4-6.5-4.1-9.5-1.8c-3.3,2.4-3.8,7.4-1.8,10.8c2.2,3.8,7.3,4.4,10.5,1.6
						C208.8,101.3,208.2,96.5,206.3,93.6z"/>
				</g>
			</g>
			<g>
				<path class="st2" d="M197.6,92.4c0.9-0.3,1.9-0.2,2.8,0c-0.7,0.3-1.3,1.1-1.4,2.2c-0.1,1.4,0.6,3.2,2.3,3.6
					c1.6,0.4,3.3-0.8,3.4-2.5v-0.1c0.2,0.3,0.4,0.7,0.5,1c1.3,3.2-0.8,6.6-4.1,7.2c-3.4,0.7-6.1-2.1-6.9-4.7
					C192.9,95.6,194.8,93.2,197.6,92.4z"/>
			</g>
		</g>
		<path class="st21" d="M149.6,88c-6.6-0.8-13,3.9-13.8,9.7"/>
		<path class="st21" d="M187.1,80.7c5.2-4.2,14.5-4.1,18.2,0.4"/>
		<path class="st22" d="M128.2,112.8c1,3.9,2.5,8.5,4.3,11c2.2,3.1,4,3.2,8.9,2.9c8.2-0.6,12.9-2.2,17.5-3.9
			c3.7-1.4,4.8-4.4,5.8-8.4c0.7-2.9,1.3-7.6,0.9-11.1c0-0.1,0-0.1,0-0.2c0.1-0.2,0.3-0.4,0.5-0.6c0.5-0.7,1.1-1.4,1.7-1.9
			c1.4-1.2,3.2-2,5.5-2.5c0.7-0.2,1.4-0.2,2.2-0.3h0.1c0.9-0.1,1.6-0.1,2.3,0c0.8,0.1,1.7,0.3,2.5,0.6c0.6,0.2,1.1,0.5,1.6,0.7
			c0,0.1,0.1,0.1,0.1,0.2c1.1,3.3,3.8,7,6,9.4c2.8,3.1,5.1,5.2,9.1,4.7c2.4-0.3,4.9-0.6,7.7-1.3c2.8-0.7,5.9-1.7,9.6-3.4
			c4.5-2,6-3,6.5-6.7c0.4-3.1-0.4-8-1.4-11.9l3-0.5l-1.2-2.6l-3.4-2c-0.8-1.5-2.1-2.8-4.2-2.7c-4.2,0.1-14.6,2-24.7,6
			c-0.7,0.3-1.3,0.5-1.9,0.8c-1.3,0.5-2.8,1.1-4.4,1.7c-0.5,0.1-9.6,2.8-10.8,3.1c-1.4,0.3-11,2.3-11.7,2.4
			c-1.4,0.2-2.7,0.3-3.9,0.4c0,0-1.3,0.1-2.1,0.2c-10.8,1.2-20.9,4.4-24.6,6.2c-1.9,1-2.4,2.7-2.4,4.3l-2.5,4.4l0.2,2L128.2,112.8z
			 M133.9,105.7c1.7-0.9,4.7-1.9,8.5-2.9c3.2-0.8,7.1-1.5,11.3-2c5.9-0.7,6.4-0.6,7.5,0.6c1.2,1.3,0.9,8.2-0.1,12s-1.9,5.6-4.4,6.5
			c-4.4,1.7-7.6,2.7-14.5,3.2c-4.3,0.3-5.2,0.2-6.8-1.9c-2-2.7-3.3-8.2-3.8-10C130.9,108.1,131,107.2,133.9,105.7z M185.2,95.4
			c0.4-1.6,0.8-1.9,6.3-4c3.9-1.5,7.7-2.7,10.9-3.5c3.8-1,7-1.4,8.9-1.4c3.3,0,3.8,0.7,4.6,3.9c0.4,1.8,1.8,7.2,1.3,10.6
			c-0.4,2.6-1.2,3.2-5.1,4.9c-6.4,2.8-9.7,3.3-14.3,3.9c-2.7,0.3-4.3-0.8-7-3.7C188.2,103.1,184.8,97.1,185.2,95.4z"/>
	</g>
</g>
</svg>
