<svg xmlns="http://www.w3.org/2000/svg" xmlns:xlink="http://www.w3.org/1999/xlink" version="1.1" x="0px" y="0px" viewBox="0 0 65 65" enable-background="new 0 0 65 65" xml:space="preserve">
    <g><path style="stroke: currentColor;  fill: currentColor" d="M64.5,36.9H43.7c-0.1-1.3-0.6-2.4-1.5-3.2c-1.5-1.3-3.7-1.6-5.3-1.5c1.9-2.1,3.2-4.8,3.3-7.8c0.9-0.7,3.4-3,3.3-5.4   c-0.1-2.4-1.6-2.5-2.1-2.5c0,0-0.1,0-0.1,0l0.4-3.6c0.3-4.7-2.1-6.2-3.5-6.7c0.1-0.8-0.1-1.4-0.4-1.8c-1.4-2.1-6.2-2.5-9.9-2.5   c-1,0-1.7,0-1.7,0c-5.9,0-7.6,2.9-8.1,4.2c-5,0.6-4.8,5.5-4.7,8c0,0.4,0,0.8,0,1.1c0,0.5,0,1,0.1,1.5c-0.7,0-2,0.4-2,2.5   c-0.1,2.4,2.4,4.7,3.3,5.4c0.1,2.9,1.4,5.5,3.2,7.6c-1.5,0-3.9,0.2-5.4,1.5c-1.1,0.9-1.6,2.3-1.5,3.9c0,0.6,0.1,1.3,0.3,1.9   c-7,2.3-11.8,8.9-11.8,16.3v3.2h39.5v3.3c0,0.4,0.3,0.8,0.8,0.8h24.5c0.4,0,0.8-0.3,0.8-0.8v-6.1c0-0.4-0.3-0.8-0.8-0.8H40   c-0.4,0-0.8,0.3-0.8,0.8v1.3h-38v-1.7c0-6.8,4.4-12.8,10.8-14.9c0.3,0.5,0.6,1.1,1,1.6c1,1.3,2.9,3.2,5.6,4.6   c2.7,1.5,5.9,2.2,9,2.2c4,0,8.1-1.2,11.1-3.6c0.6-0.4,1-0.8,1.5-1.2h24.2c0.4,0,0.8-0.3,0.8-0.8v-6.1   C65.2,37.3,64.9,36.9,64.5,36.9z M40.7,57h23v4.6h-23V57z M27.6,37.1c2.1,0,4.7-1,7-2.8c0,1.6-0.4,4.3-2,6.3   c-1.2,1.4-3,2.2-5.1,2.3c-2.2-0.1-4-0.9-5.2-2.3c-1.7-2-2-4.8-2-6.4C22.5,36,25.2,37.1,27.6,37.1z M18.8,7.6l0.6,0L19.5,7   c0,0,0.7-3.6,6.8-3.6c0,0,0.7,0,1.6,0c4.6,0,7.9,0.7,8.7,1.9c0.1,0.2,0.3,0.5,0,1.2l-0.4,1l1,0.1c0.1,0,3.2,0.3,3,5.3l-0.4,3.6   L38.1,17c-0.4-0.5-1-0.7-1.3-0.8c-0.6-0.1-1.5-0.2-2.5-0.2c-1.7,0-3.3,0.2-3.4,0.2c-1.3,0.2-2.2,0.6-2.6,1.4c0,0.1,0,0.1-0.1,0.2   H27c0-0.1,0-0.1-0.1-0.2c-0.4-0.8-1.3-1.3-2.6-1.4c-0.1,0-1.7-0.2-3.4-0.2c-1,0-1.9,0.1-2.5,0.2c-0.3,0.1-0.9,0.3-1.3,0.8l-2-0.8   c0-0.4-0.1-0.7-0.1-1c0-0.3,0-0.7,0-1.2C14.9,10.8,15.1,7.8,18.8,7.6z M37.2,19.4l-0.1,0.7c-0.3,1.8-0.4,2.1-1.2,2.3   c0,0-1,0.2-2.1,0.2c-1.3,0-2.2-0.3-2.7-0.7c-0.2-0.3-0.8-1.4-1.3-2.7c0,0-0.2-0.5,0-0.8c0.2-0.3,0.7-0.5,1.4-0.6   c0,0,1.6-0.2,3.2-0.2c0.9,0,1.7,0.1,2.2,0.2C36.8,17.8,37.5,18.1,37.2,19.4z M25.5,19.3c-0.5,1.3-1.1,2.4-1.3,2.6   c-0.5,0.5-1.4,0.7-2.7,0.7c-1.1,0-2.1-0.2-2.1-0.2v0c-0.9-0.3-1-0.6-1.3-2.3L18,19.4c-0.2-1.4,0.5-1.6,0.7-1.7   c0.5-0.1,1.3-0.2,2.2-0.2c1.6,0,3.2,0.2,3.2,0.2c0.8,0.1,1.3,0.3,1.4,0.6C25.8,18.7,25.6,19.2,25.5,19.3z M16.4,23.9l-0.3-0.2   c-0.9-0.7-3-2.7-3-4.4c0-1,0.4-1.1,0.7-1.1c0.4,0,0.8-0.2,1-0.4l1.7,0.7c-0.1,0.4-0.1,0.8,0,1.2l0.1,0.7c0.3,1.8,0.5,3,2.4,3.5   c0,0,1.1,0.2,2.4,0.2h0c1.8,0,3.1-0.4,3.8-1.3l0.1-0.1c0-0.1,0.9-1.4,1.4-2.9c0,0,0.1-0.3,0.2-0.5h1.1c0.1,0.3,0.2,0.5,0.2,0.5   c0.6,1.6,1.4,2.9,1.5,3l0.1,0.1c0.8,0.8,2.1,1.3,3.8,1.3c1.3,0,2.4-0.2,2.5-0.3c1.9-0.6,2.1-1.7,2.4-3.5l0.1-0.7   c0.1-0.5,0.1-0.9,0-1.2l1.6-0.6c0.2,0.1,0.4,0.2,0.6,0.2l0.3,0c0.1,0,0.2,0,0.3,0c0.2,0,0.6,0,0.6,1.1c0,1.7-2.2,3.8-3,4.4   l-0.3,0.2V24c0,3.3-1.8,6.3-4.2,8.4l0,0l0,0c-2.2,1.9-4.8,3.1-6.9,3.1c-5,0-11.1-5.1-11.2-11.4L16.4,23.9z M37.9,44.6   c-4.9,3.8-12.8,4.3-18.5,1.2c-2.5-1.4-4.2-3.1-5.1-4.3c-0.7-0.9-1.6-2.3-1.6-4c0-1.2,0.3-2.1,1-2.7c1.4-1.2,3.9-1.2,5.1-1.1   c0,1.6,0.1,5.2,2.4,7.9c1.5,1.8,3.6,2.7,6.3,2.9c2.7-0.2,4.8-1.1,6.3-2.9c2.3-2.6,2.4-6.3,2.4-7.9c1.4-0.1,3.8,0,5.1,1.1   c0.6,0.5,0.9,1.2,1,2.1H40c-0.4,0-0.8,0.3-0.8,0.8v5.8C38.8,43.8,38.4,44.2,37.9,44.6z M63.7,43.1h-23v-4.6h23V43.1z"></path>
        <rect style="stroke: currentColor; fill: currentColor" x="60.5" y="40" width="1.5" height="1.5"></rect>
        <rect style="stroke: currentColor; fill: currentColor" x="54.4" y="40" width="0.9" height="1.5"></rect>
        <rect style="stroke: currentColor; fill: currentColor" x="57.2" y="40" width="1.5" height="1.5"></rect>
        <rect style="stroke: currentColor; fill: currentColor" x="43" y="40" width="6.5" height="1.5"></rect>
        <path style="stroke: currentColor; fill: currentColor" d="M64.5,46.2H40c-0.4,0-0.8,0.3-0.8,0.8v6.1c0,0.4,0.3,0.8,0.8,0.8h24.5c0.4,0,0.8-0.3,0.8-0.8V47   C65.2,46.5,64.9,46.2,64.5,46.2z M63.7,52.3h-23v-4.6h23V52.3z"></path><rect x="57.2" y="49.3" width="1.5" height="1.5"></rect><rect x="54.4" y="49.3" width="0.9" height="1.5"></rect><rect x="60.5" y="49.3" width="1.5" height="1.5"></rect><rect x="43" y="49.3" width="6.5" height="1.5"></rect><rect x="60.5" y="58.5" width="1.5" height="1.5"></rect><rect x="57.2" y="58.5" width="1.5" height="1.5"></rect>
        <rect style="stroke: currentColor; fill: currentColor" x="54.4" y="58.5" width="0.9" height="1.5"></rect>
        <rect style="stroke: currentColor; fill: currentColor" x="43" y="58.5" width="6.5" height="1.5"></rect></g>
</svg>