<svg
        class="svg-icon"
        xmlns:dc="http://purl.org/dc/elements/1.1/"
        xmlns:cc="http://creativecommons.org/ns#"
        xmlns:rdf="http://www.w3.org/1999/02/22-rdf-syntax-ns#"
        xmlns:svg="http://www.w3.org/2000/svg"
        xmlns="http://www.w3.org/2000/svg"
        id="svg4"
        version="1.1"
        y="0px"
        x="0px"
        viewBox="0 0 62.25 61"
        data-name="Layer 1"
        class="svg-icon">
    <metadata
            id="metadata10">
        <rdf:RDF>
            <cc:Work
                    rdf:about="">
                <dc:format>image/svg+xml</dc:format>
                <dc:type
                        rdf:resource="http://purl.org/dc/dcmitype/StillImage"/>
                <dc:title></dc:title>
            </cc:Work>
        </rdf:RDF>
    </metadata>
    <defs
            id="defs8"/>
    <path
            id="path2"
            d="M 60.25,12.73 H 6 a 1,1 0 0 1 0,-2 H 60.25 V 1.98 H 2 v 56 a 1,1 0 0 0 1,1 h 56.25 a 1,1 0 0 0 1,-1 V 16.73 a 1,1 0 0 1 2,0 V 58 a 3,3 0 0 1 -3,3 H 3 A 3,3 0 0 1 0,58 V 2 A 2,2 0 0 1 2,0 h 58.25 a 2,2 0 0 1 2,2 v 8.75 a 2,2 0 0 1 -2,1.98 z m -47.37,29 a 1,1 0 0 1 -1,-1 V 24.49 a 1,1 0 0 1 1,-1 h 19.74 a 1,1 0 0 1 1,1 v 16.24 a 1,1 0 0 1 -1,1 H 12.87 Z m 1,-2 H 31.62 V 25.49 H 13.87 V 39.73 Z M 49.5,23.49 h -9 a 1,1 0 0 0 0,2 h 9 a 1,1 0 0 0 0,-2 z m 0,8 h -9 a 1,1 0 0 0 0,2 h 9 a 1,1 0 0 0 0,-2 z m 0,8 h -9 a 1,1 0 0 0 0,2 h 9 a 1,1 0 0 0 0,-2 z m -38.88,9.36 a 1,1 0 0 0 1,1 H 49.5 a 1,1 0 0 0 0,-2 H 11.62 a 1,1 0 0 0 -1,1 z M 6.56,8.2 a 1.5,1.5 0 1 0 -1.5,-1.5 1.5,1.5 0 0 0 1.5,1.5 z m 7.5,-1.5 a 1.5,1.5 0 1 0 -1.5,1.5 1.5,1.5 0 0 0 1.5,-1.5 z m 6,0 a 1.5,1.5 0 1 0 -1.5,1.5 1.5,1.5 0 0 0 1.5,-1.5 z"/>
</svg>
