<svg class="svg-icon" xmlns="http://www.w3.org/2000/svg" xmlns:xlink="http://www.w3.org/1999/xlink" version="1.1" x="0px" y="0px" viewBox="0 0 100 100" enable-background="new 0 0 100 100" xml:space="preserve"><g><path d="M6.158,91.263C3.321,91.263,1,88.94,1,86.104v-72.21c0-2.836,2.321-5.157,5.158-5.157h87.684   c2.838,0,5.158,2.321,5.158,5.157v72.21c0,2.836-2.32,5.158-5.158,5.158H6.158z M3.579,24.211h92.843V13.895   c0-1.418-1.16-2.576-2.58-2.576H6.158c-1.42,0-2.579,1.158-2.579,2.576V24.211z M96.422,26.79H3.579v59.314   c0,1.42,1.159,2.58,2.579,2.58h87.684c1.42,0,2.58-1.16,2.58-2.58V26.79z M10.026,15.185c1.805,0,2.579,0.772,2.579,2.579   c0,1.805-0.774,2.579-2.579,2.579s-2.579-0.774-2.579-2.579C7.447,15.957,8.222,15.185,10.026,15.185z M19.053,15.185   c1.805,0,2.579,0.772,2.579,2.579c0,1.805-0.774,2.579-2.579,2.579s-2.579-0.774-2.579-2.579   C16.474,15.957,17.248,15.185,19.053,15.185z M28.079,15.185c1.805,0,2.579,0.772,2.579,2.579c0,1.805-0.774,2.579-2.579,2.579   c-1.807,0-2.579-0.774-2.579-2.579C25.5,15.957,26.272,15.185,28.079,15.185z"></path></g></svg>