<svg class="svg-icon" xmlns="http://www.w3.org/2000/svg" xmlns:xlink="http://www.w3.org/1999/xlink" version="1.1" x="0px" y="0px" viewBox="0 0 65 65" enable-background="new 0 0 65 65" xml:space="preserve"><g><path d="M13.6,31.5c-1.7,0-3,1.4-3,3c0,1.7,1.4,3,3,3c1.4,0,2.6-1,2.9-2.3h6.3v19.8h1.5V33.8h-7.8C16.1,32.5,15,31.5,13.6,31.5z    M13.6,36.1c-0.8,0-1.5-0.7-1.5-1.5c0-0.8,0.7-1.5,1.5-1.5c0.8,0,1.5,0.7,1.5,1.5C15.1,35.4,14.4,36.1,13.6,36.1z"></path><path d="M22.8,26c0-1.7-1.4-3-3-3c-1.7,0-3,1.4-3,3s1.4,3,3,3c0.6,0,1.2-0.2,1.6-0.5l7,6.5v24.1h1.5V34.3l-7.5-6.9   C22.6,27,22.8,26.5,22.8,26z M19.8,27.5c-0.8,0-1.5-0.7-1.5-1.5s0.7-1.5,1.5-1.5s1.5,0.7,1.5,1.5S20.6,27.5,19.8,27.5z"></path><path d="M56.4,37.6c1.7,0,3-1.4,3-3c0-1.7-1.4-3-3-3c-1.4,0-2.6,1-2.9,2.3h-7.8v21.3h1.5V35.3h6.3C53.8,36.6,55,37.6,56.4,37.6z    M56.4,33c0.8,0,1.5,0.7,1.5,1.5c0,0.8-0.7,1.5-1.5,1.5c-0.8,0-1.5-0.7-1.5-1.5C54.9,33.7,55.6,33,56.4,33z"></path><path d="M50.2,29c1.7,0,3-1.4,3-3s-1.4-3-3-3c-1.7,0-3,1.4-3,3c0,0.5,0.1,1,0.4,1.4l-7.5,6.9v24.8h1.5V35l7-6.5   C49,28.8,49.6,29,50.2,29z M50.2,24.5c0.8,0,1.5,0.7,1.5,1.5s-0.7,1.5-1.5,1.5c-0.8,0-1.5-0.7-1.5-1.5S49.4,24.5,50.2,24.5z"></path><path d="M35,19c-1.7,0-3,1.4-3,3c0,1.4,1,2.6,2.3,2.9v32.2h1.5V24.9C37,24.6,38,23.4,38,22C38,20.3,36.7,19,35,19z M35,23.5   c-0.8,0-1.5-0.7-1.5-1.5s0.7-1.5,1.5-1.5s1.5,0.7,1.5,1.5S35.8,23.5,35,23.5z"></path><path d="M50.7,16.1c-0.9,0-2.3,0.2-3.2,0.4c-1.7-6.2-7.5-10.7-14-10.7c-6.3,0-11.8,4.1-13.8,10c-1-0.3-2-0.5-3-0.5   c-7.5,0-9.1,6.6-9.4,8.6c-4.4,1.2-7.5,5.2-7.5,9.8c0,5.6,4.5,10.1,10.1,10.1c1.3,0,2.5-0.2,3.7-0.7c1.6,1.8,3.9,2.9,6.4,2.9v-1.5   c-3.2,0-6-2.1-6.9-5.2l-1.4,0.4c0.2,0.8,0.6,1.5,1,2.2c-0.9,0.3-1.8,0.4-2.7,0.4c-4.7,0-8.6-3.9-8.6-8.6c0-4.1,2.9-7.6,6.9-8.4   l0.6-0.1l0-0.6c0-0.3,0.6-7.7,8-7.7c0.9,0,1.8,0.2,2.6,0.4c-0.2,1-0.3,2.1-0.3,3.2h1.5c0-1.1,0.1-2.3,0.4-3.4   c1.5-5.7,6.7-9.7,12.6-9.7c6.1,0,11.4,4.3,12.7,10.2l0.2,0.7l0.7-0.2c0,0,2.4-0.5,3.6-0.5c7.2,0,13.1,5.9,13.1,13.1   s-5.9,13.1-13.1,13.1v1.5c8,0,14.6-6.5,14.6-14.6S58.7,16.1,50.7,16.1z"></path></g></svg>