<svg class="svg-icon" height='100px' width='100px'  fill="currentColor" xmlns="http://www.w3.org/2000/svg" data-name="Layer 1" viewBox="0 0 100 100" x="0px" y="0px"><defs><style>.cls-1{stroke:currentColor;stroke-miterlimit:10;stroke-width:0.01px;}</style></defs><title>collections_09</title><path class="cls-1" d="M90.15,61.38H65.38V36.62a2,2,0,0,0-2-2H38.62V9.85a2,2,0,0,0-2-2H9.85a2,2,0,0,0-2,2V90.15a2,2,0,0,0,2,2H90.15a2,2,0,0,0,2-2V63.38A2,2,0,0,0,90.15,61.38ZM34.62,88.15H11.85V65.38H34.62Zm0-26.76H11.85V38.62H34.62Zm0-26.76H11.85V11.85H34.62ZM61.38,88.15H38.62V65.38H61.38Zm0-26.76H38.62V38.62H61.38ZM88.15,88.15H65.38V65.38H88.15Z"></path></svg>