<svg xmlns:dc="http://purl.org/dc/elements/1.1/" xmlns:cc="http://creativecommons.org/ns#" xmlns:rdf="http://www.w3.org/1999/02/22-rdf-syntax-ns#" xmlns:svg="http://www.w3.org/2000/svg" xmlns="http://www.w3.org/2000/svg" version="1.1" viewBox="0 0 100 100" xml:space="preserve" x="0px" y="0px"><path d="m 23.15625,5 a 5.352268,5.352268 0 0 0 -4.96875,5.34375 5.359375,5.359375 0 1 0 10.71875,0 A 5.352268,5.352268 0 0 0 23.15625,5 z M 38.125,8.125 c -1.242578,0 -2.25,0.9761717 -2.25,2.21875 0,1.242578 1.007422,2.25 2.25,2.25 l 41.4375,0 c 1.242578,0 2.25,-1.007422 2.25,-2.25 0,-1.2425783 -1.007422,-2.21875 -2.25,-2.21875 l -41.4375,0 z M 23.71875,24.8125 a 5.352268,5.352268 0 0 0 -5.53125,5.375 5.359375,5.359375 0 1 0 10.71875,0 5.352268,5.352268 0 0 0 -5.1875,-5.375 z m 14.40625,3.125 c -1.242578,0 -2.25,1.007422 -2.25,2.25 0,1.242578 1.007422,2.25 2.25,2.25 l 41.4375,0 c 1.242578,0 2.25,-1.007422 2.25,-2.25 0,-1.242578 -1.007422,-2.25 -2.25,-2.25 l -41.4375,0 z M 23.15625,44.65625 A 5.352268,5.352268 0 0 0 18.1875,50 a 5.359375,5.359375 0 1 0 10.71875,0 5.352268,5.352268 0 0 0 -5.75,-5.34375 z M 38.125,47.75 c -1.242578,0 -2.25,1.007422 -2.25,2.25 0,1.242578 1.007422,2.25 2.25,2.25 l 41.4375,0 c 1.242578,0 2.25,-1.007422 2.25,-2.25 0,-1.242578 -1.007422,-2.25 -2.25,-2.25 l -41.4375,0 z M 23.15625,64.46875 a 5.352268,5.352268 0 0 0 -4.96875,5.34375 5.359375,5.359375 0 1 0 10.71875,0 5.352268,5.352268 0 0 0 -5.75,-5.34375 z M 38.125,67.5625 c -1.242578,0 -2.25,1.007422 -2.25,2.25 0,1.242578 1.007422,2.25 2.25,2.25 l 41.4375,0 c 1.242578,0 2.25,-1.007422 2.25,-2.25 0,-1.242578 -1.007422,-2.25 -2.25,-2.25 l -41.4375,0 z M 23.71875,84.28125 a 5.352268,5.352268 0 0 0 -5.53125,5.375 5.359375,5.359375 0 1 0 10.71875,0 5.352268,5.352268 0 0 0 -5.1875,-5.375 z m 14.40625,3.125 c -1.242578,0 -2.25,1.007422 -2.25,2.25 0,1.242578 1.007422,2.21875 2.25,2.21875 l 41.4375,0 c 1.242578,0 2.25,-0.976172 2.25,-2.21875 0,-1.242578 -1.007422,-2.25 -2.25,-2.25 l -41.4375,0 z" style="" fill="currentColor" fill-opacity="1" fill-rule="evenodd" stroke="none"></path></svg>