<svg
        class="svg-icon"
        xmlns:dc="http://purl.org/dc/elements/1.1/" xmlns:cc="http://creativecommons.org/ns#"
     xmlns:rdf="http://www.w3.org/1999/02/22-rdf-syntax-ns#" xmlns:svg="http://www.w3.org/2000/svg"
     xmlns="http://www.w3.org/2000/svg"
     xmlns:sodipodi="http://sodipodi.sourceforge.net/DTD/sodipodi-0.dtd"
     xmlns:inkscape="http://www.inkscape.org/namespaces/inkscape" version="1.1" x="0px" y="0px"
     viewBox="0 0 100 100">
    <g transform="translate(0,-952.36218)">
        <path style="text-indent:0;text-transform:none;direction:ltr;block-progression:tb;baseline-shift:baseline;color:currentColor;enable-background:accumulate;"
              d="m 28.633514,961.2606 c -0.4584,0.0875 -0.8206,0.53333 -0.8124,0.99987 l 0,5.49925 -7.0616,0 c -0.051,-0.0145 -0.1033,-0.025 -0.1561,-0.0312 -0.4212,0.009 -0.8191,0.31442 -0.9375,0.71865 L 7.0426143,1007.5668 c -0.072,11.5839 -0.031,23.2803 -0.031,34.9016 0,0.5235 0.4763,0.9998 0.9999,0.9998 l 83.9885957,0 c 0.5235,0 0.9998,-0.4763 0.9999,-0.9998 0,-11.3323 -0.125,-23.6802 -0.125,-35.0578 L 80.314214,968.44718 c -0.1292,-0.39277 -0.5239,-0.68223 -0.9374,-0.68741 l -7.2178,0 0,-5.49925 c 0,-0.52351 -0.4763,-0.99982 -0.9999,-0.99987 l -42.3379,0 c -0.062,-0.006 -0.1252,-0.006 -0.1875,0 z m 1.1873,1.99973 40.3383,0 c -0.016,3.53552 0,7.00513 0,10.52983 -0.01,0.52823 0.4715,1.01409 0.9998,1.01409 0.5284,0 1.0074,-0.48586 0.9999,-1.01409 l 0,-4.03071 6.4991,0 11.935996,37.11995 -12.279596,0 0,-8.12387 c 0,-0.52351 -0.4764,-0.99982 -0.9999,-0.99986 l -54.6489,0 c -0.5235,0 -0.9998,0.47635 -0.9999,0.99986 l 0,8.12387 -12.2794997,0 11.9671997,-37.11995 6.4678,0 0,4.03071 c -0.01,0.52823 0.4715,1.01409 0.9999,1.01409 0.5283,0 1.0073,-0.48586 0.9998,-1.01409 0.015,-3.53475 0,-7.00082 0,-10.52983 z m -6.1555,36.49507 52.6492,0 0,7.124 -7.499,0 c -0.2987,-2e-4 -0.5945,0.1418 -0.7811,0.3749 -1.5928,2.0501 -3.2056,4.0846 -4.8118,6.1242 -8.8217,0 -17.6435,0 -26.4652,0 -1.597,-2.0389 -3.2267,-4.0522 -4.7806,-6.1242 -0.1931,-0.2415 -0.5034,-0.3847 -0.8125,-0.3749 l -7.499,0 z m -14.6541997,9.1237 c 7.2398997,0 14.4534997,0 21.6845997,0 1.6009,2.0438 3.2074,4.0832 4.8118,6.1242 0.1867,0.2331 0.4825,0.3751 0.7811,0.3749 9.1342,0 18.2685,0 27.4026,0 0.3091,0.01 0.6194,-0.1334 0.8124,-0.3749 1.5941,-2.0409 3.1847,-4.0847 4.7806,-6.1242 7.2443,0 14.4669,0 21.715796,0 l 0,32.5893 -81.9888957,0 z"
              fill="currentColor" fill-opacity="1" fill-rule="evenodd" stroke="none" marker="none"
              visibility="visible" display="inline" overflow="visible"></path>
        <path style="text-indent:0;text-transform:none;direction:ltr;block-progression:tb;baseline-shift:baseline;color:currentColor;enable-background:accumulate;"
              d="m 40.651414,1025.7474 a 1.0001,1.0001 0 0 0 -1,1 l 0,7.7 a 1.0001,1.0001 0 0 0 1,1 l 18.69,0 a 1.0001,1.0001 0 0 0 1,-1 l 0,-7.7 a 1.0001,1.0001 0 0 0 -1,-1 l -18.69,0 z m 1,2 16.69,0 0,5.7 -16.69,0 0,-5.7 z"
              fill="currentColor" fill-opacity="1" fill-rule="evenodd" stroke="none" marker="none"
              visibility="visible" display="inline" overflow="visible"></path>
        <path style="text-indent:0;text-transform:none;direction:ltr;block-progression:tb;baseline-shift:baseline;color:currentColor;enable-background:accumulate;"
              d="m 25.751414,979.4873 a 1.0001,1.0001 0 0 0 -1,1 l 0,11.17 a 1.0001,1.0001 0 1 0 2,0 l 0,-10.17 46.5,0 0,10.17 a 1.0001,1.0001 0 1 0 2,0 l 0,-11.17 a 1.0001,1.0001 0 0 0 -1,-1 l -48.5,0 z"
              fill="currentColor" fill-opacity="1" fill-rule="evenodd" stroke="none" marker="none"
              visibility="visible" display="inline" overflow="visible"></path>
    </g>
</svg>