<svg class="svg-icon"
     xmlns:dc="http://purl.org/dc/elements/1.1/" xmlns:cc="http://creativecommons.org/ns#"
     xmlns:rdf="http://www.w3.org/1999/02/22-rdf-syntax-ns#" xmlns:svg="http://www.w3.org/2000/svg"
     xmlns="http://www.w3.org/2000/svg"
     xmlns:sodipodi="http://sodipodi.sourceforge.net/DTD/sodipodi-0.dtd"
     xmlns:inkscape="http://www.inkscape.org/namespaces/inkscape" viewBox="0 0 64.000001 64.000001"
     version="1.1" x="0px" y="0px">
    <g transform="translate(0,-988.36218)">
        <path style="color:currentColor;font-style:normal;font-variant:normal;font-weight:normal;font-stretch:normal;font-size:medium;line-height:normal;font-family:sans-serif;text-indent:0;text-align:start;text-decoration:none;text-decoration-line:none;text-decoration-style:solid;text-decoration-color:currentColor;letter-spacing:normal;word-spacing:normal;text-transform:none;direction:ltr;block-progression:tb;writing-mode:lr-tb;baseline-shift:baseline;text-anchor:start;white-space:normal;clip-rule:nonzero;display:inline;overflow:visible;visibility:visible;opacity:1;isolation:auto;mix-blend-mode:normal;color-interpolation:sRGB;color-interpolation-filters:linearRGB;solid-color:currentColor;solid-opacity:1;fill:currentColor;fill-opacity:1;fill-rule:nonzero;stroke:none;stroke-width:4;stroke-linecap:round;stroke-linejoin:round;stroke-miterlimit:4;stroke-dasharray:none;stroke-dashoffset:0;stroke-opacity:1;color-rendering:auto;image-rendering:auto;shape-rendering:auto;text-rendering:auto;enable-background:accumulate"
              d="m 32,992.36133 c -15.440293,0 -28.0000118,12.55967 -28,27.99997 0,15.4403 12.559716,28 28,28 15.440284,0 27.999987,-12.5597 28,-28 2e-6,-3.1758 -0.530174,-6.235 -1.507812,-9.0859 a 2.0002,2.0002 0 1 0 -3.783204,1.2969 c 0.836954,2.4406 1.291018,5.0578 1.291016,7.789 -1.1e-5,13.2785 -10.721478,24 -24,24 -13.278522,0 -24,-10.7215 -24,-24 -1.02e-5,-13.2785 10.721471,-23.99997 24,-23.99997 5.253914,0 10.093319,1.68207 14.042969,4.53707 a 2.0002938,2.0002938 0 1 0 2.34375,-3.24215 C 43.781069,994.32702 38.109258,992.36133 32,992.36133 Z"></path>
        <path style="color:currentColor;font-style:normal;font-variant:normal;font-weight:normal;font-stretch:normal;font-size:medium;line-height:normal;font-family:sans-serif;text-indent:0;text-align:start;text-decoration:none;text-decoration-line:none;text-decoration-style:solid;text-decoration-color:currentColor;letter-spacing:normal;word-spacing:normal;text-transform:none;direction:ltr;block-progression:tb;writing-mode:lr-tb;baseline-shift:baseline;text-anchor:start;white-space:normal;clip-rule:nonzero;display:inline;overflow:visible;visibility:visible;opacity:1;isolation:auto;mix-blend-mode:normal;color-interpolation:sRGB;color-interpolation-filters:linearRGB;solid-color:currentColor;solid-opacity:1;fill:currentColor;fill-opacity:1;fill-rule:evenodd;stroke:none;stroke-width:4;stroke-linecap:round;stroke-linejoin:round;stroke-miterlimit:4;stroke-dasharray:none;stroke-dashoffset:0;stroke-opacity:1;color-rendering:auto;image-rendering:auto;shape-rendering:auto;text-rendering:auto;enable-background:accumulate"
              d="m 58.025391,996.33984 a 2.0002,2.0002 0 0 0 -1.53125,0.70508 l -26.591797,30.39058 -10.488282,-10.4882 a 2.000449,2.000449 0 1 0 -2.828124,2.83 l 12,12 a 2.0002,2.0002 0 0 0 2.919921,-0.098 l 28,-32.00001 a 2.0002,2.0002 0 0 0 -1.480468,-3.33985 z"></path>
    </g>
</svg>