<svg class="svg-icon" height='100px' width='100px'  fill="currentColor" xmlns="http://www.w3.org/2000/svg" xmlns:xlink="http://www.w3.org/1999/xlink" version="1.1" x="0px" y="0px" viewBox="0 0 32 32" style="enable-background:new 0 0 32 32;" xml:space="preserve"><path d="M29.6,3.1l-0.7-0.7c-0.2-0.2-0.5-0.2-0.7,0L16,14.6L3.8,2.4c-0.2-0.2-0.5-0.2-0.7,0L2.4,3.1c-0.2,0.2-0.2,0.5,0,0.7L14.6,16  L2.4,28.2c-0.2,0.2-0.2,0.5,0,0.7l0.7,0.7c0.2,0.2,0.5,0.2,0.7,0L16,17.4l12.2,12.2c0.2,0.2,0.5,0.2,0.7,0l0.7-0.7  c0.2-0.2,0.2-0.5,0-0.7L17.4,16L29.6,3.8C29.8,3.6,29.8,3.3,29.6,3.1z"></path></svg>