<svg xmlns="http://www.w3.org/2000/svg" xmlns:xlink="http://www.w3.org/1999/xlink" version="1.1" x="0px" y="0px" viewBox="0 0 52 52" enable-background="new 0 0 52 52" xml:space="preserve"><g><g><path stroke="currentColor" fill="currentColor"  d="M44,29h-7.6011009v-2H44c2.2055969,0,4-1.7943993,4-4c0-1.7933998-1.2196999-3.3745003-2.9658012-3.8437004    l-1.0205002-0.2743988l0.3305016-1.0039005c0.2016983-0.6138,0.3041992-1.2455997,0.3041992-1.8780003    c0-3.3085995-2.6914024-6-6-6c-0.7757988,0-1.5355988,0.1495008-2.2583008,0.4439001l-0.954998,0.3887005l-0.3594017-0.9664001    c-1.3061981-3.5086999-4.6928978-5.8662-8.4272976-5.8662c-4.6826,0-8.533699,3.5142002-8.9575005,8.1744003L17.4487019,14.835    l-1.5644007-2.1659994C15.1182013,11.6084003,13.9385014,11,12.6484013,11c-2.2054996,0-4,1.7945004-4,4    c0,0.8575001,0.2837,1.6865997,0.8203001,2.397501L10.6792011,19H8.0000019c-2.2056003,0-4.0000005,1.7945004-4.0000005,4    c0,2.2056007,1.7944002,4,4.0000005,4h7.5917997v2H8.0000019c-3.3086004,0-6.0000005-2.6914005-6.0000005-6    c0-2.977499,2.1802001-5.4554996,5.0283003-5.921299C6.7773013,16.4165001,6.6484013,15.7159004,6.6484013,15    c0-3.3085995,2.6914005-6,6-6c1.2227001,0,2.4063005,0.3824005,3.3964996,1.0669003    c1.2807999-4.7118998,5.5449009-8.0668993,10.6035004-8.0668993c4.2408009,0,8.1142979,2.4854,9.9228992,6.2753992    C37.2476006,8.0923004,37.9428978,8,38.6483994,8c4.4111977,0,8,3.5889006,8,8c0,0.5240002-0.0522003,1.0464001-0.1562004,1.5625    C48.5985985,18.5249004,50,20.6392002,50,23C50,26.3085995,47.3085976,29,44,29z"></path></g><g><path stroke="currentColor" fill="currentColor"  d="M28.8320007,50h-5.6639996l-0.6308994-3.786602c-1.0018997-0.2792969-1.9647999-0.6791992-2.8754997-1.1947975    l-3.1264,2.2338982l-4.0054007-4.0053978l2.2339001-3.1268997c-0.5160999-0.9107018-0.9160004-1.8736-1.1948996-2.875    l-3.7866001-0.6309013v-5.6641006l3.7866001-0.6307983c0.2788992-1.0015011,0.6787996-1.9644012,1.1948996-2.8755016    L12.5298014,24.3174l4.0054007-4.0053997l3.1264,2.2339001c0.9111996-0.5161076,1.8739986-0.9160004,2.8754997-1.1947994    l0.6308994-3.7866001h5.6639996l0.6309013,3.7866001c1.0014992,0.2787991,1.9643002,0.6786919,2.8749962,1.1947994    l3.1269035-2.2339001L39.4701996,24.3174l-2.233902,3.1264992c0.5157013,0.9106007,0.9155998,1.8735008,1.1949005,2.8755016    l3.7861023,0.6307983v5.6641006l-3.7861023,0.6309013c-0.2793007,1.0018997-0.6791992,1.964798-1.1949005,2.875    l2.233902,3.1268997l-4.0053978,4.0053978l-3.1269035-2.2338982c-0.9101963,0.5155983-1.8730965,0.9155006-2.8749962,1.1947975    L28.8320007,50z M24.8623009,48h2.2754002l0.5713005-3.4277L28.3682022,44.4263    c1.2328987-0.2733994,2.4037991-0.7598,3.4794998-1.4458008l0.5692978-0.3628006l2.8320007,2.0224991l1.6088982-1.6088982    l-2.0224991-2.8320007l0.3628006-0.5694008c0.6861-1.0756989,1.1723976-2.2465973,1.445797-3.4794998l0.1459999-0.6591988    l3.4273033-0.5712013v-2.2753983l-3.4273033-0.5713005l-0.1459999-0.6591988    c-0.2733994-1.2329006-0.759697-2.403801-1.445797-3.4800014l-0.3628006-0.5693073l2.0224991-2.8315926l-1.6088982-1.608799    l-2.8320007,2.0223923l-0.5692978-0.362793c-1.0767002-0.6864986-2.2476006-1.1728001-3.4794998-1.4452991l-0.6592007-0.1459999    l-0.5713005-3.4281998h-2.2754002l-0.5712986,3.4281998l-0.6592007,0.1459999    c-1.2318993,0.2724991-2.4027996,0.7588005-3.4799004,1.4452991l-0.5693989,0.362793l-2.831501-2.0223923l-1.6089001,1.608799    l2.022501,2.8315926l-0.3628006,0.5693073c-0.6865997,1.0771999-1.1729002,2.2481003-1.4454002,3.4800014l-0.1459999,0.6591988    l-3.4281998,0.5713005v2.2753983l3.4281998,0.5712013l0.1459999,0.6591988    c0.2725,1.2320023,0.7588005,2.4029007,1.4454002,3.4794998l0.3628006,0.5694008l-2.022501,2.8320007l1.6089001,1.6088982    l2.831501-2.0224991l0.5693989,0.3628006c1.0760994,0.6860008,2.2469997,1.1724014,3.4799004,1.4458008L24.2910023,44.5723    L24.8623009,48z"></path></g><g><path stroke="currentColor" fill="currentColor"  d="M26.0000019,40.7280998c-3.830101,0-6.9463005-3.115799-6.9463005-6.9458008    c0-3.8300991,3.1161995-6.9462986,6.9463005-6.9462986s6.9457989,3.1161995,6.9457989,6.9462986    C32.9458008,37.6123009,29.830101,40.7280998,26.0000019,40.7280998z M26.0000019,28.8360004    c-2.7275009,0-4.9463005,2.2186985-4.9463005,4.9462986c0,2.7270012,2.2187996,4.9458008,4.9463005,4.9458008    c2.7271004,0,4.9457989-2.2187996,4.9457989-4.9458008C30.9458008,31.0546989,28.7271023,28.8360004,26.0000019,28.8360004z"></path></g></g></svg>