<svg xmlns="http://www.w3.org/2000/svg" xmlns:xlink="http://www.w3.org/1999/xlink" xml:space="preserve" version="1.1" style="shape-rendering:geometricPrecision;text-rendering:geometricPrecision;image-rendering:optimizeQuality;" viewBox="0 0 333 333" x="0px" y="0px" fill-rule="evenodd" clip-rule="evenodd"><defs><style type="text/css">

    .fil0 {fill:currentColor}

  </style></defs><g><path fill="currentColor" class="fil0" d="M257 175c-1,18 -6,35 -14,50l23 0c33,0 33,-50 0,-50l-9 0zm-132 -28c0,0 -25,-12 -29,-35 -6,-34 43,-17 14,-79 0,0 18,13 21,38 2,24 -36,27 -6,76zm61 0c0,0 -25,-12 -29,-35 -6,-34 43,-17 14,-79 0,0 18,13 20,38 3,24 -35,27 -5,76zm-143 132l64 0c-48,-16 -81,-64 -77,-117 79,0 157,0 236,0 51,0 51,77 0,77l-32 0c-13,18 -33,32 -55,40l66 0c14,0 14,21 0,21l-202 0c-14,0 -14,-21 0,-21z"></path></g></svg>