<svg xmlns="http://www.w3.org/2000/svg" data-name="Layer 1" viewBox="0 0 100 100" x="0px" y="0px">
<path fill="currentColor" d="M13.7,64.73h0Z"></path>
<path fill="currentColor" d="M99.24,81.79c-2.84-4.54-5.84-9-8.68-13.51a3.8,3.8,0,0,0-3.63-2q-36.88.06-73.76,0a3.8,3.8,0,0,0-3.63,2C6.73,72.73,3.86,77.14.95,81.52a4,4,0,0,0-.59,4.14c0.7,1.45,2.17,1.17,3.44,1.17H96.69a8.71,8.71,0,0,0,1.51-.12A1.91,1.91,0,0,0,100,84.63,6.36,6.36,0,0,0,99.24,81.79ZM38.7,81.52c0.12-1,.2-2,0.4-3a1.07,1.07,0,0,1,.85-0.46q10.12,0,20.24,0a1.11,1.11,0,0,1,.85.62,26.84,26.84,0,0,1,.37,2.81H38.7ZM86,76H14.29c-2.22,0-2.43-.34-1.37-2.27,0.64-1.17,1.34-2.32,1.92-3.52A2.08,2.08,0,0,1,17,68.93c5.22,0.05,10.45,0,15.67,0q25.24,0,50.48,0a1.87,1.87,0,0,1,2,1.12c0.64,1.33,1.42,2.59,2.12,3.89C88.17,75.61,87.93,76,86,76Z"></path>
<path fill="currentColor" d="M13.7,64.73H86c1.67,0,2.09-.39,2.09-2q0-21.78,0-43.56A5.93,5.93,0,0,0,86,14.51a6.93,6.93,0,0,0-4.82-1.37q-27.05,0-54.1,0c-3.14,0-6.29,0-9.43,0-3.86.05-6.19,2.43-6.19,6.29q0,21.5,0,43C11.47,64.39,11.81,64.73,13.7,64.73Zm5-46.26,62.12,0c1.71,0,1.93.24,1.92,1.91q0,14.56-.06,29.12c0,2.71,0,5.43.05,8.14,0,1.63-.18,1.81-1.86,1.81H18.77c-1.86,0-2-.13-2-2q0-18.5,0-37C16.78,18.56,16.85,18.47,18.71,18.47Z"></path>
</svg>