<svg xmlns="http://www.w3.org/2000/svg" xmlns:xlink="http://www.w3.org/1999/xlink" version="1.1" viewBox="0 0 104 104" overflow="visible" enable-background="new 0 0 104 104" xml:space="preserve" x="0px" y="0px"><g><path d="M31.023,42.189c-2.717,0-31.023,0-31.023,0v18.077c0,0,27.869,0,30.496,0c0.069,1.954,0.357,10.029,0.357,10.029   L50.01,51.847L31.023,32.144C31.023,32.144,31.023,40.229,31.023,42.189z M34.023,45.189c0,0,0-3.56,0-5.609   c3.282,3.406,10.261,10.647,11.745,12.188c-1.563,1.504-8.979,8.646-12.156,11.705c-0.083-2.309-0.222-6.207-0.222-6.207   s-27.679,0-30.39,0c0-2.164,0-9.913,0-12.077C5.717,45.189,34.023,45.189,34.023,45.189z"></path></g><g><path d="M53.991,51.412l18.986,19.704c0,0,0-8.087,0-10.047c2.717,0,31.022,0,31.022,0V42.994c0,0-27.869,0-30.496,0   c-0.069-1.954-0.355-10.029-0.355-10.029L53.991,51.412z M70.389,39.787c0.082,2.309,0.221,6.207,0.221,6.207s27.679,0,30.391,0   c0,2.164,0,9.912,0,12.076c-2.717,0-31.022,0-31.022,0s0,3.56,0,5.609c-3.282-3.405-10.26-10.647-11.744-12.188   C59.796,49.987,67.212,42.846,70.389,39.787z"></path></g><g><path d="M43.734,0c0,0,0,27.87,0,30.496c-1.954,0.07-10.029,0.358-10.029,0.358L52.153,50.01l19.704-18.987c0,0-8.086,0-10.047,0   c0-2.717,0-31.023,0-31.023H43.734z M58.811,3c0,2.717,0,31.023,0,31.023s3.56,0,5.609,0c-3.405,3.282-10.647,10.261-12.188,11.745   c-1.504-1.563-8.646-8.979-11.706-12.156c2.309-0.083,6.208-0.222,6.208-0.222s0-27.679,0-30.39C48.898,3,56.646,3,58.811,3z"></path></g><g><path d="M32.884,72.979c0,0,8.086,0,10.046,0c0,2.717,0,31.021,0,31.021h18.075c0,0,0-27.869,0-30.496   c1.954-0.069,10.029-0.355,10.029-0.355L52.588,53.99L32.884,72.979z M52.508,58.232c1.505,1.563,8.646,8.979,11.705,12.156   c-2.309,0.082-6.207,0.221-6.207,0.221s0,27.679,0,30.391c-2.164,0-9.911,0-12.075,0c0-2.717,0-31.021,0-31.021s-3.56,0-5.61,0   C43.726,66.696,50.968,59.717,52.508,58.232z"></path></g></svg>