<svg class="svg-icon" xmlns="http://www.w3.org/2000/svg" xmlns:xlink="http://www.w3.org/1999/xlink" version="1.1" x="0px" y="0px" viewBox="0 0 68 68"
	 style="enable-background:new 0 0 68 68;" xml:space="preserve">
<style type="text/css">
	.st0{fill:currentColor;}
</style>
<g><g><path class="st0" d="M22.7,49c0.3,0,0.6-0.1,0.7-0.3l2-2c0.4-0.4,0.4-0.9,0.1-1.3l-1.4-1.9c0.5-0.9,0.9-1.8,1.1-2.7l2.4-0.3    c0.5-0.1,0.9-0.5,0.9-1v-2.9c0-0.5-0.4-0.9-0.9-1l-2.4-0.3c-0.3-1-0.6-1.9-1.1-2.7l1.4-1.9c0.3-0.4,0.2-1-0.1-1.4l-2-2    c-0.4-0.4-0.9-0.4-1.3-0.1l-1.9,1.4c-0.9-0.5-1.8-0.9-2.7-1.1l-0.3-2.4c-0.1-0.5-0.5-0.9-1-0.9h-2.9c-0.5,0-0.9,0.4-1,0.9L12,27.5    c-1,0.3-1.9,0.6-2.7,1.1l-1.9-1.4c-0.4-0.3-1-0.3-1.3,0.1l-2,2c-0.4,0.4-0.4,0.9-0.1,1.3l1.4,1.9c-0.5,0.9-0.9,1.8-1.1,2.7    l-2.4,0.3c-0.5,0.1-0.9,0.5-0.9,1v2.9c0,0.5,0.4,0.9,0.9,1l2.4,0.3c0.2,1,0.6,1.9,1.1,2.7l-1.4,1.9c-0.3,0.4-0.3,1,0.1,1.3l2,2    c0.4,0.4,0.9,0.4,1.3,0.1l1.9-1.4c0.9,0.5,1.8,0.9,2.7,1.1l0.3,2.4c0.1,0.5,0.5,0.9,1,0.9h2.9c0.5,0,0.9-0.4,1-0.9l0.3-2.4    c1-0.3,1.9-0.6,2.7-1.1l1.9,1.4C22.3,48.9,22.5,49,22.7,49z M19.7,45.3c-1,0.7-2.1,1.1-3.3,1.4c-0.4,0.1-0.7,0.4-0.8,0.9l-0.3,2.2    h-1.1l-0.3-2.2c-0.1-0.4-0.4-0.8-0.8-0.9c-1.2-0.2-2.3-0.7-3.3-1.4c-0.4-0.2-0.8-0.2-1.2,0l-1.7,1.3L6,45.9l1.3-1.7    c0.3-0.3,0.3-0.9,0-1.2c-0.7-1-1.1-2.1-1.4-3.3c-0.1-0.4-0.4-0.7-0.9-0.8L3,38.6v-1.1l2.2-0.3C5.6,37.1,6,36.8,6,36.3    C6.3,35.1,6.7,34,7.4,33c0.2-0.4,0.2-0.8,0-1.2L6,30.1l0.8-0.8l1.7,1.3c0.3,0.3,0.9,0.3,1.2,0c1-0.7,2.1-1.1,3.3-1.4    c0.4-0.1,0.7-0.4,0.8-0.9l0.3-2.2h1.1l0.3,2.2c0.1,0.4,0.4,0.8,0.8,0.9c1.2,0.2,2.3,0.7,3.3,1.4c0.4,0.2,0.8,0.2,1.2,0l1.7-1.3    l0.8,0.8l-1.3,1.7c-0.3,0.3-0.3,0.8,0,1.2c0.7,1,1.1,2.1,1.4,3.3c0.1,0.4,0.4,0.7,0.9,0.8l2.2,0.3v1.1l-2.2,0.3    c-0.4,0.1-0.8,0.4-0.9,0.8c-0.2,1.2-0.7,2.3-1.4,3.3c-0.2,0.4-0.2,0.8,0,1.2l1.3,1.7l-0.8,0.8l-1.7-1.3    C20.5,45.1,20.1,45.1,19.7,45.3z"></path></g><g><path class="st0" d="M14.7,31.2C11,31.2,8,34.3,8,38c0,3.7,3,6.8,6.8,6.8c3.7,0,6.8-3,6.8-6.8C21.5,34.3,18.5,31.2,14.7,31.2z     M14.7,42.8c-2.6,0-4.8-2.1-4.8-4.8c0-2.6,2.1-4.8,4.8-4.8c2.6,0,4.8,2.1,4.8,4.8C19.5,40.6,17.4,42.8,14.7,42.8z"></path></g><g><path class="st0" d="M66.1,35.6l-2.4-0.3c-0.3-1-0.6-1.9-1.1-2.7l1.4-1.8c0.3-0.4,0.3-1-0.1-1.4l-2-2c-0.4-0.4-0.9-0.4-1.3-0.1    l-1.9,1.4c-0.9-0.5-1.8-0.9-2.7-1.1l-0.3-2.4c-0.1-0.5-0.5-0.9-1-0.9h-2.9c-0.5,0-0.9,0.4-1,0.9l-0.3,2.4c-1,0.3-1.9,0.6-2.7,1.1    l-1.9-1.4c-0.4-0.3-1-0.3-1.3,0.1l-2,2c-0.4,0.4-0.4,0.9-0.1,1.3l1.4,1.9c-0.5,0.9-0.9,1.8-1.1,2.7l-2.4,0.3    c-0.5,0.1-0.9,0.5-0.9,1v2.9c0,0.5,0.4,0.9,0.9,1l2.4,0.3c0.3,1,0.6,1.9,1.1,2.7l-1.4,1.9c-0.3,0.4-0.3,1,0.1,1.3l2,2    c0.4,0.4,0.9,0.4,1.3,0.1l1.9-1.4c0.9,0.5,1.8,0.9,2.7,1.1l0.3,2.4c0.1,0.5,0.5,0.9,1,0.9h2.9c0.5,0,0.9-0.4,1-0.9l0.3-2.4    c1-0.3,1.9-0.6,2.7-1.1l1.9,1.4c0.2,0.1,0.4,0.2,0.6,0.2c0.3,0,0.6-0.1,0.7-0.3l2-2c0.4-0.4,0.4-0.9,0.1-1.3l-1.4-1.9    c0.5-0.9,0.9-1.8,1.1-2.7l2.4-0.3c0.5-0.1,0.9-0.5,0.9-1v-2.9C67,36.1,66.6,35.6,66.1,35.6z M65,38.6l-2.2,0.3    c-0.4,0.1-0.8,0.4-0.9,0.8c-0.2,1.2-0.7,2.3-1.4,3.3c-0.2,0.4-0.2,0.8,0,1.2l1.3,1.7l-0.8,0.8l-1.7-1.3c-0.3-0.3-0.8-0.3-1.2,0    c-1,0.7-2.1,1.1-3.3,1.4c-0.4,0.1-0.7,0.4-0.8,0.9l-0.3,2.2h-1.1l-0.3-2.2c-0.1-0.4-0.4-0.8-0.8-0.9c-1.2-0.2-2.3-0.7-3.3-1.4    c-0.4-0.2-0.8-0.2-1.2,0l-1.7,1.3l-0.8-0.8l1.3-1.7c0.3-0.3,0.3-0.9,0-1.2c-0.7-1-1.1-2.1-1.4-3.3c-0.1-0.4-0.4-0.7-0.9-0.8    l-2.2-0.3v-1.1l2.2-0.3c0.4-0.1,0.8-0.4,0.9-0.8c0.2-1.2,0.7-2.3,1.4-3.3c0.2-0.4,0.2-0.8,0-1.2l-1.3-1.7l0.8-0.8l1.7,1.3    c0.3,0.3,0.9,0.3,1.2,0c1-0.7,2.1-1.1,3.3-1.4c0.4-0.1,0.7-0.4,0.8-0.9l0.3-2.2h1.1l0.3,2.2c0.1,0.4,0.4,0.8,0.8,0.9    c1.2,0.2,2.3,0.7,3.3,1.4c0.4,0.2,0.8,0.2,1.2,0l1.7-1.3l0.8,0.8l-1.3,1.7c-0.3,0.3-0.3,0.8,0,1.2c0.7,1,1.1,2.1,1.4,3.3    c0.1,0.4,0.4,0.7,0.9,0.8l2.2,0.3V38.6z"></path></g><g><path class="st0" d="M53.3,31.2c-3.7,0-6.8,3-6.8,6.8c0,3.7,3,6.8,6.8,6.8c3.7,0,6.8-3,6.8-6.8C60,34.3,57,31.2,53.3,31.2z     M53.3,42.8c-2.6,0-4.8-2.1-4.8-4.8c0-2.6,2.1-4.8,4.8-4.8c2.6,0,4.8,2.1,4.8,4.8C58,40.6,55.9,42.8,53.3,42.8z"></path></g><g><path class="st0" d="M20.6,17.7l2.5,0.3c0.3,1,0.7,2,1.2,2.9l-1.5,2c-0.3,0.4-0.3,1,0.1,1.3l2.1,2.1c0.4,0.4,0.9,0.4,1.3,0.1    l2-1.5c0.9,0.5,1.9,0.9,2.9,1.2l0.3,2.5c0.1,0.5,0.5,0.9,1,0.9h3c0.5,0,0.9-0.4,1-0.9l0.3-2.5c1-0.3,2-0.7,2.9-1.2l2,1.5    c0.2,0.1,0.4,0.2,0.6,0.2c0.3,0,0.6-0.1,0.7-0.3l2.1-2.1c0.4-0.4,0.4-0.9,0.1-1.3l-1.5-2c0.5-0.9,0.9-1.9,1.2-2.9l2.5-0.3    c0.5-0.1,0.9-0.5,0.9-1v-3c0-0.5-0.4-0.9-0.9-1l-2.5-0.3c-0.3-1-0.7-2-1.2-2.9l1.5-1.9c0.3-0.4,0.3-1-0.1-1.4L43,4.1    c-0.4-0.4-0.9-0.4-1.3-0.1l-2,1.5c-0.9-0.5-1.9-0.9-2.9-1.2l-0.3-2.5C36.4,1.4,36,1,35.5,1h-3c-0.5,0-0.9,0.4-1,0.9l-0.3,2.5    c-1,0.3-2,0.7-2.9,1.2l-2-1.5c-0.4-0.3-1-0.3-1.3,0.1l-2.1,2.1c-0.4,0.4-0.4,0.9-0.1,1.3l1.5,2c-0.5,0.9-0.9,1.9-1.2,2.9l-2.5,0.3    c-0.5,0.1-0.9,0.5-0.9,1v3C19.8,17.2,20.1,17.7,20.6,17.7z M21.8,14.6l2.3-0.3c0.4-0.1,0.8-0.4,0.9-0.8c0.2-1.3,0.7-2.4,1.4-3.5    c0.2-0.4,0.2-0.8,0-1.2L24.9,7l0.9-0.9l1.8,1.4c0.3,0.3,0.9,0.3,1.2,0c1-0.7,2.2-1.2,3.4-1.4c0.4-0.1,0.7-0.4,0.8-0.9L33.4,3h1.2    l0.3,2.3c0.1,0.4,0.4,0.8,0.8,0.9c1.3,0.2,2.4,0.7,3.5,1.4c0.4,0.2,0.8,0.2,1.2,0l1.8-1.4L43.1,7l-1.4,1.8c-0.3,0.3-0.3,0.8,0,1.2    c0.7,1,1.2,2.2,1.4,3.5c0.1,0.4,0.4,0.7,0.9,0.8l2.3,0.3v1.2l-2.3,0.3c-0.4,0.1-0.8,0.4-0.9,0.8c-0.2,1.3-0.7,2.4-1.4,3.5    c-0.2,0.4-0.2,0.8,0,1.2l1.4,1.8l-0.9,0.9l-1.8-1.4c-0.3-0.3-0.8-0.3-1.2,0c-1,0.7-2.2,1.2-3.5,1.4c-0.4,0.1-0.7,0.4-0.8,0.9    l-0.3,2.3h-1.2l-0.3-2.3c-0.1-0.4-0.4-0.8-0.8-0.9c-1.3-0.2-2.4-0.7-3.5-1.4c-0.4-0.2-0.8-0.2-1.2,0l-1.8,1.4l-0.9-0.9l1.4-1.8    c0.3-0.3,0.3-0.9,0-1.2c-0.7-1-1.2-2.2-1.4-3.4c-0.1-0.4-0.4-0.7-0.9-0.8l-2.3-0.3V14.6z"></path></g><g><path class="st0" d="M34,22.2c3.9,0,7-3.1,7-7c0-3.9-3.1-7-7-7c-3.9,0-7,3.1-7,7C27,19.1,30.1,22.2,34,22.2z M34,10.2    c2.8,0,5,2.2,5,5c0,2.7-2.2,5-5,5c-2.8,0-5-2.2-5-5C29,12.5,31.2,10.2,34,10.2z"></path></g><g><path class="st0" d="M39.6,53.9h-2.3c2.4-1.2,4.1-3.7,4.1-6.5c0-4-3.3-7.3-7.3-7.3c-4,0-7.3,3.3-7.3,7.3c0,2.9,1.7,5.4,4.1,6.5    h-2.5c-3.9,0-7,3.2-7,7v5c0,0.6,0.4,1,1,1h23.2c0.6,0,1-0.4,1-1v-5C46.6,57.1,43.5,53.9,39.6,53.9z M28.8,47.4    c0-2.9,2.4-5.3,5.3-5.3c2.9,0,5.3,2.4,5.3,5.3c0,2.9-2.4,5.3-5.3,5.3C31.2,52.6,28.8,50.3,28.8,47.4z M44.6,65H23.4v-4    c0-2.8,2.3-5,5-5h11.1c2.8,0,5,2.3,5,5V65z"></path></g><g><path class="st0" d="M18.5,65H7.8V54.6l2.8,2.8c0.4,0.4,1,0.4,1.4,0c0.4-0.4,0.4-1,0-1.4l-4.6-4.6C7,51,6.4,51,6,51.3L1.4,56    c-0.4,0.4-0.4,1,0,1.4c0.4,0.4,1,0.4,1.4,0l3-3V66c0,0.6,0.4,1,1,1h11.7c0.6,0,1-0.4,1-1C19.5,65.4,19.1,65,18.5,65z"></path></g><g><path class="st0" d="M62,51.3c-0.4-0.4-1-0.4-1.4,0L55.9,56c-0.4,0.4-0.4,1,0,1.4c0.4,0.4,1,0.4,1.4,0l2.8-2.8V65H49.5    c-0.6,0-1,0.4-1,1c0,0.6,0.4,1,1,1h11.7c0.6,0,1-0.4,1-1V54.4l3,3c0.4,0.4,1,0.4,1.4,0c0.4-0.4,0.4-1,0-1.4L62,51.3z"></path></g></g>
</svg>