<svg xmlns="http://www.w3.org/2000/svg" viewBox="0 0 56 56" x="0px" y="0px"><title>document</title><path d="M39.73,24.37a1.05,1.05,0,0,0-1.17-.3l-.7.31v3.7H31a1,1,0,0,0,0,2h8.86v-2.5L43.7,32l-3.84,4.42v-1.5a1,1,0,0,0-2,0v4a1.06,1.06,0,0,0,.7,1l.71.23,6.47-7.45a1.12,1.12,0,0,0,0-1.42Z"></path><path d="M25.5,21.5h5a1,1,0,0,0,0-2h-4v-4a1,1,0,0,0-2,0v5A1,1,0,0,0,25.5,21.5Z"></path><path d="M42.5,9.5a1,1,0,0,0-2,0v5a1,1,0,0,0,1,1h5a1,1,0,0,0,0-2h-4Z"></path><path d="M51.2,9.9,43.87,4.4a2,2,0,0,0-1.2-.4H22.5A2.5,2.5,0,0,0,20,6.5V10H6.5A2.5,2.5,0,0,0,4,12.5v37A2.5,2.5,0,0,0,6.5,52h27A2.5,2.5,0,0,0,36,49.5V46H49.5A2.5,2.5,0,0,0,52,43.5v-32A2,2,0,0,0,51.2,9.9ZM50,43.5a.5.5,0,0,1-.5.5H36V41a1,1,0,0,0-2,0v8.5a.5.5,0,0,1-.5.5H6.5a.5.5,0,0,1-.5-.5v-37a.5.5,0,0,1,.5-.5H26.67L34,17.5v6.81a1,1,0,1,0,2,0V17.5a2,2,0,0,0-.8-1.6l-7.33-5.5a2,2,0,0,0-1.2-.4H22V6.5a.5.5,0,0,1,.5-.5H42.67L50,11.5Z"></path><path d="M18,30h6a1,1,0,0,0,0-2H18a1,1,0,0,0,0,2Z"></path><path d="M29,33a1,1,0,0,0-1-1H14a1,1,0,0,0,0,2H28A1,1,0,0,0,29,33Z"></path><path d="M34,36H20a1,1,0,0,0,0,2H34a1,1,0,0,0,0-2Z"></path></svg>