<svg enable-background="new 0 0 281 370" height="64" viewBox=".83 5.58 64 64.000001" width="64" xmlns="http://www.w3.org/2000/svg" xmlns:xlink="http://www.w3.org/1999/xlink"><linearGradient id="a"><stop offset="0" stop-color="#fff000"/><stop offset="1" stop-color="#f5911e"/></linearGradient><radialGradient id="b" cx="37.02941783824" cy="18.3417771164" gradientUnits="userSpaceOnUse" r="32.70532564166" xlink:href="#a"/><radialGradient id="c" cx="37.27586712692" cy="18.34123987308" gradientUnits="userSpaceOnUse" r="32.7188964779" xlink:href="#a"/><g stroke-width=".134378" transform="matrix(1.8097487 0 0 1.8097487 -13.34347 -14.371298)"><path d="m40.454447 37.098262c-.846582 0-1.65285-.215005-2.365054-.577826-.913771 2.123173-2.889127 3.708834-5.334808 4.004466-.268756.02688-.524074.04031-.79283.04031-3.372888 0-6.208265-2.526307-6.611399-5.885758-.01344-.09407-.02688-.174691-.05375-.282194-.389696-2.123173-1.518472-3.937276-3.090695-5.227305.524075.107502 1.075025.147816 1.639412.147816 1.787228 0 3.641645-.510637 5.522937-1.518472 0 0 .01344 0 .01344-.01344l.02688-.01344c.02688-.01344.05375-.04031.08063-.04031 0 0 .591263-.349383 1.491596-.577826.04031 0 .08063-.01344.134378-.01344.255318-.02688.510637-.04031.765955-.04031 1.706601 0 3.292262.671891 4.501664 1.77379.940646-1.236277 2.405366-2.029108 4.085091-2.029108.09407 0 .174691.01344.268756.01344a10.94509 10.94509 0 0 0 -2.217237-2.096298c-1.840978-1.478158-3.923838-2.217237-6.194826-2.217237-1.800666 0-3.708834.510637-5.106365 1.357218-.833144.443448-2.069422.967522-3.346013.967522-1.195965 0-2.163486-.443447-2.956317-1.357218-.67189-.779393-1.034711-1.720039-1.048149-2.714436.06719-1.061587.497199-2.042546 1.22284-2.75475.792831-.79283 1.854417-1.22284 2.983193-1.22284 1.142213 0 2.203799.443448 3.010068 1.249716.295631.309069.550949.645014.752517 1.021273.403134.765955 1.182526 1.236278 2.029108 1.236278.36282 0 .739079-.09407 1.061586-.255318 1.115338-.577826 1.558785-1.975358.967522-3.090695-.416572-.792831-.940646-1.505034-1.558785-2.123173-1.666288-1.679725-3.883525-2.606934-6.248579-2.606934-2.082859 0-4.09853.739079-5.68419 2.069422-.02688.01344-.06719.04031-.12094.08063-.06719.05375-.134378.12094-.201567.188129l-.08063.08063c-.01344.01344-.02688.02688-.04031.02688-.02688.02688-.06719.05375-.09406.09406-.01344.01344-.04031.04031-.05375.06719-.161253.161254-.309069.322508-.456885.510637l-.02688.02688c-.02688.02688-.05375.06719-.08063.09407-1.155651 1.370656-1.787228 3.050381-1.867855 4.824171-.107502 2.230675.658452 4.407599 2.163486 6.127638.30907.349383.618139.67189.967522.954084-.927208-.201567-1.921605-.255318-2.902565-.134378-4.824172.577825-8.291125 4.971986-7.7132995 9.796157.4971987 4.434476 4.2597835 7.780488 8.7211335 7.780488.349383 0 .698766-.02688 1.048149-.06719.886895-.107502 1.746914-.335945 2.539745-.698765 1.155651-.510637 1.679725-1.867855 1.155651-3.023506-.362821-.819706-1.195965-1.357218-2.096298-1.357218-.322507 0-.631576.06719-.927208.201567-.389696.174691-.79283.282194-1.22284.335945-.161254.01344-.335945.02688-.510637.02688-2.13661 0-3.950713-1.612537-4.206032-3.73571-.134378-1.115338.174692-2.230675.886895-3.11757.698766-.886895 1.706601-1.451283 2.821939-1.585661.161254-.01344.335945-.02688.497198-.02688 2.136611 0 3.950714 1.599099 4.206033 3.722272.01344.09406.02688.174691.04031.255318.43001 2.620372 1.800666 5.012301 3.829774 6.73234 2.029108 1.720038 4.609166 2.660684 7.256413 2.660684.443448 0 .886895-.02688 1.330343-.08063 4.824171-.577826 8.573317-4.138843 9.621468-8.613632-.698769.403134-1.545348.631576-2.432243.631576z" fill="url(#b)"/><path d="m40.454447 37.098262c-.846582 0-1.65285-.215005-2.365054-.577826-.913771 2.123173-2.889127 3.708834-5.334808 4.004466-.268756.02688-.524074.04031-.79283.04031-3.372888 0-6.208265-2.526307-6.611399-5.885758-.01344-.09407-.02688-.174691-.05375-.282194-.389696-2.123173-1.518472-3.937276-3.090695-5.227305.524075.107502 1.075025.147816 1.639412.147816 1.787228 0 3.641645-.510637 5.522937-1.518472 0 0 .01344 0 .01344-.01344l.02688-.01344c.02688-.01344.05375-.04031.08063-.04031 0 0 .591263-.349383 1.491596-.577826.04031 0 .08063-.01344.134378-.01344.255318-.02688.510637-.04031.765955-.04031 1.706601 0 3.292262.671891 4.501664 1.77379.940646-1.236277 2.405366-2.029108 4.085091-2.029108.09407 0 .174691.01344.268756.01344a10.94509 10.94509 0 0 0 -2.217237-2.096298c-1.840978-1.478158-3.923838-2.217237-6.194826-2.217237-1.800666 0-3.708834.510637-5.106365 1.357218-.833144.443448-2.069422.967522-3.346013.967522-1.195965 0-2.163486-.443447-2.956317-1.357218-.67189-.779393-1.034711-1.720039-1.048149-2.714436.06719-1.061587.497199-2.042546 1.22284-2.75475.792831-.79283 1.854417-1.22284 2.983193-1.22284 1.142213 0 2.203799.443448 3.010068 1.249716.295631.309069.550949.645014.752517 1.021273.403134.765955 1.182526 1.236278 2.029108 1.236278.36282 0 .739079-.09407 1.061586-.255318 1.115338-.577826 1.558785-1.975358.967522-3.090695-.416572-.792831-.940646-1.505034-1.558785-2.123173-1.666288-1.679725-3.883525-2.606934-6.248579-2.606934-2.082859 0-4.09853.739079-5.68419 2.069422-.02688.01344-.06719.04031-.12094.08063-.06719.05375-.134378.12094-.201567.188129l-.08063.08063c-.01344.01344-.02688.02688-.04031.02688-.02688.02688-.06719.05375-.09406.09406-.01344.01344-.04031.04031-.05375.06719-.161253.161254-.309069.322508-.456885.510637l-.02688.02688c-.02688.02688-.05375.06719-.08063.09407-1.155651 1.370656-1.787228 3.050381-1.867855 4.824171-.107502 2.230675.658452 4.407599 2.163486 6.127638.30907.349383.618139.67189.967522.954084-.927208-.201567-1.921605-.255318-2.902565-.134378-4.824172.577825-8.291125 4.971986-7.7132995 9.796157.4971987 4.434476 4.2597835 7.780488 8.7211335 7.780488.349383 0 .698766-.02688 1.048149-.06719.886895-.107502 1.746914-.335945 2.539745-.698765 1.155651-.510637 1.679725-1.867855 1.155651-3.023506-.362821-.819706-1.195965-1.357218-2.096298-1.357218-.322507 0-.631576.06719-.927208.201567-.389696.174691-.79283.282194-1.22284.335945-.161254.01344-.335945.02688-.510637.02688-2.13661 0-3.950713-1.612537-4.206032-3.73571-.134378-1.115338.174692-2.230675.886895-3.11757.698766-.886895 1.706601-1.451283 2.821939-1.585661.161254-.01344.335945-.02688.497198-.02688 2.136611 0 3.950714 1.599099 4.206033 3.722272.01344.09406.02688.174691.04031.255318.43001 2.620372 1.800666 5.012301 3.829774 6.73234 2.029108 1.720038 4.609166 2.660684 7.256413 2.660684.443448 0 .886895-.02688 1.330343-.08063 4.824171-.577826 8.573317-4.138843 9.621468-8.613632-.698769.403134-1.545348.631576-2.432243.631576z" fill="#f6921e" opacity=".6"/><circle cx="40.454449" cy="31.97846" fill="url(#c)" r="2.741312"/><circle cx="40.454449" cy="31.97846" fill="#f6921e" opacity=".6" r="2.741312"/></g></svg>