<svg xmlns:dc="http://purl.org/dc/elements/1.1/" xmlns:cc="http://creativecommons.org/ns#" xmlns:rdf="http://www.w3.org/1999/02/22-rdf-syntax-ns#" xmlns:svg="http://www.w3.org/2000/svg" xmlns="http://www.w3.org/2000/svg" xmlns:sodipodi="http://sodipodi.sourceforge.net/DTD/sodipodi-0.dtd" xmlns:inkscape="http://www.inkscape.org/namespaces/inkscape" version="1.1" x="0px" y="0px" viewBox="0 0 100 100"><g transform="translate(0,-952.36218)"><path style="text-indent:0;text-transform:none;direction:ltr;block-progression:tb;baseline-shift:baseline;color:currentColor;enable-background:accumulate;" d="m 49.875103,954.36237 c -19.85322,0.063 -35.94173,15.5847 -35.875,34.6838 0.0133,0.4251 0.33435,0.8229 0.75,0.929 l 27.53125,22.73033 c -3.76042,0 -7.52083,0 -11.28125,0 0,13.2377 0,26.192 0,37.6567 13.35829,0 26.4308,0 38,0 0,-13.0663 0,-26.4542 0,-37.6567 -3.75,0 -7.5,0 -11.25,0 9.31944,-7.6166 18.59417,-15.48453 27.90625,-23.03993 0.20624,-0.1775 0.33379,-0.4417 0.34375,-0.7122 -0.0666,-19.0995 -16.26722,-34.6551 -36.125,-34.591 z m 0,1.982 c 18.2593,-0.059 33.06562,13.8131 33.96875,31.0915 -6.7423,-3.099 -14.22769,-3.0075 -20.875,0.4644 -8.90027,-3.6912 -17.06839,-3.6917 -25.96875,0 -8.25733,-3.4557 -13.68466,-3.5294 -20.84375,-0.3716 0.77927,-17.279 15.45301,-31.1257 33.71875,-31.1843 z m -13.53125,33.414 12.03125,22.94713 -2.96875,0 -28.46875,-23.50443 c 6.70895,-3.3698 13.70031,-1.8295 19.40625,0.5573 z m 25.25,-0.3096 -11.59375,22.07993 -11.59375,-22.07993 c 7.83649,-3.1821 16.1469,-2.7529 23.1875,0 z m 21.5625,-0.3098 -28.53125,23.56653 -2.96875,0 12.0625,-23.00903 c 6.38764,-3.1959 13.50876,-3.2789 19.4375,-0.5575 z m -50.15625,25.54843 34,0 0,33.6928 -34,0 z m 14,5.9459 c 0,2.6425 0,5.285 0,7.9277 -2.66667,0 -5.33333,0 -8,0 0,2.1953 0,3.9135 0,5.9458 2.66667,0 5.33333,0 8,0 0,2.6425 0,5.2851 0,7.9277 2.21541,0 3.94931,0 6,0 0,-2.6426 0,-5.2852 0,-7.9277 2.66667,0 5.33333,0 8,0 0,-2.03 0,-4.1853 0,-5.9458 -2.66667,0 -5.33333,0 -8,0 0,-2.6427 0,-5.2852 0,-7.9277 -2.04845,0 -4.22339,0 -6,0 z m 2,1.9818 2,0 c 0,2.6427 0,5.2852 0,7.9278 2.66667,0 5.33333,0 8,0 l 0,1.9819 c -2.66667,0 -5.33333,0 -8,0 0,2.6426 0,5.2852 0,7.9277 l -2,0 c 0,-2.6425 0,-5.2851 0,-7.9277 -2.66667,0 -5.33333,0 -8,0 l 0,-1.9819 c 2.66667,0 5.33333,0 8,0 0,-2.6426 0,-5.2851 0,-7.9278 z" fill="currentColor" fill-opacity="1" stroke="none" marker="none" visibility="visible" display="inline" overflow="visible"></path></g></svg>