<svg xmlns="http://www.w3.org/2000/svg" xmlns:xlink="http://www.w3.org/1999/xlink" version="1.1" x="0px" y="0px" viewBox="0 0 100 100" style="enable-background:new 0 0 100 100;" xml:space="preserve"><path d="M79.1,71.5l3.5,2l0.1-0.2c4.9-6.8,7.5-14.9,7.5-23.4c0.1-10.9-4-21.1-11.6-28.7C71,13.5,60.9,9.2,50.1,9.2  C27.8,9.2,9.6,27.4,9.6,49.7s18.1,40.4,40.4,40.4c3.9,0,7.6-0.5,11.1-1.6l0.2-0.1l-0.8-4l-0.3,0.1c-3.4,1-6.9,1.6-10.4,1.6  c-20,0-36.3-16.3-36.3-36.3c0-20,16.3-36.3,36.3-36.3s36.3,16.3,36.3,36.3c0,7.7-2.4,15.1-7,21.5L79.1,71.5z"></path><path d="M84.2,16C75.1,6.8,62.9,1.8,50.1,1.8c-4.5,0-8.8,0.6-12.9,1.8l-0.2,0.1l0.7,3.7l0.3-0.1  c4-1.1,8.1-1.7,12.1-1.7c24.5,0,44.5,19.9,44.5,44.5S74.6,94.5,50.1,94.5C25.5,94.4,5.6,74.4,5.6,49.9c0-9.3,2.8-18.1,8.2-25.7  L14,24l-3.3-1.9l-0.1,0.2C4.8,30.4,1.8,40,1.8,50.1c0,26.5,21.6,48.1,48.1,48.1c26.6,0,48.3-21.6,48.3-48.1  C98.2,37.2,93.3,25.1,84.2,16z"></path><path d="M65,59.8c0-0.8-0.3-1.3-0.8-1.8l0,0c-1-1-2.6-1-3.6,0l-7.7,7.2V29.8c0-1.5-1.3-2.6-2.6-2.6  c-1.5,0-2.6,1.3-2.6,2.6v35.4l-8.2-7.4c-0.5-0.5-1-0.8-1.8-0.8c0,0,0,0-0.3,0c-0.8,0-1.3,0.3-1.8,0.8s-0.8,1.3-0.8,1.8  c0,0.8,0.3,1.3,0.8,1.8l12.6,11.3c1,0.8,2.6,0.8,3.6,0l12.1-11.3C64.7,61.1,65,60.6,65,59.8z"></path></svg>