<svg xmlns="http://www.w3.org/2000/svg" xmlns:xlink="http://www.w3.org/1999/xlink" version="1.1" x="0px" y="0px" viewBox="0 0 64 64" style="enable-background:new 0 0 64 64;" xml:space="preserve"><style type="text/css">
	.st0{display:none;}
	.st1{display:inline;}
	.st2{fill:none;stroke:currentColor;stroke-width:0.1;stroke-miterlimit:10;}
</style><g class="st0"><g class="st1"><rect x="2" y="2" class="st2" width="60" height="60"></rect><line class="st2" x1="32" y1="2" x2="32" y2="62"></line><line class="st2" x1="62" y1="32" x2="2" y2="32"></line><line class="st2" x1="2" y1="2" x2="62" y2="62"></line><rect x="10" y="10" class="st2" width="44" height="44"></rect><line class="st2" x1="62" y1="2" x2="2" y2="62"></line><line class="st2" x1="2" y1="32" x2="32" y2="2"></line><line class="st2" x1="32" y1="2" x2="62" y2="32"></line><line class="st2" x1="62" y1="32" x2="32" y2="62"></line><line class="st2" x1="32" y1="62" x2="2" y2="32"></line><circle class="st2" cx="32" cy="32" r="21"></circle></g></g><path d="M21,6v7h22V6H21z M23,8h8v3h-8V8z M41,11h-8V8h8V11z"></path><path d="M47,24V2H17v19H2v41h60V24H47z M19,4h26v20h-2v-7H21v4h-2V4z M12,60h-2v-6h2V60z M16,60h-2v-6h2V60z M22,60h-4v-8H8v8H4V23  h18V60z M23,19h8v3h-7v-1h-1V19z M24,30h7v3h-7V30z M24,41h7v3h-7V41z M29,60v-7h2v7H29z M33,60v-7h2v7H33z M40,60h-3v-9H27v9h-3V46  h16V60z M40,44h-7v-3h7V44z M40,39H24v-4h16V39z M40,33h-7v-3h7V33z M40,28H24v-4h16V28z M41,22h-8v-3h8V22z M50,60h-2v-3h2V60z   M54,60h-2v-3h2V60z M60,60h-4v-5H46v5h-4V26h18V60z"></path><path d="M6,25v7h14v-7H6z M8,27h4v3H8V27z M18,30h-4v-3h4V30z"></path><path d="M6,34v7h14v-7H6z M8,36h4v3H8V36z M18,39h-4v-3h4V39z"></path><path d="M6,43v7h14v-7H6z M8,45h4v3H8V45z M18,48h-4v-3h4V48z"></path><path d="M44,28v7h14v-7H44z M46,30h4v3h-4V30z M56,33h-4v-3h4V33z"></path><path d="M44,37v7h14v-7H44z M46,39h4v3h-4V39z M56,42h-4v-3h4V42z"></path><path d="M44,46v7h14v-7H44z M46,48h4v3h-4V48z M56,51h-4v-3h4V51z"></path></svg>