<?xml version="1.0" encoding="UTF-8" standalone="no"?>
<svg
   xmlns:dc="http://purl.org/dc/elements/1.1/"
   xmlns:cc="http://creativecommons.org/ns#"
   xmlns:rdf="http://www.w3.org/1999/02/22-rdf-syntax-ns#"
   xmlns:svg="http://www.w3.org/2000/svg"
   xmlns="http://www.w3.org/2000/svg"
   id="svg32"
   xml:space="preserve"
   enable-background="new 0 0 100 100"
   viewBox="0 0 82.583 86.827003"
   y="0px"
   x="0px"
   version="1.1"
   class="svg-icon"><metadata
     id="metadata38"><rdf:RDF><cc:Work
         rdf:about=""><dc:format>image/svg+xml</dc:format><dc:type
           rdf:resource="http://purl.org/dc/dcmitype/StillImage" /><dc:title></dc:title></cc:Work></rdf:RDF></metadata><defs
     id="defs36" /><g
     transform="translate(-8.417,-6.917)"
     id="g30"><path
       id="path2"
       d="m 18.212,58.525 c 0,4.712 3.833,8.546 8.544,8.546 4.711,0 8.544,-3.834 8.544,-8.546 0,-4.712 -3.833,-8.545 -8.544,-8.545 -4.711,0 -8.544,3.833 -8.544,8.545 z m 14.589,0 c 0,3.334 -2.711,6.046 -6.044,6.046 -3.333,0 -6.044,-2.712 -6.044,-6.046 0,-3.333 2.711,-6.045 6.044,-6.045 3.333,0 6.044,2.712 6.044,6.045 z" /><path
       id="path4"
       d="m 69.776,67.104 c -1.797,0 -3.538,0.327 -5.198,0.939 -3.492,-5.025 -9.298,-8.327 -15.867,-8.327 -6.692,0 -12.597,3.424 -16.065,8.608 -1.856,-0.786 -3.864,-1.221 -5.89,-1.221 -8.317,0 -15.084,6.767 -15.084,15.085 V 93.744 H 84.86 V 82.189 c 0,-8.318 -6.766,-15.085 -15.084,-15.085 z M 20.712,91.245 V 84.67 h -2.5 v 6.575 h -4.04 v -9.056 c 0,-6.518 4.98,-11.892 11.334,-12.521 v 10.757 h 2.5 V 69.678 c 1.173,0.114 2.31,0.39 3.399,0.825 -1.276,2.577 -2.012,5.467 -2.012,8.532 v 12.21 z m 44.817,0 h -6.033 v -9.761 h -2.5 v 9.761 H 39.625 v -9.761 h -2.5 v 9.761 h -5.231 v -12.21 c 0,-9.273 7.544,-16.818 16.817,-16.818 9.273,0 16.818,7.545 16.818,16.818 z m 16.831,0 H 77.753 V 84.67 h -2.5 v 6.575 h -7.224 v -12.21 c 0,-3.177 -0.785,-6.169 -2.149,-8.815 1.033,-0.337 2.105,-0.521 3.202,-0.579 v 10.784 h 2.5 V 69.749 c 6.084,0.881 10.778,6.116 10.778,12.44 z" /><path
       id="path6"
       d="m 69.776,67.071 c 4.711,0 8.544,-3.834 8.544,-8.546 0,-4.712 -3.833,-8.545 -8.544,-8.545 -4.712,0 -8.546,3.833 -8.546,8.545 0,4.712 3.834,8.546 8.546,8.546 z m 0,-14.591 c 3.333,0 6.044,2.712 6.044,6.045 0,3.334 -2.711,6.046 -6.044,6.046 -3.334,0 -6.046,-2.712 -6.046,-6.046 0,-3.333 2.712,-6.045 6.046,-6.045 z" /><polygon
       id="polygon8"
       points="24.68,59.077 24.68,62.217 27.857,62.217 27.857,59.717 27.18,59.717 27.18,56.577 22.729,56.577 22.729,59.077 " /><rect
       id="rect10"
       height="2.5"
       width="3.29"
       y="56.577"
       x="27.726999" /><path
       id="path12"
       d="m 58.938,49.083 c 0,-5.866 -4.772,-10.639 -10.639,-10.639 -5.866,0 -10.639,4.772 -10.639,10.639 0,5.867 4.772,10.639 10.639,10.639 5.866,0 10.639,-4.773 10.639,-10.639 z m -18.778,0 c 0,-4.488 3.651,-8.139 8.139,-8.139 4.488,0 8.139,3.651 8.139,8.139 0,4.488 -3.651,8.139 -8.139,8.139 -4.488,0 -8.139,-3.652 -8.139,-8.139 z" /><polygon
       id="polygon14"
       points="70.877,59.717 70.2,59.717 70.2,56.577 65.748,56.577 65.748,59.077 67.7,59.077 67.7,62.217 70.877,62.217 " /><rect
       id="rect16"
       height="2.5"
       width="3.29"
       y="56.577"
       x="70.746002" /><path
       id="path18"
       d="m 8.417,6.917 v 25.822 h 36.119 l 3.788,4.958 3.6,-4.958 H 91 V 6.917 Z M 88.5,30.239 H 50.649 l -2.376,3.273 -2.5,-3.273 H 10.917 V 9.417 H 88.5 Z" /><rect
       id="rect20"
       height="2.5"
       width="66.056"
       y="12.576"
       x="16.525999" /><rect
       id="rect22"
       height="2.5"
       width="66.056"
       y="17.719999"
       x="16.525999" /><rect
       id="rect24"
       height="2.5"
       width="31.740999"
       y="22.865"
       x="16.525999" /><polygon
       id="polygon26"
       points="88.5,57.555 91,57.555 91,38.444 65.742,38.444 65.742,40.944 88.5,40.944 " /><polygon
       id="polygon28"
       points="8.417,57.04 10.917,57.04 10.917,40.944 31.444,40.944 31.444,38.444 8.417,38.444 " /></g></svg>