<svg xmlns="http://www.w3.org/2000/svg" xmlns:xlink="http://www.w3.org/1999/xlink" version="1.1" x="0px" y="0px" viewBox="0 0 100 100" style="enable-background:new 0 0 100 100;" xml:space="preserve">
    <path stroke="currentColor" fill="currentColor" d="M55.8,95h-9.1c-2.1,0-4-1.5-4.4-3.6l-1.1-5.3c-2.9-0.8-5.7-2-8.4-3.5l-0.8,0.5c-1.2,0.8-2.7,0.4-3.5-0.7  c-0.8-1.2-0.4-2.7,0.7-3.5l2.1-1.3c0.8-0.5,1.9-0.5,2.7,0c3,1.9,6.3,3.3,9.8,4.1c0.9,0.2,1.7,1,1.9,1.9l1.4,6.4h8.2l1.4-6.4  c0.2-1,0.9-1.7,1.9-1.9c3.5-0.8,6.8-2.2,9.8-4.1c0.8-0.5,1.9-0.5,2.7,0l5.5,3.6l5.8-5.8l-3.6-5.5c-0.5-0.8-0.5-1.9,0-2.7  c1.9-3,3.3-6.3,4.1-9.8c0.2-0.9,1-1.7,1.9-1.9l6.4-1.4v-8.2l-6.4-1.4c-1-0.2-1.7-0.9-1.9-1.9c-0.8-3.5-2.2-6.8-4.1-9.8  c-0.5-0.8-0.5-1.9,0-2.7l3.6-5.5l-5.8-5.8l-5.5,3.6c-0.8,0.5-1.9,0.5-2.7,0c-3-1.9-6.3-3.3-9.8-4.1c-0.9-0.2-1.7-1-1.9-1.9L55.4,10  h-8.2l-1.4,6.4c-0.2,1-0.9,1.7-1.9,1.9c-3.5,0.8-6.8,2.2-9.8,4.1c-0.8,0.5-1.9,0.5-2.7,0l-5.5-3.6l-5.8,5.8l3.6,5.5  c0.5,0.8,0.5,1.9,0,2.7c-1.9,3-3.3,6.3-4.1,9.8c-0.2,0.9-1,1.7-1.9,1.9l-6.4,1.4v8.2l6.4,1.4c1,0.2,1.7,0.9,1.9,1.9  c0.8,3.5,2.2,6.8,4.1,9.8c0.5,0.8,0.5,1.9,0,2.7l-1.9,2.9c-0.8,1.2-2.3,1.5-3.5,0.7c-1.2-0.8-1.5-2.3-0.7-3.5l1-1.6  c-1.5-2.6-2.7-5.5-3.5-8.4l-5.3-1.1c-2.1-0.4-3.6-2.3-3.6-4.4v-9.1c0-2.1,1.5-4,3.6-4.4l5.3-1.1c0.8-2.9,2-5.7,3.5-8.4l-3-4.5  c-1.2-1.8-0.9-4.1,0.6-5.6l6.4-6.4c1.5-1.5,3.9-1.7,5.6-0.6l4.5,3c2.6-1.5,5.5-2.7,8.4-3.5l1.1-5.3C42.8,6.5,44.6,5,46.7,5h9.1  c2.1,0,4,1.5,4.4,3.6l1.1,5.3c2.9,0.8,5.7,2,8.4,3.5l4.5-3c1.8-1.2,4.1-0.9,5.6,0.6l6.4,6.4c1.5,1.5,1.7,3.9,0.6,5.6l-3,4.5  c1.5,2.6,2.7,5.5,3.5,8.4l5.3,1.1c2.1,0.4,3.6,2.3,3.6,4.4v9.1c0,2.1-1.5,4-3.6,4.4l-5.3,1.1c-0.8,2.9-2,5.7-3.5,8.4l3,4.5  c1.2,1.8,0.9,4.1-0.6,5.6L79.9,85c-1.5,1.5-3.9,1.7-5.6,0.6l-4.5-3c-2.6,1.5-5.5,2.7-8.4,3.5l-1.1,5.3C59.7,93.5,57.9,95,55.8,95z"></path>
    <path stroke="currentColor" fill="currentColor" d="M18.1,93.3c-2.7,0-5.2-1-7.1-2.9c-2-2-3-4.6-2.9-7.3c0.1-2.8,1.2-5.3,3.3-7.2l23.3-21.2c-2.5-6.8-1.1-14.2,3.7-19.1  c5.3-5.3,13.8-6.5,21.1-2.9c0.7,0.4,1.2,1,1.3,1.8c0.1,0.8-0.1,1.6-0.7,2.2l-8.7,8.7c-0.5,0.5-0.8,1.2-0.8,1.9s0.3,1.4,0.8,1.9  l0.8,0.8c1,1,2.8,1,3.9,0l8.7-8.7c0.6-0.6,1.4-0.8,2.2-0.7c0.8,0.1,1.5,0.6,1.8,1.3c3.6,7.3,2.5,15.7-2.9,21.1l0,0l0,0  c-4.9,4.9-12.3,6.2-19.1,3.7L25.5,90c-1.9,2.1-4.4,3.2-7.2,3.3C18.2,93.3,18.2,93.3,18.1,93.3z M50.6,35.5c-3.3,0-6.5,1.2-8.8,3.5  c-3.8,3.8-4.6,9.9-2,15.2c0.6,1.2,0.2,2.6-1,3.2c-0.2,0.1-0.4,0.3-0.6,0.4L14.7,79.5c-1,0.9-1.6,2.2-1.6,3.6c0,1.4,0.5,2.7,1.5,3.7  c1,1,2.3,1.5,3.7,1.5c1.4,0,2.7-0.6,3.6-1.6L43.4,63c0.2-0.2,0.3-0.4,0.4-0.6c0.7-1.1,2.1-1.5,3.3-1c5.3,2.6,11.4,1.8,15.2-2l0,0  c3-3,4.1-7.5,3.1-11.9l-6,6c-1.5,1.5-3.4,2.3-5.5,2.3c-2.1,0-4-0.8-5.5-2.3l-0.8-0.8c-1.5-1.5-2.3-3.4-2.3-5.5s0.8-4,2.3-5.5l6-6  C52.7,35.6,51.6,35.5,50.6,35.5z"></path>
</svg>