<svg class="svg-icon" xmlns="http://www.w3.org/2000/svg" xmlns:xlink="http://www.w3.org/1999/xlink" viewBox="0 0 96 96" version="1.1" x="0px" y="0px"><title>Page 1</title><desc>Created with Sketch.</desc><g stroke="none" stroke-width="1" fill="none" fill-rule="evenodd"><g fill="currentColor"><polygon points="0 24 24 24 24 0 0 0"></polygon><polygon points="72 24 96 24 96 0 72 0"></polygon><polygon points="36 24 60 24 60 0 36 0"></polygon><polygon points="0 60 24 60 24 36 0 36"></polygon><polygon points="72 60 96 60 96 36 72 36"></polygon><polygon points="36 60 60 60 60 36 36 36"></polygon><polygon points="0 96 24 96 24 72 0 72"></polygon><polygon points="72 96 96 96 96 72 72 72"></polygon><polygon points="36 96 60 96 60 72 36 72"></polygon></g></g></svg>