<svg class="svg-icon" xmlns="http://www.w3.org/2000/svg" xmlns:xlink="http://www.w3.org/1999/xlink" version="1.1" x="0px" y="0px" viewBox="0 0 100 100" style="enable-background:new 0 0 100 100;" xml:space="preserve"><g><path d="M60.1687164,41.7432098L55.846344,58.2408371H39.8189201l4.3141441-16.4976273H60.1687164z M88.0297546,27.8107204   l-9.8044205-0.0079498l3.5717163-13.6352882c0.4702072-1.798254,0.2144775-3.6748352-0.7176361-5.2792282   c-0.9403763-1.6085091-2.4498825-2.7551003-4.2563629-3.2294035c-3.753212-0.9857488-7.5394135,1.2703152-8.504509,4.9781532   L63.822937,27.8027706H47.7790184l3.5717201-13.6352882c0.4702072-1.798254,0.2144775-3.6748352-0.7176361-5.2792282   c-0.9403419-1.6085091-2.4499168-2.7551003-4.2564011-3.2294035c-3.6789742-0.9568772-7.5311432,1.2620683-8.5044746,4.9781532   l-4.4956055,17.1657677l-13.4380474,0.0079498c-3.8439388,0-6.970211,3.1262722-6.970211,6.9702148   s3.1262722,6.9702415,6.970211,6.9702415l9.7920609-0.0079651l-4.3223743,16.4976273L11.9702435,58.248806   C8.1263037,58.2488022,5,61.3750916,5,65.2190323s3.1263037,6.9702454,6.9702435,6.9702454l9.7920609-0.0079651   l-3.5799828,13.6558838c-0.4701729,1.7982407-0.2144775,3.6748276,0.7176361,5.2792282   c0.9403763,1.6085052,2.4498844,2.7550964,4.2564011,3.2294006c3.645956,0.9321136,7.5558701-1.3404312,8.504509-4.978157   l4.5038319-17.1863556h16.035656l-3.5799828,13.6558838c-0.4701424,1.7982407-0.214447,3.6748276,0.7176666,5.2792282   c0.9403458,1.6085052,2.4498863,2.7550964,4.2564011,3.2294006c0.5773964,0.1484833,1.1713181,0.2268524,1.7652359,0.2268524   c3.1675529,0,5.939106-2.1405792,6.7392731-5.2050095l4.5038338-17.1863556l13.4586411,0.0079651   c3.8439407,0,6.9702454-3.1263046,6.9702454-6.9702454s-3.1263046-6.9702301-6.9702454-6.9702301l-9.8044205-0.0079651   l4.3223724-16.4976273l13.4503784,0.0079651C91.8736954,41.7511749,95,38.6248741,95,34.7809334   S91.8736954,27.8107204,88.0297546,27.8107204z"></path></g></svg>