<svg xmlns="http://www.w3.org/2000/svg" xmlns:xlink="http://www.w3.org/1999/xlink" version="1.1" x="0px" y="0px" viewBox="0 0 100 100" enable-background="new 0 0 100 100" xml:space="preserve"><g><g><path d="M14.492,48.305c-0.934,0-1.695,0.76-1.695,1.695c0,0.936,0.761,1.693,1.695,1.693c0.933,0,1.691-0.758,1.691-1.693    C16.183,49.065,15.425,48.305,14.492,48.305z"></path><path d="M50.001,83.814c-0.933,0-1.695,0.762-1.695,1.695s0.762,1.695,1.695,1.695s1.692-0.762,1.692-1.695    S50.935,83.814,50.001,83.814z"></path><path d="M74.857,73.16c-0.933,0-1.694,0.762-1.694,1.695s0.762,1.695,1.694,1.695c0.934,0,1.691-0.762,1.691-1.695    S75.791,73.16,74.857,73.16z"></path><circle cx="85.512" cy="49.999" r="1.694"></circle><path d="M87.122,40.657c-0.93-3.693-2.396-7.172-4.312-10.353c0.967-1.487,1.536-3.258,1.536-5.162c0-5.233-4.255-9.49-9.488-9.49    c-1.903,0-3.676,0.57-5.161,1.538c-3.182-1.917-6.662-3.383-10.354-4.312c-0.769-4.466-4.656-7.879-9.34-7.879    c-4.683,0-8.575,3.413-9.343,7.879c-3.693,0.93-7.17,2.396-10.351,4.312c-1.489-0.968-3.258-1.538-5.162-1.538    c-5.232,0-9.492,4.257-9.492,9.49c0,1.904,0.57,3.674,1.537,5.162c-1.917,3.181-3.379,6.66-4.313,10.353    C8.413,41.425,5,45.317,5,50c0,4.684,3.413,8.574,7.877,9.342c0.934,3.693,2.396,7.172,4.313,10.355    c-0.967,1.486-1.537,3.254-1.537,5.158c0,5.232,4.259,9.492,9.492,9.492c1.904,0,3.673-0.57,5.159-1.537    c3.181,1.914,6.661,3.379,10.354,4.309c0.769,4.469,4.66,7.883,9.343,7.883c4.684,0,8.572-3.414,9.34-7.883    c3.692-0.93,7.173-2.395,10.354-4.309c1.485,0.967,3.258,1.537,5.161,1.537c5.233,0,9.488-4.26,9.488-9.492    c0-1.904-0.569-3.672-1.536-5.158c1.917-3.182,3.383-6.662,4.312-10.355C91.587,58.574,95,54.684,95,50    C95,45.317,91.587,41.425,87.122,40.657z M69.564,23.347c0.597-1.757,2.042-3.119,3.848-3.6c0.462-0.123,0.943-0.196,1.445-0.196    c3.087,0,5.59,2.503,5.59,5.592c0,0.5-0.07,0.984-0.195,1.445c-0.481,1.806-1.84,3.25-3.599,3.848    c-0.562,0.19-1.165,0.3-1.796,0.3c-3.09,0-5.593-2.504-5.593-5.593C69.265,24.514,69.372,23.909,69.564,23.347z M44.968,12.062    c0.906-1.872,2.817-3.166,5.034-3.166c2.217,0,4.127,1.294,5.031,3.166c0.354,0.734,0.56,1.557,0.56,2.428    c0,1.017-0.273,1.966-0.748,2.786c-0.967,1.675-2.77,2.807-4.842,2.807c-2.072,0-3.878-1.132-4.845-2.807    c-0.472-0.82-0.748-1.77-0.748-2.786C44.409,13.619,44.614,12.797,44.968,12.062z M25.146,19.551c0.499,0,0.98,0.073,1.446,0.196    c1.806,0.481,3.248,1.843,3.844,3.6c0.192,0.562,0.3,1.167,0.3,1.796c0,3.089-2.503,5.593-5.59,5.593    c-0.63,0-1.233-0.11-1.799-0.3c-1.755-0.598-3.117-2.042-3.598-3.848c-0.125-0.461-0.196-0.945-0.196-1.445    C19.552,22.054,22.056,19.551,25.146,19.551z M14.492,55.592c-0.873,0-1.695-0.205-2.429-0.559    c-1.87-0.906-3.164-2.816-3.164-5.033c0-2.219,1.294-4.129,3.164-5.032c0.734-0.355,1.557-0.561,2.429-0.561    c1.014,0,1.964,0.275,2.787,0.748c1.674,0.967,2.803,2.771,2.803,4.845c0,2.072-1.129,3.877-2.803,4.844    C16.456,55.316,15.506,55.592,14.492,55.592z M30.436,76.654c-0.596,1.756-2.039,3.117-3.844,3.6    c-0.465,0.123-0.947,0.195-1.446,0.195c-3.09,0-5.593-2.504-5.593-5.594c0-0.498,0.071-0.98,0.196-1.441    c0.481-1.811,1.843-3.252,3.598-3.852c0.566-0.189,1.169-0.301,1.799-0.301c3.086,0,5.59,2.504,5.59,5.594    C30.735,75.486,30.627,76.088,30.436,76.654z M55.032,87.939c-0.903,1.869-2.813,3.164-5.031,3.164    c-2.217,0-4.127-1.295-5.034-3.164c-0.354-0.734-0.559-1.557-0.559-2.43c0-1.018,0.276-1.965,0.748-2.787    c0.967-1.674,2.773-2.807,4.845-2.807c2.073,0,3.875,1.133,4.842,2.807c0.475,0.822,0.748,1.77,0.748,2.787    C55.592,86.383,55.386,87.205,55.032,87.939z M74.857,80.449c-0.502,0-0.983-0.072-1.445-0.195    c-1.806-0.482-3.251-1.844-3.848-3.6c-0.192-0.566-0.3-1.168-0.3-1.799c0-3.086,2.503-5.594,5.593-5.594    c0.631,0,1.233,0.111,1.796,0.305c1.759,0.596,3.117,2.041,3.599,3.848c0.125,0.461,0.195,0.943,0.195,1.441    C80.447,77.945,77.944,80.449,74.857,80.449z M78.804,66.236c-1.203-0.553-2.537-0.869-3.946-0.869    c-5.232,0-9.491,4.256-9.491,9.488c0,1.412,0.316,2.746,0.873,3.949c-2.329,1.316-4.832,2.361-7.471,3.086    c-1.425-3.443-4.814-5.873-8.767-5.873c-3.952,0-7.345,2.43-8.771,5.873c-2.635-0.725-5.138-1.77-7.47-3.086    c0.556-1.203,0.873-2.537,0.873-3.949c0-5.232-4.255-9.492-9.488-9.492c-1.412,0-2.746,0.32-3.949,0.873    c-1.321-2.328-2.362-4.832-3.086-7.467c3.44-1.426,5.87-4.818,5.87-8.77c0-3.952-2.43-7.345-5.87-8.771    c0.725-2.635,1.769-5.138,3.086-7.468c1.203,0.554,2.537,0.873,3.949,0.873c5.233,0,9.488-4.259,9.488-9.492    c0-1.41-0.316-2.745-0.869-3.947c2.328-1.318,4.832-2.362,7.466-3.088c1.425,3.444,4.818,5.873,8.771,5.873    c3.953,0,7.342-2.429,8.767-5.873c2.639,0.726,5.139,1.77,7.471,3.088c-0.557,1.203-0.873,2.537-0.873,3.947    c0,5.232,4.259,9.492,9.491,9.492c1.409,0,2.743-0.319,3.946-0.873c1.32,2.33,2.361,4.833,3.089,7.468    c-3.443,1.425-5.872,4.818-5.872,8.771c0,3.951,2.429,7.344,5.872,8.77C81.165,61.404,80.124,63.908,78.804,66.236z     M87.938,55.033c-0.734,0.354-1.557,0.559-2.426,0.559c-1.018,0-1.968-0.275-2.79-0.748c-1.675-0.967-2.803-2.771-2.803-4.844    c0-2.074,1.128-3.878,2.803-4.845c0.822-0.473,1.772-0.748,2.79-0.748c0.869,0,1.691,0.206,2.426,0.561    c1.874,0.903,3.164,2.813,3.164,5.032C91.102,52.217,89.812,54.127,87.938,55.033z"></path><circle cx="74.857" cy="25.143" r="1.694"></circle><circle cx="50.001" cy="14.49" r="1.695"></circle><path d="M25.146,73.16c-0.933,0-1.695,0.762-1.695,1.695s0.762,1.695,1.695,1.695c0.934,0,1.691-0.762,1.691-1.695    S26.079,73.16,25.146,73.16z"></path><circle cx="25.146" cy="25.143" r="1.694"></circle></g></g></svg>