<svg id="Layer_1" data-name="Layer 1" xmlns="http://www.w3.org/2000/svg" viewBox="0 0 292.69 28.84">
    <defs>
        <style>.cls-1{fill:currentColor}.cls-2{fill:#46a8c6;}.cls-3{fill:none;}.cls-4{fill:#446ca9;}
        </style>
    </defs>
    <title>k10 platform logo</title>
    <path class="cls-1" fill="currentColor"
          d="M84.33,18.66V28.84c0,.43-.12.55-.55.55H82.32c-.47,0-.55-.12-.55-.55V2.43c0-.47.16-.55.55-.55h9.16c4.83,0,9.63,1.85,9.63,8.21s-4.79,8.57-9.63,8.57Zm7-2.24c5.89,0,7.31-3.18,7.31-6.33,0-2.87-1.41-6-7.31-6h-7v12.3Z"/>
    <path class="cls-1" fill="currentColor"
          d="M122.64,27.15c.43,0,.55.12.55.51v1.18c0,.39-.12.55-.55.55h-16c-.43,0-.55-.12-.55-.55V2.43c0-.43.12-.55.55-.55h1.45c.43,0,.55.12.55.55V27.15Z"/>
    <path class="cls-1" fill="currentColor"
          d="M151.55,28.84c.16.31,0,.55-.35.55h-1.81c-.35,0-.47-.12-.71-.55l-3.22-7.11H131.32l-3.22,7.11c-.2.43-.35.55-.71.55h-1.85c-.31,0-.43-.24-.31-.55L137.92,1.65c.12-.27.24-.47.43-.47h.12c.16,0,.28.2.39.47ZM138.39,5.69l-6.21,13.79H144.6L138.43,5.69Z"/>
    <path class="cls-1" fill="currentColor"
          d="M172.57,1.88c.47,0,.55.16.55.55V3.69c0,.39-.12.55-.55.55h-9.7v24.6c0,.39-.08.55-.51.55h-1.49c-.43,0-.55-.16-.55-.55V4.24h-9.67c-.47,0-.55-.16-.55-.55V2.43c0-.43.12-.55.55-.55Z"/>
    <path class="cls-1" fill="currentColor"
          d="M180.12,28.84c0,.39-.12.55-.51.55h-1.49c-.43,0-.55-.12-.55-.55V2.43c0-.39.16-.55.55-.55h17.37c.43,0,.55.16.55.55V3.61c0,.39-.16.55-.55.55H180.12V14.38h15c.39,0,.55.12.55.51v1.18c0,.39-.16.55-.55.55h-15Z"/>
    <path class="cls-1" fill="currentColor"
          d="M214.11,1.37A14.26,14.26,0,1,1,200,15.64,14.22,14.22,0,0,1,214.11,1.37Zm0,26.25c6.4,0,11.47-5.81,11.47-12s-5.07-12-11.47-12-11.47,5.78-11.47,12S207.74,27.62,214.11,27.62Z"/>
    <path class="cls-1" fill="currentColor"
          d="M247,18.35l7.54,10.41c.28.43,0,.63-.43.63h-1.49a1,1,0,0,1-.9-.55l-7.39-10.18H236.5V28.84c0,.47-.16.55-.55.55H234.5c-.39,0-.55-.08-.55-.55V2.43c0-.43.16-.55.55-.55h9.31c4.48,0,9.47,1.89,9.47,8.25C253.28,14.85,250.76,17.36,247,18.35Zm-3.38-1.93c5,0,7.15-2.44,7.15-6.29,0-4.24-2.91-6-7.15-6H236.5v12.3Z"/>
    <path class="cls-1" fill="currentColor"
          d="M276.62,29.35c-.16.35-.35.55-.67.55h-.28c-.31,0-.43-.2-.67-.55L264,6.91l-2.51,21.92c0,.39-.12.55-.51.55h-1.53c-.39,0-.55-.16-.51-.55l3.3-27.11c0-.27.08-.35.35-.35h.24c.16,0,.27,0,.47.35l12.53,24.6,12.53-24.6c.2-.31.31-.35.47-.35h.24c.28,0,.31.08.35.35l3.26,27.11c0,.39-.08.55-.47.55h-1.53c-.39,0-.51-.16-.55-.55l-2.44-22Z"/>
    <path class="cls-2"
          d="M38.48.18H36a5.67,5.67,0,0,0-2.45,1.14L33,1.67,28.64,4.37A1.23,1.23,0,0,0,28,5.59v2.6a.62.62,0,0,0,.62.62h3.75a.62.62,0,0,1,.62.62V28.8a.62.62,0,0,0,.54.61V30h0v-.6h4.86a.62.62,0,0,0,.62-.62V.8A.62.62,0,0,0,38.48.18Z"/>
    <polygon class="cls-3" points="68.34 15.29 68.34 15.31 68.26 15.31 68.28 15.29 68.34 15.29"/>
    <polygon class="cls-2" points="68.34 15.29 68.34 15.31 68.26 15.31 68.28 15.29 68.34 15.29"/>
    <polygon class="cls-2" points="68.34 15.29 68.34 15.31 68.26 15.31 68.28 15.29 68.34 15.29"/>
    <path class="cls-2"
          d="M75,14.87a2.83,2.83,0,0,0-.36-1.17l-6.92-12A2.88,2.88,0,0,0,65.26.28H51.41a2.83,2.83,0,0,0-1.26.29l0,0a2.83,2.83,0,0,0-.81.89l-6.92,12a2.86,2.86,0,0,0,0,2.87l6.92,12a2.87,2.87,0,0,0,.82.9l0,0a2.85,2.85,0,0,0,1.25.29H65.26a2.88,2.88,0,0,0,2.49-1.43l6.92-12A2.94,2.94,0,0,0,75,14.87ZM53.6,23.4v0l-4.89-8.47,4.83-8.48h9.81l4.88,8.46h0v0h.07v0h-.08l-4.91,8.5Z"/>
    <path class="cls-4"
          d="M25.24,28.47c.85,1,.21,1.14-.51,1.14H19c-.76,0-1-.25-1.65-1.14L7.18,15.57v12.9c0,.89-.25,1.14-1.14,1.14H1.43c-.89,0-1.14-.25-1.14-1.14V1.14C.28.25.54,0,1.43,0H6c.89,0,1.14.25,1.14,1.14v11.8L17,1.14C17.75.25,18,0,18.68,0h5.75c.8,0,1.23.25.51,1.14l-11.21,13Z"/>
</svg>