<svg width="500px" height="500px" viewBox="0 0 500 500" version="1.1"
     xmlns="http://www.w3.org/2000/svg" xmlns:xlink="http://www.w3.org/1999/xlink">
    <defs></defs>
    <g id="Page-1" stroke="none" stroke-width="1" fill="none" fill-rule="evenodd">
        <g id="k8s-logo" fill-rule="nonzero" stroke="#FFFFFF">
            <path
                    d="M248.333092,12.9910774 C244.032554,13.207717 239.81894,14.2739894 235.939442,16.1273414 L66.8191106,96.934805 C57.9521307,101.169416 51.51175,109.178097 49.3209205,118.693988 L7.59779487,300.20797 C5.65131365,308.657203 7.23512007,317.528079 11.9885644,324.800605 C12.5590638,325.680591 13.1726304,326.532365 13.827064,327.352875 L130.885413,472.897153 C137.023292,480.526145 146.329485,484.96828 156.17019,484.966362 L343.891811,484.923103 C353.728835,484.930273 363.034372,480.496411 369.176588,472.875524 L486.191678,327.309616 C492.332841,319.676801 494.63374,309.685008 492.442577,300.164711 L450.654563,118.650729 C448.463733,109.134838 442.023353,101.126157 433.156373,96.8915462 L264.014412,16.1273414 C259.134588,13.7959715 253.742527,12.7175593 248.333092,12.9910774 Z"
                    id="path3055" fill="#326ce5"></path>
            <path
                    d="M250.008876,74.7626697 C244.418481,74.7632373 239.885649,79.7986255 239.886314,86.0099612 C239.886321,86.1052898 239.905832,86.1963825 239.907909,86.2911435 C239.899672,87.1351126 239.858905,88.1518677 239.886314,88.8866723 C240.019634,92.4691942 240.800563,95.2111039 241.270596,98.5117583 C242.122123,105.576206 242.835644,111.432204 242.395325,116.875125 C241.967104,118.9276 240.455337,120.804693 239.107655,122.109441 L238.869732,126.392064 C232.794935,126.895368 226.679502,127.817002 220.571254,129.203887 C194.287468,135.171651 171.657593,148.710545 154.428528,166.99046 C153.310568,166.227769 151.354709,164.824654 150.773123,164.394931 C148.965826,164.638994 147.139238,165.196631 144.760148,163.810937 C140.230148,160.76162 136.104323,156.552503 131.111993,151.482175 C128.82448,149.056782 127.167952,146.747232 124.450135,144.409359 C123.832939,143.878439 122.891032,143.160356 122.200677,142.614119 C120.075887,140.920055 117.569769,140.036572 115.14949,139.953702 C112.037701,139.847154 109.04208,141.063792 107.081722,143.522554 C103.596646,147.893687 104.71244,154.574696 109.569104,158.446844 C109.618384,158.486089 109.670862,158.516598 109.720509,158.554992 C110.387886,159.095983 111.205124,159.789169 111.818562,160.242085 C114.702623,162.371492 117.337141,163.461545 120.210772,165.151961 C126.264929,168.890775 131.2839,171.990909 135.264839,175.72874 C136.819401,177.385844 137.091108,180.305814 137.298003,181.56868 L140.542414,184.467021 C123.174229,210.604813 115.136091,242.89027 119.886365,275.786376 L115.647001,277.019252 C114.529678,278.462096 112.950828,280.732409 111.299456,281.410022 C106.091005,283.050541 100.229187,283.652967 93.1523838,284.39488 C89.8298924,284.671148 86.9631343,284.50628 83.4407802,285.173539 C82.6655269,285.320397 81.5853439,285.601815 80.7371043,285.800791 C80.7076191,285.807021 80.6800719,285.815742 80.6505867,285.822386 C80.6043517,285.833114 80.5436094,285.85554 80.4991809,285.865645 C74.5328284,287.307229 70.7000283,292.791208 71.9339358,298.194407 C73.168134,303.598872 78.9959475,306.885462 84.9980975,305.591664 C85.0414255,305.581766 85.1043411,305.580105 85.1495033,305.570069 C85.2172639,305.554565 85.2769196,305.521689 85.344168,305.505216 C86.1808626,305.321549 87.2294009,305.117201 87.9613262,304.921222 C91.424343,303.994009 93.9323852,302.631647 97.045677,301.438887 C103.743484,299.036625 109.290849,297.029797 114.695273,296.24783 C116.952469,296.071043 119.330617,297.640528 120.513583,298.302623 L124.925982,297.545594 C135.079816,329.026119 156.358985,354.470746 183.303751,370.436695 L181.465252,374.849094 C182.127921,376.562433 182.858815,378.880607 182.365187,380.572629 C180.40042,385.667618 177.03503,391.045394 173.202818,397.040865 C171.347292,399.810758 169.448279,401.960333 167.773837,405.130263 C167.373157,405.888774 166.862855,407.053945 166.476073,407.855568 C163.874425,413.422016 165.782797,419.833207 170.780325,422.239124 C175.809248,424.66015 182.051474,422.10669 184.752921,416.528961 C184.757074,416.52107 184.770709,416.515256 184.774516,416.507366 C184.777285,416.501136 184.771748,416.491793 184.774516,416.485771 C185.159298,415.694965 185.704428,414.655494 186.029022,413.911872 C187.463228,410.626264 187.940445,407.810607 188.948992,404.632856 C191.627314,397.905148 193.098841,390.846078 196.785814,386.447467 C197.795426,385.242982 199.441427,384.779753 201.147977,384.322843 L203.440694,380.169997 C226.930742,389.18638 253.224086,391.605869 279.489688,385.642237 C285.481532,384.281785 291.26608,382.521062 296.858102,380.40792 C297.502472,381.550874 298.699979,383.747985 299.021043,384.301214 C300.755264,384.865433 302.648166,385.156797 304.190471,387.437478 C306.948923,392.150252 308.83536,397.725572 311.133511,404.459821 C312.142223,407.637516 312.640731,410.453298 314.07511,413.738836 C314.402036,414.487698 314.944439,415.541767 315.329615,416.334365 C318.02538,421.930214 324.287388,424.492403 329.323842,422.066158 C334.320754,419.658961 336.231229,413.248351 333.628094,407.682602 C333.241263,406.881006 332.709415,405.715787 332.3087,404.957297 C330.634092,401.787457 328.735383,399.659318 326.879719,396.889528 C323.047188,390.894258 319.868552,385.913764 317.903515,380.818879 C317.081867,378.191117 318.042137,376.556855 318.682173,374.849163 C318.29888,374.409813 317.478672,371.928266 316.99508,370.761205 C344.997306,354.22723 365.651597,327.833726 375.351219,297.350998 C376.661027,297.556855 378.937576,297.95964 379.677101,298.108028 C381.199492,297.103939 382.599278,295.79384 385.344005,296.009975 C390.748464,296.791659 396.295669,298.799117 402.993601,301.201033 C406.106955,302.393633 408.614894,303.777964 412.077952,304.704997 C412.809884,304.900935 413.858402,305.083736 414.69511,305.267361 C414.762386,305.283834 414.82198,305.31678 414.889775,305.332215 C414.934972,305.34232 414.997853,305.343912 415.041181,305.35381 C421.043677,306.646002 426.872528,303.361337 428.105342,297.956553 C429.337865,292.553035 425.506837,287.067783 419.540097,285.627791 C418.672201,285.430441 417.441353,285.095271 416.598498,284.93565 C413.076109,284.268578 410.2094,284.433086 406.886894,284.156991 C399.810057,283.415445 393.948356,282.812376 388.739822,281.172133 C386.616153,280.348291 385.105369,277.821312 384.370647,276.781363 L380.282689,275.591746 C382.402205,260.257763 381.830697,244.299123 378.163007,228.331492 C374.461167,212.215189 367.919064,197.475264 359.194018,184.488685 C360.242646,183.535406 362.222958,181.781784 362.784499,181.265903 C362.948647,179.449608 362.807617,177.545278 364.687887,175.53411 C368.668625,171.796071 373.687997,168.696463 379.741954,164.957331 C382.615495,163.266762 385.271842,162.177014 388.155793,160.047455 C388.807963,159.565891 389.698507,158.803269 390.383622,158.252214 C395.239255,154.378765 396.357201,147.698157 392.871004,143.327924 C389.384807,138.95769 382.62931,138.546039 377.773678,142.419489 C377.082534,142.966868 376.144704,143.68093 375.52422,144.214729 C372.806528,146.552754 371.128121,148.862034 368.840733,151.287545 C363.848673,156.358136 359.722419,160.588377 355.192577,163.637937 C353.229659,164.780703 350.354539,164.385297 349.049791,164.308448 L345.199757,167.055383 C323.245874,144.034378 293.355169,129.316076 261.16965,126.456952 C261.07963,125.108163 260.961696,122.670131 260.931727,121.936406 C259.614091,120.675567 258.022367,119.599143 257.622427,116.875125 C257.182108,111.432204 257.917259,105.576206 258.768786,98.5117583 C259.238819,95.2111039 260.019748,92.4691942 260.153068,88.8866723 C260.183384,88.0722784 260.134726,86.8905307 260.131473,86.0099612 C260.130809,79.7986255 255.599306,74.7621022 250.008911,74.7626697 L250.008876,74.7626697 Z M237.334044,153.277416 L234.327556,206.37761 L234.111262,206.485757 C233.909614,211.236163 229.999972,215.029373 225.199947,215.029373 C223.233706,215.029373 221.418822,214.397939 219.944001,213.320649 L219.857483,213.363908 L176.317487,182.498745 C189.6991,169.340348 206.815235,159.616293 226.54097,155.137545 C230.144249,154.319414 233.745923,153.712358 237.334044,153.277416 Z M262.705338,153.277416 C285.735271,156.109879 307.033516,166.538021 323.354195,182.520374 L280.095381,213.190873 L279.943975,213.126019 C276.104358,215.93036 270.694597,215.234551 267.701731,211.482184 C266.475728,209.944967 265.832452,208.137489 265.755084,206.312756 L265.711826,206.291161 L262.705338,153.277416 Z M160.52802,202.332911 L200.28287,237.891655 L200.239611,238.10795 C203.827926,241.227408 204.357075,246.640622 201.36434,250.393453 C200.13842,251.930732 198.497437,252.961808 196.735647,253.443199 L196.692389,253.616234 L145.733506,268.324231 C143.13986,244.607901 148.729473,221.553743 160.52802,202.332911 Z M339.20855,202.354506 C345.11535,211.928588 349.588277,222.621876 352.251082,234.214622 C354.881952,245.668365 355.542206,257.101628 354.457281,268.151161 L303.238846,253.399906 L303.195587,253.183611 C298.609115,251.930116 295.790419,247.264685 296.858171,242.585202 C297.295625,240.668235 298.313204,239.046534 299.691624,237.848362 L299.670029,237.740215 L339.208584,202.354506 L339.20855,202.354506 Z M241.85459,240.638556 L258.141533,240.638556 L268.264096,253.291759 L264.630355,269.081225 L250.008876,276.110783 L235.344138,269.059596 L231.710398,253.270129 L241.85459,240.638556 Z M294.067978,283.940628 C294.760098,283.905675 295.449201,283.968037 296.122771,284.092034 L296.209289,283.983887 L348.920153,292.895202 C341.205896,314.568283 326.44439,333.344048 306.721181,345.908878 L286.259762,296.485684 L286.324616,296.399166 C284.445031,292.031763 286.326,286.910217 290.650497,284.827434 C291.75768,284.294201 292.914414,283.998934 294.067943,283.940628 L294.067978,283.940628 Z M205.538816,284.156922 C209.56136,284.213331 213.169408,287.005255 214.104061,291.099962 C214.541626,293.016901 214.328661,294.916254 213.606585,296.593831 L213.757991,296.788495 L193.512866,345.714214 C174.584775,333.568108 159.508483,315.381805 151.44367,293.068272 L203.700316,284.200215 L203.786834,284.308362 C204.371354,284.200797 204.964166,284.148893 205.538816,284.156957 L205.538816,284.156922 Z M249.684435,305.591699 C251.08564,305.540203 252.507436,305.827705 253.858911,306.478504 C255.630452,307.331589 256.998968,308.674799 257.860351,310.28528 L258.055016,310.28528 L283.815639,356.831763 C280.472397,357.952499 277.035363,358.910318 273.520041,359.708474 C253.818573,364.181713 234.179701,362.826341 216.396778,356.766875 L242.092513,310.306909 L242.135772,310.306909 C243.677634,307.42455 246.601791,305.704954 249.684435,305.591699 Z"
                    id="path3059" stroke-width="0.25" fill="#FFFFFF"></path>
        </g>
    </g>
</svg>
