<?xml version="1.0" encoding="UTF-8" standalone="no"?>
<svg
   xmlns:dc="http://purl.org/dc/elements/1.1/"
   xmlns:cc="http://creativecommons.org/ns#"
   xmlns:rdf="http://www.w3.org/1999/02/22-rdf-syntax-ns#"
   xmlns:svg="http://www.w3.org/2000/svg"
   xmlns="http://www.w3.org/2000/svg"
   id="svg77"
   version="1.2"
   viewBox="0 0 413.59051 104.35941"
   height="104.35941pt"
   width="413.59052pt">
  <metadata
     id="metadata83">
    <rdf:RDF>
      <cc:Work
         rdf:about="">
        <dc:format>image/svg+xml</dc:format>
        <dc:type
           rdf:resource="http://purl.org/dc/dcmitype/StillImage" />
        <dc:title></dc:title>
      </cc:Work>
    </rdf:RDF>
  </metadata>
  <defs
     id="defs81" />
  <g
     transform="translate(-121.25716,-356.18359)"
     id="surface619">
    <path
       id="path2"
       transform="matrix(1,0,0,-1,168.9553,408.4915)"
       d="M 0.00173125,-6.875e-4 H 100.61501"
       style="fill:none;stroke:#a3e6f8;stroke-width:2;stroke-linecap:round;stroke-linejoin:round;stroke-miterlimit:4;stroke-dasharray:0, 6.098;stroke-opacity:1" />
    <path
       id="path4"
       transform="matrix(1,0,0,-1,162.8574,408.4915)"
       d="m -0.00193125,-6.875e-4 v 0 m 109.76172125,0 v 0"
       style="fill:none;stroke:#a3e6f8;stroke-width:2;stroke-linecap:round;stroke-linejoin:round;stroke-miterlimit:4;stroke-opacity:1" />
    <path
       id="path6"
       transform="matrix(1,0,0,-1,234.5612,373.809)"
       d="M 0.0013,4.0625e-4 H 45.3138"
       style="fill:none;stroke:#a3e6f8;stroke-width:2;stroke-linecap:round;stroke-linejoin:round;stroke-miterlimit:4;stroke-dasharray:0, 6.042;stroke-opacity:1" />
    <path
       id="path8"
       transform="matrix(1,0,0,-1,228.5192,373.809)"
       d="m 3.3125e-4,4.0625e-4 v 0 m 54.37890675,0 v 0"
       style="fill:none;stroke:#a3e6f8;stroke-width:2;stroke-linecap:round;stroke-linejoin:round;stroke-miterlimit:4;stroke-opacity:1" />
    <path
       id="path10"
       transform="matrix(1,0,0,-1,235.2825,443.7205)"
       d="M -0.00125,0.00175 H 45.315156"
       style="fill:none;stroke:#a3e6f8;stroke-width:2;stroke-linecap:round;stroke-linejoin:round;stroke-miterlimit:4;stroke-dasharray:0, 6.042;stroke-opacity:1" />
    <path
       id="path12"
       transform="matrix(1,0,0,-1,229.2405,443.7205)"
       d="m 0.0016875,0.00175 v 0 m 54.3750005,0 v 0"
       style="fill:none;stroke:#a3e6f8;stroke-width:2;stroke-linecap:round;stroke-linejoin:round;stroke-miterlimit:4;stroke-opacity:1" />
    <path
       id="path14"
       transform="matrix(1,0,0,-1,388.835,408.4915)"
       d="M 9.375e-4,-6.875e-4 H 100.61422"
       style="fill:none;stroke:#a3e6f8;stroke-width:2;stroke-linecap:round;stroke-linejoin:round;stroke-miterlimit:4;stroke-dasharray:0, 6.098;stroke-opacity:1" />
    <path
       id="path16"
       transform="matrix(1,0,0,-1,382.7372,408.4915)"
       d="m 0.00108125,-6.875e-4 v 0 m 109.76171875,0 v 0"
       style="fill:none;stroke:#a3e6f8;stroke-width:2;stroke-linecap:round;stroke-linejoin:round;stroke-miterlimit:4;stroke-opacity:1" />
    <path
       id="path18"
       transform="matrix(1,0,0,-1,378.7794,373.809)"
       d="m 0.00185,4.0625e-4 h 45.3125"
       style="fill:none;stroke:#a3e6f8;stroke-width:2;stroke-linecap:round;stroke-linejoin:round;stroke-miterlimit:4;stroke-dasharray:0, 6.042;stroke-opacity:1" />
    <path
       id="path20"
       transform="matrix(1,0,0,-1,372.7374,373.809)"
       d="m 8.8125e-4,4.0625e-4 v 0 m 54.37890675,0 v 0"
       style="fill:none;stroke:#a3e6f8;stroke-width:2;stroke-linecap:round;stroke-linejoin:round;stroke-miterlimit:4;stroke-opacity:1" />
    <path
       id="path22"
       transform="matrix(1,0,0,-1,379.2012,443.7205)"
       d="m 0.001925,0.00175 h 45.3125"
       style="fill:none;stroke:#a3e6f8;stroke-width:2;stroke-linecap:round;stroke-linejoin:round;stroke-miterlimit:4;stroke-dasharray:0, 6.042;stroke-opacity:1" />
    <path
       id="path24"
       transform="matrix(1,0,0,-1,373.1592,443.7205)"
       d="m 9.5625e-4,0.00175 v 0 m 54.37890575,0 v 0"
       style="fill:none;stroke:#a3e6f8;stroke-width:2;stroke-linecap:round;stroke-linejoin:round;stroke-miterlimit:4;stroke-opacity:1" />
    <path
       id="path26"
       d="m 360.52344,403.17187 c -0.69141,-6.77734 -3.49219,-12.95703 -7.72266,-17.86718 -0.16797,-0.19532 -0.33984,-0.39063 -0.51562,-0.58203 -5.92188,-6.51563 -14.46094,-10.60157 -23.95704,-10.60157 -17.87109,0 -32.36328,14.48828 -32.36328,32.35938 0,17.875 14.49219,32.36719 32.36328,32.36719 8.9375,0 17.03125,-3.6211 22.88672,-9.48047 0.52735,-0.52344 1.02735,-1.06641 1.51172,-1.625 4.10156,-4.72657 6.8711,-10.63282 7.70313,-17.1211 0.0351,-0.26953 0.0664,-0.54297 0.0937,-0.8164 0.0195,-0.17578 0.0351,-0.35157 0.0469,-0.53125 0.082,-0.91407 0.1211,-1.83985 0.1211,-2.77735 0,-1.125 -0.0547,-2.23047 -0.16797,-3.32422 m -32.29688,-22.05078 c 3.62891,0.008 6.46875,2.89063 6.4336,6.53907 -0.0274,3.58593 -2.875,6.41796 -6.44922,6.43359 -3.61719,0.0156 -6.49219,-2.86719 -6.48828,-6.50391 0,-3.64453 2.85156,-6.47656 6.5039,-6.46875 m -24.76953,19.66016 c 0.004,-3.64453 2.85156,-6.47656 6.50391,-6.46875 3.6289,0.004 6.46875,2.89062 6.4375,6.53906 -0.0312,3.58203 -2.875,6.42188 -6.45313,6.4336 -3.61719,0.0156 -6.49219,-2.8711 -6.48828,-6.50391 m 13.66797,27.16406 c -3.61719,0.0117 -6.49219,-2.875 -6.48828,-6.50781 0.004,-3.64453 2.85156,-6.47656 6.5039,-6.46875 3.62891,0.008 6.46875,2.89062 6.4375,6.54297 -0.0312,3.57812 -2.8789,6.41406 -6.45312,6.43359 m 11.10547,-16.51562 c -2.6211,0.0312 -4.8125,-2.1211 -4.84375,-4.76172 -0.0312,-2.67578 2.05859,-4.80469 4.74219,-4.82422 2.6875,-0.0195 4.83203,2.05859 4.86718,4.71875 0.0352,2.60547 -2.14453,4.83203 -4.76562,4.86719 m 10.77344,16.51562 c -3.61719,0.0117 -6.4961,-2.875 -6.49219,-6.50781 0.004,-3.64453 2.85156,-6.47656 6.5039,-6.46875 3.63282,0.008 6.46875,2.89062 6.4375,6.54297 -0.0312,3.57812 -2.87109,6.41406 -6.44921,6.43359 m 7.60546,-20.66015 c -3.61718,0.0117 -6.49218,-2.875 -6.49218,-6.50782 0.008,-3.64453 2.85547,-6.47656 6.50781,-6.46875 3.62891,0.008 6.46484,2.89063 6.43359,6.54297 -0.0273,3.58203 -2.875,6.41797 -6.44922,6.4336"
       style="fill:#7fc5ee;fill-opacity:1;fill-rule:nonzero;stroke:none" />
    <path
       id="path44"
       d="m 376.73828,406.33594 c 0,11.90234 -4.28125,22.80468 -11.39844,31.25 l -7.61718,-7.61719 c 5.19531,-6.47266 8.29687,-14.69531 8.29687,-23.63281 0,-8.80469 -3.00781,-16.89844 -8.04687,-23.33203 l 7.625,-7.6211 c 6.95312,8.39844 11.14062,19.1836 11.14062,30.95313"
       style="fill:#288ad1;fill-opacity:1;fill-rule:nonzero;stroke:none" />
    <path
       id="path46"
       d="m 359.42578,369.17187 -7.60937,7.61329 c -6.47657,-5.1875 -14.69141,-8.28907 -23.64063,-8.28907 -8.79687,0 -16.89844,3.00391 -23.32031,8.04297 l -7.625,-7.62109 c 8.40234,-6.96094 19.18359,-11.14063 30.94531,-11.14063 11.90625,0 22.80859,4.28125 31.25,11.39453"
       style="fill:#288ad1;fill-opacity:1;fill-rule:nonzero;stroke:none" />
    <path
       id="path48"
       d="m 290.33594,406.33594 c 0,8.79687 3.00781,16.89843 8.04687,23.32422 l -7.625,7.62109 c -6.96094,-8.39844 -11.14062,-19.18359 -11.14062,-30.94531 0,-11.90625 4.28515,-22.8125 11.39843,-31.25391 l 7.61719,7.61328 c -5.1914,6.48047 -8.29687,14.69531 -8.29687,23.64063"
       style="fill:#288ad1;fill-opacity:1;fill-rule:nonzero;stroke:none" />
    <path
       id="path50"
       d="m 359.13281,443.75391 c -8.40625,6.96093 -19.1914,11.14062 -30.95312,11.14062 -11.90625,0 -22.8125,-4.28125 -31.25782,-11.39844 l 7.61719,-7.61718 c 6.47656,5.1914 14.69141,8.28906 23.64063,8.28906 8.79687,0 16.89843,-3.00391 23.32422,-8.04297 z m 0,0"
       style="fill:#288ad1;fill-opacity:1;fill-rule:nonzero;stroke:none" />
    <path
       id="path52"
       d="m 220.10937,358.92187 h -22.33203 c -2.05078,0 -3.71875,1.67188 -3.71875,3.72266 v 22.32813 c 0,2.05468 1.66797,3.72265 3.71875,3.72265 h 22.33203 c 2.05079,0 3.72266,-1.66797 3.72266,-3.72265 v -22.32813 c 0,-2.05078 -1.67187,-3.72266 -3.72266,-3.72266 m -22.33203,1.48829 h 22.33203 c 1.23047,0 2.23047,1.0039 2.23047,2.23437 v 5.21094 h -26.79297 v -5.21094 c 0,-1.23047 1,-2.23437 2.23047,-2.23437 m 22.33203,26.79687 h -22.33203 c -1.23047,0 -2.23047,-1.00391 -2.23047,-2.23437 v -15.62891 h 26.79297 v 15.62891 c 0,1.23046 -1,2.23437 -2.23047,2.23437"
       style="fill:#7fc5ee;fill-opacity:1;fill-rule:nonzero;stroke:none" />
    <path
       id="path54"
       d="m 214.15234,364.87891 h 1.49219 c 0.40625,0 0.74219,-0.33594 0.74219,-0.7461 0,-0.41015 -0.33594,-0.74609 -0.74219,-0.74609 h -1.49219 c -0.41015,0 -0.74218,0.33594 -0.74218,0.74609 0,0.41016 0.33203,0.7461 0.74218,0.7461"
       style="fill:#7fc5ee;fill-opacity:1;fill-rule:nonzero;stroke:none" />
    <path
       id="path56"
       d="m 218.62109,364.87891 h 1.48828 c 0.41016,0 0.74219,-0.33594 0.74219,-0.7461 0,-0.41015 -0.33203,-0.74609 -0.74219,-0.74609 h -1.48828 c -0.41406,0 -0.74609,0.33594 -0.74609,0.74609 0,0.41016 0.33203,0.7461 0.74609,0.7461"
       style="fill:#7fc5ee;fill-opacity:1;fill-rule:nonzero;stroke:none" />
    <path
       id="path58"
       d="m 121.65234,403.6875 17.22657,8.11328 c 0.10156,0.0469 0.21093,0.0703 0.32031,0.0703 0.10937,0 0.22265,-0.0234 0.32031,-0.0703 l 17.22656,-8.11328 c 0.24219,-0.11328 0.39844,-0.34766 0.39844,-0.60547 0,-0.25391 -0.15625,-0.48828 -0.39844,-0.60156 l -17.22656,-8.11328 c -0.19922,-0.0937 -0.4375,-0.0937 -0.64062,0 l -17.22657,8.11328 c -0.24218,0.11328 -0.39453,0.34765 -0.39453,0.60156 0,0.25781 0.15235,0.49219 0.39453,0.60547 m 17.54688,-7.96094 15.62109,7.35547 -15.62109,7.35938 -15.61719,-7.35938 z m 0,0"
       style="fill:#7fc5ee;fill-opacity:1;fill-rule:nonzero;stroke:none" />
    <path
       id="path60"
       d="m 156.10547,407.88672 -16.90625,7.96094 -16.90234,-7.96094 c -0.35547,-0.16797 -0.78516,-0.0312 -0.96485,0.30078 -0.17578,0.33594 -0.0312,0.74219 0.32031,0.90625 l 17.22657,8.11328 c 0.10156,0.0469 0.21093,0.0742 0.32031,0.0742 0.10937,0 0.22265,-0.0273 0.32031,-0.0742 l 17.22656,-8.10937 c 0.35547,-0.16797 0.5,-0.57422 0.32032,-0.90625 -0.17969,-0.33594 -0.60547,-0.47266 -0.96094,-0.30469"
       style="fill:#7fc5ee;fill-opacity:1;fill-rule:nonzero;stroke:none" />
    <path
       id="path62"
       d="m 156.10547,413.29297 -16.90625,7.96094 -16.90234,-7.96094 c -0.35547,-0.16406 -0.78516,-0.0274 -0.96485,0.30469 -0.17578,0.33203 -0.0312,0.73828 0.32031,0.90625 l 17.22657,8.11328 c 0.10156,0.0469 0.21093,0.0703 0.32031,0.0703 0.10937,0 0.22265,-0.0234 0.32031,-0.0703 l 17.22656,-8.11328 c 0.35547,-0.16797 0.5,-0.57032 0.32032,-0.90625 -0.17969,-0.33204 -0.60547,-0.46875 -0.96094,-0.30469"
       style="fill:#7fc5ee;fill-opacity:1;fill-rule:nonzero;stroke:none" />
    <path
       id="path64"
       d="m 519.23047,390.41016 c 1.35156,0 2.46484,1.11718 2.46484,2.46484 v 1.71094 c 0.48828,0.16797 0.96485,0.35937 1.42578,0.57812 l 1.20703,-1.20703 c 0.95704,-0.95703 2.52344,-0.95703 3.48047,0 l 3.48047,3.47656 c 0.95703,0.95703 0.95703,2.53907 0,3.4961 l -1.20703,1.20703 c 0.21875,0.46484 0.41797,0.9375 0.58984,1.42187 h 1.70704 c 1.35156,0 2.46875,1.11719 2.46875,2.46875 v 4.92969 c 0,1.35156 -1.11719,2.46484 -2.46875,2.46484 h -1.71875 c -0.16797,0.48047 -0.35938,0.95313 -0.57813,1.41407 l 1.20703,1.20703 c 0.95703,0.95312 0.95703,2.53515 0,3.49219 l -3.48047,3.48046 c -0.95703,0.95313 -2.52343,0.95313 -3.48047,0 l -1.20703,-1.20703 c -0.46093,0.21875 -0.9375,0.40625 -1.42578,0.57813 v 1.71875 c 0,1.35156 -1.11328,2.46484 -2.46484,2.46484 h -4.92969 c -1.35156,0 -2.46484,-1.11328 -2.46484,-2.46484 v -1.71875 c -0.48438,-0.17188 -0.95313,-0.35938 -1.41407,-0.57813 l -1.20703,1.20703 c -0.95703,0.95313 -2.52343,0.95313 -3.48047,0 l -3.49218,-3.48046 c -0.95313,-0.95704 -0.95313,-2.53907 0,-3.49219 l 1.21875,-1.21875 c -0.21485,-0.45313 -0.41797,-0.92188 -0.58985,-1.40235 h -1.71875 c -1.35156,0 -2.46484,-1.11328 -2.46484,-2.46484 v -4.92969 c 0,-1.35156 1.11328,-2.46875 2.46484,-2.46875 h 1.71875 c 0.17578,-0.48437 0.3711,-0.95312 0.58985,-1.41015 l -1.21875,-1.21875 c -0.95313,-0.95703 -0.95313,-2.53907 0,-3.4961 l 3.49218,-3.47656 c 0.95704,-0.95703 2.52344,-0.95703 3.48047,0 l 1.20703,1.20703 c 0.46094,-0.21875 0.92969,-0.41015 1.41407,-0.57812 V 392.875 c 0,-1.34766 1.11328,-2.46484 2.46484,-2.46484 z m 0,1.64453 h -4.92969 c -0.46875,0 -0.82422,0.35156 -0.82422,0.82031 v 2.26172 c 0,0.34765 -0.24609,0.67969 -0.57422,0.78515 -0.80078,0.2461 -1.5664,0.55079 -2.28515,0.9375 -0.3086,0.16016 -0.71875,0.10157 -0.96485,-0.14453 l -1.59375,-1.58984 c -0.33203,-0.33203 -0.83593,-0.33203 -1.16797,0 l -3.49218,3.48047 c -0.33203,0.33203 -0.33203,0.82031 0,1.15234 l 1.60547,1.60547 c 0.2539,0.24609 0.32031,0.66406 0.15234,0.97656 -0.38672,0.73047 -0.71875,1.48438 -0.96094,2.27344 -0.0976,0.33594 -0.43359,0.58984 -0.78515,0.58984 h -2.25782 c -0.46875,0 -0.82422,0.35157 -0.82422,0.82422 v 4.92969 c 0,0.46875 0.35547,0.82031 0.82422,0.82031 h 2.25782 c 0.34765,0 0.67968,0.25 0.78515,0.57813 0.24219,0.79297 0.57422,1.55859 0.96094,2.28515 0.16016,0.3125 0.0937,0.72266 -0.15234,0.96485 l -1.60547,1.60547 c -0.33203,0.33203 -0.33203,0.82422 0,1.15625 l 3.49218,3.48047 c 0.33204,0.33203 0.83594,0.33203 1.16797,0 l 1.59375,-1.59375 c 0.2461,-0.2461 0.65625,-0.30469 0.96485,-0.14063 0.71875,0.38281 1.48437,0.69141 2.28515,0.9375 0.33594,0.10547 0.58203,0.44531 0.57422,0.79688 v 2.25781 c 0,0.46875 0.35547,0.82031 0.82422,0.82031 h 4.92969 c 0.47265,0 0.82422,-0.35156 0.82422,-0.82031 v -2.25781 c -0.008,-0.35157 0.24218,-0.69141 0.57812,-0.79688 0.80469,-0.25 1.57422,-0.55469 2.29688,-0.9375 0.30859,-0.16406 0.71484,-0.10547 0.96093,0.14063 l 1.59375,1.59375 c 0.33204,0.33203 0.83594,0.33203 1.16797,0 l 3.48047,-3.48047 c 0.33203,-0.33203 0.33203,-0.82422 0,-1.15625 l -1.58984,-1.59375 c -0.2461,-0.2461 -0.30469,-0.65625 -0.14453,-0.96094 0.38672,-0.72266 0.6914,-1.49219 0.9375,-2.30078 0.10547,-0.32813 0.4375,-0.57422 0.78515,-0.57813 h 2.25782 c 0.47265,0 0.82421,-0.35156 0.82421,-0.82031 v -4.92969 c 0,-0.47265 -0.35156,-0.82422 -0.82421,-0.82422 h -2.25782 c -0.35156,-0.004 -0.6875,-0.2539 -0.78515,-0.58984 -0.2461,-0.80469 -0.55078,-1.5625 -0.9375,-2.28516 -0.16797,-0.30859 -0.10547,-0.72656 0.14453,-0.97656 l 1.58984,-1.59375 c 0.33203,-0.33203 0.33203,-0.82031 0,-1.15234 l -3.48047,-3.48047 c -0.33203,-0.33203 -0.83593,-0.33203 -1.16797,0 l -1.59375,1.58984 c -0.24609,0.2461 -0.65234,0.30469 -0.96093,0.14453 -0.72266,-0.38671 -1.49219,-0.6914 -2.29688,-0.9375 -0.33203,-0.10546 -0.57812,-0.4375 -0.57812,-0.78515 V 392.875 c 0,-0.46875 -0.35157,-0.82031 -0.82422,-0.82031 z m -2.46485,8.21875 c 4.53125,0 8.21875,3.6875 8.21875,8.21875 0,4.52734 -3.6875,8.21875 -8.21875,8.21875 -4.52734,0 -8.21875,-3.69141 -8.21875,-8.21875 0,-4.53125 3.69141,-8.21875 8.21875,-8.21875 m 0,1.64453 c -3.64062,0 -6.57421,2.93359 -6.57421,6.57422 0,3.64062 2.93359,6.57422 6.57421,6.57422 3.64063,0 6.57422,-2.9336 6.57422,-6.57422 0,-3.64063 -2.93359,-6.57422 -6.57422,-6.57422"
       style="fill:#7fc5ee;fill-opacity:1;fill-rule:nonzero;stroke:none" />
    <path
       id="path66"
       d="m 432.53906,361.34375 v 22.48828 c 0,0.0937 0.0195,0.18359 0.0625,0.26172 0.3711,1.58984 2.4375,2.96094 5.71094,3.80078 1.65234,2.08594 6.46484,3.54297 12.25391,3.54297 6.76562,0 12.20703,-1.98438 12.8164,-4.64453 0.0352,-0.0742 0.0586,-0.15625 0.0586,-0.2461 v -22.76171 c 0,-0.0977 -0.0312,-0.1836 -0.0742,-0.26563 -0.37891,-1.48437 -2.32813,-2.94922 -5.70313,-3.82031 -1.65625,-2.11328 -6.50781,-3.51563 -12.25,-3.51563 -8.36328,0 -12.875,2.65625 -12.875,5.16016 m 6.21875,16.01562 c -0.0195,-0.0898 -0.0391,-0.17578 -0.0391,-0.26562 0,-0.0586 0.008,-0.12109 0.0156,-0.18359 0.0117,-0.082 0.004,-0.16407 -0.0156,-0.24219 v -4.03125 c 0.13281,0.125 0.27344,0.25 0.42578,0.37109 1.94922,1.53516 5.82031,2.73047 11.42188,2.73047 5.62109,0 9.5039,-1.20312 11.4414,-2.75 0.12891,-0.10156 0.2461,-0.20703 0.35547,-0.30859 0.0156,-0.0156 0.0352,-0.0274 0.0469,-0.043 v 4.03125 c -0.0195,0.0781 -0.0274,0.16015 -0.0156,0.24219 0.0117,0.0625 0.0156,0.125 0.0156,0.18359 0,0.0898 -0.0195,0.17578 -0.0391,0.26172 -0.0156,0.0664 -0.0351,0.13281 -0.0586,0.19922 -0.0234,0.0547 -0.0469,0.10547 -0.0742,0.16015 -0.0352,0.0664 -0.0742,0.13282 -0.11719,0.19922 -0.0351,0.0508 -0.0742,0.10156 -0.11328,0.15235 -0.0586,0.0703 -0.12109,0.14062 -0.1875,0.21093 -0.043,0.0469 -0.0898,0.0859 -0.13672,0.12891 -0.082,0.0781 -0.17187,0.15625 -0.26953,0.23437 -0.043,0.0312 -0.0859,0.0625 -0.13281,0.0977 -0.11719,0.082 -0.23828,0.16797 -0.37109,0.25 -0.0352,0.0234 -0.0742,0.043 -0.10938,0.0664 -0.15234,0.0898 -0.3125,0.17968 -0.48437,0.26953 -0.0234,0.008 -0.0469,0.0195 -0.0703,0.0312 -0.1914,0.0976 -0.39453,0.1914 -0.60937,0.28125 -0.008,0.004 -0.0117,0.008 -0.0195,0.008 -1.16797,0.49609 -2.66407,0.91016 -4.41016,1.17969 -0.008,0 -0.0156,0.004 -0.0273,0.004 -0.33594,0.0547 -0.6836,0.10157 -1.04297,0.14063 -0.0547,0.008 -0.11719,0.0117 -0.17578,0.0156 -0.3125,0.0352 -0.62891,0.0664 -0.95313,0.0937 -0.14844,0.0117 -0.30469,0.0156 -0.45312,0.0274 -0.2461,0.0117 -0.48438,0.0312 -0.73828,0.0391 -0.40625,0.0156 -0.82422,0.0234 -1.25,0.0234 -0.42579,0 -0.84375,-0.008 -1.25391,-0.0195 -0.25,-0.0117 -0.49219,-0.0274 -0.73438,-0.043 -0.15234,-0.008 -0.30859,-0.0156 -0.45703,-0.0274 -0.32422,-0.0234 -0.64062,-0.0547 -0.94922,-0.0898 -0.0586,-0.008 -0.12109,-0.0117 -0.17968,-0.0156 -0.35547,-0.043 -0.70313,-0.0899 -1.04297,-0.14454 -0.008,0 -0.0195,0 -0.0274,-0.004 -1.74218,-0.26953 -3.23828,-0.6836 -4.41015,-1.17578 -0.004,-0.004 -0.0117,-0.004 -0.0156,-0.008 -0.21875,-0.0898 -0.41797,-0.1875 -0.61328,-0.28125 -0.0195,-0.0117 -0.0469,-0.0234 -0.0664,-0.0351 -0.17579,-0.0859 -0.33594,-0.17969 -0.48829,-0.26953 -0.0351,-0.0234 -0.0742,-0.043 -0.10937,-0.0664 -0.13281,-0.082 -0.25391,-0.16406 -0.37109,-0.25 -0.043,-0.0312 -0.0899,-0.0664 -0.13282,-0.0977 -0.0976,-0.0781 -0.18359,-0.15234 -0.26953,-0.23046 -0.0469,-0.043 -0.0937,-0.0859 -0.13281,-0.12891 -0.0703,-0.0703 -0.13281,-0.14063 -0.1875,-0.21484 -0.0391,-0.0469 -0.0781,-0.0977 -0.11328,-0.14844 -0.0469,-0.0664 -0.0859,-0.13281 -0.1211,-0.19922 -0.0273,-0.0547 -0.0508,-0.10938 -0.0703,-0.16406 -0.0273,-0.0664 -0.0469,-0.12891 -0.0625,-0.19532 m 23.45313,-11.0664 c 0.0703,-0.0586 0.13672,-0.11328 0.19922,-0.17578 v 4.03515 c -0.0195,0.0781 -0.0274,0.16016 -0.0156,0.24219 0.0117,0.0586 0.0156,0.12109 0.0156,0.17969 0,0.0898 -0.0195,0.17578 -0.0391,0.26562 -0.0156,0.0625 -0.0351,0.12891 -0.0586,0.19532 -0.0234,0.0547 -0.0469,0.10937 -0.0742,0.16015 -0.0352,0.0703 -0.0742,0.13281 -0.11719,0.20313 -0.0351,0.0508 -0.0742,0.0976 -0.11328,0.14843 -0.0586,0.0703 -0.12109,0.14454 -0.1875,0.21485 -0.043,0.043 -0.0898,0.0859 -0.13672,0.1289 -0.082,0.0781 -0.17187,0.15235 -0.26953,0.23047 -0.043,0.0312 -0.0859,0.0664 -0.13281,0.0977 -0.11719,0.0859 -0.23828,0.16797 -0.37109,0.25 -0.0352,0.0234 -0.0742,0.043 -0.10938,0.0664 -0.15234,0.0898 -0.3125,0.18359 -0.48828,0.26953 -0.0195,0.0117 -0.043,0.0195 -0.0664,0.0351 -0.1914,0.0937 -0.39453,0.1875 -0.60937,0.28125 -0.008,0 -0.0117,0.004 -0.0195,0.004 -1.16797,0.49609 -2.66407,0.91016 -4.41016,1.17969 -0.008,0.004 -0.0156,0.004 -0.0273,0.004 -0.33594,0.0547 -0.6836,0.10157 -1.04297,0.14063 -0.0547,0.008 -0.11719,0.0117 -0.17578,0.0195 -0.3125,0.0312 -0.62891,0.0664 -0.95313,0.0898 -0.14844,0.0117 -0.30469,0.0156 -0.45312,0.0274 -0.2461,0.0156 -0.48438,0.0312 -0.73828,0.0391 -0.40625,0.0156 -0.82422,0.0273 -1.25,0.0273 -0.42579,0 -0.84375,-0.0117 -1.25391,-0.0234 -0.25,-0.0117 -0.49219,-0.0274 -0.73438,-0.043 -0.15234,-0.008 -0.30859,-0.0156 -0.45703,-0.0274 -0.32422,-0.0234 -0.64062,-0.0547 -0.94922,-0.0898 -0.0586,-0.004 -0.12109,-0.0117 -0.17968,-0.0156 -0.35547,-0.043 -0.70313,-0.0898 -1.04297,-0.14062 -0.008,-0.004 -0.0195,-0.004 -0.0274,-0.004 -1.74218,-0.27343 -3.23828,-0.6875 -4.41015,-1.17968 -0.004,-0.004 -0.0117,-0.004 -0.0156,-0.008 -0.21875,-0.0898 -0.41797,-0.18359 -0.61328,-0.28125 -0.0195,-0.0117 -0.0469,-0.0234 -0.0664,-0.0351 -0.17579,-0.0859 -0.33594,-0.17578 -0.48829,-0.26953 -0.0351,-0.0195 -0.0742,-0.043 -0.10937,-0.0625 -0.13281,-0.082 -0.25391,-0.16797 -0.37109,-0.25391 -0.043,-0.0312 -0.0899,-0.0625 -0.13282,-0.0977 -0.0976,-0.0781 -0.18359,-0.15234 -0.26953,-0.23047 -0.0469,-0.043 -0.0937,-0.0859 -0.13281,-0.1289 -0.0703,-0.0703 -0.13281,-0.14063 -0.1875,-0.21094 -0.0391,-0.0508 -0.0781,-0.10156 -0.11328,-0.15234 -0.0469,-0.0664 -0.0859,-0.13282 -0.1211,-0.19922 -0.0273,-0.0547 -0.0508,-0.10938 -0.0703,-0.16406 -0.0273,-0.0625 -0.0469,-0.12891 -0.0625,-0.19532 -0.0195,-0.0898 -0.0391,-0.17578 -0.0391,-0.26172 0,-0.0625 0.008,-0.125 0.0156,-0.18359 0.0117,-0.082 0.004,-0.16406 -0.0156,-0.24219 v -4.03515 c 0.0625,0.0625 0.13281,0.11718 0.19922,0.17578 0.0391,0.0351 0.0703,0.0664 0.10937,0.0976 0.15625,0.12891 0.32032,0.25782 0.50391,0.37891 0.0391,0.0273 0.0781,0.0508 0.11719,0.0781 0.15234,0.0976 0.3125,0.19531 0.48047,0.29296 0.0625,0.0352 0.125,0.0664 0.1914,0.10157 0.1875,0.10156 0.38281,0.19922 0.58985,0.29687 0.0351,0.0156 0.0664,0.0312 0.10156,0.0469 0.23828,0.10547 0.49609,0.21093 0.76562,0.30859 0.0703,0.0312 0.14844,0.0547 0.22657,0.082 0.21093,0.0781 0.42968,0.14844 0.65625,0.21875 0.082,0.0234 0.16406,0.0508 0.24609,0.0742 0.30078,0.0898 0.61328,0.17188 0.94141,0.25 0.043,0.008 0.0898,0.0195 0.13671,0.0312 0.28907,0.0625 0.58594,0.125 0.89454,0.18359 0.10156,0.0195 0.21093,0.0391 0.3164,0.0547 0.29297,0.0508 0.59375,0.0977 0.89844,0.14063 0.082,0.0117 0.15625,0.0234 0.23828,0.0351 0.38281,0.0469 0.77734,0.0899 1.1875,0.125 0.10156,0.008 0.20313,0.0156 0.30469,0.0234 0.32812,0.0234 0.66015,0.043 1,0.0625 0.125,0.004 0.25,0.0117 0.375,0.0156 0.44531,0.0156 0.89844,0.0273 1.36328,0.0273 0.47266,0 0.92187,-0.0117 1.36719,-0.0273 0.1289,-0.004 0.25,-0.0117 0.375,-0.0156 0.33984,-0.0195 0.67578,-0.0391 1,-0.0625 0.10156,-0.008 0.20703,-0.0156 0.30859,-0.0234 0.40625,-0.0351 0.80469,-0.0781 1.1875,-0.125 0.0781,-0.0117 0.15625,-0.0234 0.23438,-0.0351 0.30859,-0.043 0.60937,-0.0899 0.90234,-0.14063 0.10547,-0.0156 0.21094,-0.0351 0.3125,-0.0547 0.30859,-0.0586 0.60547,-0.12109 0.89453,-0.18359 0.0469,-0.0117 0.0937,-0.0195 0.14063,-0.0312 0.32421,-0.0781 0.63671,-0.16016 0.9375,-0.25 0.0859,-0.0234 0.16406,-0.0508 0.24609,-0.0742 0.22656,-0.0703 0.44531,-0.14062 0.66016,-0.21875 0.0742,-0.0273 0.15234,-0.0508 0.22656,-0.082 0.26562,-0.0977 0.52344,-0.20312 0.76562,-0.30859 0.0352,-0.0156 0.0625,-0.0312 0.0977,-0.0469 0.20703,-0.0976 0.40625,-0.19531 0.59375,-0.29687 0.0625,-0.0352 0.125,-0.0664 0.1875,-0.10157 0.16797,-0.0976 0.32812,-0.19531 0.48047,-0.29296 0.0391,-0.0274 0.082,-0.0508 0.11719,-0.0781 0.18359,-0.12109 0.35156,-0.25 0.5039,-0.37891 0.0391,-0.0312 0.0742,-0.0625 0.10938,-0.0976 m -24.75391,11.05078 c -1.95703,-0.64063 -3.31641,-1.50391 -3.74219,-2.37891 -0.004,-0.008 -0.008,-0.0156 -0.0117,-0.0234 -0.0273,-0.0547 -0.0469,-0.11329 -0.0664,-0.17188 -0.008,-0.0156 -0.008,-0.0312 -0.0156,-0.043 -0.0156,-0.0547 -0.0273,-0.10547 -0.0351,-0.15625 -0.0117,-0.0664 -0.0195,-0.1289 -0.0195,-0.1914 v -4.42188 c 0.76171,0.72266 1.92187,1.35156 3.44921,1.85938 0,0 0.004,0.004 0.004,0.004 0.19531,0.0664 0.39844,0.125 0.60547,0.1875 0.0195,0.008 0.043,0.0117 0.0625,0.0195 v 5.38672 c -0.0781,-0.0234 -0.15234,-0.0469 -0.23047,-0.0703 m -3.84766,-13.875 c 0.0664,0.0586 0.13672,0.12109 0.21094,0.18359 0.043,0.0352 0.0859,0.0703 0.12891,0.10938 0.0859,0.0625 0.17578,0.1289 0.26562,0.1914 0.043,0.0312 0.0781,0.0586 0.125,0.0899 0.1211,0.082 0.25,0.16015 0.38672,0.24219 0.0156,0.008 0.0274,0.0195 0.043,0.0273 0.15234,0.0898 0.3125,0.17578 0.48047,0.26172 0.043,0.0195 0.0898,0.043 0.13672,0.0625 0.12109,0.0625 0.25,0.12109 0.3789,0.17969 0.0703,0.0312 0.14454,0.0586 0.21485,0.0898 0.11328,0.0469 0.22656,0.0977 0.34765,0.14453 0.082,0.0312 0.16797,0.0625 0.25391,0.0937 0.11328,0.043 0.22656,0.082 0.34375,0.12109 0.0937,0.0352 0.19141,0.0664 0.28906,0.0977 0.11328,0.0352 0.23047,0.0703 0.34766,0.10547 0.043,0.0156 0.082,0.0273 0.125,0.0391 v 5.39063 c -0.0781,-0.0274 -0.15234,-0.0508 -0.23047,-0.0742 -1.95703,-0.64063 -3.31641,-1.50391 -3.74219,-2.37891 -0.004,-0.008 -0.008,-0.0156 -0.0117,-0.0195 -0.0273,-0.0586 -0.0469,-0.11719 -0.0664,-0.17187 -0.008,-0.0156 -0.008,-0.0312 -0.0156,-0.0469 -0.0156,-0.0547 -0.0273,-0.10547 -0.0351,-0.15625 -0.0117,-0.0664 -0.0195,-0.12891 -0.0195,-0.19141 v -4.42578 c 0.0156,0.0117 0.0273,0.0195 0.043,0.0352 m 21.8125,-4.22266 c -1.08203,-0.16406 -2.25781,-0.27734 -3.54687,-0.32031 -0.43359,-0.0195 -0.87109,-0.0273 -1.30859,-0.0273 -0.44532,0 -0.88282,0.008 -1.3125,0.0273 -4.77344,0.16406 -8.13282,1.23438 -9.96094,2.59766 -0.10156,0.0742 -0.20703,0.14843 -0.30078,0.22656 -0.004,0.004 -0.008,0.008 -0.0117,0.0117 -0.65625,0.54297 -1.08594,1.14062 -1.23438,1.77734 0,0.004 0,0.008 -0.004,0.0117 -0.008,0.0195 -0.0156,0.0391 -0.0234,0.0625 -0.0195,0.0547 -0.0312,0.11328 -0.0312,0.17188 v 0.58984 c -0.0859,-0.0234 -0.16797,-0.0508 -0.25391,-0.0781 -0.0586,-0.0195 -0.12109,-0.0391 -0.18359,-0.0586 -0.11328,-0.0391 -0.22266,-0.0781 -0.33203,-0.12109 -0.043,-0.0156 -0.0899,-0.0274 -0.12891,-0.0469 -0.15234,-0.0547 -0.29687,-0.11328 -0.4414,-0.17187 -0.0195,-0.0117 -0.043,-0.0195 -0.0664,-0.0312 -0.11328,-0.0469 -0.23047,-0.0977 -0.33594,-0.14844 -0.0508,-0.0234 -0.0937,-0.0469 -0.13672,-0.0664 -0.082,-0.043 -0.16797,-0.082 -0.24609,-0.125 -0.0469,-0.0234 -0.0898,-0.0469 -0.13672,-0.0742 -0.0742,-0.0391 -0.14453,-0.0781 -0.21094,-0.11718 -0.0469,-0.0274 -0.0898,-0.0547 -0.13281,-0.082 -0.0664,-0.0391 -0.125,-0.0781 -0.1875,-0.11719 -0.043,-0.0274 -0.082,-0.0586 -0.125,-0.0859 -0.0547,-0.0391 -0.10937,-0.0781 -0.16016,-0.11719 -0.0391,-0.0312 -0.0781,-0.0586 -0.11328,-0.0898 -0.0469,-0.0391 -0.0976,-0.0781 -0.14062,-0.11719 -0.0352,-0.0312 -0.0664,-0.0625 -0.10156,-0.0898 -0.043,-0.043 -0.082,-0.082 -0.1211,-0.1211 -0.0273,-0.0312 -0.0547,-0.0625 -0.082,-0.0937 -0.0391,-0.0391 -0.0703,-0.082 -0.10156,-0.12109 -0.0234,-0.0312 -0.0469,-0.0625 -0.0703,-0.0937 -0.0312,-0.0391 -0.0547,-0.082 -0.082,-0.125 -0.0156,-0.0273 -0.0351,-0.0586 -0.0508,-0.0898 -0.0273,-0.043 -0.043,-0.0859 -0.0625,-0.13282 -0.0117,-0.0273 -0.0273,-0.0547 -0.0351,-0.082 -0.0195,-0.0508 -0.0312,-0.0976 -0.043,-0.14843 -0.004,-0.0234 -0.0117,-0.0469 -0.0156,-0.0703 -0.0156,-0.0703 -0.0234,-0.14453 -0.0234,-0.21484 0,-1.92969 4.86718,-4.07422 11.84765,-4.07422 4.4961,0 8.01172,0.875 10.00781,1.97656 m 6.98829,4.8125 c 0,1.92578 -4.86329,4.07422 -11.84375,4.07422 -6.98438,0 -11.84766,-2.14844 -11.84766,-4.07422 0,-0.0898 0.0195,-0.17578 0.0391,-0.26562 0.0156,-0.0664 0.0352,-0.12891 0.0625,-0.19531 0.0195,-0.0547 0.043,-0.10938 0.0742,-0.16407 0.0312,-0.0664 0.0703,-0.1289 0.11328,-0.19531 0.0352,-0.0508 0.0781,-0.10547 0.11719,-0.15625 0.0547,-0.0703 0.11719,-0.13672 0.18359,-0.20703 0.043,-0.0469 0.0937,-0.0898 0.14063,-0.13672 0.082,-0.0742 0.16797,-0.14844 0.26172,-0.22266 0.0469,-0.0351 0.0937,-0.0703 0.14453,-0.10546 0.11328,-0.082 0.23047,-0.16407 0.35937,-0.24219 0.0391,-0.0274 0.082,-0.0508 0.1211,-0.0742 0.15234,-0.0898 0.30468,-0.17578 0.47265,-0.26172 0.0274,-0.0156 0.0586,-0.0273 0.0859,-0.043 0.1875,-0.0937 0.38281,-0.18359 0.59375,-0.27344 0.0117,-0.004 0.0273,-0.0117 0.0391,-0.0156 1.16797,-0.48828 2.65625,-0.90234 4.39063,-1.17188 0.0156,-0.004 0.0351,-0.004 0.0508,-0.008 0.33203,-0.0508 0.67187,-0.0976 1.01953,-0.13672 0.0625,-0.008 0.13281,-0.0117 0.19531,-0.0195 0.3086,-0.0312 0.61719,-0.0625 0.9375,-0.0898 0.15235,-0.0117 0.3086,-0.0156 0.46485,-0.0234 0.24218,-0.0156 0.47656,-0.0352 0.72656,-0.043 0.41016,-0.0156 0.82812,-0.0234 1.25,-0.0234 0.38672,0 0.75781,0.008 1.125,0.0195 0.125,0.008 0.24609,0.0117 0.36719,0.0156 0.2539,0.0117 0.50781,0.0273 0.75781,0.043 0.12109,0.0117 0.24609,0.0156 0.36719,0.0273 0.32031,0.0274 0.63672,0.0586 0.94531,0.0937 0.15234,0.0156 0.30469,0.0352 0.45703,0.0547 0.17578,0.0273 0.35547,0.0508 0.52734,0.0742 0.15625,0.0273 0.3125,0.0508 0.46875,0.0781 0.17579,0.0274 0.34766,0.0586 0.51563,0.0937 0.13281,0.0234 0.26953,0.0469 0.39844,0.0742 3.65234,0.76953 5.91797,2.1836 5.91797,3.5 M 438.90698,386.922 c -0.0234,-0.043 -0.0508,-0.0859 -0.0703,-0.1289 -0.0469,-0.10938 -0.0859,-0.22266 -0.10157,-0.33203 -0.004,-0.0274 -0.008,-0.0508 -0.0156,-0.0742 v -7.23047 c 0.13281,0.125 0.27344,0.25 0.42578,0.36719 1.94922,1.53906 5.82031,2.73047 11.42188,2.73047 5.62109,0 9.5039,-1.19922 11.4414,-2.75 0.12891,-0.0977 0.2461,-0.20313 0.35547,-0.3086 0.0156,-0.0117 0.0352,-0.0273 0.0469,-0.0391 v 7.23437 c -0.004,0.0195 -0.0117,0.043 -0.0156,0.0703 -0.29297,1.8789 -5.11328,3.89062 -11.82812,3.89062 -6.16797,0 -10.72657,-1.69922 -11.66016,-3.42969 m -5.33984,-3.25 v -7.19531 c 0.76171,0.71875 1.92187,1.35156 3.44921,1.85938 0,0 0.004,0.004 0.004,0.004 0.19531,0.0625 0.39844,0.125 0.60547,0.1875 0.0195,0.004 0.043,0.0117 0.0625,0.0195 v 8 c 0,0.0195 0,0.0352 0.004,0.0508 -2.39844,-0.74219 -3.94532,-1.80079 -4.10547,-2.85547 -0.004,-0.0234 -0.0117,-0.0469 -0.0195,-0.0703"
       style="fill:#7fc5ee;fill-opacity:1;fill-rule:nonzero;stroke:none" />
    <path
       id="path68"
       d="m 445.61328,437.24219 c -0.35937,-0.32032 -0.92969,-0.32032 -1.25391,0.0391 l -5.54687,5.86719 c -0.32422,0.35937 -0.32422,0.89453 0,1.21875 l 5.54687,5.87109 c 0.17969,0.17578 0.42969,0.28516 0.64454,0.28516 0.21484,0 0.42968,-0.0742 0.60937,-0.25 0.35938,-0.32422 0.35938,-0.89453 0.0352,-1.25391 l -4.9375,-5.26172 4.9375,-5.26172 c 0.35937,-0.35547 0.32422,-0.92968 -0.0352,-1.2539 m 9.91406,0.0391 c -0.32422,-0.35938 -0.89453,-0.35938 -1.2539,-0.0391 -0.35547,0.32422 -0.35547,0.89843 -0.0352,1.2539 l 4.94141,5.26172 -4.94141,5.26172 c -0.32031,0.35938 -0.32031,0.92969 0.0352,1.25391 0.17968,0.17578 0.39453,0.25 0.60937,0.25 0.25,0 0.46485,-0.10938 0.64453,-0.28516 l 5.54688,-5.87109 c 0.32422,-0.35938 0.32422,-0.89453 0,-1.21875 z m -3.97265,-0.17969 c -0.46485,-0.10937 -0.96485,0.17969 -1.07422,0.64453 l -2.79297,11.5586 c -0.10547,0.46484 0.17969,0.96875 0.64453,1.07422 0.0742,0 0.14453,0.0351 0.21484,0.0351 0.39454,0 0.78907,-0.28515 0.85938,-0.67969 l 2.79297,-11.55859 c 0.14453,-0.46875 -0.17969,-0.96875 -0.64453,-1.07422 m 13.60156,-0.32422 c -0.57422,-1.7539 -1.53906,-3.0039 -2.93359,-3.79297 -1.50391,-0.89453 -3.00782,-1.7539 -4.51172,-2.61328 -1.50391,-0.85937 -3.00782,-1.71875 -4.51172,-2.61328 -0.96485,-0.53515 -1.92969,-0.82031 -3.00391,-0.85937 -1.28906,-0.0352 -2.39844,0.21484 -3.36719,0.78906 -0.85546,0.5 -1.71484,0.96484 -2.53906,1.46875 -2.14844,1.21484 -4.36719,2.50391 -6.55078,3.79297 -2.07422,1.2539 -3.18359,3.18359 -3.18359,5.54687 -0.0391,2.32813 0,4.69141 0,6.98047 v 3.47266 c 0,0.67969 0.10547,1.32422 0.28515,1.85937 0.57032,1.64844 1.53907,2.89844 2.89844,3.6875 1.46875,0.85938 2.97266,1.71875 4.47656,2.57813 1.5,0.85937 3.00391,1.71484 4.47266,2.57422 0.89453,0.53906 1.82422,0.82422 2.89844,0.89453 h 0.5 c 1.14453,0 2.18359,-0.28516 3.11328,-0.82031 2.9375,-1.71875 5.98047,-3.50782 8.98437,-5.22657 0.96875,-0.53906 1.75391,-1.28906 2.32813,-2.29297 0.64453,-1.10546 0.92969,-2.03906 0.92969,-3.03906 v -10.70312 c -0.0352,-0.5 -0.10547,-1.10938 -0.28516,-1.6836 m -1.53906,12.45703 c 0,0.64454 -0.21485,1.32422 -0.71485,2.14844 -0.39453,0.71485 -0.93359,1.25391 -1.64843,1.64453 -3.04297,1.71875 -6.08594,3.50782 -9.01954,5.22657 -0.75,0.42968 -1.57421,0.60937 -2.57812,0.57421 -0.78516,-0.0742 -1.46484,-0.28906 -2.10938,-0.67968 -1.5039,-0.85938 -2.97265,-1.71875 -4.47656,-2.57813 -1.5,-0.85937 -2.96875,-1.71875 -4.47265,-2.57812 -1,-0.57422 -1.6836,-1.42969 -2.11329,-2.71875 -0.14062,-0.35938 -0.21484,-0.78907 -0.21484,-1.28907 v -10.45312 c 0,-1.78906 0.75391,-3.07813 2.32813,-4.04297 2.14843,-1.28906 4.36718,-2.54297 6.51562,-3.79297 0.85938,-0.5039 1.71484,-0.96875 2.57422,-1.46875 0.64453,-0.39453 1.32422,-0.57422 2.18359,-0.57422 h 0.21485 c 0.78906,0.0391 1.5039,0.25 2.18359,0.64453 1.50391,0.89454 3.00781,1.75391 4.51172,2.61329 1.5,0.85937 3.00391,1.71875 4.50781,2.61328 1.00391,0.57422 1.6836,1.46875 2.11328,2.79297 0.10547,0.35546 0.17969,0.78515 0.17969,1.21484 v 10.70312 z m 0,0"
       style="fill:#7fc5ee;fill-opacity:1;fill-rule:nonzero;stroke:none" />
    <path
       id="path70"
       d="m 222.53906,435.07812 c 0,-2.28125 -1.96875,-4.14062 -4.76172,-5.40625 -2.79687,-1.26171 -6.55468,-2.0039 -10.6914,-2.0039 -4.14063,0 -7.89844,0.74219 -10.69141,2.0039 -2.79687,1.26563 -4.76172,3.125 -4.76172,5.40625 0.004,5.67579 0,11.54297 0,17.28516 0,2.27734 1.96485,4.12891 4.76172,5.39063 2.79297,1.26171 6.55078,2.01953 10.69141,2.01953 4.13672,0 7.89453,-0.75782 10.6914,-2.01953 2.79688,-1.26172 4.76172,-3.11329 4.76172,-5.39063 M 207.08594,429.3125 c 3.90625,0 7.4414,0.72266 9.91797,1.83984 2.48046,1.1211 3.76562,2.5625 3.76562,3.92578 0,1.35938 -1.28516,2.78907 -3.76562,3.91016 -2.47657,1.11719 -6.01172,1.85156 -9.91797,1.85156 -3.90625,0 -7.44141,-0.73437 -9.92188,-1.85156 -2.47656,-1.12109 -3.76562,-2.55078 -3.76562,-3.91016 0,-1.36328 1.28906,-2.80468 3.76562,-3.92578 2.48047,-1.11718 6.01563,-1.83984 9.92188,-1.83984 m -13.6875,9.26172 c 0.79687,0.72656 1.82031,1.35937 2.99609,1.89062 2.79297,1.26563 6.55078,2.01953 10.69141,2.01953 4.13672,0 7.89453,-0.7539 10.6914,-2.01953 1.17578,-0.53125 2.19532,-1.16406 2.99219,-1.89062 v 2.26562 c 0,1.35938 -1.28516,2.78907 -3.76562,3.91016 -2.47657,1.12109 -6.01172,1.85156 -9.91797,1.85156 -3.90625,0 -7.44141,-0.73047 -9.92188,-1.85156 -2.47656,-1.12109 -3.76562,-2.55078 -3.76562,-3.91016 z m 0,5.76562 c 0.79687,0.72266 1.82031,1.35938 2.99609,1.88672 2.79297,1.26563 6.55078,2.02344 10.69141,2.02344 4.13672,0 7.89453,-0.75781 10.6914,-2.02344 1.17578,-0.52734 2.19532,-1.16406 2.99219,-1.88672 v 2.26172 c 0,1.35938 -1.28516,2.78906 -3.76562,3.91016 -2.47657,1.12109 -6.01172,1.85156 -9.91797,1.85156 -3.90625,0 -7.44141,-0.73047 -9.92188,-1.85156 -2.47656,-1.1211 -3.76562,-2.55078 -3.76562,-3.91016 z m 0,5.76172 c 0.79687,0.72656 1.82031,1.35938 2.99609,1.89063 2.79297,1.26172 6.55078,2.01953 10.69141,2.01953 4.13672,0 7.89453,-0.75781 10.6914,-2.01953 1.17578,-0.53125 2.19532,-1.16407 2.99219,-1.89063 v 2.26172 c 0,1.35938 -1.28516,2.79297 -3.76562,3.91406 -2.47657,1.11719 -6.01172,1.85157 -9.91797,1.85157 -3.90625,0 -7.44141,-0.73438 -9.92188,-1.85157 -2.47656,-1.12109 -3.76562,-2.55468 -3.76562,-3.91406 z m 0,0"
       style="fill:#7fc5ee;fill-opacity:1;fill-rule:nonzero;stroke:none" />
    <path
       id="path72"
       transform="matrix(1,0,0,-1,15,21)"
       d="m 0,0 h -15 m 639,0 h 15 M 0,-792 h -15 m 639,0 h 15 M 6,6 v 15 m 0,-819 v -15 M 618,6 v 15 m 0,-819 v -15"
       style="fill:none;stroke:#ffffff;stroke-width:1.25;stroke-linecap:butt;stroke-linejoin:miter;stroke-miterlimit:10;stroke-opacity:1" />
    <path
       id="path74"
       transform="matrix(1,0,0,-1,15,21)"
       d="m 0,0 h -15 m 639,0 h 15 M 0,-792 h -15 m 639,0 h 15 M 6,6 v 15 m 0,-819 v -15 M 618,6 v 15 m 0,-819 v -15"
       style="fill:none;stroke:#000000;stroke-width:0.25;stroke-linecap:butt;stroke-linejoin:miter;stroke-miterlimit:10;stroke-opacity:1" />
  </g>
</svg>
