<svg class="svg-icon" xmlns="http://www.w3.org/2000/svg" xmlns:xlink="http://www.w3.org/1999/xlink" version="1.1" x="0px" y="0px" viewBox="0 0 100 100" enable-background="new 0 0 100 100" xml:space="preserve"><path d="M84.787,57.033c-0.002-5.463-4.449-9.907-9.917-9.907h-0.447l-0.008-16.939C74.408,16.299,63.104,5,49.202,5  C35.308,5.007,24.009,16.317,24.016,30.212l0.009,16.997c-2.239,0.242-4.314,1.232-5.928,2.848c-1.871,1.873-2.901,4.363-2.899,7.01  l0.014,28.025C15.213,90.555,19.659,95,25.122,95h0.006l49.767-0.025c2.647-0.001,5.136-1.034,7.007-2.906  c1.871-1.873,2.901-4.363,2.899-7.01L84.787,57.033z M49.215,8.83c11.777,0,21.363,9.581,21.37,21.359l0.009,18.535h-4.752  l-0.009-18.532c-0.005-9.158-7.459-16.609-16.617-16.609h-0.009c-4.432,0.002-8.603,1.735-11.743,4.878  c-3.141,3.143-4.869,7.315-4.867,11.748l0.01,18.516h-4.751l-0.01-18.513C27.84,18.427,37.422,8.836,49.215,8.83z M62.005,30.193  l0.008,16.939l-25.576,0.013l-0.009-16.939c-0.004-7.051,5.73-12.791,12.782-12.795l0.007-1.915v1.915  C56.264,17.411,62,23.145,62.005,30.193z M79.192,89.361c-1.148,1.149-2.675,1.783-4.3,1.784L25.126,91.17l-0.003,1.915V91.17  c-3.352,0-6.08-2.727-6.082-6.079l-0.014-28.025c-0.001-1.625,0.631-3.152,1.779-4.301c1.148-1.15,2.675-1.783,4.3-1.784  l49.769-0.025c3.352,0,6.081,2.727,6.083,6.079l0.014,28.025C80.972,86.685,80.34,88.212,79.192,89.361z"></path><path d="M49.781,63.185h-0.028c-1.962,0-3.876,0.823-5.094,2.362c-3.083,3.893-1.706,8.636,1.662,10.702l-1.247,8.291  c0.001,1.052,1.548,3.374,3.467,3.373l2.92-0.001c1.918-0.001,3.482-2.323,3.481-3.375l-1.255-8.292  c2.901-1.784,4.322-5.556,2.681-9.058C55.191,64.679,52.551,63.185,49.781,63.185z M51.133,73.3l-1.131,0.421l-1.131-0.42  c-2.023-0.75-2.998-3.369-1.203-5.402c0.547-0.619,1.363-0.938,2.189-0.931c1.247,0.009,2.46,0.635,3.036,1.741  C53.86,70.57,52.894,72.645,51.133,73.3z"></path></svg>
