<svg xmlns="http://www.w3.org/2000/svg" xmlns:xlink="http://www.w3.org/1999/xlink" version="1.1" x="0px" y="0px" viewBox="0 0 512 512" enable-background="new 0 0 512 512" xml:space="preserve"><g><path d="M419.9,205.4v-79l-23.3-4.7c-2.6-8.4-6-16.4-9.9-24.1l13.1-19.7l-55.9-55.8l-19.7,13.1c-7.7-4-15.7-7.3-24.1-9.9L295.5,2   h-79l-4.6,23.3c-8.4,2.6-16.4,5.9-24.1,9.9l-19.7-13.1l-55.9,55.8l13.1,19.7c-4,7.7-7.3,15.7-9.9,24.1l-23.3,4.7v79l23.3,4.7   c2.6,8.4,5.9,16.4,9.9,24.1l-13.1,19.7l45.5,45.5v112.4h24.6V510h65.5h16.4h65.5v-98.3h24.6V299.3l45.5-45.5l-13.1-19.7   c4-7.6,7.3-15.7,9.9-24.1L419.9,205.4z M332.3,228.1c-5.7-3-12.1-4.9-19-4.9h-26.5L256,279.9l-30.9-56.6h-26.5   c-6.8,0-13.1,1.8-18.8,4.8c-14.3-17.5-22.2-39.1-22.2-62.1c0-54.2,44.1-98.3,98.3-98.3s98.3,44.1,98.3,98.3   C354.3,188.2,346.4,210.4,332.3,228.1z M247.8,493.6h-49.2v-81.9h49.2V493.6z M313.4,493.6h-49.2v-81.9h49.2V493.6z M337.9,395.3   h-8.2h-65.5h-16.4h-65.5h-8.2V264.2c0-13.6,11-24.6,24.6-24.6h16.7l40.6,74.5l40.6-74.5h16.7c13.6,0,24.6,11,24.6,24.6V395.3z    M383.6,195.9l-1.3,4.9c-2.9,10.5-7,20.5-12.3,29.7l-2.5,4.4l11.2,16.9l-24.4,24.4v-11.9c0-9.8-3.6-18.6-9.3-25.7   c16.4-20.6,25.7-46.5,25.7-72.6c0-63.3-51.5-114.7-114.7-114.7s-114.7,51.5-114.7,114.7c0,26.8,9.1,52.1,25.9,72.4   c-5.8,7.1-9.5,16-9.5,25.9v11.9l-24.4-24.4l11.2-16.9l-2.5-4.4c-5.2-9.2-9.4-19.2-12.3-29.7l-1.3-4.9l-19.9-4v-52.1l19.9-4l1.3-4.9   c2.9-10.5,7-20.5,12.3-29.7l2.5-4.4L133.3,80l36.8-36.9L187,54.4l4.4-2.5c9.2-5.2,19.2-9.4,29.7-12.3l4.9-1.3l4-19.9h52.1l4,19.9   l4.9,1.3c10.5,2.9,20.5,7,29.7,12.3l4.4,2.5l16.9-11.2L378.7,80l-11.2,16.9l2.5,4.4c5.2,9.2,9.4,19.2,12.3,29.7l1.3,4.9l19.9,4   v52.1L383.6,195.9z"></path><path d="M256,100.3c-31.6,0-57.4,25.7-57.4,57.4S224.4,215,256,215s57.4-25.7,57.4-57.4S287.6,100.3,256,100.3z M256,198.6   c-22.6,0-41-18.4-41-41s18.4-41,41-41s41,18.4,41,41S278.6,198.6,256,198.6z"></path></g></svg>