<svg class="svg-icon" height='100px' width='100px'  fill="currentColor" xmlns="http://www.w3.org/2000/svg" xmlns:xlink="http://www.w3.org/1999/xlink" version="1.1" x="0px" y="0px" viewBox="0 0 24 24" style="enable-background:new 0 0 24 24;" xml:space="preserve"><path d="M21.307,11.468H2.693c-0.294,0-0.532,0.238-0.532,0.532s0.238,0.532,0.532,0.532h18.614c0.294,0,0.532-0.238,0.532-0.532  S21.601,11.468,21.307,11.468z"></path><path d="M21.307,16.787H2.693c-0.294,0-0.532,0.238-0.532,0.532s0.238,0.532,0.532,0.532h18.614c0.294,0,0.532-0.238,0.532-0.532  S21.601,16.787,21.307,16.787z"></path><path d="M2.693,7.214h18.614c0.294,0,0.532-0.238,0.532-0.532S21.601,6.15,21.307,6.15H2.693c-0.294,0-0.532,0.238-0.532,0.532  S2.399,7.214,2.693,7.214z"></path></svg>