<svg class="svg-icon" xmlns="http://www.w3.org/2000/svg" width="34" height="64" viewBox="0 0 34 64">
  <path d="M17,44 C23.1,44 28,39.1 28,33 L28,11 C28,4.9 23.1,0 17,0 C10.9,0 6,4.9 6,11 L6,33 C6,39.1 10.9,44 17,44 Z M8,31 L12,31 L12,29 L8,29 L8,23 L12,23 L12,21 L8,21 L8,15 L12,15 L12,13 L8,13 L8,11 C8,6 12,2 17,2 C22,2 26,6 26,11 L26,13 L22,13 L22,15 L26,15 L26,21 L22,21 L22,23 L26,23 L26,29 L22,29 L22,31 L26,31 L26,33 C26,38 22,42 17,42 C12,42 8,38 8,33 L8,31 Z M18,49.9 L18,62 L26,62 C26.6,62 27,62.4 27,63 C27,63.6 26.6,64 26,64 L8,64 C7.4,64 7,63.6 7,63 C7,62.4 7.4,62 8,62 L16,62 L16,49.9 C7.1,49.4 0,42 0,33 C0,32.4 0.4,32 1,32 C1.6,32 2,32.4 2,33 C2,41.3 8.7,48 17,48 C25.3,48 32,41.3 32,33 C32,32.4 32.4,32 33,32 C33.6,32 34,32.4 34,33 C34,42 26.9,49.4 18,49.9 Z M16,37 L16,7 C16,6.4 16.4,6 17,6 C17.6,6 18,6.4 18,7 L18,37 C18,37.6 17.6,38 17,38 C16.4,38 16,37.6 16,37 Z"/>
</svg>
