<svg xmlns="http://www.w3.org/2000/svg" xmlns:xlink="http://www.w3.org/1999/xlink"
     version="1.1" x="0px" y="0px"
     viewBox="0 0 100 100" xml:space="preserve">
    <g><path style="stroke: currentColor;  fill: currentColor" d="M92.985,77.558H7.015C5.902,77.558,5,76.654,5,75.541V11.017C5,9.903,5.902,9,7.015,9h85.97C94.098,9,95,9.903,95,11.017   v64.524C95,76.654,94.098,77.558,92.985,77.558z M9.03,73.524h81.94V13.033H9.03V73.524z"></path></g>
    <g><path style="stroke: currentColor;  fill: currentColor" d="M83.582,68.147H16.418c-1.112,0-2.015-0.903-2.015-2.016V20.426c0-1.113,0.903-2.017,2.015-2.017h67.164   c1.112,0,2.015,0.903,2.015,2.017v45.705C85.597,67.244,84.694,68.147,83.582,68.147z M18.433,64.115h63.135V22.442H18.433V64.115z   "></path></g>
    <g><path style="stroke: currentColor;  fill: currentColor" d="M59.403,91H40.597c-1.113,0-2.015-0.903-2.015-2.017V75.541c0-1.113,0.902-2.017,2.015-2.017h18.806   c1.113,0,2.015,0.903,2.015,2.017v13.442C61.418,90.097,60.516,91,59.403,91z M42.612,86.967h14.776v-9.41H42.612V86.967z"></path></g>
    <g><rect style="stroke: currentColor;  fill: currentColor" x="16.418" y="86.967" width="67.164" height="4.033"></rect></g>
    <g><path style="stroke: currentColor;  fill: currentColor" d="M50,56.049c-12.121,0-16.489-11.586-16.668-12.08c-0.165-0.446-0.165-0.935,0-1.381c0.179-0.494,4.547-12.08,16.668-12.08   s16.489,11.586,16.668,12.08c0.165,0.446,0.165,0.935,0,1.381C66.489,44.463,62.121,56.049,50,56.049z M37.412,43.279   c1.013,2.192,4.704,8.738,12.588,8.738c7.881,0,11.573-6.541,12.588-8.738c-1.013-2.192-4.704-8.738-12.588-8.738   C42.119,34.541,38.427,41.081,37.412,43.279z"></path></g>
    <g><path style="stroke: currentColor;  fill: currentColor" d="M50,50.436c-3.943,0-7.152-3.211-7.152-7.157c0-3.946,3.208-7.157,7.152-7.157s7.152,3.211,7.152,7.157   C57.152,47.225,53.943,50.436,50,50.436z M50,40.154c-1.721,0-3.122,1.402-3.122,3.125c0,1.722,1.401,3.124,3.122,3.124   s3.122-1.402,3.122-3.124C53.122,41.556,51.721,40.154,50,40.154z"></path></g>
</svg>
