<svg xmlns="http://www.w3.org/2000/svg" xmlns:xlink="http://www.w3.org/1999/xlink" version="1.1" x="0px" y="0px" viewBox="0 0 100 100" enable-background="new 0 0 100 100" xml:space="preserve"><g><path fill="none" d="M81.422,34.741c-1.688,0-3.364,0.264-4.981,0.785l-0.987,0.318l-0.414-0.95   c-2.814-6.439-9.167-10.601-16.183-10.601c-9.738,0-17.659,7.921-17.659,17.658c0,0.123,0.01,0.243,0.018,0.363   c0.007,0.105,0.015,0.21,0.019,0.316l0.056,1.393l-1.377-0.214c-0.671-0.104-1.264-0.154-1.812-0.154   c-6.51,0-11.808,5.297-11.808,11.808c0,6.511,5.297,11.808,11.808,11.808c0.242,0,0.479-0.018,0.717-0.036l0.219-0.016l0.099,0.011   c0.256,0.027,0.514,0.041,0.776,0.041h41.929c0.276,0,0.578-0.021,0.95-0.067c8.371-0.723,14.896-7.835,14.896-16.197   C97.688,42.037,90.392,34.741,81.422,34.741z"></path><path d="M81.422,32.448c-1.59,0-3.172,0.205-4.711,0.611C73.347,26.308,66.445,22,58.856,22c-10.814,0-19.646,8.647-19.944,19.39   c-0.278-0.019-0.548-0.028-0.812-0.028C30.325,41.361,24,47.687,24,55.463c0,7.774,6.325,14.101,14.101,14.101   c0.298,0,0.591-0.021,0.883-0.042l0.018-0.002c0.305,0.03,0.611,0.044,0.91,0.044h41.929c0.372,0,0.764-0.026,1.188-0.079   c9.506-0.82,16.951-8.937,16.951-18.479C99.98,40.772,91.655,32.448,81.422,32.448z M82.791,67.203   c-0.372,0.047-0.674,0.067-0.95,0.067H39.912c-0.262,0-0.521-0.014-0.776-0.041l-0.099-0.011l-0.219,0.016   c-0.237,0.019-0.475,0.036-0.717,0.036c-6.51,0-11.808-5.297-11.808-11.808c0-6.511,5.297-11.808,11.808-11.808   c0.548,0,1.14,0.05,1.812,0.154l1.377,0.214l-0.056-1.393c-0.004-0.106-0.012-0.211-0.019-0.316   c-0.008-0.121-0.018-0.24-0.018-0.363c0-9.736,7.921-17.658,17.659-17.658c7.016,0,13.368,4.161,16.183,10.601l0.414,0.95   l0.987-0.318c1.617-0.521,3.293-0.785,4.981-0.785c8.97,0,16.266,7.296,16.266,16.265C97.688,59.368,91.162,66.48,82.791,67.203z"></path></g><path d="M34.5,49.75c0,0.829-0.671,1.5-1.5,1.5H6.5c-0.829,0-1.5-0.671-1.5-1.5l0,0c0-0.829,0.671-1.5,1.5-1.5H33  C33.829,48.25,34.5,48.921,34.5,49.75L34.5,49.75z"></path><path d="M42.75,58.906c0,0.828-0.671,1.5-1.5,1.5h-26.5c-0.829,0-1.5-0.672-1.5-1.5l0,0c0-0.828,0.671-1.5,1.5-1.5h26.5  C42.079,57.406,42.75,58.078,42.75,58.906L42.75,58.906z"></path><path d="M29.5,68.063c0,0.828-0.671,1.5-1.5,1.5H1.5c-0.829,0-1.5-0.672-1.5-1.5l0,0c0-0.828,0.671-1.5,1.5-1.5H28  C28.829,66.563,29.5,67.235,29.5,68.063L29.5,68.063z"></path></svg>