<svg class="svg-icon" xmlns="http://www.w3.org/2000/svg" xmlns:xlink="http://www.w3.org/1999/xlink" version="1.1" x="0px" y="0px" viewBox="0 0 100 100" enable-background="new 0 0 100 100" xml:space="preserve"><symbol viewBox="-27.299 -39.024 54.598 78.047"><path fill="none" d="M11.157,34.02c-1.275-1.85-3.408-3.026-5.733-3.026c-2.13,0-4.118,0.985-5.424,2.607   c-1.306-1.622-3.294-2.607-5.423-2.607c-2.325,0-4.457,1.176-5.734,3.026c-1.275-1.85-3.408-3.026-5.733-3.026   c-1.913,0-3.648,0.776-4.908,2.029v-66.474c1.26,1.253,2.995,2.029,4.908,2.029c2.325,0,4.458-1.176,5.733-3.026   c1.277,1.85,3.409,3.026,5.734,3.026c2.129,0,4.117-0.986,5.423-2.607c1.306,1.622,3.294,2.607,5.424,2.607   c2.325,0,4.458-1.176,5.733-3.026c1.277,1.85,3.409,3.026,5.734,3.026c1.913,0,3.647-0.776,4.907-2.028v66.473   c-1.26-1.253-2.994-2.028-4.907-2.028C14.567,30.995,12.435,32.17,11.157,34.02z"></path><path fill="currentColor" stroke="currentColor" stroke-width="3" stroke-miterlimit="10" d="M-20.463-37.524   c0.391,1.615,1.839,2.822,3.573,2.822c1.733,0,3.181-1.207,3.572-2.822h4.323c0.391,1.615,1.839,2.822,3.573,2.822   s3.182-1.207,3.573-2.822h3.701c0.391,1.615,1.839,2.822,3.573,2.822s3.182-1.207,3.573-2.822h4.322   c0.391,1.615,1.839,2.822,3.573,2.822s3.182-1.207,3.573-2.822h5.335v75.047h-5.266c-0.219-1.825-1.759-3.25-3.641-3.25   s-3.423,1.425-3.641,3.25H9.065c-0.219-1.825-1.759-3.25-3.641-3.25s-3.423,1.425-3.641,3.25h-3.564   c-0.219-1.825-1.759-3.25-3.641-3.25s-3.423,1.425-3.641,3.25h-4.186c-0.219-1.825-1.758-3.25-3.641-3.25   c-1.883,0-3.423,1.425-3.641,3.25h-5.267v-75.047H-20.463z"></path></symbol><symbol viewBox="-30.282 -48.056 60.563 94.113"><path fill="currentColor" stroke="currentColor" stroke-width="6" stroke-miterlimit="10" d="M16.006,43.056   c-3.233-4.883-8.77-8.108-15.065-8.108s-11.832,3.225-15.065,8.108h-10.584v-88.113h10.584c3.233,4.883,8.77,8.108,15.065,8.108   s11.832-3.224,15.065-8.108H26.59v88.113H16.006z"></path><line fill="none" stroke="currentColor" stroke-width="5" stroke-linecap="round" stroke-linejoin="round" stroke-miterlimit="10" stroke-dasharray="7,8" x1="27.781" y1="-20.755" x2="-27.782" y2="-20.755"></line></symbol><symbol viewBox="-24.712 -42.834 54.356 85.667"><path fill="currentColor" stroke="currentColor" stroke-width="5" stroke-miterlimit="10" d="M17.181,40.333h-4.475   c-0.466-2.355-2.539-4.131-5.031-4.131c-2.491,0-4.565,1.776-5.03,4.131h-4.883c-0.466-2.355-2.539-4.131-5.031-4.131   c-2.491,0-4.565,1.776-5.03,4.131h-4.883c-0.466-2.355-2.539-4.131-5.03-4.131v-72.023c2.622,0,4.76-1.974,5.069-4.512h4.806   c0.309,2.539,2.447,4.512,5.069,4.512c2.622,0,4.76-1.974,5.069-4.512h4.806c0.309,2.539,2.447,4.512,5.069,4.512   c2.622,0,4.76-1.974,5.069-4.512h4.398c0.309,2.539,2.447,4.512,5.069,4.512v72.023C19.72,36.202,17.647,37.978,17.181,40.333z"></path><line fill="none" stroke="currentColor" stroke-width="4" stroke-linecap="round" stroke-linejoin="round" stroke-miterlimit="10" stroke-dasharray="7,6" x1="-22.644" y1="-17.395" x2="27.644" y2="-17.395"></line></symbol><symbol viewBox="-23.971 -42.094 47.944 84.188"><g><path fill="currentColor" stroke="currentColor" stroke-width="3.521" stroke-miterlimit="10" d="M17.182,40.333h-4.475    c-0.466-2.355-2.539-4.131-5.031-4.131c-2.491,0-4.565,1.776-5.03,4.131h-4.883c-0.466-2.355-2.539-4.131-5.031-4.131    c-2.491,0-4.565,1.776-5.03,4.131h-4.883c-0.466-2.355-2.539-4.131-5.03-4.131v-72.023c2.622,0,4.76-1.974,5.069-4.512h4.806    c0.309,2.539,2.447,4.512,5.069,4.512c2.622,0,4.76-1.974,5.069-4.512h4.806c0.309,2.539,2.447,4.512,5.069,4.512    c2.622,0,4.76-1.974,5.069-4.512h4.398c0.309,2.539,2.447,4.512,5.069,4.512v72.023C19.721,36.202,17.648,37.978,17.182,40.333z"></path></g><polygon fill="currentColor" stroke="currentColor" stroke-width="3.8113" stroke-miterlimit="10" points="5.14,17.02 11.952,13.853    8.431,7.217 7.524,-0.241 0.124,1.057 -7.248,-0.385 -8.301,7.053 -11.951,13.62 -5.201,16.919 -0.084,22.42  "></polygon></symbol><symbol id="a" viewBox="-21.087 -31.266 42.17 72.87"><path fill="currentColor" stroke="currentColor" stroke-width="5" stroke-miterlimit="10" d="M6.373,39.104h5.21c0-3.87,3.13-7,7-7v-53.87   c-3.87,0-7-3.14-7-7h-5.21"></path><path fill="currentColor" stroke="currentColor" stroke-width="5" stroke-miterlimit="10" d="M-6.377-28.766h-5.21c0,3.86-3.13,7-7,7v53.87   c3.87,0,7,3.13,7,7h5.21"></path><line fill="none" stroke="currentColor" stroke-width="5" stroke-miterlimit="10" x1="2.373" y1="39.104" x2="-2.377" y2="39.104"></line><line fill="none" stroke="currentColor" stroke-width="5" stroke-miterlimit="10" x1="2.373" y1="-28.766" x2="-2.377" y2="-28.766"></line><g><path stroke="currentColor" stroke-width="0.9" stroke-miterlimit="10" d="M-9.901-10.118c0-0.994-0.806-1.8-1.8-1.8    s-1.8,0.806-1.8,1.8s0.806,1.8,1.8,1.8S-9.901-9.124-9.901-10.118z"></path><path stroke="currentColor" stroke-width="0.9" stroke-miterlimit="10" d="M-2.101-10.118c0-0.994-0.806-1.8-1.8-1.8    s-1.8,0.806-1.8,1.8s0.806,1.8,1.8,1.8S-2.101-9.124-2.101-10.118z"></path><path stroke="currentColor" stroke-width="0.9" stroke-miterlimit="10" d="M5.699-10.118c0-0.994-0.806-1.8-1.8-1.8s-1.8,0.806-1.8,1.8    s0.806,1.8,1.8,1.8S5.699-9.124,5.699-10.118z"></path><path stroke="currentColor" stroke-width="0.9" stroke-miterlimit="10" d="M13.499-10.118c0-0.994-0.806-1.8-1.8-1.8    s-1.8,0.806-1.8,1.8s0.806,1.8,1.8,1.8S13.499-9.124,13.499-10.118z"></path></g></symbol><symbol viewBox="-21.086 -31.266 42.17 72.87"><use xlink:href="#a" width="42.17" height="72.87" x="-21.087" y="-31.266" transform="matrix(1 0 0 1 6.996482e-004 -2.671033e-004)" overflow="visible"></use><line fill="none" stroke="currentColor" stroke-width="4" stroke-miterlimit="10" x1="9.224" y1="13.75" x2="-9.223" y2="13.75"></line></symbol><g display="none"><path display="inline" fill="currentColor" d="M1068.792,114.743H-169.006c-2.084,0-3.789-1.705-3.789-3.789v-1187.164   c0-2.084,1.705-3.789,3.789-3.789h1237.798c2.084,0,3.789,1.705,3.789,3.789V110.954   C1072.582,113.038,1070.877,114.743,1068.792,114.743z"></path></g><g><g><path d="M81.257,5h-59.88c-0.275,0-0.536,0.056-0.778,0.152c-0.611-0.09-1.229-0.151-1.858-0.151    c-6.949,0-12.602,5.653-12.602,12.602v68.919c0,1.175,0.952,2.126,2.126,2.126s2.126-0.952,2.126-2.126v0V17.603    c0-4.604,3.746-8.35,8.349-8.35c2.223,0,4.31,0.863,5.878,2.432c1.574,1.573,2.441,3.66,2.441,5.877v68.96v0    c0,1.105,0.846,2.003,1.924,2.106L36.98,95l7.741-6.168L52.461,95l7.743-6.168L67.951,95l7.743-6.169l7.748,6.168L93.86,87.04    V17.602C93.86,10.653,88.207,5,81.257,5z M89.608,84.655l-1.831,1.458l-4.334,3.451l-4.335-3.451l-2.71-2.157l-0.704-0.56    l-0.704,0.56l-2.709,2.157l-4.331,3.45l-4.332-3.45l-2.709-2.157l-0.705-0.561l-0.705,0.561l-2.708,2.157l-4.33,3.45l-4.329-3.45    l-2.707-2.157l-0.705-0.561l-0.705,0.561l-2.707,2.157l-4.329,3.45l-4.329-3.45l-1.338-1.066v-1.091V17.562    c0-3.093-1.126-6.01-3.165-8.31h53.11c4.605,0,8.35,3.746,8.35,8.35V84.655z"></path><path d="M18.726,16.944c-1.174,0-2.126,0.952-2.126,2.126v66.951c0,0.174,0.027,0.34,0.066,0.502    c0.226,0.931,1.06,1.625,2.06,1.625c1,0,1.834-0.693,2.06-1.625c0.039-0.162,0.066-0.328,0.066-0.502V19.07    C20.852,17.896,19.9,16.944,18.726,16.944z"></path><path d="M60.264,36.532H79.92c0.941,0,1.704-0.763,1.704-1.704V20.027c0-0.941-0.763-1.704-1.704-1.704H60.264    c-0.941,0-1.704,0.763-1.704,1.704v14.801C58.559,35.769,59.322,36.532,60.264,36.532z M61.968,21.731h16.248v11.394H61.968    V21.731z"></path><path d="M79.808,43.865H42.563c-1.003,0-1.816,0.813-1.816,1.816s0.813,1.816,1.816,1.816h37.245c1.003,0,1.816-0.813,1.816-1.816    S80.811,43.865,79.808,43.865z"></path><path d="M79.808,56.692H42.563c-1.003,0-1.816,0.813-1.816,1.816s0.813,1.816,1.816,1.816h37.245c1.003,0,1.816-0.813,1.816-1.816    S80.811,56.692,79.808,56.692z"></path><path d="M79.808,69.519H42.563c-1.003,0-1.816,0.813-1.816,1.816c0,1.003,0.813,1.816,1.816,1.816h37.245    c1.003,0,1.816-0.813,1.816-1.816C81.624,70.332,80.811,69.519,79.808,69.519z"></path><path d="M42.563,21.843h10.51c1.003,0,1.816-0.813,1.816-1.816s-0.813-1.816-1.816-1.816h-10.51c-1.003,0-1.816,0.813-1.816,1.816    S41.56,21.843,42.563,21.843z"></path><path d="M42.563,34.67h10.51c1.003,0,1.816-0.813,1.816-1.816c0-1.003-0.813-1.816-1.816-1.816h-10.51    c-1.003,0-1.816,0.813-1.816,1.816C40.746,33.857,41.56,34.67,42.563,34.67z"></path></g></g></svg>