<svg xmlns="http://www.w3.org/2000/svg" xmlns:xlink="http://www.w3.org/1999/xlink"
     viewBox="0 0 60 60" version="1.1" x="0px" y="0px">
    <g stroke="none" stroke-width="1" fill="none" fill-rule="evenodd" stroke-linecap="round"
       stroke-linejoin="round">
        <g transform="translate(-720.000000, -402.000000)" stroke="currentColor" stroke-width="2">
            <g transform="translate(720.000000, 403.000000)">
                <path d="M12.75,29 L11.25,29 C10.007,29 9,27.993 9,26.75 L9,19.25 C9,18.007 10.007,17 11.25,17 L12.75,17 C13.993,17 15,18.007 15,19.25 L15,26.75 C15,27.993 13.993,29 12.75,29 L12.75,29 Z"></path>
                <polygon points="34 53 26 53 30 44"></polygon>
                <polygon points="25 58 26 53 34 53 35 57.991"></polygon>
                <path d="M19.2726,38.1487 L18.9996,37.9997 L17.9996,41.9997 L25.9996,52.9997 L29.9996,43.9997 C25.7936,43.9997 21.9966,41.6317 19.2726,38.1487 L19.2726,38.1487 Z"></path>
                <path d="M40.7274,38.1487 C38.0034,41.6317 34.2064,43.9997 30.0004,43.9997 L34.0004,52.9997 L42.0004,41.9997 L41.0004,37.9997 L40.7274,38.1487 L40.7274,38.1487 Z"></path>
                <path d="M56.563,49.6851 C51.051,46.7841 45.82,44.5761 41,44.0001 L40.545,44.0001 L34,53.0001 L35,57.9911 L34.625,57.9911 L34.626,58.0001 L59,58.0001 L59,53.7251 C59,52.0321 58.061,50.4741 56.563,49.6851 L56.563,49.6851 Z"></path>
                <path d="M19.4545,44 L18.9995,44 C14.1805,44.576 8.9495,46.784 3.4365,49.685 C1.9395,50.474 0.9995,52.032 0.9995,53.725 L0.9995,58 L24.9995,58 L25.9995,53 L19.4545,44 L19.4545,44 Z"></path>
                <polygon points="25 58 25.375 58 25.375 58"></polygon>
                <path d="M47.25,29 L48.75,29 C49.993,29 51,27.993 51,26.75 L51,19.25 C51,18.007 49.993,17 48.75,17 L47.25,17 C46.007,17 45,18.007 45,19.25 L45,26.75 C45,27.993 46.007,29 47.25,29 L47.25,29 Z"></path>
                <path d="M48,17 C48,3.875 38.747,0 30,0 C21.253,0 12,3.875 12,17"></path>
                <path d="M15,19 C15,10.716 21.716,4 30,4 C38.284,4 45,10.716 45,19 L45,26 C45,34.836 38.284,44 30,44 C21.716,44 15,34.836 15,26 L15,19 L15,19 Z"></path>
                <path d="M48,29 C48,33.422 45.329,37 31,37"></path>
            </g>
        </g>
    </g>
</svg>
