<svg xmlns="http://www.w3.org/2000/svg" xmlns:xlink="http://www.w3.org/1999/xlink" version="1.1" x="0px" y="0px" viewBox="0 0 100 100" enable-background="new 0 0 100 100" xml:space="preserve"><g><path d="M74.33,83.25h11.168v-2.5H74.33v-6.894c0-12.732-10.358-23.091-23.09-23.091S28.151,61.124,28.151,73.856v6.894H17.5v2.5   h10.651v5.626H10.25v2.5h81.98v-2.5h-17.9V83.25z M51.175,73.155l-4.195-7.468l1.906-6.21h3.938l2.052,6.256L51.175,73.155z    M46.616,58.352l-1.327,4.325l-3.88-6.907c0.998-0.545,2.054-0.991,3.143-1.367L46.616,58.352z M56.463,62.551l-1.389-4.233   l2.026-4.19c1.033,0.308,2.024,0.704,2.983,1.163L56.463,62.551z M54.597,53.564l-1.651,3.413h-4.226l-1.709-3.271   c1.366-0.287,2.78-0.441,4.23-0.441C52.386,53.266,53.502,53.384,54.597,53.564z M30.651,73.856c0-6.899,3.422-13.002,8.646-16.741   L49.99,76.151v12.725h-9.994v-12.06h-2.5v12.06h-6.845V73.856z M71.83,88.876h-7.814v-12.06h-2.5v12.06H52.49V76.117L62.272,56.5   c5.735,3.659,9.558,10.063,9.558,17.356V88.876z"></path><path d="M51.24,30.939c-3.17,0-5.75,2.58-5.75,5.75s2.58,5.75,5.75,5.75c3.171,0,5.75-2.58,5.75-5.75S54.411,30.939,51.24,30.939z    M51.24,39.939c-1.792,0-3.25-1.458-3.25-3.25s1.458-3.25,3.25-3.25s3.25,1.458,3.25,3.25S53.032,39.939,51.24,39.939z"></path><path d="M83.563,43.158V30.009c5.57-0.624,9.917-5.357,9.917-11.092c0-6.157-5.01-11.167-11.167-11.167S71.146,12.76,71.146,18.917   c0,5.734,4.347,10.468,9.917,11.092v5.037H64.415v-2.5h-4.121l2.914-2.915l-5.303-5.304l-2.915,2.916v-4.122h-7.5v4.121   l-2.914-2.914l-5.303,5.303l2.914,2.915h-4.122v2.5H21.417v-5.037c5.57-0.624,9.917-5.357,9.917-11.092   c0-6.157-5.009-11.167-11.167-11.167S9,12.76,9,18.917c0,5.734,4.346,10.468,9.917,11.092v13.149C13.346,43.782,9,48.516,9,54.25   c0,6.157,5.009,11.166,11.167,11.166s11.167-5.009,11.167-11.166c0-5.734-4.346-10.468-9.917-11.092v-5.612h16.649v2.5h4.122   l-2.914,2.914l5.303,5.304l2.781-2.782c0.044,0.02,0.088,0.039,0.132,0.058v3.931h7.5V45.54c0.044-0.019,0.089-0.039,0.133-0.058   l2.781,2.781l5.304-5.303l-2.914-2.914h4.121v-2.5h16.648v5.612c-5.57,0.624-9.917,5.357-9.917,11.092   c0,6.157,5.01,11.166,11.167,11.166S93.48,60.407,93.48,54.25C93.48,48.516,89.134,43.782,83.563,43.158z M11.5,18.917   c0-4.779,3.888-8.667,8.667-8.667s8.667,3.888,8.667,8.667s-3.888,8.667-8.667,8.667S11.5,23.696,11.5,18.917z M28.833,54.25   c0,4.778-3.888,8.666-8.667,8.666S11.5,59.028,11.5,54.25c0-4.779,3.888-8.667,8.667-8.667S28.833,49.471,28.833,54.25z    M61.915,37.545h-3.567l-0.242,0.937c-0.114,0.441-0.27,0.868-0.462,1.269l-0.382,0.798l2.411,2.411l-1.769,1.768l-2.329-2.329   l-0.828,0.473c-0.452,0.258-0.917,0.462-1.381,0.608l-0.876,0.275v3.215h-2.5v-3.216l-0.876-0.275   c-0.464-0.146-0.929-0.35-1.38-0.607l-0.829-0.473l-2.328,2.329l-1.768-1.768l2.41-2.41l-0.381-0.797   c-0.193-0.404-0.348-0.831-0.462-1.27l-0.243-0.937h-3.567v-2.5h3.726l0.303-0.814c0.137-0.369,0.298-0.716,0.479-1.033   l0.473-0.829l-2.738-2.739l1.768-1.768l2.818,2.819l0.797-0.38c0.346-0.165,0.64-0.283,0.922-0.372l0.876-0.274v-4.035h2.5v4.033   l0.875,0.275c0.283,0.089,0.577,0.208,0.924,0.373l0.798,0.38l2.818-2.819l1.768,1.768l-2.738,2.739l0.473,0.829   c0.18,0.314,0.341,0.662,0.48,1.035l0.304,0.812h3.724V37.545z M73.646,18.917c0-4.779,3.888-8.667,8.667-8.667   s8.667,3.888,8.667,8.667s-3.888,8.667-8.667,8.667S73.646,23.696,73.646,18.917z M82.313,62.916c-4.779,0-8.667-3.888-8.667-8.666   c0-4.779,3.888-8.667,8.667-8.667s8.667,3.888,8.667,8.667C90.98,59.028,87.093,62.916,82.313,62.916z"></path><rect x="14.25" y="54.717" width="2.5" height="3.511"></rect><rect x="18.25" y="52.854" width="2.5" height="5.374"></rect><rect x="22.25" y="49.333" width="2.5" height="8.894"></rect><polygon points="24.75,14.236 17.717,20.536 15.712,18.119 13.788,19.715 17.45,24.131 26.417,16.098  "></polygon><path d="M78.813,23.277v2.5h6.875v-2.5h-2.126v-1.343c2.343-0.566,4.095-2.666,4.095-5.181v-3.579H76.968v3.579   c0,2.514,1.751,4.614,4.094,5.181v1.343H78.813z M79.468,16.753v-1.079h5.688v1.079c0,1.568-1.276,2.844-2.845,2.844   S79.468,18.321,79.468,16.753z"></path><path d="M83.968,53.001h-3.436c-0.155,0-0.281-0.126-0.281-0.281v-0.255c0-0.154,0.126-0.28,0.281-0.28h5.356v-2.5h-2.193v-1.982   h-2.5v1.982h-0.663c-1.533,0-2.781,1.247-2.781,2.78v0.255c0,1.533,1.248,2.781,2.781,2.781h3.436c0.154,0,0.28,0.126,0.28,0.28   v0.256c0,0.154-0.126,0.28-0.28,0.28H78.61v2.5h2.585v1.98h2.5v-1.98h0.272c1.533,0,2.78-1.247,2.78-2.78v-0.256   C86.748,54.248,85.501,53.001,83.968,53.001z"></path></g></svg>