<svg xmlns="http://www.w3.org/2000/svg" data-name="Layer 1" viewBox="0 0 64 64" x="0px" y="0px">
    <path d="M32,14a1.15,1.15,0,0,1,1,1.2V28a3,3,0,0,0,3,3H48.8a1.31,1.31,0,0,1,.93.39A.9.9,0,0,1,50,32a1.07,1.07,0,0,1-1.2,1H36a3,3,0,0,0-3,3V48.8A1.07,1.07,0,0,1,32,50a1.16,1.16,0,0,1-1-1.2V36a3,3,0,0,0-3-3H15.2A1.07,1.07,0,0,1,14,32a.9.9,0,0,1,.27-.65A1.31,1.31,0,0,1,15.2,31H28a3,3,0,0,0,3-3V15.2A1.07,1.07,0,0,1,32,14h0m0-2h-.1A3,3,0,0,0,29,15.2V28a1,1,0,0,1-1,1H15.2A3.13,3.13,0,0,0,12,32.11,3,3,0,0,0,15.2,35H28a1,1,0,0,1,1,1V48.8A3.14,3.14,0,0,0,32,52h.1A3,3,0,0,0,35,48.8V36a1,1,0,0,1,1-1H48.8A3,3,0,0,0,52,32.11,3.13,3.13,0,0,0,48.8,29H36a1,1,0,0,1-1-1V15.2A3.14,3.14,0,0,0,32,12Z"></path>
</svg>