<svg class="svg-icon" height='100px' width='100px'  fill="currentColor" xmlns="http://www.w3.org/2000/svg" xmlns:xlink="http://www.w3.org/1999/xlink" version="1.1" x="0px" y="0px" viewBox="0 0 100 100" style="enable-background:new 0 0 100 100;" xml:space="preserve"><style type="text/css">
	.st0{fill-rule:evenodd;clip-rule:evenodd;}
</style><path class="st0" d="M75.6,60.5c11,0,19.9-9,19.9-20c0-11-9-20-20-20s-20,9-20,20c0,22.1,17.9,40,40,40  C95.5,80.5,82.4,75.6,75.6,60.5z M45.5,40.5c0-11-9-20-20-20s-20,9-20,20l0,0c0,22.1,17.9,40,40,40c0,0-13.1-4.9-19.9-20  C36.6,60.5,45.5,51.5,45.5,40.5z"></path></svg>