<svg class="svg-icon" height='100px' width='100px'  fill="currentColor" xmlns="http://www.w3.org/2000/svg" viewBox="0 0 60 60" x="0px" y="0px"><title>30-Financial Report</title><g data-name="30-Financial Report"><path d="M47,60H13a6.006,6.006,0,0,1-6-6V6a6.006,6.006,0,0,1,6-6H47a6.006,6.006,0,0,1,6,6V54A6.006,6.006,0,0,1,47,60ZM13,2A4,4,0,0,0,9,6V54a4,4,0,0,0,4,4H47a4,4,0,0,0,4-4V6a4,4,0,0,0-4-4Z"></path><path d="M29,55A15,15,0,1,1,44,40,15.017,15.017,0,0,1,29,55Zm0-28A13,13,0,1,0,42,40,13.015,13.015,0,0,0,29,27Z"></path><path d="M20,50a1,1,0,0,1-.707-1.707L28,39.586V26a1,1,0,0,1,2,0V40a1,1,0,0,1-.293.707l-9,9A1,1,0,0,1,20,50Z"></path><path d="M29,34a1,1,0,0,1-.707-.293l-5-5a1,1,0,0,1,1.414-1.414l5,5A1,1,0,0,1,29,34Z"></path><path d="M29,39a1,1,0,0,1-.707-.293l-8-8a1,1,0,0,1,1.414-1.414l8,8A1,1,0,0,1,29,39Z"></path><path d="M27,42a1,1,0,0,1-.707-.293l-9-9a1,1,0,0,1,1.414-1.414l9,9A1,1,0,0,1,27,42Z"></path><path d="M24.5,44.5a1,1,0,0,1-.707-.293l-8.5-8.5a1,1,0,0,1,1.414-1.414l8.5,8.5A1,1,0,0,1,24.5,44.5Z"></path><path d="M22,47a1,1,0,0,1-.707-.293l-7-7a1,1,0,0,1,1.414-1.414l7,7A1,1,0,0,1,22,47Z"></path><path d="M19,15c-3.131,0-5-1.495-5-4s1.869-4,5-4a5.006,5.006,0,0,1,5,5,1,1,0,0,1-2,0,3,3,0,0,0-3-3c-3,0-3,1.505-3,2s0,2,3,2a1,1,0,0,1,0,2Z"></path><path d="M19,21a5.006,5.006,0,0,1-5-5,1,1,0,0,1,2,0,3,3,0,0,0,3,3c3,0,3-1.5,3-2s0-2-3-2a1,1,0,0,1,0-2c3.131,0,5,1.495,5,4S22.131,21,19,21Z"></path><path d="M19,9a1,1,0,0,1-1-1V6a1,1,0,0,1,2,0V8A1,1,0,0,1,19,9Z"></path><path d="M19,23a1,1,0,0,1-1-1V20a1,1,0,0,1,2,0v2A1,1,0,0,1,19,23Z"></path><circle cx="45" cy="6" r="1"></circle><circle cx="41" cy="6" r="1"></circle><path d="M45,11H29a1,1,0,0,1,0-2H45a1,1,0,0,1,0,2Z"></path><path d="M45,15H29a1,1,0,0,1,0-2H45a1,1,0,0,1,0,2Z"></path><path d="M45,19H29a1,1,0,0,1,0-2H45a1,1,0,0,1,0,2Z"></path><path d="M45,23H40a1,1,0,0,1,0-2h5a1,1,0,0,1,0,2Z"></path><path d="M36,23H34a1,1,0,0,1,0-2h2a1,1,0,0,1,0,2Z"></path></g></svg>