<svg class="svg-icon" xmlns="http://www.w3.org/2000/svg" xmlns:xlink="http://www.w3.org/1999/xlink" version="1.1" x="0px" y="0px" viewBox="0 0 24 24" style="enable-background:new 0 0 24 24;" xml:space="preserve"><g><path d="M5.254,11.631l-0.138,2.708l1.756,0.457l-2.226,5.283l3.165-0.205l2.063,2.409L12,17.234l2.127,5.048l2.063-2.409   l3.165,0.205l-2.226-5.282l1.756-0.458l-0.138-2.708l1.763-2.112l-1.763-2.113l0.138-2.708L16.167,3.99L14.63,1.718L12,2.685   L9.37,1.718L7.833,3.989L5.116,4.698l0.138,2.708L3.491,9.518L5.254,11.631z M9.665,20.949l-1.547-1.806l-2.374,0.154l1.821-4.32   l0.268,0.07l1.537,2.272l2.161-0.794L9.665,20.949z M18.256,19.297l-2.374-0.154l-1.547,1.806l-1.865-4.425l2.16,0.794l1.537-2.271   l0.268-0.07L18.256,19.297z M5.853,5.238l2.417-0.63l1.376-2.033L12,3.441l2.354-0.866l1.376,2.034l2.417,0.629l-0.123,2.408   l1.562,1.872l-1.562,1.871l0.123,2.408l-2.417,0.631l-1.376,2.032L12,15.595l-2.354,0.866L8.27,14.427l-2.417-0.63l0.123-2.408   L4.414,9.518l1.562-1.872L5.853,5.238z"></path><path d="M12,13.773c2.35,0,4.255-1.904,4.255-4.255S14.35,5.263,12,5.263S7.745,7.168,7.745,9.518S9.65,13.773,12,13.773z    M12,5.973c1.958,0,3.546,1.587,3.546,3.546c0,1.958-1.587,3.546-3.546,3.546s-3.546-1.587-3.546-3.546   C8.454,7.56,10.042,5.973,12,5.973z"></path></g></svg>