<svg class="svg-icon" xmlns="http://www.w3.org/2000/svg" xmlns:xlink="http://www.w3.org/1999/xlink" version="1.1" x="0px" y="0px" viewBox="0 0 512 512" style="enable-background:new 0 0 512 512;" xml:space="preserve">
	<style type="text/css">
	.st0{display:none;}
	.st1{display:inline;}
	.st2{fill:#FFFFFF;stroke:currentColor;stroke-width:0.1;stroke-miterlimit:10;}
	.st3{fill:none;stroke:currentColor;stroke-width:0.1;stroke-miterlimit:10;}
	</style>
	<g class="st0"><g class="st1"><rect class="st2" width="512" height="512"></rect><line class="st3" x1="0" y1="496" x2="512" y2="496"></line><line class="st3" x1="0" y1="480" x2="512" y2="480"></line><line class="st3" x1="0" y1="464" x2="512" y2="464"></line><line class="st3" x1="0" y1="448" x2="512" y2="448"></line><line class="st3" x1="0" y1="432" x2="512" y2="432"></line><line class="st3" x1="0" y1="416" x2="512" y2="416"></line><line class="st3" x1="0" y1="400" x2="512" y2="400"></line><line class="st3" x1="0" y1="384" x2="512" y2="384"></line><line class="st3" x1="0" y1="368" x2="512" y2="368"></line><line class="st3" x1="0" y1="352" x2="512" y2="352"></line><line class="st3" x1="0" y1="336" x2="512" y2="336"></line><line class="st3" x1="0" y1="320" x2="512" y2="320"></line><line class="st3" x1="0" y1="304" x2="512" y2="304"></line><line class="st3" x1="0" y1="288" x2="512" y2="288"></line><line class="st3" x1="0" y1="272" x2="512" y2="272"></line><line class="st3" x1="0" y1="256" x2="512" y2="256"></line><line class="st3" x1="0" y1="240" x2="512" y2="240"></line><line class="st3" x1="0" y1="224" x2="512" y2="224"></line><line class="st3" x1="0" y1="208" x2="512" y2="208"></line><line class="st3" x1="0" y1="192" x2="512" y2="192"></line><line class="st3" x1="0" y1="176" x2="512" y2="176"></line><line class="st3" x1="0" y1="160" x2="512" y2="160"></line><line class="st3" x1="0" y1="144" x2="512" y2="144"></line><line class="st3" x1="0" y1="128" x2="512" y2="128"></line><line class="st3" x1="0" y1="112" x2="512" y2="112"></line><line class="st3" x1="0" y1="96" x2="512" y2="96"></line><line class="st3" x1="0" y1="80" x2="512" y2="80"></line><line class="st3" x1="0" y1="64" x2="512" y2="64"></line><line class="st3" x1="0" y1="48" x2="512" y2="48"></line><line class="st3" x1="0" y1="32" x2="512" y2="32"></line><line class="st3" x1="0" y1="16" x2="512" y2="16"></line><line class="st3" x1="496" y1="0" x2="496" y2="512"></line><line class="st3" x1="480" y1="0" x2="480" y2="512"></line><line class="st3" x1="464" y1="0" x2="464" y2="512"></line><line class="st3" x1="448" y1="0" x2="448" y2="512"></line><line class="st3" x1="432" y1="0" x2="432" y2="512"></line><line class="st3" x1="416" y1="0" x2="416" y2="512"></line><line class="st3" x1="400" y1="0" x2="400" y2="512"></line><line class="st3" x1="384" y1="0" x2="384" y2="512"></line><line class="st3" x1="368" y1="0" x2="368" y2="512"></line><line class="st3" x1="352" y1="0" x2="352" y2="512"></line><line class="st3" x1="336" y1="0" x2="336" y2="512"></line><line class="st3" x1="320" y1="0" x2="320" y2="512"></line><line class="st3" x1="304" y1="0" x2="304" y2="512"></line><line class="st3" x1="288" y1="0" x2="288" y2="512"></line><line class="st3" x1="272" y1="0" x2="272" y2="512"></line><line class="st3" x1="256" y1="0" x2="256" y2="512"></line><line class="st3" x1="240" y1="0" x2="240" y2="512"></line><line class="st3" x1="224" y1="0" x2="224" y2="512"></line><line class="st3" x1="208" y1="0" x2="208" y2="512"></line><line class="st3" x1="192" y1="0" x2="192" y2="512"></line><line class="st3" x1="176" y1="0" x2="176" y2="512"></line><line class="st3" x1="160" y1="0" x2="160" y2="512"></line><line class="st3" x1="144" y1="0" x2="144" y2="512"></line><line class="st3" x1="128" y1="0" x2="128" y2="512"></line><line class="st3" x1="112" y1="0" x2="112" y2="512"></line><line class="st3" x1="96" y1="0" x2="96" y2="512"></line><line class="st3" x1="80" y1="0" x2="80" y2="512"></line><line class="st3" x1="64" y1="0" x2="64" y2="512"></line><line class="st3" x1="48" y1="0" x2="48" y2="512"></line><line class="st3" x1="32" y1="0" x2="32" y2="512"></line><line class="st3" x1="16" y1="0" x2="16" y2="512"></line></g></g><g><g><path d="M79.2,432.8C32,385.6,6,322.8,6,256S32,126.4,79.2,79.2S189.2,6,256,6s129.6,26,176.8,73.2    S506,189.2,506,256s-26,129.6-73.2,176.8S322.8,506,256,506S126.4,480,79.2,432.8z M26,256c0,126.8,103.2,230,230,230    s230-103.2,230-230S382.8,26,256,26S26,129.2,26,256z"></path><g><g><path d="M214,322.5l52.6-52.6c7.7-7.7,7.7-20,0-27.7L214,189.4c-7.7-7.7-7.7-20,0-27.7l0,0      c7.7-7.7,20-7.7,27.7,0l80.5,80.5c7.7,7.7,7.7,20,0,27.7l-80.5,80.3c-7.7,7.7-20,7.7-27.7,0l0,0      C206.3,342.6,206.3,330.2,214,322.5z"></path></g></g></g></g>
</svg>