<svg class="svg-icon" xmlns="http://www.w3.org/2000/svg" xmlns:xlink="http://www.w3.org/1999/xlink" version="1.1" x="0px" y="0px" viewBox="0 0 100 100" enable-background="new 0 0 100 100" xml:space="preserve"><g><g><path d="M66.966,37.54c-0.097-0.017-0.194-0.013-0.293,0.003c-0.043-10.695-7.297-19.38-16.21-19.38    c-8.94,0-16.212,8.738-16.212,19.478c0,0.009,0,0.019,0,0.027c-0.218-0.116-0.439-0.166-0.656-0.128    c-0.982,0.171-1.485,1.996-1.124,4.075c0.362,2.08,1.452,3.627,2.436,3.456c0.18-0.031,0.344-0.12,0.489-0.254    c2.384,7.197,8.236,12.302,15.067,12.302c6.768,0,12.578-5.012,15.003-12.105c0.062,0.025,0.125,0.046,0.19,0.057    c0.982,0.171,2.072-1.376,2.436-3.456C68.452,39.535,67.948,37.711,66.966,37.54z M50.463,54.094    c-7.272,0-13.188-7.381-13.188-16.454c0-1.574,0.181-3.096,0.514-4.539c3.358-4.346,10.507-4.654,14.618,0.433    c4.313,5.338,9.836,5.52,11.195,5.478C63.041,47.446,57.365,54.094,50.463,54.094z"></path></g><path d="M58.835,57.141h-0.419c-1.069,0.674-2.232,1.211-3.457,1.607l-4.678,20.006v0.059l-0.008-0.029l-0.007,0.029v-0.059   L45.59,58.752c-1.23-0.395-2.397-0.936-3.472-1.611h-0.42c-9.743,0-17.641,7.898-17.641,17.641v6.553   c0,0.168,0.009,0.336,0.013,0.504h52.393c0.005-0.168,0.013-0.336,0.013-0.504v-6.553C76.476,65.039,68.578,57.141,58.835,57.141z    M70.959,72.135H58.863v-2.143h12.096V72.135z"></path><g><path d="M89.311,44.738c-0.051-0.008-0.104-0.006-0.154,0.001c-0.023-5.662-3.863-10.26-8.582-10.26    c-4.733,0-8.583,4.626-8.583,10.312c0,0.004,0.001,0.009,0.001,0.015c-0.116-0.062-0.233-0.088-0.348-0.068    c-0.52,0.09-0.786,1.056-0.596,2.157c0.192,1.102,0.769,1.921,1.289,1.831c0.096-0.017,0.184-0.063,0.26-0.134    c1.263,3.809,4.36,6.512,7.977,6.512c3.583,0,6.659-2.652,7.942-6.408c0.032,0.013,0.065,0.024,0.102,0.03    c0.521,0.09,1.097-0.729,1.288-1.831C90.098,45.795,89.83,44.829,89.311,44.738z M80.574,53.502c-3.85,0-6.981-3.907-6.981-8.71    c0-0.833,0.097-1.639,0.271-2.402c1.778-2.301,5.563-2.464,7.74,0.229c2.284,2.826,5.207,2.922,5.926,2.899    C87.233,49.982,84.228,53.502,80.574,53.502z"></path><path d="M94.151,67.922v-3.469c0-5.158-4.03-9.219-9.188-9.219H84.74c-0.565,0.375-1.313,0.582-1.962,0.791l-2.607,10.531    l-2.348-10.527c-0.651-0.209-1.142-0.42-1.71-0.795h-0.223c-1.95,0-3.759,0.512-5.257,1.535c4.079,2.686,7.197,6.693,8.721,11.369    h14.94C94.299,67.951,94.151,68.012,94.151,67.922z M91.347,63.09h-6.545v-1.123h6.545V63.09z"></path></g><path d="M24.255,62.01c0.023-0.029,0.045-0.061,0.066-0.092h-0.066V62.01z"></path><path d="M11.572,48.726c0.096-0.017,0.183-0.063,0.26-0.134c1.262,3.809,4.359,6.512,7.977,6.512c3.583,0,6.658-2.652,7.941-6.408   c0.032,0.013,0.066,0.024,0.101,0.03c0.521,0.09,1.099-0.729,1.289-1.831c0.191-1.1-0.075-2.066-0.595-2.157   c-0.051-0.008-0.104-0.006-0.155,0.001c-0.023-5.662-3.863-10.26-8.581-10.26c-4.733,0-8.583,4.626-8.583,10.312   c0,0.004,0,0.009,0,0.015c-0.115-0.062-0.233-0.088-0.348-0.068c-0.519,0.09-0.786,1.056-0.595,2.157   C10.475,47.997,11.052,48.816,11.572,48.726z M13.099,42.39c1.778-2.301,5.563-2.464,7.739,0.229   c2.283,2.826,5.207,2.922,5.926,2.899c-0.297,4.464-3.303,7.984-6.955,7.984c-3.851,0-6.981-3.907-6.981-8.71   C12.826,43.959,12.923,43.153,13.099,42.39z"></path><path d="M24.029,61.967h0.292c1.474-2.057,3.276-3.662,5.327-5.039c-1.525-1.088-3.392-1.693-5.409-1.693h-0.222   c-0.566,0.375-1.266,0.582-1.914,0.791l-2.561,10.531v0.031v-0.016v0.016v-0.031l-2.396-10.527   c-0.652-0.209-1.188-0.42-1.757-0.795h-0.224c-5.157,0-9.462,4.061-9.462,9.219v3.469c0,0.09,0.129,0.029,0.131,0.217h15.256   c0.721-2.059,1.63-4.271,2.938-6.129V61.967z"></path></g></svg>