<svg xmlns="http://www.w3.org/2000/svg" width="30" height="36" viewBox="0 0 30 36">
  <g fill="#0091BD">
    <polygon points="29.81 11.29 22.01 11.29 22.01 8.68 27.2 8.68 27.2 2.61 23.23 2.61 23.23 6.06 16.82 6.06 16.82 2.61 12.93 2.61 12.93 6.06 6.33 6.06 6.33 2.61 2.61 2.61 2.61 8.68 7.63 8.68 7.63 11.29 0 11.29 0 0 8.94 0 8.94 3.45 10.32 3.45 10.32 0 19.43 0 19.43 3.45 20.62 3.45 20.62 0 29.81 0"/>
    <path d="M27.13,16.17 L27.13,30.52 C27.124515,32.047551 25.887551,33.284515 24.36,33.29 L5.44,33.29 C3.91244896,33.284515 2.67548498,32.047551 2.67,30.52 L2.67,16.17 L27.13,16.17 Z M29.74,13.56 L0.06,13.56 L0.06,30.56 C0.0873931439,33.5133767 2.48650109,35.8946474 5.44,35.9 L24.36,35.9 C27.3290094,35.8944967 29.7344967,33.4890094 29.74,30.52 L29.74,13.52 L29.74,13.56 Z"/>
    <path d="M14.9,21.42 C16.4551651,21.4254856 17.7145144,22.6848349 17.72,24.24 L17.72,27.24 L12.08,27.24 L12.08,24.24 C12.0854856,22.6848349 13.3448349,21.4254856 14.9,21.42 Z M14.9,18.81 C11.9010938,18.81 9.47,21.2410938 9.47,24.24 L9.47,29.81 L20.33,29.81 L20.33,24.24 C20.33,21.2410938 17.8989062,18.81 14.9,18.81 Z"/>
  </g>
</svg>
