<svg class="svg-icon" xmlns="http://www.w3.org/2000/svg" xmlns:xlink="http://www.w3.org/1999/xlink" version="1.1" x="0px" y="0px" viewBox="0 0 100 100" style="enable-background:new 0 0 100 100;" xml:space="preserve"><path d="M79.2,71.4l3.5,2l0.1-0.2c4.9-6.8,7.5-14.9,7.5-23.4c0.1-10.9-4-21.1-11.6-28.7C71.1,13.4,60.9,9.2,50.1,9.2  C27.8,9.2,9.7,27.3,9.7,49.6S27.8,90,50.1,90c3.9,0,7.6-0.5,11.1-1.6l0.2-0.1l-0.8-4l-0.3,0.1c-3.4,1-6.9,1.6-10.4,1.6  c-20,0-36.3-16.3-36.3-36.3c0-20,16.3-36.3,36.3-36.3s36.3,16.3,36.3,36.3c0,7.7-2.4,15.1-7,21.5L79.2,71.4z"></path><path d="M84.2,16C75.1,6.8,63,1.8,50.1,1.8c-4.5,0-8.8,0.6-12.9,1.8L37,3.6l0.7,3.7L38,7.3c4-1.1,8.1-1.7,12.1-1.7  c24.5,0,44.5,19.9,44.5,44.5S74.6,94.5,50.1,94.5C25.6,94.4,5.6,74.4,5.6,49.9c0-9.3,2.8-18.1,8.2-25.7L14,24l-3.3-1.9l-0.1,0.2  C4.9,30.4,1.8,40,1.8,50c0,26.5,21.6,48.1,48.1,48.1c26.6,0,48.2-21.6,48.2-48.1C98.3,37.2,93.3,25.1,84.2,16z"></path><path d="M70.5,46.8H67c-0.5-2.1-1.3-4-2.4-5.8l2.8-2.8c0.2-0.2,0.3-0.5,0.3-0.8c0-0.3-0.1-0.6-0.3-0.8l-3.9-3.9  c-0.4-0.4-1.1-0.4-1.5,0l-2.9,2.9c-1.6-1-3.4-1.7-5.2-2.2v-3.7c0-0.6-0.5-1.1-1.1-1.1h-5.4c-0.6,0-1.1,0.5-1.1,1.1v3.6  c-2,0.4-3.8,1.2-5.4,2.2l-3.1-3.1c-0.4-0.4-1.1-0.4-1.5,0l-3.9,3.9c-0.2,0.2-0.3,0.5-0.3,0.8c0,0.3,0.1,0.6,0.3,0.8l3,3  c-1.2,1.8-2,3.7-2.5,5.9h-3.5c-0.6,0-1.1,0.5-1.1,1.1v5.4c0,0.6,0.5,1.1,1.1,1.1h3.5c0.4,1.9,1.2,3.7,2.2,5.3l-2.8,2.8  C32.1,62.7,32,63,32,63.3s0.1,0.6,0.3,0.8l3.9,3.9c0.2,0.2,0.5,0.3,0.8,0.3s0.6-0.1,0.8-0.3l2.7-2.7c1.8,1.2,3.8,2,6,2.5v3.1  c0,0.6,0.5,1.1,1.1,1.1h5.4c0.6,0,1.1-0.5,1.1-1.1v-3.2c2.1-0.5,4-1.3,5.7-2.4l2.3,2.3c0.2,0.2,0.5,0.3,0.8,0.3  c0.3,0,0.6-0.1,0.8-0.3l3.8-3.8c0.2-0.2,0.3-0.5,0.3-0.8s-0.1-0.6-0.3-0.8l-2.4-2.4c1-1.6,1.7-3.4,2.2-5.4h3.5  c0.6,0,1.1-0.5,1.1-1.1v-5.4C71.6,47.3,71.1,46.8,70.5,46.8z M49.9,61.3c-5.9,0-10.7-4.8-10.7-10.7S44,39.8,49.9,39.8  s10.7,4.8,10.7,10.7S55.9,61.3,49.9,61.3z"></path></svg>