
<svg class="svg-icon" xmlns="http://www.w3.org/2000/svg" xmlns:xlink="http://www.w3.org/1999/xlink" version="1.1" x="0px" y="0px" viewBox="0 0 100 100" enable-background="new 0 0 100 100" xml:space="preserve"><path style="stroke: currentColor;  fill: currentColor" d="M50.001,96.571l-0.445-0.139c-0.393-0.122-9.714-3.118-19.069-14.486C15.033,63.167,11.789,36.371,11.789,17.197v-1.455  l1.455-0.045c0.225-0.007,22.672-0.818,35.792-11.846l0.965-0.811l0.965,0.811c13.137,11.043,35.566,11.84,35.791,11.846  l1.455,0.044v1.456c0,19.173-3.244,45.97-18.697,64.749C60.16,93.314,50.839,96.311,50.446,96.433L50.001,96.571z M14.795,18.62  c0.482,59.367,31.122,73.208,35.206,74.786c1.918-0.738,9.676-4.151,17.343-13.544C81.739,62.228,85.048,37.105,85.206,18.62  c-5.237-0.35-23.116-2.216-35.205-11.688C37.912,16.404,20.032,18.27,14.795,18.62z M50,11.882v76.235  c0,0,20.381-6.34,28.143-38.594c1.826-7.585,2.954-16.603,2.954-27.309C81.097,22.214,62,21.628,50,11.882z"></path></svg>