<svg class="svg-icon" width="46px" height="46px" viewBox="0 0 46 46" version="1.1" xmlns="http://www.w3.org/2000/svg" xmlns:xlink="http://www.w3.org/1999/xlink" xmlns:sketch="http://www.bohemiancoding.com/sketch/ns">
    <g id="Page-1" stroke="none" stroke-width="1" fill="none" fill-rule="evenodd" sketch:type="MSPage">
        <g id="round-social-icons" sketch:type="MSLayerGroup" transform="translate(-59.000000, 0.000000)">
            <g id="Oval_1_-+-Shape_1_" transform="translate(60.000000, 1.000000)" sketch:type="MSShapeGroup">
                <g>
                    <circle id="Oval_1_" stroke="currentColor" stroke-width="2" cx="22" cy="22" r="22"></circle>
                    <path d="M30.5,16.8 C31.4,16.2 32.1,15.3 32.4,14.3 C31.6,14.8 30.6,15.2 29.7,15.4 C28.9,14.5 27.8,14 26.6,14 C24.2,14 22.3,16 22.3,18.5 C22.3,18.9 22.3,19.2 22.4,19.5 C18.8,19.3 15.6,17.5 13.5,14.8 C13.1,15.5 12.9,16.3 12.9,17.1 C12.9,18.7 13.7,20.1 14.8,20.9 C14.1,20.9 13.4,20.7 12.8,20.3 L12.8,20.4 C12.8,22.6 14.3,24.4 16.3,24.9 C15.9,25 15.6,25.1 15.2,25.1 C14.9,25.1 14.7,25.1 14.4,25 C14.9,26.8 16.5,28.1 18.4,28.2 C16.9,29.4 15.1,30.1 13,30.1 C12.7,30.1 12.3,30.1 12,30 C13.9,31.3 16.2,32 18.6,32 C26.5,32 30.9,25.1 30.9,19.1 L30.9,18.5 C31.7,17.9 32.5,17.1 33,16.1 C32.2,16.5 31.4,16.7 30.5,16.8 L30.5,16.8 Z" id="Shape_1_" fill="currentColor"></path>
                </g>
            </g>
        </g>
    </g>
</svg>