<svg class="svg-icon" width="46px" height="46px" viewBox="0 0 46 46" version="1.1" xmlns="http://www.w3.org/2000/svg" xmlns:xlink="http://www.w3.org/1999/xlink" xmlns:sketch="http://www.bohemiancoding.com/sketch/ns">
    <g id="Page-1" stroke="none" stroke-width="1" fill="none" fill-rule="evenodd" sketch:type="MSPage">
        <g id="round-social-icons" sketch:type="MSLayerGroup" transform="translate(-359.000000, 1.000000)">
            <circle id="Oval_6_" stroke="currentColor" stroke-width="2" sketch:type="MSShapeGroup" cx="382" cy="22" r="22"></circle>
            <path d="M372.5,18.4 L376.4,18.4 L376.4,32 L372.5,32 L372.5,18.4 L372.5,18.4 Z M374.4,16.7 L374.4,16.7 C373,16.7 372,15.7 372,14.3 C372,13 372.9,11.9 374.4,11.9 C375.8,11.9 376.7,12.9 376.8,14.3 C376.7,15.7 375.8,16.7 374.4,16.7 L374.4,16.7 L374.4,16.7 Z M392,32 L387.6,32 L387.6,25 C387.6,23.2 386.9,21.9 385.4,21.9 C384.2,21.9 383.6,22.7 383.3,23.6 C383.2,23.9 383.2,24.3 383.2,24.7 L383.2,32 L378.8,32 C378.8,32 378.9,19.5 378.8,18.4 L383.2,18.4 L383.2,20.5 C383.5,19.6 384.9,18.2 387.1,18.2 C389.9,18.2 392,20.2 392,24.4 L392,32 L392,32 L392,32 Z" id="Shape_6_" fill="currentColor" sketch:type="MSShapeGroup"></path>
        </g>
    </g>
</svg>