<svg xmlns="http://www.w3.org/2000/svg" xmlns:xlink="http://www.w3.org/1999/xlink" version="1.1" x="0px" y="0px" viewBox="0 0 100 100" enable-background="new 0 0 100 100" xml:space="preserve"><path fill="currentColor" d="M92.108,29.852h-3V10.844c0-2.422-1.982-4.404-4.404-4.404H13.918c-2.423,0-4.405,1.982-4.405,4.404v19.008h-3  c-1.211,0-2.202,0.991-2.202,2.202v15.135c0,1.211,0.991,2.203,2.202,2.203h3v33.669c0,2.423,1.982,4.404,4.405,4.404h4.786v3.413  c0,1.211,0.991,2.202,2.203,2.202h6c1.211,0,2.202-0.991,2.202-2.202v-3.413h40.2v3.413c0,1.211,0.991,2.202,2.202,2.202h6  c1.211,0,2.202-0.991,2.202-2.202v-3.413h4.991c2.422,0,4.404-1.981,4.404-4.404V49.392h3c1.211,0,2.202-0.991,2.202-2.203V32.054  C94.311,30.843,93.319,29.852,92.108,29.852z M20.628,81.554c-2.171,0-3.931-1.76-3.931-3.931c0-2.172,1.76-3.932,3.931-3.932  c2.171,0,3.931,1.76,3.931,3.932C24.559,79.794,22.799,81.554,20.628,81.554z M77.993,81.554c-2.171,0-3.931-1.76-3.931-3.931  c0-2.172,1.76-3.932,3.931-3.932s3.931,1.76,3.931,3.932C81.924,79.794,80.164,81.554,77.993,81.554z M83.906,65.607  c0,1.211-0.991,2.202-2.203,2.202H16.917c-1.211,0-2.202-0.991-2.202-2.202v-37.97c0-1.211,0.991-2.202,2.202-2.202h64.786  c1.212,0,2.203,0.991,2.203,2.202V65.607z M83.906,17.292c0,1.211-0.991,2.202-2.203,2.202H16.917c-1.211,0-2.202-0.991-2.202-2.202  v-3.453c0-1.211,0.991-2.203,2.202-2.203h64.786c1.212,0,2.203,0.991,2.203,2.203V17.292z"></path></svg>