<svg class="svg-icon" xmlns="http://www.w3.org/2000/svg" xmlns:xlink="http://www.w3.org/1999/xlink" version="1.1" x="0px" y="0px" viewBox="0 0 64 64" enable-background="new 0 0 64 64" xml:space="preserve"><g><g><g><g><path fill="currentColor" d="M35.586,0.519c-2.458-0.013-4.918-0.013-7.382,0c-1.797,0.01-2.796,1.004-2.816,2.8      c-0.014,1.251-0.014,2.593-0.002,4.354c0.014,1.894,0.996,2.863,2.921,2.88c0.457,0.004,0.914,0.005,1.37,0.005l2.234-0.005      l2.266,0.007c0.594,0,1.08-0.005,1.536-0.013c1.635-0.032,2.626-1.023,2.652-2.652c0.021-1.428,0.023-2.946,0.002-4.643      C38.344,1.498,37.357,0.527,35.586,0.519z M35.574,3.132c0.035,0,0.11,0.001,0.176,0.004c0.002,0.045,0.003,0.098,0.003,0.148      c0.021,1.672,0.021,3.167,0,4.569c0,0.03-0.002,0.056-0.002,0.078c-0.026,0.001-0.054,0.002-0.087,0.002      c-0.439,0.008-0.911,0.012-1.486,0.012l-2.269-0.006l-2.228,0.005c-0.449,0-0.9-0.001-1.351-0.005      c-0.143-0.001-0.246-0.009-0.317-0.018C28.007,7.858,28,7.771,28,7.654c-0.012-1.743-0.012-3.07,0.002-4.306      c0-0.056,0.002-0.143,0.005-0.212c0.069-0.003,0.155-0.004,0.21-0.004C30.67,3.119,33.123,3.119,35.574,3.132z"></path></g></g><g><g><path fill="currentColor" d="M28.151,28.226c0.487,0.008,0.975,0.011,1.465,0.011l2.26-0.005l2.248,0.005      c0.509,0,1.02-0.003,1.53-0.011c1.702-0.027,2.691-1.008,2.714-2.691c0.021-1.556,0.021-3.119-0.002-4.644      c-0.023-1.676-1.04-2.683-2.72-2.693c-2.493-0.016-4.985-0.014-7.478-0.002c-1.741,0.011-2.754,1.009-2.777,2.74      c-0.02,1.444-0.02,2.973-0.002,4.546C25.411,27.224,26.39,28.199,28.151,28.226z M35.628,20.811      c0.027,0,0.075,0.001,0.122,0.002c0.002,0.045,0.003,0.092,0.003,0.116c0.023,1.501,0.023,3.039,0.001,4.568      c0,0.029-0.001,0.071-0.003,0.111c-0.035,0.002-0.08,0.003-0.138,0.005c-0.479,0.006-0.962,0.009-1.442,0.009l-2.294-0.005      l-2.261,0.005c-0.475,0-0.948-0.002-1.423-0.009c-0.039,0-0.119-0.002-0.186-0.006c-0.002-0.048-0.003-0.105-0.003-0.155      c-0.018-1.551-0.017-3.058,0.002-4.482c0-0.041,0.002-0.103,0.003-0.156c0.066-0.003,0.143-0.004,0.177-0.004      C30.663,20.795,33.146,20.793,35.628,20.811z"></path></g></g><g><g><path fill="currentColor" d="M35.58,35.713c-0.455-0.006-0.912-0.008-1.367-0.008l-2.14,0.005l-2.422-0.005      c-0.491,0-0.981,0.002-1.474,0.008c-1.781,0.026-2.771,1.026-2.787,2.819c-0.017,1.569-0.015,3.023,0,4.449      c0.02,1.768,0.998,2.75,2.754,2.762c1.198,0.009,2.445,0.014,3.711,0.014c1.256,0,2.511-0.005,3.768-0.012      c1.728-0.011,2.73-1.02,2.747-2.769c0.015-1.421,0.015-2.876,0-4.448C38.353,36.733,37.362,35.734,35.58,35.713z M35.757,42.946      c-0.002,0.081-0.003,0.14-0.006,0.182c-0.045,0.002-0.098,0.002-0.146,0.002c-2.506,0.017-5.07,0.017-7.444,0      c-0.053,0-0.108-0.002-0.155-0.003c-0.002-0.045-0.003-0.104-0.005-0.174c-0.015-1.406-0.015-2.844,0-4.393      c0-0.05,0.002-0.149,0.006-0.227c0.059-0.003,0.134-0.003,0.204-0.005c0.479-0.008,0.956-0.009,1.433-0.009l2.234,0.005      l2.228-0.005c0.481,0,0.96,0.003,1.441,0.008c0.083,0.002,0.147,0.005,0.195,0.011c0.006,0.053,0.011,0.123,0.012,0.215      C35.772,40.106,35.772,41.544,35.757,42.946z"></path></g></g><g><g><path fill="currentColor" d="M35.58,52.645c-0.508-0.006-1.017-0.008-1.525-0.008l-2.347,0.003l-2.098-0.005      c-0.478,0-0.956,0.003-1.432,0.009c-1.782,0.024-2.772,1.025-2.789,2.817c-0.017,1.569-0.015,3.025,0,4.451      c0.02,1.767,0.998,2.748,2.754,2.762c1.198,0.008,2.445,0.012,3.711,0.012c1.256,0,2.511-0.005,3.768-0.012      c1.728-0.011,2.73-1.019,2.747-2.768c0.015-1.421,0.015-2.877,0-4.449C38.353,53.664,37.362,52.666,35.58,52.645z       M35.757,59.878c-0.002,0.08-0.003,0.138-0.005,0.182c-0.045,0.002-0.098,0.002-0.147,0.002      c-2.506,0.017-5.068,0.017-7.445-0.002c-0.051,0-0.107,0-0.153-0.002c-0.002-0.047-0.003-0.104-0.005-0.176      c-0.015-1.406-0.015-2.843,0-4.393c0-0.05,0.002-0.149,0.006-0.227c0.059-0.003,0.134-0.003,0.203-0.005      c0.479-0.006,0.957-0.008,1.435-0.008l2.234,0.003l2.222-0.003c0.482,0,0.965,0.002,1.447,0.008      c0.083,0.002,0.147,0.005,0.195,0.011c0.006,0.053,0.011,0.122,0.012,0.213C35.772,57.039,35.772,58.475,35.757,59.878z"></path></g></g><path fill="currentColor" d="M54.698,26.026c-0.018-2.04-1.95-3.968-3.974-3.968l-0.122,0.002c-0.461,0.019-1.977,0.029-4.386,0.029    l-2.279-0.003c-0.457,0-0.917,0.002-1.375,0.008c-0.705,0.008-1.161,0.414-1.283,1.144c-0.105,0.615,0.365,1.232,1.05,1.376    c0.254,0.051,0.511,0.056,0.775,0.056l7.359-0.002c1.34,0.002,1.648,0.303,1.648,1.614v11.356c0,1.07-0.2,1.271-1.261,1.273    l-2.095,0.002l-2.975-0.003c0.631-0.631,1.527-1.53,1.782-1.794c0.275-0.282,0.416-0.634,0.4-0.993    c-0.021-0.346-0.188-0.664-0.47-0.896c-0.512-0.431-1.268-0.359-1.842,0.191l-3.962,3.84c-0.288,0.276-0.448,0.639-0.448,1.019    c0,0.394,0.171,0.777,0.482,1.08L45.92,45.4c0.373,0.358,0.783,0.547,1.185,0.547c0.317,0,0.606-0.12,0.835-0.347    c0.439-0.434,0.606-1.205-0.243-2.07c-0.307-0.31-1.283-1.334-1.935-2.021l2.778,0.002c0.687,0,1.465,0,2.276-0.005    c2.087-0.011,3.865-1.656,3.881-3.594C54.734,33.975,54.734,29.976,54.698,26.026z"></path><path fill="currentColor" d="M18.347,18.293c-0.568-0.546-1.321-0.621-1.839-0.193c-0.284,0.234-0.451,0.553-0.472,0.901    c-0.017,0.353,0.125,0.705,0.4,0.99c0.255,0.265,1.149,1.163,1.782,1.796l-2.61,0.002l-2.46-0.002    c-1.061-0.002-1.261-0.204-1.261-1.273V9.158c0-1.312,0.308-1.613,1.648-1.614l7.359,0.002c0.264,0,0.521-0.005,0.777-0.056    c0.684-0.143,1.154-0.76,1.049-1.375c-0.122-0.731-0.578-1.137-1.283-1.145c-0.458-0.005-0.918-0.008-1.376-0.008l-2.278,0.003    c-2.409,0-3.925-0.01-4.386-0.029l-0.122-0.002c-2.024,0-3.956,1.929-3.974,3.967c-0.036,3.95-0.036,7.949,0,11.886    c0.017,1.938,1.794,3.584,3.883,3.594c0.873,0.005,1.708,0.005,2.433,0.005l2.62-0.002c-0.652,0.686-1.63,1.711-1.937,2.022    c-0.847,0.864-0.681,1.635-0.242,2.069c0.23,0.227,0.518,0.347,0.835,0.347c0.403,0,0.813-0.189,1.187-0.548l4.197-4.043    c0.31-0.303,0.481-0.686,0.481-1.08c0-0.379-0.158-0.74-0.445-1.017L18.347,18.293z"></path><path fill="currentColor" d="M21.074,55.598c-0.908-0.88-1.815-1.759-2.727-2.638c-0.571-0.548-1.33-0.619-1.838-0.192    c-0.285,0.234-0.452,0.553-0.473,0.902c-0.017,0.352,0.125,0.703,0.4,0.99c0.255,0.264,1.149,1.163,1.782,1.794l-2.975,0.003    l-2.093-0.001c-1.062-0.003-1.262-0.204-1.262-1.274V43.825c0-1.31,0.308-1.612,1.648-1.614l7.359,0.001    c0.251,0,0.518-0.005,0.778-0.057c0.682-0.144,1.152-0.76,1.047-1.373c-0.122-0.732-0.577-1.139-1.283-1.146    c-0.458-0.006-0.918-0.008-1.376-0.008l-2.278,0.003c-2.409,0-3.925-0.011-4.386-0.029l-0.122-0.002    c-2.024,0-3.956,1.928-3.974,3.968c-0.036,3.949-0.036,7.948,0,11.885c0.017,1.938,1.794,3.584,3.883,3.594    c0.811,0.005,1.588,0.005,2.275,0.005l2.778-0.002c-0.652,0.687-1.629,1.711-1.935,2.021c-0.849,0.862-0.682,1.635-0.243,2.07    c0.23,0.227,0.518,0.347,0.835,0.347c0.403,0,0.813-0.189,1.187-0.548l4.197-4.043c0.31-0.302,0.481-0.685,0.481-1.079    c0-0.38-0.158-0.742-0.445-1.019L21.074,55.598z"></path></g></g></svg>