<svg stroke="currentColor" fill="currentColor" viewBox="0 0 54.500001 55.700002" width="54.5" height="55.700001" version="1.1">
  <g transform="translate(-1.55,-4.05)">
    <path d="M 28.658203,4.6679688 C 27.123524,5.3204321 26.36021,6.9336853 25.095171,7.9315126 17.499613,15.72432 9.883494,23.503145 2.3007812,31.304688 1.8375174,32.324262 2.8956239,33.130187 3.5527344,33.730469 11.769569,42.160221 19.975398,50.609382 28.216797,59.009766 29.27427,59.45407 30.054418,58.337637 30.662109,57.662109 38.872635,49.270152 47.107278,40.894056 55.302734,32.492188 55.771006,31.427807 54.624902,30.640151 53.972656,30.005859 45.753724,21.597959 37.538367,13.181486 29.296875,4.7988281 29.100792,4.6997916 28.878359,4.6454644 28.658203,4.6679688 Z m 0.07617,2.5957031 c 1.532991,0.4956491 2.229692,2.1037021 3.438839,3.0498131 6.724262,6.969171 13.464542,13.922425 20.143192,20.934562 0.381413,1.050802 -0.796161,1.711778 -1.369404,2.39777 C 43.727231,41.115256 36.530052,48.606753 29.251953,56.019531 28.19465,56.405312 27.538394,55.197519 26.881486,54.598613 19.672111,47.125618 12.445471,39.669743 5.2832031,32.152344 4.9018332,31.101583 6.0792702,30.440475 6.652681,29.754644 13.86696,22.291338 21.077109,14.823995 28.322266,7.390625 c 0.1315,-0.054398 0.261263,-0.1509356 0.412109,-0.1269531 z" />
  </g>
  <g transform="translate(-1.55,-4.05)">
    <path d="m 40.341797,26.242188 c -0.911752,0.125437 -1.234907,1.538342 -0.366841,1.967246 0.895736,0.896967 1.791332,1.794075 2.687153,2.690957 -1.789663,1.840797 -3.69792,3.568275 -5.378906,5.511718 -0.368831,0.9911 1.251066,1.888267 1.81676,0.915573 2.010262,-2.055102 4.144485,-3.992179 6.028943,-6.167526 0.138823,-1.040052 -1.030881,-1.527924 -1.580774,-2.229387 -0.977449,-0.905691 -1.788723,-2.091661 -2.991482,-2.695567 -0.07148,-0.01329 -0.143242,0.0054 -0.214853,0.007 z" />
  </g>
  <g transform="translate(-1.55,-4.05)">
    <path d="m 19.158203,24.041016 c -1.265302,0.720848 -2.059018,2.014303 -3.180297,2.948679 -1.196987,1.225257 -2.467739,2.387427 -3.606812,3.662649 -0.13601,1.034688 1.023626,1.51205 1.571359,2.207542 0.992197,0.906693 1.79485,2.131611 3.03228,2.706005 0.993196,0.0404 1.50645,-1.522602 0.549654,-1.98558 -0.862069,-0.896128 -1.725889,-1.790583 -2.586887,-2.687733 1.796337,-1.831019 3.693366,-3.566715 5.382812,-5.5 0.237475,-0.679215 -0.47725,-1.440272 -1.162109,-1.351562 z" />
  </g>
  <path d="m 26.167969,21.974609 c -1.689922,0.192953 -3.739183,0.198949 -4.867188,1.695313 -0.364139,2.063303 -0.0012,4.197997 -0.16993,6.289758 -0.03419,1.010413 0.477671,2.033133 1.510471,2.310753 1.679796,0.654129 3.533495,0.61026 5.307897,0.651442 1.626916,-0.0807 3.443829,-0.339142 4.684991,-1.438823 0.704468,-1.247703 0.113997,-2.712064 0.314417,-4.058424 -0.02948,-1.319063 0.170542,-2.73679 -0.322451,-3.977347 -1.312068,-1.37362 -3.378996,-1.293225 -5.126934,-1.473787 -0.443859,-0.01314 -0.887382,-0.0059 -1.331273,0.0011 z m 0.886719,1.076172 c 1.682093,0.04134 3.438684,0.210335 4.910156,1.097657 -2.917168,1.515004 -6.490702,1.390211 -9.494141,0.207031 -0.444092,-0.234331 0.125369,-0.517624 0.373047,-0.583985 1.314669,-0.606658 2.790242,-0.645217 4.210938,-0.720703 z m -4.59961,2.423828 c 2.890646,1.217192 6.149788,0.829848 9.124685,0.126816 0.548918,-0.154528 0.174025,0.762088 0.270995,1.075404 0.202126,0.867409 -0.728548,1.324586 -1.438649,1.416921 -2.54963,0.746464 -5.361928,0.556631 -7.83789,-0.357422 -0.608913,-0.478823 -0.17579,-1.336777 -0.355469,-1.982422 -0.02199,-0.146823 0.06192,-0.329239 0.236328,-0.279297 z m -0.08984,3.306641 c 3.029724,1.175313 6.404668,0.88285 9.47461,0.02148 -0.08052,0.746125 0.327993,1.797356 -0.486328,2.257813 -2.764383,1.158625 -5.975658,0.943567 -8.75,-0.08203 -0.675628,-0.562623 -0.195464,-1.521503 -0.390625,-2.251954 l 0.09412,0.03379 z" />
</svg>
