<?xml version="1.0" encoding="UTF-8" standalone="no"?>
<svg viewBox="0 0 49.525219 15.245035" >
  <g transform="translate(677.9313,-313.85416)">
    <g transform="matrix(0.89195998,0,0,0.89195998,-70.918127,35.394559)">
      <path d="m -639.73003,327.5981 c -1.15492,-0.074 -1.82662,-0.73168 -2.00462,-1.96262 -0.0474,-0.32745 -0.0475,-0.33595 -0.0524,-2.46175 l -0.005,-2.05743 h 0.51113 0.51114 l 0.004,1.99006 c 0.004,1.79359 0.006,2.00388 0.023,2.13005 0.0696,0.51207 0.20814,0.85642 0.44402,1.10359 0.18878,0.19781 0.40977,0.31364 0.71569,0.3751 0.14432,0.029 0.55488,0.029 0.68647,1.2e-4 0.31013,-0.0682 0.55871,-0.20321 0.77798,-0.42241 0.24993,-0.24984 0.43483,-0.6043 0.52429,-1.00513 l 0.0302,-0.1351 0.003,-2.0069 0.003,-2.0069 h 0.52184 0.52183 v 3.1549 3.15491 h -0.51646 -0.51646 v -0.50056 c 0,-0.34011 -0.004,-0.49931 -0.0116,-0.49668 -0.006,0.002 -0.0329,0.0427 -0.0589,0.0902 -0.17797,0.32459 -0.4745,0.62141 -0.79942,0.80024 -0.38948,0.21436 -0.78007,0.29058 -1.31374,0.25636 z" style="fill:#0089d6;fill-opacity:1;stroke-width:0.01122741" />
      <path transform="matrix(0.26458333,0,0,0.26458333,-677.9313,313.85407)" d="m 190.56055,26.773438 c -0.89583,-0.0021 -1.96224,0.08779 -2.64063,0.236328 -1.55244,0.33959 -3.01363,1.037096 -4.26367,2.035156 -0.46292,0.3696 -1.30224,1.207005 -1.67187,1.669922 -1.44182,1.80582 -2.45306,4.335454 -2.76563,6.912109 -0.13984,1.153172 -0.12056,2.97687 0.0469,4.333985 0.48424,3.921788 2.13864,6.77113 4.9336,8.5 1.32554,0.819933 2.94606,1.35085 4.48633,1.466796 h 0.002 c 0.7315,0.05468 2.96974,0.02206 3.58008,-0.05273 2.04623,-0.250809 3.97906,-0.921467 5.66601,-1.964844 l 0.39844,-0.246094 0.002,-1.794921 c 10e-4,-1.444687 -0.009,-1.788176 -0.0527,-1.761719 -0.0299,0.0189 -0.19768,0.14191 -0.37305,0.273437 -1.49121,1.11806 -3.33895,1.879152 -5.28125,2.177735 -0.6808,0.104428 -2.20339,0.162981 -2.80078,0.107422 -1.61117,-0.149783 -3.08209,-0.772488 -4.28515,-1.8125 -0.58674,-0.507213 -1.30439,-1.553823 -1.72071,-2.513672 -0.48272,-1.113071 -0.76172,-2.421677 -0.76172,-3.570313 v -0.376953 l 8.45508,-0.01172 8.45508,-0.01172 0.0234,-1.017579 c 0.0151,-0.560125 0.007,-1.420064 -0.008,-1.910156 -0.10727,-3.127408 -0.94674,-5.6668 -2.47461,-7.484375 -1.5038,-1.789001 -3.71677,-2.926642 -6.13086,-3.15039 -0.24026,-0.0222 -0.51975,-0.03249 -0.81836,-0.0332 z m -0.60547,3.361328 c 0.4363,-0.01238 0.87007,-1.18e-4 1.14844,0.04297 1.17675,0.182249 2.16557,0.663796 2.98437,1.449219 1.14739,1.100561 1.95899,3.238141 1.95899,5.162109 v 0.333985 h -6.47266 -6.47461 l 0.0273,-0.201172 c 0.0579,-0.423043 0.24443,-1.183228 0.4043,-1.646484 0.44421,-1.288215 1.14971,-2.418674 2.0918,-3.34961 0.89514,-0.884523 1.92133,-1.431058 3.16211,-1.68164 0.29348,-0.05934 0.73362,-0.097 1.16992,-0.109375 z" style="fill:#0089d6;fill-opacity:1;stroke-width:0.0424343"/>
      <path transform="matrix(0.26458333,0,0,0.26458333,-677.9313,313.85407)" d="m 94.097656,17.857422 -6.361328,16.708984 c -3.499275,9.189581 -6.369521,16.731483 -6.380859,16.761719 -0.01425,0.04082 0.437095,0.05139 2.162109,0.05078 h 2.177734 l 1.611329,-4.529297 c 0.885694,-2.491011 1.637859,-4.600193 1.671875,-4.6875 l 0.0625,-0.160156 h 7.089843 7.089841 l 1.76172,4.689453 1.76172,4.6875 2.17383,0.002 c 1.19611,0 2.17578,-0.0082 2.17578,-0.01953 0,-0.01648 -12.219957,-31.739213 -12.738281,-33.068359 L 98.1875,17.857422 h -2.044922 z m 2,4.048828 c 0.03269,0.0099 0.07083,0.151734 0.121094,0.427734 0.21411,1.177172 0.364373,1.618813 3.074219,8.951172 1.448431,3.919333 2.634761,7.133066 2.634761,7.140625 0,0.0076 -2.607201,0.01367 -5.792964,0.01367 -3.185764,0 -5.792969,-0.01821 -5.792969,-0.03711 0,-0.01996 1.163184,-3.204386 2.583984,-7.076172 1.420838,-3.871786 2.640261,-7.219548 2.710938,-7.441406 0.142488,-0.446854 0.328385,-1.253093 0.371093,-1.613282 0.02986,-0.251924 0.05715,-0.375089 0.08984,-0.365234 z" style="fill:#0089d6;fill-opacity:1;stroke-width:0.0424343" />
      <path d="m -648.18989,327.2871 v -0.16157 l 1.86915,-2.5695 1.86915,-2.5695 -1.69232,-0.006 -1.69231,-0.006 -0.003,-0.42945 -0.003,-0.42945 h 2.44771 2.4477 v 0.14505 0.14505 l -1.86936,2.58351 c -1.02815,1.42094 -1.86936,2.58591 -1.86936,2.58883 0,0.003 0.83111,0.005 1.84691,0.005 h 1.8469 v 0.43226 0.43225 h -2.59914 -2.59915 z" style="fill:#0089d6;fill-opacity:1;stroke-width:0.01122741" />
      <path d="m -634.47373,327.44118 c -0.004,-0.004 -0.007,-1.42888 -0.007,-3.16613 v -3.15865 h 0.51085 0.51085 v 0.65119 c 0,0.35816 0.004,0.65119 0.01,0.65119 0.005,0 0.0302,-0.0586 0.0553,-0.13028 0.11485,-0.32834 0.31403,-0.63515 0.57065,-0.87899 0.23117,-0.21966 0.49538,-0.35102 0.80714,-0.40129 0.0876,-0.0141 0.16167,-0.0168 0.33682,-0.0123 0.21997,0.006 0.33497,0.0218 0.46875,0.0655 l 0.0421,0.0138 v 0.53025 0.53026 l -0.1207,-0.0604 c -0.2132,-0.10672 -0.42356,-0.14895 -0.67645,-0.1358 -0.16458,0.009 -0.27261,0.0297 -0.40418,0.0791 -0.27073,0.1016 -0.49033,0.28094 -0.64377,0.52574 -0.22213,0.35439 -0.38056,0.80991 -0.42729,1.22859 -0.008,0.0751 -0.0133,0.68704 -0.0153,1.89336 l -0.003,1.78235 h -0.50326 c -0.27679,0 -0.50663,-0.003 -0.51074,-0.007 z" style="fill:#0089d6;fill-opacity:1;stroke-width:0.01122741" />
    </g>
    <g >
      <path d="m -668.82587,328.28486 c 2.52869,-0.4467 4.61725,-0.81635 4.64124,-0.82143 l 0.0436,-0.009 -2.38734,-2.83967 c -1.31303,-1.56181 -2.38733,-2.84571 -2.38733,-2.85311 0,-0.014 2.46512,-6.80244 2.47898,-6.82659 0.005,-0.008 1.68223,2.88824 4.0666,7.02087 2.23229,3.86903 4.07271,7.05907 4.08981,7.08896 l 0.0311,0.0543 -7.58715,-9.8e-4 -7.58715,-9.7e-4 4.59763,-0.81218 z" style="fill:#0089d6;fill-opacity:1;stroke-width:0.01122741" />
      <path d="m -677.9313,327.41898 c 0,-0.004 1.1249,-1.95674 2.49978,-4.33943 l 2.49978,-4.33216 2.9132,-2.44476 c 1.60226,-1.34462 2.91752,-2.44641 2.92279,-2.44842 0.005,-0.002 -0.0158,0.051 -0.0468,0.11788 -0.031,0.0668 -1.45454,3.12011 -3.16333,6.78501 l -3.10691,6.66347 -2.25924,0.003 c -1.24258,0.002 -2.25924,-4.4e-4 -2.25924,-0.004 z" style="fill:#0089d6;fill-opacity:1;stroke-width:0.01122741" />
    </g>
  </g>
</svg>
