<?xml version="1.0" encoding="UTF-8" standalone="no"?>
<!-- Generator: Adobe Illustrator 21.1.0, SVG Export Plug-In . SVG Version: 6.00 Build 0)  -->

<svg
   xmlns:dc="http://purl.org/dc/elements/1.1/"
   xmlns:cc="http://creativecommons.org/ns#"
   xmlns:rdf="http://www.w3.org/1999/02/22-rdf-syntax-ns#"
   xmlns:svg="http://www.w3.org/2000/svg"
   xmlns="http://www.w3.org/2000/svg"
   xmlns:sodipodi="http://sodipodi.sourceforge.net/DTD/sodipodi-0.dtd"
   xmlns:inkscape="http://www.inkscape.org/namespaces/inkscape"
   version="1.1"
   id="Layer_1"
   x="0px"
   y="0px"
   viewBox="0 0 279.60001 64.099998"
   xml:space="preserve"
   sodipodi:docname="cncf-horizontal2.svg"
   width="279.60001"
   height="64.099998"
   inkscape:version="0.92.2 5c3e80d, 2017-08-06"><metadata
     id="metadata87"><rdf:RDF><cc:Work
         rdf:about=""><dc:format>image/svg+xml</dc:format><dc:type
           rdf:resource="http://purl.org/dc/dcmitype/StillImage" /><dc:title></dc:title></cc:Work></rdf:RDF></metadata><defs
     id="defs85" /><sodipodi:namedview
     pagecolor="#ffffff"
     bordercolor="#666666"
     borderopacity="1"
     objecttolerance="10"
     gridtolerance="10"
     guidetolerance="10"
     inkscape:pageopacity="0"
     inkscape:pageshadow="2"
     inkscape:window-width="1259"
     inkscape:window-height="758"
     id="namedview83"
     showgrid="false"
     inkscape:zoom="1.1067758"
     inkscape:cx="237.42695"
     inkscape:cy="89.181587"
     inkscape:window-x="0"
     inkscape:window-y="0"
     inkscape:window-maximized="0"
     inkscape:current-layer="Layer_1"
     fit-margin-top="0"
     fit-margin-left="0"
     fit-margin-right="0"
     fit-margin-bottom="0" /><style
     type="text/css"
     id="style2">
	.cncf_st0{fill:#446CA9;}
	.cncf_st1{fill:#76C4D5;}
</style><g
     id="g962"
     transform="matrix(0.61766523,0,0,0.61766523,27.098456,9.13462)"><path
       d="m 101.2,32 c 3.3,0 5.9,-1.3 8,-3.9 l 4.2,4.4 c -3.4,3.8 -7.3,5.7 -11.9,5.7 -4.6,0 -8.3,-1.4 -11.3,-4.3 -3,-2.9 -4.4,-6.5 -4.4,-10.9 0,-4.4 1.5,-8.1 4.5,-11 3,-2.9 6.7,-4.4 11.1,-4.4 4.9,0 9,1.9 12.2,5.6 l -4.1,4.7 c -2.1,-2.6 -4.7,-3.9 -7.8,-3.9 -2.5,0 -4.6,0.8 -6.4,2.4 -1.8,1.6 -2.7,3.8 -2.7,6.6 0,2.8 0.8,5 2.5,6.7 1.7,1.4 3.7,2.3 6.1,2.3 z"
       id="path4"
       inkscape:connector-curvature="0" /><polygon
       points="118.7,8.1 125.3,8.1 125.3,31.9 138,31.9 138,37.8 118.7,37.8 "
       id="polygon6" /><path
       d="m 167,33.7 c -3,2.9 -6.7,4.4 -11.1,4.4 -4.4,0 -8.1,-1.5 -11.1,-4.4 -3,-2.9 -4.5,-6.6 -4.5,-10.9 0,-4.3 1.5,-8 4.5,-10.9 3,-2.9 6.7,-4.4 11.1,-4.4 4.4,0 8.1,1.5 11.1,4.4 3,2.9 4.5,6.6 4.5,10.9 0,4.3 -1.5,8 -4.5,10.9 z m -2.3,-10.9 c 0,-2.6 -0.9,-4.9 -2.5,-6.8 -1.7,-1.9 -3.8,-2.8 -6.3,-2.8 -2.5,0 -4.6,0.9 -6.3,2.8 -1.7,1.9 -2.6,4.1 -2.6,6.8 0,2.7 0.9,4.9 2.6,6.8 1.7,1.9 3.8,2.8 6.3,2.8 2.5,0 4.6,-0.9 6.3,-2.8 1.7,-1.9 2.5,-4.1 2.5,-6.8 z"
       id="path8"
       inkscape:connector-curvature="0" /><path
       d="m 185,30.2 c 1.1,1.4 2.6,2.1 4.5,2.1 1.9,0 3.4,-0.7 4.4,-2.1 1.1,-1.4 1.6,-3.3 1.6,-5.6 V 8.1 h 6.6 v 16.6 c 0,4.3 -1.2,7.6 -3.6,9.9 -2.4,2.3 -5.4,3.5 -9.1,3.5 -3.7,0 -6.8,-1.2 -9.2,-3.5 -2.4,-2.3 -3.6,-5.6 -3.6,-9.9 V 8.1 h 6.6 v 16.4 c 0.1,2.4 0.7,4.3 1.8,5.7 z"
       id="path10"
       inkscape:connector-curvature="0" /><path
       d="m 231.7,12 c 2.8,2.6 4.3,6.2 4.3,10.8 0,4.6 -1.4,8.3 -4.1,11 -2.8,2.7 -7,4 -12.6,4 H 209 V 8.1 h 10.5 c 5.3,0 9.4,1.3 12.2,3.9 z m -4.8,17.7 c 1.6,-1.5 2.4,-3.8 2.4,-6.7 0,-2.9 -0.8,-5.2 -2.4,-6.7 -1.6,-1.6 -4.1,-2.4 -7.5,-2.4 h -3.7 V 32 h 4.2 c 3,0 5.3,-0.8 7,-2.3 z"
       id="path12"
       inkscape:connector-curvature="0" /><polygon
       points="252.9,8.1 259.2,8.1 273.7,27.3 273.7,8.1 280.4,8.1 280.4,37.8 273.7,37.8 259.6,19.2 259.6,37.8 252.9,37.8 "
       id="polygon14" /><path
       d="M 308.8,37.8 306,31.4 h -12.5 l -2.8,6.4 h -7.1 L 296.4,8.1 h 6.4 l 12.8,29.7 z m -8.9,-20.8 -3.7,8.6 h 7.4 z"
       id="path16"
       inkscape:connector-curvature="0" /><polygon
       points="338.2,13.9 329.8,13.9 329.8,37.8 323.1,37.8 323.1,13.9 314.7,13.9 314.7,8.1 338.2,8.1 "
       id="polygon18" /><rect
       x="343"
       y="8.1000004"
       width="6.5999999"
       height="29.700001"
       id="rect20" /><polygon
       points="367.9,27 375.5,8.1 382.7,8.1 370.7,37.8 365.1,37.8 353.2,8.1 360.4,8.1 "
       id="polygon22" /><polygon
       points="392.8,32 408.1,32 408.1,37.8 386.2,37.8 386.2,8.1 407.6,8.1 407.6,14 392.8,14 392.8,20.2 406.1,20.2 406.1,25.8 392.8,25.8 "
       id="polygon24" /><path
       d="m 93.6,63.1 c 1.8,0 3.3,-0.7 4.5,-2.2 l 2.4,2.5 c -1.9,2.1 -4.1,3.2 -6.7,3.2 -2.6,0 -4.7,-0.8 -6.3,-2.4 -1.7,-1.6 -2.5,-3.7 -2.5,-6.1 0,-2.5 0.8,-4.5 2.5,-6.2 1.7,-1.7 3.8,-2.5 6.2,-2.5 2.7,0 5,1 6.9,3.1 l -2.3,2.6 c -1.2,-1.5 -2.6,-2.2 -4.4,-2.2 -1.4,0 -2.6,0.5 -3.6,1.4 -1,0.9 -1.5,2.1 -1.5,3.7 0,1.6 0.5,2.8 1.4,3.7 0.9,1 2.1,1.4 3.4,1.4 z"
       id="path26"
       inkscape:connector-curvature="0" /><path
       d="m 117,64.1 c -1.7,1.6 -3.8,2.5 -6.2,2.5 -2.4,0 -4.5,-0.8 -6.2,-2.5 -1.7,-1.6 -2.5,-3.7 -2.5,-6.1 0,-2.4 0.8,-4.5 2.5,-6.1 1.7,-1.6 3.8,-2.5 6.2,-2.5 2.4,0 4.5,0.8 6.2,2.5 1.7,1.6 2.5,3.7 2.5,6.1 0,2.4 -0.8,4.5 -2.5,6.1 z M 115.8,58 c 0,-1.5 -0.5,-2.8 -1.4,-3.8 -1,-1 -2.1,-1.6 -3.5,-1.6 -1.4,0 -2.6,0.5 -3.5,1.6 -1,1 -1.4,2.3 -1.4,3.8 0,1.5 0.5,2.7 1.4,3.8 1,1 2.1,1.6 3.5,1.6 1.4,0 2.6,-0.5 3.5,-1.6 0.9,-1 1.4,-2.3 1.4,-3.8 z"
       id="path28"
       inkscape:connector-curvature="0" /><polygon
       points="127.7,49.8 132,58.9 136.3,49.8 141.3,49.8 141.3,66.4 137.6,66.4 137.6,55.9 133.1,65.1 130.9,65.1 126.4,55.9 126.4,66.4 122.7,66.4 122.7,49.8 "
       id="polygon30" /><path
       d="m 156.9,51.3 c 1.2,1 1.8,2.5 1.8,4.6 0,2.1 -0.6,3.6 -1.8,4.5 -1.2,1 -3,1.4 -5.5,1.4 h -2.2 v 4.6 h -3.7 V 49.8 h 5.9 c 2.5,0 4.3,0.5 5.5,1.5 z m -2.7,6.5 c 0.4,-0.5 0.7,-1.2 0.7,-2.2 0,-1 -0.3,-1.6 -0.9,-2 -0.6,-0.4 -1.5,-0.6 -2.7,-0.6 h -2.1 v 5.6 h 2.5 c 1.2,0 2,-0.3 2.5,-0.8 z"
       id="path32"
       inkscape:connector-curvature="0" /><path
       d="m 166,62.1 c 0.6,0.8 1.5,1.2 2.5,1.2 1,0 1.9,-0.4 2.5,-1.2 0.6,-0.8 0.9,-1.8 0.9,-3.2 v -9.2 h 3.7 V 59 c 0,2.4 -0.7,4.3 -2,5.6 -1.3,1.3 -3,1.9 -5.1,1.9 -2.1,0 -3.8,-0.7 -5.1,-2 -1.3,-1.3 -2,-3.2 -2,-5.6 v -9.3 h 3.7 V 59 c 0,1.3 0.3,2.4 0.9,3.1 z"
       id="path34"
       inkscape:connector-curvature="0" /><polygon
       points="191.2,53 186.5,53 186.5,66.4 182.8,66.4 182.8,53 178.1,53 178.1,49.8 191.2,49.8 "
       id="polygon36" /><rect
       x="194"
       y="49.799999"
       width="3.7"
       height="16.700001"
       id="rect38" /><polygon
       points="201.8,49.8 205.2,49.8 213.4,60.5 213.4,49.8 217.1,49.8 217.1,66.4 213.4,66.4 205.5,56 205.5,66.4 201.8,66.4 "
       id="polygon40" /><path
       d="m 232.1,58 h 3.7 v 5.9 c -1.7,1.8 -3.9,2.8 -6.9,2.8 -2.4,0 -4.5,-0.8 -6.2,-2.4 -1.7,-1.6 -2.5,-3.7 -2.5,-6.1 0,-2.5 0.8,-4.5 2.5,-6.2 1.7,-1.7 3.7,-2.5 6.1,-2.5 2.4,0 4.5,0.8 6.2,2.4 l -1.9,2.8 c -0.7,-0.7 -1.4,-1.1 -2.1,-1.3 -0.6,-0.2 -1.3,-0.4 -2,-0.4 -1.4,0 -2.6,0.5 -3.6,1.4 -1,1 -1.5,2.2 -1.5,3.8 0,1.6 0.5,2.8 1.4,3.8 0.9,0.9 2,1.4 3.3,1.4 1.3,0 2.4,-0.2 3.2,-0.7 z"
       id="path42"
       inkscape:connector-curvature="0" /><polygon
       points="249.1,66.4 245.4,66.4 245.4,49.8 256.8,49.8 256.8,53 249.1,53 249.1,56.6 256.5,56.6 256.5,59.9 249.1,59.9 "
       id="polygon44" /><path
       d="m 274,64.1 c -1.7,1.6 -3.8,2.5 -6.2,2.5 -2.5,0 -4.5,-0.8 -6.2,-2.5 -1.7,-1.6 -2.5,-3.7 -2.5,-6.1 0,-2.4 0.8,-4.5 2.5,-6.1 1.7,-1.6 3.8,-2.5 6.2,-2.5 2.5,0 4.5,0.8 6.2,2.5 1.7,1.6 2.5,3.7 2.5,6.1 0,2.4 -0.8,4.5 -2.5,6.1 z M 272.7,58 c 0,-1.5 -0.5,-2.8 -1.4,-3.8 -1,-1 -2.1,-1.6 -3.5,-1.6 -1.4,0 -2.6,0.5 -3.5,1.6 -1,1 -1.4,2.3 -1.4,3.8 0,1.5 0.5,2.7 1.4,3.8 1,1 2.1,1.6 3.5,1.6 1.4,0 2.6,-0.5 3.5,-1.6 1,-1 1.4,-2.3 1.4,-3.8 z"
       id="path46"
       inkscape:connector-curvature="0" /><path
       d="m 284.1,62.1 c 0.6,0.8 1.5,1.2 2.5,1.2 1,0 1.9,-0.4 2.5,-1.2 0.6,-0.8 0.9,-1.8 0.9,-3.2 v -9.2 h 3.7 V 59 c 0,2.4 -0.7,4.3 -2,5.6 -1.3,1.3 -3,1.9 -5.1,1.9 -2.1,0 -3.8,-0.7 -5.1,-2 -1.3,-1.3 -2,-3.2 -2,-5.6 v -9.3 h 3.7 V 59 c -0.1,1.3 0.3,2.4 0.9,3.1 z"
       id="path48"
       inkscape:connector-curvature="0" /><polygon
       points="297.6,49.8 301,49.8 309.2,60.5 309.2,49.8 312.9,49.8 312.9,66.4 309.2,66.4 301.3,56 301.3,66.4 297.6,66.4 "
       id="polygon50" /><path
       d="m 329.7,52 c 1.6,1.5 2.4,3.5 2.4,6.1 0,2.6 -0.8,4.6 -2.3,6.1 -1.5,1.5 -3.9,2.3 -7.1,2.3 H 317 V 49.8 h 5.9 c 3,0 5.3,0.7 6.8,2.2 z m -2.7,9.9 c 0.9,-0.9 1.4,-2.1 1.4,-3.7 0,-1.6 -0.5,-2.9 -1.4,-3.8 -0.9,-0.9 -2.3,-1.3 -4.2,-1.3 h -2.1 v 10.1 h 2.4 c 1.7,-0.1 3,-0.5 3.9,-1.3 z"
       id="path52"
       inkscape:connector-curvature="0" /><path
       d="m 346.7,66.4 -1.5,-3.6 h -7 l -1.5,3.6 h -4 l 7.2,-16.7 h 3.6 l 7.2,16.7 z m -5,-11.7 -2.1,4.8 h 4.2 z"
       id="path54"
       inkscape:connector-curvature="0" /><polygon
       points="363.2,53 358.5,53 358.5,66.4 354.7,66.4 354.7,53 350,53 350,49.8 363.2,49.8 "
       id="polygon56" /><rect
       x="365.89999"
       y="49.799999"
       width="3.7"
       height="16.700001"
       id="rect58" /><path
       d="m 387.7,64.1 c -1.7,1.6 -3.8,2.5 -6.2,2.5 -2.5,0 -4.5,-0.8 -6.2,-2.5 -1.7,-1.6 -2.5,-3.7 -2.5,-6.1 0,-2.4 0.8,-4.5 2.5,-6.1 1.7,-1.6 3.8,-2.5 6.2,-2.5 2.5,0 4.5,0.8 6.2,2.5 1.7,1.6 2.5,3.7 2.5,6.1 0,2.4 -0.8,4.5 -2.5,6.1 z M 386.5,58 c 0,-1.5 -0.5,-2.8 -1.4,-3.8 -1,-1 -2.1,-1.6 -3.5,-1.6 -1.4,0 -2.6,0.5 -3.5,1.6 -1,1 -1.4,2.3 -1.4,3.8 0,1.5 0.5,2.7 1.4,3.8 1,1 2.1,1.6 3.5,1.6 1.4,0 2.6,-0.5 3.5,-1.6 0.9,-1 1.4,-2.3 1.4,-3.8 z"
       id="path60"
       inkscape:connector-curvature="0" /><polygon
       points="393.4,49.8 396.9,49.8 405,60.5 405,49.8 408.8,49.8 408.8,66.4 405,66.4 397.1,56 397.1,66.4 393.4,66.4 "
       id="polygon62" /></g><g
     id="g972"
     transform="translate(-5.4,-4)"><polygon
       class="cncf_st0"
       points="26.7,58.9 14.5,58.9 14.5,46.7 5.4,46.7 5.4,68.1 26.7,68.1 "
       id="polygon64"
       style="fill:#446ca9" /><polygon
       class="cncf_st0"
       points="48.1,68.1 69.4,68.1 69.4,46.7 60.2,46.7 60.3,46.8 60.3,58.9 48.1,58.9 48.1,58.8 "
       id="polygon66"
       style="fill:#446ca9" /><polygon
       class="cncf_st0"
       points="14.5,13.2 26.7,13.2 26.7,13.2 26.7,4 5.4,4 5.4,25.4 14.6,25.4 14.5,25.3 14.5,13.2 "
       id="polygon68"
       style="fill:#446ca9" /><polygon
       class="cncf_st0"
       points="69.4,25.4 69.4,4 48.1,4 48.1,13.2 60.3,13.2 60.3,25.4 "
       id="polygon70"
       style="fill:#446ca9" /><polygon
       class="cncf_st1"
       points="26.7,4 26.7,13.2 38.9,25.4 46.9,25.4 34.7,13.2 48.1,13.2 48.1,4 "
       id="polygon72"
       style="fill:#76c4d5" /><polygon
       class="cncf_st1"
       points="35.9,58.9 26.7,58.9 26.7,68.1 48.1,68.1 48.1,58.8 42,52.8 35.9,46.7 27.9,46.7 38,56.8 40,58.9 "
       id="polygon74"
       style="fill:#76c4d5" /><polygon
       class="cncf_st1"
       points="48.1,26.5 48.1,34.6 54.1,40.6 60.2,46.7 69.4,46.7 69.4,25.4 60.3,25.4 60.3,34.5 60.3,38.7 58.2,36.6 "
       id="polygon76"
       style="fill:#76c4d5" /><polygon
       class="cncf_st1"
       points="14.5,46.7 14.5,33.4 26.7,45.6 26.7,37.5 14.6,25.4 5.4,25.4 5.4,46.7 "
       id="polygon78"
       style="fill:#76c4d5" /></g></svg>