<svg fill="currentColor" stroke="currentColor" version="1.1" x="0px" y="0px" viewBox="0 0 100 100">
  <g transform="translate(0,-952.36218)">
    <path style="stroke-width:2;text-indent:0;text-transform:none;direction:ltr;block-progression:tb;baseline-shift:baseline;enable-background:accumulate;" d="m 49.9995,958.36216 c -9.6211,0 -19.2217,0.87091 -26.5938,2.65625 -3.6859,0.89267 -6.807,1.98636 -9.1874,3.46875 -2.217,1.38057 -3.928,3.32679 -4.1563,5.71875 -0.029,0.26937 -0.042,0.3604 -0.062,0.53125 l 0,20.9375 c 0,0.0521 0,0.10419 0,0.15625 l 0,20.96879 c 0,0.042 0,0.083 0,0.125 l 0,21.0937 c 0,2.6431 1.8383,4.7364 4.2188,6.2188 2.3804,1.4824 5.5014,2.6073 9.1874,3.5 7.3721,1.7853 16.9727,2.625 26.5938,2.625 9.6211,0 19.2217,-0.8397 26.5938,-2.625 3.686,-0.8927 6.8382,-2.0176 9.2187,-3.5 2.3804,-1.4824 4.1875,-3.5757 4.1875,-6.2188 l 0,-21.0937 0,-0.1875 0,-20.90629 0,-0.21875 0,-20.875 c 0,-0.14735 -0.021,-0.27577 -0.031,-0.40625 -0.1785,-2.45042 -1.9008,-4.43913 -4.1563,-5.84375 -2.3805,-1.48239 -5.5327,-2.57608 -9.2187,-3.46875 -7.3721,-1.78534 -16.9727,-2.65625 -26.5938,-2.65625 z m 0,4 c 9.3789,0 18.7783,0.86557 25.6562,2.53125 3.4391,0.83284 6.2555,1.89412 8.0313,3 1.6659,1.03744 2.2465,1.91651 2.3125,2.6875 0,0.0509 0,0.10626 0,0.15625 0,0.80791 -0.5367,1.70662 -2.3125,2.8125 -1.7758,1.10588 -4.5922,2.16716 -8.0313,3 -6.8779,1.66568 -16.2773,2.53125 -25.6562,2.53125 -9.3789,0 -18.7783,-0.86557 -25.6562,-2.53125 -3.439,-0.83284 -6.2555,-1.89412 -8.0313,-3 -1.7758,-1.10588 -2.3125,-2.00459 -2.3125,-2.8125 0,-0.80791 0.5367,-1.73787 2.3125,-2.84375 1.7758,-1.10588 4.5923,-2.16716 8.0313,-3 6.8779,-1.66568 16.2773,-2.53125 25.6562,-2.53125 z m -36,14.4375 c 0.075,0.0483 0.1431,0.10916 0.2188,0.15625 2.3804,1.48239 5.5014,2.57608 9.1874,3.46875 7.3721,1.78534 16.9727,2.65625 26.5938,2.65625 9.6211,0 19.2217,-0.87091 26.5938,-2.65625 3.686,-0.89267 6.8382,-1.98636 9.2187,-3.46875 0.065,-0.0405 0.1234,-0.0836 0.1875,-0.125 l 0,14.84375 0,0.15625 c 0,0.80791 -0.5367,1.70662 -2.3125,2.81249 -1.7758,1.1059 -4.5922,2.1672 -8.0313,3 -6.8779,1.6657 -16.2773,2.5313 -25.6562,2.5313 -9.3789,0 -18.7783,-0.8656 -25.6562,-2.5313 -3.439,-0.8328 -6.2555,-1.8941 -8.0313,-3 -1.7758,-1.10587 -2.3125,-2.00458 -2.3125,-2.81249 0,-0.0728 0,-0.14591 0,-0.21875 z m 0,21.09374 c 0.075,0.048 0.1431,0.1092 0.2188,0.1563 2.3804,1.4823 5.5014,2.6073 9.1874,3.5 7.3721,1.7853 16.9727,2.625 26.5938,2.625 9.6211,0 19.2217,-0.8397 26.5938,-2.625 3.686,-0.8927 6.8382,-2.0177 9.2187,-3.5 0.065,-0.04 0.1234,-0.084 0.1875,-0.125 l 0,14.875 0,0.125 c 0,0.8079 -0.5367,1.7379 -2.3125,2.8437 -1.7758,1.1059 -4.5922,2.1359 -8.0313,2.9688 -6.8779,1.6657 -16.2773,2.5312 -25.6562,2.5312 -9.3789,0 -18.7783,-0.8655 -25.6562,-2.5312 -3.439,-0.8329 -6.2555,-1.8629 -8.0313,-2.9688 -1.7758,-1.1058 -2.3125,-2.0358 -2.3125,-2.8437 0,-0.062 0,-0.1251 0,-0.1875 z m 0,21.0938 c 0.076,0.049 0.1419,0.1084 0.2188,0.1562 2.3804,1.4824 5.5014,2.6074 9.1874,3.5 7.3721,1.7854 16.9727,2.625 26.5938,2.625 9.6211,0 19.2217,-0.8396 26.5938,-2.625 3.686,-0.8926 6.8382,-2.0176 9.2187,-3.5 0.066,-0.041 0.1223,-0.083 0.1875,-0.125 l 0,15 c 0,0.8079 -0.5367,1.7379 -2.3125,2.8438 -1.7758,1.1059 -4.5922,2.1359 -8.0313,2.9687 -6.8779,1.6657 -16.2773,2.5313 -25.6562,2.5313 -9.3789,0 -18.7783,-0.8656 -25.6562,-2.5313 -3.439,-0.8328 -6.2555,-1.8628 -8.0313,-2.9687 -1.7758,-1.1059 -2.3125,-2.0359 -2.3125,-2.8438 z" fill-opacity="1" fill-rule="evenodd" marker="none" visibility="visible" display="inline" overflow="visible" />
  </g>
</svg>