<?xml version="1.0" encoding="UTF-8"?>
<svg width="402px" height="196px" viewBox="0 0 402 196" version="1.1" xmlns="http://www.w3.org/2000/svg" xmlns:xlink="http://www.w3.org/1999/xlink">
    <!-- Generator: Sketch 51 (57462) - http://www.bohemiancoding.com/sketch -->
    <title>gcp-partner-0-1</title>
    <desc>Created with Sketch.</desc>
    <defs></defs>
    <g id="gcp-partner-0-1" stroke="none" stroke-width="1" fill="none" fill-rule="evenodd">
        <g id="Frame" fill-rule="nonzero">
            <g id="badges-background">
                <rect id="bg" fill="#FFFFFF" x="1" y="1" width="400" height="194" rx="8"></rect>
                <path d="M0,7.66837344 C0,3.43324774 4.02760129,0 9.00771482,0 L392.992285,0 C397.967109,0 402,3.4330306 402,7.66837344 L402,188.331627 C402,192.566752 397.972399,196 392.992285,196 L9.00771482,196 C4.03289129,196 0,192.56697 0,188.331627 L0,7.66837344 Z M1,7.66752711 L1,188.332473 C1,192.095905 4.57731274,195.147826 8.99015164,195.147826 L393.009848,195.147826 C397.419794,195.147826 401,192.096489 401,188.332473 L401,7.66752711 C401,3.90409463 397.422687,0.852173913 393.009848,0.852173913 L8.99015164,0.852173913 C4.58020589,0.852173913 1,3.90351147 1,7.66752711 Z" id="strokes-grey" fill="#9AA0A6"></path>
            </g>
            <g id="logo-google_cloud" transform="translate(49.000000, 93.000000)">
                <path d="M177.56408,22.83644 C177.56408,11.93044 185.80728,3.68684 196.61088,3.68684 C202.14088,3.68684 206.80048,5.88844 210.07728,9.67764 L206.80048,12.85204 C204.24008,9.67764 200.80968,8.19284 196.61088,8.19284 C188.87968,8.19284 182.37688,13.82484 182.37688,22.83644 C182.37688,31.84804 188.87968,37.48044 196.61088,37.48044 C201.21968,37.48044 205.11088,35.32964 207.87568,32.15524 L211.15248,35.43244 C207.92688,39.27244 202.75568,41.98644 196.61088,41.98644 C185.80728,41.98644 177.56408,33.74244 177.56408,22.83644 Z" id="Fill-1" fill="#5F6368"></path>
                <polygon id="Fill-3" fill="#5F6368" points="214.8372 41.1668 219.5476 41.1668 219.5476 4.506 214.8372 4.506"></polygon>
                <path d="M244.1754,28.62236 C244.1754,22.88756 240.1818,19.55956 235.983,19.55956 C231.7842,19.55956 227.7906,22.88756 227.7906,28.62236 C227.7906,34.35676 231.7842,37.68516 235.983,37.68516 C240.1818,37.68516 244.1754,34.35676 244.1754,28.62236 M248.8858,28.62236 C248.8858,36.25156 243.5098,41.98636 235.983,41.98636 C228.4562,41.98636 223.0798,36.25156 223.0798,28.62236 C223.0798,20.99316 228.4562,15.25836 235.983,15.25836 C243.5098,15.25836 248.8858,20.99316 248.8858,28.62236" id="Fill-5" fill="#5F6368"></path>
                <path d="M270.18476,41.16692 L270.18476,37.68532 L269.97996,37.68532 C268.59756,39.98932 265.47436,41.98612 262.04356,41.98612 C255.59236,41.98612 252.46876,37.63372 252.46876,31.43852 L252.46876,16.07772 L257.17916,16.07772 L257.17916,30.67052 C257.17916,35.89292 259.79076,37.68532 263.37516,37.68532 C267.47116,37.68532 269.97996,33.74252 269.97996,29.90252 L269.97996,16.07772 L274.69076,16.07772 L274.69076,41.16692 L270.18476,41.16692 Z" id="Fill-6" fill="#5F6368"></path>
                <path d="M299.16368,28.62236 C299.16368,22.88756 295.37448,19.55956 291.17568,19.55956 C286.97728,19.55956 283.18848,22.98996 283.18848,28.62236 C283.18848,34.25476 286.97728,37.68516 291.17568,37.68516 C295.37448,37.68516 299.16368,34.35676 299.16368,28.62236 M278.47768,28.62236 C278.47768,20.94196 284.05848,15.25836 290.40768,15.25836 C294.40168,15.25836 297.52488,17.25556 298.95848,19.55956 L299.16368,19.55956 L298.95848,16.07796 L298.95848,4.50596 L303.66968,4.50596 L303.66968,41.16676 L299.16368,41.16676 L299.16368,37.68516 L298.95848,37.68516 C297.52488,39.98916 294.40168,41.98636 290.40768,41.98636 C284.05848,41.98636 278.47768,36.30276 278.47768,28.62236" id="Fill-7" fill="#5F6368"></path>
                <path d="M0,20.99308 C0,9.42148 9.7284,0.00028 21.3004,0.00028 C27.7008,0.00028 32.258,2.50908 35.6884,5.78588 L31.6432,9.83108 C29.1856,7.52668 25.8576,5.73468 21.3004,5.73468 C12.852,5.73468 6.2468,12.54468 6.2468,20.99308 C6.2468,29.44148 12.852,36.25148 21.3004,36.25148 C26.7788,36.25148 29.9024,34.04988 31.8992,32.05268 C33.538,30.41428 34.6128,28.05908 35.0228,24.83348 L21.3004,24.83348 L21.3004,19.09868 L40.6036,19.09868 C40.8084,20.12268 40.9108,21.35148 40.9108,22.68308 C40.9108,26.98388 39.7332,32.30908 35.944,36.09788 C32.258,39.93788 27.5468,41.98588 21.3004,41.98588 C9.7284,41.98588 0,32.56508 0,20.99308" id="Fill-8" fill="#4285F4"></path>
                <path d="M56.51092,36.66104 C52.41492,36.66104 48.88212,33.28184 48.88212,28.46864 C48.88212,23.60424 52.41492,20.27624 56.51092,20.27624 C60.60692,20.27624 64.13972,23.60424 64.13972,28.46864 C64.13972,33.28184 60.60692,36.66104 56.51092,36.66104 M56.51092,14.95144 C49.03532,14.95144 42.94212,20.63464 42.94212,28.46864 C42.94212,36.25144 49.03532,41.98624 56.51092,41.98624 C63.98652,41.98624 70.07972,36.25144 70.07972,28.46864 C70.07972,20.63464 63.98652,14.95144 56.51092,14.95144" id="Fill-9" fill="#EA4335"></path>
                <path d="M86.11092,36.66104 C82.01492,36.66104 78.48172,33.28184 78.48172,28.46864 C78.48172,23.60424 82.01492,20.27624 86.11092,20.27624 C90.20692,20.27624 93.73972,23.60424 93.73972,28.46864 C93.73972,33.28184 90.20692,36.66104 86.11092,36.66104 M86.11092,14.95144 C78.63532,14.95144 72.54212,20.63464 72.54212,28.46864 C72.54212,36.25144 78.63532,41.98624 86.11092,41.98624 C93.58612,41.98624 99.67972,36.25144 99.67972,28.46864 C99.67972,20.63464 93.58612,14.95144 86.11092,14.95144" id="Fill-10" fill="#FBBC04"></path>
                <path d="M115.6332,36.66104 C111.5372,36.66104 108.1064,33.23064 108.1064,28.51984 C108.1064,23.75824 111.5372,20.27624 115.6332,20.27624 C119.678,20.27624 122.8528,23.75824 122.8528,28.51984 C122.8528,33.23064 119.678,36.66104 115.6332,36.66104 Z M122.4428,15.77024 L122.4428,17.97224 L122.2384,17.97224 C120.9072,16.38504 118.3468,14.95144 115.1212,14.95144 C108.3624,14.95144 102.1668,20.89064 102.1668,28.51984 C102.1668,36.09784 108.3624,41.98624 115.1212,41.98624 C118.3468,41.98624 120.9072,40.55264 122.2384,38.91384 L122.4428,38.91384 L122.4428,40.85984 C122.4428,46.03104 119.678,48.79584 115.2236,48.79584 C111.5884,48.79584 109.3352,46.18464 108.4136,43.98304 L103.242,46.13344 C104.7268,49.71784 108.6696,54.12104 115.2236,54.12104 C122.1872,54.12104 128.0752,50.02504 128.0752,40.04064 L128.0752,15.77024 L122.4428,15.77024 Z" id="Fill-11" fill="#4285F4"></path>
                <polygon id="Fill-12" fill="#34A853" points="132.1712 41.1668 138.1108 41.1668 138.1108 1.4336 132.1712 1.4336"></polygon>
                <path d="M153.93244,20.17392 C156.28804,20.17392 158.28484,21.35152 158.95044,23.04112 L146.86684,28.05912 C146.71284,22.83632 150.91164,20.17392 153.93244,20.17392 M154.39324,36.66112 C151.37244,36.66112 149.22204,35.27872 147.83964,32.56512 L165.91404,25.08952 L165.29964,23.55312 C164.17324,20.53232 160.74244,14.95112 153.72764,14.95112 C146.76404,14.95112 140.97844,20.42992 140.97844,28.46872 C140.97844,36.04672 146.71284,41.98592 154.39324,41.98592 C160.58884,41.98592 164.17324,38.19712 165.65764,35.99552 L161.04964,32.92352 C159.51364,35.17632 157.41444,36.66112 154.39324,36.66112" id="Fill-13" fill="#EA4335"></path>
            </g>
            <g id="top-partner" transform="translate(1.000000, 1.000000)">
                <path d="M400,34.0011805 L400,60 L0,60 L0,34.0011805 L0,8.0023611 C0,3.5827791 3.58020589,0 7.99015164,0 L392.009848,0 C396.422687,0 400,3.57892156 400,8.0023611 L400,34.0011805 Z" id="top" fill="#4285F4"></path>
                <path d="M157.022883,39.0356289 L157.022883,20.9400005 L163.391735,20.9400005 C164.251029,20.9400005 165.055552,21.0790019 165.805328,21.3570087 C166.555104,21.6350156 167.207989,22.0267466 167.764003,22.5322136 C168.320017,23.0376807 168.758082,23.6400198 169.07821,24.3392492 C169.398339,25.0384785 169.558402,25.8093042 169.558402,26.6517492 C169.558402,27.5110431 169.398339,28.2902931 169.07821,28.9895224 C168.758082,29.6887517 168.320017,30.2910909 167.764003,30.7965579 C167.207989,31.3020249 166.555104,31.6937559 165.805328,31.9717628 C165.055552,32.2497697 164.251029,32.388771 163.391735,32.388771 L160.434768,32.388771 L160.434768,39.0356289 L157.022883,39.0356289 Z M163.442281,29.1537983 C164.335273,29.1537983 165.009219,28.9010686 165.464139,28.3956016 C165.919059,27.8901346 166.146516,27.3088563 166.146516,26.6517492 C166.146516,26.3316201 166.091758,26.0199201 165.98224,25.7166399 C165.872722,25.4133597 165.704236,25.1479934 165.476776,24.9205333 C165.249316,24.6930732 164.967101,24.5119502 164.630123,24.377159 C164.293145,24.2423678 163.897201,24.1749732 163.442281,24.1749732 L160.434768,24.1749732 L160.434768,29.1537983 L163.442281,29.1537983 Z M179.212773,37.7214213 L179.010587,37.7214213 C178.623063,38.1931905 178.155512,38.597558 177.607923,38.9345361 C177.060335,39.2715141 176.356903,39.4400005 175.497609,39.4400005 C174.857352,39.4400005 174.255012,39.3346965 173.690574,39.1240852 C173.126136,38.913474 172.633313,38.6228348 172.21209,38.252159 C171.790867,37.8814832 171.46232,37.4349941 171.226434,36.9126781 C170.99055,36.3903623 170.872609,35.8175083 170.872609,35.1940989 C170.872609,34.5538407 170.998974,33.9767745 171.251708,33.462883 C171.504441,32.9489916 171.858263,32.5067146 172.313183,32.1360388 C172.768103,31.765363 173.303048,31.4831481 173.918033,31.2893858 C174.533017,31.0956235 175.202752,30.9987437 175.927254,30.9987437 C176.736001,30.9987437 177.401523,31.0619262 177.923839,31.1882929 C178.446154,31.3146596 178.875795,31.4452367 179.212773,31.5800279 L179.212773,31.2009295 C179.212773,30.5438224 178.951619,30.0004535 178.429303,29.5708065 C177.906988,29.1411596 177.258315,28.9263393 176.483265,28.9263393 C175.33754,28.9263393 174.368742,29.4065258 173.576844,30.3669131 L171.175888,28.7241535 C172.490103,27.0729613 174.284483,26.2473776 176.559085,26.2473776 C178.47986,26.2473776 179.945692,26.6980789 180.956626,27.5994951 C181.96756,28.5009112 182.473019,29.8361666 182.473019,31.6053011 L182.473019,39.0356289 L179.212773,39.0356289 L179.212773,37.7214213 Z M179.212773,34.0062574 C178.825249,33.8209195 178.425093,33.6734938 178.012295,33.5639759 C177.599497,33.4544581 177.148796,33.3997 176.660178,33.3997 C175.86828,33.3997 175.257516,33.5723986 174.827869,33.9178011 C174.398222,34.2632036 174.183402,34.6886319 174.183402,35.1940989 C174.183402,35.6995659 174.389798,36.1039334 174.802596,36.4072136 C175.215393,36.7104939 175.691368,36.8621317 176.230533,36.8621317 C176.668604,36.8621317 177.072971,36.7821006 177.443648,36.6220361 C177.814323,36.4619715 178.130235,36.2513634 178.391393,35.9902055 C178.652552,35.7290475 178.854736,35.4257719 178.997951,35.0803694 C179.141166,34.7349669 179.212773,34.3769332 179.212773,34.0062574 Z M188.210041,28.3703284 L188.412227,28.3703284 C188.749205,27.746919 189.242028,27.2456719 189.89071,26.8665716 C190.539393,26.4874713 191.259673,26.297924 192.051571,26.297924 C192.338003,26.297924 192.56546,26.3063483 192.733948,26.3231973 C192.902438,26.3400461 193.062499,26.3737434 193.214139,26.4242902 L193.214139,29.7098093 C193.028802,29.6255647 192.822405,29.5581701 192.594945,29.5076235 C192.367485,29.4570767 192.093694,29.4318038 191.773566,29.4318038 C190.728934,29.4318038 189.907563,29.747716 189.309426,30.3795497 C188.71129,31.0113834 188.412227,31.8748766 188.412227,32.9700552 L188.412227,39.0356289 L185.101434,39.0356289 L185.101434,26.6517492 L188.210041,26.6517492 L188.210041,28.3703284 Z M196.878757,29.4823503 L194.70526,29.4823503 L194.70526,26.6517492 L196.878757,26.6517492 L196.878757,22.8607656 L200.189549,22.8607656 L200.189549,26.6517492 L203.222336,26.6517492 L203.222336,29.4823503 L200.189549,29.4823503 L200.189549,34.2842628 C200.189549,34.5706941 200.219034,34.8360603 200.278005,35.0803694 C200.336977,35.3246785 200.450705,35.5310744 200.619194,35.6995634 C200.855079,35.9691458 201.192052,36.103935 201.630123,36.103935 C201.916555,36.103935 202.144012,36.0744498 202.3125,36.0154787 C202.48099,35.9565076 202.641051,35.8764764 202.792691,35.775383 L203.727801,38.6818038 C203.340276,38.8671417 202.923272,39.0061431 202.476776,39.098812 C202.03028,39.1914809 201.537457,39.2378147 200.998292,39.2378147 C200.374883,39.2378147 199.814665,39.140935 199.317623,38.9471727 C198.820581,38.7534103 198.403576,38.4880441 198.066598,38.1510661 C197.2747,37.3928656 196.878757,36.3145521 196.878757,34.9160934 L196.878757,29.4823503 Z M208.757172,28.2692355 L208.959358,28.2692355 C209.346882,27.6458262 209.869191,27.1530032 210.526298,26.7907519 C211.183405,26.4285006 211.933169,26.2473776 212.775615,26.2473776 C213.550664,26.2473776 214.233035,26.3737425 214.822746,26.6264759 C215.412457,26.8792095 215.896856,27.2372432 216.275956,27.700588 C216.655057,28.1639327 216.941483,28.7199381 217.135246,29.3686208 C217.329009,30.0173034 217.425888,30.7375831 217.425888,31.5294814 L217.425888,39.0356289 L214.115096,39.0356289 L214.115096,31.933853 C214.115096,31.0408613 213.917124,30.3795518 213.521175,29.9499049 C213.125225,29.520258 212.54816,29.3054377 211.789959,29.3054377 C211.335039,29.3054377 210.934883,29.4023174 210.589481,29.5960798 C210.244079,29.7898421 209.949227,30.0509962 209.704918,30.3795497 C209.460609,30.7081032 209.275274,31.0956221 209.148907,31.542118 C209.02254,31.9886139 208.959358,32.4645882 208.959358,32.9700552 L208.959358,39.0356289 L205.648566,39.0356289 L205.648566,26.6517492 L208.757172,26.6517492 L208.757172,28.2692355 Z M231.882172,36.0533885 C231.309309,37.0643225 230.538484,37.881482 229.569672,38.5048912 C228.60086,39.1283006 227.417243,39.4400005 226.018784,39.4400005 C225.075246,39.4400005 224.203329,39.2757262 223.403005,38.9471727 C222.602682,38.6186191 221.907676,38.1594935 221.317964,37.569782 C220.728253,36.9800705 220.269128,36.2850637 219.940574,35.484741 C219.61202,34.6844182 219.447746,33.8040764 219.447746,32.8436891 C219.447746,31.9506974 219.607808,31.1040528 219.927937,30.30373 C220.248066,29.5034073 220.694555,28.8041884 221.267418,28.2060524 C221.84028,27.6079165 222.518439,27.1319422 223.301913,26.7781153 C224.085387,26.4242884 224.94888,26.2473776 225.892418,26.2473776 C226.886503,26.2473776 227.771057,26.4116519 228.546107,26.7402055 C229.321155,27.068759 229.969829,27.5236725 230.492145,28.1049596 C231.01446,28.6862466 231.410404,29.372829 231.679986,30.1647273 C231.949569,30.9566257 232.084358,31.8159067 232.084358,32.7425962 L232.084358,33.0458749 C232.067509,33.1469683 232.059085,33.2396359 232.059085,33.3238803 C232.042236,33.4081249 232.033811,33.5007924 232.033811,33.6018858 L222.707992,33.6018858 C222.775387,34.1073528 222.914389,34.5412055 223.125,34.9034568 C223.335611,35.2657081 223.596765,35.5689838 223.90847,35.8132929 C224.220175,36.057602 224.561359,36.2345127 224.932036,36.3440306 C225.302711,36.4535485 225.681806,36.5083065 226.069331,36.5083065 C226.827531,36.5083065 227.455143,36.3356079 227.952186,35.9902055 C228.449228,35.644803 228.840959,35.2109504 229.127391,34.6886344 L231.882172,36.0533885 Z M228.874658,31.2514759 C228.857809,31.0324402 228.786203,30.7881349 228.659836,30.5185524 C228.533469,30.24897 228.348134,29.9962403 228.103825,29.7603557 C227.859516,29.5244711 227.55624,29.3307116 227.193989,29.1790716 C226.831738,29.0274314 226.397886,28.9516126 225.892418,28.9516126 C225.184765,28.9516126 224.561364,29.1537963 224.022199,29.5581699 C223.483035,29.9625435 223.10394,30.5269732 222.884904,31.2514759 L228.874658,31.2514759 Z M234.207309,26.6517492 L237.315915,26.6517492 L237.315915,28.3703284 L237.518101,28.3703284 C237.669741,28.0670482 237.871925,27.7890455 238.124658,27.536312 C238.377392,27.2835785 238.659607,27.064546 238.971311,26.8792082 C239.283016,26.6938702 239.619989,26.5506568 239.98224,26.4495634 C240.344492,26.34847 240.702525,26.297924 241.056352,26.297924 C241.494423,26.297924 241.869306,26.3400456 242.181011,26.4242902 C242.492716,26.5085346 242.758082,26.6180509 242.977117,26.7528421 L242.092555,29.7603557 C241.890368,29.6592623 241.667123,29.5792312 241.422814,29.5202601 C241.178505,29.461289 240.879442,29.4318038 240.525615,29.4318038 C240.070695,29.4318038 239.657902,29.5202592 239.287227,29.6971727 C238.91655,29.8740861 238.600639,30.1226036 238.339481,30.4427328 C238.078323,30.7628618 237.876139,31.1377443 237.732923,31.5673912 C237.589708,31.9970382 237.518101,32.4645882 237.518101,32.9700552 L237.518101,39.0356289 L234.207309,39.0356289 L234.207309,26.6517492 Z" id="Partner" fill="#FFFFFF"></path>
            </g>
        </g>
    </g>
</svg>