<?xml version="1.0" encoding="UTF-8" standalone="no"?>
<svg viewBox="0 0 312.67499 89.032799" enable-background="new 0 0 336 235.2" width="312.67499" height="89.032799">
  <defs
     id="defs32">
    <clipPath
       id="a">
      <path
         d="m 30.928,118.27 5.712,6.383 19.922,-23.758 z M 36.64,86.687 v 8.618 L 67.289,91.019 Z M 61.995,67.122 56.237,73.504 81.87,90.879 Z m 31.856,2.422 -8.545,0.885 7.477,30.14 z m 22.104,23.199 -6.966,-5.031 -14.535,27.39 z m 0.928,32.096 -1.81,-8.432 -29.07,10.621 z m -20.71,24.456 4.272,-7.5 -28.698,-11.6 z m -31.717,4.24 8.173,-2.656 -13.56,-27.904 z m -26.423,-18.075 7.848,3.494 8.544,-29.86 z m -7.523,-31.211 3.483,7.873 26.284,-16.444 z m 15.185,-28.23 -2.647,8.2 30.463,5.403 z m 30.138,-10.76 -7.476,4.285 19.085,24.503 z m 29.58,12.204 -8.405,-1.816 -2.182,30.978 z m 13.839,28.929 -5.062,-6.988 -22.29,21.568 z m -9.01,30.745 0.883,-8.572 -30.927,1.072 z M 83.032,154 89.394,148.224 65.711,128.239 Z m -31.485,-5.776 h 8.591 L 55.82,117.479 Z M 18,16.903 v 27.925 h 10.069 c 8.18,0 13.53,-5.585 13.53,-13.845 0,-8.26 -5.31,-14.08 -13.609,-14.08 z m 33.156,-0.472 c -4.011,0 -6.686,2.32 -6.686,5.82 0,1.889 0.826,3.462 2.4,4.445 1.415,0.826 3.303,1.337 6.41,1.77 l 4.17,0.511 v 0.512 c 0,2.95 -1.141,4.208 -3.658,4.208 -2.321,0 -3.698,-1.22 -3.855,-3.461 H 45.1 c 0.315,4.208 3.619,6.804 8.693,6.804 5.82,0 8.416,-2.478 8.416,-8.18 v -5.861 c 0,-2.675 0.197,-4.72 0.59,-6.096 h -4.72 a 27.566,27.566 0 0 0 -0.314,3.382 c -0.944,-2.4 -3.422,-3.854 -6.608,-3.854 z m 14.16,16.716 v 3.421 h 3.54 v 4.956 l 4.72,1.888 v -6.844 h 4.798 v -3.421 h -4.799 v -9.4 c 0,-2.125 0.905,-3.108 2.871,-3.108 0.787,0 1.298,0.079 1.928,0.236 v -3.972 c -1.141,-0.236 -2.006,-0.354 -3.226,-0.354 -4.72,0 -6.293,2.478 -6.293,6.45 v 10.148 z m 17.148,6.686 v 4.916 h 5.113 V 39.833 Z M 82.7,16.903 v 19.665 h 4.72 V 16.903 Z m 18.958,-0.472 c -5.86,0 -9.636,4.05 -9.636,10.305 0,6.41 3.697,10.304 9.675,10.304 4.877,0 8.063,-2.596 8.653,-7.08 l -4.602,-0.747 c -0.314,2.675 -1.848,4.13 -4.169,4.13 -2.91,0 -4.72,-2.438 -4.72,-6.49 0,-4.247 1.77,-6.686 4.799,-6.686 2.36,0 3.815,1.455 4.248,4.209 l 4.444,-0.905 c -0.708,-4.366 -4.012,-7.04 -8.692,-7.04 z m 18.21,0 c -4.012,0 -6.686,2.32 -6.686,5.82 0,1.889 0.826,3.462 2.4,4.445 1.415,0.826 3.303,1.337 6.41,1.77 l 4.17,0.511 v 0.512 c 0,2.95 -1.141,4.208 -3.659,4.208 -2.32,0 -3.697,-1.22 -3.854,-3.461 h -4.838 c 0.315,4.208 3.619,6.804 8.692,6.804 5.821,0 8.417,-2.478 8.417,-8.18 v -5.861 c 0,-2.675 0.197,-4.72 0.59,-6.096 h -4.72 a 27.544,27.544 0 0 0 -0.314,3.382 c -0.944,-2.4 -3.422,-3.854 -6.608,-3.854 z m 1.534,3.343 c 2.91,0 4.877,2.045 4.877,5.192 v 1.258 l -4.444,-0.668 c -2.596,-0.433 -3.776,-1.377 -3.776,-3.068 0,-1.652 1.259,-2.714 3.343,-2.714 z m -68.712,0 c 2.91,0 4.877,2.045 4.877,5.192 v 1.258 l -4.444,-0.668 c -2.596,-0.433 -3.776,-1.377 -3.776,-3.068 0,-1.652 1.259,-2.714 3.343,-2.714 z m -29.616,1.101 h 4.759 c 5.428,0 8.456,4.563 8.456,10.108 0,5.664 -2.91,9.872 -8.377,9.872 h -4.838 z"
         id="path2"
         inkscape:connector-curvature="0"
         style="clip-rule:evenodd" />
    </clipPath>
    <clipPath
       id="b">
      <path
         d="M 0,0 H 149 V 171 H 0 Z"
         id="path5"
         inkscape:connector-curvature="0" />
    </clipPath>
    <clipPath
       id="c">
      <path
         d="M 0,747 H 714 V 0 H 0 Z"
         id="path8"
         inkscape:connector-curvature="0" />
    </clipPath>
    <clipPath
       id="d">
      <path
         d="M 0,747 H 714 V 0 H 0 Z"
         id="path11"
         inkscape:connector-curvature="0" />
    </clipPath>
    <clipPath
       id="e">
      <path
         d="M 0,747 H 714 V 0 H 0 Z"
         id="path14"
         inkscape:connector-curvature="0" />
    </clipPath>
    <clipPath
       id="f">
      <path
         d="M 0,747 H 714 V 0 H 0 Z"
         id="path17"
         inkscape:connector-curvature="0" />
    </clipPath>
    <clipPath
       id="g">
      <path
         d="M 0,747 H 714 V 0 H 0 Z"
         id="path20"
         inkscape:connector-curvature="0" />
    </clipPath>
    <clipPath
       id="h">
      <path
         d="M 0,747 H 714 V 0 H 0 Z"
         id="path23"
         inkscape:connector-curvature="0" />
    </clipPath>
    <clipPath
       id="i">
      <path
         d="M 0,747 H 714 V 0 H 0 Z"
         id="path26"
         inkscape:connector-curvature="0" />
    </clipPath>
    <clipPath
       id="j">
      <path
         d="M 0,747 H 714 V 0 H 0 Z"
         id="path29"
         inkscape:connector-curvature="0" />
    </clipPath>
  </defs>
  <path
     pointer-events="none"
     d="M -7.5707697,-78.007813 H 392.42923 V 166.99219 H -7.5707697 Z"
     id="path34"
     inkscape:connector-curvature="0"
     style="fill:none" />
  <path
     d="M 112.67498,73.168153 V 70.16043 h 4.21438 V 46.175372 h -4.21438 v -3.008498 h 12.03399 v 3.008498 h -4.2136 V 70.16043 h 4.2136 v 3.008498 h -12.03399 z m 18.6144,-30.001279 h 12.33624 c 4.94364,0 7.99321,3.050347 7.99321,7.736691 0,4.471672 -2.87985,6.061945 -4.85607,6.361089 v 0.257296 c 2.14982,0.127873 5.88835,1.976216 5.88835,6.961704 0,4.943639 -3.31074,8.681399 -7.73669,8.681399 h -13.62504 z m 3.60911,12.982575 h 8.29623 c 2.83801,0 4.5546,-1.504249 4.5546,-4.169428 v -1.462399 c 0,-2.664404 -1.72047,-4.168653 -4.5546,-4.168653 h -8.29623 z m 0,13.840484 h 8.89685 c 3.09607,0 4.98549,-1.632896 4.98549,-4.641394 v -1.4624 c 0,-3.008497 -1.88942,-4.641394 -4.98549,-4.641394 h -8.89685 z m 47.79575,-22.094866 h -0.21545 l -2.53575,5.029663 -7.17715,13.066273 -7.13608,-13.066273 -2.53576,-4.984714 h -0.21544 v 25.232012 h -3.52619 V 43.166874 h 4.72742 l 8.59925,16.161569 h 0.17049 l 8.63955,-16.161569 h 4.72742 v 30.002054 h -3.52619 V 47.895067 Z m 18.09593,10.487893 c 0,-10.144574 5.20094,-15.729902 13.28172,-15.729902 5.50241,0 9.0255,2.233511 11.21793,7.048503 L 219.658,52.62326 c -0.77499,-2.494682 -2.36604,-4.169428 -5.58998,-4.169428 -3.82456,0 -6.36032,2.578381 -6.36032,7.306573 v 4.814992 c 0,4.727418 2.53576,7.305798 6.36032,7.305798 3.22394,0 5.07229,-2.018065 5.97514,-4.471672 l 5.32959,3.096071 c -2.23351,4.554596 -5.80155,7.17715 -11.30473,7.17715 -8.07691,0.0039 -13.27707,-5.15521 -13.27707,-15.299784 z m 35.11619,14.785968 c -4.34302,0 -6.31924,-2.192437 -6.31924,-6.191367 V 41.364256 h 6.36032 v 26.864133 h 2.83877 v 4.944414 h -2.87985 z m 5.28696,-11.304729 c 0,-7.263948 3.95398,-11.776695 10.57547,-11.776695 6.61838,0 10.57469,4.512747 10.57469,11.776695 0,7.263949 -3.95321,11.82242 -10.57469,11.82242 -6.61839,0 -10.57547,-4.558471 -10.57547,-11.82242 z m 14.52867,2.324185 v -4.599545 c 0,-2.838776 -1.4624,-4.471672 -3.9532,-4.471672 -2.49468,0 -3.95398,1.632896 -3.95398,4.471672 v 4.599545 c 0,2.838001 1.46317,4.471672 3.95398,4.471672 2.4939,-0.0039 3.95243,-1.636771 3.95243,-4.471672 z m 24.45703,5.20016 h -0.21545 c -0.77498,2.279235 -2.62255,4.298075 -6.31924,4.298075 -4.59954,0 -7.0485,-3.223944 -7.0485,-8.896845 V 50.60442 h 6.36109 v 13.625813 c 0,2.751203 0.90286,4.297301 3.22394,4.297301 1.97622,0 3.99893,-1.119081 3.99893,-3.265794 V 50.60442 h 6.36032 v 22.567608 h -6.36109 z m 26.13487,0 h -0.21467 c -0.64634,2.448957 -3.13715,4.298075 -6.06272,4.298075 -5.71785,0 -8.6814,-4.169428 -8.6814,-11.82242 0,-7.649892 2.96665,-11.776695 8.6814,-11.776695 2.9217,0 5.41638,1.805719 6.06272,4.2973 h 0.21467 V 41.364256 h 6.36109 v 31.807772 h -6.36109 z m 0,-4.171753 v -6.663334 c 0,-2.063789 -1.76077,-3.310743 -4.16865,-3.310743 -2.40789,0 -4.16865,1.848343 -4.16865,4.686344 v 3.912132 c 0,2.838001 1.76154,4.686344 4.16942,4.686344 2.40789,0 4.16788,-1.247729 4.16788,-3.310743 z"
     id="path36"
     inkscape:connector-curvature="0"
     style="fill:#231f20;stroke-width:0.77498651" />
  <g
     transform="matrix(0.44827,0,0,0.44827,-3.5587697,-3.7008129)"
     id="g92">
    <defs
       id="defs41">
      <filter
         id="k"
         filterUnits="userSpaceOnUse"
         x="7.9299998"
         y="8.2600002"
         width="224.49001"
         height="198.62">
        <feColorMatrix
           values="1 0 0 0 0 0 1 0 0 0 0 0 1 0 0 0 0 0 1 0"
           id="feColorMatrix38" />
      </filter>
    </defs>
    <mask
       maskUnits="userSpaceOnUse"
       x="7.93"
       y="8.26"
       width="224.49"
       height="198.62"
       id="o">
      <g
         id="g82"
         style="filter:url(#k)">
        <path
           d="M -17.04,-5.3 H 254.72 V 221.52 H -17.04 Z"
           id="path43"
           inkscape:connector-curvature="0" />
        <path
           d="m 37.72,87.65 c -0.74,0 -1.48,-0.2 -2.12,-0.57 L 15.54,75.5 a 4.42,4.42 0 0 1 -2.09,-5.23 4.258,4.258 0 0 1 5.44,-2.57 c 0.24,0.08 0.47,0.19 0.69,0.32 L 39.64,79.6 a 4.411,4.411 0 0 1 1.85,5.77 4.25,4.25 0 0 1 -3.77,2.28 z M 72.4,52.98 c -1.52,0 -2.92,-0.81 -3.68,-2.13 L 57.13,30.79 c -1.1,-1.81 -0.77,-4.15 0.81,-5.58 a 4.25,4.25 0 0 1 5.99,0.5 c 0.16,0.19 0.31,0.4 0.44,0.62 l 11.58,20.05 c 1.18,1.94 0.7,4.47 -1.12,5.83 -0.72,0.51 -1.57,0.77 -2.43,0.77 z M 115.5,35.77 V 12.91 a 4.437,4.437 0 0 1 4.06,-4.52 4.255,4.255 0 0 1 4.44,4.05 v 23.6 c 0,2.35 -1.9,4.25 -4.25,4.25 h -0.19 a 4.437,4.437 0 0 1 -4.06,-4.52 z m 51.6,17.21 c -0.87,0 -1.71,-0.27 -2.42,-0.76 a 4.422,4.422 0 0 1 -1.12,-5.84 l 11.57,-20.04 a 4.264,4.264 0 0 1 5.81,-1.56 c 0.22,0.13 0.43,0.27 0.62,0.44 a 4.407,4.407 0 0 1 0.81,5.58 l -11.58,20.06 a 4.282,4.282 0 0 1 -3.69,2.12 z m 34.68,34.67 a 4.26,4.26 0 0 1 -3.77,-2.27 4.399,4.399 0 0 1 1.85,-5.77 l 19.89,-11.48 a 4.376,4.376 0 0 1 5.52,0.8 4.246,4.246 0 0 1 -0.45,5.99 c -0.2,0.17 -0.41,0.33 -0.64,0.46 l -20.28,11.7 c -0.65,0.37 -1.38,0.57 -2.12,0.57 z"
           id="path45"
           inkscape:connector-curvature="0"
           style="fill:#ffffff" />
        <linearGradient
           id="l"
           gradientUnits="userSpaceOnUse"
           x1="-1715.326"
           y1="8007.917"
           x2="-1561.168"
           y2="7980.7358"
           gradientTransform="matrix(-0.40418224,-0.40418224,-0.40418224,0.40418224,2670.6913,-3788.3679)">
          <stop
             offset=".195"
             stop-color="#fff"
             stop-opacity="0"
             id="stop47" />
          <stop
             offset=".287"
             stop-color="#fff"
             stop-opacity=".03"
             id="stop49" />
          <stop
             offset=".501"
             stop-color="#fff"
             stop-opacity=".2"
             id="stop51" />
          <stop
             offset=".793"
             stop-color="#fff"
             stop-opacity=".74"
             id="stop53" />
          <stop
             offset="1"
             stop-color="#fff"
             id="stop55" />
        </linearGradient>
        <path
           d="M 65.84,184.67 C 36.07,154.89 36.08,106.61 65.86,76.84 c 29.77,-29.76 78.03,-29.76 107.8,0 2.15,2.15 4.18,4.43 6.06,6.83 1.31,1.66 2.56,3.39 3.71,5.13 l -7.09,4.68 a 68.247,68.247 0 0 0 -3.29,-4.56 69.18,69.18 0 0 0 -5.4,-6.08 C 141.19,56.4 98.3,56.4 71.84,82.86 c -26.45,26.46 -26.45,69.35 0,95.8 z"
           id="path58"
           inkscape:connector-curvature="0"
           style="fill:url(#l)" />
        <path
           d="M 174.1,207 H 56.76 C 29.56,206.81 7.67,184.62 7.85,157.42 v -0.03 l 8.5,0.06 c -0.17,22.51 17.94,40.89 40.44,41.05 h 117.28 c 27.48,0.01 49.76,-22.25 49.77,-49.73 0,-12.25 -4.51,-24.07 -12.67,-33.19 l 6.33,-5.66 c 21.45,23.98 19.4,60.8 -4.58,82.25 A 58.202,58.202 0 0 1 174.1,207 Z"
           id="path60"
           inkscape:connector-curvature="0"
           style="fill:#ffffff" />
        <linearGradient
           id="m"
           gradientUnits="userSpaceOnUse"
           x1="1656.833"
           y1="-2331.2141"
           x2="1747.1899"
           y2="-2279.0459"
           gradientTransform="matrix(0.5716,0,0,-0.5716,-944.203,-1183.804)">
          <stop
             offset=".08"
             stop-color="#fff"
             id="stop62" />
          <stop
             offset=".753"
             stop-color="#fff"
             stop-opacity=".07"
             id="stop64" />
          <stop
             offset=".875"
             stop-color="#fff"
             stop-opacity="0"
             id="stop66" />
        </linearGradient>
        <path
           d="m 16.35,157.45 -8.5,-0.06 C 8,133.49 25.31,113.16 48.89,109.19 l 1.42,8.38 c -19.51,3.28 -33.84,20.11 -33.96,39.88 z"
           id="path69"
           inkscape:connector-curvature="0"
           style="fill:url(#m)" />
        <linearGradient
           id="n"
           gradientUnits="userSpaceOnUse"
           x1="1863.37"
           y1="-2341.0581"
           x2="2000.813"
           y2="-2225.73"
           gradientTransform="matrix(0.5716,0,0,-0.5716,-944.203,-1183.804)">
          <stop
             offset=".138"
             stop-color="#fff"
             stop-opacity="0"
             id="stop71" />
          <stop
             offset=".32"
             stop-color="#fff"
             stop-opacity=".07"
             id="stop73" />
          <stop
             offset=".847"
             stop-color="#fff"
             stop-opacity=".764"
             id="stop75" />
          <stop
             offset=".947"
             stop-color="#fff"
             id="stop77" />
        </linearGradient>
        <path
           d="m 124.34,148.38 -8.49,-0.06 c 0.24,-32.17 26.51,-58.05 58.68,-57.81 16.42,0.12 32.03,7.17 42.97,19.41 l -6.33,5.66 C 192.85,95.1 161.4,93.35 140.92,111.67 a 49.813,49.813 0 0 0 -16.58,36.71 z"
           id="path80"
           inkscape:connector-curvature="0"
           style="fill:url(#n)" />
      </g>
    </mask>
    <linearGradient
       id="p"
       gradientUnits="userSpaceOnUse"
       x1="177.537"
       y1="137.10899"
       x2="64.369003"
       y2="-58.903999"
       gradientTransform="matrix(1,0,0,-1,0,159.746)">
      <stop
         offset="0"
         stop-color="#50ffd2"
         id="stop85" />
      <stop
         offset="1"
         stop-color="#0064ff"
         id="stop87" />
    </linearGradient>
    <path
       d="m 37.81,87.52 c -0.74,0 -1.48,-0.2 -2.12,-0.57 L 15.63,75.37 a 4.42,4.42 0 0 1 -2.09,-5.23 4.258,4.258 0 0 1 5.44,-2.57 c 0.24,0.08 0.47,0.19 0.69,0.32 l 20.06,11.59 a 4.411,4.411 0 0 1 1.85,5.77 4.28,4.28 0 0 1 -3.77,2.27 z M 72.48,52.85 c -1.52,0 -2.92,-0.81 -3.68,-2.13 L 57.22,30.66 c -1.1,-1.81 -0.77,-4.15 0.81,-5.57 a 4.25,4.25 0 0 1 5.99,0.5 c 0.16,0.19 0.31,0.4 0.44,0.62 l 11.57,20.05 c 1.18,1.94 0.7,4.47 -1.12,5.83 -0.71,0.49 -1.56,0.76 -2.43,0.76 z M 115.59,35.64 V 12.78 a 4.437,4.437 0 0 1 4.06,-4.52 4.255,4.255 0 0 1 4.44,4.05 c 0,0.06 0.01,0.13 0.01,0.19 v 23.41 c 0,2.35 -1.9,4.25 -4.25,4.25 h -0.19 c -2.35,-0.2 -4.13,-2.18 -4.07,-4.52 z m 51.6,17.21 c -0.87,0 -1.71,-0.27 -2.42,-0.76 a 4.422,4.422 0 0 1 -1.12,-5.84 l 11.57,-20.04 a 4.26,4.26 0 0 1 5.81,-1.56 c 0.22,0.13 0.43,0.27 0.62,0.44 a 4.42,4.42 0 0 1 0.81,5.57 l -11.58,20.06 a 4.27,4.27 0 0 1 -3.69,2.13 z m 34.67,34.67 a 4.26,4.26 0 0 1 -3.77,-2.27 c -1.01,-2.11 -0.2,-4.65 1.85,-5.77 L 219.83,68 c 1.8,-1.09 4.11,-0.76 5.52,0.8 a 4.246,4.246 0 0 1 -0.45,5.99 c -0.2,0.17 -0.41,0.33 -0.64,0.46 l -20.28,11.71 c -0.64,0.36 -1.37,0.56 -2.12,0.56 z M 65.92,184.54 C 36.15,154.76 36.16,106.48 65.94,76.71 c 29.77,-29.76 78.03,-29.76 107.8,0 a 75.72,75.72 0 0 1 6.07,6.83 c 1.31,1.66 2.56,3.39 3.7,5.13 l -7.09,4.68 a 68.247,68.247 0 0 0 -3.29,-4.56 69.18,69.18 0 0 0 -5.4,-6.08 C 141.27,56.26 98.37,56.26 71.92,82.72 c -26.45,26.46 -26.45,69.35 0,95.8 z m 108.27,22.33 H 56.85 C 29.65,206.68 7.76,184.49 7.94,157.29 v -0.03 l 8.49,0.06 c -0.17,22.51 17.94,40.89 40.44,41.05 h 117.28 c 27.48,0.01 49.76,-22.25 49.77,-49.73 0.01,-12.25 -4.5,-24.06 -12.67,-33.19 l 6.33,-5.66 c 21.45,23.98 19.39,60.8 -4.58,82.25 a 58.196,58.196 0 0 1 -38.81,14.83 z M 16.43,157.32 7.94,157.26 c 0.15,-23.9 17.46,-44.23 41.04,-48.2 l 1.42,8.38 c -19.52,3.28 -33.84,20.1 -33.97,39.88 z m 108,-9.07 -8.5,-0.06 c 0.24,-32.17 26.51,-58.05 58.68,-57.81 16.42,0.12 32.03,7.17 42.98,19.41 l -6.33,5.66 C 192.94,94.97 161.49,93.22 141.01,111.54 a 49.74,49.74 0 0 0 -16.58,36.71 z"
       mask="url(#o)"
       id="path90"
       inkscape:connector-curvature="0"
       style="fill:url(#p)" />
  </g>
</svg>
