<svg width="523.79688" height="509.48932" viewBox="0 0 523.79687 509.48932" version="1.1" fill="currentColor" stroke="currentColor">
  <g
     style="fill:none;stroke-width:1"
     transform="translate(11.880671,5.7144257)" >
    <g
      <g
         id="g820">
        <path style="stroke-width:31;stroke-miterlimit:4;stroke-dasharray:none" d="m 248.39648,9.296875 c -7.58706,0.440057 -14.66766,3.561662 -21.35156,6.955078 C 172.04013,42.600872 117.02838,68.937548 62.050781,95.341797 52.589407,101.07968 46.29498,111.36766 44.726562,122.24805 30.926941,182.40601 17.082264,242.55446 3.40625,302.74023 c -1.3993455,10.93663 2.6733188,22.23981 10.179899,30.21266 38.873147,48.26591 77.69695,96.57376 116.673921,144.75463 7.70726,7.92445 19.10619,11.8139 30.06454,10.94084 62.45789,-0.0575 124.91773,-0.0584 187.37429,-0.24421 10.98441,-1.18709 21.09313,-7.68794 27.22688,-16.79673 38.75612,-48.25866 77.53555,-96.5001 116.19922,-144.83203 6.03013,-9.25393 7.25751,-21.25135 3.92773,-31.71094 C 481.18136,234.93968 467.36353,174.80062 453.36591,114.70622 449.90491,104.2538 441.38387,95.817536 431.19141,91.845703 375.00341,65.069345 318.84139,38.238229 262.58789,11.599609 258.08625,9.8422425 253.21156,9.1909966 248.39648,9.296875 Z" />
        <path style="fill:currentColor;stroke-width:0.25" d="m 250.00888,74.76267 c -5.5904,5.67e-4 -10.12323,5.035955 -10.12257,11.247291 1e-5,0.09533 0.0195,0.186421 0.0216,0.281183 -0.008,0.843969 -0.049,1.860724 -0.0216,2.595528 0.13332,3.582522 0.91425,6.324432 1.38429,9.625086 0.85152,7.064452 1.56504,12.920442 1.12473,18.363362 -0.42823,2.05248 -1.93999,3.92957 -3.28768,5.23432 l -0.23792,4.28262 c -6.0748,0.50331 -12.19023,1.42494 -18.29848,2.81183 -26.28378,5.96776 -48.91366,19.50665 -66.14272,37.78657 -1.11796,-0.76269 -3.07382,-2.16581 -3.65541,-2.59553 -1.80729,0.24406 -3.63388,0.8017 -6.01297,-0.58399 -4.53,-3.04932 -8.65583,-7.25844 -13.64816,-12.32877 -2.28751,-2.42539 -3.94404,-4.73494 -6.66185,-7.07281 -0.6172,-0.53092 -1.55911,-1.249 -2.24946,-1.79524 -2.12479,-1.69407 -4.63091,-2.57755 -7.05119,-2.66042 -3.11179,-0.10655 -6.10741,1.11009 -8.06777,3.56885 -3.48507,4.37114 -2.36928,11.05215 2.48738,14.92429 0.0493,0.0392 0.10176,0.0698 0.15141,0.10815 0.66738,0.54099 1.48461,1.23418 2.09805,1.68709 2.88406,2.12941 5.51858,3.21946 8.39221,4.90988 6.05416,3.73881 11.07313,6.83895 15.05407,10.57678 1.55456,1.6571 1.82627,4.57707 2.03316,5.83994 l 3.24441,2.89834 c -17.36818,26.13779 -25.40632,58.42325 -20.65605,91.31936 l -4.23936,1.23287 c -1.11732,1.44285 -2.69617,3.71316 -4.34754,4.39077 -5.20846,1.64052 -11.07027,2.24295 -18.147076,2.98486 -3.322492,0.27627 -6.18925,0.1114 -9.711604,0.77866 -0.775253,0.14686 -1.855436,0.42827 -2.703676,0.62725 -0.02949,0.006 -0.05703,0.0149 -0.08652,0.0216 -0.04623,0.0107 -0.106978,0.0332 -0.151406,0.0433 -5.966353,1.44159 -9.799153,6.92557 -8.565245,12.32877 1.234198,5.40446 7.062011,8.69105 13.064161,7.39725 0.04333,-0.01 0.106244,-0.0116 0.151406,-0.0216 0.06776,-0.0155 0.127417,-0.0484 0.194665,-0.0648 0.836695,-0.18367 1.885233,-0.38802 2.617158,-0.584 3.463017,-0.92721 5.971059,-2.28957 9.084351,-3.48233 6.697806,-2.40226 12.245176,-4.40909 17.649596,-5.19106 2.2572,-0.17679 4.63535,1.3927 5.81831,2.05479 l 4.4124,-0.75703 c 10.15384,31.48053 31.433,56.92516 58.37777,72.8911 l -1.8385,4.4124 c 0.66267,1.71334 1.39356,4.03152 0.89994,5.72354 -1.96477,5.09499 -5.33016,10.47276 -9.16237,16.46823 -1.85553,2.7699 -3.75454,4.91947 -5.42898,8.0894 -0.40068,0.75851 -0.91099,1.92368 -1.29777,2.72531 -2.60165,5.56645 -0.69327,11.97764 4.30425,14.38355 5.02893,2.42103 11.27115,-0.13243 13.9726,-5.71016 0.004,-0.008 0.0178,-0.0137 0.0216,-0.0216 0.003,-0.006 -0.003,-0.0156 0,-0.0216 0.38478,-0.7908 0.92991,-1.83028 1.2545,-2.5739 1.43421,-3.28561 1.91142,-6.10126 2.91997,-9.27901 2.67832,-6.72771 4.14985,-13.78678 7.83682,-18.18539 1.00962,-1.20449 2.65562,-1.66772 4.36217,-2.12463 l 2.29271,-4.15284 c 23.49005,9.01638 49.7834,11.43587 76.049,5.47224 5.99184,-1.36045 11.77639,-3.12118 17.36841,-5.23432 0.64437,1.14295 1.84188,3.34007 2.16294,3.89329 1.73422,0.56422 3.62713,0.85559 5.16943,3.13627 2.75845,4.71277 4.64489,10.28809 6.94304,17.02234 1.00871,3.1777 1.50722,5.99348 2.9416,9.27902 0.32693,0.74886 0.86933,1.80293 1.2545,2.59552 2.69577,5.59585 8.95778,8.15804 13.99423,5.7318 4.99691,-2.4072 6.90739,-8.81781 4.30425,-14.38356 -0.38683,-0.80159 -0.91868,-1.96681 -1.31939,-2.7253 -1.67461,-3.16984 -3.57332,-5.29798 -5.42898,-8.06777 -3.83253,-5.99527 -7.01117,-10.97577 -8.9762,-16.07065 -0.82165,-2.62776 0.13862,-4.26203 0.77865,-5.96972 -0.38329,-0.43935 -1.2035,-2.92089 -1.68709,-4.08795 28.00223,-16.53398 48.65652,-42.92748 58.35614,-73.41021 1.30981,0.20585 3.58636,0.60864 4.32588,0.75703 1.52239,-1.00409 2.92218,-2.31419 5.6669,-2.09806 5.40446,0.78169 10.95167,2.78915 17.6496,5.19106 3.11336,1.1926 5.62129,2.57693 9.08435,3.50397 0.73193,0.19593 1.78045,0.37874 2.61716,0.56236 0.0673,0.0165 0.12687,0.0494 0.19466,0.0649 0.0452,0.0101 0.10808,0.0117 0.15141,0.0216 6.0025,1.29219 11.83135,-1.99247 13.06416,-7.39726 1.23253,-5.40351 -2.5985,-10.88877 -8.56524,-12.32876 -0.8679,-0.19735 -2.09875,-0.53252 -2.9416,-0.69214 -3.52239,-0.66707 -6.3891,-0.50256 -9.71161,-0.77866 -7.07683,-0.74155 -12.93853,-1.34461 -18.14707,-2.98486 -2.12367,-0.82384 -3.63445,-3.35082 -4.36917,-4.39077 l -4.08796,-1.18961 c 2.11951,-15.33399 1.54801,-31.29263 -2.11968,-47.26026 -3.70184,-16.1163 -10.24395,-30.85623 -18.96899,-43.84281 1.04863,-0.95327 3.02894,-2.7069 3.59048,-3.22278 0.16415,-1.81629 0.0231,-3.72062 1.90339,-5.73179 3.98074,-3.73804 9.00011,-6.83765 15.05406,-10.57678 2.87354,-1.69057 5.52989,-2.78032 8.41384,-4.90987 0.65217,-0.48157 1.54272,-1.24419 2.22783,-1.79525 4.85564,-3.87345 5.97358,-10.55405 2.48738,-14.92429 -3.48619,-4.37023 -10.24169,-4.78188 -15.09732,-0.90843 -0.69115,0.54738 -1.62898,1.26144 -2.24946,1.79524 -2.71769,2.33802 -4.3961,4.6473 -6.68349,7.07281 -4.99206,5.0706 -9.11831,9.30084 -13.64815,12.3504 -1.96292,1.14276 -4.83804,0.74736 -6.14279,0.67051 l -3.85003,2.74693 c -21.95389,-23.021 -51.84459,-37.7393 -84.03011,-40.59843 -0.09,-1.34879 -0.20795,-3.78682 -0.23792,-4.52054 -1.31764,-1.26084 -2.90936,-2.33727 -3.3093,-5.06129 -0.44032,-5.44292 0.29483,-11.29891 1.14636,-18.363362 0.47003,-3.300654 1.25096,-6.042564 1.38428,-9.625086 0.0303,-0.814394 -0.0183,-1.996141 -0.0216,-2.876711 -6.6e-4,-6.211336 -4.53216,-11.247859 -10.12256,-11.247291 z m -12.67484,78.51475 -3.00648,53.10019 -0.2163,0.10815 c -0.20165,4.7504 -4.11129,8.54361 -8.91131,8.54361 -1.96624,0 -3.78113,-0.63143 -5.25595,-1.70872 l -0.0865,0.0433 -43.53999,-30.86516 c 13.38161,-13.1584 30.49774,-22.88246 50.22348,-27.36121 3.60328,-0.81813 7.20495,-1.42518 10.79307,-1.86012 z m 25.3713,0 c 23.02993,2.83246 44.32818,13.2606 60.64885,29.24295 l -43.25881,30.6705 -0.1514,-0.0648 c -3.83962,2.80434 -9.24938,2.10853 -12.24225,-1.64384 -1.226,-1.53721 -1.86928,-3.34469 -1.94665,-5.16942 l -0.0433,-0.0216 z m -102.17732,49.05549 39.75485,35.55874 -0.0433,0.2163 c 3.58832,3.11946 4.11746,8.53267 1.12473,12.2855 -1.22592,1.53728 -2.8669,2.56836 -4.62869,3.04975 l -0.0433,0.17303 -50.95888,14.708 c -2.59365,-23.71633 2.99596,-46.77049 14.79451,-65.99132 z m 178.68053,0.0216 c 5.9068,9.57408 10.37973,20.26737 13.04253,31.86011 2.63087,11.45374 3.29113,22.88701 2.2062,33.93654 l -51.21843,-14.75125 -0.0433,-0.2163 c -4.58648,-1.25349 -7.40517,-5.91893 -6.33742,-10.59841 0.43745,-1.91697 1.45503,-3.53867 2.83345,-4.73684 l -0.0216,-0.10815 39.53855,-35.3857 z m -97.35396,38.28405 h 16.28694 l 10.12257,12.6532 -3.63375,15.78947 -14.62147,7.02955 -14.66474,-7.05118 -3.63374,-15.78947 z m 52.21339,43.30207 c 0.69212,-0.035 1.38122,0.0274 2.05479,0.1514 l 0.0865,-0.10814 52.71086,8.91131 c -7.71425,21.67308 -22.47576,40.44885 -42.19897,53.01368 l -20.46142,-49.4232 0.0649,-0.0865 c -1.87959,-4.36741 0.001,-9.48895 4.32588,-11.57174 1.10718,-0.53323 2.26391,-0.8285 3.41744,-0.8868 z m -88.52916,0.21629 c 4.02254,0.0564 7.63059,2.84833 8.56524,6.94304 0.43757,1.91694 0.2246,3.81629 -0.49748,5.49387 l 0.15141,0.19466 -20.24512,48.92572 c -18.9281,-12.1461 -34.00439,-30.33241 -42.0692,-52.64594 l 52.25665,-8.86805 0.0865,0.10814 c 0.58452,-0.10756 1.17734,-0.15947 1.75199,-0.1514 z m 44.14561,21.43478 c 1.40121,-0.0515 2.82301,0.236 4.17448,0.8868 1.77154,0.85309 3.14006,2.1963 4.00144,3.80678 h 0.19467 l 25.76062,46.54648 c -3.34324,1.12074 -6.78028,2.07856 -10.2956,2.87671 -19.70147,4.47324 -39.34034,3.11787 -57.12326,-2.94159 l 25.69573,-46.45997 h 0.0433 c 1.54186,-2.88236 4.46602,-4.60196 7.54866,-4.71521 z" />
      </g>
    </g>
  </g>
</svg>
