<svg version="1.1" x="0px" y="0px" viewBox="0 0 72.008505 72.008508" width="72.008507" height="72.008507" fill="currentColor" stroke="currentColor" >
  <path style="stroke-width:1.10253656" d="m 36.457031,10.769531 c -4.263017,0.208484 -8.010396,2.993974 -10.379547,6.401659 -1.295484,1.888577 -2.123964,3.09297 -2.455938,5.366358 1.099616,0.06208 2.430642,0.281047 3.528699,0.312804 1.151372,-4.340699 4.440216,-7.669573 9.002099,-8.321057 3.64034,-0.489851 7.159354,1.677432 9.166666,4.605336 1.333988,1.788527 1.974206,3.949773 2.557943,6.066539 0.170988,0.615538 0.735797,0.311155 1.113281,0.06836 1.729794,-0.841596 3.973769,-1.304858 5.646485,-0.08008 2.029999,1.313402 2.780574,3.818552 3.068359,6.089844 0.355652,0.816355 1.36524,0.312697 2.02617,0.385919 2.593571,-0.08563 5.278864,1.06065 6.70297,3.29085 2.089119,3.009448 2.095461,7.055639 0.917801,10.418225 -0.738408,1.914002 -1.560379,3.241318 -3.061851,4.646264 0.276885,0.822944 1.060646,2.070441 1.430548,3.046143 0.997186,-1.037508 1.448071,-1.454843 2.239267,-2.545614 1.667351,-2.134327 2.140564,-4.312576 2.773978,-6.95087 0.685685,-2.891256 0.575814,-6.045938 -0.795704,-8.713126 -1.686959,-3.600567 -5.220016,-6.623021 -9.330835,-6.718416 -0.796685,0.224485 -0.862794,-0.771834 -0.994613,-1.292732 -1.104849,-3.083827 -3.887373,-5.80855 -7.269372,-5.996376 -0.819827,-0.04933 -1.643641,0.09095 -2.415703,0.36528 -0.576027,-0.696007 -0.623529,-1.660903 -1.130725,-2.404753 -1.962439,-3.944566 -5.653256,-7.247872 -10.081559,-7.93941 -0.746214,-0.11881 -1.504554,-0.146585 -2.258419,-0.10115 z" id="path2" />
  <path style="stroke-width:1.1842916" d="m 24.958984,26.111328 c -5.327721,0.02944 -10.047461,3.695328 -12.548567,8.24957 -1.765499,3.122795 -2.410317,6.748932 -2.320573,10.303164 -4.2732958,1.050508 -7.3643797,4.868589 -8.5959249,8.954588 -1.86031966,5.889423 0.2609988,12.971694 5.4564153,16.465026 2.0435064,1.374905 4.5545406,1.745142 6.9703506,1.704142 3.682102,3.02e-4 7.363866,-0.04478 11.046112,-0.01047 9.195954,-0.01918 18.396375,0.09029 27.588963,-0.13894 4.357731,-0.667428 7.758995,-4.24663 9.27441,-8.241049 2.377446,-6.117869 0.223248,-13.914034 -5.415748,-17.494011 -1.731223,-1.082593 -3.771648,-1.57025 -5.805047,-1.551782 -0.901688,-4.021309 -4.477703,-7.58857 -8.731118,-7.659611 -0.833072,-0.06092 -1.70528,0.317779 -2.47396,0.311955 -0.481274,-0.669853 -0.578589,-1.530754 -1.037109,-2.220703 -2.50384,-4.968286 -7.686447,-8.870739 -13.408204,-8.671875 z m -0.138672,3.78711 c 4.486911,-0.174508 8.587075,2.875437 10.568571,6.765172 0.93061,1.606494 1.176616,3.493213 1.841586,5.193812 0.4899,0.100434 0.921326,-0.407676 1.402237,-0.477686 1.946307,-0.837779 4.435243,-1.130841 6.197344,0.284067 1.955984,1.397002 2.734738,3.850429 3.037138,6.133072 0.473983,0.795185 1.514804,0.209829 2.242578,0.330078 2.962407,-0.07971 6.034582,1.274367 7.603741,3.860629 2.710568,4.057898 2.41946,10.076155 -1.182257,13.516324 -1.812443,1.788901 -4.395052,2.748419 -6.938054,2.497784 -7.248375,-0.08061 -14.498141,-0.0109 -21.747102,-0.03169 -5.522347,-0.01625 -11.051231,0.0042 -16.56891,-0.141172 C 7.7093011,67.170211 5.1553072,63.917839 4.3406683,60.525637 3.1823643,55.883083 5.556539,50.406299 10.098365,48.594943 c 1.12329,-0.442202 2.351324,-0.432405 3.503197,-0.743381 0.103396,-0.69966 -0.172597,-1.410649 -0.148513,-2.134788 -0.336987,-3.456278 0.0791,-7.13024 2.049319,-10.074685 1.989306,-3.196158 5.471179,-5.654478 9.317944,-5.743651 z" />
</svg>