<svg xmlns="http://www.w3.org/2000/svg" viewBox="0 0 287.42 82.77"><defs><style>.cls-1{isolation:isolate;}.cls-2{fill:#c00;}.cls-3{opacity:0.15;mix-blend-mode:multiply;}.cls-4{fill:#fff;}</style></defs><title>Logotype_RH_OpenShiftPrimed_RGB_Reverse</title><g class="cls-1"><g id="Layer_1" data-name="Layer 1"><rect class="cls-2" width="82.77" height="82.77"/><polygon class="cls-3" points="0 82.77 82.77 82.77 82.77 0 0 82.77"/><path class="cls-4" d="M131.36,80.11l-11.13,4.05a32.34,32.34,0,0,0,.88,5.27l10.57-3.85a20.74,20.74,0,0,1-.32-5.48" transform="translate(-104.74 -42.61)"/><path class="cls-4" d="M180.55,67.81a31.79,31.79,0,0,0-2.72-4.61L166.7,67.25a20.69,20.69,0,0,1,3.27,4.4Z" transform="translate(-104.74 -42.61)"/><path class="cls-4" d="M156.06,64.65a20.55,20.55,0,0,1,6,4.28l11.13-4.05a31.81,31.81,0,0,0-57.61,21l11.13-4a20.63,20.63,0,0,1,29.34-17.15" transform="translate(-104.74 -42.61)"/><path class="cls-4" d="M121.8,89.19L111.22,93a32.23,32.23,0,0,0,5,10.78l11.11-4a20.78,20.78,0,0,1-5.5-10.59" transform="translate(-104.74 -42.61)"/><path class="cls-4" d="M167.93,85a20.35,20.35,0,0,1-1.87,7.14,20.7,20.7,0,0,1-27.48,10,20.48,20.48,0,0,1-6-4.28l-11.1,4a31.54,31.54,0,0,0,12.42,10.34,31.87,31.87,0,0,0,42.3-15.4A31.49,31.49,0,0,0,179,80.95Z" transform="translate(-104.74 -42.61)"/><path class="cls-4" d="M170.66,71.4l-10.57,3.85a20.76,20.76,0,0,1,2.59,11.64l11.11-4a32.1,32.1,0,0,0-3.12-11.46" transform="translate(-104.74 -42.61)"/><path class="cls-4" d="M131.31,82.35a20.32,20.32,0,0,1,0-2.24l-11.13,4.05c0.06,0.72.15,1.42,0.25,2.13Z" transform="translate(-104.74 -42.61)"/><path class="cls-4" d="M178.93,64.87c-0.35-.57-0.71-1.13-1.1-1.68L166.7,67.25a18.75,18.75,0,0,1,1.37,1.58Z" transform="translate(-104.74 -42.61)"/><path class="cls-4" d="M121.45,101.91a31.67,31.67,0,0,0,2.83,3.44l12.09-4.41a20.45,20.45,0,0,1-3.82-3.07Zm57.59-21-11.1,4a20.36,20.36,0,0,1-.94,4.78l12.09-4.41a31.51,31.51,0,0,0,0-4.41" transform="translate(-104.74 -42.61)"/><path class="cls-4" d="M211.56,72.91l-2.26-4.54h-2.54v4.54h-2.5V60.31h5.87a5.68,5.68,0,0,1,1.67.24,3.87,3.87,0,0,1,1.39.75,3.56,3.56,0,0,1,.94,1.25,4.18,4.18,0,0,1,.34,1.75,4.14,4.14,0,0,1-.6,2.33A3.69,3.69,0,0,1,212,68l2.41,4.9h-2.9Zm-0.17-9.77a2.14,2.14,0,0,0-1.33-.37h-3.31V66h3.31a1.52,1.52,0,0,0,1.81-1.63A1.45,1.45,0,0,0,211.39,63.14Z" transform="translate(-104.74 -42.61)"/><path class="cls-4" d="M217.11,72.91V60.31h8.73v2.47h-6.23v2.16h3.62V67.4h-3.62v3h6.5v2.47h-9Z" transform="translate(-104.74 -42.61)"/><path class="cls-4" d="M238.46,69.46a5.54,5.54,0,0,1-1.46,2,5.89,5.89,0,0,1-2.07,1.13,7.94,7.94,0,0,1-2.37.36h-3.76V60.31h3.94a8.9,8.9,0,0,1,2.49.33,5,5,0,0,1,2,1.09,5.16,5.16,0,0,1,1.31,2,7.92,7.92,0,0,1,.48,2.93A6.8,6.8,0,0,1,238.46,69.46Zm-2.93-5.73a3.78,3.78,0,0,0-2.89-1h-1.34v7.67h1.25a4.85,4.85,0,0,0,1.72-.28,3.14,3.14,0,0,0,1.2-.78,3.23,3.23,0,0,0,.7-1.21,5,5,0,0,0,.23-1.57A4.11,4.11,0,0,0,235.54,63.74Z" transform="translate(-104.74 -42.61)"/><path class="cls-4" d="M254.44,72.91V67.62h-5.18v5.29h-2.5V60.31h2.5v4.84h5.18V60.31h2.5v12.6h-2.5Z" transform="translate(-104.74 -42.61)"/><path class="cls-4" d="M268.58,72.91l-1-2.81H263l-1,2.81h-2.7l4.82-12.6h2.45l4.79,12.6h-2.77Zm-2.66-7.49q-0.2-.56-0.37-1.08t-0.26-.88q-0.09.36-.26,0.88t-0.37,1.08l-0.81,2.29h2.88Z" transform="translate(-104.74 -42.61)"/><path class="cls-4" d="M277.3,62.78V72.91h-2.5V62.78h-3.62V60.31h9.74v2.47H277.3Z" transform="translate(-104.74 -42.61)"/><path class="cls-4" d="M284.75,59.43a1.39,1.39,0,0,1-.76.76,1.55,1.55,0,0,1-1.14,0,1.39,1.39,0,0,1-.76-0.76,1.54,1.54,0,0,1,0-1.14,1.38,1.38,0,0,1,.76-0.76,1.54,1.54,0,0,1,1.14,0,1.38,1.38,0,0,1,.76.76A1.54,1.54,0,0,1,284.75,59.43Zm-0.24-1a1.13,1.13,0,0,0-.25-0.38,1.15,1.15,0,0,0-.38-0.25,1.27,1.27,0,0,0-.94,0,1.13,1.13,0,0,0-.63.63,1.27,1.27,0,0,0,0,.94,1.13,1.13,0,0,0,.63.63,1.27,1.27,0,0,0,.94,0,1.15,1.15,0,0,0,.38-0.25,1.13,1.13,0,0,0,.25-0.38A1.26,1.26,0,0,0,284.51,58.39Zm-0.5.46a0.54,0.54,0,0,1-.22.15l0.3,0.62h-0.38L283.44,59h-0.27v0.58h-0.33V58h0.73a0.61,0.61,0,0,1,.38.12A0.54,0.54,0,0,1,284,58.85Zm-0.31-.45a0.25,0.25,0,0,0-.16,0h-0.38v0.4h0.38a0.19,0.19,0,0,0,.22-0.2A0.18,0.18,0,0,0,283.7,58.4Z" transform="translate(-104.74 -42.61)"/><path class="cls-4" d="M300.19,69.33a5.88,5.88,0,0,1-1.14,2,5,5,0,0,1-1.76,1.29,5.54,5.54,0,0,1-2.25.45,5.62,5.62,0,0,1-2.26-.44A4.85,4.85,0,0,1,291,71.39a6,6,0,0,1-1.13-2,8.47,8.47,0,0,1-.41-2.73,8.56,8.56,0,0,1,.41-2.74,5.86,5.86,0,0,1,1.14-2,5,5,0,0,1,1.76-1.29,5.93,5.93,0,0,1,4.51,0,4.85,4.85,0,0,1,1.75,1.28,6,6,0,0,1,1.13,2A9.41,9.41,0,0,1,300.19,69.33Zm-3-5.67a2.63,2.63,0,0,0-2.16-1,2.57,2.57,0,0,0-2.13,1,5.79,5.79,0,0,0,0,5.92,2.63,2.63,0,0,0,2.16,1,2.57,2.57,0,0,0,2.13-1A5.79,5.79,0,0,0,297.17,63.66Z" transform="translate(-104.74 -42.61)"/><path class="cls-4" d="M312.63,66.19a3.4,3.4,0,0,1-1,1.29,3.91,3.91,0,0,1-1.45.74,6.71,6.71,0,0,1-1.81.23h-2.78v4.46h-2.5V60.31h5.51a5.67,5.67,0,0,1,1.67.24,3.88,3.88,0,0,1,1.39.75,3.57,3.57,0,0,1,.94,1.25,4.19,4.19,0,0,1,.34,1.75A4.67,4.67,0,0,1,312.63,66.19Zm-2.75-3a2.15,2.15,0,0,0-1.35-.38h-2.91V66h2.95a1.52,1.52,0,0,0,1.81-1.62A1.42,1.42,0,0,0,309.89,63.16Z" transform="translate(-104.74 -42.61)"/><path class="cls-4" d="M315.37,72.91V60.31h8.73v2.47h-6.23v2.16h3.62V67.4h-3.62v3h6.5v2.47h-9Z" transform="translate(-104.74 -42.61)"/><path class="cls-4" d="M335,72.91L330.42,66l-0.5-.77a7.43,7.43,0,0,1-.39-0.66q0,0.18,0,.53t0,0.77q0,0.4,0,.79t0,0.67v5.54h-2.5V60.31h2.43L333.95,67l0.49,0.77a7.37,7.37,0,0,1,.39.66c0-.12,0-0.3,0-0.53s0-.48,0-0.75,0-.55,0-0.81,0-.49,0-0.67V60.31h2.5v12.6H335Z" transform="translate(-104.74 -42.61)"/><path class="cls-4" d="M349.46,70.74a3.19,3.19,0,0,1-.9,1.27,4.23,4.23,0,0,1-1.54.82,7.57,7.57,0,0,1-2.22.29,6.65,6.65,0,0,1-2.88-.61,4.89,4.89,0,0,1-2-1.67l1.82-1.62a3.89,3.89,0,0,0,1.48,1.11,4.56,4.56,0,0,0,1.74.33,3.3,3.3,0,0,0,1.67-.32,1.13,1.13,0,0,0,.53-1,1.21,1.21,0,0,0-.11-0.53,1.11,1.11,0,0,0-.4-0.42,3.54,3.54,0,0,0-.86-0.38q-0.56-.18-1.44-0.38a12.86,12.86,0,0,1-1.59-.47,4.53,4.53,0,0,1-1.25-.68,2.78,2.78,0,0,1-.81-1,3.76,3.76,0,0,1-.29-1.57,3.35,3.35,0,0,1,.35-1.55,3.47,3.47,0,0,1,1-1.16,4.41,4.41,0,0,1,1.43-.73,6.45,6.45,0,0,1,4.34.27,6.79,6.79,0,0,1,2,1.47l-1.82,1.77a4.62,4.62,0,0,0-1.3-1,3.55,3.55,0,0,0-1.56-.33,3.1,3.1,0,0,0-.85.1,1.73,1.73,0,0,0-.56.26,1,1,0,0,0-.31.36,1,1,0,0,0-.09.41,0.9,0.9,0,0,0,.52.88,3.78,3.78,0,0,0,.77.31q0.48,0.14,1.24.32t1.5,0.42a4.91,4.91,0,0,1,1.35.67,3.18,3.18,0,0,1,1.36,2.79A4.47,4.47,0,0,1,349.46,70.74Z" transform="translate(-104.74 -42.61)"/><path class="cls-4" d="M360.1,72.91V67.62h-5.18v5.29h-2.5V60.31h2.5v4.84h5.18V60.31h2.5v12.6h-2.5Z" transform="translate(-104.74 -42.61)"/><path class="cls-4" d="M366,72.91V60.31h2.5v12.6H366Z" transform="translate(-104.74 -42.61)"/><path class="cls-4" d="M374.48,62.78v2.36h3.8V67.6h-3.8v5.31H372V60.31h9v2.47h-6.5Z" transform="translate(-104.74 -42.61)"/><path class="cls-4" d="M388.54,62.78V72.91H386V62.78h-3.62V60.31h9.74v2.47h-3.62Z" transform="translate(-104.74 -42.61)"/><path class="cls-4" d="M225.58,94.22a7.93,7.93,0,0,1-2.23,3A9.13,9.13,0,0,1,220,98.95a15.69,15.69,0,0,1-4.23.55h-6.48v10.42h-5.84V80.51h12.85a13.25,13.25,0,0,1,3.91.57,9,9,0,0,1,3.23,1.74,8.31,8.31,0,0,1,2.18,2.92,9.76,9.76,0,0,1,.8,4.09A10.91,10.91,0,0,1,225.58,94.22Zm-6.41-7.07a5,5,0,0,0-3.14-.89h-6.79v7.48h6.87q4.22,0,4.22-3.78A3.31,3.31,0,0,0,219.17,87.16Z" transform="translate(-104.74 -42.61)"/><path class="cls-4" d="M249,109.91l-5.26-10.58h-5.94v10.58H232V80.51h13.69a13.25,13.25,0,0,1,3.91.57,9,9,0,0,1,3.23,1.74A8.31,8.31,0,0,1,255,85.74a9.76,9.76,0,0,1,.8,4.09,9.66,9.66,0,0,1-1.41,5.44,8.61,8.61,0,0,1-4.22,3.21l5.63,11.42H249Zm-0.39-22.79a5,5,0,0,0-3.1-.86h-7.71v7.52h7.71q4.22,0,4.21-3.8A3.38,3.38,0,0,0,248.62,87.12Z" transform="translate(-104.74 -42.61)"/><path class="cls-4" d="M262.38,109.91V80.51h5.84v29.4h-5.84Z" transform="translate(-104.74 -42.61)"/><path class="cls-4" d="M297.87,109.91V99.12q0-.59,0-1.51t0-1.89q0-1,0-1.81t0-1.26L297,94.88q-0.57,1.39-1.16,2.65l-6,13.06L284,97.52q-0.59-1.26-1.15-2.65l-0.9-2.23q0,0.42,0,1.26t0,1.81q0,1,0,1.89t0,1.51v10.79h-5.75V80.51h5.67L288,93.83q0.29,0.63.59,1.32l0.57,1.37,0.5,1.26q0.23,0.59.36,1,0.29-.84.84-2.25T292,93.83l5.94-13.31h5.75v29.4h-5.84Z" transform="translate(-104.74 -42.61)"/><path class="cls-4" d="M311.31,109.91V80.51h20.37v5.75H317.14v5h8.44v5.75h-8.44v7.1h15.16v5.75h-21Z" transform="translate(-104.74 -42.61)"/><path class="cls-4" d="M361.14,101.87a12.92,12.92,0,0,1-3.4,4.58,13.74,13.74,0,0,1-4.83,2.63,18.56,18.56,0,0,1-5.52.84h-8.78V80.51h9.2a20.75,20.75,0,0,1,5.82.78,11.65,11.65,0,0,1,4.62,2.54,12,12,0,0,1,3.07,4.56,18.5,18.5,0,0,1,1.11,6.83A15.87,15.87,0,0,1,361.14,101.87ZM354.31,88.5q-2.07-2.24-6.74-2.24h-3.12v17.89h2.91a11.32,11.32,0,0,0,4-.65,7.33,7.33,0,0,0,2.8-1.82,7.54,7.54,0,0,0,1.64-2.82,11.57,11.57,0,0,0,.55-3.66Q356.37,90.74,354.31,88.5Z" transform="translate(-104.74 -42.61)"/></g></g></svg>