<?xml version="1.0" encoding="utf-8"?>
<!-- Generator: Adobe Illustrator 26.0.2, SVG Export Plug-In . SVG Version: 6.00 Build 0)  -->
<svg version="1.1" xmlns="http://www.w3.org/2000/svg" xmlns:xlink="http://www.w3.org/1999/xlink" x="0px" y="0px"
	 viewBox="0 0 351.6 428.3" style="enable-background:new 0 0 351.6 428.3;" xml:space="preserve">
<style type="text/css">
	.st0{fill:#78827E;}
	.st1{fill:#666C67;}
	.st2{fill:#393834;}
	.st3{fill:#DBD6CE;}
	.st4{fill:#C6BFB5;}
	.st5{display:none;}
	.st6{display:inline;}
	.st7{display:inline;fill:#78827E;}
	.st8{display:inline;fill:#DBD6CE;}
	.st9{display:inline;fill:#C6BFB5;}
	.st10{fill:#98857A;}
	.st11{fill:#D2AFA5;}
	.st12{fill:#FFFFFF;}
	.st13{fill:none;stroke:#393834;stroke-width:2.2705;stroke-linecap:round;stroke-linejoin:round;stroke-miterlimit:10;}
	.st14{fill:none;stroke:#393834;stroke-width:2.2397;stroke-linecap:round;stroke-linejoin:round;stroke-miterlimit:10;}
	.st15{fill:#40549F;}
</style>
<g id="Body_new_1_00000067940814424374795300000018327551694212574651_">
	<g>
		<g>
			<path class="st0" d="M247.5,259.6c4.5,9.1,6.9,10.5,10.3,14c2.4,2.5,6.6,6.4,10.2,10.2c3.4,3.5,4.8,5.4,4.5,6.8
				c-0.3,2.1-5.7,0.5-11-4.2c0,0,6,9.3,3,11.4c-4.2,3-13.4-8.8-13.8-9.7c0,0,4.2,9.7,0.8,10.5c-4.2,1-10.1-8.9-10.7-11.7
				c0,0-1.3,4.1-3.9,4.7c-3.3,0.7-4.8-7.1-1.2-12.7c3-4.7,2.6-8.9-1.8-16.1c0,0-5.2-39.6,4.7-25.9
				C240.7,239.5,242.6,249.6,247.5,259.6z"/>
			<path class="st1" d="M238.7,236.8c3.3,11.9,3.2,11.4,7.1,21.9c4.4,11.8,8.5,14.1,12.2,17.7c2.2,2.1,6.1,5.5,8,7.3
				c0.8,0.7,1.6,1.3,2,1.7c3,3.1,0.1,4.6-2.5,3.1c-1-0.6-2-1-4-2.1c5.4,4.7,10.7,6.3,11,4.2c0.2-1.4-1.1-3.3-4.5-6.8
				c-3.6-3.7-6.2-7-8.1-8.9c-5.1-5.1-8.8-9.6-10.8-14.2c-8.5-19.9-10.7-33.7-11.2-35.3C231.7,204.5,235.3,224.9,238.7,236.8z"/>
			<path class="st1" d="M235.8,266c1.2,1.9,2.6,8.1,0,12.8c0,0,5.3-3.6,2.4-13.7c-1.1-3.6-3.9-5.7-3.9-5.7s-0.6,2.6-0.4,4.1
				C233.9,264.1,234.6,264.1,235.8,266z"/>
			<path class="st1" d="M261.5,286.4c0,0,6,9.3,3.1,11.4c-4.2,3-13.4-8.8-13.8-9.7c0,0,4.2,9.7,0.8,10.5c-4.2,1-10.1-8.9-10.7-11.7
				c0,0-1.3,4.1-3.9,4.7c-3.3,0.7-5.2-7.1-1.2-12.7c0,0-1.9,6.9,0.4,9c1.8,1.7,4.2-4.2,4.9-5.7c0.6-1.6,4.4,13.6,8.6,12.2
				c2.4-0.8-0.5-8.9-0.5-8.9s5.7,4.9,9.5,8.5c1,0.9,2.2,1.1,3,0.8c1.3-0.5,1.9-1.4,1.7-3C263.2,289.4,261.5,286.4,261.5,286.4z"/>
			<path class="st2" d="M261.5,297.1c-0.6-0.8,1.5-2.7,3.2-1.4c0.8,0.7,1.9,4.9,0.7,5.6c-0.9,0.5-1.8-1.2-2.2-1.8
				C262.5,298.3,262.3,298.1,261.5,297.1z"/>
			<path class="st2" d="M248.9,296.9c-0.5-0.8,1.7-2.6,3.3-1.2c0.8,0.7,1.5,5.1,0.3,5.6c-0.9,0.4-1.7-1.3-2-1.9
				C249.7,298.2,249.6,298.1,248.9,296.9z"/>
			<path class="st2" d="M238.1,289.5c0.1-0.9-2.7-1.8-3.5,0.1c-0.4,1,0.8,5.2,2.2,5.3c1,0.1,1-1.8,1-2.5
				C237.9,291,238,290.8,238.1,289.5z"/>
			<path class="st2" d="M269.4,290.8c-0.9-0.5,0.4-2.7,2.1-2.1c0.9,0.3,2.7,3.7,2.2,4.3c-0.4,0.5-1,0.3-2.1-0.8
				C270.8,291.5,270.4,291.4,269.4,290.8z"/>
		</g>
	</g>
	<g>
		<g>
			<path class="st0" d="M233.1,249.3c-0.5,6.7-7.1,108.4-17.3,117c-10.2,8.6-20.8,12.6-23.3,6.4c-2.5-6.2-14.3-56.6-10.2-63
				c1.4-2.2,13.4-2.4,23.7-9.4C225.5,286.9,234.4,233.2,233.1,249.3z"/>
			<path class="st0" d="M219.4,359.5c6.2,1.5,14.6,3.3,15.8,8.1c0.7,2.9,4.3,8.5-2.6,10.6c-6.9,2.1-26.6,6.7-38.1-2.9
				C185.7,367.9,219.4,359.5,219.4,359.5z"/>
		</g>
		<g>
			<path class="st1" d="M180.1,317.2c-1.4,9.5,10,49.2,12.5,55.5c0.4,1,0.3,0.8,1.7,2.3c9.5,10,35.2,6.8,41.3,1.8
				c4.1-3.4,2.1-9.8-1.7-12.5c-3.7-2.6-14.3-4.8-14.3-4.8c7.5-24,12.2-91,12.7-96.7c0,0-5.1,26.8-8.6,48.9
				c-3.5,22.1-5.1,42.7-7.7,49.2c-0.4,0.9,10.4,2.5,14.7,5.8c3.2,2.5,0.7,8.5-6.5,9.9c-6.7,1.4-19.7,3.1-26.9-4.6
				c-1.8-1.9-9.5-39.4-13.8-54.6C181.5,311.6,180.1,317.2,180.1,317.2z"/>
			<g>
				<path class="st2" d="M234.3,368.9c-0.7-0.1-0.4-2.6,1.3-2.8c0.9-0.1,3.5,1.9,3.1,3c-0.3,0.8-1.7,0.4-2.2,0.2
					C235.5,369.1,235.3,369.1,234.3,368.9z"/>
				<path class="st2" d="M232.7,374.9c-0.9-0.2-0.5-3.3,1.5-3.5c1.1-0.1,4.5,2.3,4,3.6c-0.4,1.1-2.1,0.5-2.8,0.4
					C234.2,375.1,234,375.1,232.7,374.9z"/>
				<path class="st2" d="M228.6,379.4c-0.9-0.3-0.3-3.4,1.9-3.4c1.1,0,4.4,2.8,3.8,4.1c-0.4,1-2.2,0.3-2.9,0.1
					C230.1,379.8,229.9,379.8,228.6,379.4z"/>
			</g>
		</g>
	</g>
	<g>
		<path class="st1" d="M211.4,158.3c10.3,13.2,20.1,21.8,28,67.1c8,45.8-3.3,96.9-58.8,98.6c-25,0.8-46.5-5.7-61.2-36.7
			c-15.2-32-3.8-105.8,17.8-125.5c6.8-6.2,15.4-4.3,26.4-4.3c0,0,13.8-0.3,23.7-0.3C200.1,157.2,209.6,156,211.4,158.3z"/>
	</g>
	<g>
		<path class="st0" d="M119.7,213.2c5.8-8.9,7.7-11.8,16.1-28.7c5.8-11.6,7.5-26.3,7.5-26.3s-23.2,5.1-37.6,24.2
			c-8.5,11.2-13.5,22.9-15,28.7C85.6,231.1,113,223.5,119.7,213.2z"/>
		<g>
			<g>
				<path class="st0" d="M87.5,220.4c-2.9,11.1-9.1,57.2-9.3,58.9c-0.5,3.9-4.2,6-7.6,10.4c-3.2,4.1-4.5,6.3-4.1,7.8
					c0.5,2.4,6,0.2,11.2-5.4c0,0-5.4,10.8-2.1,12.8c4.7,3,13.2-10.7,13.5-11.7c0,0-3.4,11,0.1,11.7c4.5,0.8,9.7-10.5,10.1-13.7
					c0,0,1.7,4.5,4.6,4.9c3.5,0.6,4.4-8.2,0.1-14.1c-3.6-5,0.4-22,3.7-30.6c2.8-7.3,6.2-17.3,11.1-28.4c11.5-25.9,13-21.5-1.8-24.2
					S94.8,192.9,87.5,220.4z"/>
				<path class="st1" d="M77.7,292.1c-5.2,5.6-10.6,7.7-11.2,5.4c-0.4-1.6,0.9-3.7,4.1-7.8c3.4-4.4,7.5-8.5,8.3-15.5
					c0.2-1.7,5.3-42.2,8-53.4c1.2-4.9,1.7-7.7,2.7-10.3c2.2-6.9,7.5-17.4,15.2-27.2c10.2-12.9,20.4-17.6,20.4-17.6s-2.9,1.9-6.6,5.5
					c-2.8,2.8-4.6,4.8-6.5,7c-8.1,9.3-12.7,19.5-15,24.7c-3.2,7.3-6.9,12.1-10.7,47.2c-1.5,13.7-3.2,24.5-6,30.7
					c-1.3,3-5.8,6.6-7.7,8.7c-0.7,0.8-1.5,1.5-1.9,2c-2.8,3.6,0.4,5.1,2.9,3.2C74.7,294.1,75.7,293.5,77.7,292.1z"/>
				<path class="st1" d="M126.8,206.1L126.8,206.1c-1.3,3.2-4.1,8.5-8,17.3c-4.9,11.1-7.5,18.5-9.4,25.5c-3.5,12.3-10.1,29.2-5.3,33
					c0,0-7.2-4.6-3.8-15.5c6.2-19.8,11.4-36.1,16.1-45.5C120.1,213.3,127.3,204.2,126.8,206.1z"/>
				<path class="st1" d="M77.7,292.1c0,0-5.4,10.8-2.2,12.8c4.7,3,13.2-10.7,13.5-11.7c0,0-3.4,11,0.1,11.7
					c4.5,0.8,9.7-10.5,10.1-13.7c0,0,1.7,4.5,4.6,4.9c3.5,0.6,4.8-8.3,0.1-14.1c0,0,2.6,7.5,0.4,10c-1.7,2-4.8-4.3-5.7-6
					c-0.8-1.7-3.3,15.4-7.9,14.2c-2.6-0.7-0.3-9.9-0.3-9.9s-5.5,5.8-9.1,10c-0.9,1.1-2.2,1.4-3.1,1.1c-1.4-0.4-2.1-1.5-2.1-3.2
					C76.2,295.6,77.7,292.1,77.7,292.1z"/>
				<path class="st2" d="M78.7,304c0.5-0.9-1.9-2.9-3.4-1.3c-0.8,0.8-1.5,5.6-0.2,6.3c1,0.5,1.8-1.4,2.1-2.1
					C77.8,305.4,78,305.3,78.7,304z"/>
				<path class="st2" d="M91.9,303c0.4-1-2.1-2.8-3.5-1.1c-0.8,0.9-1.1,5.7,0.2,6.3c1,0.4,1.7-1.6,2-2.3
					C91.1,304.5,91.2,304.3,91.9,303z"/>
				<path class="st2" d="M102.5,294c-0.2-1,2.7-2.2,3.7-0.2c0.5,1-0.4,5.8-1.8,6c-1.1,0.2-1.2-1.9-1.3-2.7
					C102.8,295.6,102.7,295.4,102.5,294z"/>
			</g>
			<path class="st2" d="M69.8,297.6c0.9-0.6-0.7-3-2.4-2.2c-0.9,0.4-2.5,4.3-1.9,4.9c0.5,0.5,1.1,0.3,2.1-1
				C68.4,298.5,68.8,298.3,69.8,297.6z"/>
		</g>
	</g>
	<path class="st0" d="M211.4,158.3c14.5,14.4,19.2,29.3,24.3,65.3c5.5,39.2,0.4,91.9-55.1,93.5c-25,0.8-53.2-6.8-63.5-39.5
		c-7.3-23.2-1.5-96.2,20.1-115.9c6.8-6.2,15.4-4.3,26.4-4.3c0,0,13.8-0.3,23.7-0.3C200.1,157.2,208.9,155.8,211.4,158.3z"/>
	<g>
		<g>
			<path class="st0" d="M168.4,303.3c0,6.7-0.2,58.2-8.2,66.7c-9.1,9.8-19.9,14-22.8,8c-2.9-6-27.4-103.2-23.7-109.9
				c1.3-2.3,15.6,34.6,32,35.7C167.7,305.2,168.5,287.2,168.4,303.3z"/>
			<path class="st0" d="M163.3,363c6.3,1,14.8,2.3,16.3,7c0.9,2.8,4.9,8.2-1.8,10.8c-6.7,2.6-26.1,8.5-38.2-0.3
				C130.3,373.7,163.3,363,163.3,363z"/>
		</g>
		<g>
			<path class="st1" d="M112.5,243.5c-8.1,70.6,22,128.5,24.9,134.5c0.5,1,0.3,0.8,1.8,2.2c10.1,9.3,35.6,4.3,41.3-1
				c3.9-3.7,1.4-10-2.6-12.4c-3.9-2.3-14.6-3.8-14.6-3.8c5.8-24.5,6.2-54.6,6.2-60.4c0,0-1.7-6-3.7,13.1
				c-2.4,22.3-3.9,42.2-6.1,48.8c-0.3,1,10.5,1.7,15.1,4.8c3.3,2.3,1.3,8.4-5.8,10.4c-6.6,1.8-19.1,1.9-27.2-2.7
				c-1.5-0.8-2.3-3.6-3-5c-1.7-3.8-3.1-7.7-4.5-11.6c-4.2-12-7.7-24.3-10.7-36.7c-5-20.6-8.2-48.7-9.5-69.7
				C114,251.8,112.7,245.4,112.5,243.5z"/>
			<g>
				<path class="st2" d="M173,382.5c-0.7-0.2-0.2-2.6,1.4-2.7c0.9,0,3.4,2.1,3,3.2c-0.3,0.8-1.7,0.3-2.2,0.1
					C174.2,382.7,174,382.7,173,382.5z"/>
				<path class="st2" d="M177.3,379c-0.9-0.1-0.6-3.2,1.4-3.6c1.1-0.2,4.6,2.1,4.1,3.5c-0.3,1.1-2.1,0.6-2.8,0.4
					C178.8,379.1,178.6,379.2,177.3,379z"/>
				<path class="st2" d="M179,373.6c-0.9-0.2-0.6-3.3,1.6-3.6c1.1-0.1,4.6,2.4,4.2,3.8c-0.4,1.1-2.2,0.5-2.9,0.3
					C180.5,373.8,180.3,373.8,179,373.6z"/>
			</g>
		</g>
	</g>
	<path class="st3" d="M204,157.1c1.8,0.1,13.9,36.7,18.6,63c6.6,36.6,2.5,60.5-12.3,69.8c-13.7,8.6-41.2,4.4-48.9-31.4
		c-3.3-15.2,0.3-28.6-5-58.8c-3.3-18.6-8.1-42.8-3.8-42.5C179.9,159,201.3,157,204,157.1z"/>
	<path class="st4" d="M151.9,157.2c24.3-1.2,33-0.8,52.6-0.3c0,0,12.3,20.3-10.8,24C151.2,187.8,151.9,157.2,151.9,157.2z"/>
</g>
<g id="Body_new_2_00000008111037037088706520000010709097256336064652_" class="st5">
	<g class="st6">
		<path class="st0" d="M216.9,204.3c-7.6-7.9-10.3-11.2-15.5-20.4c-5.4-9.5-5.5-19.8-4.6-27c3.3,0,6.7,0.1,10,0.1
			c4.6,0,8.5,1.7,12.1,4.5c4.1,3.1,4.5,4.5,11.9,10.4c11.1,8.7,22.3,21.9,23.7,25.3c5.4,12.3,7,33.5-4.8,32.3
			C239.6,228.3,219.9,207.4,216.9,204.3z"/>
		<g>
			<path class="st0" d="M270.3,219.9c8.8-6.4,32.8-30.6,34-31.7c2.7-2.5,6.7-1.9,11.8-3.1c4.9-1.1,7.1-1.9,7.7-3.3
				c1-2.1-4.3-3.7-11.5-2.7c0,0,10.4-4.7,9.2-8.2c-1.7-5-16.2,0-17,0.5c0,0,9.2-6.1,6.9-8.7c-2.8-3.3-13.5,1.9-15.7,4.1
				c0,0,1.4-4.3-0.5-6.4c-2.3-2.5-8.1,3.4-8.5,10.4c-0.3,5.8-5.3,9.9-12.9,14.2c-6.5,3.7-14.9,9-25.2,14.3
				c-24,12.2-22.5,8.1-13.1,19C244.9,229.2,248.4,235.9,270.3,219.9z"/>
			<path class="st1" d="M260,222.1c7.4-5.4,12-7.8,23.7-18.9c7.3-6.9,16.7-14.9,19.8-17.5c2.4-2,8.3-1.3,10.9-1.8
				c1-0.2,2.1-0.2,2.6-0.3c4.2-1,2.8-4-0.2-4.2c-1.1-0.1-2.2-0.3-4.5-0.5c7.2-1,12.5,0.7,11.5,2.7c-0.7,1.4-2.9,2.2-7.7,3.3
				c-5.2,1.2-9.1,0.6-11.8,3.1c-1.2,1.1-21.1,23.6-32.4,31.6c-5.3,3.8-9.3,6.2-13.1,8.4c-4.2,2.5-8.8,4.5-13.7,1.5
				c-2.8-1.6-16.9-13.4-28.1-25.4c-9-9.7-15.5-19.8-16.8-22.8c-1.2-2.8,8.2,9.7,20.5,22c9.7,9.6,22.1,19,26,21.5
				C249.6,226.9,254.5,226.2,260,222.1z"/>
			<path class="st1" d="M238.8,183.6c-5.4-5.8-5.1-6-7.7-8.6c-6.9-6.8-8.5-10.1-7.8-9.8c0.7,0.4,10.8,8.5,18.5,16.4
				c3.9,4.1,7.4,7.6,10.5,11.4l1.4,1.9c10.3-5.2,13.8-6.5,20.2-10.1c7.5-4.3,12.2-8.4,12.8-14.1c0,0,1.9,9.5-7.3,15.4
				c-14.2,9-18.5,10.2-27.6,14.2C251.9,200.4,246.1,191.6,238.8,183.6z"/>
			<path class="st1" d="M312.3,179c0,0,10.5-4.7,9.3-8.1c-1.7-5-16.2,0-17,0.5c0,0,9.2-6.1,6.9-8.7c-2.8-3.3-13.5,1.9-15.7,4.1
				c0,0,1.4-4.3-0.5-6.4c-2.3-2.5-8.5,3.2-8.5,10.4c0,0,2.5-7.1,5.7-7.6c2.4-0.4,1,6.1,0.6,7.8c-0.4,1.7,11.7-9.4,14.3-5.7
				c1.5,2-5.7,7.5-5.7,7.5s7.5-1,12.8-1.9c1.4-0.3,2.5,0.3,3,1.1c0.8,1.2,0.7,2.4-0.3,3.6C315.5,177.4,312.3,179,312.3,179z"/>
			<path class="st2" d="M318.7,169.7c-0.9,0.4-0.4,3.3,1.7,3.1c1.1-0.1,4.5-3.2,3.9-4.5c-0.4-0.9-2.2,0-2.8,0.3
				C320.2,169.2,319.9,169.2,318.7,169.7z"/>
			<path class="st2" d="M308.3,162.5c-0.9,0.4-0.1,3.3,2,2.9c1.1-0.2,4.2-3.6,3.6-4.7c-0.5-0.9-2.2,0.2-2.8,0.5
				C309.7,161.9,309.5,161.9,308.3,162.5z"/>
			<path class="st2" d="M295,162.8c-0.5,0.9-3.3,0-2.8-2.1c0.2-1.1,3.7-4.1,4.9-3.4c0.9,0.5-0.3,2.2-0.6,2.8
				C295.7,161.3,295.7,161.6,295,162.8z"/>
			<path class="st2" d="M321.4,179.7c-1-0.1-1.3,2.6,0.5,3.1c0.9,0.2,4.4-1.7,4.3-2.5c-0.1-0.7-0.6-0.8-2.2-0.5
				C323,179.9,322.6,179.8,321.4,179.7z"/>
		</g>
	</g>
	<g class="st6">
		<g>
			<path class="st0" d="M233.1,249.3c-0.5,6.7-7.1,108.4-17.3,117c-10.2,8.6-20.8,12.6-23.3,6.4c-2.5-6.2-14.3-56.6-10.2-63
				c1.4-2.2,13.4-2.4,23.7-9.4C225.5,286.9,234.4,233.2,233.1,249.3z"/>
			<path class="st0" d="M219.4,359.5c6.2,1.5,14.6,3.3,15.8,8.1c0.7,2.9,4.3,8.5-2.6,10.6c-6.9,2.1-26.6,6.7-38.1-2.9
				C185.7,367.9,219.4,359.5,219.4,359.5z"/>
		</g>
		<g>
			<path class="st1" d="M180.1,317.2c-1.4,9.5,10,49.2,12.5,55.5c0.4,1,0.3,0.8,1.7,2.3c9.5,10,35.2,6.8,41.3,1.8
				c4.1-3.4,2.1-9.8-1.7-12.5c-3.7-2.6-14.3-4.8-14.3-4.8c7.5-24,12.2-91,12.7-96.7c0,0-5.1,26.8-8.6,48.9
				c-3.5,22.1-5.1,42.7-7.7,49.2c-0.4,0.9,10.4,2.5,14.7,5.8c3.2,2.5,0.7,8.5-6.5,9.9c-6.7,1.4-19.7,3.1-26.9-4.6
				c-1.8-1.9-9.5-39.4-13.8-54.6C181.5,311.6,180.1,317.2,180.1,317.2z"/>
			<g>
				<path class="st2" d="M234.3,368.9c-0.7-0.1-0.4-2.6,1.3-2.8c0.9-0.1,3.5,1.9,3.1,3c-0.3,0.8-1.7,0.4-2.2,0.2
					C235.5,369.1,235.3,369.1,234.3,368.9z"/>
				<path class="st2" d="M232.7,374.9c-0.9-0.2-0.5-3.3,1.5-3.5c1.1-0.1,4.5,2.3,4,3.6c-0.4,1.1-2.1,0.5-2.8,0.4
					C234.2,375.1,234,375.1,232.7,374.9z"/>
				<path class="st2" d="M228.6,379.4c-0.9-0.3-0.3-3.4,1.9-3.4c1.1,0,4.4,2.8,3.8,4.1c-0.4,1-2.2,0.3-2.9,0.1
					C230.1,379.8,229.9,379.8,228.6,379.4z"/>
			</g>
		</g>
	</g>
	<g class="st6">
		<path class="st1" d="M211.4,158.3c10.1,13.4,20.1,21.8,28,67.1c8,45.8-3.3,96.9-58.8,98.6c-25,0.8-46.5-5.7-61.2-36.7
			c-15.2-32-3.8-105.8,17.8-125.5c6.8-6.2,15.4-4.3,26.4-4.3c0,0,13.8-0.3,23.7-0.3C200.1,157.2,210.1,156.5,211.4,158.3z"/>
	</g>
	<path class="st7" d="M211.4,158.3c14.7,14.2,19.2,29.3,24.3,65.3c5.5,39.2,0.4,91.9-55.1,93.5c-25,0.8-53.2-6.8-63.5-39.5
		c-7.3-23.2-7.3-82.9,20.1-115.9c6.3-7.6,15.4-4.3,26.4-4.3c0,0,13.8-0.3,23.7-0.3C200.1,157.2,209.3,156.2,211.4,158.3z"/>
	<g class="st6">
		<g>
			<path class="st0" d="M168.4,303.3c0,6.7-0.2,58.2-8.2,66.7c-9.1,9.8-19.9,14-22.8,8c-2.9-6-27.4-103.2-23.7-109.9
				c1.3-2.3,15.6,34.6,32,35.7C167.7,305.2,168.5,287.2,168.4,303.3z"/>
			<path class="st0" d="M163.3,363c6.3,1,14.8,2.3,16.3,7c0.9,2.8,4.9,8.2-1.8,10.8c-6.7,2.6-26.1,8.5-38.2-0.3
				C130.3,373.7,163.3,363,163.3,363z"/>
		</g>
		<g>
			<path class="st1" d="M112.5,243.5c-8.1,70.6,22,128.5,24.9,134.5c0.5,1,0.3,0.8,1.8,2.2c10.1,9.3,35.6,4.3,41.3-1
				c3.9-3.7,1.4-10-2.6-12.4c-3.9-2.3-14.6-3.8-14.6-3.8c5.8-24.5,6.2-54.6,6.2-60.4c0,0-1.7-6-3.7,13.1
				c-2.4,22.3-3.9,42.2-6.1,48.8c-0.3,1,10.5,1.7,15.1,4.8c3.3,2.3,1.3,8.4-5.8,10.4c-6.6,1.8-19.1,1.9-27.2-2.7
				c-1.5-0.8-2.3-3.6-3-5c-1.7-3.8-3.1-7.7-4.5-11.6c-4.2-12-7.7-24.3-10.7-36.7c-5-20.6-8.2-48.7-9.5-69.7
				C114,251.8,112.7,245.4,112.5,243.5z"/>
			<g>
				<path class="st2" d="M173,382.5c-0.7-0.2-0.2-2.6,1.4-2.7c0.9,0,3.4,2.1,3,3.2c-0.3,0.8-1.7,0.3-2.2,0.1
					C174.2,382.7,174,382.7,173,382.5z"/>
				<path class="st2" d="M177.3,379c-0.9-0.1-0.6-3.2,1.4-3.6c1.1-0.2,4.6,2.1,4.1,3.5c-0.3,1.1-2.1,0.6-2.8,0.4
					C178.8,379.1,178.6,379.2,177.3,379z"/>
				<path class="st2" d="M179,373.6c-0.9-0.2-0.6-3.3,1.6-3.6c1.1-0.1,4.6,2.4,4.2,3.8c-0.4,1.1-2.2,0.5-2.9,0.3
					C180.5,373.8,180.3,373.8,179,373.6z"/>
			</g>
		</g>
	</g>
	<path class="st8" d="M204,157.1c1.8,0.1,13.9,36.7,18.6,63c6.6,36.6,2.5,60.5-12.3,69.8c-13.7,8.6-41.2,4.4-48.9-31.4
		c-3.3-15.2,0.3-28.6-5-58.8c-3.3-18.6-8.7-43.1-2-42.7C181.7,158.8,201.3,157,204,157.1z"/>
	<path class="st9" d="M153.1,157.2c24.3-1.2,32.4-0.6,51.9-0.1c0,0,9.5,20.4-11.4,23.8C151.2,187.7,153.1,157.2,153.1,157.2z"/>
	<path class="st7" d="M109.5,194.5c4-10.2,5.9-14.1,12.2-22.6c11.4-15.6,25.4-15.1,25.4-15.1c-1,8.9,3.9,11.8-2.2,36.8
		c-3.3,13.7-10.7,29.3-13.1,32.1c-9,10-27.6,20.3-31.4,9.1C97,225.1,107.9,198.6,109.5,194.5z"/>
	<g class="st6">
		<g>
			<path class="st0" d="M117.4,249.6c9.5,5.3,41.5,17.1,43,17.8c3.4,1.4,4.5,5.3,7.7,9.5c3,4,4.7,5.6,6.2,5.7
				c2.3,0.1,1.6-5.5-2.3-11.6c0,0,8.6,7.5,11.3,5c3.9-3.6-6.7-14.8-7.6-15.3c0,0,9.3,5.8,10.8,2.6c1.8-3.9-7.3-11.5-10.2-12.6
				c0,0,4.5-0.5,5.6-3.1c1.4-3.1-6.5-6-13-3.5c-5.4,2.1-11.2-0.8-18.3-5.9c-6.1-4.4-14.4-9.8-23.5-17c-21.1-16.8-16.7-17.1-22.7-4
				C98.5,230.3,93.8,236.3,117.4,249.6z"/>
			<path class="st1" d="M111.1,241.2c8,4.5,12.1,7.7,27.1,13.7c9.3,3.8,20.5,9,24.1,10.8c2.8,1.4,4.6,7,6.1,9.2
				c0.6,0.9,1.1,1.8,1.4,2.2c2.6,3.5,4.7,0.9,3.7-2c-0.4-1-0.7-2.1-1.4-4.3c3.9,6.1,4.6,11.7,2.3,11.6c-1.5,0-3.2-1.7-6.2-5.7
				c-3.2-4.2-4.3-8.1-7.7-9.5c-1.5-0.6-30.2-9.4-42.2-16.4c-5.7-3.3-9.4-5.9-13.1-8.4c-4-2.8-7.7-6.1-7.1-11.9
				c0.3-3.2,5.2-21,11.5-36.1c5.1-12.2,11.6-22.3,13.8-24.7c2.1-2.3-5.4,11.5-11.5,27.7c-4.8,12.8-8.1,28-8.7,32.6
				C102.5,233.7,105.2,237.8,111.1,241.2z"/>
			<path class="st1" d="M137.4,205.9c3.1-7.3,3.3-7.1,4.6-10.6c3.4-9.1,5-12.3,5.1-11.5c0.2,1.9-1.8,13.3-5.8,23.6
				c-2.1,5.2-4.9,11.5-6.9,14.7l-1.1,2.1c9,7.2,11.6,9.8,17.6,14.2c7,5.1,12.7,7.6,18.1,5.8c0,0-7.9,5.7-17-0.2
				c-14.1-9.2-17-12.6-24.4-19.2C127.6,224.7,133.2,215.9,137.4,205.9z"/>
			<path class="st1" d="M172.1,270.9c0,0,8.6,7.6,11.2,5.1c3.9-3.6-6.7-14.8-7.6-15.3c0,0,9.3,5.8,10.8,2.6
				c1.8-3.9-7.3-11.5-10.2-12.6c0,0,4.5-0.5,5.6-3.1c1.4-3.1-6.4-6.4-13-3.5c0,0,7.5-0.6,9.3,2c1.4,2.1-5.1,3.4-6.9,3.8
				c-1.7,0.4,13.4,6.7,11.2,10.6c-1.2,2.2-9.2-2.1-9.2-2.1s4,6.5,7.1,10.8c0.8,1.1,0.7,2.4,0.3,3.1c-0.7,1.2-1.9,1.6-3.4,1.2
				C174.9,273.1,172.1,270.9,172.1,270.9z"/>
			<path class="st2" d="M183.2,272.8c-0.7-0.7-3.1,1-2.1,2.9c0.6,1,4.8,2.7,5.7,1.7c0.7-0.8-0.9-2-1.5-2.5
				C184.3,273.9,184.2,273.7,183.2,272.8z"/>
			<path class="st2" d="M185.4,260.3c-0.8-0.6-3.1,1.2-1.8,3c0.6,0.9,5,2.4,5.8,1.3c0.6-0.8-1-1.9-1.6-2.4
				C186.6,261.4,186.5,261.2,185.4,260.3z"/>
			<path class="st2" d="M179.7,248.4c-1-0.1-1.4-3,0.7-3.4c1.1-0.2,5.2,1.7,5.1,3.1c-0.1,1-2.1,0.7-2.8,0.6
				C181.3,248.4,181,248.5,179.7,248.4z"/>
			<path class="st2" d="M175.2,279.5c-0.4-1-2.9-0.1-2.6,1.7c0.2,0.9,3.4,3.3,4.1,2.9c0.6-0.3,0.5-0.9-0.4-2.2
				C175.7,280.9,175.6,280.5,175.2,279.5z"/>
		</g>
	</g>
</g>
<g id="Body_new_3" class="st5">
	<g class="st6">
		<path class="st0" d="M223.6,198.8c-8-4.4-11.5-7.1-17.1-15.4c-6.9-10.2-3.7-26.3-2.5-26.3c5.4-0.2,8.2-2,26.7,10.9
			c11.1,7.8,25.9,15,27.9,17.8c7.3,10.4,12.7,29.5,1.1,30.4C249.7,217,227.3,200.8,223.6,198.8z"/>
		<g>
			<path class="st0" d="M277.8,204.1c7.3-7.4,26.2-33.5,27.2-34.7c2.2-2.8,6.1-2.9,10.9-4.8c4.5-1.8,6.5-3,6.9-4.3
				c0.6-2-4.8-2.7-11.6-0.6c0,0,9.2-6,7.5-9c-2.5-4.3-15.7,2.7-16.3,3.3c0,0,7.8-7.1,5.1-9.1c-3.3-2.5-12.7,4-14.4,6.4
				c0,0,0.6-4.2-1.6-5.8c-2.6-1.9-7.2,4.5-6.4,10.9c0.7,5.4-3.4,9.9-10,15.2c-5.6,4.5-12.7,10.8-21.8,17.3
				c-21,15.2-20.2,11.1-9.3,19.6C255,216.9,259.6,222.4,277.8,204.1z"/>
			<path class="st1" d="M268.3,207.9c6.2-6.2,10.2-9.2,19.5-21.3c5.8-7.6,13.4-16.4,16-19.3c2-2.2,7.7-2.6,10.2-3.4
				c1-0.3,1.9-0.5,2.4-0.7c3.9-1.6,2-4.1-1-3.8c-1.1,0.1-2.2,0.1-4.4,0.3c6.8-2.1,12.2-1.5,11.6,0.6c-0.4,1.4-2.4,2.5-6.9,4.3
				c-4.8,1.9-8.7,2-10.9,4.8c-1,1.2-16.2,25.1-25.7,34.4c-4.5,4.4-7.8,7.2-11.2,9.9c-3.6,3-7.7,5.6-13,3.7s-30.8-17.7-35.2-20.7
				c-4.4-3,26.4,12.5,35.9,16.1C259.2,214,263.7,212.5,268.3,207.9z"/>
			<path class="st1" d="M240.7,177.5c-6.2-4.4-12.2-8.7-15.2-10.7c-7.8-5.1-13.2-9-12.4-8.9c1.8,0.3,20.7,10.3,29.5,16.3
				c4.5,3.1,9.9,7.1,12.8,9l1.7,1.5c9-6.5,12.6-8.8,18.1-13.2c6.5-5.2,10.3-9.8,9.9-15c0,0,3.5,8.4-4.3,15.3
				c-12.1,10.6-16.1,12.4-24.1,17.6C256.7,189.3,249.2,183.5,240.7,177.5z"/>
			<path class="st1" d="M311.2,159.7c0,0,9.3-6,7.5-9c-2.5-4.3-15.7,2.7-16.3,3.3c0,0,7.8-7.1,5.1-9.1c-3.3-2.5-12.7,4-14.4,6.4
				c0,0,0.6-4.2-1.6-5.8c-2.6-1.9-7.6,4.3-6.4,10.9c0,0,1.2-6.9,4.1-7.9c2.3-0.8,2,5.4,2,7.1c-0.1,1.7,9.6-10.5,12.8-7.6
				c1.8,1.6-4.2,7.8-4.2,7.8s7.1-2.1,12-3.9c1.3-0.5,2.5-0.1,3,0.5c1,0.9,1.1,2.1,0.3,3.3C313.9,157.7,311.2,159.7,311.2,159.7z"/>
			<path class="st2" d="M315.7,150.1c-0.8,0.5,0.2,3.1,2.2,2.5c1-0.3,3.7-3.7,3-4.8c-0.6-0.8-2.1,0.4-2.7,0.7
				C317,149.4,316.8,149.4,315.7,150.1z"/>
			<path class="st2" d="M304.4,145.3c-0.8,0.6,0.4,3,2.4,2.3c1-0.4,3.4-4,2.6-4.9c-0.6-0.8-2.1,0.5-2.6,0.9
				C305.7,144.4,305.5,144.5,304.4,145.3z"/>
			<path class="st2" d="M291.7,147.7c-0.3,0.9-3.2,0.5-3.1-1.4c0-1,2.9-4.3,4.1-3.9c0.9,0.3,0.1,2-0.1,2.7
				C292.1,146.3,292.1,146.5,291.7,147.7z"/>
			<path class="st2" d="M320.1,158.8c-1,0.1-0.8,2.6,1,2.7c0.9,0.1,3.9-2.3,3.7-3c-0.2-0.6-0.8-0.7-2.2-0.1
				C321.6,158.8,321.2,158.7,320.1,158.8z"/>
		</g>
	</g>
	<g class="st6">
		<g>
			<path class="st0" d="M233.1,249.3c-0.5,6.7-7.1,108.4-17.3,117c-10.2,8.6-20.8,12.6-23.3,6.4c-2.5-6.2-14.3-56.6-10.2-63
				c1.4-2.2,13.4-2.4,23.7-9.4C225.5,286.9,234.4,233.2,233.1,249.3z"/>
			<path class="st0" d="M219.4,359.5c6.2,1.5,14.6,3.3,15.8,8.1c0.7,2.9,4.3,8.5-2.6,10.6c-6.9,2.1-26.6,6.7-38.1-2.9
				C185.7,367.9,219.4,359.5,219.4,359.5z"/>
		</g>
		<g>
			<path class="st1" d="M180.1,317.2c-1.4,9.5,10,49.2,12.5,55.5c0.4,1,0.3,0.8,1.7,2.3c9.5,10,35.2,6.8,41.3,1.8
				c4.1-3.4,2.1-9.8-1.7-12.5c-3.7-2.6-14.3-4.8-14.3-4.8c7.5-24,12.2-91,12.7-96.7c0,0-5.1,26.8-8.6,48.9
				c-3.5,22.1-5.1,42.7-7.7,49.2c-0.4,0.9,10.4,2.5,14.7,5.8c3.2,2.5,0.7,8.5-6.5,9.9c-6.7,1.4-19.7,3.1-26.9-4.6
				c-1.8-1.9-9.5-39.4-13.8-54.6C181.5,311.6,180.1,317.2,180.1,317.2z"/>
			<g>
				<path class="st2" d="M234.3,368.9c-0.7-0.1-0.4-2.6,1.3-2.8c0.9-0.1,3.5,1.9,3.1,3c-0.3,0.8-1.7,0.4-2.2,0.2
					C235.5,369.1,235.3,369.1,234.3,368.9z"/>
				<path class="st2" d="M232.7,374.9c-0.9-0.2-0.5-3.3,1.5-3.5c1.1-0.1,4.5,2.3,4,3.6c-0.4,1.1-2.1,0.5-2.8,0.4
					C234.2,375.1,234,375.1,232.7,374.9z"/>
				<path class="st2" d="M228.6,379.4c-0.9-0.3-0.3-3.4,1.9-3.4c1.1,0,4.4,2.8,3.8,4.1c-0.4,1-2.2,0.3-2.9,0.1
					C230.1,379.8,229.9,379.8,228.6,379.4z"/>
			</g>
		</g>
	</g>
	<g class="st6">
		<path class="st1" d="M211.4,158.3c10.3,13.2,20.1,21.8,28,67.1c8,45.8-3.3,96.9-58.8,98.6c-25,0.8-46.5-5.7-61.2-36.7
			c-15.2-32-3.8-105.8,17.8-125.5c6.8-6.2,15.4-4.3,26.4-4.3c0,0,13.8-0.3,23.7-0.3C200.1,157.2,209.6,156,211.4,158.3z"/>
	</g>
	<path class="st7" d="M211.4,157.9c14.7,14.2,19.2,29.7,24.3,65.7c5.5,39.2,0.4,91.9-55.1,93.5c-25,0.8-53.2-6.8-63.5-39.5
		c-7.3-23.2,3.3-92,20.1-115.9c6.3-9,15.4-4.3,26.4-4.3c0,0,13.8-0.3,23.7-0.3C200.1,157.2,208.9,155.5,211.4,157.9z"/>
	<g class="st6">
		<g>
			<path class="st0" d="M168.4,303.3c0,6.7-0.2,58.2-8.2,66.7c-9.1,9.8-19.9,14-22.8,8c-2.9-6-27.4-103.2-23.7-109.9
				c1.3-2.3,15.6,34.6,32,35.7C167.7,305.2,168.5,287.2,168.4,303.3z"/>
			<path class="st0" d="M163.3,363c6.3,1,14.8,2.3,16.3,7c0.9,2.8,4.9,8.2-1.8,10.8c-6.7,2.6-26.1,8.5-38.2-0.3
				C130.3,373.7,163.3,363,163.3,363z"/>
		</g>
		<g>
			<path class="st1" d="M112.5,243.5c-8.1,70.6,22,128.5,24.9,134.5c0.5,1,0.3,0.8,1.8,2.2c10.1,9.3,35.6,4.3,41.3-1
				c3.9-3.7,1.4-10-2.6-12.4c-3.9-2.3-14.6-3.8-14.6-3.8c5.8-24.5,6.2-54.6,6.2-60.4c0,0-1.7-6-3.7,13.1
				c-2.4,22.3-3.9,42.2-6.1,48.8c-0.3,1,10.5,1.7,15.1,4.8c3.3,2.3,1.3,8.4-5.8,10.4c-6.6,1.8-19.1,1.9-27.2-2.7
				c-1.5-0.8-2.3-3.6-3-5c-1.7-3.8-3.1-7.7-4.5-11.6c-4.2-12-7.7-24.3-10.7-36.7c-5-20.6-8.2-48.7-9.5-69.7
				C114,251.8,112.7,245.4,112.5,243.5z"/>
			<g>
				<path class="st2" d="M173,382.5c-0.7-0.2-0.2-2.6,1.4-2.7c0.9,0,3.4,2.1,3,3.2c-0.3,0.8-1.7,0.3-2.2,0.1
					C174.2,382.7,174,382.7,173,382.5z"/>
				<path class="st2" d="M177.3,379c-0.9-0.1-0.6-3.2,1.4-3.6c1.1-0.2,4.6,2.1,4.1,3.5c-0.3,1.1-2.1,0.6-2.8,0.4
					C178.8,379.1,178.6,379.2,177.3,379z"/>
				<path class="st2" d="M179,373.6c-0.9-0.2-0.6-3.3,1.6-3.6c1.1-0.1,4.6,2.4,4.2,3.8c-0.4,1.1-2.2,0.5-2.9,0.3
					C180.5,373.8,180.3,373.8,179,373.6z"/>
			</g>
		</g>
	</g>
	<path class="st8" d="M204,157.1c1.8,0.1,13.9,36.7,18.6,63c6.6,36.6,2.5,60.5-12.3,69.8c-13.7,8.6-41.2,4.4-48.9-31.4
		c-3.3-15.2,0.3-28.6-5-58.8c-3.3-18.6-10.9-43.9-4.2-43.5C179.5,158,201.3,157,204,157.1z"/>
	<path class="st9" d="M151.2,156.3c24.3-1.2,33.6-0.1,53.1,0.3c0,0,12.5,20.5-10.6,24.2C151.2,187.8,151.2,156.3,151.2,156.3z"/>
	<g class="st6">
		<path class="st0" d="M115,203c8.2-4.8,11.8-7.7,17.5-16.5c7.1-10.9,16.3-30.2,14.9-30.2c-12.6-0.3-20.7-0.2-39.6,13.7
			c-11.3,8.3-26.5,16.1-28.5,19.2c-7.5,11.2-12.9,31.7-1.1,32.7C88.4,222.5,111.3,205.1,115,203z"/>
		<g>
			<path class="st0" d="M59.7,208.7c-7.5-7.9-26.8-36-27.8-37.3c-2.2-3-6.2-3.1-11.1-5.2c-4.6-2-6.6-3.2-7-4.6
				c-0.6-2.2,4.9-2.9,11.8-0.6c0,0-9.4-6.5-7.6-9.7c2.6-4.6,16,2.9,16.7,3.6c0,0-7.9-7.6-5.2-9.8c3.4-2.7,13,4.3,14.7,6.8
				c0,0-0.6-4.5,1.6-6.2c2.7-2.1,7.4,4.8,6.5,11.7c-0.7,5.8,3.5,10.7,10.2,16.3c5.7,4.8,13,11.6,22.3,18.6c21.4,16.3,20.7,12,9.5,21
				C83.1,222.4,78.4,228.4,59.7,208.7z"/>
			<path class="st1" d="M69.4,212.8c-6.3-6.6-10.4-9.8-20-22.9c-6-8.1-13.7-17.7-16.3-20.7c-2.1-2.4-7.9-2.8-10.4-3.7
				c-1-0.3-2-0.6-2.5-0.8c-4-1.7-2-4.4,1-4c1.1,0.1,2.2,0.1,4.5,0.4c-6.9-2.2-12.4-1.6-11.8,0.6c0.4,1.5,2.4,2.7,7,4.6
				c4.9,2.1,8.9,2.2,11.1,5.2c1,1.3,16.5,27,26.2,36.9c4.6,4.7,8,7.7,11.4,10.6c3.7,3.2,7.8,6,13.2,4c5.4-2,31.5-19.1,35.9-22.2
				c4.5-3.2-26.9,13.4-36.7,17.3C78.8,219.3,74.1,217.7,69.4,212.8z"/>
			<path class="st1" d="M97.6,180.1c6.4-4.8,12.4-9.4,15.5-11.5c8-5.5,13.5-9.7,12.7-9.6c-1.9,0.3-21.1,11.1-30.1,17.5
				c-4.6,3.3-10.1,7.6-13.1,9.7l-1.7,1.6c-9.2-6.9-12.8-9.4-18.5-14.2c-6.7-5.6-10.5-10.5-10.1-16.1c0,0-3.6,9,4.4,16.4
				c12.3,11.4,16.4,13.4,24.6,18.9C81.3,192.8,89,186.6,97.6,180.1z"/>
			<path class="st1" d="M25.7,161c0,0-9.5-6.5-7.7-9.7c2.6-4.6,16,2.9,16.7,3.6c0,0-7.9-7.6-5.2-9.8c3.4-2.7,13,4.3,14.7,6.8
				c0,0-0.6-4.5,1.6-6.2c2.7-2.1,7.8,4.7,6.5,11.7c0,0-1.2-7.4-4.2-8.5c-2.3-0.8-2.1,5.8-2,7.6c0.1,1.8-9.8-11.3-13-8.2
				c-1.8,1.7,4.3,8.4,4.3,8.4s-7.2-2.3-12.2-4.2c-1.3-0.5-2.5-0.1-3.1,0.5c-1,1-1.1,2.2-0.3,3.6C22.9,158.8,25.7,161,25.7,161z"/>
			<path class="st2" d="M21.1,150.7c0.9,0.5-0.2,3.3-2.3,2.7c-1.1-0.3-3.8-4-3.1-5.1c0.6-0.9,2.1,0.4,2.7,0.8
				C19.7,149.9,19.9,150,21.1,150.7z"/>
			<path class="st2" d="M32.6,145.5c0.8,0.6-0.4,3.3-2.5,2.5c-1-0.4-3.5-4.3-2.7-5.3c0.6-0.8,2.1,0.5,2.7,1
				C31.3,144.6,31.5,144.7,32.6,145.5z"/>
			<path class="st2" d="M45.6,148.1c0.3,1,3.3,0.6,3.2-1.6c0-1.1-3-4.7-4.2-4.2c-1,0.4-0.1,2.2,0.1,2.9
				C45.2,146.6,45.2,146.8,45.6,148.1z"/>
			<path class="st2" d="M16.6,160c1,0.1,0.8,2.8-1,2.9c-0.9,0.1-4-2.5-3.8-3.2c0.2-0.6,0.8-0.7,2.2-0.1C15,160,15.5,159.9,16.6,160z
				"/>
		</g>
	</g>
</g>
<g id="Body_new_4" class="st5">
	<g class="st6">
		<path class="st0" d="M237.1,203c-8.2-4.8-11.8-7.7-17.5-16.5c-7.1-10.9-14-32.9-12.8-32.7c8.1,1,18.7,2.3,37.5,16.2
			c11.3,8.3,26.5,16.1,28.5,19.2c7.5,11.2,12.9,31.7,1.1,32.7C263.7,222.5,240.8,205.1,237.1,203z"/>
		<path class="st0" d="M299.9,157.5c0.4,5.8-3.5,10.7-10.2,16.3c-5.7,4.8-13,11.6-22.3,18.6c-21.4,16.3-20.7,12-9.5,21
			c11.2,9,15.9,15,34.5-4.6c7.5-7.9,26.8-36,27.8-37.3c0.8-1.1,2.6-2.7,2.9-3.9l-2.8-3.4l-2.9-9.2c0,0,9.2-8.8,6.5-11
			c-3.4-2.7-14.1,5.6-16,8c-0.1,0.1,0.7-0.1,0,0C302.4,152.5,299.7,155.6,299.9,157.5z"/>
		<path class="st1" d="M322.5,169.3c-1,0.5-1.7,1.3-2.4,2.2c-1,1.3-16.5,27-26.2,36.9c-4.6,4.7-8,7.7-11.4,10.6
			c-3.7,3.2-7.8,6-13.2,4c-5.4-2-31.5-19.1-35.9-22.2c-4.5-3.2,26.9,13.4,36.7,17.3c3.3,1.3,7.9-0.3,12.6-5.2
			c6.3-6.6,10.4-9.8,20-22.9c6-8.1,13.7-17.7,16.3-20.7c0.8-0.9,2.1-1.5,3.5-2L322.5,169.3z"/>
		<path class="st1" d="M254.5,180.1c-6.4-4.8-12.4-9.4-15.5-11.5c-8-5.5-13.5-9.7-12.7-9.6c1.9,0.3,21.1,11.1,30.1,17.5
			c4.6,3.3,10.1,7.6,13.1,9.7l1.7,1.6c9.2-6.9,12.8-9.4,18.5-14.2c6.7-5.6,9.9-11,10.2-16.6c0,0,3.5,9.5-4.5,16.9
			c-12.3,11.4-16.4,13.4-24.6,18.9C270.8,192.8,263.2,186.6,254.5,180.1z"/>
		<path class="st1" d="M317.5,155c-2.8,3-3.7,2.5-3.2,1.8c0,0,8-7.8,6.2-9.5c-1.8-1.8-9.5,5.2-12.5,8.2c0,0-3.8-0.1,0.1-3.4
			c1.7-2.5,12.6-10.7,16-8C326.7,146.2,317.5,155,317.5,155"/>
		<g>
			<path class="st2" d="M305.4,166.2c-0.2-1-3.1-1.1-3.4,1c-0.1,1.1,2.2,5.1,3.5,4.8c1-0.2,0.5-2.1,0.3-2.8
				C305.6,167.8,305.6,167.5,305.4,166.2z"/>
			<path class="st0" d="M307.4,162.6c0,0-0.2,4.6-2.6,5.9c-3,1.6-6.8-6-4.5-12.6C300.6,155.1,307.7,155.5,307.4,162.6z"/>
			<path class="st1" d="M307.4,163.2c0,0,0.1,4.3-2.3,5.6c-2.9,1.6-7.3-6.9-5.1-12.3c0.1-0.2,0.2-0.5,0.3-0.7c0,0,0.2,7,2.8,9.1
				c1.3,1,3-0.1,3.5-1.3c0.2-0.7,0.3-1.1,0.5-1.8L307.4,163.2z"/>
		</g>
		<path class="st2" d="M320.8,144.3c-0.8,0.6,0.4,3.3,2.5,2.5c1-0.4,3.5-4.3,2.7-5.3c-0.6-0.8-2.1,0.5-2.7,1
			C322.1,143.4,321.9,143.5,320.8,144.3z"/>
		<g>
			<g>
				<path class="st2" d="M309.3,164.8c0.8-0.6,3,1.4,1.6,3.1c-0.7,0.9-5.1,2-5.9,0.9c-0.6-0.9,1.2-1.8,1.8-2.2
					C308.1,165.8,308.2,165.6,309.3,164.8z"/>
				<path class="st0" d="M318.2,154c-1-0.1-13,9.5-9.4,14c2.3,2.8,11.8-3.5,11.8-3.5C321.9,161.5,319.6,154.1,318.2,154z"/>
			</g>
			<path class="st1" d="M318.2,154c-0.9,1,0.3,3.6-0.8,2.9c-1-0.6-3.3,2.3-4.5,3.8c-1.1,1.3-3.3,3.1-2.2,5.3
				c0.8,1.6,3.3-0.1,4.7-0.9c0.9-0.5,3.3-1.6,3.4-4.8c0.1-2.4,1.9,4.2,1.9,4.2l0,0c0,0-10,6.4-12,3.3
				C305.5,162.9,316.8,154,318.2,154L318.2,154z"/>
			<g>
				<path class="st2" d="M312,168.7c0.9-0.5,2.2,1.8,0.8,3c-0.7,0.6-4.7,0.3-5-0.4c-0.2-0.6,0.2-1,1.7-1.4
					C310.7,169.6,311,169.3,312,168.7z"/>
				<path class="st0" d="M320.3,164.1c-6.9,2.4-11.1,5.9-9.3,7.3c1.2,1,3.5,0.8,8.4-0.3c3.3-0.7,2.6-1.3,3.1-1.9
					C322.8,168.9,322.2,163.5,320.3,164.1z"/>
				<path class="st1" d="M322.5,169.3c-1.2,0.6-2.5,1.2-4,1.5c-2.6,0.6-3.4,1.1-5.4,0.9c-2.1-0.2-1.5-2.9,1.5-4.5
					c0.6-0.3,1.4-0.7,2.3-1.2c0.9-0.5,2-1,3-1.6c-0.1-0.7-2.5,0.5-3.6,0.9c-4.7,2.1-7.2,5.2-5.7,6.4c1.2,1,3.3,1.1,7.9-0.1
					c1.3-0.4,1.6-0.3,2.4-0.7C322.4,170.1,322.5,169.3,322.5,169.3z"/>
			</g>
			<path class="st1" d="M318.3,153.7c1.5,0.5,2.5,1.4,3,4s-0.3,5.3-0.6,6.4c0,0,2-0.1,2.5,2.4c0.4,2.1-0.3,3.3-1.5,4
				c-0.5,0.3-4.5,0.6-4.8,0.7s3.1-0.9,3.7-2.5c0.4-1.4-0.2-2.6-0.8-2.9c-0.9-0.4-3.1,0-4.5,0.9c-1.9,1.2-1.2-0.4-0.4-0.8
				c2.5-1.3,3.9-2.7,3.9-4c0.1-2.7-1.6-7.2-3.7-5c-2.1,2.1-2.9,2.5-2.9,2.5S316.9,153.3,318.3,153.7z"/>
		</g>
		<path class="st1" d="M307.1,165.5c0.5-1.5,0.6-3,0.7-6.5c0.1-3.6,0.1-3.6,0.1-3.6c0,2,0.1-3.4,0.1-3.4s-3.7,0.2-6.4,2.3
			c-1.8,1.5-2.1,4.1-2.1,4.7l1.7,2.5c0,0-0.6-2.6,0.6-4.8c1-1.9,3.5-2.1,4.1-1.2c0.7,1,1.4,8.6-1.3,9.8
			C303.2,165.9,306.3,167.8,307.1,165.5z"/>
	</g>
	<g class="st6">
		<g>
			<path class="st0" d="M233.1,249.3c-0.5,6.7-7.1,108.4-17.3,117c-10.2,8.6-20.8,12.6-23.3,6.4c-2.5-6.2-14.3-56.6-10.2-63
				c1.4-2.2,13.4-2.4,23.7-9.4C225.5,286.9,234.4,233.2,233.1,249.3z"/>
			<path class="st0" d="M219.4,359.5c6.2,1.5,14.6,3.3,15.8,8.1c0.7,2.9,4.3,8.5-2.6,10.6c-6.9,2.1-26.6,6.7-38.1-2.9
				C185.7,367.9,219.4,359.5,219.4,359.5z"/>
		</g>
		<g>
			<path class="st1" d="M180.1,317.2c-1.4,9.5,10,49.2,12.5,55.5c0.4,1,0.3,0.8,1.7,2.3c9.5,10,35.2,6.8,41.3,1.8
				c4.1-3.4,2.1-9.8-1.7-12.5c-3.7-2.6-14.3-4.8-14.3-4.8c7.5-24,12.2-91,12.7-96.7c0,0-5.1,26.8-8.6,48.9
				c-3.5,22.1-5.1,42.7-7.7,49.2c-0.4,0.9,10.4,2.5,14.7,5.8c3.2,2.5,0.7,8.5-6.5,9.9c-6.7,1.4-19.7,3.1-26.9-4.6
				c-1.8-1.9-9.5-39.4-13.8-54.6C181.5,311.6,180.1,317.2,180.1,317.2z"/>
			<g>
				<path class="st2" d="M234.3,368.9c-0.7-0.1-0.4-2.6,1.3-2.8c0.9-0.1,3.5,1.9,3.1,3c-0.3,0.8-1.7,0.4-2.2,0.2
					C235.5,369.1,235.3,369.1,234.3,368.9z"/>
				<path class="st2" d="M232.7,374.9c-0.9-0.2-0.5-3.3,1.5-3.5c1.1-0.1,4.5,2.3,4,3.6c-0.4,1.1-2.1,0.5-2.8,0.4
					C234.2,375.1,234,375.1,232.7,374.9z"/>
				<path class="st2" d="M228.6,379.4c-0.9-0.3-0.3-3.4,1.9-3.4c1.1,0,4.4,2.8,3.8,4.1c-0.4,1-2.2,0.3-2.9,0.1
					C230.1,379.8,229.9,379.8,228.6,379.4z"/>
			</g>
		</g>
	</g>
	<g class="st6">
		<path class="st1" d="M211.4,158.3c10.3,13.2,20.1,21.8,28,67.1c8,45.8-3.3,96.9-58.8,98.6c-25,0.8-46.5-5.7-61.2-36.7
			c-15.2-32-3.8-105.8,17.8-125.5c6.8-6.2,15.4-4.3,26.4-4.3c0,0,13.8-0.3,23.7-0.3C200.1,157.2,209.6,156,211.4,158.3z"/>
	</g>
	<path class="st7" d="M209.5,154.6c14.7,14.2,21.1,33,26.2,69c5.5,39.2,0.4,91.9-55.1,93.5c-25,0.8-53.2-6.8-63.5-39.5
		c-7.3-23.2-1.5-96.2,20.1-115.9c6.8-6.2,12.7-7.2,23.7-7.2c0,0,11.8-0.4,21.7-0.6C191.9,153.8,207.4,152.5,209.5,154.6z"/>
	<g class="st6">
		<g>
			<path class="st0" d="M168.4,303.3c0,6.7-0.2,58.2-8.2,66.7c-9.1,9.8-19.9,14-22.8,8c-2.9-6-27.4-103.2-23.7-109.9
				c1.3-2.3,15.6,34.6,32,35.7C167.7,305.2,168.5,287.2,168.4,303.3z"/>
			<path class="st0" d="M163.3,363c6.3,1,14.8,2.3,16.3,7c0.9,2.8,4.9,8.2-1.8,10.8c-6.7,2.6-26.1,8.5-38.2-0.3
				C130.3,373.7,163.3,363,163.3,363z"/>
		</g>
		<g>
			<path class="st1" d="M112.5,243.5c-8.1,70.6,22,128.5,24.9,134.5c0.5,1,0.3,0.8,1.8,2.2c10.1,9.3,35.6,4.3,41.3-1
				c3.9-3.7,1.4-10-2.6-12.4c-3.9-2.3-14.6-3.8-14.6-3.8c5.8-24.5,6.2-54.6,6.2-60.4c0,0-1.7-6-3.7,13.1
				c-2.4,22.3-3.9,42.2-6.1,48.8c-0.3,1,10.5,1.7,15.1,4.8c3.3,2.3,1.3,8.4-5.8,10.4c-6.6,1.8-19.1,1.9-27.2-2.7
				c-1.5-0.8-2.3-3.6-3-5c-1.7-3.8-3.1-7.7-4.5-11.6c-4.2-12-7.7-24.3-10.7-36.7c-5-20.6-8.2-48.7-9.5-69.7
				C114,251.8,112.7,245.4,112.5,243.5z"/>
			<g>
				<path class="st2" d="M173,382.5c-0.7-0.2-0.2-2.6,1.4-2.7c0.9,0,3.4,2.1,3,3.2c-0.3,0.8-1.7,0.3-2.2,0.1
					C174.2,382.7,174,382.7,173,382.5z"/>
				<path class="st2" d="M177.3,379c-0.9-0.1-0.6-3.2,1.4-3.6c1.1-0.2,4.6,2.1,4.1,3.5c-0.3,1.1-2.1,0.6-2.8,0.4
					C178.8,379.1,178.6,379.2,177.3,379z"/>
				<path class="st2" d="M179,373.6c-0.9-0.2-0.6-3.3,1.6-3.6c1.1-0.1,4.6,2.4,4.2,3.8c-0.4,1.1-2.2,0.5-2.9,0.3
					C180.5,373.8,180.3,373.8,179,373.6z"/>
			</g>
		</g>
	</g>
	<g class="st6">
		<path class="st0" d="M109.5,194.5c4-10.2,5.9-14.1,12.2-22.6c11.4-15.6,31.8-17.4,31.8-17.4c-1,8.9-2.5,14.1-8.6,39.1
			c-3.3,13.7-10.7,29.3-13.1,32.1c-9,10-27.6,20.3-31.4,9.1C97,225.1,107.9,198.6,109.5,194.5z"/>
		<g>
			<path class="st0" d="M117.4,249.6c9.5,5.3,41.5,17.1,43,17.8c3.4,1.4,4.5,5.3,7.7,9.5c3,4,4.7,5.6,6.2,5.7
				c2.3,0.1,1.6-5.5-2.3-11.6c0,0,8.6,7.5,11.3,5c3.9-3.6-6.7-14.8-7.6-15.3c0,0,9.3,5.8,10.8,2.6c1.8-3.9-7.3-11.5-10.2-12.6
				c0,0,4.5-0.5,5.6-3.1c1.4-3.1-6.5-6-13-3.5c-5.4,2.1-11.2-0.8-18.3-5.9c-6.1-4.4-14.4-9.8-23.5-17c-21.1-16.8-16.7-17.1-22.7-4
				C98.5,230.3,93.8,236.3,117.4,249.6z"/>
			<path class="st1" d="M111.1,241.2c8,4.5,12.1,7.7,27.1,13.7c9.3,3.8,20.5,9,24.1,10.8c2.8,1.4,4.6,7,6.1,9.2
				c0.6,0.9,1.1,1.8,1.4,2.2c2.6,3.5,4.7,0.9,3.7-2c-0.4-1-0.7-2.1-1.4-4.3c3.9,6.1,4.6,11.7,2.3,11.6c-1.5,0-3.2-1.7-6.2-5.7
				c-3.2-4.2-4.3-8.1-7.7-9.5c-1.5-0.6-30.2-9.4-42.2-16.4c-5.7-3.3-9.4-5.9-13.1-8.4c-4-2.8-7.7-6.1-7.1-11.9
				c0.3-3.2,5.2-21,11.5-36.1c5.1-12.2,11.6-22.3,13.8-24.7c2.1-2.3-5.4,11.5-11.5,27.7c-4.8,12.8-8.1,28-8.7,32.6
				C102.5,233.7,105.2,237.8,111.1,241.2z"/>
			<path class="st1" d="M137.4,205.9c3.1-7.3,3.3-7.1,4.6-10.6c3.4-9.1,5-12.3,5.1-11.5c0.2,1.9-1.8,13.3-5.8,23.6
				c-2.1,5.2-4.9,11.5-6.9,14.7l-1.1,2.1c9,7.2,11.6,9.8,17.6,14.2c7,5.1,12.7,7.6,18.1,5.8c0,0-7.9,5.7-17-0.2
				c-14.1-9.2-17-12.6-24.4-19.2C127.6,224.7,133.2,215.9,137.4,205.9z"/>
			<path class="st1" d="M172.1,270.9c0,0,8.6,7.6,11.2,5.1c3.9-3.6-6.7-14.8-7.6-15.3c0,0,9.3,5.8,10.8,2.6
				c1.8-3.9-7.3-11.5-10.2-12.6c0,0,4.5-0.5,5.6-3.1c1.4-3.1-6.4-6.4-13-3.5c0,0,7.5-0.6,9.3,2c1.4,2.1-5.1,3.4-6.9,3.8
				c-1.7,0.4,13.4,6.7,11.2,10.6c-1.2,2.2-9.2-2.1-9.2-2.1s4,6.5,7.1,10.8c0.8,1.1,0.7,2.4,0.3,3.1c-0.7,1.2-1.9,1.6-3.4,1.2
				C174.9,273.1,172.1,270.9,172.1,270.9z"/>
			<path class="st2" d="M183.2,272.8c-0.7-0.7-3.1,1-2.1,2.9c0.6,1,4.8,2.7,5.7,1.7c0.7-0.8-0.9-2-1.5-2.5
				C184.3,273.9,184.2,273.7,183.2,272.8z"/>
			<path class="st2" d="M185.4,260.3c-0.8-0.6-3.1,1.2-1.8,3c0.6,0.9,5,2.4,5.8,1.3c0.6-0.8-1-1.9-1.6-2.4
				C186.6,261.4,186.5,261.2,185.4,260.3z"/>
			<path class="st2" d="M179.7,248.4c-1-0.1-1.4-3,0.7-3.4c1.1-0.2,5.2,1.7,5.1,3.1c-0.1,1-2.1,0.7-2.8,0.6
				C181.3,248.4,181,248.5,179.7,248.4z"/>
			<path class="st2" d="M175.2,279.5c-0.4-1-2.9-0.1-2.6,1.7c0.2,0.9,3.4,3.3,4.1,2.9c0.6-0.3,0.5-0.9-0.4-2.2
				C175.7,280.9,175.6,280.5,175.2,279.5z"/>
		</g>
	</g>
	<path class="st8" d="M203.7,153.4c1.8,0.3,14.2,40.3,18.9,66.7c6.6,36.6,2.5,60.5-12.3,69.8c-13.7,8.6-41.2,4.4-48.9-31.4
		c-3.3-15.2,0.3-28.6-5-58.8c-3.3-18.6-9.6-45-3-45.2C179,154,198.2,152.6,203.7,153.4z"/>
	<path class="st9" d="M150.5,155c0.9-0.9,34.4-2,53.9-1.6c0,0,13.9,19.5-12.4,24.1C142.4,186,149.6,155.8,150.5,155z"/>
</g>
<g id="Body_new_5" class="st5">
	<g class="st6">
		<path class="st0" d="M220.3,206.4c-6.2-6-8.7-9.3-11.8-18.4c-3.8-11.2-8.1-31.4-3.5-31.2c1.6,0.1,3.8-0.3,5.3,0.4
			c4.9,2.1,11.8,7.9,23.6,21.6c8.3,9.7,18.6,16.3,19.8,21.6c2.6,11.9,6.3,32.2-4.3,30.3C243.6,229.7,223.2,209.1,220.3,206.4z"/>
		<g>
			<g>
				<path class="st0" d="M250.1,230.7c8.1,5.7,35.8,19.3,37.1,20c2.9,1.6,3.6,5.2,6.1,9.3c2.4,3.9,3.7,5.5,5.1,5.7
					c2.1,0.3,1.9-4.8-1-10.7c0,0,7.1,7.6,9.7,5.5c3.8-2.9-4.7-14-5.4-14.5c0,0,7.9,6.1,9.5,3.4c2-3.4-5.6-11.1-8.1-12.3
					c0,0,4.1-0.1,5.3-2.2c1.5-2.7-5.3-6-11.4-4.3c-5.1,1.4-10-1.7-16-7c-5.1-4.5-12.1-10.1-19.6-17.5c-17.5-17.1-13.5-17-20.1-5.7
					C234.7,211.6,230,216.6,250.1,230.7z"/>
				<path class="st1" d="M297.4,255c2.9,5.9,3,10.9,1,10.7c-1.4-0.2-2.7-1.8-5.1-5.7c-2.5-4.1-3.1-7.7-6.1-9.3
					c-1.3-0.7-26.7-12.6-37-18.3c-3.8-2.1-7.9-5.2-10.6-7.3c-6.4-5-19.8-19-23.6-24c-1.2-1.6,3.2,0,8.6,4.8
					c4.7,4.2,6.3,5.8,15.6,13.2c9.2,7.3,15.2,11.5,28.2,18.4c8.1,4.3,17.7,10,20.8,11.9c2.4,1.5,3.5,6.7,4.7,8.9
					c0.4,0.8,0.8,1.7,1,2.1c2.1,3.4,4.2,1.2,3.5-1.4C298,258,297.9,257,297.4,255z"/>
				<path class="st1" d="M221.3,165.3c1.9,0.8,3.7,3.3,5.1,4.7c2.9,2.9,5.6,5.8,8.4,8.7c9,9.2,18,18.5,27.1,27.6
					c7.4,7.3,14.4,12.9,19.4,17.4c5.9,5.2,11.1,8.2,15.8,6.9c0,0-8.4,5.5-16.1-0.6c-11.9-9.6-20.5-19.3-26.6-25.9
					c-2.5-2.7-8.5-9-11.6-12.7c-4.6-5.5-9-11.2-11.3-13.7C225.7,171.1,220.6,165.1,221.3,165.3z"/>
				<path class="st1" d="M297.4,255c0,0,7,7.6,9.7,5.6c3.8-2.9-4.7-14-5.4-14.5c0,0,7.9,6.1,9.5,3.4c2-3.4-5.6-11.1-8.1-12.3
					c0,0,4.1-0.1,5.3-2.2c1.5-2.7-5.2-6.4-11.4-4.3c0,0,6.8,0.1,8.2,2.7c1.1,2-4.9,2.6-6.5,2.8c-1.6,0.2,11.4,7.3,9.1,10.6
					c-1.3,1.9-8.1-2.7-8.1-2.7s3,6.2,5.4,10.4c0.6,1.1,0.4,2.2,0,2.8c-0.8,1-1.8,1.3-3.2,0.8C299.8,257.2,297.4,255,297.4,255z"/>
				<path class="st2" d="M307.3,257.7c-0.6-0.7-2.9,0.6-2.1,2.4c0.4,0.9,4.1,2.9,5,2.1c0.7-0.6-0.6-1.9-1.1-2.4
					C308.2,258.9,308.1,258.7,307.3,257.7z"/>
				<path class="st2" d="M310.4,246.7c-0.6-0.6-2.9,0.8-1.9,2.5c0.5,0.9,4.3,2.6,5.1,1.7c0.6-0.7-0.8-1.8-1.3-2.3
					C311.4,247.8,311.3,247.6,310.4,246.7z"/>
				<path class="st2" d="M306.3,235.4c-0.9-0.2-1-2.8,1-3c1-0.1,4.6,2,4.3,3.2c-0.2,0.9-1.9,0.4-2.6,0.3
					C307.8,235.6,307.6,235.6,306.3,235.4z"/>
			</g>
			<path class="st2" d="M299.5,263c-0.2-0.9-2.6-0.3-2.5,1.3c0.1,0.9,2.8,3.3,3.4,3c0.5-0.3,0.5-0.8-0.2-2
				C299.7,264.4,299.7,264,299.5,263z"/>
		</g>
	</g>
	<g class="st6">
		<g>
			<path class="st0" d="M233.1,249.3c-0.5,6.7-7.1,108.4-17.3,117c-10.2,8.6-20.8,12.6-23.3,6.4c-2.5-6.2-14.3-56.6-10.2-63
				c1.4-2.2,13.4-2.4,23.7-9.4C225.5,286.9,234.4,233.2,233.1,249.3z"/>
			<path class="st0" d="M219.4,359.5c6.2,1.5,14.6,3.3,15.8,8.1c0.7,2.9,4.3,8.5-2.6,10.6c-6.9,2.1-26.6,6.7-38.1-2.9
				C185.7,367.9,219.4,359.5,219.4,359.5z"/>
		</g>
		<g>
			<path class="st1" d="M180.1,317.2c-1.4,9.5,10,49.2,12.5,55.5c0.4,1,0.3,0.8,1.7,2.3c9.5,10,35.2,6.8,41.3,1.8
				c4.1-3.4,2.1-9.8-1.7-12.5c-3.7-2.6-14.3-4.8-14.3-4.8c7.5-24,12.2-91,12.7-96.7c0,0-5.1,26.8-8.6,48.9
				c-3.5,22.1-5.1,42.7-7.7,49.2c-0.4,0.9,10.4,2.5,14.7,5.8c3.2,2.5,0.7,8.5-6.5,9.9c-6.7,1.4-19.7,3.1-26.9-4.6
				c-1.8-1.9-9.5-39.4-13.8-54.6C181.5,311.6,180.1,317.2,180.1,317.2z"/>
			<g>
				<path class="st2" d="M234.3,368.9c-0.7-0.1-0.4-2.6,1.3-2.8c0.9-0.1,3.5,1.9,3.1,3c-0.3,0.8-1.7,0.4-2.2,0.2
					C235.5,369.1,235.3,369.1,234.3,368.9z"/>
				<path class="st2" d="M232.7,374.9c-0.9-0.2-0.5-3.3,1.5-3.5c1.1-0.1,4.5,2.3,4,3.6c-0.4,1.1-2.1,0.5-2.8,0.4
					C234.2,375.1,234,375.1,232.7,374.9z"/>
				<path class="st2" d="M228.6,379.4c-0.9-0.3-0.3-3.4,1.9-3.4c1.1,0,4.4,2.8,3.8,4.1c-0.4,1-2.2,0.3-2.9,0.1
					C230.1,379.8,229.9,379.8,228.6,379.4z"/>
			</g>
		</g>
	</g>
	<g class="st6">
		<path class="st1" d="M211.4,158.3c10.3,13.2,20.1,21.8,28,67.1c8,45.8-3.3,96.9-58.8,98.6c-25,0.8-46.5-5.7-61.2-36.7
			c-15.2-32-3.8-105.8,17.8-125.5c6.8-6.2,15.4-4.3,26.4-4.3c0,0,13.8-0.3,23.7-0.3C200.1,157.2,209.6,156,211.4,158.3z"/>
	</g>
	<path class="st7" d="M211.4,157.9c14.7,14.2,19.2,29.7,24.3,65.7c5.5,39.2,0.4,91.9-55.1,93.5c-25,0.8-53.2-6.8-63.5-39.5
		c-7.3-23.2-1.5-96.2,20.1-115.9c6.8-6.2,15.4-4.3,26.4-4.3c0,0,13.8-0.3,23.7-0.3C200.1,157.2,209.3,155.9,211.4,157.9z"/>
	<g class="st6">
		<g>
			<path class="st0" d="M168.4,303.3c0,6.7-0.2,58.2-8.2,66.7c-9.1,9.8-19.9,14-22.8,8c-2.9-6-27.4-103.2-23.7-109.9
				c1.3-2.3,15.6,34.6,32,35.7C167.7,305.2,168.5,287.2,168.4,303.3z"/>
			<path class="st0" d="M163.3,363c6.3,1,14.8,2.3,16.3,7c0.9,2.8,4.9,8.2-1.8,10.8c-6.7,2.6-26.1,8.5-38.2-0.3
				C130.3,373.7,163.3,363,163.3,363z"/>
		</g>
		<g>
			<path class="st1" d="M112.5,243.5c-8.1,70.6,22,128.5,24.9,134.5c0.5,1,0.3,0.8,1.8,2.2c10.1,9.3,35.6,4.3,41.3-1
				c3.9-3.7,1.4-10-2.6-12.4c-3.9-2.3-14.6-3.8-14.6-3.8c5.8-24.5,6.2-54.6,6.2-60.4c0,0-1.7-6-3.7,13.1
				c-2.4,22.3-3.9,42.2-6.1,48.8c-0.3,1,10.5,1.7,15.1,4.8c3.3,2.3,1.3,8.4-5.8,10.4c-6.6,1.8-19.1,1.9-27.2-2.7
				c-1.5-0.8-2.3-3.6-3-5c-1.7-3.8-3.1-7.7-4.5-11.6c-4.2-12-7.7-24.3-10.7-36.7c-5-20.6-8.2-48.7-9.5-69.7
				C114,251.8,112.7,245.4,112.5,243.5z"/>
			<g>
				<path class="st2" d="M173,382.5c-0.7-0.2-0.2-2.6,1.4-2.7c0.9,0,3.4,2.1,3,3.2c-0.3,0.8-1.7,0.3-2.2,0.1
					C174.2,382.7,174,382.7,173,382.5z"/>
				<path class="st2" d="M177.3,379c-0.9-0.1-0.6-3.2,1.4-3.6c1.1-0.2,4.6,2.1,4.1,3.5c-0.3,1.1-2.1,0.6-2.8,0.4
					C178.8,379.1,178.6,379.2,177.3,379z"/>
				<path class="st2" d="M179,373.6c-0.9-0.2-0.6-3.3,1.6-3.6c1.1-0.1,4.6,2.4,4.2,3.8c-0.4,1.1-2.2,0.5-2.9,0.3
					C180.5,373.8,180.3,373.8,179,373.6z"/>
			</g>
		</g>
	</g>
	<path class="st8" d="M204,157.1c1.8,0.1,13.9,36.7,18.6,63c6.6,36.6,2.5,60.5-12.3,69.8c-13.7,8.6-41.2,4.4-48.9-31.4
		c-3.3-15.2,0.3-28.6-5-58.8c-3.3-18.6-8.7-43.1-2-42.7C181.7,158.8,201.3,157,204,157.1z"/>
	<path class="st9" d="M150.4,157c24.3-1.2,35.1-0.7,54.6-0.2c0,0,11.8,19.4-11.4,22.9C145.3,186.9,150.4,157,150.4,157z"/>
	<g class="st6">
		<path class="st0" d="M104.6,194.5c4-10.2,5.9-14.1,12.2-22.6c11.4-15.6,32.7-14.7,32.7-14.7c-1,8.9-3.4,11.4-9.5,36.5
			c-3.3,13.7-10.7,29.3-13.1,32.1c-9,10-27.6,20.3-31.4,9.1C92.1,225.1,103,198.6,104.6,194.5z"/>
		<g>
			<path class="st0" d="M112.5,249.6c9.5,5.3,41.5,17.1,43,17.8c3.4,1.4,4.5,5.3,7.7,9.5c3,4,4.7,5.6,6.2,5.7
				c2.3,0.1,1.6-5.5-2.3-11.6c0,0,8.6,7.5,11.3,5c3.9-3.6-6.7-14.8-7.6-15.3c0,0,9.3,5.8,10.8,2.6c1.8-3.9-7.3-11.5-10.2-12.6
				c0,0,4.5-0.5,5.6-3.1c1.4-3.1-6.5-6-13-3.5c-5.4,2.1-11.2-0.8-18.3-5.9c-6.1-4.4-14.4-9.8-23.5-17c-21.1-16.8-16.7-17.1-22.7-4
				C93.6,230.3,88.9,236.3,112.5,249.6z"/>
			<path class="st1" d="M106.2,241.2c8,4.5,12.1,7.7,27.1,13.7c9.3,3.8,20.5,9,24.1,10.8c2.8,1.4,4.6,7,6.1,9.2
				c0.6,0.9,1.1,1.8,1.4,2.2c2.6,3.5,4.7,0.9,3.7-2c-0.4-1-0.7-2.1-1.4-4.3c3.9,6.1,4.6,11.7,2.3,11.6c-1.5,0-3.2-1.7-6.2-5.7
				c-3.2-4.2-4.3-8.1-7.7-9.5c-1.5-0.6-30.2-9.4-42.2-16.4c-5.7-3.3-9.4-5.9-13.1-8.4c-4-2.8-7.7-6.1-7.1-11.9
				c0.3-3.2,5.2-21,11.5-36.1c5.1-12.2,11.6-22.3,13.8-24.7c2.1-2.3-5.4,11.5-11.5,27.7c-4.8,12.8-8.1,28-8.7,32.6
				C97.6,233.7,100.3,237.8,106.2,241.2z"/>
			<path class="st1" d="M132.5,205.9c3.1-7.3,3.3-7.1,4.6-10.6c3.4-9.1,5-12.3,5.1-11.5c0.2,1.9-1.8,13.3-5.8,23.6
				c-2.1,5.2-4.9,11.5-6.9,14.7l-1.1,2.1c9,7.2,11.6,9.8,17.6,14.2c7,5.1,12.7,7.6,18.1,5.8c0,0-7.9,5.7-17-0.2
				c-14.1-9.2-17-12.6-24.4-19.2C122.7,224.7,128.3,215.9,132.5,205.9z"/>
			<path class="st1" d="M167.2,270.9c0,0,8.6,7.6,11.2,5.1c3.9-3.6-6.7-14.8-7.6-15.3c0,0,9.3,5.8,10.8,2.6
				c1.8-3.9-7.3-11.5-10.2-12.6c0,0,4.5-0.5,5.6-3.1c1.4-3.1-6.4-6.4-13-3.5c0,0,7.5-0.6,9.3,2c1.4,2.1-5.1,3.4-6.9,3.8
				c-1.7,0.4,13.4,6.7,11.2,10.6c-1.2,2.2-9.2-2.1-9.2-2.1s4,6.5,7.1,10.8c0.8,1.1,0.7,2.4,0.3,3.1c-0.7,1.2-1.9,1.6-3.4,1.2
				C170,273.1,167.2,270.9,167.2,270.9z"/>
			<path class="st2" d="M178.3,272.8c-0.7-0.7-3.1,1-2.1,2.9c0.6,1,4.8,2.7,5.7,1.7c0.7-0.8-0.9-2-1.5-2.5
				C179.4,273.9,179.3,273.7,178.3,272.8z"/>
			<path class="st2" d="M180.5,260.3c-0.8-0.6-3.1,1.2-1.8,3c0.6,0.9,5,2.4,5.8,1.3c0.6-0.8-1-1.9-1.6-2.4
				C181.7,261.4,181.6,261.2,180.5,260.3z"/>
			<path class="st2" d="M174.8,248.4c-1-0.1-1.4-3,0.7-3.4c1.1-0.2,5.2,1.7,5.1,3.1c-0.1,1-2.1,0.7-2.8,0.6
				C176.4,248.4,176.1,248.5,174.8,248.4z"/>
			<path class="st2" d="M170.3,279.5c-0.4-1-2.9-0.1-2.6,1.7c0.2,0.9,3.4,3.3,4.1,2.9c0.6-0.3,0.5-0.9-0.4-2.2
				C170.8,280.9,170.7,280.5,170.3,279.5z"/>
		</g>
	</g>
</g>
<g id="Body_new_6" class="st5">
	<path class="st7" d="M251.1,194.1c-5-9.8-7-13.6-14.2-21.4C221,155.6,205,157.1,205,157.1c1.6,9.3,2.4,15.1,10.8,39.5
		c4.6,13.3,13.4,28.2,16.1,30.7c9.9,9.1,29.4,17.7,32.1,6.1C266.4,223.4,253.1,198,251.1,194.1z"/>
	<g class="st6">
		<g>
			<path class="st0" d="M233.1,249.3c-0.5,6.7-7.1,108.4-17.3,117c-10.2,8.6-20.8,12.6-23.3,6.4c-2.5-6.2-14.3-56.6-10.2-63
				c1.4-2.2,13.4-2.4,23.7-9.4C225.5,286.9,234.4,233.2,233.1,249.3z"/>
			<path class="st0" d="M219.4,359.5c6.2,1.5,14.6,3.3,15.8,8.1c0.7,2.9,4.3,8.5-2.6,10.6c-6.9,2.1-26.6,6.7-38.1-2.9
				C185.7,367.9,219.4,359.5,219.4,359.5z"/>
		</g>
		<g>
			<path class="st1" d="M180.1,317.2c-1.4,9.5,10,49.2,12.5,55.5c0.4,1,0.3,0.8,1.7,2.3c9.5,10,35.2,6.8,41.3,1.8
				c4.1-3.4,2.1-9.8-1.7-12.5c-3.7-2.6-14.3-4.8-14.3-4.8c7.5-24,12.2-91,12.7-96.7c0,0-5.1,26.8-8.6,48.9
				c-3.5,22.1-5.1,42.7-7.7,49.2c-0.4,0.9,10.4,2.5,14.7,5.8c3.2,2.5,0.7,8.5-6.5,9.9c-6.7,1.4-19.7,3.1-26.9-4.6
				c-1.8-1.9-9.5-39.4-13.8-54.6C181.5,311.6,180.1,317.2,180.1,317.2z"/>
			<g>
				<path class="st2" d="M234.3,368.9c-0.7-0.1-0.4-2.6,1.3-2.8c0.9-0.1,3.5,1.9,3.1,3c-0.3,0.8-1.7,0.4-2.2,0.2
					C235.5,369.1,235.3,369.1,234.3,368.9z"/>
				<path class="st2" d="M232.7,374.9c-0.9-0.2-0.5-3.3,1.5-3.5c1.1-0.1,4.5,2.3,4,3.6c-0.4,1.1-2.1,0.5-2.8,0.4
					C234.2,375.1,234,375.1,232.7,374.9z"/>
				<path class="st2" d="M228.6,379.4c-0.9-0.3-0.3-3.4,1.9-3.4c1.1,0,4.4,2.8,3.8,4.1c-0.4,1-2.2,0.3-2.9,0.1
					C230.1,379.8,229.9,379.8,228.6,379.4z"/>
			</g>
		</g>
	</g>
	<g class="st6">
		<path class="st1" d="M211.7,158.7c10.3,13.2,19.8,21.5,27.7,66.7c8,45.8-3.3,96.9-58.8,98.6c-25,0.8-46.5-5.7-61.2-36.7
			c-15.2-32-3.8-105.8,17.8-125.5c6.8-6.2,15.4-4.3,26.4-4.3c0,0,13.8-0.3,23.7-0.3C200.1,157.2,209.9,156.3,211.7,158.7z"/>
	</g>
	<path class="st7" d="M211.4,158.3c14.7,14.2,19.2,29.3,24.3,65.3c5.5,39.2,0.4,91.9-55.1,93.5c-25,0.8-53.2-6.8-63.5-39.5
		c-7.3-23.2-1.5-96.2,20.1-115.9c6.8-6.2,15.4-4.3,26.4-4.3c0,0,13.8-0.3,23.7-0.3C200.1,157.2,209.3,156.2,211.4,158.3z"/>
	<g class="st6">
		<g>
			<path class="st0" d="M168.4,303.3c0,6.7-0.2,58.2-8.2,66.7c-9.1,9.8-19.9,14-22.8,8c-2.9-6-27.4-103.2-23.7-109.9
				c1.3-2.3,15.6,34.6,32,35.7C167.7,305.2,168.5,287.2,168.4,303.3z"/>
			<path class="st0" d="M163.3,363c6.3,1,14.8,2.3,16.3,7c0.9,2.8,4.9,8.2-1.8,10.8c-6.7,2.6-26.1,8.5-38.2-0.3
				C130.3,373.7,163.3,363,163.3,363z"/>
		</g>
		<g>
			<path class="st1" d="M112.5,243.5c-8.1,70.6,22,128.5,24.9,134.5c0.5,1,0.3,0.8,1.8,2.2c10.1,9.3,35.6,4.3,41.3-1
				c3.9-3.7,1.4-10-2.6-12.4c-3.9-2.3-14.6-3.8-14.6-3.8c5.8-24.5,6.2-54.6,6.2-60.4c0,0-1.7-6-3.7,13.1
				c-2.4,22.3-3.9,42.2-6.1,48.8c-0.3,1,10.5,1.7,15.1,4.8c3.3,2.3,1.3,8.4-5.8,10.4c-6.6,1.8-19.1,1.9-27.2-2.7
				c-1.5-0.8-2.3-3.6-3-5c-1.7-3.8-3.1-7.7-4.5-11.6c-4.2-12-7.7-24.3-10.7-36.7c-5-20.6-8.2-48.7-9.5-69.7
				C114,251.8,112.7,245.4,112.5,243.5z"/>
			<g>
				<path class="st2" d="M173,382.5c-0.7-0.2-0.2-2.6,1.4-2.7c0.9,0,3.4,2.1,3,3.2c-0.3,0.8-1.7,0.3-2.2,0.1
					C174.2,382.7,174,382.7,173,382.5z"/>
				<path class="st2" d="M177.3,379c-0.9-0.1-0.6-3.2,1.4-3.6c1.1-0.2,4.6,2.1,4.1,3.5c-0.3,1.1-2.1,0.6-2.8,0.4
					C178.8,379.1,178.6,379.2,177.3,379z"/>
				<path class="st2" d="M179,373.6c-0.9-0.2-0.6-3.3,1.6-3.6c1.1-0.1,4.6,2.4,4.2,3.8c-0.4,1.1-2.2,0.5-2.9,0.3
					C180.5,373.8,180.3,373.8,179,373.6z"/>
			</g>
		</g>
	</g>
	<path class="st8" d="M204,157.1c1.8,0.1,13.9,36.7,18.6,63c6.6,36.6,2.5,60.5-12.3,69.8c-13.7,8.6-41.2,4.4-48.9-31.4
		c-3.3-15.2,0.3-28.6-5-58.8c-3.3-18.6-8.7-43.1-2-42.7C181.7,158.8,201.3,157,204,157.1z"/>
	<path class="st9" d="M147.2,157.2c24.3-1.2,38.3-0.6,57.8-0.1c0,0,11.4,16.9-12.5,22.1C150.4,188.3,147.2,157.2,147.2,157.2z"/>
	<g class="st6">
		<path class="st0" d="M249.6,254.4c-9,6.2-33,15.6-34.5,16.3c-3.3,1.7-4,5.7-6.8,10.2c-2.7,4.2-4.2,6-5.7,6.2
			c-2.3,0.3-2.1-5.3,1.2-11.8c0,0-7.9,8.3-10.8,6c-4.2-3.3,5.3-15.4,6.1-15.9c0,0-8.7,6.7-10.5,3.6c-2.2-3.7,6.2-12.1,9-13.5
			c0,0-4.6-0.1-5.9-2.5c-1.6-3,5.9-6.6,12.6-4.7c5.6,1.6,11.1-1.8,17.7-7.5c5.6-4.9,8.5-8.2,17.8-16.3c20.3-17.7,14.2-17.1,20.8-4.2
			C266.9,232.4,271.9,239,249.6,254.4z"/>
		<path class="st1" d="M255.1,245.5c-7,5.8-11.3,8.7-25.7,16.2c-8.9,4.6-12.9,5.5-16.4,7.6c-2.7,1.7-4,7.4-5.3,9.7
			c-0.5,0.9-0.9,1.9-1.2,2.3c-2.3,3.7-4.6,1.3-3.8-1.6c0.3-1.1,0.5-2.2,1-4.4c-3.3,6.5-3.5,12-1.2,11.8c1.5-0.2,3-2,5.7-6.2
			c2.8-4.5,3.5-8.5,6.8-10.2c1.4-0.8,22.6-6.8,33.9-14.8c5.3-3.8,8.9-6.7,12.3-9.6c3.7-3.2,7.1-6.8,6-12.5
			c-1.5-7.7-14.1-34.2-13.6-32.6c4.8,15.3,11.8,28.3,11,32.9C264,237.6,261.9,239.9,255.1,245.5z"/>
		<path class="st1" d="M239.9,224.6c0,0-4.1,3.3-6.8,5.7c-2.7,2.4-5.6,5.8-11.2,10.7c-6.5,5.7-12,8.7-17.5,7.5c0,0,8.4,4.9,16.9-1.8
			c13.2-10.4,28.4-26.6,25.4-24.9C246.8,221.8,245.5,220.6,239.9,224.6z"/>
		<path class="st1" d="M203.9,275.4c0,0-7.8,8.4-10.7,6.1c-4.2-3.3,5.3-15.4,6.1-15.9c0,0-8.7,6.7-10.5,3.6
			c-2.2-3.7,6.2-12.1,9-13.5c0,0-4.6-0.1-5.9-2.5c-1.6-3,5.8-7,12.6-4.7c0,0-7.5,0.1-9.1,2.9c-1.2,2.2,5.4,3,7.2,3.2
			c1.8,0.2-12.7,7.9-10.1,11.6c1.4,2.1,9-2.9,9-2.9s-3.4,6.8-6,11.4c-0.7,1.2-0.5,2.5,0,3.1c0.9,1.1,2,1.4,3.5,0.9
			C201.3,277.8,203.9,275.4,203.9,275.4z"/>
		<path class="st2" d="M193,278.3c0.7-0.8,3.2,0.7,2.3,2.7c-0.5,1-4.5,3.1-5.5,2.2c-0.8-0.7,0.7-2.1,1.2-2.6
			C192,279.5,192.1,279.3,193,278.3z"/>
		<path class="st2" d="M189.6,266.1c0.7-0.7,3.2,0.9,2.1,2.8c-0.5,1-4.7,2.8-5.7,1.8c-0.7-0.8,0.9-2,1.4-2.5
			C188.5,267.3,188.6,267.1,189.6,266.1z"/>
		<path class="st2" d="M194.2,253.7c1-0.2,1.1-3.1-1-3.4c-1.1-0.1-5.1,2.2-4.8,3.5c0.2,1,2.1,0.5,2.8,0.3
			C192.6,253.9,192.8,253.9,194.2,253.7z"/>
		<path class="st2" d="M201.5,284.2c0.3-1,2.9-0.3,2.7,1.5c-0.1,0.9-3.1,3.6-3.8,3.3c-0.6-0.3-0.6-0.9,0.2-2.2
			C201.2,285.7,201.2,285.3,201.5,284.2z"/>
	</g>
	<g class="st6">
		<path class="st0" d="M126,210.2c6.8-6.6,9.6-10.2,13-20.3c4.2-12.3,10.4-34.1,4.9-31.9c-5.8,2.3-15.9,2-32.9,21.8
			c-9.1,10.7-20.5,18-21.8,23.8c-2.9,13.1-6.9,35.5,4.8,33.4C100.4,235.8,122.9,213.2,126,210.2z"/>
		<g>
			<g>
				<path class="st0" d="M93.2,237c-8.9,6.3-39.5,21.3-40.9,22c-3.3,1.8-3.9,5.7-6.7,10.2c-2.6,4.3-4.1,6.1-5.6,6.3
					c-2.3,0.3-2.1-5.3,1.1-11.8c0,0-7.8,8.3-10.7,6.1c-4.2-3.2,5.2-15.4,6-16c0,0-8.7,6.7-10.5,3.7c-2.2-3.7,6.1-12.2,8.9-13.5
					c0,0-4.6-0.1-5.9-2.5c-1.7-3,5.8-6.6,12.5-4.8c5.6,1.5,11.1-1.9,17.6-7.7c5.6-5,13.3-11.2,21.6-19.3
					c19.3-18.8,14.9-18.7,22.2-6.3C110.1,215.9,115.3,221.4,93.2,237z"/>
				<path class="st1" d="M41,263.7c-3.2,6.5-3.4,12.1-1.1,11.8c1.5-0.2,3-2,5.6-6.3c2.8-4.5,3.5-8.5,6.7-10.2
					c1.4-0.8,29.5-13.9,40.9-20.2c4.2-2.3,8.7-5.7,11.7-8.1c7.1-5.5,21.8-20.9,26-26.5c1.3-1.8-3.5,0.1-9.5,5.3
					c-5.2,4.6-6.9,6.4-17.2,14.6c-10.2,8-16.8,12.7-31.1,20.3c-8.9,4.7-19.5,11-22.9,13.2c-2.7,1.7-3.9,7.4-5.2,9.8
					c-0.5,0.9-0.9,1.9-1.2,2.3c-2.3,3.7-4.6,1.4-3.9-1.6C40.3,267.1,40.5,265.9,41,263.7z"/>
				<path class="st1" d="M127.3,164.9c-1.8,0.7-25.7,23.6-26.4,24.2c-4.1,3.9-7,6.6-9.4,9.4c-2.4,2.3-4.8,5.1-11.4,11.6
					c-8.2,8.1-15.8,14.3-21.4,19.2c-6.5,5.8-12.3,9.1-17.4,7.6c0,0,9.3,6.1,17.8-0.7c13.1-10.5,22.6-21.2,29.3-28.5
					c2.8-3,10.5-11.3,13.9-15.3c5.1-6.1,8.8-11,11.3-13.8C120.1,171.2,128,164.6,127.3,164.9z"/>
				<path class="st1" d="M41,263.7c0,0-7.8,8.4-10.7,6.2c-4.2-3.2,5.2-15.4,6-16c0,0-8.7,6.7-10.5,3.7c-2.2-3.7,6.1-12.2,8.9-13.5
					c0,0-4.6-0.1-5.9-2.5c-1.7-3,5.8-7,12.5-4.8c0,0-7.5,0.1-9,2.9c-1.2,2.2,5.4,2.9,7.2,3.1c1.8,0.2-12.6,8-10,11.7
					c1.5,2.1,8.9-3,8.9-3s-3.3,6.8-5.9,11.5c-0.7,1.2-0.5,2.5,0.1,3.1c0.9,1.1,2,1.4,3.5,0.8C38.4,266.2,41,263.7,41,263.7z"/>
				<path class="st2" d="M30.1,266.7c0.7-0.8,3.2,0.7,2.3,2.6c-0.5,1-4.5,3.2-5.5,2.3c-0.8-0.7,0.7-2.1,1.2-2.6
					C29.1,268,29.2,267.8,30.1,266.7z"/>
				<path class="st2" d="M26.6,254.6c0.7-0.7,3.2,0.9,2.1,2.8c-0.5,1-4.7,2.9-5.6,1.9c-0.7-0.7,0.8-2,1.4-2.5
					C25.6,255.8,25.7,255.6,26.6,254.6z"/>
				<path class="st2" d="M31.1,242.1c1-0.2,1.1-3.1-1.1-3.4c-1.1-0.1-5,2.2-4.8,3.6c0.2,1,2.1,0.5,2.8,0.3
					C29.6,242.3,29.8,242.4,31.1,242.1z"/>
			</g>
			<path class="st2" d="M38.7,272.6c0.2-1,2.9-0.4,2.7,1.5c-0.1,0.9-3.1,3.6-3.8,3.3c-0.6-0.3-0.6-0.9,0.2-2.2
				C38.4,274.1,38.4,273.7,38.7,272.6z"/>
		</g>
	</g>
</g>
<g id="Head_New_1" class="st5">
	<g class="st6">
		<g>
			<g>
				<path class="st1" d="M252.9,75c0.3-1.9-6-4.8-5-4.5c1.1,0.3,4,0,4.6-0.9c1.2-2-1.9-1.2-6.6-5c-1.3-1-3.2-2.5-4.4-3.6
					c0,0-0.1,0-0.1-0.1c-1.7-1.6-3.6-2.9-5.7-3.9c2.4-1.6-1-2.7-4-2.1c-3.2,0.7,7.3-3.7-5.5-1.6c-1.9,0.3,2.3-2.1-0.7-2.1
					c-2,0-7.3,1.9-12.4,3.2c-0.5,0.1-1,0.2-1.5,0.4c-0.1,0-0.1,0-0.2,0c0,0-0.1,0-0.1,0c-2.8,0.8-5.6,1.7-8.2,3
					c-7.7,4-13.1,12-12.9,19.8c0.4,11.5,8.1,21,13.9,25.8c3.9,3.2,7.6,4.6,8.4,5.4c2.1,2.3,4.9,2.2,5,0.8c0,0,5.9,2.3,4.3-0.8
					c8.3,0.7,15.4-5.2,20.4-11.5c2.1-2.7,3.9-6.8,5.6-14.5c2.9-0.3,0.9-3.6,0.9-3.6c3.8-1.8,0.9-3.2-0.3-3.8c0-0.1,0-0.1,0-0.2
					C249.6,75.6,252.6,76.3,252.9,75z"/>
				<g>
					<path class="st0" d="M256.2,72.2c0.3-1.9-5.9-4.9-5-4.7c1.1,0.3,4,0,4.6-1c1.2-2.1-1.9-1.3-6.6-5.1c-1.3-1-3.2-2.6-4.4-3.7
						c0,0-0.1,0-0.1-0.1c-1.7-1.6-3.6-2.9-5.7-4c2.4-1.6-1-2.8-4-2.1c-3.2,0.7,7.4-3.9-5.5-1.6c-2,0.3,2.3-2.2-0.6-2.2
						c-2,0-7.4,2-12.5,3.3c-0.5,0.1-1,0.3-1.6,0.4c-0.1,0-0.1,0-0.2,0c0,0-0.1,0-0.1,0c-2.8,0.8-5.6,1.9-8.1,3.3
						c-5.6,3-10.9,7.1-13.4,12.6c-1.7,3.6-2,7.4-1.5,11c0.5,3.3,1.7,6.5,3.2,9.5c1.6,3.1,3.5,6.1,5.6,8.9c2.2,2.7,5,5,8.1,7
						c1,0.7,2.1,1.2,3.3,1.7c1.1,0.5,1.6,1.1,2.4,1.9c0.6,0.5,2.8,2,2.9,0.2c0,0,5.9,2.4,4.3-0.9c8.3,0.7,16-2.6,21.1-9.1
						c2.2-2.7,6.9-9.4,8.6-17.3c2.9-0.3,0.9-3.7,0.9-3.7c3.9-1.9,1-3.3-0.3-3.9c0-0.1,0-0.1,0-0.2C252.9,72.9,255.9,73.6,256.2,72.2
						z"/>
					<path class="st3" d="M238.7,77c0,0,5.4-1.2,1.5-3.3c-1-0.5-3.5-1.4-0.8-1.9c2.6-0.5,1.5-1.5,0-2.3c-2.7-1.5,1.1-2,2.7-2.2
						c1.7-0.3,0.7-1.5-3.4-2.2c-1.4-0.3-2.4-0.1-3.4-0.5c-1.5-0.6,3.6-2-2.4-2.5c-1.5-0.1-2.2,0-6.2-0.8c-0.1,0-0.1,0-0.2,0
						c-0.2,0-0.3-0.1-0.5-0.1c-0.1,0-0.1,0-0.2,0C220,60.2,213,62,209.2,64c-4.5,2.4-9.3,6.4-9,11c0.8,10.1,6.7,20.2,17.5,21.8
						c11.1,1.7,19.3-6.7,20.7-16.1c0,0,0,0,0,0C240.6,79.9,242.1,78.3,238.7,77z"/>
					<path class="st4" d="M200.3,75.1c-0.5-2.4,0.8-4.4,2.4-6.1c1-1.1-2.2,2.9,3.8,3.9c4.8,0.8,11.6,0.4,14.2,4.3
						c3.2,4.9,1.6,10.8-1.4,13.7c-4.7,4.7-4.1,5.4-5.2,5C205.9,92.7,202,83.6,200.3,75.1z"/>
					<path class="st0" d="M197.4,86.1c1.4,3.1,3.8,5.8,6.9,7.5c1.2,0.7,4.1,1.8,5.6,0.3c1.5-1.6-0.7-2.6-2.2-2.9
						c-3-0.7,4.1-0.6-2.2-3.2c-3.7-1.5,2.7-0.9,2.8-2.8c0.1-1.6-4.2-2.5-4.4-3.8c1.7,0.4,2.1-0.1,1-1.3c-1.2-1.4-5.9-0.6-4.4-8
						c0.3-1.4-1.9,1-2.1,1.2c-1.8,2.4-2.3,5.5-2.2,8.1C196.3,82.9,196.7,84.5,197.4,86.1z"/>
				</g>
			</g>
			<g>
				<path class="st1" d="M123.2,83c-4.9,21.1-3.4,33,0.4,49.1c6.6,27.6,36.6,46.8,68.1,39.8c30.5-6.7,35.1-39.9,35.1-57
					c0-29.8-19.4-43.3-21.5-45.6c-0.7-0.7,23,47-8.5,77.8c-21.1,20.6-32.1,13.8-42,8C117.3,133,124.6,76.6,123.2,83z"/>
				<path class="st0" d="M128.7,83c8.5-15.4,20.9-19.5,28.3-22.1c0.3-0.1,0.6-0.2,1-0.3c0.2-0.1,0.4-0.1,0.6-0.2
					c0,0,3.5-0.6,5.8-3.8c0.6-0.9,2.3-3.8,3.6-2.6c0.7,0.7,0.5,3.3,1.3,3.5c1.4,0.3,2.1-1.2,2.3-2.4c0.2-1-0.4-2.9,0.3-3.7
					c0.8-0.9,2.3,0.1,3,0.6c1.4,1,2.6,2.4,3.3,3.9c0.1,0.2,0.2,0.4,0.2,0.6c0.4,1.3,1.8,1,1.7-2.8c-0.1-1.7,4.5,1.5,4.1,4.3
					c-0.3,1.6,4.1-3.6,6.5,1.3c0,0,0,0,0,0c7.8-0.2,18,11.9,22.4,17.5c12.4,15.7,12,27.5,11.2,44.6c-0.7,16.7-6.9,40.1-32.6,46.6
					c-29.2,7.4-57.7-9.9-64.4-43C125.3,115.9,121.3,96.5,128.7,83z"/>
			</g>
			<path class="st2" d="M195.4,102.5c-1.2-3.8-3-11.4-10.5-9.9c-6.3,1.3-6.5,14.8-6.7,17.7c-0.6,7.8,0.2,22.1,12,20.6
				C201.5,129.4,200.8,120,195.4,102.5z"/>
			<g>
				<g>
					
						<ellipse transform="matrix(0.8866 -0.4625 0.4625 0.8866 -37.736 99.3883)" class="st10" cx="183.8" cy="126.7" rx="2.2" ry="3.6"/>
					<ellipse transform="matrix(0.7682 -0.6402 0.6402 0.7682 -38.855 147.1649)" cx="183.8" cy="127.2" rx="2" ry="3.1"/>
				</g>
				<g>
					<path class="st10" d="M198.3,125.8c0.6-1.8,0.4-4-0.3-4.1c-0.7-0.1-2,0.3-2.9,2.7c-0.6,1.8-0.5,3.4,0.2,3.7
						C196,128.4,197.6,127.5,198.3,125.8z"/>
					<ellipse transform="matrix(0.4351 -0.9004 0.9004 0.4351 -1.7492 248.1337)" cx="196.9" cy="125.5" rx="3" ry="1.4"/>
				</g>
			</g>
			<g>
				<g>
					<path class="st3" d="M194.7,158.1c7.4-3.1,8.4-9.8,9.8-16.5c0.9-4.3,1.9-11.3,1.6-11.4c-0.3-0.1-4.5,6.4-16.1,9.2
						c-9.1,2.2-15.2-1.5-16.6-2.6c-0.1-0.1-0.2,0.1-0.3,0.3c-0.4,2.3,0.9,6.2,2.2,8.7C180.5,155.7,186.7,161.3,194.7,158.1z"/>
					<path class="st11" d="M174.2,138.2c0.3,2,6.6,9.6,16.4,7.5c7.5-1.6,14.1-11.4,13.9-13.3c-0.3-2-2.3,4.7-14.6,7
						C177.8,141.6,173.9,136.3,174.2,138.2z"/>
					<path class="st2" d="M206,130.4c0.2-0.5-0.3-0.6-0.6-0.2c-2.4,3.5-5.7,11.7-13.5,13.3c-8.6,1.7-16.9-6.1-18.5-6.7
						c-0.5-0.2-0.5,0.2-0.4,0.4c0.6,2.1,9.5,12.4,19,10.1C202.1,145,204.5,134.5,206,130.4z"/>
				</g>
				<path class="st2" d="M206,130.4c0.1-0.1,0.1-0.3,0-0.4c-0.1-0.1-0.3,0-0.4,0c-2.2,1.3-5,5.5-14.6,7.5
					c-8.1,1.7-16.2-0.3-17.4-0.8c-0.7-0.3-0.7,0.5-0.5,0.8c1.1,1.7,8.7,4.8,18.6,2.8C201.9,138.3,205,132.3,206,130.4z"/>
			</g>
			<g>
				<path class="st12" d="M155.9,97.9c2.8-4.3,8.2-4.2,10.3-1.4c2.4,3.1,2.6,7.1,0.5,10.7c-2.4,4.1-6.4,4.9-9.5,2
					C154,106.3,153.9,101.1,155.9,97.9z"/>
			</g>
			<g>
				<path class="st2" d="M160.3,98.1c-0.8,0.4-1.6,0.9-2.2,1.6c0.8-0.1,1.6,0.2,2.2,1.1c0.8,1.1,1.2,3.1,0,4.4
					c-1.1,1.3-3.1,1.3-4-0.2c0,0,0-0.1,0-0.1c0,0.4,0,0.8,0.1,1.2c0.7,3.5,4.1,5.1,7.1,3.8c2.6-1.1,4.2-4.4,3.1-8
					C165.5,98.1,162.2,97.2,160.3,98.1z"/>
			</g>
			<g>
				<g>
					<path class="st12" d="M211.9,98.5c-0.5-4.8-3.3-6.7-6.3-6.2c-3.2,0.6-5.3,4.8-5.1,8.7c0.3,4.5,3.8,7.4,7.1,6.5
						C211,106.6,212.2,102,211.9,98.5z"/>
				</g>
			</g>
			<g>
				<path class="st2" d="M205.9,95.2c-0.8,0.2-1.4,0.7-2,1.4c0.7-0.1,1.3,0.3,1.8,1.3c0.6,1.1,0.8,3.1-0.3,4.2
					c-1.1,1.1-2.7,1-3.4-0.5c0,0,0-0.1,0-0.1c0,0.4,0,0.8,0,1.1c0.3,3.5,3,5.3,5.6,4.3c2.7-1.1,3.8-4.2,3.3-7.5
					C210.4,96.1,207.8,94.7,205.9,95.2z"/>
			</g>
			<path class="st13" d="M167,84.5c-5.4-3-11.8-0.4-16.1,3.6"/>
			<path class="st14" d="M199.1,82.8c7.7-2.8,11.1-0.5,13.9,2.2"/>
			<g>
				<path class="st1" d="M76.5,76.9c-0.1-2,6.7-4.8,5.7-4.6c-1.1,0.2-4.1-0.3-4.6-1.3c-1-2.2,2.1-1.2,7.4-4.9c1.5-1,3.6-2.5,5-3.6
					c0,0,0.1,0,0.1-0.1c1.9-1.6,4.1-2.8,6.4-3.9c-2.3-1.8,1.4-2.8,4.3-2c3.2,0.9-7.1-4.5,5.8-1.3c2,0.5-2.1-2.4,0.9-2.2
					c2.1,0.1,7.3,2.5,12.4,4.2c0.5,0.2,1,0.3,1.5,0.5c0.1,0,0.1,0,0.2,0.1c0,0,0.1,0,0.1,0c2.8,1,5.1,0.9,7.6,2.5
					c7.5,4.8,11.3,9.7,11.6,18.1c0.2,7.4-2.6,13.2-5.1,17.6c-3.3,5.9-6.6,10.7-12.6,14.5c-5.3,3.3-8.4,4.4-9.3,5.3
					c-2.4,2.4-5.3,2.1-5.2,0.5c0,0-6.3,2.1-4.3-1.2c-8.6,0.3-15.2-6.5-19.6-13.6c-1.9-3-3.2-7.6-4-15.9c-2.9-0.5-0.5-3.9-0.5-3.9
					c-3.7-2.2-0.6-3.5,0.8-4.1c0-0.1,0-0.1,0-0.2C79.8,77.8,76.6,78.3,76.5,76.9z"/>
				<g>
					<path class="st0" d="M73.7,73.4c-0.1-2.1,6.7-4.9,5.7-4.7c-1.1,0.2-4.1-0.3-4.6-1.3c-1-2.3,2.1-1.3,7.4-5.1
						c1.5-1,3.6-2.6,5-3.7c0,0,0.1,0,0.1-0.1c1.9-1.6,4.1-2.9,6.4-4c-2.3-1.9,1.4-2.9,4.3-2c3.3,0.9-7.1-4.6,5.8-1.4
						c2,0.5-2.1-2.5,0.9-2.3c2.1,0.1,7.3,2.5,12.5,4.3c0.5,0.2,1,0.3,1.6,0.5c0.1,0,0.1,0,0.2,0.1c0,0,0.1,0,0.1,0
						c2.8,1,5.5,2.4,8,4c5.4,3.6,10.4,8.4,12.3,14.4c1.3,4,1.2,8.1,0.2,11.9c-0.9,3.6-2.5,6.9-4.4,10c-2,3.3-4.3,6.4-6.9,9.2
						c-2.6,2.8-5.8,5-9.2,7c-1.1,0.7-2.3,1.2-3.6,1.6c-1.2,0.4-1.7,1.1-2.7,1.8c-0.6,0.5-3.1,2-3,0c0,0-6.3,2.2-4.4-1.2
						c-8.7,0.3-16.2-3.8-20.6-11c-1.9-3.1-5.9-10.5-6.8-19.1c-2.9-0.5-0.5-4.1-0.5-4.1c-3.8-2.3-0.6-3.6,0.7-4.2c0-0.1,0-0.1,0-0.2
						C77,74.3,73.8,74.9,73.7,73.4z"/>
					<path class="st3" d="M91.1,79.6c0,0-5.5-1.6-1.2-3.6c1.1-0.5,3.7-1.3,1-2c-2.6-0.7-1.3-1.7,0.3-2.4c3-1.4-0.9-2.2-2.5-2.6
						c-1.7-0.4-0.5-1.6,3.7-2.2c1.5-0.2,2.4,0.1,3.6-0.3c1.7-0.6-3.4-2.3,2.8-2.5c1.6,0,2.2,0.1,6.5-0.5c0.1,0,0.1,0,0.2,0
						c0.2,0,0.3,0,0.5-0.1c0.1,0,0.1,0,0.2,0c6.1-0.6,13.2,1.7,16.8,4.1c4.3,2.9,8.8,7.4,7.9,12.4c-2,10.8-9.4,21.3-20.7,22.4
						c-11.6,1.1-19-8.4-19.4-18.6c0,0,0,0,0,0C88.8,82.6,87.5,80.8,91.1,79.6z"/>
					<path class="st4" d="M130.9,79.9c0.8-2.5-0.3-4.7-1.8-6.7c-0.9-1.2,1.9,3.3-4.4,4c-5.1,0.5-12-0.3-15.1,3.8
						c-3.9,5.1-0.7,10,2,13.4c4.3,5.3,1.3,7.5,2.6,7.1C123,98.5,128,89,130.9,79.9z"/>
					<path class="st0" d="M134.3,86.8c0.5-2.8,0.3-6.1-1.2-8.8c-0.2-0.3-2.1-3-2-1.5c0.6,8-4.1,6.9-5.5,8.3
						c-1.2,1.2-0.9,1.8,0.9,1.5c-0.4,1.4-4.9,2.1-5,3.8c-0.1,2,6.5,1.7,2.5,3.1c-6.7,2.4,0.6,2.8-2.6,3.3c-1.5,0.2-3.9,1.2-2.6,3
						c1.4,1.8,4.5,0.7,5.8,0.1c3.4-1.7,6.2-4.4,8-7.7C133.4,90.3,134,88.5,134.3,86.8z"/>
				</g>
			</g>
		</g>
		<path class="st15" d="M225.4,95.6l-0.4-4.7c-0.4-1.4-1.1-2.8-2.9-3.2c-3.5-0.8-12.4-1.3-21.5,0.3c-0.6,0.1-1.7,0.3-1.7,0.3
			c-1,0.2-2.1,0.4-3.3,0.6c-0.4,0.1-4,0.4-6.8,0.6c-3,0.1-10.1,0.4-10.5,0.4c-1.8-0.1-3.5-0.2-4.9-0.3c-0.6,0-1.3-0.1-2.1-0.1
			c-11.3-0.7-22.1,0.7-26.1,1.9c-2.1,0.6-2.8,2.2-3.1,3.9l-7.2,2.4l-1.6,2.6l9,0.1c0.4,4,1.3,8.9,2.7,11.7c1.8,3.4,3.5,3.9,8.5,4.4
			c4.1,0.4,7.4,0.5,10.3,0.3c2.9-0.2,5.4-0.6,7.8-1.1c4-0.8,5.5-3.5,7.3-7.4c1.4-2.9,2.8-7.3,2.9-10.8c0-0.1,0-0.1,0.1-0.2
			c0.3-0.4,0.8-0.7,1.3-1.2c0.7-0.5,1.5-1,2.3-1.3c1.4-0.7,3.7-0.7,5.2,0.2c0.6,0.3,1.3,0.9,1.9,1.4c0.2,0.1,0.3,0.3,0.5,0.4
			c0,0,0,0.1,0,0.2c0.5,3.5,2.1,7.7,3.4,10.2c1.8,3.4,3.3,5.8,6.6,5.9c4,0.1,7.5,0.4,14.9-1.6c4.1-1.1,5.4-1.8,6.6-5.1
			C225.2,103.9,225.5,99.1,225.4,95.6z M176.1,106.9c-1.7,3.6-2.9,5.2-5.7,5.7c-4.8,0.9-8.2,1.4-15.3,0.7c-4.4-0.4-5.4-0.7-6.7-3.1
			c-1.6-3-2.2-8.7-2.4-10.5c-0.3-3.3-0.1-4.1,3.2-5.1c1.9-0.6,5.2-1.1,9.4-1.4c3.5-0.2,7.7-0.3,12.1-0.1c6.2,0.3,6.8,0.5,7.7,1.9
			C179.3,96.6,177.8,103.3,176.1,106.9z M221.5,104.6c-0.8,2.3-1.7,3.5-5.2,4.2c-6.4,1.2-8.4,1.2-12.3,1.1c-2.3-0.1-3.3-1.4-5-4.6
			c-1.7-3.2-3.5-9.6-2.9-11.2c0.6-1.5,1-1.6,5.9-2.6c3.5-0.6,6.8-1,9.6-1c3.3-0.1,6,0.1,7.6,0.5c2.7,0.6,3,1.4,3.1,4.3
			C222.3,96.8,222.6,101.7,221.5,104.6z"/>
	</g>
</g>
<g id="Head_New_2">
	<g>
		<g>
			<g>
				<path class="st1" d="M252.9,75c0.3-1.9-6-4.8-5-4.5c1.1,0.3,4,0,4.6-0.9c1.2-2-1.9-1.2-6.6-5c-1.3-1-3.2-2.5-4.4-3.6
					c0,0-0.1,0-0.1-0.1c-1.7-1.6-3.6-2.9-5.7-3.9c2.4-1.6-1-2.7-4-2.1c-3.2,0.7,7.3-3.7-5.5-1.6c-1.9,0.3,2.3-2.1-0.7-2.1
					c-2,0-7.3,1.9-12.4,3.2c-0.5,0.1-1,0.2-1.5,0.4c-0.1,0-0.1,0-0.2,0c0,0-0.1,0-0.1,0c-2.8,0.8-5.6,1.7-8.2,3
					c-7.7,4-13.1,12-12.9,19.8c0.4,11.5,8.1,21,13.9,25.8c3.9,3.2,7.6,4.6,8.4,5.4c2.1,2.3,4.9,2.2,5,0.8c0,0,5.9,2.3,4.3-0.8
					c8.3,0.7,15.4-5.2,20.4-11.5c2.1-2.7,3.9-6.8,5.6-14.5c2.9-0.3,0.9-3.6,0.9-3.6c3.8-1.8,0.9-3.2-0.3-3.8c0-0.1,0-0.1,0-0.2
					C249.6,75.6,252.6,76.3,252.9,75z"/>
				<g>
					<path class="st0" d="M256.2,72.2c0.3-1.9-5.9-4.9-5-4.7c1.1,0.3,4,0,4.6-1c1.2-2.1-1.9-1.3-6.6-5.1c-1.3-1-3.2-2.6-4.4-3.7
						c0,0-0.1,0-0.1-0.1c-1.7-1.6-3.6-2.9-5.7-4c2.4-1.6-1-2.8-4-2.1c-3.2,0.7,7.4-3.9-5.5-1.6c-2,0.3,2.3-2.2-0.6-2.2
						c-2,0-7.4,2-12.5,3.3c-0.5,0.1-1,0.3-1.6,0.4c-0.1,0-0.1,0-0.2,0c0,0-0.1,0-0.1,0c-2.8,0.8-5.6,1.9-8.1,3.3
						c-5.6,3-10.9,7.1-13.4,12.6c-1.7,3.6-2,7.4-1.5,11c0.5,3.3,1.7,6.5,3.2,9.5c1.6,3.1,3.5,6.1,5.6,8.9c2.2,2.7,5,5,8.1,7
						c1,0.7,2.1,1.2,3.3,1.7c1.1,0.5,1.6,1.1,2.4,1.9c0.6,0.5,2.8,2,2.9,0.2c0,0,5.9,2.4,4.3-0.9c8.3,0.7,16-2.6,21.1-9.1
						c2.2-2.7,6.9-9.4,8.6-17.3c2.9-0.3,0.9-3.7,0.9-3.7c3.9-1.9,1-3.3-0.3-3.9c0-0.1,0-0.1,0-0.2C252.9,72.9,255.9,73.6,256.2,72.2
						z"/>
					<path class="st3" d="M238.7,77c0,0,5.4-1.2,1.5-3.3c-1-0.5-3.5-1.4-0.8-1.9c2.6-0.5,1.5-1.5,0-2.3c-2.7-1.5,1.1-2,2.7-2.2
						c1.7-0.3,0.7-1.5-3.4-2.2c-1.4-0.3-2.4-0.1-3.4-0.5c-1.5-0.6,3.6-2-2.4-2.5c-1.5-0.1-2.2,0-6.2-0.8c-0.1,0-0.1,0-0.2,0
						c-0.2,0-0.3-0.1-0.5-0.1c-0.1,0-0.1,0-0.2,0C220,60.2,213,62,209.2,64c-4.5,2.4-9.3,6.4-9,11c0.8,10.1,6.7,20.2,17.5,21.8
						c11.1,1.7,19.3-6.7,20.7-16.1c0,0,0,0,0,0C240.6,79.9,242.1,78.3,238.7,77z"/>
					<path class="st4" d="M200.3,75.1c-0.5-2.4,0.8-4.4,2.4-6.1c1-1.1-2.2,2.9,3.8,3.9c4.8,0.8,11.6,0.4,14.2,4.3
						c3.2,4.9,1.6,10.8-1.4,13.7c-4.7,4.7-4.1,5.4-5.2,5C205.9,92.7,202,83.6,200.3,75.1z"/>
					<path class="st0" d="M197.4,86.1c1.4,3.1,3.8,5.8,6.9,7.5c1.2,0.7,4.1,1.8,5.6,0.3c1.5-1.6-0.7-2.6-2.2-2.9
						c-3-0.7,4.1-0.6-2.2-3.2c-3.7-1.5,2.7-0.9,2.8-2.8c0.1-1.6-4.2-2.5-4.4-3.8c1.7,0.4,2.1-0.1,1-1.3c-1.2-1.4-5.9-0.6-4.4-8
						c0.3-1.4-1.9,1-2.1,1.2c-1.8,2.4-2.3,5.5-2.2,8.1C196.3,82.9,196.7,84.5,197.4,86.1z"/>
				</g>
			</g>
			<g>
				<path class="st1" d="M123.2,83c-4.9,21.1-3.4,33,0.4,49.1c6.6,27.6,36.6,46.8,68.1,39.8c30.5-6.7,35.1-39.9,35.1-57
					c0-29.8-19.4-43.3-21.5-45.6c-0.7-0.7,23,47-8.5,77.8c-21.1,20.6-32.1,13.8-42,8C117.3,133,124.6,76.6,123.2,83z"/>
				<path class="st0" d="M128.7,83c8.5-15.4,20.9-19.5,28.3-22.1c0.3-0.1,0.6-0.2,1-0.3c0.2-0.1,0.4-0.1,0.6-0.2
					c0,0,3.5-0.6,5.8-3.8c0.6-0.9,2.3-3.8,3.6-2.6c0.7,0.7,0.5,3.3,1.3,3.5c1.4,0.3,2.1-1.2,2.3-2.4c0.2-1-0.4-2.9,0.3-3.7
					c0.8-0.9,2.3,0.1,3,0.6c1.4,1,2.6,2.4,3.3,3.9c0.1,0.2,0.2,0.4,0.2,0.6c0.4,1.3,1.8,1,1.7-2.8c-0.1-1.7,4.5,1.5,4.1,4.3
					c-0.3,1.6,4.1-3.6,6.5,1.3c0,0,0,0,0,0c7.8-0.2,18,11.9,22.4,17.5c12.4,15.7,12,27.5,11.2,44.6c-0.7,16.7-6.9,40.1-32.6,46.6
					c-29.2,7.4-57.7-9.9-64.4-43C125.3,115.9,121.3,96.5,128.7,83z"/>
			</g>
			<path class="st2" d="M195.4,102.5c-1.2-3.8-3-11.4-10.5-9.9c-6.3,1.3-6.5,14.8-6.7,17.7c-0.6,7.8,0.2,22.1,12,20.6
				C201.5,129.4,200.8,120,195.4,102.5z"/>
			<g>
				<g>
					
						<ellipse transform="matrix(0.8866 -0.4625 0.4625 0.8866 -37.736 99.3883)" class="st10" cx="183.8" cy="126.7" rx="2.2" ry="3.6"/>
					<ellipse transform="matrix(0.7682 -0.6402 0.6402 0.7682 -38.855 147.1649)" cx="183.8" cy="127.2" rx="2" ry="3.1"/>
				</g>
				<g>
					<path class="st10" d="M198.3,125.8c0.6-1.8,0.4-4-0.3-4.1c-0.7-0.1-2,0.3-2.9,2.7c-0.6,1.8-0.5,3.4,0.2,3.7
						C196,128.4,197.6,127.5,198.3,125.8z"/>
					<ellipse transform="matrix(0.4351 -0.9004 0.9004 0.4351 -1.7492 248.1337)" cx="196.9" cy="125.5" rx="3" ry="1.4"/>
				</g>
			</g>
			<g>
				<path class="st12" d="M155.9,97.9c2.8-4.3,8.2-4.2,10.3-1.4c2.4,3.1,2.6,7.1,0.5,10.7c-2.4,4.1-6.4,4.9-9.5,2
					C154,106.3,153.9,101.1,155.9,97.9z"/>
			</g>
			<g>
				<path class="st2" d="M160.3,98.1c-0.8,0.4-1.6,0.9-2.2,1.6c0.8-0.1,1.6,0.2,2.2,1.1c0.8,1.1,1.2,3.1,0,4.4
					c-1.1,1.3-3.1,1.3-4-0.2c0,0,0-0.1,0-0.1c0,0.4,0,0.8,0.1,1.2c0.7,3.5,4.1,5.1,7.1,3.8c2.6-1.1,4.2-4.4,3.1-8
					C165.5,98.1,162.2,97.2,160.3,98.1z"/>
			</g>
			<g>
				<g>
					<path class="st12" d="M211.9,98.5c-0.5-4.8-3.3-6.7-6.3-6.2c-3.2,0.6-5.3,4.8-5.1,8.7c0.3,4.5,3.8,7.4,7.1,6.5
						C211,106.6,212.2,102,211.9,98.5z"/>
				</g>
			</g>
			<g>
				<path class="st2" d="M205.9,95.2c-0.8,0.2-1.4,0.7-2,1.4c0.7-0.1,1.3,0.3,1.8,1.3c0.6,1.1,0.8,3.1-0.3,4.2
					c-1.1,1.1-2.7,1-3.4-0.5c0,0,0-0.1,0-0.1c0,0.4,0,0.8,0,1.1c0.3,3.5,3,5.3,5.6,4.3c2.7-1.1,3.8-4.2,3.3-7.5
					C210.4,96.1,207.8,94.7,205.9,95.2z"/>
			</g>
			<path class="st13" d="M163.1,80c-6.1-1.1-11.3,3.5-14,8.7"/>
			<path class="st14" d="M201.8,77.3c8.2,0.2,10.5,3.6,12.1,7.2"/>
			<g>
				<path class="st1" d="M76.5,76.9c-0.1-2,6.7-4.8,5.7-4.6c-1.1,0.2-4.1-0.3-4.6-1.3c-1-2.2,2.1-1.2,7.4-4.9c1.5-1,3.6-2.5,5-3.6
					c0,0,0.1,0,0.1-0.1c1.9-1.6,4.1-2.8,6.4-3.9c-2.3-1.8,1.4-2.8,4.3-2c3.2,0.9-7.1-4.5,5.8-1.3c2,0.5-2.1-2.4,0.9-2.2
					c2.1,0.1,7.3,2.5,12.4,4.2c0.5,0.2,1,0.3,1.5,0.5c0.1,0,0.1,0,0.2,0.1c0,0,0.1,0,0.1,0c2.8,1,5.1,0.9,7.6,2.5
					c7.5,4.8,11.3,9.7,11.6,18.1c0.2,7.4-2.6,13.2-5.1,17.6c-3.3,5.9-6.6,10.7-12.6,14.5c-5.3,3.3-8.4,4.4-9.3,5.3
					c-2.4,2.4-5.3,2.1-5.2,0.5c0,0-6.3,2.1-4.3-1.2c-8.6,0.3-15.2-6.5-19.6-13.6c-1.9-3-3.2-7.6-4-15.9c-2.9-0.5-0.5-3.9-0.5-3.9
					c-3.7-2.2-0.6-3.5,0.8-4.1c0-0.1,0-0.1,0-0.2C79.8,77.8,76.6,78.3,76.5,76.9z"/>
				<g>
					<path class="st0" d="M73.7,73.4c-0.1-2.1,6.7-4.9,5.7-4.7c-1.1,0.2-4.1-0.3-4.6-1.3c-1-2.3,2.1-1.3,7.4-5.1
						c1.5-1,3.6-2.6,5-3.7c0,0,0.1,0,0.1-0.1c1.9-1.6,4.1-2.9,6.4-4c-2.3-1.9,1.4-2.9,4.3-2c3.3,0.9-7.1-4.6,5.8-1.4
						c2,0.5-2.1-2.5,0.9-2.3c2.1,0.1,7.3,2.5,12.5,4.3c0.5,0.2,1,0.3,1.6,0.5c0.1,0,0.1,0,0.2,0.1c0,0,0.1,0,0.1,0
						c2.8,1,5.5,2.4,8,4c5.4,3.6,10.4,8.4,12.3,14.4c1.3,4,1.2,8.1,0.2,11.9c-0.9,3.6-2.5,6.9-4.4,10c-2,3.3-4.3,6.4-6.9,9.2
						c-2.6,2.8-5.8,5-9.2,7c-1.1,0.7-2.3,1.2-3.6,1.6c-1.2,0.4-1.7,1.1-2.7,1.8c-0.6,0.5-3.1,2-3,0c0,0-6.3,2.2-4.4-1.2
						c-8.7,0.3-16.2-3.8-20.6-11c-1.9-3.1-5.9-10.5-6.8-19.1c-2.9-0.5-0.5-4.1-0.5-4.1c-3.8-2.3-0.6-3.6,0.7-4.2c0-0.1,0-0.1,0-0.2
						C77,74.3,73.8,74.9,73.7,73.4z"/>
					<path class="st3" d="M91.1,79.6c0,0-5.5-1.6-1.2-3.6c1.1-0.5,3.7-1.3,1-2c-2.6-0.7-1.3-1.7,0.3-2.4c3-1.4-0.9-2.2-2.5-2.6
						c-1.7-0.4-0.5-1.6,3.7-2.2c1.5-0.2,2.4,0.1,3.6-0.3c1.7-0.6-3.4-2.3,2.8-2.5c1.6,0,2.2,0.1,6.5-0.5c0.1,0,0.1,0,0.2,0
						c0.2,0,0.3,0,0.5-0.1c0.1,0,0.1,0,0.2,0c6.1-0.6,13.2,1.7,16.8,4.1c4.3,2.9,8.8,7.4,7.9,12.4c-2,10.8-9.4,21.3-20.7,22.4
						c-11.6,1.1-19-8.4-19.4-18.6c0,0,0,0,0,0C88.8,82.6,87.5,80.8,91.1,79.6z"/>
					<path class="st4" d="M130.9,79.9c0.8-2.5-0.3-4.7-1.8-6.7c-0.9-1.2,1.9,3.3-4.4,4c-5.1,0.5-12-0.3-15.1,3.8
						c-3.9,5.1-0.7,10,2,13.4c4.3,5.3,1.3,7.5,2.6,7.1C123,98.5,128,89,130.9,79.9z"/>
					<path class="st0" d="M134.3,86.8c0.5-2.8,0.3-6.1-1.2-8.8c-0.2-0.3-2.1-3-2-1.5c0.6,8-4.1,6.9-5.5,8.3
						c-1.2,1.2-0.9,1.8,0.9,1.5c-0.4,1.4-4.9,2.1-5,3.8c-0.1,2,6.5,1.7,2.5,3.1c-6.7,2.4,0.6,2.8-2.6,3.3c-1.5,0.2-3.9,1.2-2.6,3
						c1.4,1.8,4.5,0.7,5.8,0.1c3.4-1.7,6.2-4.4,8-7.7C133.4,90.3,134,88.5,134.3,86.8z"/>
				</g>
			</g>
		</g>
		<path class="st15" d="M225.4,95.6l-0.4-4.7c-0.4-1.4-1.1-2.8-2.9-3.2c-3.5-0.8-12.4-1.3-21.5,0.3c-0.6,0.1-1.7,0.3-1.7,0.3
			c-1,0.2-2.1,0.4-3.3,0.6c-0.4,0.1-4,0.4-6.8,0.6c-3,0.1-10.1,0.4-10.5,0.4c-1.8-0.1-3.5-0.2-4.9-0.3c-0.6,0-1.3-0.1-2.1-0.1
			c-11.3-0.7-22.1,0.7-26.1,1.9c-2.1,0.6-2.8,2.2-3.1,3.9l-7.2,2.4l-1.6,2.6l9,0.1c0.4,4,1.3,8.9,2.7,11.7c1.8,3.4,3.5,3.9,8.5,4.4
			c4.1,0.4,7.4,0.5,10.3,0.3c2.9-0.2,5.4-0.6,7.8-1.1c4-0.8,5.5-3.5,7.3-7.4c1.4-2.9,2.8-7.3,2.9-10.8c0-0.1,0-0.1,0.1-0.2
			c0.3-0.4,0.8-0.7,1.3-1.2c0.7-0.5,1.5-1,2.3-1.3c1.4-0.7,3.7-0.7,5.2,0.2c0.6,0.3,1.3,0.9,1.9,1.4c0.2,0.1,0.3,0.3,0.5,0.4
			c0,0,0,0.1,0,0.2c0.5,3.5,2.1,7.7,3.4,10.2c1.8,3.4,3.3,5.8,6.6,5.9c4,0.1,7.5,0.4,14.9-1.6c4.1-1.1,5.4-1.8,6.6-5.1
			C225.2,103.9,225.5,99.1,225.4,95.6z M176.1,106.9c-1.7,3.6-2.9,5.2-5.7,5.7c-4.8,0.9-8.2,1.4-15.3,0.7c-4.4-0.4-5.4-0.7-6.7-3.1
			c-1.6-3-2.2-8.7-2.4-10.5c-0.3-3.3-0.1-4.1,3.2-5.1c1.9-0.6,5.2-1.1,9.4-1.4c3.5-0.2,7.7-0.3,12.1-0.1c6.2,0.3,6.8,0.5,7.7,1.9
			C179.3,96.6,177.8,103.3,176.1,106.9z M221.5,104.6c-0.8,2.3-1.7,3.5-5.2,4.2c-6.4,1.2-8.4,1.2-12.3,1.1c-2.3-0.1-3.3-1.4-5-4.6
			c-1.7-3.2-3.5-9.6-2.9-11.2c0.6-1.5,1-1.6,5.9-2.6c3.5-0.6,6.8-1,9.6-1c3.3-0.1,6,0.1,7.6,0.5c2.7,0.6,3,1.4,3.1,4.3
			C222.3,96.8,222.6,101.7,221.5,104.6z"/>
	</g>
	<g>
		<g>
			<path class="st3" d="M193.7,160c-7.2,1.2-13.5-5.7-17.6-15.4c-1.6-3.8-3.3-8.7-3-8.9c0.3-0.2,5.6,4.9,17.5,3.5
				c9.3-1.2,14.3-7.1,15.5-8.7c0.1-0.1,0.4,0,0.3,0.2c-0.3,4.9-0.3,6.8-0.6,10.9C205,154.3,199.4,159,193.7,160z"/>
			<path class="st11" d="M205.5,132.1c0.2,2.1-3.6,16.5-13.5,18c-7.6,1.2-16.8-10.6-17-12.6c-0.2-2.1,3.2,3.8,15.6,1.6
				C202.7,136.9,205.3,130.1,205.5,132.1z"/>
			<path class="st2" d="M173.1,136.1c-0.3-0.4,0.1-0.7,0.5-0.4c3.1,2.6,10.7,13.4,18.5,12.1c8.7-1.4,12.5-16.2,13.8-17.4
				c0.4-0.4,0.5,0,0.5,0.3c-0.1,2.3-4,19.5-13.7,21.2C183.8,153.6,175.4,139.6,173.1,136.1z"/>
		</g>
		<path class="st2" d="M173,136c-0.1-0.1-0.1-0.3-0.1-0.4c0.1-0.1,0.2-0.1,0.4-0.1c2.4,0.5,8.7,3,16.9,1.6
			c8.2-1.4,14.4-5.8,15.5-6.7c0.6-0.5,0.8,0.2,0.7,0.6c-0.7,2.1-5.7,7.4-15.6,9.1C180.5,141.9,174.5,137.6,173,136z"/>
	</g>
</g>
<g id="Head_New_3" class="st5">
	<g class="st6">
		<g>
			<g>
				<path class="st1" d="M252.9,75c0.3-1.9-6-4.8-5-4.5c1.1,0.3,4,0,4.6-0.9c1.2-2-1.9-1.2-6.6-5c-1.3-1-3.2-2.5-4.4-3.6
					c0,0-0.1,0-0.1-0.1c-1.7-1.6-3.6-2.9-5.7-3.9c2.4-1.6-1-2.7-4-2.1c-3.2,0.7,7.3-3.7-5.5-1.6c-1.9,0.3,2.3-2.1-0.7-2.1
					c-2,0-7.3,1.9-12.4,3.2c-0.5,0.1-1,0.2-1.5,0.4c-0.1,0-0.1,0-0.2,0c0,0-0.1,0-0.1,0c-2.8,0.8-5.6,1.7-8.2,3
					c-7.7,4-13.1,12-12.9,19.8c0.4,11.5,8.1,21,13.9,25.8c3.9,3.2,7.6,4.6,8.4,5.4c2.1,2.3,4.9,2.2,5,0.8c0,0,5.9,2.3,4.3-0.8
					c8.3,0.7,15.4-5.2,20.4-11.5c2.1-2.7,3.9-6.8,5.6-14.5c2.9-0.3,0.9-3.6,0.9-3.6c3.8-1.8,0.9-3.2-0.3-3.8c0-0.1,0-0.1,0-0.2
					C249.6,75.6,252.6,76.3,252.9,75z"/>
				<g>
					<path class="st0" d="M256.2,72.2c0.3-1.9-5.9-4.9-5-4.7c1.1,0.3,4,0,4.6-1c1.2-2.1-1.9-1.3-6.6-5.1c-1.3-1-3.2-2.6-4.4-3.7
						c0,0-0.1,0-0.1-0.1c-1.7-1.6-3.6-2.9-5.7-4c2.4-1.6-1-2.8-4-2.1c-3.2,0.7,7.4-3.9-5.5-1.6c-2,0.3,2.3-2.2-0.6-2.2
						c-2,0-7.4,2-12.5,3.3c-0.5,0.1-1,0.3-1.6,0.4c-0.1,0-0.1,0-0.2,0c0,0-0.1,0-0.1,0c-2.8,0.8-5.6,1.9-8.1,3.3
						c-5.6,3-10.9,7.1-13.4,12.6c-1.7,3.6-2,7.4-1.5,11c0.5,3.3,1.7,6.5,3.2,9.5c1.6,3.1,3.5,6.1,5.6,8.9c2.2,2.7,5,5,8.1,7
						c1,0.7,2.1,1.2,3.3,1.7c1.1,0.5,1.6,1.1,2.4,1.9c0.6,0.5,2.8,2,2.9,0.2c0,0,5.9,2.4,4.3-0.9c8.3,0.7,16-2.6,21.1-9.1
						c2.2-2.7,6.9-9.4,8.6-17.3c2.9-0.3,0.9-3.7,0.9-3.7c3.9-1.9,1-3.3-0.3-3.9c0-0.1,0-0.1,0-0.2C252.9,72.9,255.9,73.6,256.2,72.2
						z"/>
					<path class="st3" d="M238.7,77c0,0,5.4-1.2,1.5-3.3c-1-0.5-3.5-1.4-0.8-1.9c2.6-0.5,1.5-1.5,0-2.3c-2.7-1.5,1.1-2,2.7-2.2
						c1.7-0.3,0.7-1.5-3.4-2.2c-1.4-0.3-2.4-0.1-3.4-0.5c-1.5-0.6,3.6-2-2.4-2.5c-1.5-0.1-2.2,0-6.2-0.8c-0.1,0-0.1,0-0.2,0
						c-0.2,0-0.3-0.1-0.5-0.1c-0.1,0-0.1,0-0.2,0C220,60.2,213,62,209.2,64c-4.5,2.4-9.3,6.4-9,11c0.8,10.1,6.7,20.2,17.5,21.8
						c11.1,1.7,19.3-6.7,20.7-16.1c0,0,0,0,0,0C240.6,79.9,242.1,78.3,238.7,77z"/>
					<path class="st4" d="M200.3,75.1c-0.5-2.4,0.8-4.4,2.4-6.1c1-1.1-2.2,2.9,3.8,3.9c4.8,0.8,11.6,0.4,14.2,4.3
						c3.2,4.9,1.6,10.8-1.4,13.7c-4.7,4.7-4.1,5.4-5.2,5C205.9,92.7,202,83.6,200.3,75.1z"/>
					<path class="st0" d="M197.4,86.1c1.4,3.1,3.8,5.8,6.9,7.5c1.2,0.7,4.1,1.8,5.6,0.3c1.5-1.6-0.7-2.6-2.2-2.9
						c-3-0.7,4.1-0.6-2.2-3.2c-3.7-1.5,2.7-0.9,2.8-2.8c0.1-1.6-4.2-2.5-4.4-3.8c1.7,0.4,2.1-0.1,1-1.3c-1.2-1.4-5.9-0.6-4.4-8
						c0.3-1.4-1.9,1-2.1,1.2c-1.8,2.4-2.3,5.5-2.2,8.1C196.3,82.9,196.7,84.5,197.4,86.1z"/>
				</g>
			</g>
			<g>
				<path class="st1" d="M123.2,83c-4.9,21.1-3.4,33,0.4,49.1c6.6,27.6,36.6,46.8,68.1,39.8c30.5-6.7,35.1-39.9,35.1-57
					c0-29.8-19.4-43.3-21.5-45.6c-0.7-0.7,23,47-8.5,77.8c-21.1,20.6-32.1,13.8-42,8C117.3,133,124.6,76.6,123.2,83z"/>
				<path class="st0" d="M128.7,83c8.5-15.4,20.9-19.5,28.3-22.1c0.3-0.1,0.6-0.2,1-0.3c0.2-0.1,0.4-0.1,0.6-0.2
					c0,0,3.5-0.6,5.8-3.8c0.6-0.9,2.3-3.8,3.6-2.6c0.7,0.7,0.5,3.3,1.3,3.5c1.4,0.3,2.1-1.2,2.3-2.4c0.2-1-0.4-2.9,0.3-3.7
					c0.8-0.9,2.3,0.1,3,0.6c1.4,1,2.6,2.4,3.3,3.9c0.1,0.2,0.2,0.4,0.2,0.6c0.4,1.3,1.8,1,1.7-2.8c-0.1-1.7,4.5,1.5,4.1,4.3
					c-0.3,1.6,4.1-3.6,6.5,1.3c0,0,0,0,0,0c7.8-0.2,18,11.9,22.4,17.5c12.4,15.7,12,27.5,11.2,44.6c-0.7,16.7-5.9,39.1-31.6,45.6
					c-29.2,7.4-58.7-8.9-65.4-42C125.3,115.9,121.3,96.5,128.7,83z"/>
			</g>
			<path class="st2" d="M195.4,102.5c-1.2-3.8-3-11.4-10.5-9.9c-6.3,1.3-6.5,14.8-6.7,17.7c-0.6,7.8,0.2,22.1,12,20.6
				C201.5,129.4,200.8,120,195.4,102.5z"/>
			<g>
				<g>
					
						<ellipse transform="matrix(0.8866 -0.4625 0.4625 0.8866 -37.736 99.3883)" class="st10" cx="183.8" cy="126.7" rx="2.2" ry="3.6"/>
					<ellipse transform="matrix(0.7682 -0.6402 0.6402 0.7682 -38.855 147.1649)" cx="183.8" cy="127.2" rx="2" ry="3.1"/>
				</g>
				<g>
					<path class="st10" d="M198.3,125.8c0.6-1.8,0.4-4-0.3-4.1c-0.7-0.1-2,0.3-2.9,2.7c-0.6,1.8-0.5,3.4,0.2,3.7
						C196,128.4,197.6,127.5,198.3,125.8z"/>
					<ellipse transform="matrix(0.4351 -0.9004 0.9004 0.4351 -1.7492 248.1337)" cx="196.9" cy="125.5" rx="3" ry="1.4"/>
				</g>
			</g>
			<g>
				<path class="st12" d="M155.9,97.9c2.8-4.3,8.2-4.2,10.3-1.4c2.4,3.1,2.6,7.1,0.5,10.7c-2.4,4.1-6.4,4.9-9.5,2
					C154,106.3,153.9,101.1,155.9,97.9z"/>
			</g>
			<g>
				<path class="st2" d="M160.3,98.1c-0.8,0.4-1.6,0.9-2.2,1.6c0.8-0.1,1.6,0.2,2.2,1.1c0.8,1.1,1.2,3.1,0,4.4
					c-1.1,1.3-3.1,1.3-4-0.2c0,0,0-0.1,0-0.1c0,0.4,0,0.8,0.1,1.2c0.7,3.5,4.1,5.1,7.1,3.8c2.6-1.1,4.2-4.4,3.1-8
					C165.5,98.1,162.2,97.2,160.3,98.1z"/>
			</g>
			<g>
				<g>
					<path class="st12" d="M211.9,98.5c-0.5-4.8-3.3-6.7-6.3-6.2c-3.2,0.6-5.3,4.8-5.1,8.7c0.3,4.5,3.8,7.4,7.1,6.5
						C211,106.6,212.2,102,211.9,98.5z"/>
				</g>
			</g>
			<g>
				<path class="st2" d="M205.9,95.2c-0.8,0.2-1.4,0.7-2,1.4c0.7-0.1,1.3,0.3,1.8,1.3c0.6,1.1,0.8,3.1-0.3,4.2
					c-1.1,1.1-2.7,1-3.4-0.5c0,0,0-0.1,0-0.1c0,0.4,0,0.8,0,1.1c0.3,3.5,3,5.3,5.6,4.3c2.7-1.1,3.8-4.2,3.3-7.5
					C210.4,96.1,207.8,94.7,205.9,95.2z"/>
			</g>
			<path class="st13" d="M169.1,84.5c-5.2-3.3-11.8-1.1-16.3,2.7"/>
			<path class="st14" d="M198.4,84.3c7.4-3.6,11-1.6,14.1,0.7"/>
			<g>
				<path class="st1" d="M76.5,76.9c-0.1-2,6.7-4.8,5.7-4.6c-1.1,0.2-4.1-0.3-4.6-1.3c-1-2.2,2.1-1.2,7.4-4.9c1.5-1,3.6-2.5,5-3.6
					c0,0,0.1,0,0.1-0.1c1.9-1.6,4.1-2.8,6.4-3.9c-2.3-1.8,1.4-2.8,4.3-2c3.2,0.9-7.1-4.5,5.8-1.3c2,0.5-2.1-2.4,0.9-2.2
					c2.1,0.1,7.3,2.5,12.4,4.2c0.5,0.2,1,0.3,1.5,0.5c0.1,0,0.1,0,0.2,0.1c0,0,0.1,0,0.1,0c2.8,1,5.1,0.9,7.6,2.5
					c7.5,4.8,11.3,9.7,11.6,18.1c0.2,7.4-2.6,13.2-5.1,17.6c-3.3,5.9-6.6,10.7-12.6,14.5c-5.3,3.3-8.4,4.4-9.3,5.3
					c-2.4,2.4-5.3,2.1-5.2,0.5c0,0-6.3,2.1-4.3-1.2c-8.6,0.3-15.2-6.5-19.6-13.6c-1.9-3-3.2-7.6-4-15.9c-2.9-0.5-0.5-3.9-0.5-3.9
					c-3.7-2.2-0.6-3.5,0.8-4.1c0-0.1,0-0.1,0-0.2C79.8,77.8,76.6,78.3,76.5,76.9z"/>
				<g>
					<path class="st0" d="M73.7,73.4c-0.1-2.1,6.7-4.9,5.7-4.7c-1.1,0.2-4.1-0.3-4.6-1.3c-1-2.3,2.1-1.3,7.4-5.1
						c1.5-1,3.6-2.6,5-3.7c0,0,0.1,0,0.1-0.1c1.9-1.6,4.1-2.9,6.4-4c-2.3-1.9,1.4-2.9,4.3-2c3.3,0.9-7.1-4.6,5.8-1.4
						c2,0.5-2.1-2.5,0.9-2.3c2.1,0.1,7.3,2.5,12.5,4.3c0.5,0.2,1,0.3,1.6,0.5c0.1,0,0.1,0,0.2,0.1c0,0,0.1,0,0.1,0
						c2.8,1,5.5,2.4,8,4c5.4,3.6,10.4,8.4,12.3,14.4c1.3,4,1.2,8.1,0.2,11.9c-0.9,3.6-2.5,6.9-4.4,10c-2,3.3-4.3,6.4-6.9,9.2
						c-2.6,2.8-5.8,5-9.2,7c-1.1,0.7-2.3,1.2-3.6,1.6c-1.2,0.4-1.7,1.1-2.7,1.8c-0.6,0.5-3.1,2-3,0c0,0-6.3,2.2-4.4-1.2
						c-8.7,0.3-16.2-3.8-20.6-11c-1.9-3.1-5.9-10.5-6.8-19.1c-2.9-0.5-0.5-4.1-0.5-4.1c-3.8-2.3-0.6-3.6,0.7-4.2c0-0.1,0-0.1,0-0.2
						C77,74.3,73.8,74.9,73.7,73.4z"/>
					<path class="st3" d="M91.1,79.6c0,0-5.5-1.6-1.2-3.6c1.1-0.5,3.7-1.3,1-2c-2.6-0.7-1.3-1.7,0.3-2.4c3-1.4-0.9-2.2-2.5-2.6
						c-1.7-0.4-0.5-1.6,3.7-2.2c1.5-0.2,2.4,0.1,3.6-0.3c1.7-0.6-3.4-2.3,2.8-2.5c1.6,0,2.2,0.1,6.5-0.5c0.1,0,0.1,0,0.2,0
						c0.2,0,0.3,0,0.5-0.1c0.1,0,0.1,0,0.2,0c6.1-0.6,13.2,1.7,16.8,4.1c4.3,2.9,8.8,7.4,7.9,12.4c-2,10.8-9.4,21.3-20.7,22.4
						c-11.6,1.1-19-8.4-19.4-18.6c0,0,0,0,0,0C88.8,82.6,87.5,80.8,91.1,79.6z"/>
					<path class="st4" d="M130.9,79.9c0.8-2.5-0.3-4.7-1.8-6.7c-0.9-1.2,1.9,3.3-4.4,4c-5.1,0.5-12-0.3-15.1,3.8
						c-3.9,5.1-0.7,10,2,13.4c4.3,5.3,1.3,7.5,2.6,7.1C123,98.5,128,89,130.9,79.9z"/>
					<path class="st0" d="M134.3,86.8c0.5-2.8,0.3-6.1-1.2-8.8c-0.2-0.3-2.1-3-2-1.5c0.6,8-4.1,6.9-5.5,8.3
						c-1.2,1.2-0.9,1.8,0.9,1.5c-0.4,1.4-4.9,2.1-5,3.8c-0.1,2,6.5,1.7,2.5,3.1c-6.7,2.4,0.6,2.8-2.6,3.3c-1.5,0.2-3.9,1.2-2.6,3
						c1.4,1.8,4.5,0.7,5.8,0.1c3.4-1.7,6.2-4.4,8-7.7C133.4,90.3,134,88.5,134.3,86.8z"/>
				</g>
			</g>
		</g>
		<path class="st15" d="M225.4,95.6l-0.4-4.7c-0.4-1.4-1.1-2.8-2.9-3.2c-3.5-0.8-12.4-1.3-21.5,0.3c-0.6,0.1-1.7,0.3-1.7,0.3
			c-1,0.2-2.1,0.4-3.3,0.6c-0.4,0.1-4,0.4-6.8,0.6c-3,0.1-10.1,0.4-10.5,0.4c-1.8-0.1-3.5-0.2-4.9-0.3c-0.6,0-1.3-0.1-2.1-0.1
			c-11.3-0.7-22.1,0.7-26.1,1.9c-2.1,0.6-2.8,2.2-3.1,3.9l-7.2,2.4l-1.6,2.6l9,0.1c0.4,4,1.3,8.9,2.7,11.7c1.8,3.4,3.5,3.9,8.5,4.4
			c4.1,0.4,7.4,0.5,10.3,0.3c2.9-0.2,5.4-0.6,7.8-1.1c4-0.8,5.5-3.5,7.3-7.4c1.4-2.9,2.8-7.3,2.9-10.8c0-0.1,0-0.1,0.1-0.2
			c0.3-0.4,0.8-0.7,1.3-1.2c0.7-0.5,1.5-1,2.3-1.3c1.4-0.7,3.7-0.7,5.2,0.2c0.6,0.3,1.3,0.9,1.9,1.4c0.2,0.1,0.3,0.3,0.5,0.4
			c0,0,0,0.1,0,0.2c0.5,3.5,2.1,7.7,3.4,10.2c1.8,3.4,3.3,5.8,6.6,5.9c4,0.1,7.5,0.4,14.9-1.6c4.1-1.1,5.4-1.8,6.6-5.1
			C225.2,103.9,225.5,99.1,225.4,95.6z M176.1,106.9c-1.7,3.6-2.9,5.2-5.7,5.7c-4.8,0.9-8.2,1.4-15.3,0.7c-4.4-0.4-5.4-0.7-6.7-3.1
			c-1.6-3-2.2-8.7-2.4-10.5c-0.3-3.3-0.1-4.1,3.2-5.1c1.9-0.6,5.2-1.1,9.4-1.4c3.5-0.2,7.7-0.3,12.1-0.1c6.2,0.3,6.8,0.5,7.7,1.9
			C179.3,96.6,177.8,103.3,176.1,106.9z M221.5,104.6c-0.8,2.3-1.7,3.5-5.2,4.2c-6.4,1.2-8.4,1.2-12.3,1.1c-2.3-0.1-3.3-1.4-5-4.6
			c-1.7-3.2-3.5-9.6-2.9-11.2c0.6-1.5,1-1.6,5.9-2.6c3.5-0.6,6.8-1,9.6-1c3.3-0.1,6,0.1,7.6,0.5c2.7,0.6,3,1.4,3.1,4.3
			C222.3,96.8,222.6,101.7,221.5,104.6z"/>
	</g>
	<g class="st6">
		<g>
			<path class="st3" d="M193.7,160c-7.2,1.2-13.5-5.7-17.6-15.4c-1.6-3.8-3.2-8.9-2.9-9.2s5.5,5.2,17.4,3.7
				c9.3-1.2,14.9-7.3,16.1-8.9c0.1-0.1,0.5,0.3,0.5,0.5c-0.3,4.9-0.6,6.7-1.3,10.8C203.7,154.8,199.4,159,193.7,160z"/>
		</g>
	</g>
	<g class="st6">
		<path class="st11" d="M205.9,131.7c0.1,1.8-4.6,10.4-14.6,11.9c-7.7,1.1-15.9-5.1-16-6.8s3.3,5,15.6,2.9
			C203.1,137.7,205.8,130,205.9,131.7z"/>
		<path class="st2" d="M173.4,135.9c-0.3-0.4,0.3-0.4,0.7-0.1c3,2.2,6.7,7.7,17.3,6.3c11.8-1.6,13.6-10.4,15-11.4
			c0.4-0.3,0.8,0.1,0.7,0.4c-0.2,2-1.5,11.9-13.9,14.2C181.1,147.5,175.6,138.9,173.4,135.9z"/>
		<path class="st2" d="M173.2,135.6c0-0.1,0-0.2,0.1-0.3c0.1-0.1,0.3,0,0.4,0c2,1,7.9,5,17.3,3.6c9.4-1.5,14.7-7.5,15.3-8.4
			c0.4-0.6,0.8-0.1,0.8,0.3c0.1,1.7-6.3,9.3-15.7,10.7C181.7,142.9,173.7,137.1,173.2,135.6z"/>
	</g>
</g>
<g id="Head_New_4" class="st5">
	<g class="st6">
		<g>
			<g>
				<path class="st1" d="M252.9,75c0.3-1.9-6-4.8-5-4.5c1.1,0.3,4,0,4.6-0.9c1.2-2-1.9-1.2-6.6-5c-1.3-1-3.2-2.5-4.4-3.6
					c0,0-0.1,0-0.1-0.1c-1.7-1.6-3.6-2.9-5.7-3.9c2.4-1.6-1-2.7-4-2.1c-3.2,0.7,7.3-3.7-5.5-1.6c-1.9,0.3,2.3-2.1-0.7-2.1
					c-2,0-7.3,1.9-12.4,3.2c-0.5,0.1-1,0.2-1.5,0.4c-0.1,0-0.1,0-0.2,0c0,0-0.1,0-0.1,0c-2.8,0.8-5.6,1.7-8.2,3
					c-7.7,4-13.1,12-12.9,19.8c0.4,11.5,8.1,21,13.9,25.8c3.9,3.2,7.6,4.6,8.4,5.4c2.1,2.3,4.9,2.2,5,0.8c0,0,5.9,2.3,4.3-0.8
					c8.3,0.7,15.4-5.2,20.4-11.5c2.1-2.7,3.9-6.8,5.6-14.5c2.9-0.3,0.9-3.6,0.9-3.6c3.8-1.8,0.9-3.2-0.3-3.8c0-0.1,0-0.1,0-0.2
					C249.6,75.6,252.6,76.3,252.9,75z"/>
				<g>
					<path class="st0" d="M256.2,72.2c0.3-1.9-5.9-4.9-5-4.7c1.1,0.3,4,0,4.6-1c1.2-2.1-1.9-1.3-6.6-5.1c-1.3-1-3.2-2.6-4.4-3.7
						c0,0-0.1,0-0.1-0.1c-1.7-1.6-3.6-2.9-5.7-4c2.4-1.6-1-2.8-4-2.1c-3.2,0.7,7.4-3.9-5.5-1.6c-2,0.3,2.3-2.2-0.6-2.2
						c-2,0-7.4,2-12.5,3.3c-0.5,0.1-1,0.3-1.6,0.4c-0.1,0-0.1,0-0.2,0c0,0-0.1,0-0.1,0c-2.8,0.8-5.6,1.9-8.1,3.3
						c-5.6,3-10.9,7.1-13.4,12.6c-1.7,3.6-2,7.4-1.5,11c0.5,3.3,1.7,6.5,3.2,9.5c1.6,3.1,3.5,6.1,5.6,8.9c2.2,2.7,5,5,8.1,7
						c1,0.7,2.1,1.2,3.3,1.7c1.1,0.5,1.6,1.1,2.4,1.9c0.6,0.5,2.8,2,2.9,0.2c0,0,5.9,2.4,4.3-0.9c8.3,0.7,16-2.6,21.1-9.1
						c2.2-2.7,6.9-9.4,8.6-17.3c2.9-0.3,0.9-3.7,0.9-3.7c3.9-1.9,1-3.3-0.3-3.9c0-0.1,0-0.1,0-0.2C252.9,72.9,255.9,73.6,256.2,72.2
						z"/>
					<path class="st3" d="M238.7,77c0,0,5.4-1.2,1.5-3.3c-1-0.5-3.5-1.4-0.8-1.9c2.6-0.5,1.5-1.5,0-2.3c-2.7-1.5,1.1-2,2.7-2.2
						c1.7-0.3,0.7-1.5-3.4-2.2c-1.4-0.3-2.4-0.1-3.4-0.5c-1.5-0.6,3.6-2-2.4-2.5c-1.5-0.1-2.2,0-6.2-0.8c-0.1,0-0.1,0-0.2,0
						c-0.2,0-0.3-0.1-0.5-0.1c-0.1,0-0.1,0-0.2,0C220,60.2,213,62,209.2,64c-4.5,2.4-9.3,6.4-9,11c0.8,10.1,6.7,20.2,17.5,21.8
						c11.1,1.7,19.3-6.7,20.7-16.1c0,0,0,0,0,0C240.6,79.9,242.1,78.3,238.7,77z"/>
					<path class="st4" d="M200.3,75.1c-0.5-2.4,0.8-4.4,2.4-6.1c1-1.1-2.2,2.9,3.8,3.9c4.8,0.8,11.6,0.4,14.2,4.3
						c3.2,4.9,1.6,10.8-1.4,13.7c-4.7,4.7-4.1,5.4-5.2,5C205.9,92.7,202,83.6,200.3,75.1z"/>
					<path class="st0" d="M197.4,86.1c1.4,3.1,3.8,5.8,6.9,7.5c1.2,0.7,4.1,1.8,5.6,0.3c1.5-1.6-0.7-2.6-2.2-2.9
						c-3-0.7,4.1-0.6-2.2-3.2c-3.7-1.5,2.7-0.9,2.8-2.8c0.1-1.6-4.2-2.5-4.4-3.8c1.7,0.4,2.1-0.1,1-1.3c-1.2-1.4-5.9-0.6-4.4-8
						c0.3-1.4-1.9,1-2.1,1.2c-1.8,2.4-2.3,5.5-2.2,8.1C196.3,82.9,196.7,84.5,197.4,86.1z"/>
				</g>
			</g>
			<g>
				<path class="st1" d="M123.2,83c-4.9,21.1-2.4,33,1.4,49.1c6.6,27.6,35.6,46.8,67.1,39.8c30.5-6.7,35.1-39.9,35.1-57
					c0-29.8-19.4-43.3-21.5-45.6c-0.7-0.7,23,47-8.5,77.8c-21.1,20.6-32.1,13.8-42,8C117.3,133,124.6,76.6,123.2,83z"/>
				<path class="st0" d="M128.7,83c8.5-15.4,20.9-19.5,28.3-22.1c0.3-0.1,0.6-0.2,1-0.3c0.2-0.1,0.4-0.1,0.6-0.2
					c0,0,3.5-0.6,5.8-3.8c0.6-0.9,2.3-3.8,3.6-2.6c0.7,0.7,0.5,3.3,1.3,3.5c1.4,0.3,2.1-1.2,2.3-2.4c0.2-1-0.4-2.9,0.3-3.7
					c0.8-0.9,2.3,0.1,3,0.6c1.4,1,2.6,2.4,3.3,3.9c0.1,0.2,0.2,0.4,0.2,0.6c0.4,1.3,1.8,1,1.7-2.8c-0.1-1.7,4.5,1.5,4.1,4.3
					c-0.3,1.6,4.1-3.6,6.5,1.3c0,0,0,0,0,0c7.8-0.2,18,11.9,22.4,17.5c12.4,15.7,12,27.5,11.2,44.6c-0.7,16.7-6.9,40.1-32.6,46.6
					c-29.2,7.4-57.7-9.9-64.4-43C125.3,115.9,121.3,96.5,128.7,83z"/>
			</g>
			<path class="st2" d="M195.4,102.5c-1.2-3.8-3-11.4-10.5-9.9c-6.3,1.3-6.5,14.8-6.7,17.7c-0.6,7.8,0.2,22.1,12,20.6
				C201.5,129.4,200.8,120,195.4,102.5z"/>
			<g>
				<g>
					
						<ellipse transform="matrix(0.8866 -0.4625 0.4625 0.8866 -37.736 99.3883)" class="st10" cx="183.8" cy="126.7" rx="2.2" ry="3.6"/>
					<ellipse transform="matrix(0.7682 -0.6402 0.6402 0.7682 -38.855 147.1649)" cx="183.8" cy="127.2" rx="2" ry="3.1"/>
				</g>
				<g>
					<path class="st10" d="M198.3,125.8c0.6-1.8,0.4-4-0.3-4.1c-0.7-0.1-2,0.3-2.9,2.7c-0.6,1.8-0.5,3.4,0.2,3.7
						C196,128.4,197.6,127.5,198.3,125.8z"/>
					<ellipse transform="matrix(0.4351 -0.9004 0.9004 0.4351 -1.7492 248.1337)" cx="196.9" cy="125.5" rx="3" ry="1.4"/>
				</g>
			</g>
			<g>
				<path class="st12" d="M155.9,97.9c2.8-4.3,8.2-4.2,10.3-1.4c2.4,3.1,2.6,7.1,0.5,10.7c-2.4,4.1-6.4,4.9-9.5,2
					C154,106.3,153.9,101.1,155.9,97.9z"/>
			</g>
			<g>
				<path class="st2" d="M160.3,98.1c-0.8,0.4-1.6,0.9-2.2,1.6c0.8-0.1,1.6,0.2,2.2,1.1c0.8,1.1,1.2,3.1,0,4.4
					c-1.1,1.3-3.1,1.3-4-0.2c0,0,0-0.1,0-0.1c0,0.4,0,0.8,0.1,1.2c0.7,3.5,4.1,5.1,7.1,3.8c2.6-1.1,4.2-4.4,3.1-8
					C165.5,98.1,162.2,97.2,160.3,98.1z"/>
			</g>
			<g>
				<g>
					<path class="st12" d="M211.9,98.5c-0.5-4.8-3.3-6.7-6.3-6.2c-3.2,0.6-5.3,4.8-5.1,8.7c0.3,4.5,3.8,7.4,7.1,6.5
						C211,106.6,212.2,102,211.9,98.5z"/>
				</g>
			</g>
			<g>
				<path class="st2" d="M205.9,95.2c-0.8,0.2-1.4,0.7-2,1.4c0.7-0.1,1.3,0.3,1.8,1.3c0.6,1.1,0.8,3.1-0.3,4.2
					c-1.1,1.1-2.7,1-3.4-0.5c0,0,0-0.1,0-0.1c0,0.4,0,0.8,0,1.1c0.3,3.5,3,5.3,5.6,4.3c2.7-1.1,3.8-4.2,3.3-7.5
					C210.4,96.1,207.8,94.7,205.9,95.2z"/>
			</g>
			<path class="st13" d="M166.9,82.3c-5.6-2.5-11.8,0.6-15.7,5"/>
			<path class="st14" d="M198.4,81.5c7.7-2.7,11.1-0.4,13.9,2.4"/>
			<g>
				<path class="st1" d="M76.5,76.9c-0.1-2,6.7-4.8,5.7-4.6c-1.1,0.2-4.1-0.3-4.6-1.3c-1-2.2,2.1-1.2,7.4-4.9c1.5-1,3.6-2.5,5-3.6
					c0,0,0.1,0,0.1-0.1c1.9-1.6,4.1-2.8,6.4-3.9c-2.3-1.8,1.4-2.8,4.3-2c3.2,0.9-7.1-4.5,5.8-1.3c2,0.5-2.1-2.4,0.9-2.2
					c2.1,0.1,7.3,2.5,12.4,4.2c0.5,0.2,1,0.3,1.5,0.5c0.1,0,0.1,0,0.2,0.1c0,0,0.1,0,0.1,0c2.8,1,5.1,0.9,7.6,2.5
					c7.5,4.8,11.3,9.7,11.6,18.1c0.2,7.4-2.6,13.2-5.1,17.6c-3.3,5.9-6.6,10.7-12.6,14.5c-5.3,3.3-8.4,4.4-9.3,5.3
					c-2.4,2.4-5.3,2.1-5.2,0.5c0,0-6.3,2.1-4.3-1.2c-8.6,0.3-15.2-6.5-19.6-13.6c-1.9-3-3.2-7.6-4-15.9c-2.9-0.5-0.5-3.9-0.5-3.9
					c-3.7-2.2-0.6-3.5,0.8-4.1c0-0.1,0-0.1,0-0.2C79.8,77.8,76.6,78.3,76.5,76.9z"/>
				<g>
					<path class="st0" d="M73.7,73.4c-0.1-2.1,6.7-4.9,5.7-4.7c-1.1,0.2-4.1-0.3-4.6-1.3c-1-2.3,2.1-1.3,7.4-5.1
						c1.5-1,3.6-2.6,5-3.7c0,0,0.1,0,0.1-0.1c1.9-1.6,4.1-2.9,6.4-4c-2.3-1.9,1.4-2.9,4.3-2c3.3,0.9-7.1-4.6,5.8-1.4
						c2,0.5-2.1-2.5,0.9-2.3c2.1,0.1,7.3,2.5,12.5,4.3c0.5,0.2,1,0.3,1.6,0.5c0.1,0,0.1,0,0.2,0.1c0,0,0.1,0,0.1,0
						c2.8,1,5.5,2.4,8,4c5.4,3.6,10.4,8.4,12.3,14.4c1.3,4,1.2,8.1,0.2,11.9c-0.9,3.6-2.5,6.9-4.4,10c-2,3.3-4.3,6.4-6.9,9.2
						c-2.6,2.8-5.8,5-9.2,7c-1.1,0.7-2.3,1.2-3.6,1.6c-1.2,0.4-1.7,1.1-2.7,1.8c-0.6,0.5-3.1,2-3,0c0,0-6.3,2.2-4.4-1.2
						c-8.7,0.3-16.2-3.8-20.6-11c-1.9-3.1-5.9-10.5-6.8-19.1c-2.9-0.5-0.5-4.1-0.5-4.1c-3.8-2.3-0.6-3.6,0.7-4.2c0-0.1,0-0.1,0-0.2
						C77,74.3,73.8,74.9,73.7,73.4z"/>
					<path class="st3" d="M91.1,79.6c0,0-5.5-1.6-1.2-3.6c1.1-0.5,3.7-1.3,1-2c-2.6-0.7-1.3-1.7,0.3-2.4c3-1.4-0.9-2.2-2.5-2.6
						c-1.7-0.4-0.5-1.6,3.7-2.2c1.5-0.2,2.4,0.1,3.6-0.3c1.7-0.6-3.4-2.3,2.8-2.5c1.6,0,2.2,0.1,6.5-0.5c0.1,0,0.1,0,0.2,0
						c0.2,0,0.3,0,0.5-0.1c0.1,0,0.1,0,0.2,0c6.1-0.6,13.2,1.7,16.8,4.1c4.3,2.9,8.8,7.4,7.9,12.4c-2,10.8-9.4,21.3-20.7,22.4
						c-11.6,1.1-19-8.4-19.4-18.6c0,0,0,0,0,0C88.8,82.6,87.5,80.8,91.1,79.6z"/>
					<path class="st4" d="M130.9,79.9c0.8-2.5-0.3-4.7-1.8-6.7c-0.9-1.2,1.9,3.3-4.4,4c-5.1,0.5-12-0.3-15.1,3.8
						c-3.9,5.1-0.7,10,2,13.4c4.3,5.3,1.3,7.5,2.6,7.1C123,98.5,128,89,130.9,79.9z"/>
					<path class="st0" d="M134.3,86.8c0.5-2.8,0.3-6.1-1.2-8.8c-0.2-0.3-2.1-3-2-1.5c0.6,8-4.1,6.9-5.5,8.3
						c-1.2,1.2-0.9,1.8,0.9,1.5c-0.4,1.4-4.9,2.1-5,3.8c-0.1,2,6.5,1.7,2.5,3.1c-6.7,2.4,0.6,2.8-2.6,3.3c-1.5,0.2-3.9,1.2-2.6,3
						c1.4,1.8,4.5,0.7,5.8,0.1c3.4-1.7,6.2-4.4,8-7.7C133.4,90.3,134,88.5,134.3,86.8z"/>
				</g>
			</g>
		</g>
		<path class="st15" d="M225.4,95.6l-0.4-4.7c-0.4-1.4-1.1-2.8-2.9-3.2c-3.5-0.8-12.4-1.3-21.5,0.3c-0.6,0.1-1.7,0.3-1.7,0.3
			c-1,0.2-2.1,0.4-3.3,0.6c-0.4,0.1-4,0.4-6.8,0.6c-3,0.1-10.1,0.4-10.5,0.4c-1.8-0.1-3.5-0.2-4.9-0.3c-0.6,0-1.3-0.1-2.1-0.1
			c-11.3-0.7-22.1,0.7-26.1,1.9c-2.1,0.6-2.8,2.2-3.1,3.9l-7.2,2.4l-1.6,2.6l9,0.1c0.4,4,1.3,8.9,2.7,11.7c1.8,3.4,3.5,3.9,8.5,4.4
			c4.1,0.4,7.4,0.5,10.3,0.3c2.9-0.2,5.4-0.6,7.8-1.1c4-0.8,5.5-3.5,7.3-7.4c1.4-2.9,2.8-7.3,2.9-10.8c0-0.1,0-0.1,0.1-0.2
			c0.3-0.4,0.8-0.7,1.3-1.2c0.7-0.5,1.5-1,2.3-1.3c1.4-0.7,3.7-0.7,5.2,0.2c0.6,0.3,1.3,0.9,1.9,1.4c0.2,0.1,0.3,0.3,0.5,0.4
			c0,0,0,0.1,0,0.2c0.5,3.5,2.1,7.7,3.4,10.2c1.8,3.4,3.3,5.8,6.6,5.9c4,0.1,7.5,0.4,14.9-1.6c4.1-1.1,5.4-1.8,6.6-5.1
			C225.2,103.9,225.5,99.1,225.4,95.6z M176.1,106.9c-1.7,3.6-2.9,5.2-5.7,5.7c-4.8,0.9-8.2,1.4-15.3,0.7c-4.4-0.4-5.4-0.7-6.7-3.1
			c-1.6-3-2.2-8.7-2.4-10.5c-0.3-3.3-0.1-4.1,3.2-5.1c1.9-0.6,5.2-1.1,9.4-1.4c3.5-0.2,7.7-0.3,12.1-0.1c6.2,0.3,6.8,0.5,7.7,1.9
			C179.3,96.6,177.8,103.3,176.1,106.9z M221.5,104.6c-0.8,2.3-1.7,3.5-5.2,4.2c-6.4,1.2-8.4,1.2-12.3,1.1c-2.3-0.1-3.3-1.4-5-4.6
			c-1.7-3.2-3.5-9.6-2.9-11.2c0.6-1.5,1-1.6,5.9-2.6c3.5-0.6,6.8-1,9.6-1c3.3-0.1,6,0.1,7.6,0.5c2.7,0.6,3,1.4,3.1,4.3
			C222.3,96.8,222.6,101.7,221.5,104.6z"/>
	</g>
	<g class="st6">
		<g>
			<path class="st3" d="M196.3,160.5c-8.9,1.3-15-2.1-17.7-12.8c0,0,2.5-8.2,14-9.6c8.9-1.1,13.7,3,14,5.3
				C208,154,201.2,159.8,196.3,160.5z"/>
		</g>
	</g>
	<g class="st6">
		<path class="st2" d="M206.6,142.8c0.8,4.8-4,11.3-11.7,12.7c-7.7,1.4-15.4-3-16.2-7.8c-0.8-4.8,4.9-10.1,12.6-11.4
			C198.9,135,205.8,138.1,206.6,142.8z"/>
		<path class="st11" d="M203.5,143.2c0.5,3.3-3.8,7.7-9.1,8.7s-12.3-0.9-12.9-4.1c-0.5-3.3,4.8-7.4,10.1-8.3
			C197,138.5,203,139.9,203.5,143.2z"/>
	</g>
</g>
<g id="Head_New_5" class="st5">
	<g class="st6">
		<g>
			<g>
				<path class="st1" d="M252.9,75c0.3-1.9-6-4.8-5-4.5c1.1,0.3,4,0,4.6-0.9c1.2-2-1.9-1.2-6.6-5c-1.3-1-3.2-2.5-4.4-3.6
					c0,0-0.1,0-0.1-0.1c-1.7-1.6-3.6-2.9-5.7-3.9c2.4-1.6-1-2.7-4-2.1c-3.2,0.7,7.3-3.7-5.5-1.6c-1.9,0.3,2.3-2.1-0.7-2.1
					c-2,0-7.3,1.9-12.4,3.2c-0.5,0.1-1,0.2-1.5,0.4c-0.1,0-0.1,0-0.2,0c0,0-0.1,0-0.1,0c-2.8,0.8-5.6,1.7-8.2,3
					c-7.7,4-13.1,12-12.9,19.8c0.4,11.5,8.1,21,13.9,25.8c3.9,3.2,7.6,4.6,8.4,5.4c2.1,2.3,4.9,2.2,5,0.8c0,0,5.9,2.3,4.3-0.8
					c8.3,0.7,15.4-5.2,20.4-11.5c2.1-2.7,3.9-6.8,5.6-14.5c2.9-0.3,0.9-3.6,0.9-3.6c3.8-1.8,0.9-3.2-0.3-3.8c0-0.1,0-0.1,0-0.2
					C249.6,75.6,252.6,76.3,252.9,75z"/>
				<g>
					<path class="st0" d="M256.2,72.2c0.3-1.9-5.9-4.9-5-4.7c1.1,0.3,4,0,4.6-1c1.2-2.1-1.9-1.3-6.6-5.1c-1.3-1-3.2-2.6-4.4-3.7
						c0,0-0.1,0-0.1-0.1c-1.7-1.6-3.6-2.9-5.7-4c2.4-1.6-1-2.8-4-2.1c-3.2,0.7,7.4-3.9-5.5-1.6c-2,0.3,2.3-2.2-0.6-2.2
						c-2,0-7.4,2-12.5,3.3c-0.5,0.1-1,0.3-1.6,0.4c-0.1,0-0.1,0-0.2,0c0,0-0.1,0-0.1,0c-2.8,0.8-5.6,1.9-8.1,3.3
						c-5.6,3-10.9,7.1-13.4,12.6c-1.7,3.6-2,7.4-1.5,11c0.5,3.3,1.7,6.5,3.2,9.5c1.6,3.1,3.5,6.1,5.6,8.9c2.2,2.7,5,5,8.1,7
						c1,0.7,2.1,1.2,3.3,1.7c1.1,0.5,1.6,1.1,2.4,1.9c0.6,0.5,2.8,2,2.9,0.2c0,0,5.9,2.4,4.3-0.9c8.3,0.7,16-2.6,21.1-9.1
						c2.2-2.7,6.9-9.4,8.6-17.3c2.9-0.3,0.9-3.7,0.9-3.7c3.9-1.9,1-3.3-0.3-3.9c0-0.1,0-0.1,0-0.2C252.9,72.9,255.9,73.6,256.2,72.2
						z"/>
					<path class="st3" d="M238.7,77c0,0,5.4-1.2,1.5-3.3c-1-0.5-3.5-1.4-0.8-1.9c2.6-0.5,1.5-1.5,0-2.3c-2.7-1.5,1.1-2,2.7-2.2
						c1.7-0.3,0.7-1.5-3.4-2.2c-1.4-0.3-2.4-0.1-3.4-0.5c-1.5-0.6,3.6-2-2.4-2.5c-1.5-0.1-2.2,0-6.2-0.8c-0.1,0-0.1,0-0.2,0
						c-0.2,0-0.3-0.1-0.5-0.1c-0.1,0-0.1,0-0.2,0C220,60.2,213,62,209.2,64c-4.5,2.4-9.3,6.4-9,11c0.8,10.1,6.7,20.2,17.5,21.8
						c11.1,1.7,19.3-6.7,20.7-16.1c0,0,0,0,0,0C240.6,79.9,242.1,78.3,238.7,77z"/>
					<path class="st4" d="M200.3,75.1c-0.5-2.4,0.8-4.4,2.4-6.1c1-1.1-2.2,2.9,3.8,3.9c4.8,0.8,11.6,0.4,14.2,4.3
						c3.2,4.9,1.6,10.8-1.4,13.7c-4.7,4.7-4.1,5.4-5.2,5C205.9,92.7,202,83.6,200.3,75.1z"/>
					<path class="st0" d="M197.4,86.1c1.4,3.1,3.8,5.8,6.9,7.5c1.2,0.7,4.1,1.8,5.6,0.3c1.5-1.6-0.7-2.6-2.2-2.9
						c-3-0.7,4.1-0.6-2.2-3.2c-3.7-1.5,2.7-0.9,2.8-2.8c0.1-1.6-4.2-2.5-4.4-3.8c1.7,0.4,2.1-0.1,1-1.3c-1.2-1.4-5.9-0.6-4.4-8
						c0.3-1.4-1.9,1-2.1,1.2c-1.8,2.4-2.3,5.5-2.2,8.1C196.3,82.9,196.7,84.5,197.4,86.1z"/>
				</g>
			</g>
			<g>
				<path class="st1" d="M123.2,83c-4.9,21.1-2.4,33,1.4,49.1c6.6,27.6,35.6,46.8,67.1,39.8c30.5-6.7,35.1-39.9,35.1-57
					c0-29.8-19.4-43.3-21.5-45.6c-0.7-0.7,23,47-8.5,77.8c-21.1,20.6-32.1,13.8-42,8C117.3,133,124.6,76.6,123.2,83z"/>
				<path class="st0" d="M128.7,83c8.5-15.4,20.9-19.5,28.3-22.1c0.3-0.1,0.6-0.2,1-0.3c0.2-0.1,0.4-0.1,0.6-0.2
					c0,0,3.5-0.6,5.8-3.8c0.6-0.9,2.3-3.8,3.6-2.6c0.7,0.7,0.5,3.3,1.3,3.5c1.4,0.3,2.1-1.2,2.3-2.4c0.2-1-0.4-2.9,0.3-3.7
					c0.8-0.9,2.3,0.1,3,0.6c1.4,1,2.6,2.4,3.3,3.9c0.1,0.2,0.2,0.4,0.2,0.6c0.4,1.3,1.8,1,1.7-2.8c-0.1-1.7,4.5,1.5,4.1,4.3
					c-0.3,1.6,4.1-3.6,6.5,1.3c0,0,0,0,0,0c7.8-0.2,18,11.9,22.4,17.5c12.4,15.7,12,27.5,11.2,44.6c-0.7,16.7-6.9,40.1-32.6,46.6
					c-29.2,7.4-57.7-9.9-64.4-43C125.3,115.9,121.3,96.5,128.7,83z"/>
			</g>
			<path class="st2" d="M195.4,102.5c-1.2-3.8-3-11.4-10.5-9.9c-6.3,1.3-6.5,14.8-6.7,17.7c-0.6,7.8,0.2,22.1,12,20.6
				C201.5,129.4,200.8,120,195.4,102.5z"/>
			<g>
				<g>
					
						<ellipse transform="matrix(0.8866 -0.4625 0.4625 0.8866 -37.736 99.3883)" class="st10" cx="183.8" cy="126.7" rx="2.2" ry="3.6"/>
					<ellipse transform="matrix(0.7682 -0.6402 0.6402 0.7682 -38.855 147.1649)" cx="183.8" cy="127.2" rx="2" ry="3.1"/>
				</g>
				<g>
					<path class="st10" d="M198.3,125.8c0.6-1.8,0.4-4-0.3-4.1c-0.7-0.1-2,0.3-2.9,2.7c-0.6,1.8-0.5,3.4,0.2,3.7
						C196,128.4,197.6,127.5,198.3,125.8z"/>
					<ellipse transform="matrix(0.4351 -0.9004 0.9004 0.4351 -1.7492 248.1337)" cx="196.9" cy="125.5" rx="3" ry="1.4"/>
				</g>
			</g>
			<g>
				<path class="st12" d="M155.9,97.9c2.8-4.3,8.2-4.2,10.3-1.4c2.4,3.1,2.6,7.1,0.5,10.7c-2.4,4.1-6.4,4.9-9.5,2
					C154,106.3,153.9,101.1,155.9,97.9z"/>
			</g>
			<g>
				<path class="st2" d="M160.3,98.1c-0.8,0.4-1.6,0.9-2.2,1.6c0.8-0.1,1.6,0.2,2.2,1.1c0.8,1.1,1.2,3.1,0,4.4
					c-1.1,1.3-3.1,1.3-4-0.2c0,0,0-0.1,0-0.1c0,0.4,0,0.8,0.1,1.2c0.7,3.5,4.1,5.1,7.1,3.8c2.6-1.1,4.2-4.4,3.1-8
					C165.5,98.1,162.2,97.2,160.3,98.1z"/>
			</g>
			<g>
				<g>
					<path class="st12" d="M211.9,98.5c-0.5-4.8-3.3-6.7-6.3-6.2c-3.2,0.6-5.3,4.8-5.1,8.7c0.3,4.5,3.8,7.4,7.1,6.5
						C211,106.6,212.2,102,211.9,98.5z"/>
				</g>
			</g>
			<g>
				<path class="st2" d="M205.9,95.2c-0.8,0.2-1.4,0.7-2,1.4c0.7-0.1,1.3,0.3,1.8,1.3c0.6,1.1,0.8,3.1-0.3,4.2
					c-1.1,1.1-2.7,1-3.4-0.5c0,0,0-0.1,0-0.1c0,0.4,0,0.8,0,1.1c0.3,3.5,3,5.3,5.6,4.3c2.7-1.1,3.8-4.2,3.3-7.5
					C210.4,96.1,207.8,94.7,205.9,95.2z"/>
			</g>
			<path class="st13" d="M169.4,87.7c-4.9-3.8-11.6-2.2-16.5,1.1"/>
			<path class="st14" d="M197.9,78.3c7.9-2.3,11.1,0.2,13.7,3.1"/>
			<g>
				<path class="st1" d="M76.5,76.9c-0.1-2,6.7-4.8,5.7-4.6c-1.1,0.2-4.1-0.3-4.6-1.3c-1-2.2,2.1-1.2,7.4-4.9c1.5-1,3.6-2.5,5-3.6
					c0,0,0.1,0,0.1-0.1c1.9-1.6,4.1-2.8,6.4-3.9c-2.3-1.8,1.4-2.8,4.3-2c3.2,0.9-7.1-4.5,5.8-1.3c2,0.5-2.1-2.4,0.9-2.2
					c2.1,0.1,7.3,2.5,12.4,4.2c0.5,0.2,1,0.3,1.5,0.5c0.1,0,0.1,0,0.2,0.1c0,0,0.1,0,0.1,0c2.8,1,5.1,0.9,7.6,2.5
					c7.5,4.8,11.3,9.7,11.6,18.1c0.2,7.4-2.6,13.2-5.1,17.6c-3.3,5.9-6.6,10.7-12.6,14.5c-5.3,3.3-8.4,4.4-9.3,5.3
					c-2.4,2.4-5.3,2.1-5.2,0.5c0,0-6.3,2.1-4.3-1.2c-8.6,0.3-15.2-6.5-19.6-13.6c-1.9-3-3.2-7.6-4-15.9c-2.9-0.5-0.5-3.9-0.5-3.9
					c-3.7-2.2-0.6-3.5,0.8-4.1c0-0.1,0-0.1,0-0.2C79.8,77.8,76.6,78.3,76.5,76.9z"/>
				<g>
					<path class="st0" d="M73.7,73.4c-0.1-2.1,6.7-4.9,5.7-4.7c-1.1,0.2-4.1-0.3-4.6-1.3c-1-2.3,2.1-1.3,7.4-5.1
						c1.5-1,3.6-2.6,5-3.7c0,0,0.1,0,0.1-0.1c1.9-1.6,4.1-2.9,6.4-4c-2.3-1.9,1.4-2.9,4.3-2c3.3,0.9-7.1-4.6,5.8-1.4
						c2,0.5-2.1-2.5,0.9-2.3c2.1,0.1,7.3,2.5,12.5,4.3c0.5,0.2,1,0.3,1.6,0.5c0.1,0,0.1,0,0.2,0.1c0,0,0.1,0,0.1,0
						c2.8,1,5.5,2.4,8,4c5.4,3.6,10.4,8.4,12.3,14.4c1.3,4,1.2,8.1,0.2,11.9c-0.9,3.6-2.5,6.9-4.4,10c-2,3.3-4.3,6.4-6.9,9.2
						c-2.6,2.8-5.8,5-9.2,7c-1.1,0.7-2.3,1.2-3.6,1.6c-1.2,0.4-1.7,1.1-2.7,1.8c-0.6,0.5-3.1,2-3,0c0,0-6.3,2.2-4.4-1.2
						c-8.7,0.3-16.2-3.8-20.6-11c-1.9-3.1-5.9-10.5-6.8-19.1c-2.9-0.5-0.5-4.1-0.5-4.1c-3.8-2.3-0.6-3.6,0.7-4.2c0-0.1,0-0.1,0-0.2
						C77,74.3,73.8,74.9,73.7,73.4z"/>
					<path class="st3" d="M91.1,79.6c0,0-5.5-1.6-1.2-3.6c1.1-0.5,3.7-1.3,1-2c-2.6-0.7-1.3-1.7,0.3-2.4c3-1.4-0.9-2.2-2.5-2.6
						c-1.7-0.4-0.5-1.6,3.7-2.2c1.5-0.2,2.4,0.1,3.6-0.3c1.7-0.6-3.4-2.3,2.8-2.5c1.6,0,2.2,0.1,6.5-0.5c0.1,0,0.1,0,0.2,0
						c0.2,0,0.3,0,0.5-0.1c0.1,0,0.1,0,0.2,0c6.1-0.6,13.2,1.7,16.8,4.1c4.3,2.9,8.8,7.4,7.9,12.4c-2,10.8-9.4,21.3-20.7,22.4
						c-11.6,1.1-19-8.4-19.4-18.6c0,0,0,0,0,0C88.8,82.6,87.5,80.8,91.1,79.6z"/>
					<path class="st4" d="M130.9,79.9c0.8-2.5-0.3-4.7-1.8-6.7c-0.9-1.2,1.9,3.3-4.4,4c-5.1,0.5-12-0.3-15.1,3.8
						c-3.9,5.1-0.7,10,2,13.4c4.3,5.3,1.3,7.5,2.6,7.1C123,98.5,128,89,130.9,79.9z"/>
					<path class="st0" d="M134.3,86.8c0.5-2.8,0.3-6.1-1.2-8.8c-0.2-0.3-2.1-3-2-1.5c0.6,8-4.1,6.9-5.5,8.3
						c-1.2,1.2-0.9,1.8,0.9,1.5c-0.4,1.4-4.9,2.1-5,3.8c-0.1,2,6.5,1.7,2.5,3.1c-6.7,2.4,0.6,2.8-2.6,3.3c-1.5,0.2-3.9,1.2-2.6,3
						c1.4,1.8,4.5,0.7,5.8,0.1c3.4-1.7,6.2-4.4,8-7.7C133.4,90.3,134,88.5,134.3,86.8z"/>
				</g>
			</g>
		</g>
		<path class="st15" d="M225.4,95.6l-0.4-4.7c-0.4-1.4-1.1-2.8-2.9-3.2c-3.5-0.8-12.4-1.3-21.5,0.3c-0.6,0.1-1.7,0.3-1.7,0.3
			c-1,0.2-2.1,0.4-3.3,0.6c-0.4,0.1-4,0.4-6.8,0.6c-3,0.1-10.1,0.4-10.5,0.4c-1.8-0.1-3.5-0.2-4.9-0.3c-0.6,0-1.3-0.1-2.1-0.1
			c-11.3-0.7-22.1,0.7-26.1,1.9c-2.1,0.6-2.8,2.2-3.1,3.9l-7.2,2.4l-1.6,2.6l9,0.1c0.4,4,1.3,8.9,2.7,11.7c1.8,3.4,3.5,3.9,8.5,4.4
			c4.1,0.4,7.4,0.5,10.3,0.3c2.9-0.2,5.4-0.6,7.8-1.1c4-0.8,5.5-3.5,7.3-7.4c1.4-2.9,2.8-7.3,2.9-10.8c0-0.1,0-0.1,0.1-0.2
			c0.3-0.4,0.8-0.7,1.3-1.2c0.7-0.5,1.5-1,2.3-1.3c1.4-0.7,3.7-0.7,5.2,0.2c0.6,0.3,1.3,0.9,1.9,1.4c0.2,0.1,0.3,0.3,0.5,0.4
			c0,0,0,0.1,0,0.2c0.5,3.5,2.1,7.7,3.4,10.2c1.8,3.4,3.3,5.8,6.6,5.9c4,0.1,7.5,0.4,14.9-1.6c4.1-1.1,5.4-1.8,6.6-5.1
			C225.2,103.9,225.5,99.1,225.4,95.6z M176.1,106.9c-1.7,3.6-2.9,5.2-5.7,5.7c-4.8,0.9-8.2,1.4-15.3,0.7c-4.4-0.4-5.4-0.7-6.7-3.1
			c-1.6-3-2.2-8.7-2.4-10.5c-0.3-3.3-0.1-4.1,3.2-5.1c1.9-0.6,5.2-1.1,9.4-1.4c3.5-0.2,7.7-0.3,12.1-0.1c6.2,0.3,6.8,0.5,7.7,1.9
			C179.3,96.6,177.8,103.3,176.1,106.9z M221.5,104.6c-0.8,2.3-1.7,3.5-5.2,4.2c-6.4,1.2-8.4,1.2-12.3,1.1c-2.3-0.1-3.3-1.4-5-4.6
			c-1.7-3.2-3.5-9.6-2.9-11.2c0.6-1.5,1-1.6,5.9-2.6c3.5-0.6,6.8-1,9.6-1c3.3-0.1,6,0.1,7.6,0.5c2.7,0.6,3,1.4,3.1,4.3
			C222.3,96.8,222.6,101.7,221.5,104.6z"/>
	</g>
	<path class="st8" d="M194.7,158.1c7.5-2.9,8.5-9.5,9.9-16.2c0.9-4.2,2-11.2,1.6-11.3c-0.3-0.1-4.5,6.3-16.3,8.8
		c-9.2,2-15.1-2.8-16.6-3.9c-0.1-0.1-0.4-0.1-0.4,0.1c1.5,5.1,2.8,8.5,4.1,11.1C179.1,150.8,186.7,161.2,194.7,158.1z"/>
	<g class="st6">
		<g>
			<path class="st11" d="M205.3,131.8c-3.7,5.2-4.7,14.9-12.9,14.9c-5.1,0-7.2-5.2-14.4-8.2c-5.4-2.3-3.3-2.1-2.2-1.9
				c2.5,0.3,9,2,14.8,2.5C202.9,140.1,205.3,131.8,205.3,131.8z"/>
			<path class="st2" d="M173.1,136.1c-0.3-0.4,0.1-0.7,0.5-0.4c1.9,1.6,4.4,2.9,9.6,4.3c4.6,1.3,5.4,5,9.1,4.6
				c4.5-0.4,4.3-2.8,6.9-5.3c3.2-3.1,5.9-8.1,6.7-8.9c0.4-0.4,0.5,0,0.5,0.3c-0.1,1.2-2.7,4.7-4.5,8.5c-1.8,3.9-3,9.4-8.9,9.9
				c-5.1,0.4-7.1-5.1-11.4-7.8C176.7,138.4,174.3,137.9,173.1,136.1z"/>
		</g>
		<path class="st2" d="M173,136c-0.1-0.1-0.1-0.3-0.1-0.4c0.1-0.1,0.2-0.1,0.4-0.1c2.4,0.5,12.7,2.9,20.8,1.5
			c8.2-1.4,10.5-5.7,11.6-6.6c0.6-0.5,0.8,0.2,0.7,0.6c-0.7,2.1-5,8.2-13.1,9.5C184.9,141.8,174.5,137.6,173,136z"/>
	</g>
</g>
</svg>
