<?xml version="1.0" encoding="UTF-8"?><svg id="Layer_1" xmlns="http://www.w3.org/2000/svg" viewBox="0 0 355.413 355.385"><defs><style>.cls-1{fill:#75bfea;}.cls-1,.cls-2{stroke-width:0px;}.cls-2{fill:#108bcc;}</style></defs><path class="cls-1" d="m295.551,165.571c-2.507-24.18-12.379-47.007-28.28-65.394l-1.876-2.103c-15.912-17.516-36.708-29.863-59.703-35.449-22.996-5.586-47.137-4.154-69.311,4.11-22.175,8.264-41.365,22.982-55.095,42.256-13.731,19.273-21.372,42.219-21.939,65.876-.567,23.657,5.967,46.943,18.758,66.852,12.792,19.909,31.254,35.53,53.008,44.847,21.753,9.318,45.798,11.903,69.035,7.426,23.237-4.478,44.6-15.814,61.332-32.548,1.941-1.941,3.753-3.916,5.533-5.954,15.364-17.647,25.169-39.44,28.183-62.643,0-1.003.226-1.974.323-2.977.097-1.002,0-1.294.194-1.941.303-3.343.454-6.73.454-10.16.003-4.074-.202-8.146-.615-12.198h0Zm-118.233-80.698c4.704.013,9.298,1.423,13.2,4.05,3.901,2.628,6.935,6.355,8.716,10.709,1.781,4.354,2.229,9.139,1.286,13.748-.941,4.609-3.231,8.833-6.578,12.139-3.346,3.306-7.599,5.544-12.22,6.428-4.62.886-9.398.38-13.73-1.455-4.332-1.834-8.021-4.913-10.601-8.847-2.579-3.934-3.933-8.545-3.888-13.249-.013-3.117.596-6.206,1.792-9.085,1.195-2.879,2.954-5.491,5.171-7.681,2.218-2.191,4.851-3.917,7.745-5.077,2.894-1.16,5.99-1.731,9.106-1.679h0Zm-90.632,72.059c.026-4.676,1.435-9.24,4.05-13.117,2.615-3.876,6.319-6.892,10.646-8.667,4.326-1.775,9.082-2.23,13.665-1.306,4.584.923,8.792,3.182,12.095,6.494,3.302,3.312,5.55,7.525,6.461,12.112.911,4.587.443,9.34-1.343,13.662-1.787,4.321-4.812,8.017-8.696,10.622-3.884,2.604-8.451,4.001-13.128,4.015-3.137.044-6.25-.543-9.156-1.725-2.906-1.183-5.544-2.936-7.759-5.157-2.215-2.221-3.961-4.864-5.136-7.773-1.174-2.909-1.752-6.023-1.7-9.16h0Zm49.991,99.271c-4.712.026-9.325-1.352-13.253-3.956-3.927-2.604-6.992-6.317-8.803-10.668-1.81-4.351-2.285-9.141-1.366-13.763.921-4.622,3.195-8.866,6.534-12.191,3.339-3.326,7.592-5.583,12.218-6.484,4.625-.901,9.414-.406,13.758,1.422,4.343,1.829,8.044,4.908,10.632,8.846,2.588,3.938,3.946,8.557,3.9,13.269-.003,3.096-.618,6.162-1.808,9.019-1.191,2.859-2.932,5.454-5.126,7.639-2.194,2.184-4.797,3.916-7.66,5.093-2.863,1.179-5.931,1.78-9.027,1.772h0Zm40.673-60.442c-4.645,0-9.103-1.824-12.414-5.081-3.312-3.256-5.209-7.684-5.286-12.328.138-4.54,2.025-8.851,5.268-12.032,3.243-3.18,7.589-4.984,12.132-5.034,4.541-.05,8.927,1.657,12.239,4.765,3.312,3.108,5.294,7.376,5.533,11.913-.016,4.659-1.852,9.127-5.116,12.453-3.265,3.325-7.699,5.242-12.357,5.343Zm39.411,60.442c-4.714.032-9.331-1.34-13.262-3.939-3.932-2.601-7.001-6.312-8.816-10.662-1.816-4.351-2.296-9.142-1.38-13.766.917-4.624,3.189-8.87,6.526-12.199,3.338-3.328,7.591-5.588,12.217-6.492,4.626-.903,9.418-.41,13.762,1.418,4.345,1.827,8.049,4.906,10.638,8.845,2.59,3.938,3.948,8.559,3.904,13.272-.017,6.245-2.509,12.229-6.931,16.638-4.423,4.41-10.412,6.885-16.657,6.885h0Zm27.826-75.585c-4.706.025-9.312-1.347-13.236-3.945-3.924-2.597-6.989-6.301-8.804-10.642-1.815-4.341-2.301-9.124-1.394-13.741.908-4.617,3.166-8.861,6.488-12.193,3.323-3.332,7.561-5.601,12.175-6.521,4.615-.92,9.399-.448,13.746,1.356,4.345,1.803,8.058,4.857,10.666,8.775,2.607,3.917,3.993,8.52,3.98,13.225.017,3.11-.581,6.192-1.762,9.069-1.18,2.877-2.918,5.492-5.114,7.694-2.196,2.202-4.807,3.947-7.681,5.135-2.873,1.188-5.954,1.796-9.064,1.787h0Z"/><path class="cls-2" d="m355.412,177.673c.068,41.851-14.712,82.369-41.708,114.35l-27.859-27.86c19.505-24.366,30.204-54.608,30.363-85.82.159-31.211-10.233-61.561-29.489-86.124l27.923-27.827c26.413,31.835,40.838,71.916,40.77,113.282h0Z"/><path class="cls-2" d="m292.059,41.676l-27.859,27.892c-24.358-19.48-54.578-30.168-85.767-30.332-31.188-.164-61.52,10.204-86.081,29.426l-27.892-27.892C96.506,14.258,136.839-.17,178.43.002c41.591.171,81.803,14.931,113.629,41.707v-.032Z"/><path class="cls-2" d="m39.221,177.673c-.047,30.951,10.325,61.018,29.445,85.358l-27.892,27.892C14.259,258.871-.17,218.533.002,176.936c.171-41.596,14.932-81.814,41.711-113.645l27.859,27.859c-19.701,24.528-30.412,55.061-30.351,86.523h0Z"/><path class="cls-2" d="m290.958,314.607c-32.056,26.518-72.4,40.949-114.003,40.777-41.601-.172-81.825-14.934-113.661-41.715l27.859-27.859c24.377,19.523,54.638,30.234,85.868,30.393,31.232.159,61.599-10.244,86.174-29.519l27.762,27.923Z"/></svg>