<?xml version="1.0" encoding="utf-8"?>
<!-- Generator: Adobe Illustrator 27.9.1, SVG Export Plug-In . SVG Version: 6.00 Build 0)  -->
<svg version="1.1" id="Layer_1" xmlns="http://www.w3.org/2000/svg" xmlns:xlink="http://www.w3.org/1999/xlink" x="0px" y="0px"
	 viewBox="0 0 216 72" style="enable-background:new 0 0 216 72;" xml:space="preserve">
<style type="text/css">
	.st0{fill:#FFFFFF;}
</style>
<g>
	<path class="st0" d="M74.972,45.398c0,0.132,0,0.264-0.132,0.396c0,0.132-0.132,0.264-0.264,0.396
		c-0.132,0.132-0.264,0.132-0.396,0.264c-0.132,0-0.264,0.132-0.396,0.132c-0.132,0-0.264,0-0.396-0.132
		c-0.132,0-0.264-0.132-0.396-0.264l-7.259-8.051l-1.848,1.98v5.279c0,0.264-0.132,0.66-0.396,0.792
		c-0.264,0.264-0.528,0.396-0.792,0.396s-0.528-0.132-0.792-0.396s-0.264-0.528-0.264-0.792V28.636c0-0.264,0.132-0.66,0.264-0.792
		c0.264-0.264,0.528-0.396,0.792-0.396s0.528,0.132,0.792,0.396s0.396,0.528,0.396,0.792v8.711l8.315-9.503
		c0.132-0.132,0.264-0.264,0.396-0.264s0.264-0.132,0.396-0.132c0.264,0,0.528,0.132,0.792,0.264
		c0.264,0.264,0.264,0.528,0.396,0.792c0,0.264-0.132,0.528-0.264,0.792l-6.599,7.259l7.259,8.051
		C74.84,44.87,74.972,45.134,74.972,45.398L74.972,45.398z"/>
	<path class="st0" d="M97.278,45.266c0,0.264-0.132,0.528-0.264,0.792c-0.132,0.264-0.396,0.396-0.66,0.396s-0.528,0-0.792-0.132
		s-0.396-0.396-0.528-0.66l-1.584-3.432h-9.767l-1.452,3.564c-0.132,0.264-0.264,0.396-0.396,0.528
		c-0.132,0.132-0.396,0.132-0.66,0.132c-0.132,0-0.264,0-0.528-0.132c-0.132,0-0.264-0.132-0.396-0.264
		c-0.132-0.132-0.264-0.264-0.264-0.396s-0.132-0.264-0.132-0.396s0-0.264,0.132-0.528l6.599-15.97
		c0.132-0.396,0.396-0.66,0.792-0.924c0.396-0.264,0.792-0.396,1.188-0.396c0.396,0,0.792,0.132,1.188,0.396
		c0.396,0.264,0.66,0.528,0.792,0.924l6.599,15.97C97.146,45.002,97.278,45.134,97.278,45.266L97.278,45.266z M92.791,40.119
		l-4.092-10.427l-4.092,10.427H92.791z"/>
	<path class="st0" d="M116.02,45.794l-10.691-14.519v13.859c0,0.264-0.132,0.528-0.396,0.792c-0.264,0.264-0.528,0.396-0.792,0.396
		c-0.132,0-0.264,0-0.396-0.132c-0.132,0-0.264-0.132-0.396-0.264c-0.132-0.132-0.264-0.264-0.264-0.396s-0.132-0.264-0.132-0.396
		V29.032c0-0.396,0.132-0.792,0.528-1.056c0.264-0.264,0.66-0.396,1.056-0.396c0.264,0,0.528,0,0.66,0.132
		c0.264,0.132,0.396,0.264,0.528,0.396l10.559,14.255V28.636c0-0.264,0.132-0.528,0.396-0.792c0.264-0.264,0.528-0.396,0.792-0.396
		c0.132,0,0.264,0,0.396,0.132c0.132,0,0.264,0.132,0.396,0.264c0.132,0.132,0.264,0.264,0.264,0.396
		c0,0.132,0.132,0.264,0.132,0.396V44.87c0,0.264,0,0.66-0.264,0.924c-0.132,0.264-0.396,0.528-0.792,0.528
		c-0.264,0.132-0.66,0.132-0.924,0C116.416,46.322,116.152,46.058,116.02,45.794L116.02,45.794z"/>
	<path class="st0" d="M126.051,45.266v-16.63c0-0.132,0-0.264,0.132-0.396c0-0.132,0.132-0.264,0.264-0.396
		c0.132-0.132,0.264-0.132,0.396-0.264c0.132,0,0.264-0.132,0.528-0.132c0.264,0,0.66,0.132,0.792,0.396
		c0.264,0.264,0.396,0.528,0.396,0.792v16.63c0,0.264-0.132,0.528-0.396,0.792c-0.264,0.264-0.528,0.396-0.792,0.396
		c-0.132,0-0.264,0-0.528-0.132c-0.132,0-0.264-0.132-0.396-0.264c-0.132-0.132-0.264-0.264-0.264-0.396
		C126.183,45.662,126.051,45.53,126.051,45.266L126.051,45.266z"/>
	<path class="st0" d="M135.95,43.419c0-0.132,0-0.264,0.132-0.396c0-0.132,0.132-0.264,0.264-0.396
		c0.132-0.132,0.264-0.132,0.396-0.264c0.132,0,0.264-0.132,0.396-0.132c0.264,0,0.528,0.132,0.66,0.264
		c1.32,1.188,3.168,1.98,4.884,1.98c3.168,0,4.224-1.716,4.224-3.168c0-2.244-2.244-2.772-4.62-3.432
		c-2.904-0.792-6.071-1.584-6.071-5.147c0-3.036,2.64-5.147,6.335-5.147c1.98,0,3.96,0.66,5.543,1.848
		c0.132,0.132,0.264,0.264,0.396,0.396c0.132,0.132,0.132,0.264,0.132,0.528c0,0.264-0.132,0.528-0.264,0.792
		c-0.132,0.264-0.396,0.264-0.792,0.396c-0.264,0-0.528-0.132-0.66-0.264c-1.32-1.056-2.904-1.584-4.488-1.584
		c-2.376,0-3.828,1.188-3.828,2.904c0,1.716,2.112,2.376,4.356,3.036c2.904,0.792,6.335,1.716,6.335,5.543
		c0,2.64-1.716,5.411-6.599,5.411c-2.244,0.132-4.488-0.66-6.203-2.244c-0.132-0.132-0.264-0.264-0.264-0.396
		C135.95,43.683,135.95,43.551,135.95,43.419L135.95,43.419z"/>
	<path class="st0" d="M160.764,45.266V29.56h-4.883c-0.264,0-0.528-0.132-0.66-0.264c-0.132-0.132-0.264-0.396-0.264-0.792
		c0-0.396,0.132-0.528,0.264-0.792c0.132-0.132,0.396-0.264,0.66-0.264h12.011c0.264,0,0.528,0.132,0.66,0.264
		c0.132,0.132,0.264,0.396,0.264,0.792c0,0.396-0.132,0.528-0.264,0.792c-0.132,0.132-0.396,0.264-0.66,0.264h-4.883v15.706
		c0,0.264-0.132,0.66-0.264,0.792c-0.264,0.264-0.528,0.396-0.792,0.396c-0.264,0-0.528-0.132-0.792-0.396
		C160.896,45.926,160.764,45.662,160.764,45.266L160.764,45.266z"/>
	<path class="st0" d="M175.546,45.266V28.768c0-0.132,0-0.396,0-0.528c0-0.132,0.132-0.264,0.264-0.396
		c0.132-0.132,0.264-0.264,0.396-0.264c0.132,0,0.264-0.132,0.528,0h10.031c0.264,0,0.528,0.132,0.792,0.264
		c0.132,0.132,0.264,0.528,0.264,0.792c0,0.264-0.132,0.528-0.264,0.792c-0.132,0.132-0.396,0.264-0.792,0.264h-8.975v6.071h8.843
		c0.264,0,0.528,0.132,0.792,0.264c0.132,0.132,0.264,0.528,0.264,0.792s-0.132,0.528-0.264,0.792
		c-0.132,0.132-0.396,0.264-0.792,0.264h-8.843v6.467h8.975c0.264,0,0.528,0.132,0.792,0.264s0.264,0.528,0.264,0.792
		c0,0.264-0.132,0.528-0.264,0.792c-0.132,0.132-0.396,0.264-0.792,0.264h-10.031c-0.132,0-0.396,0-0.528,0
		c-0.132,0-0.264-0.132-0.396-0.264c-0.132-0.132-0.264-0.264-0.264-0.396C175.546,45.53,175.546,45.398,175.546,45.266z"/>
	<path class="st0" d="M207.619,45.398c0,0.264-0.132,0.528-0.396,0.792c-0.264,0.264-0.528,0.264-0.792,0.264
		c-0.132,0-0.396,0-0.528-0.132c-0.132-0.132-0.264-0.264-0.396-0.396l-4.752-6.995h-4.092v6.467c0,0.264-0.132,0.66-0.396,0.792
		c-0.264,0.264-0.528,0.396-0.792,0.396c-0.264,0-0.528-0.132-0.792-0.396c-0.264-0.264-0.396-0.528-0.396-0.792v-16.63
		c0-0.132,0-0.396,0-0.528c0-0.132,0.132-0.264,0.264-0.396c0.132-0.132,0.264-0.264,0.396-0.264c0.132,0,0.264-0.132,0.528,0h6.203
		c0.792,0,1.452,0,2.244,0.264c0.66,0.264,1.32,0.66,1.848,1.188c0.528,0.528,0.924,1.188,1.188,1.848
		c0.264,0.66,0.396,1.452,0.396,2.244c0.132,1.32-0.396,2.508-1.188,3.564c-0.792,1.056-1.98,1.716-3.168,1.848l4.224,6.071
		C207.619,44.738,207.619,45.002,207.619,45.398L207.619,45.398z M196.664,36.819h4.752c0.396,0,0.924-0.132,1.32-0.264
		c0.396-0.132,0.792-0.396,1.188-0.792c0.264-0.396,0.528-0.792,0.792-1.188c0.132-0.396,0.264-0.924,0.264-1.32
		c0-0.528-0.132-0.924-0.264-1.32c-0.132-0.396-0.396-0.792-0.792-1.188c-0.264-0.396-0.66-0.66-1.188-0.792
		c-0.396-0.132-0.924-0.264-1.32-0.264h-4.752V36.819z"/>
	<path class="st0" d="M44.241,34.529c-0.304-2.934-1.502-5.704-3.431-7.934l-0.228-0.255c-1.931-2.125-4.454-3.623-7.244-4.301
		c-2.79-0.678-5.719-0.504-8.41,0.499c-2.691,1.003-5.019,2.788-6.685,5.127c-1.666,2.338-2.593,5.123-2.662,7.993
		c-0.069,2.87,0.724,5.696,2.276,8.111c1.552,2.416,3.792,4.311,6.432,5.441c2.639,1.131,5.557,1.444,8.376,0.901
		c2.819-0.543,5.411-1.919,7.442-3.949c0.236-0.236,0.455-0.475,0.671-0.722c1.864-2.141,3.054-4.785,3.42-7.601
		c0-0.122,0.027-0.24,0.039-0.361c0.012-0.122,0-0.157,0.024-0.236c0.037-0.406,0.055-0.817,0.055-1.233
		C44.316,35.515,44.292,35.021,44.241,34.529L44.241,34.529L44.241,34.529z M29.896,24.738c0.571,0.002,1.128,0.173,1.602,0.491
		c0.473,0.319,0.841,0.771,1.058,1.299c0.216,0.528,0.27,1.109,0.156,1.668c-0.114,0.559-0.392,1.072-0.798,1.473
		c-0.406,0.401-0.922,0.673-1.483,0.78c-0.561,0.108-1.14,0.046-1.666-0.177c-0.526-0.223-0.973-0.596-1.286-1.073
		c-0.313-0.477-0.477-1.037-0.472-1.608c-0.002-0.378,0.072-0.753,0.217-1.102c0.145-0.349,0.358-0.666,0.627-0.932
		c0.269-0.266,0.589-0.475,0.94-0.616S29.517,24.732,29.896,24.738L29.896,24.738L29.896,24.738z M18.899,33.481
		c0.003-0.567,0.174-1.121,0.491-1.592c0.317-0.47,0.767-0.836,1.292-1.052c0.525-0.215,1.102-0.271,1.658-0.158
		c0.556,0.112,1.067,0.386,1.468,0.788c0.401,0.402,0.673,0.913,0.784,1.47c0.111,0.557,0.054,1.133-0.163,1.658
		c-0.217,0.524-0.584,0.973-1.055,1.289c-0.471,0.316-1.025,0.485-1.593,0.487c-0.381,0.005-0.758-0.066-1.111-0.209
		c-0.353-0.144-0.673-0.356-0.941-0.626c-0.269-0.269-0.481-0.59-0.623-0.943C18.963,34.239,18.893,33.862,18.899,33.481
		L18.899,33.481L18.899,33.481z M24.965,45.526c-0.572,0.003-1.131-0.164-1.608-0.48c-0.476-0.316-0.848-0.766-1.068-1.294
		c-0.22-0.528-0.277-1.109-0.166-1.67c0.112-0.561,0.388-1.076,0.793-1.479c0.405-0.404,0.921-0.677,1.482-0.787
		c0.561-0.109,1.142-0.049,1.669,0.173c0.527,0.222,0.976,0.596,1.29,1.073c0.314,0.478,0.479,1.038,0.473,1.61
		c0,0.376-0.075,0.748-0.219,1.094c-0.145,0.347-0.356,0.662-0.622,0.927c-0.266,0.265-0.582,0.475-0.929,0.618
		C25.712,45.454,25.34,45.527,24.965,45.526L24.965,45.526L24.965,45.526z M29.9,38.192c-0.564,0-1.104-0.221-1.506-0.616
		c-0.402-0.395-0.632-0.932-0.641-1.496c0.017-0.551,0.246-1.074,0.639-1.46c0.393-0.386,0.921-0.605,1.472-0.611
		c0.551-0.006,1.083,0.201,1.485,0.578c0.402,0.377,0.642,0.895,0.671,1.445c-0.002,0.565-0.225,1.107-0.621,1.511
		C31.003,37.947,30.465,38.18,29.9,38.192L29.9,38.192z M34.681,45.526c-0.572,0.004-1.132-0.163-1.609-0.478
		c-0.477-0.316-0.849-0.766-1.07-1.294c-0.22-0.528-0.279-1.109-0.167-1.67c0.111-0.561,0.387-1.076,0.792-1.48
		c0.405-0.404,0.921-0.678,1.482-0.788c0.561-0.11,1.143-0.05,1.67,0.172c0.527,0.222,0.977,0.595,1.291,1.073
		c0.314,0.478,0.479,1.038,0.474,1.61c-0.002,0.758-0.304,1.484-0.841,2.019C36.166,45.226,35.439,45.526,34.681,45.526
		L34.681,45.526L34.681,45.526z M38.058,36.355c-0.571,0.003-1.13-0.163-1.606-0.479c-0.476-0.315-0.848-0.765-1.068-1.291
		c-0.22-0.527-0.279-1.107-0.169-1.667c0.11-0.56,0.384-1.075,0.787-1.479c0.403-0.404,0.917-0.68,1.477-0.791
		c0.56-0.112,1.14-0.054,1.668,0.165c0.527,0.219,0.978,0.589,1.294,1.065c0.316,0.475,0.484,1.034,0.483,1.605
		c0.002,0.377-0.07,0.751-0.214,1.1c-0.143,0.349-0.354,0.666-0.621,0.934c-0.266,0.267-0.583,0.479-0.932,0.623
		C38.809,36.282,38.435,36.356,38.058,36.355L38.058,36.355L38.058,36.355z"/>
	<path class="st0" d="M51.504,35.998c0.008,5.078-1.785,9.994-5.061,13.875l-3.38-3.38c2.367-2.956,3.665-6.626,3.684-10.413
		c0.019-3.787-1.242-7.469-3.578-10.45l3.388-3.376C49.762,26.115,51.513,30.979,51.504,35.998L51.504,35.998L51.504,35.998z"/>
	<path class="st0" d="M43.818,19.497l-3.38,3.384c-2.955-2.364-6.622-3.66-10.406-3.68c-3.784-0.02-7.464,1.238-10.445,3.57
		l-3.384-3.384c3.888-3.217,8.782-4.967,13.828-4.947c5.046,0.021,9.925,1.812,13.787,5.06V19.497L43.818,19.497z"/>
	<path class="st0" d="M13.14,35.998c-0.006,3.755,1.253,7.404,3.573,10.357l-3.384,3.384c-3.217-3.889-4.968-8.783-4.947-13.83
		c0.021-5.047,1.812-9.927,5.061-13.789l3.38,3.38C14.432,28.475,13.132,32.18,13.14,35.998L13.14,35.998z"/>
	<path class="st0" d="M43.684,52.612c-3.889,3.218-8.785,4.968-13.832,4.948c-5.048-0.021-9.928-1.812-13.791-5.061l3.38-3.38
		c2.958,2.369,6.629,3.668,10.419,3.688c3.789,0.019,7.474-1.243,10.456-3.582L43.684,52.612L43.684,52.612z"/>
</g>
</svg>
