<?xml version="1.0" encoding="utf-8"?>
<!-- Generator: Adobe Illustrator 22.1.0, SVG Export Plug-In . SVG Version: 6.00 Build 0)  -->
<svg version="1.1" id="Layer_1" xmlns="http://www.w3.org/2000/svg" xmlns:xlink="http://www.w3.org/1999/xlink" x="0px" y="0px"
	 viewBox="0 0 256.1 25.5" style="enable-background:new 0 0 256.1 25.5;" xml:space="preserve">
<style type="text/css">
	.st2{fill:#ffffff;}
	.st3{fill:#4eb13d;}
</style>
<g>
	<path class="st2" d="M128.3,2.6c-1.4-0.4-2.8,0.3-3.5,1.6l-8.6,16.8c-0.4,0.7-1,0.8-1.3,0.8c-0.3,0-0.9-0.1-1.3-0.8L105,4.2
		c-0.7-1.3-2.1-1.9-3.5-1.6c-1.4,0.4-2.4,1.6-2.4,3.1v17.6c0,0.8,0.7,1.5,1.5,1.5c0.8,0,1.5-0.7,1.5-1.5V5.4c0-0.1,0-0.2,0.1-0.2
		c0.1,0,0.1,0.1,0.2,0.1l8.6,16.8c0.8,1.5,2.3,2.4,3.9,2.4s3.1-0.9,3.9-2.4l8.6-16.8c0-0.1,0.1-0.1,0.2-0.1c0.1,0,0.1,0.1,0.1,0.2
		v17.9c0,0.8,0.7,1.5,1.5,1.5c0.8,0,1.5-0.7,1.5-1.5V5.7C130.6,4.2,129.7,3,128.3,2.6"/>
	<path class="st2" d="M25.1,2.7c-0.7-0.4-1.6-0.1-2,0.6l-9.4,18.2C13.5,21.8,13.2,22,13,22s-0.6-0.2-0.7-0.6L2.8,3.3
		c-0.4-0.7-1.3-1-2-0.6c-0.7,0.4-1,1.3-0.6,2l9.4,17.9c0.7,1.4,2,2.2,3.4,2.2s2.7-0.8,3.4-2.2l9.4-17.9C26.1,4,25.8,3.1,25.1,2.7"/>
	<path class="st2" d="M28.3,12.4C29,8.4,32.4,5,36.5,5s7.5,3.4,8.2,7.4H28.3z M36.5,2.1c-6.2,0-11.3,5.2-11.3,11.5
		c0,6.4,5.1,11.5,11.3,11.5c3.6,0,6.9-1.7,9.1-4.7c0.5-0.7,0.4-1.6-0.3-2.1c-0.7-0.5-1.6-0.4-2.1,0.3c-1.6,2.2-4,3.6-6.7,3.6
		c-4.1,0-7.5-3.1-8.2-7.1h18c0.8,0,1.5-0.7,1.5-1.5C47.8,7.3,42.7,2.1,36.5,2.1"/>
	<path class="st2" d="M52.8,12.4C53.5,8.4,56.9,5,61,5s7.5,3.4,8.2,7.4H52.8z M61,2.1c-6.2,0-11.3,5.2-11.3,11.5
		c0,6.4,5.1,11.5,11.3,11.5c3.6,0,6.9-1.7,9.1-4.7c0.5-0.7,0.4-1.6-0.3-2.1c-0.7-0.5-1.6-0.4-2.1,0.3c-1.6,2.2-4,3.6-6.7,3.6
		c-4.1,0-7.5-3.1-8.2-7.1h18c0.8,0,1.5-0.7,1.5-1.5C72.3,7.3,67.3,2.1,61,2.1"/>
	<path class="st2" d="M87.6,4.6c-0.7-1.3-1.9-2.1-3.3-2.1c-1.4,0-2.6,0.8-3.3,2.1l-9.4,18c-0.4,0.7-0.1,1.7,0.6,2
		c0.2,0.1,0.5,0.2,0.7,0.2c0.5,0,1.1-0.3,1.3-0.8l2.6-5h10.8c0.8,0,1.5-0.7,1.5-1.5c0-0.8-0.7-1.4-1.5-1.4l-9.3,0l5.2-10.4
		c0.2-0.3,0.4-0.5,0.6-0.5c0.2,0,0.5,0.2,0.6,0.5L94.3,24c0.4,0.7,1.3,1,2,0.6c0.7-0.4,0.9-1.4,0.6-2.2L87.6,4.6z"/>
</g>
<g>
	<g>
		<path class="st3" d="M185.1,2.5c-0.8,0-1.5,0.8-1.5,1.6v17.5c0,0.1-0.1,0.1-0.2,0.1c-0.3-0.4-12.3-14.2-14.6-16.8
			c-0.7-0.9-1.5-1.6-2.5-2.1c-0.4-0.2-0.9-0.3-1.5-0.3c-0.1,0-0.1,0-0.2,0c-1.3,0.1-2.1,1.3-2.1,2.6v18.1c0,0.8,0.6,1.6,1.4,1.6
			c0.8,0,1.6-0.7,1.6-1.6V5.6c0-0.1,0.1-0.2,0.2-0.1c2.3,2.6,14.3,16.7,14.4,16.8c0.7,0.9,1.5,1.6,2.5,2.1c0.4,0.2,1.1,0.3,1.6,0.3
			c0.1,0,0.1,0,0.2,0c1.3-0.1,2.1-1.2,2.1-2.5V4C186.6,3.2,186,2.5,185.1,2.5"/>
	</g>
	<rect x="144.6" class="st3" width="3.8" height="9.8"/>
	<path class="st3" d="M146.6,25.3c-6.7,0-12.2-5.5-12.2-12.3c0-4.4,2.4-8.5,6.2-10.7l1.8,3.3c-2.6,1.5-4.3,4.4-4.3,7.5
		c0,4.7,3.8,8.6,8.5,8.6c4.7,0,8.5-3.8,8.5-8.6c0-3.1-1.6-5.9-4.3-7.5l1.8-3.3c3.8,2.2,6.2,6.3,6.2,10.7
		C158.8,19.7,153.4,25.3,146.6,25.3"/>
	<path class="st3" d="M216.8,5c-2.7,0-5.9,2.4-5.9,8.7c0,3.9,1.5,8.7,5.9,8.7c4.3,0,5.9-4.8,5.9-8.7C222.7,9.8,221.2,5,216.8,5
		 M216.8,25.2c-5.3,0-8.9-4.6-8.9-11.5c0-6.9,3.6-11.5,8.9-11.5c5.3,0,8.9,4.6,8.9,11.5C225.7,20.6,222.1,25.2,216.8,25.2"/>
	<path class="st3" d="M234.7,24.8c-0.8,0-1.5-0.7-1.5-1.5V5.8l-3.9,1.9c-0.7,0.4-1.5,0.3-1.9-0.4c-0.4-0.7-0.1-1.5,0.6-1.9l4.5-2.3
		c0.7-0.4,1.9-0.6,2.6-0.2c0.7,0.4,1.1,1.1,1.1,1.9v18.5C236.2,24.1,235.5,24.8,234.7,24.8"/>
	<path class="st3" d="M204.7,24.7h-11.1c-0.8,0-1.6-0.5-1.9-1.3c-0.3-0.8-0.1-1.6,0.4-2.2c0,0,8.3-8.3,8.3-8.4
		c1.4-1.5,2.2-2.5,2.2-3.9c0-1.8-1.7-4-4.3-4c-2.4,0-4.1,1.9-4.2,4.3c0,0.8-0.7,1.5-1.5,1.4c-0.8,0-1.5-0.7-1.4-1.5
		c0.1-4,3.2-7,7.2-7c4,0,7.1,2.9,7.1,6.6c0,2.4-0.9,4.1-3.1,6.3c0,0-6.9,6.7-6.9,6.7h9.1c0.8,0,1.6,0.6,1.6,1.4
		C206.2,24,205.5,24.7,204.7,24.7"/>
	<path class="st3" d="M249.1,2.2c-2.5-0.3-4.9,0.3-6.7,1.9c-1.7,1.5-2.6,3.6-2.6,5.9c0,3.7,1.9,6.6,5.4,7.6c0,0,0.5,0.1,1,0.1
		c0.9-0.1,1.3-0.8,1.3-1.5c0-0.7-0.4-1.1-1.3-1.4c0,0-0.2-0.1-0.2-0.1c-2.4-0.7-3.4-2.7-3.1-5.2c0.2-2,1.7-3.5,3.7-4.1
		c1.7-0.4,3.4-0.1,4.6,0.9c1.2,0.9,1.8,2.3,1.8,3.8c0,0.5-0.2,1.1-0.3,1.6c-0.6,2.1-5.6,10.1-6.3,11.2c-0.3,0.3-0.4,0.7-0.4,1.1
		c0,0.9,0.8,1.7,1.7,1.7c0.5,0,1-0.2,1.3-0.7l0.4-0.5l4.1-7.3c1.1-2,1.7-3.1,2.2-4.3c0.1-0.3,0.2-0.5,0.2-0.7
		c0.2-0.7,0.2-1.3,0.2-1.9C256.1,6.3,252.9,2.7,249.1,2.2"/>
</g>
</svg>
