<?xml version="1.0" encoding="utf-8"?>
<!-- Generator: Adobe Illustrator 22.0.1, SVG Export Plug-In . SVG Version: 6.00 Build 0)  -->
<svg version="1.1" xmlns="http://www.w3.org/2000/svg" xmlns:xlink="http://www.w3.org/1999/xlink" x="0px" y="0px"
	 viewBox="0 0 221.5 125.5" style="enable-background:new 0 0 221.5 125.5;" xml:space="preserve">
<style type="text/css">
	.st0{fill:#FFFFFF;}
	.st1{fill:#ED1C24;}
	.st2{fill:#231F20;}
	.st3{fill:#201D0F;}
	.st4{fill:#EC1C24;}
	.st5{fill:#ED2D26;}
</style>
<g id="Layer_1">
	<rect y="33" class="st0" width="221.5" height="92.5"/>
	<path class="st1" d="M11.1,79.4v-0.2c0-19.7,15.1-35.1,35.5-35.1c13.8,0,22.6,5.8,28.6,14.1L61.2,69.1c-3.9-4.8-8.3-7.9-14.7-7.9
		c-9.4,0-16.1,8-16.1,17.8v0.2c0,10.1,6.6,18,16.1,18c7,0,11.2-3.3,15.2-8.2l14.1,10c-6.4,8.8-14.9,15.2-29.9,15.2
		C26.6,114.2,11.1,99.5,11.1,79.4"/>
	<path class="st1" d="M79.2,45.5h31.9c10.3,0,17.4,2.7,22,7.3c3.9,3.9,6,9.1,6,15.7v0.2c0,10.3-5.5,17.1-13.9,20.7l16.1,23.5h-21.6
		l-13.6-20.4h-0.2h-8v20.4H79.2V45.5z M110.2,77.8c6.4,0,10-3.1,10-8v-0.2c0-5.3-3.9-8-10.1-8H97.9v16.2H110.2z"/>
	<polygon class="st1" points="144,45.5 161.4,45.5 189.1,81.1 189.1,45.5 207.6,45.5 207.6,112.9 191.3,112.9 162.4,75.9 
		162.4,112.9 144,112.9 	"/>
	<g>
		<path class="st2" d="M211.3,109.9L211.3,109.9c0-1.8,1.5-3.4,3.4-3.4c1.9,0,3.3,1.5,3.3,3.3v0c0,1.8-1.5,3.3-3.4,3.3
			C212.7,113.3,211.3,111.8,211.3,109.9z M217.6,109.9L217.6,109.9c0-1.7-1.3-3.1-3-3.1c-1.7,0-3,1.4-3,3.1v0c0,1.7,1.3,3,3,3
			C216.3,113,217.6,111.6,217.6,109.9z M213.3,108.1h1.5c0.4,0,0.8,0.1,1,0.4c0.2,0.2,0.3,0.4,0.3,0.7v0c0,0.6-0.4,0.9-0.9,1
			l1.1,1.4h-0.6l-1-1.3h0h-0.9v1.3h-0.5V108.1z M214.8,109.8c0.5,0,0.8-0.2,0.8-0.6v0c0-0.4-0.3-0.6-0.8-0.6h-1v1.2H214.8z"/>
	</g>
</g>
<g id="stack">
	<g>
		<g>
			<polygon class="st3" points="36.5,9.6 40.5,9.6 40.5,22.4 41.6,22.4 41.6,9.6 45.6,9.6 45.6,8.6 36.5,8.6 			"/>
			<polygon class="st3" points="56.5,15 49.1,15 49.1,8.6 48.1,8.6 48.1,22.4 49.1,22.4 49.1,16 56.5,16 56.5,22.4 57.5,22.4 
				57.5,8.6 56.5,8.6 			"/>
			<polygon class="st3" points="62,21.5 62,15.9 68.5,15.9 68.5,15 62,15 62,9.6 69.3,9.6 69.3,8.6 61,8.6 61,22.4 69.4,22.4 
				69.4,21.5 			"/>
		</g>
		<path class="st3" d="M71.6,15.6v-0.2c0-4.2,2.6-7,6.2-7c2,0,3.4,0.7,4.4,1.8l-1.7,2.2c-0.8-0.8-1.7-1.4-2.8-1.4
			c-1.8,0-3.2,1.7-3.2,4.4v0.1c0,2.7,1.4,4.4,3.2,4.4c1.1,0,1.9-0.5,2.8-1.4l1.7,2c-1.2,1.3-2.6,2.1-4.7,2.1
			C74.1,22.6,71.6,19.8,71.6,15.6"/>
		<polygon class="st3" points="84.3,8.6 87.2,8.6 87.2,14.2 91.7,14.2 91.7,8.6 94.5,8.6 94.5,22.4 91.7,22.4 91.7,16.8 87.2,16.8 
			87.2,22.4 84.3,22.4 		"/>
		<path class="st3" d="M101.2,8.6h2.7l4.9,13.8h-3l-1-3h-4.7l-1,3h-2.9L101.2,8.6z M104,16.9l-1.5-4.5l-1.5,4.5H104z"/>
		<polygon class="st3" points="110.5,8.6 113.2,8.6 118.4,16.7 118.4,8.6 121.2,8.6 121.2,22.4 118.8,22.4 113.3,14.1 113.3,22.4 
			110.5,22.4 		"/>
		<polygon class="st3" points="124.4,8.6 127,8.6 132.3,16.7 132.3,8.6 135,8.6 135,22.4 132.6,22.4 127.2,14.1 127.2,22.4 
			124.4,22.4 		"/>
		<polygon class="st3" points="138.2,8.6 147,8.6 147,11.2 141,11.2 141,14.2 146.3,14.2 146.3,16.8 141,16.8 141,19.8 147.1,19.8 
			147.1,22.4 138.2,22.4 		"/>
		<polygon class="st3" points="149.8,8.6 152.6,8.6 152.6,19.8 158.2,19.8 158.2,22.4 149.8,22.4 		"/>
		<g>
			<path class="st3" d="M169.2,20.1c-1.1,1.1-2.2,1.6-3.6,1.6c-1.3,0-2.6-0.6-3.5-1.7c-0.9-1.1-1.4-2.7-1.4-4.4v-0.1
				c0-1.7,0.5-3.3,1.4-4.4c0.9-1.1,2.1-1.7,3.5-1.7c1.3,0,2.4,0.5,3.5,1.5l0,0l0.7-0.8l0,0l0,0c-0.9-0.8-2.1-1.7-4.1-1.7
				c-3.5,0-6,3-6,7.1v0.1c0,2,0.6,3.8,1.7,5.1c1.1,1.3,2.6,1.9,4.2,1.9c1.6,0,3-0.6,4.3-1.8l0,0L169.2,20.1L169.2,20.1z"/>
			<path class="st3" d="M181.4,10.4c-1.1-1.3-2.5-2-4.2-2c-1.7,0-3.2,0.7-4.2,2c-1,1.3-1.6,3.1-1.6,5v0.1c0,2,0.6,3.8,1.6,5
				c1.1,1.3,2.6,2,4.2,2c1.7,0,3.2-0.7,4.2-2c1-1.3,1.6-3.1,1.6-5v-0.1C183,13.5,182.4,11.7,181.4,10.4z M181.9,15.5v0.1
				c0,3.5-2,6.1-4.7,6.1c-1.3,0-2.5-0.6-3.4-1.7c-0.9-1.1-1.4-2.7-1.4-4.4v-0.1c0-3.5,2-6.1,4.8-6.1c1.3,0,2.5,0.6,3.4,1.7
				C181.4,12.2,181.9,13.8,181.9,15.5z"/>
		</g>
		<rect x="71.6" y="27.9" class="st4" width="86.6" height="3"/>
		<rect x="71.6" y="0.2" class="st4" width="86.7" height="3"/>
		<g>
			<path class="st2" d="M183.6,21.3L183.6,21.3c0-1,0.8-1.8,1.8-1.8c1,0,1.8,0.8,1.8,1.8v0c0,1-0.8,1.8-1.8,1.8
				C184.3,23.1,183.6,22.3,183.6,21.3z M187,21.3L187,21.3c0-0.9-0.7-1.6-1.6-1.6c-0.9,0-1.6,0.7-1.6,1.6v0c0,0.9,0.7,1.6,1.6,1.6
				C186.3,22.9,187,22.2,187,21.3z M184.7,20.3h0.8c0.2,0,0.4,0.1,0.5,0.2c0.1,0.1,0.1,0.2,0.1,0.4v0c0,0.3-0.2,0.5-0.5,0.5l0.6,0.7
				h-0.3l-0.5-0.7h0h-0.5v0.7h-0.3V20.3z M185.4,21.2c0.3,0,0.4-0.1,0.4-0.3v0c0-0.2-0.2-0.3-0.4-0.3h-0.5v0.6H185.4z"/>
		</g>
	</g>
	<rect x="72.2" class="st5" width="86.2" height="3"/>
	<g>
	</g>
	<g>
	</g>
	<g>
	</g>
	<g>
	</g>
	<g>
	</g>
	<g>
	</g>
</g>
</svg>
